G04*
G04 #@! TF.GenerationSoftware,Altium Limited,Altium Designer,19.1.9 (167)*
G04*
G04 Layer_Color=7477623*
%FSLAX44Y44*%
%MOMM*%
G71*
G01*
G75*
%ADD19R,3.8500X1.5000*%
%ADD20O,1.9500X0.7500*%
%ADD21R,1.0500X0.5000*%
%ADD22R,1.3500X2.0500*%
%ADD23R,1.2500X2.2500*%
%ADD24R,6.9500X7.0500*%
%ADD25R,4.6500X1.9500*%
%ADD26R,1.7500X1.1500*%
%ADD27R,1.6700X1.4200*%
%ADD28R,3.2000X2.6900*%
%ADD29R,2.6500X1.3500*%
%ADD30R,6.4000X6.6500*%
%ADD31R,2.5500X3.4500*%
%ADD32R,0.6500X1.0000*%
%ADD33R,0.7500X1.1500*%
%ADD34R,0.6500X1.1500*%
%ADD35R,1.9500X1.4500*%
%ADD36R,1.1500X1.4000*%
%ADD37O,2.0500X0.7500*%
%ADD38R,3.4500X1.1500*%
%ADD39R,1.8500X2.6500*%
%ADD40R,1.0600X1.3700*%
%ADD41R,2.8500X1.1500*%
%ADD42R,1.8500X0.7500*%
%ADD43R,2.4500X2.6500*%
%ADD44R,1.3500X1.9500*%
%ADD45R,0.7500X1.7000*%
%ADD46R,1.2500X0.7500*%
%ADD47R,1.4000X1.1500*%
%ADD48R,2.6500X2.4500*%
%ADD49R,1.3700X1.0600*%
%ADD50R,1.1500X3.4500*%
%ADD51R,1.1500X1.7500*%
%ADD52P,2.8684X8X112.5*%
%ADD53C,2.6500*%
%ADD54C,1.8000*%
G04:AMPARAMS|DCode=55|XSize=6.15mm|YSize=6.15mm|CornerRadius=1.575mm|HoleSize=0mm|Usage=FLASHONLY|Rotation=0.000|XOffset=0mm|YOffset=0mm|HoleType=Round|Shape=RoundedRectangle|*
%AMROUNDEDRECTD55*
21,1,6.1500,3.0000,0,0,0.0*
21,1,3.0000,6.1500,0,0,0.0*
1,1,3.1500,1.5000,-1.5000*
1,1,3.1500,-1.5000,-1.5000*
1,1,3.1500,-1.5000,1.5000*
1,1,3.1500,1.5000,1.5000*
%
%ADD55ROUNDEDRECTD55*%
%ADD56C,1.7500*%
%ADD57C,2.1500*%
%ADD58C,0.6500*%
%ADD59C,2.3500*%
%ADD60C,3.1500*%
%ADD61C,3.0000*%
%ADD62C,2.7000*%
%ADD63C,2.4000*%
G04:AMPARAMS|DCode=64|XSize=4.15mm|YSize=4.15mm|CornerRadius=1.075mm|HoleSize=0mm|Usage=FLASHONLY|Rotation=270.000|XOffset=0mm|YOffset=0mm|HoleType=Round|Shape=RoundedRectangle|*
%AMROUNDEDRECTD64*
21,1,4.1500,2.0000,0,0,270.0*
21,1,2.0000,4.1500,0,0,270.0*
1,1,2.1500,-1.0000,-1.0000*
1,1,2.1500,-1.0000,1.0000*
1,1,2.1500,1.0000,1.0000*
1,1,2.1500,1.0000,-1.0000*
%
%ADD64ROUNDEDRECTD64*%
%ADD65C,4.1500*%
%ADD66P,1.8942X8X292.5*%
%ADD67C,1.5500*%
%ADD68P,1.8942X8X202.5*%
%ADD69C,3.2500*%
G36*
X100000Y3059D02*
X50000D01*
X46923D01*
X40823Y3862D01*
X34879Y5454D01*
X29194Y7809D01*
X23865Y10886D01*
X18983Y14632D01*
X14632Y18983D01*
X10886Y23865D01*
X7809Y29194D01*
X5454Y34879D01*
X3862Y40823D01*
X3059Y46923D01*
Y50000D01*
Y100000D01*
X100000D01*
Y3059D01*
D02*
G37*
G36*
X330000Y657500D02*
X330000Y657500D01*
X330000D01*
X331146Y657231D01*
X331416Y657119D01*
X332119Y656416D01*
X332500Y655497D01*
X332500Y655000D01*
X332500Y597500D01*
X332548Y597012D01*
X332921Y596111D01*
X333611Y595421D01*
X334512Y595048D01*
X335000Y595000D01*
X390000Y595000D01*
X390000Y617500D01*
X390000Y617500D01*
X390273Y618657D01*
X390380Y618916D01*
X391083Y619619D01*
X392003Y620000D01*
X392500Y620000D01*
X413748Y620000D01*
X413773Y620000D01*
X415000Y620000D01*
Y620000D01*
X415488Y620048D01*
X416389Y620421D01*
X417079Y621111D01*
X417452Y622012D01*
X417500Y622500D01*
X417500Y630000D01*
X434102D01*
X435000Y629102D01*
X435000Y627500D01*
X435036Y626764D01*
X435323Y625322D01*
X435886Y623964D01*
X436702Y622742D01*
X437742Y621702D01*
X438965Y620885D01*
X440323Y620323D01*
X441765Y620036D01*
X442500Y620000D01*
X462500Y620000D01*
Y612500D01*
X407500Y612500D01*
Y585000D01*
X407500Y585000D01*
X407500Y584502D01*
X407119Y583584D01*
X406416Y582880D01*
X405497Y582500D01*
X405000D01*
X317500Y582500D01*
X317500Y582500D01*
X317012Y582452D01*
X316111Y582078D01*
X315421Y581389D01*
X315048Y580488D01*
X315000Y580000D01*
X315000Y578398D01*
X314102Y577500D01*
X217500Y577500D01*
X217500Y577500D01*
X217003D01*
X216084Y577881D01*
X215381Y578584D01*
X215000Y579503D01*
Y592500D01*
X215000Y592500D01*
X215000Y592500D01*
X215267Y593642D01*
X215380Y593916D01*
X216084Y594619D01*
X217003Y595000D01*
X217500Y595000D01*
X318780Y595000D01*
X320000Y595000D01*
X320000Y595000D01*
X320488Y595048D01*
X321389Y595421D01*
X322079Y596111D01*
X322452Y597012D01*
X322500Y597500D01*
X322500Y655000D01*
X322500D01*
Y655497D01*
X322881Y656416D01*
X323584Y657119D01*
X324503Y657500D01*
X330000D01*
X330000Y657500D01*
D02*
G37*
G36*
X1200000Y200000D02*
X1200000Y200000D01*
X1200000Y198769D01*
X1199519Y196354D01*
X1198577Y194079D01*
X1197209Y192032D01*
X1195468Y190291D01*
X1193421Y188923D01*
X1191146Y187980D01*
X1188731Y187500D01*
X1187500D01*
X957500Y187500D01*
X957500Y187500D01*
X956274Y187439D01*
X953871Y186961D01*
X951607Y186024D01*
X949570Y184662D01*
X947837Y182930D01*
X946476Y180892D01*
X945538Y178628D01*
X945060Y176225D01*
X945000Y175000D01*
X945000Y170898D01*
X944102Y170000D01*
X849015D01*
X847083Y170384D01*
X845263Y171138D01*
X843625Y172232D01*
X842233Y173625D01*
X841138Y175263D01*
X840384Y177083D01*
X840000Y179015D01*
X840000Y200000D01*
X840000Y200000D01*
X840000Y200000D01*
X840039Y201179D01*
X840384Y202917D01*
X841138Y204737D01*
X842232Y206375D01*
X843625Y207768D01*
X845263Y208862D01*
X847083Y209616D01*
X849015Y210000D01*
X850000Y210000D01*
X1128800Y210000D01*
X1130000Y210000D01*
X1130000Y210000D01*
X1130000Y210000D01*
X1131137Y210065D01*
X1131234Y210087D01*
X1133353Y210579D01*
X1135395Y211580D01*
X1137158Y213017D01*
X1138551Y214815D01*
X1139501Y216881D01*
X1139960Y219109D01*
X1139908Y221230D01*
X1140049Y221728D01*
X1140683Y222500D01*
X1200000Y222500D01*
X1200000Y200000D01*
D02*
G37*
G36*
X330000Y1057500D02*
X330000Y1057500D01*
X330000D01*
X331146Y1057231D01*
X331416Y1057119D01*
X332119Y1056416D01*
X332500Y1055497D01*
X332500Y1055000D01*
X332500Y997500D01*
X332548Y997012D01*
X332921Y996111D01*
X333611Y995421D01*
X334512Y995048D01*
X335000Y995000D01*
X390000Y995000D01*
X390000Y1017500D01*
X390000Y1017500D01*
X390273Y1018657D01*
X390380Y1018916D01*
X391083Y1019620D01*
X392003Y1020000D01*
X392500Y1020000D01*
X413748Y1020000D01*
X413773Y1020000D01*
X415000Y1020000D01*
Y1020000D01*
X415488Y1020048D01*
X416389Y1020421D01*
X417079Y1021111D01*
X417452Y1022012D01*
X417500Y1022500D01*
X417500Y1030000D01*
X434102D01*
X435000Y1029102D01*
X435000Y1027499D01*
X435036Y1026764D01*
X435323Y1025322D01*
X435886Y1023964D01*
X436702Y1022742D01*
X437742Y1021702D01*
X438965Y1020885D01*
X440323Y1020323D01*
X441765Y1020036D01*
X442500Y1020000D01*
X462500Y1020000D01*
Y1012500D01*
X407500Y1012500D01*
Y985000D01*
X407500Y985000D01*
X407500Y984502D01*
X407119Y983584D01*
X406416Y982880D01*
X405497Y982500D01*
X405000D01*
X317500Y982500D01*
X317500Y982500D01*
X317012Y982451D01*
X316111Y982078D01*
X315421Y981389D01*
X315048Y980488D01*
X315000Y980000D01*
X315000Y978398D01*
X314102Y977500D01*
X217500Y977500D01*
X217500Y977500D01*
X217003D01*
X216084Y977881D01*
X215381Y978584D01*
X215000Y979503D01*
Y992500D01*
X215000Y992500D01*
X215000Y992500D01*
X215267Y993643D01*
X215380Y993916D01*
X216084Y994619D01*
X217003Y995000D01*
X217500Y995000D01*
X318780Y995000D01*
X320000Y995000D01*
X320000Y995000D01*
X320488Y995048D01*
X321389Y995421D01*
X322079Y996111D01*
X322452Y997012D01*
X322500Y997500D01*
X322500Y1055000D01*
X322500D01*
Y1055497D01*
X322881Y1056416D01*
X323584Y1057119D01*
X324503Y1057500D01*
X330000D01*
X330000Y1057500D01*
D02*
G37*
G36*
Y1457500D02*
X330000Y1457500D01*
X330000D01*
X331146Y1457231D01*
X331416Y1457119D01*
X332119Y1456416D01*
X332500Y1455497D01*
X332500Y1455000D01*
X332500Y1397500D01*
X332548Y1397012D01*
X332921Y1396111D01*
X333611Y1395421D01*
X334512Y1395048D01*
X335000Y1395000D01*
X390000Y1395000D01*
X390000Y1417500D01*
X390000Y1417500D01*
X390273Y1418657D01*
X390380Y1418916D01*
X391083Y1419619D01*
X392003Y1420000D01*
X392500Y1420000D01*
X413748Y1420000D01*
X413773Y1420000D01*
X415000Y1420000D01*
Y1420000D01*
X415488Y1420048D01*
X416389Y1420421D01*
X417079Y1421111D01*
X417452Y1422012D01*
X417500Y1422500D01*
X417500Y1430000D01*
X434102D01*
X435000Y1429102D01*
X435000Y1427500D01*
X435036Y1426764D01*
X435323Y1425322D01*
X435886Y1423964D01*
X436702Y1422742D01*
X437742Y1421702D01*
X438965Y1420885D01*
X440323Y1420323D01*
X441765Y1420036D01*
X442500Y1420000D01*
X462500Y1420000D01*
Y1412500D01*
X407500Y1412500D01*
Y1385000D01*
X407500Y1385000D01*
X407500Y1384502D01*
X407119Y1383584D01*
X406416Y1382881D01*
X405497Y1382500D01*
X405000D01*
X317500Y1382500D01*
X317500Y1382500D01*
X317012Y1382451D01*
X316111Y1382078D01*
X315421Y1381389D01*
X315048Y1380488D01*
X315000Y1380000D01*
X315000Y1378398D01*
X314102Y1377500D01*
X217500Y1377500D01*
X217500Y1377500D01*
X217003D01*
X216084Y1377881D01*
X215381Y1378584D01*
X215000Y1379503D01*
Y1392997D01*
X215380Y1393916D01*
X216084Y1394619D01*
X217003Y1395000D01*
X217500Y1395000D01*
X318780Y1395000D01*
X320000Y1395000D01*
X320000Y1395000D01*
X320488Y1395048D01*
X321389Y1395421D01*
X322079Y1396111D01*
X322452Y1397012D01*
X322500Y1397500D01*
X322500Y1455000D01*
X322500D01*
Y1455497D01*
X322881Y1456416D01*
X323584Y1457119D01*
X324503Y1457500D01*
X330000D01*
X330000Y1457500D01*
D02*
G37*
G36*
X100000Y1996942D02*
Y1900000D01*
X3059D01*
Y1950000D01*
Y1953077D01*
X3862Y1959177D01*
X5454Y1965121D01*
X7809Y1970806D01*
X10886Y1976135D01*
X14632Y1981017D01*
X18983Y1985368D01*
X23865Y1989114D01*
X29194Y1992191D01*
X34879Y1994545D01*
X40823Y1996138D01*
X46923Y1996941D01*
X50000Y1996942D01*
X100000D01*
D02*
G37*
G36*
X330000Y1857500D02*
X330000Y1857500D01*
X330000D01*
X331146Y1857231D01*
X331416Y1857119D01*
X332119Y1856416D01*
X332500Y1855497D01*
X332500Y1855000D01*
X332500Y1797500D01*
X332548Y1797012D01*
X332921Y1796111D01*
X333611Y1795421D01*
X334512Y1795048D01*
X335000Y1795000D01*
X390000Y1795000D01*
X390000Y1817500D01*
X390000Y1817500D01*
X390273Y1818657D01*
X390380Y1818916D01*
X391083Y1819619D01*
X392003Y1820000D01*
X392500Y1820000D01*
X413748Y1820000D01*
X413773Y1820000D01*
X415000Y1820000D01*
Y1820000D01*
X415488Y1820048D01*
X416389Y1820421D01*
X417079Y1821111D01*
X417452Y1822012D01*
X417500Y1822500D01*
X417500Y1830000D01*
X434102D01*
X435000Y1829102D01*
X435000Y1827500D01*
X435036Y1826764D01*
X435323Y1825323D01*
X435886Y1823964D01*
X436702Y1822742D01*
X437742Y1821702D01*
X438965Y1820885D01*
X440323Y1820323D01*
X441765Y1820036D01*
X442500Y1820000D01*
X462500Y1820000D01*
Y1812500D01*
X407500Y1812500D01*
Y1785000D01*
X407500Y1785000D01*
X407500Y1784502D01*
X407119Y1783584D01*
X406416Y1782881D01*
X405497Y1782500D01*
X405000D01*
X317500Y1782500D01*
X317500Y1782500D01*
X317012Y1782452D01*
X316111Y1782078D01*
X315421Y1781389D01*
X315048Y1780488D01*
X315000Y1780000D01*
X315000Y1778398D01*
X314102Y1777500D01*
X217500Y1777500D01*
X217500Y1777500D01*
X217003D01*
X216084Y1777881D01*
X215381Y1778584D01*
X215000Y1779503D01*
Y1792500D01*
X215000Y1792500D01*
X215000Y1792500D01*
X215267Y1793642D01*
X215380Y1793916D01*
X216084Y1794619D01*
X217003Y1795000D01*
X217500Y1795000D01*
X318780Y1795000D01*
X320000Y1795000D01*
X320000Y1795000D01*
X320488Y1795048D01*
X321389Y1795421D01*
X322079Y1796111D01*
X322452Y1797012D01*
X322500Y1797500D01*
X322500Y1855000D01*
X322500D01*
Y1855497D01*
X322881Y1856416D01*
X323584Y1857119D01*
X324503Y1857500D01*
X330000D01*
X330000Y1857500D01*
D02*
G37*
G36*
X3159178Y1996138D02*
X3165121Y1994545D01*
X3170806Y1992191D01*
X3176135Y1989114D01*
X3181017Y1985368D01*
X3185368Y1981017D01*
X3189114Y1976135D01*
X3192191Y1970806D01*
X3194546Y1965121D01*
X3196138Y1959177D01*
X3196942Y1953077D01*
Y1950000D01*
Y1900000D01*
X3100000D01*
Y1996941D01*
X3150000D01*
D01*
X3150000D01*
X3153076Y1996941D01*
X3159178Y1996138D01*
D02*
G37*
G36*
X2223500Y1271250D02*
X2228500D01*
Y1266250D01*
X2223500D01*
Y1233750D01*
X2176500D01*
Y1266250D01*
X2171500D01*
Y1271250D01*
X2176500D01*
Y1273500D01*
X2223500D01*
Y1271250D01*
D02*
G37*
G36*
X2840000Y1220000D02*
X2700000D01*
Y1360000D01*
X2840000D01*
Y1220000D01*
D02*
G37*
G36*
X1590000Y1500000D02*
X1590000Y1500000D01*
X1590000Y1500000D01*
X1591970Y1500000D01*
X1595834Y1499231D01*
X1599473Y1497724D01*
X1602749Y1495535D01*
X1605535Y1492749D01*
X1607724Y1489474D01*
X1609231Y1485834D01*
X1610000Y1481970D01*
X1610000Y1480000D01*
X1610000Y800000D01*
X1610000Y800000D01*
X1610000Y798030D01*
X1609231Y794166D01*
X1607724Y790526D01*
X1605535Y787251D01*
X1602749Y784465D01*
X1599473Y782276D01*
X1595834Y780769D01*
X1591970Y780000D01*
X1590000Y780000D01*
X1390000Y780000D01*
Y850000D01*
X1550000D01*
X1551960Y850096D01*
X1555806Y850861D01*
X1559428Y852362D01*
X1562688Y854540D01*
X1565460Y857312D01*
X1567639Y860572D01*
X1569139Y864194D01*
X1569904Y868040D01*
X1570000Y870000D01*
X1570000Y1120000D01*
X1570000D01*
X1570000Y1120000D01*
X1569904Y1121960D01*
X1569139Y1125806D01*
X1567639Y1129428D01*
X1565460Y1132688D01*
X1562688Y1135460D01*
X1559428Y1137638D01*
X1555806Y1139139D01*
X1551960Y1139904D01*
X1550000Y1140000D01*
X1430000Y1140000D01*
Y1160000D01*
X1550000Y1160000D01*
X1551960Y1160096D01*
X1555806Y1160861D01*
X1559428Y1162361D01*
X1562688Y1164540D01*
X1565460Y1167312D01*
X1567639Y1170572D01*
X1569139Y1174194D01*
X1569904Y1178040D01*
X1570000Y1180000D01*
X1570000Y1430000D01*
X1570000D01*
X1570000Y1430000D01*
X1569904Y1431960D01*
X1569139Y1435806D01*
X1567639Y1439428D01*
X1565460Y1442688D01*
X1562688Y1445460D01*
X1559428Y1447639D01*
X1555806Y1449139D01*
X1551960Y1449904D01*
X1550000Y1450000D01*
X1420000Y1450000D01*
Y1500000D01*
X1590000Y1500000D01*
D02*
G37*
G36*
X2223500Y943750D02*
X2228500D01*
Y938750D01*
X2223500D01*
Y936500D01*
X2176500D01*
Y938750D01*
X2171500D01*
Y943750D01*
X2176500D01*
Y976250D01*
X2223500D01*
Y943750D01*
D02*
G37*
G36*
X2840440Y819666D02*
X2700440D01*
Y959666D01*
X2840440D01*
Y819666D01*
D02*
G37*
G36*
X3196941Y50000D02*
Y46923D01*
X3196138Y40823D01*
X3194546Y34879D01*
X3192191Y29194D01*
X3189114Y23865D01*
X3185368Y18983D01*
X3181017Y14632D01*
X3176135Y10886D01*
X3170806Y7809D01*
X3165121Y5454D01*
X3159178Y3862D01*
X3153077Y3059D01*
X3150000D01*
X3100000D01*
Y100000D01*
X3196941D01*
Y50000D01*
D02*
G37*
D19*
X870000Y161750D02*
D03*
Y218250D02*
D03*
D20*
X1895000Y188450D02*
D03*
Y201150D02*
D03*
Y213850D02*
D03*
Y226550D02*
D03*
X1795000Y188450D02*
D03*
Y201150D02*
D03*
Y213850D02*
D03*
Y226550D02*
D03*
D21*
X2266600Y1395500D02*
D03*
Y1405000D02*
D03*
Y1414500D02*
D03*
X2238400Y1395500D02*
D03*
Y1405000D02*
D03*
Y1414500D02*
D03*
X2189600Y807000D02*
D03*
Y816500D02*
D03*
Y826000D02*
D03*
X2161400Y807000D02*
D03*
Y816500D02*
D03*
Y826000D02*
D03*
D22*
X2252500Y1405000D02*
D03*
X2175500Y816500D02*
D03*
D23*
X507200Y228090D02*
D03*
X552800D02*
D03*
X390300Y225590D02*
D03*
X344700D02*
D03*
D24*
X530000Y291910D02*
D03*
X367500Y289410D02*
D03*
D25*
X332500Y109000D02*
D03*
Y76000D02*
D03*
D26*
X2217500Y1387500D02*
D03*
Y1417500D02*
D03*
X2520210Y861746D02*
D03*
Y891746D02*
D03*
X2190000Y1417500D02*
D03*
Y1387500D02*
D03*
X2237500Y807500D02*
D03*
Y837500D02*
D03*
X2210000Y807500D02*
D03*
Y837500D02*
D03*
X2440000Y1485000D02*
D03*
Y1455000D02*
D03*
X1630000Y327500D02*
D03*
Y297500D02*
D03*
Y265000D02*
D03*
Y235000D02*
D03*
Y200000D02*
D03*
Y170000D02*
D03*
Y137500D02*
D03*
Y107500D02*
D03*
X584995Y289677D02*
D03*
Y259678D02*
D03*
X464502Y256000D02*
D03*
Y286000D02*
D03*
X437500Y256000D02*
D03*
Y286000D02*
D03*
X295000Y252500D02*
D03*
Y282500D02*
D03*
X312500Y156000D02*
D03*
Y186000D02*
D03*
X502500Y436000D02*
D03*
Y466000D02*
D03*
X475000Y671000D02*
D03*
Y701000D02*
D03*
Y616000D02*
D03*
Y646000D02*
D03*
X245000Y606000D02*
D03*
Y636000D02*
D03*
X502500Y836000D02*
D03*
Y866000D02*
D03*
X475000Y1071000D02*
D03*
Y1101000D02*
D03*
Y1016000D02*
D03*
Y1046000D02*
D03*
X245000Y1006000D02*
D03*
Y1036000D02*
D03*
X502500Y1236000D02*
D03*
Y1266000D02*
D03*
X475000Y1471000D02*
D03*
Y1501000D02*
D03*
Y1416000D02*
D03*
Y1446000D02*
D03*
X245000Y1406000D02*
D03*
Y1436000D02*
D03*
X2292500Y1420000D02*
D03*
Y1390000D02*
D03*
X2140000Y805000D02*
D03*
Y835000D02*
D03*
X2470000Y1455000D02*
D03*
Y1485000D02*
D03*
X502500Y1636000D02*
D03*
Y1666000D02*
D03*
X475000Y1871000D02*
D03*
Y1901000D02*
D03*
Y1816000D02*
D03*
Y1846000D02*
D03*
X245000Y1806000D02*
D03*
Y1836000D02*
D03*
X1922500Y192500D02*
D03*
Y222500D02*
D03*
X1922500Y292500D02*
D03*
Y262500D02*
D03*
X1770000Y197500D02*
D03*
Y227500D02*
D03*
D27*
X1184000Y278500D02*
D03*
Y260000D02*
D03*
Y241500D02*
D03*
X1256000D02*
D03*
Y260000D02*
D03*
Y278500D02*
D03*
D28*
X1220000Y287000D02*
D03*
Y233000D02*
D03*
D29*
X1225000Y967100D02*
D03*
Y1012900D02*
D03*
X1102500D02*
D03*
Y967100D02*
D03*
D30*
X1160000Y990000D02*
D03*
X1037500D02*
D03*
D31*
X2384500Y1372500D02*
D03*
X2450500D02*
D03*
X2453000Y810000D02*
D03*
X2387000D02*
D03*
D32*
X2315000Y187000D02*
D03*
Y213000D02*
D03*
X2135000Y197000D02*
D03*
Y223000D02*
D03*
X1712500Y210500D02*
D03*
Y184500D02*
D03*
X1945000Y220500D02*
D03*
Y194500D02*
D03*
D33*
X2219500Y1231000D02*
D03*
X2206500D02*
D03*
X2193500D02*
D03*
X2180500D02*
D03*
X2219500Y979000D02*
D03*
X2206500D02*
D03*
X2193500D02*
D03*
X2180500D02*
D03*
D34*
X2180500Y1289000D02*
D03*
X2206500D02*
D03*
X2219500D02*
D03*
X2193500D02*
D03*
X2206500Y921000D02*
D03*
X2180500D02*
D03*
X2193500D02*
D03*
X2219500D02*
D03*
D35*
X277500Y184400D02*
D03*
Y155400D02*
D03*
D36*
X375000Y911000D02*
D03*
X395000D02*
D03*
X350000Y1101000D02*
D03*
X370000D02*
D03*
X345000Y866000D02*
D03*
X325000D02*
D03*
Y466000D02*
D03*
X345000D02*
D03*
X325000Y446000D02*
D03*
X345000D02*
D03*
X370000Y701000D02*
D03*
X350000D02*
D03*
X325000Y846000D02*
D03*
X345000D02*
D03*
X325000Y1266000D02*
D03*
X345000D02*
D03*
X325000Y1246000D02*
D03*
X345000D02*
D03*
X370000Y1501000D02*
D03*
X350000D02*
D03*
X325000Y1666000D02*
D03*
X345000D02*
D03*
X325000Y1646000D02*
D03*
X345000D02*
D03*
X370000Y1901000D02*
D03*
X350000D02*
D03*
X345000Y551000D02*
D03*
X325000D02*
D03*
X345000Y571000D02*
D03*
X325000D02*
D03*
X345000Y531000D02*
D03*
X325000D02*
D03*
X345000Y491000D02*
D03*
X325000D02*
D03*
X345000Y511000D02*
D03*
X325000D02*
D03*
X410000Y701000D02*
D03*
X390000D02*
D03*
X345000Y951000D02*
D03*
X325000D02*
D03*
X345000Y971000D02*
D03*
X325000D02*
D03*
X345000Y931000D02*
D03*
X325000D02*
D03*
X345000Y891000D02*
D03*
X325000D02*
D03*
X345000Y911000D02*
D03*
X325000D02*
D03*
X410000Y1101000D02*
D03*
X390000D02*
D03*
X345000Y1351000D02*
D03*
X325000D02*
D03*
X345000Y1371000D02*
D03*
X325000D02*
D03*
X345000Y1331000D02*
D03*
X325000D02*
D03*
X345000Y1291000D02*
D03*
X325000D02*
D03*
X345000Y1311000D02*
D03*
X325000D02*
D03*
X410000Y1501000D02*
D03*
X390000D02*
D03*
X2262500Y1370000D02*
D03*
X2242500D02*
D03*
X2165000Y870000D02*
D03*
X2185000D02*
D03*
X2242500Y920000D02*
D03*
X2262500D02*
D03*
X2392500Y212500D02*
D03*
X2372500D02*
D03*
X345000Y1751000D02*
D03*
X325000D02*
D03*
X345000Y1771000D02*
D03*
X325000D02*
D03*
X345000Y1731000D02*
D03*
X325000D02*
D03*
X345000Y1691000D02*
D03*
X325000D02*
D03*
X345000Y1711000D02*
D03*
X325000D02*
D03*
X410000Y1901000D02*
D03*
X390000D02*
D03*
X2197500Y270000D02*
D03*
X2217500D02*
D03*
X2177500Y197500D02*
D03*
X2157500D02*
D03*
X1965000Y197500D02*
D03*
X1985000D02*
D03*
X1965000Y217500D02*
D03*
X1985000D02*
D03*
X1712500Y232500D02*
D03*
X1732500D02*
D03*
X395000Y511000D02*
D03*
X375000D02*
D03*
X395000Y491000D02*
D03*
X375000D02*
D03*
X395000Y531000D02*
D03*
X375000D02*
D03*
X395000Y571000D02*
D03*
X375000D02*
D03*
X395000Y551000D02*
D03*
X375000D02*
D03*
X395000Y891000D02*
D03*
X375000D02*
D03*
X395000Y931000D02*
D03*
X375000D02*
D03*
X395000Y971000D02*
D03*
X375000D02*
D03*
X395000Y951000D02*
D03*
X375000D02*
D03*
X395000Y1311000D02*
D03*
X375000D02*
D03*
X395000Y1291000D02*
D03*
X375000D02*
D03*
X395000Y1331000D02*
D03*
X375000D02*
D03*
X395000Y1371000D02*
D03*
X375000D02*
D03*
X395000Y1351000D02*
D03*
X375000D02*
D03*
X2242500Y1350000D02*
D03*
X2262500D02*
D03*
X2185000Y850000D02*
D03*
X2165000D02*
D03*
X2432500Y212500D02*
D03*
X2412500D02*
D03*
X395000Y1711000D02*
D03*
X375000D02*
D03*
X395000Y1691000D02*
D03*
X375000D02*
D03*
X395000Y1731000D02*
D03*
X375000D02*
D03*
X395000Y1771000D02*
D03*
X375000D02*
D03*
X395000Y1751000D02*
D03*
X375000D02*
D03*
X2197500Y197500D02*
D03*
X2217500D02*
D03*
X1985000Y177500D02*
D03*
X1965000D02*
D03*
X1985000Y237500D02*
D03*
X1965000D02*
D03*
D37*
X502500Y975450D02*
D03*
Y962750D02*
D03*
Y950050D02*
D03*
Y937350D02*
D03*
Y924650D02*
D03*
Y911950D02*
D03*
Y899250D02*
D03*
Y886550D02*
D03*
X597500Y975450D02*
D03*
Y962750D02*
D03*
Y950050D02*
D03*
Y937350D02*
D03*
Y924650D02*
D03*
Y911950D02*
D03*
Y899250D02*
D03*
Y886550D02*
D03*
Y486550D02*
D03*
Y499250D02*
D03*
Y511950D02*
D03*
Y524650D02*
D03*
Y537350D02*
D03*
Y550050D02*
D03*
Y562750D02*
D03*
Y575450D02*
D03*
X502500Y486550D02*
D03*
Y499250D02*
D03*
Y511950D02*
D03*
Y524650D02*
D03*
Y537350D02*
D03*
Y550050D02*
D03*
Y562750D02*
D03*
Y575450D02*
D03*
X597500Y1286550D02*
D03*
Y1299250D02*
D03*
Y1311950D02*
D03*
Y1324650D02*
D03*
Y1337350D02*
D03*
Y1350050D02*
D03*
Y1362750D02*
D03*
Y1375450D02*
D03*
X502500Y1286550D02*
D03*
Y1299250D02*
D03*
Y1311950D02*
D03*
Y1324650D02*
D03*
Y1337350D02*
D03*
Y1350050D02*
D03*
Y1362750D02*
D03*
Y1375450D02*
D03*
X597500Y1686550D02*
D03*
Y1699250D02*
D03*
Y1711950D02*
D03*
Y1724650D02*
D03*
Y1737350D02*
D03*
Y1750050D02*
D03*
Y1762750D02*
D03*
Y1775450D02*
D03*
X502500Y1686550D02*
D03*
Y1699250D02*
D03*
Y1711950D02*
D03*
Y1724650D02*
D03*
Y1737350D02*
D03*
Y1750050D02*
D03*
Y1762750D02*
D03*
Y1775450D02*
D03*
D38*
X750000Y912500D02*
D03*
Y974500D02*
D03*
Y574500D02*
D03*
Y512500D02*
D03*
X707500Y574500D02*
D03*
Y512500D02*
D03*
X440000Y640000D02*
D03*
Y702000D02*
D03*
X707500Y974500D02*
D03*
Y912500D02*
D03*
X440000Y1040000D02*
D03*
Y1102000D02*
D03*
X750000Y1374500D02*
D03*
Y1312500D02*
D03*
X707500Y1374500D02*
D03*
Y1312500D02*
D03*
X440000Y1440000D02*
D03*
Y1502000D02*
D03*
X750000Y1774500D02*
D03*
Y1712500D02*
D03*
X707500Y1774500D02*
D03*
Y1712500D02*
D03*
X440000Y1840000D02*
D03*
Y1902000D02*
D03*
D39*
X775000Y842995D02*
D03*
X735000D02*
D03*
Y442995D02*
D03*
X775000D02*
D03*
Y478997D02*
D03*
X735000D02*
D03*
X600000Y706000D02*
D03*
X640000D02*
D03*
X520000D02*
D03*
X560000D02*
D03*
X775000Y878997D02*
D03*
X735000D02*
D03*
X600000Y1106000D02*
D03*
X640000D02*
D03*
X520000D02*
D03*
X560000D02*
D03*
X735000Y1242995D02*
D03*
X775000D02*
D03*
Y1278997D02*
D03*
X735000D02*
D03*
X600000Y1506000D02*
D03*
X640000D02*
D03*
X520000D02*
D03*
X560000D02*
D03*
X735000Y1642995D02*
D03*
X775000D02*
D03*
Y1678997D02*
D03*
X735000D02*
D03*
X600000Y1906000D02*
D03*
X640000D02*
D03*
X520000D02*
D03*
X560000D02*
D03*
D40*
X677250Y838500D02*
D03*
X710000D02*
D03*
Y438500D02*
D03*
X677250D02*
D03*
X710000Y463500D02*
D03*
X677250D02*
D03*
X710000Y863500D02*
D03*
X677250D02*
D03*
X710000Y1238500D02*
D03*
X677250D02*
D03*
X710000Y1263500D02*
D03*
X677250D02*
D03*
X2217500Y1350000D02*
D03*
X2184750D02*
D03*
X2242500Y870000D02*
D03*
X2209750D02*
D03*
X710000Y1638500D02*
D03*
X677250D02*
D03*
X710000Y1663500D02*
D03*
X677250D02*
D03*
X2175000Y270000D02*
D03*
X2142250D02*
D03*
D41*
X64750Y982250D02*
D03*
Y882750D02*
D03*
Y1682750D02*
D03*
Y1782250D02*
D03*
Y480250D02*
D03*
Y579750D02*
D03*
Y1280250D02*
D03*
Y1379750D02*
D03*
D42*
X96750Y901250D02*
D03*
Y913750D02*
D03*
Y926250D02*
D03*
Y938750D02*
D03*
Y951250D02*
D03*
Y963750D02*
D03*
Y1763750D02*
D03*
Y1751250D02*
D03*
Y1738750D02*
D03*
Y1726250D02*
D03*
Y1713750D02*
D03*
Y1701250D02*
D03*
Y561250D02*
D03*
Y548750D02*
D03*
Y536250D02*
D03*
Y523750D02*
D03*
Y511250D02*
D03*
Y498750D02*
D03*
Y1361250D02*
D03*
Y1348750D02*
D03*
Y1336250D02*
D03*
Y1323750D02*
D03*
Y1311250D02*
D03*
Y1298750D02*
D03*
D43*
X842500Y1261000D02*
D03*
Y1304000D02*
D03*
X267500Y117500D02*
D03*
Y74500D02*
D03*
X2152500Y1368500D02*
D03*
Y1411500D02*
D03*
X2272500Y861500D02*
D03*
Y818500D02*
D03*
X847500Y910000D02*
D03*
Y867000D02*
D03*
Y1705000D02*
D03*
Y1662000D02*
D03*
Y510000D02*
D03*
Y467000D02*
D03*
D44*
X2513000Y16000D02*
D03*
X2477000D02*
D03*
X2552000D02*
D03*
X2588000D02*
D03*
D45*
X2500000Y54750D02*
D03*
X2490000D02*
D03*
X2565000D02*
D03*
X2575000D02*
D03*
D46*
X2547210Y886246D02*
D03*
Y876746D02*
D03*
Y867246D02*
D03*
X2573210D02*
D03*
Y886246D02*
D03*
D47*
X2152500Y1317500D02*
D03*
Y1337500D02*
D03*
X450000Y606000D02*
D03*
Y586000D02*
D03*
X430000Y606000D02*
D03*
Y586000D02*
D03*
X660000Y503500D02*
D03*
Y483500D02*
D03*
X415000Y446000D02*
D03*
Y466000D02*
D03*
X435000Y446000D02*
D03*
Y466000D02*
D03*
X455000Y446000D02*
D03*
Y466000D02*
D03*
X450000Y1006000D02*
D03*
Y986000D02*
D03*
X430000Y1006000D02*
D03*
Y986000D02*
D03*
X660000Y903500D02*
D03*
Y883500D02*
D03*
X415000Y846000D02*
D03*
Y866000D02*
D03*
X435000Y846000D02*
D03*
Y866000D02*
D03*
X455000Y846000D02*
D03*
Y866000D02*
D03*
X437500Y1403500D02*
D03*
Y1383500D02*
D03*
X417500Y1403500D02*
D03*
Y1383500D02*
D03*
X660000Y1303500D02*
D03*
Y1283500D02*
D03*
X415000Y1246000D02*
D03*
Y1266000D02*
D03*
X435000Y1246000D02*
D03*
Y1266000D02*
D03*
X455000Y1246000D02*
D03*
Y1266000D02*
D03*
X2292500Y212500D02*
D03*
Y192500D02*
D03*
X2292500Y1350000D02*
D03*
Y1370000D02*
D03*
X2270000Y252500D02*
D03*
Y232500D02*
D03*
Y292500D02*
D03*
Y272500D02*
D03*
X2140000Y872500D02*
D03*
Y852500D02*
D03*
X812500Y881000D02*
D03*
Y861000D02*
D03*
Y1676000D02*
D03*
Y1656000D02*
D03*
Y481000D02*
D03*
Y461000D02*
D03*
X807500Y1276000D02*
D03*
Y1256000D02*
D03*
X450000Y1806000D02*
D03*
Y1786000D02*
D03*
X430000Y1806000D02*
D03*
Y1786000D02*
D03*
X660000Y1703500D02*
D03*
Y1683500D02*
D03*
X415000Y1646000D02*
D03*
Y1666000D02*
D03*
X435000Y1646000D02*
D03*
Y1666000D02*
D03*
X455000Y1646000D02*
D03*
Y1666000D02*
D03*
X632500Y503500D02*
D03*
Y483500D02*
D03*
Y903500D02*
D03*
Y883500D02*
D03*
Y1303500D02*
D03*
Y1283500D02*
D03*
X2270000Y192500D02*
D03*
Y212500D02*
D03*
X632500Y1703500D02*
D03*
Y1683500D02*
D03*
X1732500Y190000D02*
D03*
Y210000D02*
D03*
X2005000Y197500D02*
D03*
Y217500D02*
D03*
D48*
X381000Y76000D02*
D03*
X424000D02*
D03*
D49*
X405000Y628250D02*
D03*
Y661000D02*
D03*
Y1028250D02*
D03*
Y1061000D02*
D03*
Y1428250D02*
D03*
Y1461000D02*
D03*
Y1828250D02*
D03*
Y1861000D02*
D03*
D50*
X2329000Y1492500D02*
D03*
X2391000D02*
D03*
X1231000Y801000D02*
D03*
X1169000D02*
D03*
X1231000Y851000D02*
D03*
X1169000D02*
D03*
X2156500Y232500D02*
D03*
X2218500D02*
D03*
D51*
X660000Y576000D02*
D03*
X630000D02*
D03*
X660000Y543500D02*
D03*
X630000D02*
D03*
X350000Y676000D02*
D03*
X380000D02*
D03*
X660000Y976000D02*
D03*
X630000D02*
D03*
X660000Y943500D02*
D03*
X630000D02*
D03*
X350000Y1076000D02*
D03*
X380000D02*
D03*
X660000Y1376000D02*
D03*
X630000D02*
D03*
X660000Y1343500D02*
D03*
X630000D02*
D03*
X350000Y1476000D02*
D03*
X380000D02*
D03*
X2572710Y914246D02*
D03*
X2542710D02*
D03*
X660000Y1776000D02*
D03*
X630000D02*
D03*
X660000Y1743500D02*
D03*
X630000D02*
D03*
X350000Y1876000D02*
D03*
X380000D02*
D03*
D52*
X1380000Y142500D02*
D03*
D53*
Y217500D02*
D03*
D54*
X1330000Y1438500D02*
D03*
Y1163500D02*
D03*
Y1101000D02*
D03*
Y826000D02*
D03*
X1390000Y1571000D02*
D03*
X1115000D02*
D03*
X1387500Y691000D02*
D03*
X1112500D02*
D03*
D55*
X2630000Y500500D02*
D03*
X2735000Y525500D02*
D03*
X2375000D02*
D03*
X2270000Y500500D02*
D03*
X2015000Y525500D02*
D03*
X1910000Y500500D02*
D03*
X2635000Y1675000D02*
D03*
X2740000Y1700000D02*
D03*
X2275000Y1675000D02*
D03*
X2380000Y1700000D02*
D03*
X1915000Y1675000D02*
D03*
X2020000Y1700000D02*
D03*
D56*
X2661900Y998400D02*
D03*
X2636500D02*
D03*
X2611100D02*
D03*
X2745041Y915066D02*
D03*
X2770440D02*
D03*
X2795840D02*
D03*
X2821241D02*
D03*
X2770440Y940466D02*
D03*
X2745041D02*
D03*
X2719641D02*
D03*
Y915066D02*
D03*
X2795840Y940466D02*
D03*
X2821241D02*
D03*
X2770440Y838866D02*
D03*
X2745041D02*
D03*
X2719641D02*
D03*
X2795840D02*
D03*
X2821241D02*
D03*
X2719641Y889666D02*
D03*
Y864266D02*
D03*
X2745041Y889666D02*
D03*
X2770440D02*
D03*
X2795840D02*
D03*
X2821241D02*
D03*
Y864266D02*
D03*
X2795840D02*
D03*
X2770440D02*
D03*
X2745041D02*
D03*
X625000Y1019502D02*
D03*
X2745041Y1264266D02*
D03*
X2770440D02*
D03*
X2795840D02*
D03*
X2821241D02*
D03*
Y1289666D02*
D03*
X2795840D02*
D03*
X2770440D02*
D03*
X2745041D02*
D03*
X2719641Y1264266D02*
D03*
Y1289666D02*
D03*
X2821241Y1238866D02*
D03*
X2795840D02*
D03*
X2719641D02*
D03*
X2745041D02*
D03*
X2770440D02*
D03*
X2821241Y1340466D02*
D03*
X2795840D02*
D03*
X2719641Y1315066D02*
D03*
Y1340466D02*
D03*
X2745041D02*
D03*
X2770440D02*
D03*
X2821241Y1315066D02*
D03*
X2795840D02*
D03*
X2770440D02*
D03*
X2745041D02*
D03*
X540000Y171000D02*
D03*
X447500D02*
D03*
X390000D02*
D03*
X625000Y619502D02*
D03*
X535000Y653500D02*
D03*
Y1053500D02*
D03*
X625000Y1419502D02*
D03*
X535000Y1453500D02*
D03*
X625000Y1819502D02*
D03*
X535000Y1853500D02*
D03*
D57*
X2573000Y1074600D02*
D03*
X2700000D02*
D03*
X2573000Y1100000D02*
D03*
Y1125400D02*
D03*
X2700000Y1100000D02*
D03*
Y1125400D02*
D03*
D58*
X2249500Y1405000D02*
D03*
Y1411000D02*
D03*
Y1399000D02*
D03*
X2255500D02*
D03*
Y1411000D02*
D03*
Y1405000D02*
D03*
X2172500Y816500D02*
D03*
Y810500D02*
D03*
Y822500D02*
D03*
X2178500D02*
D03*
Y810500D02*
D03*
Y816500D02*
D03*
D59*
X1090000Y1197261D02*
D03*
Y1064739D02*
D03*
D60*
X2500000Y1065000D02*
D03*
Y1115000D02*
D03*
X2300000D02*
D03*
Y1065000D02*
D03*
X937500Y1768000D02*
D03*
Y1713500D02*
D03*
Y1659000D02*
D03*
X1536000Y1430200D02*
D03*
Y1379400D02*
D03*
Y1328600D02*
D03*
Y1277800D02*
D03*
Y1227000D02*
D03*
Y1176200D02*
D03*
Y1125400D02*
D03*
Y1074600D02*
D03*
Y1023800D02*
D03*
Y973000D02*
D03*
Y922200D02*
D03*
Y871400D02*
D03*
X2044000Y820600D02*
D03*
Y871400D02*
D03*
Y922200D02*
D03*
Y973000D02*
D03*
Y1023800D02*
D03*
Y1074600D02*
D03*
Y1125400D02*
D03*
Y1176200D02*
D03*
Y1227000D02*
D03*
Y1277800D02*
D03*
Y1328600D02*
D03*
Y1379400D02*
D03*
X1536000Y820600D02*
D03*
X2044000Y1430200D02*
D03*
X937500Y861500D02*
D03*
Y916000D02*
D03*
Y970500D02*
D03*
Y1261500D02*
D03*
Y1316000D02*
D03*
Y1370500D02*
D03*
Y464000D02*
D03*
Y518500D02*
D03*
Y573000D02*
D03*
D61*
X972500Y142500D02*
D03*
X1072500Y267500D02*
D03*
X1110500D02*
D03*
X1010500Y142500D02*
D03*
D62*
X2259600Y152900D02*
D03*
X2310400D02*
D03*
Y102100D02*
D03*
X2259600D02*
D03*
X2377100D02*
D03*
X2427900D02*
D03*
Y152900D02*
D03*
X2377100D02*
D03*
X2142100Y102100D02*
D03*
X2192900D02*
D03*
Y152900D02*
D03*
X2142100D02*
D03*
X2024600Y102100D02*
D03*
X2075400D02*
D03*
Y152900D02*
D03*
X2024600D02*
D03*
D63*
X2285000Y127500D02*
D03*
X2402500D02*
D03*
X2167500D02*
D03*
X2050000D02*
D03*
D64*
X190000Y265000D02*
D03*
D65*
Y170000D02*
D03*
D66*
X625000Y1054502D02*
D03*
Y654502D02*
D03*
X535000Y618500D02*
D03*
Y1018500D02*
D03*
X625000Y1454502D02*
D03*
X535000Y1418500D02*
D03*
X625000Y1854502D02*
D03*
X535000Y1818500D02*
D03*
D67*
X365800Y1011000D02*
D03*
X340400D02*
D03*
X315000D02*
D03*
X289600D02*
D03*
Y611000D02*
D03*
X315000D02*
D03*
X340400D02*
D03*
X365800D02*
D03*
X289600Y1411000D02*
D03*
X315000D02*
D03*
X340400D02*
D03*
X365800D02*
D03*
X289600Y1811000D02*
D03*
X315000D02*
D03*
X340400D02*
D03*
X365800D02*
D03*
X1882900Y295000D02*
D03*
X1857500D02*
D03*
X1832100D02*
D03*
X1806700D02*
D03*
D68*
X575000Y171000D02*
D03*
X482500D02*
D03*
X355000D02*
D03*
D69*
X3150000Y50000D02*
D03*
X1730000Y1900000D02*
D03*
Y100000D02*
D03*
X3150000Y1950000D02*
D03*
X50000D02*
D03*
Y50000D02*
D03*
X1167500Y518500D02*
D03*
Y1316000D02*
D03*
Y1713500D02*
D03*
Y916000D02*
D03*
M02*
