G04*
G04 #@! TF.GenerationSoftware,Altium Limited,Altium Designer,19.1.9 (167)*
G04*
G04 Layer_Physical_Order=1*
G04 Layer_Color=5201134*
%FSLAX44Y44*%
%MOMM*%
G71*
G01*
G75*
%ADD13C,0.6000*%
%ADD15C,0.5000*%
%ADD66C,3.0000*%
%ADD69C,0.8000*%
%ADD70C,0.5000*%
%ADD71R,3.7000X1.3500*%
%ADD72R,2.7000X1.0000*%
%ADD73R,1.7000X0.6000*%
%ADD74R,1.2500X1.0000*%
%ADD75R,1.0000X3.3000*%
%ADD76R,1.6000X1.0000*%
%ADD77R,2.4000X3.3000*%
%ADD78R,1.0000X1.2500*%
%ADD79R,1.2000X1.8000*%
%ADD80R,0.6000X1.5500*%
%ADD81R,0.5000X0.8500*%
%ADD82R,1.1000X0.6000*%
%ADD83R,1.0000X1.6000*%
%ADD84R,2.3000X2.5000*%
%ADD85R,4.5000X1.8000*%
%ADD86R,2.5000X2.3000*%
%ADD87R,0.9100X1.2200*%
%ADD88O,1.8000X0.6000*%
%ADD89R,0.6000X1.0000*%
%ADD90R,0.5000X1.0000*%
%ADD91R,0.9000X0.3500*%
%ADD92R,1.2000X1.9000*%
%ADD93R,2.5000X1.2000*%
%ADD94R,6.2500X6.5000*%
%ADD95R,1.7000X2.5000*%
%ADD96R,1.2200X0.9100*%
%ADD97R,3.3000X1.0000*%
%ADD98O,1.9000X0.6000*%
%ADD99R,1.1000X2.1000*%
%ADD100R,6.8000X6.9000*%
%ADD101R,1.8000X1.3000*%
%ADD102R,1.5200X1.2700*%
%ADD103R,3.0500X2.5400*%
%ADD104C,1.2000*%
%ADD105C,1.5000*%
%ADD106C,1.0000*%
%ADD107C,1.8000*%
%ADD108C,3.0000*%
%ADD109C,0.3000*%
%ADD110C,2.0000*%
%ADD111C,0.3500*%
%ADD112C,3.5000*%
%ADD113C,4.0000*%
G04:AMPARAMS|DCode=114|XSize=6mm|YSize=6mm|CornerRadius=1.5mm|HoleSize=0mm|Usage=FLASHONLY|Rotation=0.000|XOffset=0mm|YOffset=0mm|HoleType=Round|Shape=RoundedRectangle|*
%AMROUNDEDRECTD114*
21,1,6.0000,3.0000,0,0,0.0*
21,1,3.0000,6.0000,0,0,0.0*
1,1,3.0000,1.5000,-1.5000*
1,1,3.0000,-1.5000,-1.5000*
1,1,3.0000,-1.5000,1.5000*
1,1,3.0000,1.5000,1.5000*
%
%ADD114ROUNDEDRECTD114*%
%ADD115C,3.1000*%
%ADD116C,1.6000*%
%ADD117C,2.5500*%
%ADD118C,2.2500*%
%ADD119C,1.6500*%
%ADD120P,1.7318X8X202.5*%
%ADD121C,2.2000*%
%ADD122C,1.4000*%
%ADD123P,1.7318X8X292.5*%
%ADD124C,4.0000*%
G04:AMPARAMS|DCode=125|XSize=4mm|YSize=4mm|CornerRadius=1mm|HoleSize=0mm|Usage=FLASHONLY|Rotation=270.000|XOffset=0mm|YOffset=0mm|HoleType=Round|Shape=RoundedRectangle|*
%AMROUNDEDRECTD125*
21,1,4.0000,2.0000,0,0,270.0*
21,1,2.0000,4.0000,0,0,270.0*
1,1,2.0000,-1.0000,-1.0000*
1,1,2.0000,-1.0000,1.0000*
1,1,2.0000,1.0000,1.0000*
1,1,2.0000,1.0000,-1.0000*
%
%ADD125ROUNDEDRECTD125*%
%ADD126C,2.0000*%
%ADD127P,2.7060X8X112.5*%
%ADD128C,2.5000*%
%ADD129C,0.8000*%
G36*
X515000Y1995412D02*
Y1967073D01*
X490000D01*
X487781Y1966781D01*
X478570D01*
X466788Y1955000D01*
X332500D01*
Y1857500D01*
X322500D01*
Y1832275D01*
X321230Y1831844D01*
X321062Y1832062D01*
X311062Y1842062D01*
X309287Y1843425D01*
X307219Y1844281D01*
X305000Y1844573D01*
X253573D01*
Y1854142D01*
X253281Y1856361D01*
X252425Y1858429D01*
X251062Y1860204D01*
X245204Y1866062D01*
X243429Y1867425D01*
X241361Y1868281D01*
X239142Y1868573D01*
X205858D01*
X203639Y1868281D01*
X201571Y1867425D01*
X199796Y1866062D01*
X193938Y1860204D01*
X192575Y1858429D01*
X191719Y1856361D01*
X191427Y1854142D01*
Y1853616D01*
X190000D01*
X186476Y1853152D01*
X183192Y1851792D01*
X180372Y1849628D01*
X178208Y1846808D01*
X176847Y1843524D01*
X176383Y1840000D01*
X176847Y1836476D01*
X178208Y1833192D01*
X180372Y1830372D01*
X183192Y1828208D01*
X186476Y1826848D01*
X190000Y1826384D01*
X210000D01*
X213524Y1826848D01*
X216808Y1828208D01*
X219628Y1830372D01*
X221792Y1833192D01*
X223153Y1836476D01*
X223617Y1840000D01*
X223153Y1843524D01*
X221792Y1846808D01*
X219628Y1849628D01*
X218852Y1850224D01*
X219260Y1851427D01*
X235591D01*
X236427Y1850591D01*
Y1844500D01*
X233500D01*
Y1827500D01*
X244443D01*
X245000Y1827427D01*
X301449D01*
X306427Y1822449D01*
Y1817075D01*
X305828Y1816295D01*
X304770Y1813741D01*
X304409Y1811000D01*
X304770Y1808259D01*
X305828Y1805705D01*
X307511Y1803511D01*
X309705Y1801828D01*
X312259Y1800770D01*
X315000Y1800410D01*
X317741Y1800770D01*
X320295Y1801828D01*
X321230Y1802545D01*
X322500Y1801919D01*
Y1800000D01*
X322500Y1800000D01*
X322404Y1799024D01*
X321657Y1797222D01*
X320278Y1795843D01*
X318475Y1795096D01*
X317500Y1795000D01*
X217003D01*
X217003Y1795000D01*
X216604Y1795000D01*
X215868Y1794695D01*
X215305Y1794132D01*
X215000Y1793396D01*
X215000Y1792997D01*
Y1780000D01*
X215000Y1780000D01*
Y1779503D01*
X215381Y1778584D01*
X216084Y1777881D01*
X217003Y1777500D01*
X260142D01*
X260527Y1776230D01*
X259174Y1775326D01*
X253716Y1769868D01*
X108750D01*
Y1770250D01*
X84750D01*
Y1769868D01*
X66250D01*
X63909Y1769402D01*
X61924Y1768076D01*
X55674Y1761826D01*
X54348Y1759841D01*
X53882Y1757500D01*
Y1746848D01*
X53449Y1746282D01*
X52693Y1744458D01*
X52435Y1742500D01*
X52693Y1740542D01*
X53449Y1738718D01*
X54651Y1737151D01*
X56218Y1735949D01*
X58042Y1735193D01*
X60000Y1734935D01*
X61958Y1735193D01*
X63782Y1735949D01*
X65349Y1737151D01*
X66551Y1738718D01*
X66943Y1739665D01*
X68318D01*
X68449Y1739349D01*
X69651Y1737783D01*
X71218Y1736581D01*
X73042Y1735825D01*
X75000Y1735567D01*
X76958Y1735825D01*
X78782Y1736581D01*
X80349Y1737783D01*
X81551Y1739349D01*
X82307Y1741174D01*
X82565Y1743132D01*
X82469Y1743862D01*
X83480Y1745016D01*
X84750Y1744922D01*
Y1732250D01*
Y1719750D01*
Y1707250D01*
X108750D01*
Y1707632D01*
X246216D01*
X267174Y1686674D01*
X269159Y1685348D01*
X271500Y1684883D01*
X316500D01*
Y1681250D01*
X333500D01*
Y1700750D01*
X333500D01*
Y1701250D01*
X333500D01*
Y1720750D01*
X333500D01*
Y1721250D01*
X333500D01*
Y1740750D01*
X333500D01*
Y1741250D01*
X333500D01*
Y1760750D01*
X333500D01*
Y1761250D01*
X333500D01*
Y1780750D01*
X317715D01*
X316739Y1782020D01*
X316835Y1782378D01*
X317012Y1782452D01*
X317500Y1782500D01*
X407500Y1782500D01*
Y1790000D01*
Y1812500D01*
X460000D01*
Y1805000D01*
X480000D01*
Y1792500D01*
X501943D01*
X502500Y1792427D01*
X515000D01*
Y1767694D01*
X513730Y1767263D01*
X513636Y1767386D01*
X512278Y1768428D01*
X510697Y1769083D01*
X509000Y1769306D01*
X496000D01*
X494303Y1769083D01*
X493573Y1768780D01*
X483207D01*
X482870Y1769039D01*
X481045Y1769794D01*
X479087Y1770052D01*
X477130Y1769794D01*
X475305Y1769039D01*
X474740Y1768605D01*
X456118D01*
Y1777500D01*
X459750D01*
Y1794500D01*
X440250D01*
Y1794500D01*
X439750D01*
Y1794500D01*
X420250D01*
Y1777500D01*
X423882D01*
Y1756000D01*
X424348Y1753659D01*
X425674Y1751674D01*
X431887Y1745462D01*
X433497Y1744386D01*
X433498Y1743837D01*
X433238Y1743065D01*
X431159Y1742652D01*
X429174Y1741326D01*
X413174Y1725326D01*
X411848Y1723341D01*
X411382Y1721000D01*
Y1674500D01*
X405250D01*
Y1673565D01*
X390000D01*
X388042Y1673307D01*
X386218Y1672551D01*
X384651Y1671349D01*
X366867Y1653565D01*
X354398D01*
X353500Y1654463D01*
X353500Y1655750D01*
X353500Y1657020D01*
Y1658435D01*
X355000D01*
X356958Y1658693D01*
X358782Y1659449D01*
X360349Y1660651D01*
X365349Y1665651D01*
X366551Y1667218D01*
X367307Y1669042D01*
X367436Y1670021D01*
X367565Y1671000D01*
X367565Y1671000D01*
Y1681250D01*
X383500D01*
Y1699980D01*
X383500Y1700750D01*
X383500Y1702020D01*
Y1719980D01*
X383500Y1720750D01*
X383500Y1722020D01*
Y1739980D01*
X383500Y1740750D01*
X383500Y1742020D01*
Y1759980D01*
X383500Y1760750D01*
X383500Y1762020D01*
Y1780750D01*
X366500D01*
Y1778565D01*
X353500D01*
Y1780750D01*
X336500D01*
Y1762020D01*
X336500Y1761250D01*
X336500Y1759980D01*
Y1742020D01*
X336500Y1741250D01*
X336500Y1739980D01*
Y1722020D01*
X336500Y1721250D01*
X336500Y1719980D01*
Y1702020D01*
X336500Y1701250D01*
X336500Y1699980D01*
Y1681250D01*
X352435D01*
Y1675750D01*
X336500D01*
Y1657020D01*
X336500Y1656250D01*
X336500Y1654980D01*
Y1636250D01*
X353500D01*
Y1638435D01*
X370000D01*
X371958Y1638693D01*
X373782Y1639449D01*
X375349Y1640651D01*
X393134Y1658435D01*
X405250D01*
Y1657500D01*
X424750D01*
Y1657500D01*
X425250D01*
Y1657500D01*
X444750D01*
Y1657500D01*
X445250D01*
Y1657500D01*
X464750D01*
Y1674500D01*
X461118D01*
Y1698466D01*
X468534Y1705883D01*
X474652D01*
X475218Y1705449D01*
X477042Y1704693D01*
X479000Y1704435D01*
X479999Y1704567D01*
X480592Y1703364D01*
X477350Y1700121D01*
X476308Y1698763D01*
X475653Y1697182D01*
X475429Y1695485D01*
Y1669515D01*
X475653Y1667818D01*
X476308Y1666237D01*
X477350Y1664879D01*
X480864Y1661364D01*
X482222Y1660322D01*
X483803Y1659667D01*
X485500Y1659444D01*
X491000D01*
Y1657500D01*
X495944D01*
Y1654515D01*
X496167Y1652818D01*
X496822Y1651237D01*
X497864Y1649879D01*
X501379Y1646364D01*
X502737Y1645322D01*
X504318Y1644667D01*
X506015Y1644444D01*
X512284D01*
X515000Y1641728D01*
Y1610272D01*
X507284Y1602556D01*
X483500D01*
X481803Y1602333D01*
X480222Y1601678D01*
X478864Y1600636D01*
X467628Y1589400D01*
X467114Y1589675D01*
X463627Y1590732D01*
X460000Y1591089D01*
X442565D01*
Y1613435D01*
X450000D01*
X451958Y1613693D01*
X453782Y1614449D01*
X455349Y1615651D01*
X460349Y1620651D01*
X460349Y1620651D01*
X461551Y1622218D01*
X462307Y1624042D01*
X462565Y1626000D01*
Y1637500D01*
X464750D01*
Y1654500D01*
X445250D01*
Y1654500D01*
X444750D01*
Y1654500D01*
X425250D01*
Y1654500D01*
X424750D01*
Y1654500D01*
X405250D01*
Y1637500D01*
X407435D01*
Y1626000D01*
X407693Y1624042D01*
X408449Y1622218D01*
X409651Y1620651D01*
X414651Y1615651D01*
X416218Y1614449D01*
X418042Y1613693D01*
X420000Y1613435D01*
X420000Y1613435D01*
X427435D01*
Y1591089D01*
X102500D01*
X98873Y1590732D01*
X95386Y1589675D01*
X92172Y1587957D01*
X89355Y1585645D01*
X16855Y1513145D01*
X14543Y1510328D01*
X12825Y1507114D01*
X11768Y1503627D01*
X11410Y1500000D01*
X11410Y1162500D01*
X11410Y767500D01*
Y430000D01*
X11768Y426373D01*
X12826Y422886D01*
X14543Y419672D01*
X16855Y416855D01*
X64355Y369355D01*
X67172Y367043D01*
X70386Y365326D01*
X73873Y364268D01*
X77500Y363910D01*
X435000Y363910D01*
X499800D01*
X507969Y355742D01*
X507483Y354569D01*
X491000Y354569D01*
X491000Y354568D01*
X490163Y354569D01*
X489818Y354500D01*
X489467D01*
X487824Y354173D01*
X487500Y354039D01*
X487155Y353970D01*
X485608Y353330D01*
X485316Y353134D01*
X484991Y353000D01*
X483599Y352070D01*
X483350Y351821D01*
X483058Y351626D01*
X481874Y350442D01*
X481679Y350149D01*
X481430Y349901D01*
X480500Y348509D01*
X480366Y348184D01*
X480171Y347892D01*
X479530Y346345D01*
X479461Y346000D01*
X479327Y345676D01*
X479000Y344033D01*
Y343682D01*
X478931Y343337D01*
X478932Y342500D01*
X478931Y276613D01*
X477661Y276040D01*
X477325Y276206D01*
X476640Y276601D01*
X475275Y277167D01*
X474511Y277371D01*
X473761Y277626D01*
X472745Y277828D01*
X472250Y277860D01*
X471765Y277961D01*
X470600Y278047D01*
X470302Y278030D01*
X470006Y278069D01*
X470003D01*
X470000Y278069D01*
X430198Y278069D01*
X430010Y278078D01*
X429451Y278190D01*
X429108Y278331D01*
X428800Y278537D01*
X428631Y278706D01*
X428504Y278803D01*
X428488Y278842D01*
X428387Y278974D01*
X428190Y279450D01*
X428078Y280010D01*
X428069Y280198D01*
X428069Y330000D01*
Y330985D01*
X427966Y331769D01*
X427914Y332559D01*
X427530Y334491D01*
X427275Y335241D01*
X427071Y336005D01*
X426317Y337825D01*
X425921Y338510D01*
X425571Y339220D01*
X424477Y340858D01*
X423955Y341453D01*
X423473Y342080D01*
X422080Y343473D01*
X421452Y343955D01*
X420858Y344477D01*
X419220Y345571D01*
X418510Y345921D01*
X417825Y346317D01*
X416005Y347071D01*
X415240Y347275D01*
X414491Y347530D01*
X412559Y347914D01*
X411769Y347966D01*
X410985Y348069D01*
X410000Y348069D01*
X410000Y348069D01*
X330000Y348069D01*
X329015Y348069D01*
X328231Y347966D01*
X327441Y347914D01*
X325509Y347530D01*
X324759Y347275D01*
X323995Y347071D01*
X322175Y346317D01*
X321490Y345921D01*
X320780Y345571D01*
X319142Y344477D01*
X318548Y343955D01*
X317920Y343473D01*
X316527Y342080D01*
X316045Y341452D01*
X315523Y340857D01*
X314429Y339220D01*
X314079Y338510D01*
X313683Y337825D01*
X312929Y336005D01*
X312725Y335240D01*
X312470Y334491D01*
X312124Y332748D01*
X312080Y332086D01*
X311973Y331431D01*
X311935Y330258D01*
X311948Y330129D01*
X311931Y330000D01*
Y268853D01*
X310975Y268457D01*
X310661Y268431D01*
X310486Y268606D01*
X310291Y268898D01*
X308898Y270291D01*
X308606Y270486D01*
X308357Y270735D01*
X306719Y271829D01*
X306395Y271964D01*
X306103Y272159D01*
X304283Y272913D01*
X303938Y272981D01*
X303613Y273116D01*
X301681Y273500D01*
X301330D01*
X300985Y273568D01*
X300000Y273568D01*
X290000Y273568D01*
X290000Y273568D01*
X289015Y273568D01*
X288670Y273500D01*
X288319D01*
X286387Y273116D01*
X286062Y272981D01*
X285717Y272913D01*
X283898Y272159D01*
X283605Y271963D01*
X283281Y271829D01*
X281643Y270735D01*
X281394Y270486D01*
X281102Y270291D01*
X279709Y268898D01*
X279514Y268606D01*
X279265Y268357D01*
X278171Y266719D01*
X278036Y266395D01*
X277841Y266102D01*
X277087Y264282D01*
X277019Y263938D01*
X276884Y263613D01*
X276500Y261681D01*
Y261329D01*
X276431Y260985D01*
X276431Y219113D01*
X276500Y218768D01*
Y218417D01*
X276846Y216678D01*
X276980Y216353D01*
X277049Y216009D01*
X277727Y214371D01*
X277923Y214079D01*
X278057Y213754D01*
X279042Y212280D01*
X279291Y212031D01*
X279486Y211739D01*
X280739Y210486D01*
X281032Y210290D01*
X281280Y210042D01*
X282754Y209057D01*
X283079Y208922D01*
X283371Y208727D01*
X285009Y208049D01*
X285354Y207980D01*
X285679Y207846D01*
X287418Y207500D01*
X287769Y207500D01*
X288114Y207431D01*
X289000Y207431D01*
X320254Y207431D01*
X320625Y207413D01*
X320842Y207370D01*
X320842D01*
X320842Y207370D01*
X321394Y207260D01*
X322037Y206994D01*
X322616Y206608D01*
X323108Y206115D01*
X323495Y205537D01*
X323761Y204894D01*
X323914Y204124D01*
X323932Y203775D01*
X323932Y164500D01*
X313057D01*
X312500Y164573D01*
X311943Y164500D01*
X301000D01*
Y147500D01*
X301000Y147500D01*
X301000D01*
X300689Y146314D01*
X293938Y139562D01*
X292575Y137787D01*
X291719Y135719D01*
X291427Y133500D01*
Y86345D01*
X282500D01*
Y90500D01*
X252500D01*
Y58500D01*
X282500D01*
Y64155D01*
X306500D01*
Y63500D01*
X326681D01*
X327500Y63392D01*
X365000D01*
Y61000D01*
X397000D01*
Y91000D01*
X372607D01*
X372081Y92270D01*
X372456Y92645D01*
X372651Y92937D01*
X372900Y93186D01*
X374158Y95070D01*
X374293Y95394D01*
X374488Y95687D01*
X375355Y97780D01*
X375424Y98125D01*
X375558Y98449D01*
X376000Y100671D01*
X376000Y101023D01*
X376069Y101368D01*
X376068Y102500D01*
X376068Y227500D01*
X376068Y227501D01*
X376068Y228731D01*
X376000Y229076D01*
X376000Y229427D01*
X375520Y231842D01*
X375385Y232167D01*
X375317Y232512D01*
X374375Y234787D01*
X374179Y235079D01*
X374045Y235404D01*
X372677Y237451D01*
X372428Y237700D01*
X372233Y237992D01*
X370492Y239733D01*
X370200Y239928D01*
X369951Y240177D01*
X369227Y240661D01*
X369612Y241931D01*
X389802Y241931D01*
X390480Y241898D01*
X392000Y241595D01*
X393249Y241078D01*
X394372Y240327D01*
X395708Y238991D01*
X396006Y238603D01*
X396006Y238603D01*
X396208Y238114D01*
X396345Y237603D01*
X396595Y237001D01*
X396897Y235480D01*
X396931Y234791D01*
Y210000D01*
X397206Y207912D01*
X398012Y205965D01*
X399294Y204294D01*
X400965Y203012D01*
X402912Y202206D01*
X405000Y201931D01*
X451931D01*
Y180990D01*
X452017Y180335D01*
X452039Y179675D01*
X452154Y179295D01*
X452206Y178901D01*
X452458Y178291D01*
X452650Y177660D01*
X452860Y177322D01*
X453012Y176955D01*
X453414Y176431D01*
X453762Y175871D01*
X454126Y175428D01*
X454863Y174050D01*
X455316Y172555D01*
X455469Y171000D01*
X455316Y169445D01*
X454863Y167950D01*
X454126Y166572D01*
X453763Y166129D01*
X453414Y165569D01*
X453012Y165045D01*
X452860Y164678D01*
X452650Y164340D01*
X452458Y163709D01*
X452206Y163099D01*
X452154Y162705D01*
X452039Y162325D01*
X452017Y161665D01*
X451931Y161010D01*
Y140000D01*
X451931Y139015D01*
X452034Y138230D01*
X452086Y137441D01*
X452470Y135509D01*
X452724Y134760D01*
X452929Y133995D01*
X453683Y132175D01*
X454079Y131490D01*
X454429Y130780D01*
X455523Y129142D01*
X456045Y128547D01*
X456527Y127920D01*
X457920Y126527D01*
X458547Y126045D01*
X459142Y125523D01*
X460780Y124429D01*
X461490Y124079D01*
X462175Y123683D01*
X463995Y122929D01*
X464759Y122725D01*
X465509Y122470D01*
X467441Y122086D01*
X468231Y122034D01*
X469015Y121931D01*
X470000Y121931D01*
X470000Y121931D01*
X510000Y121931D01*
X510985Y121931D01*
X511769Y122034D01*
X512559Y122086D01*
X514491Y122470D01*
X515240Y122725D01*
X516005Y122929D01*
X517825Y123683D01*
X518510Y124079D01*
X519220Y124429D01*
X520857Y125523D01*
X521452Y126045D01*
X522080Y126527D01*
X523473Y127920D01*
X523955Y128547D01*
X524477Y129142D01*
X525571Y130780D01*
X525921Y131490D01*
X526316Y132175D01*
X527070Y133995D01*
X527275Y134759D01*
X527529Y135509D01*
X527914Y137441D01*
X527966Y138230D01*
X528069Y139015D01*
X528069Y139998D01*
X528069Y140000D01*
X528069Y240000D01*
X528069Y240738D01*
X527966Y241523D01*
X527914Y242313D01*
X527626Y243762D01*
X527371Y244511D01*
X527166Y245275D01*
X526601Y246640D01*
X526205Y247326D01*
X526040Y247661D01*
X526613Y248931D01*
X573495D01*
X574861Y249203D01*
X576018Y249977D01*
X576792Y251134D01*
X577063Y252500D01*
Y264609D01*
X592926D01*
Y252500D01*
X593198Y251134D01*
X593971Y249977D01*
X595129Y249203D01*
X596495Y248931D01*
X598931D01*
Y202592D01*
X598900Y201958D01*
X598638Y200638D01*
X598157Y199476D01*
X597458Y198431D01*
X596569Y197542D01*
X595523Y196843D01*
X594362Y196362D01*
X593042Y196099D01*
X592412Y196068D01*
X572500Y196069D01*
X572499Y196068D01*
X571022Y196068D01*
X570678Y196000D01*
X570326D01*
X567428Y195423D01*
X567104Y195289D01*
X566759Y195220D01*
X564029Y194090D01*
X563737Y193894D01*
X563412Y193760D01*
X560955Y192118D01*
X560707Y191870D01*
X560415Y191674D01*
X558325Y189585D01*
X558130Y189293D01*
X557882Y189044D01*
X556240Y186588D01*
X556105Y186263D01*
X555910Y185971D01*
X554780Y183241D01*
X554711Y182896D01*
X554576Y182571D01*
X554000Y179674D01*
Y179322D01*
X553931Y178977D01*
X553931Y151269D01*
X554000Y150924D01*
Y150572D01*
X554480Y148157D01*
X554615Y147833D01*
X554683Y147488D01*
X555626Y145213D01*
X555821Y144921D01*
X555956Y144596D01*
X557323Y142549D01*
X557572Y142300D01*
X557767Y142008D01*
X559508Y140267D01*
X559801Y140072D01*
X560049Y139823D01*
X562096Y138455D01*
X562421Y138321D01*
X562714Y138125D01*
X564988Y137183D01*
X565333Y137115D01*
X565658Y136980D01*
X568073Y136500D01*
X568424D01*
X568769Y136431D01*
X570000Y136431D01*
X630000D01*
X631477Y136431D01*
X631822Y136500D01*
X632173Y136500D01*
X635071Y137076D01*
X635396Y137211D01*
X635741Y137279D01*
X638470Y138410D01*
X638763Y138605D01*
X639087Y138740D01*
X641544Y140381D01*
X641793Y140630D01*
X642085Y140825D01*
X644174Y142914D01*
X644370Y143207D01*
X644618Y143455D01*
X646260Y145912D01*
X646394Y146237D01*
X646492Y146383D01*
X712500D01*
X712500Y12500D01*
X712500Y11269D01*
X712020Y8854D01*
X711077Y6579D01*
X709747Y4588D01*
X100000Y4588D01*
Y100000D01*
X4588D01*
Y1900000D01*
X100000D01*
Y1995412D01*
X515000Y1995412D01*
D02*
G37*
G36*
X1069000Y1741000D02*
X1069000Y1741000D01*
X1069002D01*
X1070175Y1740982D01*
X1072208Y1740577D01*
X1074211Y1739748D01*
X1076012Y1738544D01*
X1077544Y1737012D01*
X1078748Y1735211D01*
X1079577Y1733209D01*
X1080000Y1731083D01*
X1080000Y1730000D01*
X1080000Y1490000D01*
X1080091Y1488138D01*
X1080818Y1484485D01*
X1082243Y1481043D01*
X1084313Y1477946D01*
X1086946Y1475313D01*
X1090043Y1473243D01*
X1093485Y1471818D01*
X1097138Y1471091D01*
X1099000Y1471000D01*
X1099000Y1471000D01*
Y1471000D01*
X1099001D01*
X1100181Y1470931D01*
X1101479Y1470673D01*
X1103026Y1470033D01*
X1104418Y1469102D01*
X1105602Y1467918D01*
X1106533Y1466526D01*
X1107173Y1464979D01*
X1107500Y1463337D01*
Y1462500D01*
X1107500Y1237500D01*
X1107500Y1237500D01*
X1107500Y1236860D01*
X1107250Y1235604D01*
X1106760Y1234421D01*
X1106049Y1233356D01*
X1105143Y1232451D01*
X1104079Y1231740D01*
X1102896Y1231250D01*
X1101640Y1231000D01*
X1101000Y1231000D01*
X1070999Y1231000D01*
X1070999Y1231000D01*
X1069921Y1230947D01*
X1067806Y1230526D01*
X1065814Y1229701D01*
X1064021Y1228503D01*
X1062497Y1226978D01*
X1061299Y1225185D01*
X1060474Y1223193D01*
X1060053Y1221078D01*
X1060000Y1220000D01*
X1060000Y1170000D01*
X1060000Y1170000D01*
X1060043Y1169118D01*
X1060387Y1167387D01*
X1061063Y1165757D01*
X1062043Y1164290D01*
X1063290Y1163043D01*
X1064758Y1162063D01*
X1066387Y1161387D01*
X1068118Y1161043D01*
X1069000Y1161000D01*
X1099000Y1161000D01*
X1099000Y1161000D01*
X1099000Y1161000D01*
X1099004D01*
X1100186Y1160930D01*
X1101479Y1160673D01*
X1103026Y1160033D01*
X1104418Y1159102D01*
X1105602Y1157918D01*
X1106533Y1156526D01*
X1107173Y1154979D01*
X1107500Y1153337D01*
X1107500Y1152500D01*
X1107500Y1111000D01*
X1009000D01*
X1007099Y1111000D01*
X1003330Y1111496D01*
X999658Y1112480D01*
X996146Y1113935D01*
X992854Y1115836D01*
X989838Y1118150D01*
X987150Y1120838D01*
X984835Y1123854D01*
X982935Y1127146D01*
X981480Y1130658D01*
X980496Y1134330D01*
X980000Y1138099D01*
X980000Y1140000D01*
X980000Y1390000D01*
X980000Y1390000D01*
X979999Y1390000D01*
X979899Y1392058D01*
X979096Y1396096D01*
X977520Y1399899D01*
X975233Y1403322D01*
X972322Y1406233D01*
X968899Y1408520D01*
X965096Y1410096D01*
X961058Y1410899D01*
X959000Y1411000D01*
X810000Y1411000D01*
X810000Y1411000D01*
X808030Y1411000D01*
X804166Y1411769D01*
X800526Y1413277D01*
X797251Y1415465D01*
X794465Y1418251D01*
X792276Y1421527D01*
X790769Y1425166D01*
X790000Y1429030D01*
X790000Y1431000D01*
X790000Y1558804D01*
X790000Y1560000D01*
X790000Y1560000D01*
Y1560000D01*
X790000Y1560000D01*
X790000Y1562068D01*
X790807Y1566125D01*
X792390Y1569947D01*
X794688Y1573387D01*
X797613Y1576312D01*
X801053Y1578610D01*
X804874Y1580193D01*
X808932Y1581000D01*
X811000Y1581000D01*
X958741Y1581000D01*
X959999Y1581000D01*
X960000Y1581000D01*
Y1581000D01*
X961960Y1581096D01*
X965805Y1581861D01*
X969427Y1583361D01*
X972688Y1585540D01*
X975460Y1588312D01*
X977638Y1591572D01*
X979139Y1595195D01*
X979904Y1599040D01*
X980000Y1601000D01*
X980000Y1691000D01*
X980000Y1729999D01*
X980000Y1729999D01*
X980034Y1731255D01*
X980422Y1733208D01*
X981251Y1735210D01*
X982455Y1737012D01*
X983987Y1738544D01*
X985789Y1739748D01*
X987791Y1740577D01*
X989917Y1741000D01*
X991000Y1741000D01*
X1069000Y1741000D01*
X1069000Y1741000D01*
D02*
G37*
G36*
X2081438Y1461981D02*
X2083895Y1460963D01*
X2086106Y1459486D01*
X2087986Y1457606D01*
X2089464Y1455394D01*
X2090481Y1452938D01*
X2091000Y1450329D01*
X2091000Y1449000D01*
X2091000Y1449000D01*
X2091000Y1449000D01*
X2091000Y1309000D01*
X2127500Y1272500D01*
X2177500Y1272500D01*
D01*
X2222500D01*
Y1271931D01*
X2223362D01*
X2225079Y1271220D01*
X2226530Y1270250D01*
X2227500D01*
Y1269410D01*
X2228488Y1268421D01*
X2229720Y1266579D01*
X2230567Y1264531D01*
X2230987Y1262423D01*
X2231000Y1261259D01*
Y1261250D01*
X2231000D01*
X2231000Y1261250D01*
X2231000Y1221000D01*
X2231000Y1219917D01*
X2230577Y1217791D01*
X2229748Y1215789D01*
X2228544Y1213988D01*
X2227012Y1212456D01*
X2225211Y1211252D01*
X2223209Y1210423D01*
X2221178Y1210019D01*
X2220000Y1210000D01*
X2220000Y1210000D01*
X2220000Y1210000D01*
X1910000D01*
X1909015Y1210000D01*
X1907083Y1210384D01*
X1905263Y1211138D01*
X1903625Y1212232D01*
X1902233Y1213625D01*
X1901138Y1215263D01*
X1900384Y1217083D01*
X1900000Y1219015D01*
Y1220000D01*
X1900000Y1220000D01*
X1900000Y1450000D01*
X1900000Y1451231D01*
X1900480Y1453646D01*
X1901423Y1455921D01*
X1902791Y1457968D01*
X1904532Y1459709D01*
X1906579Y1461077D01*
X1908854Y1462019D01*
X1911269Y1462500D01*
X1912500Y1462500D01*
X1912500Y1462500D01*
X2077500Y1462500D01*
X2078830Y1462500D01*
X2081438Y1461981D01*
D02*
G37*
G36*
X1550000Y1450000D02*
X1550000Y1450000D01*
X1551970Y1450000D01*
X1555834Y1449231D01*
X1559474Y1447724D01*
X1562749Y1445535D01*
X1565535Y1442749D01*
X1567724Y1439474D01*
X1569231Y1435834D01*
X1570000Y1431970D01*
X1570000Y1430000D01*
X1570000Y1180000D01*
X1570000Y1180000D01*
Y1178129D01*
X1569270Y1174458D01*
X1567837Y1171000D01*
X1565758Y1167888D01*
X1563112Y1165242D01*
X1560000Y1163162D01*
X1556542Y1161730D01*
X1552871Y1161000D01*
X1551000D01*
X1431000Y1161000D01*
X1431000Y1161000D01*
X1429922Y1160947D01*
X1427807Y1160526D01*
X1425815Y1159701D01*
X1424022Y1158503D01*
X1422497Y1156978D01*
X1421299Y1155185D01*
X1420474Y1153193D01*
X1420053Y1151078D01*
X1420000Y1150000D01*
X1420000Y900000D01*
X1420000Y900000D01*
Y898128D01*
X1419269Y894458D01*
X1417837Y891000D01*
X1415758Y887888D01*
X1413112Y885242D01*
X1410000Y883162D01*
X1406542Y881730D01*
X1402871Y881000D01*
X1401000D01*
X1290000Y881000D01*
X1260000Y881000D01*
X1260000Y941000D01*
X1260000Y1010000D01*
X1310000Y1060000D01*
X1310000Y1258804D01*
X1310000Y1260000D01*
X1310000Y1260000D01*
X1310000Y1260000D01*
X1310000Y1262068D01*
X1310807Y1266125D01*
X1312390Y1269947D01*
X1314688Y1273387D01*
X1317613Y1276312D01*
X1321053Y1278610D01*
X1324874Y1280193D01*
X1328931Y1281000D01*
X1331000Y1281000D01*
X1411000Y1281000D01*
X1411000Y1281000D01*
Y1281000D01*
X1411882Y1281043D01*
X1412185Y1281104D01*
X1413613Y1281387D01*
X1415242Y1282063D01*
X1416709Y1283043D01*
X1417957Y1284290D01*
X1418937Y1285757D01*
X1419612Y1287387D01*
X1419957Y1289118D01*
X1420000Y1290000D01*
X1420000Y1430000D01*
X1420000Y1430000D01*
X1420000Y1430000D01*
X1420000Y1431970D01*
X1420769Y1435834D01*
X1422276Y1439474D01*
X1424465Y1442749D01*
X1427251Y1445535D01*
X1430526Y1447724D01*
X1434166Y1449231D01*
X1438030Y1450000D01*
X1440000Y1450000D01*
X1550000Y1450000D01*
X1550000Y1450000D01*
D02*
G37*
G36*
X332500Y1457500D02*
X322500D01*
Y1432275D01*
X321230Y1431844D01*
X321062Y1432062D01*
X311062Y1442062D01*
X309287Y1443425D01*
X307219Y1444281D01*
X305000Y1444573D01*
X253573D01*
Y1454142D01*
X253281Y1456361D01*
X252425Y1458429D01*
X251062Y1460204D01*
X245204Y1466062D01*
X243429Y1467425D01*
X241361Y1468281D01*
X239142Y1468573D01*
X205858D01*
X203639Y1468281D01*
X201571Y1467425D01*
X199796Y1466062D01*
X193938Y1460204D01*
X192575Y1458429D01*
X191719Y1456361D01*
X191427Y1454142D01*
Y1453616D01*
X190000D01*
X186476Y1453152D01*
X183192Y1451792D01*
X180372Y1449628D01*
X178208Y1446808D01*
X176847Y1443524D01*
X176383Y1440000D01*
X176847Y1436476D01*
X178208Y1433192D01*
X180372Y1430372D01*
X183192Y1428208D01*
X186476Y1426848D01*
X190000Y1426384D01*
X210000D01*
X213524Y1426848D01*
X216808Y1428208D01*
X219628Y1430372D01*
X221792Y1433192D01*
X223153Y1436476D01*
X223617Y1440000D01*
X223153Y1443524D01*
X221792Y1446808D01*
X219628Y1449628D01*
X218852Y1450224D01*
X219260Y1451427D01*
X235591D01*
X236427Y1450591D01*
Y1444500D01*
X233500D01*
Y1427500D01*
X244443D01*
X245000Y1427427D01*
X301449D01*
X306427Y1422449D01*
Y1417075D01*
X305828Y1416295D01*
X304770Y1413741D01*
X304409Y1411000D01*
X304770Y1408259D01*
X305828Y1405705D01*
X307511Y1403511D01*
X309705Y1401828D01*
X312259Y1400770D01*
X315000Y1400410D01*
X317741Y1400770D01*
X320295Y1401828D01*
X321230Y1402545D01*
X322500Y1401919D01*
Y1400000D01*
X322500Y1400000D01*
X322404Y1399024D01*
X321657Y1397222D01*
X320278Y1395843D01*
X318475Y1395096D01*
X317500Y1395000D01*
X217003D01*
X217003Y1395000D01*
X216604Y1395000D01*
X215868Y1394695D01*
X215305Y1394132D01*
X215000Y1393396D01*
X215000Y1392997D01*
Y1380000D01*
X215000Y1380000D01*
Y1379503D01*
X215381Y1378584D01*
X216084Y1377881D01*
X217003Y1377500D01*
X257642D01*
X258027Y1376230D01*
X256674Y1375326D01*
X248716Y1367368D01*
X108750D01*
Y1367750D01*
X84750D01*
Y1367368D01*
X66250D01*
X63909Y1366902D01*
X61924Y1365576D01*
X55674Y1359326D01*
X54348Y1357341D01*
X53882Y1355000D01*
Y1339348D01*
X53449Y1338782D01*
X52693Y1336958D01*
X52435Y1335000D01*
X52693Y1333042D01*
X53449Y1331218D01*
X54651Y1329651D01*
X56218Y1328449D01*
X58042Y1327693D01*
X60000Y1327435D01*
X61958Y1327693D01*
X63782Y1328449D01*
X65349Y1329651D01*
X66551Y1331218D01*
X66813Y1331849D01*
X68187D01*
X68449Y1331218D01*
X69651Y1329651D01*
X71218Y1328449D01*
X73042Y1327693D01*
X75000Y1327435D01*
X76958Y1327693D01*
X78782Y1328449D01*
X80349Y1329651D01*
X81551Y1331218D01*
X82307Y1333042D01*
X82565Y1335000D01*
X82307Y1336958D01*
X81551Y1338782D01*
X81117Y1339348D01*
Y1340466D01*
X83284Y1342632D01*
X84750D01*
Y1329750D01*
Y1317250D01*
Y1304750D01*
X108750D01*
Y1305132D01*
X246216D01*
X264674Y1286674D01*
X266659Y1285348D01*
X269000Y1284883D01*
X316500D01*
Y1281250D01*
X333500D01*
Y1300750D01*
X333500D01*
Y1301250D01*
X333500D01*
Y1320750D01*
X333500D01*
Y1321250D01*
X333500D01*
Y1340750D01*
X333500D01*
Y1341250D01*
X333500D01*
Y1360750D01*
X333500D01*
Y1361250D01*
X333500D01*
Y1380750D01*
X317715D01*
X316739Y1382020D01*
X316835Y1382378D01*
X317012Y1382452D01*
X317500Y1382500D01*
X406480Y1382500D01*
X407750Y1381334D01*
Y1375000D01*
X411382D01*
Y1355000D01*
X411848Y1352659D01*
X413174Y1350674D01*
X418124Y1345724D01*
X420109Y1344398D01*
X422450Y1343932D01*
X431087D01*
X431212Y1342663D01*
X431159Y1342652D01*
X429174Y1341326D01*
X413174Y1325326D01*
X411848Y1323341D01*
X411382Y1321000D01*
Y1274500D01*
X405250D01*
Y1273565D01*
X390000D01*
X388042Y1273307D01*
X386218Y1272551D01*
X384651Y1271349D01*
X366867Y1253565D01*
X354398D01*
X353500Y1254463D01*
X353500Y1255750D01*
X353500Y1257020D01*
Y1258435D01*
X355000D01*
X356958Y1258693D01*
X358782Y1259449D01*
X360349Y1260651D01*
X365349Y1265651D01*
X366551Y1267218D01*
X367307Y1269042D01*
X367436Y1270021D01*
X367565Y1271000D01*
X367565Y1271000D01*
Y1281250D01*
X383500D01*
Y1299980D01*
X383500Y1300750D01*
X383500Y1302020D01*
Y1319980D01*
X383500Y1320750D01*
X383500Y1322020D01*
Y1339980D01*
X383500Y1340750D01*
X383500Y1342020D01*
Y1359980D01*
X383500Y1360750D01*
X383500Y1362020D01*
Y1380750D01*
X366500D01*
Y1378565D01*
X353500D01*
Y1380750D01*
X336500D01*
Y1362020D01*
X336500Y1361250D01*
X336500Y1359980D01*
Y1342020D01*
X336500Y1341250D01*
X336500Y1339980D01*
Y1322020D01*
X336500Y1321250D01*
X336500Y1319980D01*
Y1302020D01*
X336500Y1301250D01*
X336500Y1299980D01*
Y1281250D01*
X352435D01*
Y1275750D01*
X336500D01*
Y1257020D01*
X336500Y1256250D01*
X336500Y1254980D01*
Y1236250D01*
X353500D01*
Y1238435D01*
X370000D01*
X371958Y1238693D01*
X373782Y1239449D01*
X375349Y1240651D01*
X393134Y1258435D01*
X405250D01*
Y1257500D01*
X424750D01*
Y1257500D01*
X425250D01*
Y1257500D01*
X444750D01*
Y1257500D01*
X445250D01*
Y1257500D01*
X464750D01*
Y1274500D01*
X461118D01*
Y1298466D01*
X468534Y1305883D01*
X474652D01*
X475218Y1305449D01*
X477042Y1304693D01*
X479000Y1304435D01*
X479999Y1304567D01*
X480592Y1303364D01*
X477350Y1300121D01*
X476308Y1298763D01*
X475653Y1297182D01*
X475429Y1295485D01*
Y1269515D01*
X475653Y1267818D01*
X476308Y1266237D01*
X477350Y1264879D01*
X480864Y1261364D01*
X482222Y1260322D01*
X483803Y1259667D01*
X485500Y1259444D01*
X491000D01*
Y1257500D01*
X495944D01*
Y1254515D01*
X496167Y1252818D01*
X496822Y1251237D01*
X497864Y1249879D01*
X501379Y1246364D01*
X502737Y1245322D01*
X504318Y1244667D01*
X506015Y1244444D01*
X512284D01*
X515000Y1241728D01*
Y1210272D01*
X507284Y1202556D01*
X486000D01*
X484303Y1202333D01*
X482722Y1201678D01*
X481364Y1200636D01*
X460128Y1179400D01*
X459614Y1179675D01*
X456127Y1180732D01*
X452500Y1181089D01*
X442565D01*
Y1213435D01*
X450000D01*
X451958Y1213693D01*
X453782Y1214449D01*
X455349Y1215651D01*
X460349Y1220651D01*
X460349Y1220651D01*
X461551Y1222218D01*
X462307Y1224042D01*
X462565Y1226000D01*
Y1237500D01*
X464750D01*
Y1254500D01*
X445250D01*
Y1254500D01*
X444750D01*
Y1254500D01*
X425250D01*
Y1254500D01*
X424750D01*
Y1254500D01*
X405250D01*
Y1237500D01*
X407435D01*
Y1226000D01*
X407693Y1224042D01*
X408449Y1222218D01*
X409651Y1220651D01*
X414651Y1215651D01*
X416218Y1214449D01*
X418042Y1213693D01*
X420000Y1213435D01*
X420000Y1213435D01*
X427435D01*
Y1181089D01*
X48590Y1181089D01*
Y1271750D01*
X81750D01*
Y1288750D01*
X48590D01*
X48590Y1371250D01*
X81750D01*
Y1388250D01*
X48590D01*
Y1492300D01*
X110200Y1553911D01*
X332500D01*
Y1457500D01*
D02*
G37*
G36*
X462500Y1392500D02*
X501943D01*
X502500Y1392427D01*
X515000D01*
Y1367694D01*
X513730Y1367263D01*
X513636Y1367386D01*
X512278Y1368428D01*
X510697Y1369083D01*
X509000Y1369306D01*
X496000D01*
X494303Y1369083D01*
X493467Y1368736D01*
X483264D01*
X482870Y1369039D01*
X481045Y1369794D01*
X479087Y1370052D01*
X477130Y1369794D01*
X475305Y1369039D01*
X474740Y1368605D01*
X447546D01*
X443618Y1372534D01*
Y1375000D01*
X447250D01*
Y1392000D01*
X427750D01*
Y1392000D01*
X427250D01*
Y1392000D01*
X407750D01*
X407500Y1393167D01*
Y1412500D01*
X462500D01*
Y1392500D01*
D02*
G37*
G36*
X1349000Y1461000D02*
X1349000Y1461000D01*
X1351068Y1461000D01*
X1355125Y1460193D01*
X1358947Y1458610D01*
X1362387Y1456312D01*
X1365312Y1453387D01*
X1367610Y1449947D01*
X1369193Y1446125D01*
X1370000Y1442068D01*
X1370000Y1440000D01*
X1370000Y1320000D01*
X1370000Y1320000D01*
X1370000Y1318129D01*
X1369270Y1314458D01*
X1367838Y1311000D01*
X1365758Y1307888D01*
X1363112Y1305242D01*
X1360000Y1303162D01*
X1356542Y1301730D01*
X1352871Y1301000D01*
X1351000Y1301000D01*
X1280000Y1301000D01*
X1280000Y1091000D01*
Y1077500D01*
X1195000D01*
Y981000D01*
X1240000Y981000D01*
X1240000Y881000D01*
X1200000D01*
X1200000Y761000D01*
X1310000D01*
X1310000Y850002D01*
X1310000Y850002D01*
X1310034Y851258D01*
X1310423Y853210D01*
X1311252Y855211D01*
X1312455Y857013D01*
X1313987Y858545D01*
X1315788Y859748D01*
X1317790Y860577D01*
X1319915Y861000D01*
X1320998Y861000D01*
X1339000Y861000D01*
X1339000Y861000D01*
X1339000Y861000D01*
X1339015D01*
X1340192Y860978D01*
X1342208Y860577D01*
X1344210Y859748D01*
X1346012Y858544D01*
X1347544Y857012D01*
X1348748Y855210D01*
X1349577Y853208D01*
X1350000Y851083D01*
X1350000Y850000D01*
X1350000Y680000D01*
X1350000Y680000D01*
Y678099D01*
X1349503Y674330D01*
X1348519Y670658D01*
X1347065Y667146D01*
X1345164Y663854D01*
X1342850Y660838D01*
X1340162Y658150D01*
X1337146Y655836D01*
X1333854Y653935D01*
X1330342Y652480D01*
X1326670Y651496D01*
X1322901Y651000D01*
X1321000D01*
X1149000Y651000D01*
X1147129Y651000D01*
X1143458Y651730D01*
X1140000Y653162D01*
X1136888Y655242D01*
X1134242Y657888D01*
X1132162Y661000D01*
X1130730Y664458D01*
X1130000Y668129D01*
Y670000D01*
X1130000Y1101000D01*
X1130000Y1215000D01*
X1210000Y1215000D01*
X1210000Y1440000D01*
Y1442068D01*
X1210807Y1446125D01*
X1212390Y1449947D01*
X1214688Y1453387D01*
X1217613Y1456312D01*
X1221053Y1458610D01*
X1224874Y1460193D01*
X1228932Y1461000D01*
X1231000D01*
X1349000Y1461000D01*
X1349000Y1461000D01*
D02*
G37*
G36*
X2265000Y1325000D02*
X2265000Y1280000D01*
X2190000Y1280000D01*
X2190000Y1322500D01*
X2192500Y1325000D01*
X2265000Y1325000D01*
D02*
G37*
G36*
X2337500Y1192500D02*
X2337500Y1192500D01*
X2337502D01*
X2338688Y1192459D01*
X2340417Y1192116D01*
X2342237Y1191362D01*
X2343875Y1190267D01*
X2345267Y1188875D01*
X2346362Y1187237D01*
X2347116Y1185417D01*
X2347500Y1183485D01*
X2347500Y1182500D01*
X2347500Y1017500D01*
X2347500Y1017500D01*
Y1016515D01*
X2347115Y1014583D01*
X2346362Y1012763D01*
X2345267Y1011125D01*
X2343874Y1009732D01*
X2342237Y1008638D01*
X2340417Y1007884D01*
X2338485Y1007500D01*
X2337500D01*
X2002500Y1007500D01*
X2002500Y1007500D01*
X2001269D01*
X1998854Y1007980D01*
X1996579Y1008923D01*
X1994532Y1010291D01*
X1992791Y1012032D01*
X1991423Y1014079D01*
X1990480Y1016354D01*
X1990000Y1018769D01*
X1990000Y1020000D01*
X1990000Y1180000D01*
X1990000Y1180000D01*
X1990000Y1180000D01*
X1990000Y1181231D01*
X1990480Y1183646D01*
X1991423Y1185921D01*
X1992791Y1187968D01*
X1994532Y1189709D01*
X1996579Y1191077D01*
X1998854Y1192020D01*
X2001269Y1192500D01*
X2002500Y1192500D01*
X2337500Y1192500D01*
X2337500Y1192500D01*
D02*
G37*
G36*
X920000Y1171000D02*
X920000Y1171000D01*
X920007D01*
X921193Y1170958D01*
X922917Y1170615D01*
X924737Y1169862D01*
X926375Y1168767D01*
X927767Y1167375D01*
X928862Y1165737D01*
X929616Y1163917D01*
X930000Y1161985D01*
X930000Y1161000D01*
X930000Y1081000D01*
X1029000Y1081000D01*
X1029000Y1081000D01*
X1029000Y1081000D01*
X1031068Y1081000D01*
X1035125Y1080193D01*
X1038947Y1078610D01*
X1042387Y1076312D01*
X1045312Y1073387D01*
X1047610Y1069947D01*
X1049193Y1066125D01*
X1050000Y1062068D01*
X1050000Y1050000D01*
X1050000Y1050000D01*
X1050043Y1049118D01*
X1050387Y1047387D01*
X1051063Y1045757D01*
X1052043Y1044290D01*
X1053290Y1043043D01*
X1054757Y1042063D01*
X1056387Y1041387D01*
X1058118Y1041043D01*
X1059000Y1041000D01*
X1069000Y1041000D01*
X1069000Y1041000D01*
X1069000Y1041000D01*
X1069003D01*
X1070192Y1040978D01*
X1072209Y1040577D01*
X1074210Y1039748D01*
X1076012Y1038544D01*
X1077544Y1037012D01*
X1078748Y1035210D01*
X1079577Y1033209D01*
X1080000Y1031083D01*
X1080000Y1030000D01*
X1080000Y510000D01*
X1080091Y508137D01*
X1080818Y504484D01*
X1082243Y501043D01*
X1084313Y497946D01*
X1086946Y495312D01*
X1090043Y493243D01*
X1093485Y491818D01*
X1097138Y491091D01*
X1099000Y491000D01*
X1229000D01*
X1229000Y491000D01*
X1229000Y491000D01*
X1229002D01*
X1230175Y490982D01*
X1232209Y490577D01*
X1234210Y489748D01*
X1236012Y488544D01*
X1237544Y487012D01*
X1238748Y485210D01*
X1239577Y483209D01*
X1240000Y481083D01*
Y480000D01*
Y341000D01*
Y270000D01*
X1200000D01*
Y329565D01*
X990435Y329565D01*
X990434Y329565D01*
X988422Y329565D01*
X984474Y330350D01*
X980755Y331891D01*
X977408Y334127D01*
X974562Y336974D01*
X972326Y340321D01*
X970785Y344039D01*
X970000Y347987D01*
X970000Y350000D01*
Y990000D01*
X970000Y990000D01*
X970000Y990000D01*
X969998Y990022D01*
X969947Y991078D01*
X969926Y991184D01*
X969526Y993193D01*
X968701Y995185D01*
X967503Y996978D01*
X965978Y998503D01*
X964185Y999701D01*
X962193Y1000526D01*
X960078Y1000947D01*
X959000Y1001000D01*
X859000Y1001000D01*
X857099Y1001000D01*
X853330Y1001496D01*
X849658Y1002480D01*
X846146Y1003935D01*
X842854Y1005835D01*
X839838Y1008150D01*
X837150Y1010838D01*
X834835Y1013854D01*
X832935Y1017146D01*
X831480Y1020658D01*
X830496Y1024330D01*
X830000Y1028099D01*
X830000Y1030000D01*
X830000Y1160000D01*
X830000Y1160000D01*
X830000Y1160000D01*
X830020Y1161183D01*
X830423Y1163208D01*
X831252Y1165210D01*
X832456Y1167012D01*
X833988Y1168544D01*
X835789Y1169748D01*
X837791Y1170577D01*
X839917Y1171000D01*
X841000Y1171000D01*
X920000Y1171000D01*
X920000Y1171000D01*
D02*
G37*
G36*
X3100000Y1995412D02*
Y1900000D01*
X3195412D01*
Y100000D01*
X3100000D01*
Y4588D01*
X2690000Y4588D01*
X2690000Y420000D01*
X1910000Y420000D01*
X1907542Y420000D01*
X1902668Y420642D01*
X1897920Y421914D01*
X1893378Y423795D01*
X1889121Y426253D01*
X1885221Y429245D01*
X1881745Y432721D01*
X1878753Y436621D01*
X1876295Y440878D01*
X1874414Y445420D01*
X1873142Y450168D01*
X1872500Y455042D01*
X1872500Y457500D01*
X1872500Y671303D01*
X1872500Y672499D01*
X1872500Y672500D01*
X1872500Y672500D01*
X1872500Y674957D01*
X1873141Y679831D01*
X1874413Y684579D01*
X1876295Y689121D01*
X1878752Y693378D01*
X1881745Y697278D01*
X1885221Y700754D01*
X1889121Y703747D01*
X1893378Y706205D01*
X1897920Y708086D01*
X1902668Y709358D01*
X1907542Y710000D01*
X1910000Y710000D01*
X2508806Y710000D01*
X2510000Y710000D01*
X2510000Y710000D01*
X2510000Y710000D01*
X2511960Y710096D01*
X2515806Y710861D01*
X2519428Y712362D01*
X2522688Y714540D01*
X2525460Y717312D01*
X2527639Y720572D01*
X2529139Y724194D01*
X2529904Y728040D01*
X2530000Y730000D01*
X2530000Y838242D01*
X2531261Y838764D01*
X2533768Y840688D01*
X2535692Y843195D01*
X2536901Y846114D01*
X2537313Y849246D01*
X2536901Y852379D01*
X2536210Y854048D01*
Y865651D01*
X2538210D01*
Y860747D01*
X2556210D01*
Y862149D01*
X2558210D01*
X2560161Y862537D01*
X2561815Y863642D01*
X2562940Y864767D01*
X2564210Y864241D01*
Y860747D01*
X2582210D01*
Y873746D01*
X2565308D01*
Y879746D01*
X2572534D01*
X2572960Y879690D01*
X2573210D01*
X2573636Y879746D01*
X2582210D01*
Y892746D01*
X2579516D01*
Y902746D01*
X2581210D01*
Y913689D01*
X2581283Y914246D01*
Y988496D01*
X2582614Y989827D01*
X2603382D01*
X2605300Y988355D01*
X2608098Y987196D01*
X2611100Y986801D01*
X2614102Y987196D01*
X2616900Y988355D01*
X2619302Y990198D01*
X2620514Y991777D01*
X2621987Y991611D01*
X2623132Y989468D01*
X2625132Y987032D01*
X2627568Y985032D01*
X2630347Y983546D01*
X2633364Y982632D01*
X2636500Y982323D01*
X2639637Y982632D01*
X2642653Y983546D01*
X2645432Y985032D01*
X2647869Y987032D01*
X2649868Y989468D01*
X2651013Y991611D01*
X2652486Y991777D01*
X2653698Y990198D01*
X2656100Y988355D01*
X2658898Y987196D01*
X2661900Y986801D01*
X2664902Y987196D01*
X2667700Y988355D01*
X2670102Y990198D01*
X2671945Y992600D01*
X2673104Y995398D01*
X2673499Y998400D01*
X2673104Y1001402D01*
X2671945Y1004200D01*
X2670102Y1006602D01*
X2667700Y1008445D01*
X2667656Y1008463D01*
Y1016642D01*
X2667433Y1018339D01*
X2666778Y1019920D01*
X2665736Y1021278D01*
X2659878Y1027136D01*
X2658520Y1028178D01*
X2656939Y1028833D01*
X2655242Y1029056D01*
X2530000D01*
Y1040000D01*
X2460000Y1040000D01*
Y1140000D01*
X2517500Y1140000D01*
X2517500Y1502500D01*
X2517500Y1502500D01*
X2517500Y1502500D01*
X2517415Y1504215D01*
X2516746Y1507580D01*
X2515433Y1510749D01*
X2513528Y1513602D01*
X2511102Y1516028D01*
X2508249Y1517934D01*
X2505080Y1519246D01*
X2501715Y1519916D01*
X2500000Y1520000D01*
X1870000Y1520000D01*
X1868030Y1520000D01*
X1864166Y1520769D01*
X1860526Y1522276D01*
X1857251Y1524465D01*
X1854465Y1527251D01*
X1852276Y1530527D01*
X1850768Y1534166D01*
X1850000Y1538030D01*
X1850000Y1540000D01*
X1850000Y1995412D01*
X3100000Y1995412D01*
D02*
G37*
G36*
X332500Y1057500D02*
X322500D01*
Y1032275D01*
X321230Y1031844D01*
X321062Y1032062D01*
X311062Y1042062D01*
X309287Y1043425D01*
X307219Y1044281D01*
X305000Y1044573D01*
X253573D01*
Y1054142D01*
X253281Y1056361D01*
X252425Y1058429D01*
X251062Y1060204D01*
X245204Y1066062D01*
X243429Y1067425D01*
X241361Y1068281D01*
X239142Y1068573D01*
X205858D01*
X203639Y1068281D01*
X201571Y1067425D01*
X199796Y1066062D01*
X193938Y1060204D01*
X192575Y1058429D01*
X191719Y1056361D01*
X191427Y1054142D01*
Y1053616D01*
X190000D01*
X186476Y1053152D01*
X183192Y1051792D01*
X180372Y1049628D01*
X178208Y1046808D01*
X176847Y1043524D01*
X176383Y1040000D01*
X176847Y1036476D01*
X178208Y1033192D01*
X180372Y1030372D01*
X183192Y1028208D01*
X186476Y1026848D01*
X190000Y1026384D01*
X210000D01*
X213524Y1026848D01*
X216808Y1028208D01*
X219628Y1030372D01*
X221792Y1033192D01*
X223153Y1036476D01*
X223617Y1040000D01*
X223153Y1043524D01*
X221792Y1046808D01*
X219628Y1049628D01*
X218852Y1050224D01*
X219260Y1051427D01*
X235591D01*
X236427Y1050591D01*
Y1044500D01*
X233500D01*
Y1027500D01*
X244443D01*
X245000Y1027427D01*
X301449D01*
X306427Y1022449D01*
Y1017075D01*
X305828Y1016295D01*
X304770Y1013741D01*
X304409Y1011000D01*
X304770Y1008259D01*
X305828Y1005705D01*
X307511Y1003511D01*
X309705Y1001828D01*
X312259Y1000770D01*
X315000Y1000409D01*
X317741Y1000770D01*
X320295Y1001828D01*
X321230Y1002545D01*
X322500Y1001919D01*
Y1000000D01*
X322500Y1000000D01*
X322404Y999024D01*
X321657Y997222D01*
X320278Y995843D01*
X318475Y995096D01*
X317500Y995000D01*
X217003D01*
X217003Y995000D01*
X216604Y995000D01*
X215868Y994695D01*
X215305Y994132D01*
X215000Y993396D01*
X215000Y992997D01*
Y980000D01*
X215000Y980000D01*
Y979503D01*
X215381Y978584D01*
X216084Y977880D01*
X217003Y977500D01*
X267642D01*
X268027Y976230D01*
X266674Y975326D01*
X261216Y969867D01*
X108750D01*
Y970250D01*
X84750D01*
Y969867D01*
X66250D01*
X63909Y969402D01*
X61924Y968076D01*
X53174Y959326D01*
X51848Y957341D01*
X51382Y955000D01*
Y944348D01*
X50949Y943782D01*
X50193Y941958D01*
X49935Y940000D01*
X50193Y938042D01*
X50949Y936218D01*
X52151Y934651D01*
X53718Y933449D01*
X55542Y932693D01*
X57500Y932435D01*
X59458Y932693D01*
X61282Y933449D01*
X62849Y934651D01*
X64051Y936218D01*
X64313Y936849D01*
X65687D01*
X65949Y936218D01*
X67151Y934651D01*
X68718Y933449D01*
X70542Y932693D01*
X72500Y932435D01*
X74458Y932693D01*
X76282Y933449D01*
X77849Y934651D01*
X79051Y936218D01*
X79807Y938042D01*
X80065Y940000D01*
X79807Y941958D01*
X79051Y943782D01*
X78990Y943863D01*
X79605Y945133D01*
X84750D01*
Y932250D01*
Y919750D01*
Y907250D01*
X108750D01*
Y907632D01*
X246216D01*
X267174Y886674D01*
X269159Y885348D01*
X271500Y884883D01*
X316500D01*
Y881250D01*
X333500D01*
Y900750D01*
X333500D01*
Y901250D01*
X333500D01*
Y920750D01*
X333500D01*
Y921250D01*
X333500D01*
Y940750D01*
X333500D01*
Y941250D01*
X333500D01*
Y960750D01*
X333500D01*
Y961250D01*
X333500D01*
Y980750D01*
X317715D01*
X316739Y982020D01*
X316835Y982378D01*
X317012Y982452D01*
X317500Y982500D01*
X407500Y982500D01*
Y990000D01*
Y1012500D01*
X462500D01*
Y992500D01*
X501943D01*
X502500Y992427D01*
X515000D01*
Y967694D01*
X513730Y967263D01*
X513636Y967386D01*
X512278Y968428D01*
X510697Y969083D01*
X509000Y969306D01*
X496000D01*
X494303Y969083D01*
X493573Y968780D01*
X483207D01*
X482870Y969039D01*
X481045Y969794D01*
X479087Y970052D01*
X477130Y969794D01*
X475305Y969039D01*
X474740Y968605D01*
X456118D01*
Y977500D01*
X459750D01*
Y994500D01*
X440250D01*
Y994500D01*
X439750D01*
Y994500D01*
X420250D01*
Y977500D01*
X423882D01*
Y956000D01*
X424348Y953659D01*
X425674Y951674D01*
X431887Y945462D01*
X433497Y944386D01*
X433498Y943837D01*
X433238Y943065D01*
X431159Y942652D01*
X429174Y941326D01*
X413174Y925326D01*
X411848Y923341D01*
X411382Y921000D01*
Y874500D01*
X405250D01*
Y873565D01*
X390000D01*
X388042Y873307D01*
X386218Y872551D01*
X384651Y871349D01*
X366867Y853565D01*
X354398D01*
X353500Y854463D01*
X353500Y855750D01*
X353500Y857020D01*
Y858435D01*
X355000D01*
X356958Y858693D01*
X358782Y859449D01*
X360349Y860651D01*
X365349Y865651D01*
X366551Y867218D01*
X367307Y869042D01*
X367436Y870021D01*
X367565Y871000D01*
X367565Y871000D01*
Y881250D01*
X383500D01*
Y899980D01*
X383500Y900750D01*
X383500Y902020D01*
Y919980D01*
X383500Y920750D01*
X383500Y922020D01*
Y939980D01*
X383500Y940750D01*
X383500Y942020D01*
Y959980D01*
X383500Y960750D01*
X383500Y962020D01*
Y980750D01*
X366500D01*
Y978565D01*
X353500D01*
Y980750D01*
X336500D01*
Y962020D01*
X336500Y961250D01*
X336500Y959980D01*
Y942020D01*
X336500Y941250D01*
X336500Y939980D01*
Y922020D01*
X336500Y921250D01*
X336500Y919980D01*
Y902020D01*
X336500Y901250D01*
X336500Y899980D01*
Y881250D01*
X352435D01*
Y875750D01*
X336500D01*
Y857020D01*
X336500Y856250D01*
X336500Y854980D01*
Y836250D01*
X353500D01*
Y838435D01*
X370000D01*
X371958Y838693D01*
X373782Y839449D01*
X375349Y840651D01*
X393134Y858435D01*
X405250D01*
Y857500D01*
X424750D01*
Y857500D01*
X425250D01*
Y857500D01*
X444750D01*
Y857500D01*
X445250D01*
Y857500D01*
X464750D01*
Y874500D01*
X461118D01*
Y898466D01*
X468534Y905882D01*
X474652D01*
X475218Y905449D01*
X477042Y904693D01*
X479000Y904435D01*
X479999Y904567D01*
X480592Y903364D01*
X477350Y900121D01*
X476308Y898763D01*
X475653Y897182D01*
X475429Y895485D01*
Y869515D01*
X475653Y867818D01*
X476308Y866237D01*
X477350Y864879D01*
X480864Y861364D01*
X482222Y860322D01*
X483803Y859667D01*
X485500Y859444D01*
X491000D01*
Y857500D01*
X495944D01*
Y854515D01*
X496167Y852818D01*
X496822Y851237D01*
X497864Y849879D01*
X501379Y846364D01*
X502737Y845322D01*
X504318Y844667D01*
X506015Y844444D01*
X512284D01*
X515000Y841728D01*
Y810272D01*
X507284Y802556D01*
X481000D01*
X479303Y802333D01*
X477722Y801678D01*
X476364Y800636D01*
X460128Y784400D01*
X459614Y784675D01*
X456127Y785732D01*
X452500Y786089D01*
X442565D01*
Y813435D01*
X450000D01*
X451958Y813693D01*
X453782Y814449D01*
X455349Y815651D01*
X460349Y820651D01*
X460349Y820651D01*
X461551Y822218D01*
X462307Y824042D01*
X462565Y826000D01*
Y837500D01*
X464750D01*
Y854500D01*
X445250D01*
Y854500D01*
X444750D01*
Y854500D01*
X425250D01*
Y854500D01*
X424750D01*
Y854500D01*
X405250D01*
Y837500D01*
X407435D01*
Y826000D01*
X407693Y824042D01*
X408449Y822218D01*
X409651Y820651D01*
X414651Y815651D01*
X416218Y814449D01*
X418042Y813693D01*
X420000Y813435D01*
X420000Y813435D01*
X427435D01*
Y786089D01*
X48590Y786089D01*
Y874250D01*
X81750D01*
Y891250D01*
X48590D01*
X48590Y973750D01*
X81750D01*
Y990750D01*
X48590D01*
Y1143911D01*
X332500Y1143911D01*
Y1057500D01*
D02*
G37*
G36*
X1250000Y1032500D02*
X1240000D01*
Y1005000D01*
X1212500D01*
X1212500Y1057500D01*
X1250000D01*
X1250000Y1032500D01*
D02*
G37*
G36*
X2222500Y997500D02*
X2222500Y997500D01*
X2222501D01*
X2223670Y997414D01*
X2224688Y997212D01*
X2226053Y996646D01*
X2227281Y995826D01*
X2228326Y994781D01*
X2229146Y993553D01*
X2229712Y992188D01*
X2230000Y990739D01*
X2230000Y990000D01*
X2230000Y943750D01*
X2230000Y943750D01*
Y942507D01*
X2229048Y940210D01*
X2227290Y938452D01*
X2224993Y937500D01*
X2223750Y937500D01*
X2137500Y937500D01*
X2110000Y910000D01*
X2110000Y800000D01*
X2110000Y800000D01*
X2110000Y799015D01*
X2109615Y797083D01*
X2108862Y795263D01*
X2107767Y793625D01*
X2106375Y792232D01*
X2104737Y791138D01*
X2102917Y790384D01*
X2100985Y790000D01*
X2100000Y790000D01*
X1920000Y790000D01*
X1919015Y790000D01*
X1917083Y790384D01*
X1915263Y791138D01*
X1913625Y792232D01*
X1912232Y793625D01*
X1911138Y795263D01*
X1910384Y797083D01*
X1910000Y799015D01*
Y800000D01*
Y990000D01*
X1910000Y990000D01*
X1910000Y990000D01*
X1910098Y991229D01*
X1910288Y992188D01*
X1910853Y993552D01*
X1911674Y994781D01*
X1912719Y995826D01*
X1913947Y996646D01*
X1915312Y997212D01*
X1916761Y997500D01*
X1917500Y997500D01*
X2222500Y997500D01*
X2222500Y997500D01*
D02*
G37*
G36*
X2213500Y921591D02*
X2213383Y921000D01*
Y920000D01*
Y910500D01*
X2213848Y908159D01*
X2214000Y907932D01*
Y881000D01*
X2149750Y881000D01*
Y881000D01*
X2140000D01*
Y926000D01*
X2213500Y926000D01*
Y921591D01*
D02*
G37*
G36*
X1440000Y1810000D02*
X1759997Y1810000D01*
X1759998Y1809998D01*
X1759998Y1809998D01*
X1761968Y1809998D01*
X1765832Y1809230D01*
X1769472Y1807723D01*
X1772748Y1805535D01*
X1775534Y1802749D01*
X1777723Y1799474D01*
X1779231Y1795834D01*
X1780000Y1791970D01*
X1780000Y1790000D01*
X1780000Y490000D01*
X1779998Y489998D01*
Y488028D01*
X1779229Y484165D01*
X1777722Y480525D01*
X1775533Y477250D01*
X1772748Y474464D01*
X1769472Y472276D01*
X1765833Y470769D01*
X1761969Y470000D01*
X1569000D01*
X1568998Y469998D01*
X1567136Y469906D01*
X1563483Y469180D01*
X1560042Y467755D01*
X1556946Y465686D01*
X1554312Y463052D01*
X1552243Y459955D01*
X1550818Y456515D01*
X1550091Y452862D01*
X1550000Y451000D01*
X1550000Y426680D01*
X1549518Y426052D01*
X1548309Y423133D01*
X1547896Y420000D01*
Y410000D01*
X1530000Y410000D01*
X1529015Y410000D01*
X1527083Y409616D01*
X1525263Y408862D01*
X1523625Y407767D01*
X1522232Y406375D01*
X1521138Y404737D01*
X1520384Y402917D01*
X1520000Y400985D01*
X1520000Y400000D01*
Y380000D01*
X1520000Y379015D01*
X1520384Y377083D01*
X1521138Y375263D01*
X1522233Y373625D01*
X1523625Y372233D01*
X1525263Y371138D01*
X1527083Y370384D01*
X1529015Y370000D01*
X1530000D01*
X1530000Y370000D01*
X1549101Y370000D01*
X1550000Y369102D01*
X1549998Y109998D01*
X1549998Y109998D01*
Y108028D01*
X1549229Y104165D01*
X1547722Y100525D01*
X1545533Y97250D01*
X1542748Y94465D01*
X1539472Y92276D01*
X1535833Y90768D01*
X1531969Y90000D01*
X960000D01*
X958522Y90000D01*
X955624Y90576D01*
X952895Y91707D01*
X950438Y93348D01*
X948348Y95438D01*
X946707Y97895D01*
X945576Y100625D01*
X945000Y103523D01*
X945000Y105000D01*
X945000Y173804D01*
X945000Y175000D01*
X945000Y175000D01*
X945000Y175000D01*
X945000Y175000D01*
X945000Y176231D01*
X945480Y178646D01*
X946423Y180921D01*
X947791Y182968D01*
X949532Y184709D01*
X951579Y186077D01*
X953854Y187020D01*
X956269Y187500D01*
X957500Y187500D01*
X1187500Y187500D01*
X1187500Y187500D01*
Y187500D01*
X1188725Y187560D01*
X1191128Y188038D01*
X1193392Y188976D01*
X1195430Y190337D01*
X1197162Y192070D01*
X1198524Y194107D01*
X1199462Y196371D01*
X1199940Y198775D01*
X1200000Y200000D01*
X1200000Y210000D01*
Y250000D01*
X1240000D01*
X1240000Y200000D01*
X1240060Y198775D01*
X1240538Y196371D01*
X1241476Y194107D01*
X1242837Y192070D01*
X1244570Y190337D01*
X1246608Y188976D01*
X1248872Y188038D01*
X1251275Y187560D01*
X1252500Y187500D01*
X1407500Y187500D01*
X1407500Y187500D01*
X1407500Y187500D01*
X1408725Y187560D01*
X1411128Y188038D01*
X1413392Y188976D01*
X1415430Y190337D01*
X1417163Y192070D01*
X1418524Y194107D01*
X1419462Y196371D01*
X1419940Y198775D01*
X1420000Y200000D01*
X1420001Y240000D01*
X1420001Y240000D01*
X1420001Y240000D01*
X1419997Y240063D01*
X1419947Y241077D01*
X1419926Y241184D01*
X1419527Y243193D01*
X1418702Y245185D01*
X1417504Y246978D01*
X1415979Y248503D01*
X1414186Y249701D01*
X1412194Y250526D01*
X1410079Y250947D01*
X1409001Y251000D01*
X1378113Y251000D01*
X1376374Y251346D01*
X1374736Y252024D01*
X1373262Y253009D01*
X1372009Y254263D01*
X1371024Y255737D01*
X1370346Y257375D01*
X1370000Y259114D01*
X1370000Y260000D01*
X1370000Y759999D01*
X1370000D01*
X1370000Y760000D01*
X1370000Y761969D01*
X1370768Y765833D01*
X1372276Y769473D01*
X1374464Y772749D01*
X1377250Y775535D01*
X1380526Y777724D01*
X1384166Y779231D01*
X1388030Y780000D01*
X1390000Y780000D01*
X1588744Y780000D01*
X1590000Y780000D01*
X1590000Y780000D01*
Y780000D01*
X1591960Y780096D01*
X1595805Y780861D01*
X1599428Y782361D01*
X1602688Y784539D01*
X1605460Y787312D01*
X1607639Y790572D01*
X1609139Y794194D01*
X1609904Y798040D01*
X1610000Y800000D01*
X1610000Y1480000D01*
X1610000Y1480000D01*
X1609998Y1480001D01*
X1609902Y1481959D01*
X1609138Y1485804D01*
X1607638Y1489427D01*
X1605460Y1492687D01*
X1602688Y1495460D01*
X1599428Y1497638D01*
X1595806Y1499139D01*
X1591960Y1499904D01*
X1590000Y1500000D01*
X1440000Y1500000D01*
X1438028Y1500000D01*
X1434164Y1500769D01*
X1430525Y1502276D01*
X1427249Y1504465D01*
X1424464Y1507251D01*
X1422275Y1510526D01*
X1420768Y1514166D01*
X1420000Y1518030D01*
X1420000Y1520000D01*
X1420000Y1788803D01*
X1420000Y1789998D01*
X1420000Y1789998D01*
Y1790000D01*
X1420000Y1790000D01*
X1420000Y1791969D01*
X1420768Y1795833D01*
X1422275Y1799473D01*
X1424464Y1802749D01*
X1427249Y1805535D01*
X1430526Y1807724D01*
X1434166Y1809232D01*
X1438030Y1810000D01*
X1440000Y1810000D01*
D02*
G37*
G36*
X332500Y657500D02*
X322500D01*
Y632275D01*
X321230Y631844D01*
X321062Y632062D01*
X311062Y642062D01*
X309287Y643425D01*
X307219Y644281D01*
X305000Y644573D01*
X253573D01*
Y654142D01*
X253281Y656361D01*
X252425Y658429D01*
X251062Y660204D01*
X245204Y666062D01*
X243429Y667425D01*
X241361Y668281D01*
X239142Y668573D01*
X205858D01*
X203639Y668281D01*
X201571Y667425D01*
X199796Y666062D01*
X193938Y660204D01*
X192575Y658429D01*
X191719Y656361D01*
X191427Y654142D01*
Y653616D01*
X190000D01*
X186476Y653152D01*
X183192Y651792D01*
X180372Y649628D01*
X178208Y646808D01*
X176847Y643524D01*
X176383Y640000D01*
X176847Y636476D01*
X178208Y633192D01*
X180372Y630372D01*
X183192Y628208D01*
X186476Y626847D01*
X190000Y626384D01*
X210000D01*
X213524Y626847D01*
X216808Y628208D01*
X219628Y630372D01*
X221792Y633192D01*
X223153Y636476D01*
X223617Y640000D01*
X223153Y643524D01*
X221792Y646808D01*
X219628Y649628D01*
X218852Y650224D01*
X219260Y651427D01*
X235591D01*
X236427Y650591D01*
Y644500D01*
X233500D01*
Y627500D01*
X244443D01*
X245000Y627427D01*
X301449D01*
X306427Y622449D01*
Y617075D01*
X305828Y616295D01*
X304770Y613741D01*
X304409Y611000D01*
X304770Y608259D01*
X305828Y605705D01*
X307511Y603511D01*
X309705Y601828D01*
X312259Y600770D01*
X315000Y600409D01*
X317741Y600770D01*
X320295Y601828D01*
X321230Y602546D01*
X322500Y601919D01*
Y600000D01*
X322500Y600000D01*
X322404Y599024D01*
X321657Y597222D01*
X320278Y595843D01*
X318475Y595096D01*
X317500Y595000D01*
X217003D01*
X217003Y595000D01*
X216604Y595000D01*
X215868Y594695D01*
X215305Y594132D01*
X215000Y593396D01*
X215000Y592997D01*
Y580000D01*
X215000Y580000D01*
Y579503D01*
X215381Y578584D01*
X216084Y577881D01*
X217003Y577500D01*
X282642D01*
X283027Y576230D01*
X281674Y575326D01*
X273716Y567368D01*
X108750D01*
Y567750D01*
X84750D01*
Y567368D01*
X68750D01*
X66409Y566902D01*
X64424Y565576D01*
X58174Y559326D01*
X56848Y557341D01*
X56382Y555000D01*
Y546848D01*
X55949Y546282D01*
X55193Y544458D01*
X54935Y542500D01*
X55193Y540542D01*
X55949Y538718D01*
X57151Y537151D01*
X58718Y535949D01*
X60542Y535193D01*
X62500Y534935D01*
X64458Y535193D01*
X66282Y535949D01*
X67849Y537151D01*
X68115Y537497D01*
X69385D01*
X69651Y537151D01*
X71218Y535949D01*
X73042Y535193D01*
X75000Y534935D01*
X76958Y535193D01*
X78782Y535949D01*
X80349Y537151D01*
X81551Y538718D01*
X82307Y540542D01*
X82565Y542500D01*
X82681Y542632D01*
X84750D01*
Y529750D01*
Y517250D01*
Y504750D01*
X108750D01*
Y505132D01*
X263716D01*
X282174Y486674D01*
X284159Y485348D01*
X286500Y484883D01*
X316500D01*
Y481250D01*
X333500D01*
Y500750D01*
X333500D01*
Y501250D01*
X333500D01*
Y520750D01*
X333500D01*
Y521250D01*
X333500D01*
Y540750D01*
X333500D01*
Y541250D01*
X333500D01*
Y560750D01*
X333500D01*
Y561250D01*
X333500D01*
Y580750D01*
X317715D01*
X316739Y582020D01*
X316835Y582378D01*
X317012Y582452D01*
X317500Y582500D01*
X407500Y582500D01*
Y590000D01*
Y612500D01*
X462500D01*
Y592500D01*
X501943D01*
X502500Y592427D01*
X515000D01*
Y567694D01*
X513730Y567263D01*
X513636Y567386D01*
X512278Y568428D01*
X510697Y569083D01*
X509000Y569306D01*
X496000D01*
X494303Y569083D01*
X493573Y568780D01*
X483207D01*
X482870Y569039D01*
X481045Y569795D01*
X479087Y570052D01*
X477130Y569795D01*
X475305Y569039D01*
X474740Y568605D01*
X456118D01*
Y577500D01*
X459750D01*
Y594500D01*
X440250D01*
Y594500D01*
X439750D01*
Y594500D01*
X420250D01*
Y577500D01*
X423882D01*
Y556000D01*
X424348Y553659D01*
X425674Y551674D01*
X431887Y545462D01*
X433497Y544386D01*
X433498Y543837D01*
X433238Y543065D01*
X431159Y542652D01*
X429174Y541326D01*
X413174Y525326D01*
X411848Y523341D01*
X411382Y521000D01*
Y474500D01*
X405250D01*
Y473565D01*
X390000D01*
X388042Y473307D01*
X386218Y472551D01*
X384651Y471349D01*
X366867Y453565D01*
X354398D01*
X353500Y454463D01*
X353500Y455750D01*
X353500Y457020D01*
Y458435D01*
X355000D01*
X356958Y458693D01*
X358782Y459449D01*
X360349Y460651D01*
X365349Y465651D01*
X366551Y467218D01*
X367307Y469042D01*
X367436Y470021D01*
X367565Y471000D01*
X367565Y471000D01*
Y481250D01*
X383500D01*
Y499980D01*
X383500Y500750D01*
X383500Y502020D01*
Y519980D01*
X383500Y520750D01*
X383500Y522020D01*
Y539980D01*
X383500Y540750D01*
X383500Y542020D01*
Y559980D01*
X383500Y560750D01*
X383500Y562020D01*
Y580750D01*
X366500D01*
Y578565D01*
X353500D01*
Y580750D01*
X336500D01*
Y562020D01*
X336500Y561250D01*
X336500Y559980D01*
Y542020D01*
X336500Y541250D01*
X336500Y539980D01*
Y522020D01*
X336500Y521250D01*
X336500Y519980D01*
Y502020D01*
X336500Y501250D01*
X336500Y499980D01*
Y481250D01*
X352435D01*
Y475750D01*
X336500D01*
Y457020D01*
X336500Y456250D01*
X336500Y454980D01*
Y436250D01*
X353500D01*
Y438435D01*
X370000D01*
X371958Y438693D01*
X373782Y439449D01*
X375349Y440651D01*
X393134Y458435D01*
X405250D01*
Y457500D01*
X424750D01*
Y457500D01*
X425250D01*
Y457500D01*
X444750D01*
Y457500D01*
X445250D01*
Y457500D01*
X464750D01*
Y474500D01*
X461118D01*
Y498466D01*
X468534Y505882D01*
X474652D01*
X475218Y505449D01*
X477042Y504693D01*
X479000Y504435D01*
X479999Y504567D01*
X480592Y503364D01*
X477350Y500121D01*
X476308Y498763D01*
X475653Y497182D01*
X475429Y495485D01*
Y469515D01*
X475653Y467818D01*
X476308Y466237D01*
X477350Y464879D01*
X480864Y461364D01*
X482222Y460322D01*
X483803Y459667D01*
X485500Y459444D01*
X491000D01*
Y457500D01*
X495944D01*
Y454515D01*
X496167Y452818D01*
X496822Y451237D01*
X497864Y449879D01*
X501379Y446364D01*
X502737Y445322D01*
X504318Y444667D01*
X506015Y444444D01*
X512284D01*
X515000Y441728D01*
Y400875D01*
X513730Y399943D01*
X511127Y400732D01*
X507500Y401090D01*
X442565D01*
Y413435D01*
X450000D01*
X451958Y413693D01*
X453782Y414449D01*
X455349Y415651D01*
X460349Y420651D01*
X460349Y420651D01*
X461551Y422218D01*
X462307Y424042D01*
X462565Y426000D01*
Y437500D01*
X464750D01*
Y454500D01*
X445250D01*
Y454500D01*
X444750D01*
Y454500D01*
X425250D01*
Y454500D01*
X424750D01*
Y454500D01*
X405250D01*
Y437500D01*
X407435D01*
Y426000D01*
X407693Y424042D01*
X408449Y422218D01*
X409651Y420651D01*
X414651Y415651D01*
X416218Y414449D01*
X418042Y413693D01*
X420000Y413435D01*
X420000Y413435D01*
X427435D01*
Y401090D01*
X85200Y401089D01*
X48590Y437700D01*
Y471750D01*
X81750D01*
Y488750D01*
X48590D01*
Y571250D01*
X81750D01*
Y588250D01*
X48590D01*
Y748911D01*
X332500Y748911D01*
Y657500D01*
D02*
G37*
G36*
X629000Y351000D02*
X630576Y351000D01*
X633667Y350385D01*
X636579Y349179D01*
X639199Y347428D01*
X641428Y345199D01*
X643179Y342579D01*
X644385Y339667D01*
X645000Y336576D01*
X645000Y335000D01*
X645000Y335000D01*
X645000Y335000D01*
X645000Y155000D01*
X645000Y153523D01*
X644424Y150625D01*
X643293Y147895D01*
X641651Y145438D01*
X639562Y143349D01*
X637105Y141707D01*
X634375Y140576D01*
X631477Y140000D01*
X630000Y140000D01*
X570000D01*
X568769Y140000D01*
X566354Y140480D01*
X564079Y141423D01*
X562032Y142790D01*
X560291Y144531D01*
X558923Y146579D01*
X557980Y148854D01*
X557500Y151269D01*
X557500Y178977D01*
X558076Y181875D01*
X559207Y184605D01*
X560849Y187062D01*
X562938Y189151D01*
X565395Y190793D01*
X568125Y191923D01*
X571022Y192500D01*
X572500Y192500D01*
X572500Y192500D01*
X592500Y192500D01*
X593480Y192548D01*
X595403Y192931D01*
X597214Y193681D01*
X598844Y194770D01*
X600230Y196156D01*
X601319Y197786D01*
X602069Y199597D01*
X602452Y201520D01*
X602500Y202500D01*
X602500Y202500D01*
Y252500D01*
X596495D01*
Y268177D01*
X573495D01*
Y252500D01*
X486505D01*
X484668Y253261D01*
X483261Y254668D01*
X482500Y256505D01*
Y257500D01*
X482500Y257500D01*
X482500Y342500D01*
X482500Y343337D01*
X482827Y344979D01*
X483467Y346526D01*
X484398Y347918D01*
X485582Y349102D01*
X486974Y350033D01*
X488521Y350673D01*
X490163Y351000D01*
X491000Y351000D01*
X491000Y351000D01*
X629000Y351000D01*
D02*
G37*
G36*
X410000Y340000D02*
X410985Y340000D01*
X412917Y339616D01*
X414737Y338862D01*
X416375Y337767D01*
X417767Y336375D01*
X418862Y334737D01*
X419616Y332917D01*
X420000Y330985D01*
Y330000D01*
X420000Y280000D01*
X420048Y279019D01*
X420431Y277097D01*
X421181Y275286D01*
X421500Y274808D01*
Y273000D01*
X422926D01*
X423656Y272270D01*
X425286Y271180D01*
X427097Y270430D01*
X429020Y270048D01*
X430000Y270000D01*
X470000Y270000D01*
X470000Y270000D01*
X470000Y270000D01*
X470006D01*
X471171Y269914D01*
X472188Y269711D01*
X473552Y269146D01*
X474781Y268325D01*
X475826Y267281D01*
X476646Y266052D01*
X477212Y264688D01*
X477500Y263239D01*
X477500Y262500D01*
X477500Y257500D01*
X477500Y257500D01*
X477548Y256519D01*
X477931Y254597D01*
X478681Y252786D01*
X479770Y251156D01*
X481156Y249770D01*
X482786Y248681D01*
X484597Y247931D01*
X486520Y247548D01*
X487500Y247500D01*
X512500Y247500D01*
X512500Y247500D01*
X512500Y247500D01*
X512504D01*
X513688Y247410D01*
X514688Y247211D01*
X516052Y246646D01*
X517281Y245825D01*
X518326Y244781D01*
X519146Y243552D01*
X519712Y242188D01*
X520000Y240739D01*
X520000Y240000D01*
X520000Y140000D01*
X520000Y140000D01*
X520000Y139015D01*
X519615Y137083D01*
X518862Y135263D01*
X517767Y133625D01*
X516375Y132232D01*
X514737Y131138D01*
X512917Y130384D01*
X510985Y130000D01*
X510000Y130000D01*
X470000Y130000D01*
X470000Y130000D01*
X469015Y130000D01*
X467083Y130384D01*
X465263Y131138D01*
X463625Y132233D01*
X462232Y133625D01*
X461138Y135263D01*
X460384Y137083D01*
X460000Y139015D01*
X460000Y140000D01*
Y161010D01*
X460868Y162068D01*
X462354Y164847D01*
X463269Y167863D01*
X463577Y171000D01*
X463269Y174137D01*
X462354Y177153D01*
X460868Y179932D01*
X460000Y180990D01*
Y210000D01*
X405000D01*
Y235000D01*
X405000Y235000D01*
X404999Y235000D01*
X404927Y236470D01*
X404354Y239354D01*
X403800Y240691D01*
Y244090D01*
X401879D01*
X401595Y244516D01*
X399516Y246595D01*
X397071Y248229D01*
X394354Y249354D01*
X391470Y249928D01*
X390000Y250000D01*
X330000Y250000D01*
X329015D01*
X327083Y250384D01*
X325263Y251138D01*
X323625Y252232D01*
X322233Y253625D01*
X321138Y255263D01*
X320384Y257083D01*
X320000Y259015D01*
Y260000D01*
Y330000D01*
X320000Y330000D01*
X320000Y330000D01*
X320037Y331174D01*
X320384Y332917D01*
X321138Y334737D01*
X322233Y336375D01*
X323625Y337767D01*
X325263Y338862D01*
X327083Y339616D01*
X329015Y340000D01*
X330000Y340000D01*
X410000Y340000D01*
Y340000D01*
D02*
G37*
G36*
X1130000Y310000D02*
X1130985Y310000D01*
X1132917Y309616D01*
X1134737Y308862D01*
X1136375Y307767D01*
X1137767Y306374D01*
X1138862Y304737D01*
X1139616Y302917D01*
X1139954Y301215D01*
X1140000Y300003D01*
Y300000D01*
X1140000Y300000D01*
X1140000Y300000D01*
X1140000Y220000D01*
X1140000Y219015D01*
X1139616Y217083D01*
X1138862Y215263D01*
X1137767Y213625D01*
X1136375Y212232D01*
X1134737Y211138D01*
X1132917Y210384D01*
X1131179Y210039D01*
X1130000Y210000D01*
X1130000Y210000D01*
X1130000Y210000D01*
X850000D01*
X849015Y210000D01*
X847083Y210384D01*
X845263Y211138D01*
X843625Y212232D01*
X842233Y213625D01*
X841138Y215263D01*
X840384Y217083D01*
X840000Y219015D01*
X840000Y220000D01*
X840000D01*
X840000Y300000D01*
X840000Y300985D01*
X840384Y302917D01*
X841138Y304737D01*
X842233Y306374D01*
X843625Y307767D01*
X845263Y308862D01*
X847083Y309615D01*
X849015Y310000D01*
X850000Y310000D01*
X850000Y310000D01*
X1130000Y310000D01*
D02*
G37*
G36*
X302917Y269616D02*
X304737Y268862D01*
X306375Y267767D01*
X307768Y266374D01*
X308862Y264737D01*
X309616Y262917D01*
X309957Y261200D01*
X310000Y260002D01*
Y260000D01*
X310000Y260000D01*
X310000Y260000D01*
X310000Y250000D01*
X310048Y249020D01*
X310431Y247097D01*
X311181Y245286D01*
X312270Y243656D01*
X313656Y242270D01*
X315286Y241181D01*
X317097Y240430D01*
X319020Y240048D01*
X320000Y240000D01*
X360000Y240000D01*
X361231Y240000D01*
X363646Y239520D01*
X365921Y238578D01*
X367968Y237210D01*
X369710Y235469D01*
X371078Y233421D01*
X372020Y231146D01*
X372500Y228731D01*
X372500Y227500D01*
X372500Y227500D01*
X372500Y227500D01*
X372500Y102500D01*
X372500Y101367D01*
X372058Y99145D01*
X371191Y97052D01*
X369933Y95169D01*
X368331Y93567D01*
X366447Y92308D01*
X364354Y91441D01*
X362259Y91025D01*
X360999Y91000D01*
Y91000D01*
X318114Y91000D01*
X316375Y91346D01*
X314737Y92024D01*
X313263Y93009D01*
X312009Y94263D01*
X311024Y95737D01*
X310346Y97375D01*
X310000Y99114D01*
X310000Y100000D01*
X310000D01*
X310000Y128500D01*
X327500Y146000D01*
X327500Y203863D01*
X327466Y204562D01*
X327193Y205935D01*
X326657Y207227D01*
X325880Y208391D01*
X324890Y209380D01*
X323727Y210157D01*
X322434Y210692D01*
X321537Y210870D01*
X321062Y210965D01*
X320380Y210998D01*
X320363Y211000D01*
X320363Y211000D01*
X320363Y211000D01*
X289000Y211000D01*
X288114Y211000D01*
X286375Y211346D01*
X284737Y212024D01*
X283263Y213009D01*
X282009Y214263D01*
X281024Y215737D01*
X280346Y217374D01*
X280000Y219113D01*
X280000Y260985D01*
X280384Y262917D01*
X281138Y264737D01*
X282232Y266374D01*
X283625Y267767D01*
X285263Y268862D01*
X287083Y269616D01*
X289015Y270000D01*
X290000Y270000D01*
X290000Y270000D01*
X300000Y270000D01*
X300985Y270000D01*
X302917Y269616D01*
D02*
G37*
G36*
X755000Y215000D02*
X755000Y214005D01*
X754239Y212168D01*
X752832Y210761D01*
X751230Y210097D01*
X750000Y210000D01*
X712500Y210000D01*
X712500Y173617D01*
X648568D01*
X648568Y335000D01*
X648568Y335000D01*
X648568Y336576D01*
X648500Y336920D01*
X648500Y337272D01*
X647885Y340363D01*
X647751Y340688D01*
X647682Y341032D01*
X646476Y343944D01*
X646281Y344237D01*
X646146Y344561D01*
X644395Y347182D01*
X644147Y347430D01*
X643951Y347723D01*
X641723Y349951D01*
X641431Y350147D01*
X641182Y350395D01*
X638562Y352146D01*
X638237Y352281D01*
X637944Y352476D01*
X635033Y353682D01*
X634688Y353751D01*
X634363Y353885D01*
X631272Y354500D01*
X630921D01*
X630576Y354568D01*
X629000Y354568D01*
X548590Y354568D01*
Y360000D01*
X548590Y360000D01*
X755000Y360000D01*
X755000Y215000D01*
D02*
G37*
G36*
X890985Y170000D02*
X892917Y169616D01*
X894737Y168862D01*
X896375Y167767D01*
X897767Y166374D01*
X898862Y164737D01*
X899616Y162917D01*
X899959Y161188D01*
X900000Y160006D01*
Y160000D01*
X900000Y160000D01*
X900000Y160000D01*
X900000Y100000D01*
X900000Y99015D01*
X899616Y97083D01*
X898862Y95263D01*
X897767Y93625D01*
X896375Y92232D01*
X894737Y91138D01*
X892917Y90384D01*
X891248Y90052D01*
X890000Y90000D01*
Y90000D01*
X849015Y90000D01*
X847083Y90384D01*
X845263Y91138D01*
X843625Y92233D01*
X842233Y93625D01*
X841138Y95263D01*
X840384Y97083D01*
X840000Y99015D01*
X840000Y100000D01*
X840000Y160000D01*
Y160985D01*
X840384Y162917D01*
X841138Y164737D01*
X842233Y166375D01*
X843625Y167767D01*
X845263Y168862D01*
X847083Y169616D01*
X849015Y170000D01*
X850000D01*
X850000Y170000D01*
X890985Y170000D01*
D02*
G37*
%LPC*%
G36*
X81750Y1790750D02*
X47750D01*
Y1773750D01*
X81750D01*
Y1790750D01*
D02*
G37*
G36*
Y1691250D02*
X47750D01*
Y1674250D01*
X81750D01*
Y1691250D01*
D02*
G37*
G36*
X200000Y288616D02*
X180000D01*
X176476Y288153D01*
X173192Y286792D01*
X170372Y284628D01*
X168208Y281808D01*
X166847Y278524D01*
X166383Y275000D01*
Y255000D01*
X166847Y251476D01*
X168208Y248192D01*
X170372Y245372D01*
X173192Y243208D01*
X176476Y241847D01*
X180000Y241383D01*
X200000D01*
X203524Y241847D01*
X206808Y243208D01*
X209628Y245372D01*
X211792Y248192D01*
X213153Y251476D01*
X213472Y253905D01*
X232904D01*
X246405Y240404D01*
Y190000D01*
X246783Y187128D01*
X247892Y184453D01*
X249655Y182155D01*
X255255Y176555D01*
X257553Y174792D01*
X260229Y173683D01*
X263100Y173305D01*
X277500D01*
X280372Y173683D01*
X282102Y174400D01*
X290000D01*
Y194400D01*
X282102D01*
X280372Y195117D01*
X277500Y195495D01*
X268595D01*
Y245000D01*
X268217Y247872D01*
X267108Y250548D01*
X265345Y252845D01*
X245345Y272845D01*
X243048Y274608D01*
X240372Y275717D01*
X237500Y276095D01*
X213472D01*
X213153Y278524D01*
X211792Y281808D01*
X209628Y284628D01*
X206808Y286792D01*
X203524Y288153D01*
X200000Y288616D01*
D02*
G37*
G36*
X277500Y166495D02*
X248787D01*
X245915Y166117D01*
X243239Y165008D01*
X240942Y163245D01*
X232155Y154458D01*
X230392Y152161D01*
X229283Y149485D01*
X228905Y146613D01*
Y125787D01*
X229283Y122915D01*
X230392Y120239D01*
X232155Y117942D01*
X240942Y109155D01*
X243239Y107392D01*
X245915Y106283D01*
X248787Y105905D01*
X252500D01*
Y101500D01*
X282500D01*
Y133500D01*
X252500D01*
Y132018D01*
X251230Y131339D01*
X251095Y131429D01*
Y142017D01*
X253382Y144305D01*
X277500D01*
X280372Y144683D01*
X282102Y145400D01*
X290000D01*
Y165400D01*
X282102D01*
X280372Y166117D01*
X277500Y166495D01*
D02*
G37*
G36*
X2044000Y1450799D02*
X2039981Y1450403D01*
X2036117Y1449231D01*
X2032556Y1447328D01*
X2029434Y1444766D01*
X2026872Y1441644D01*
X2024969Y1438083D01*
X2023797Y1434219D01*
X2023401Y1430200D01*
X2023797Y1426181D01*
X2024969Y1422317D01*
X2026872Y1418756D01*
X2029434Y1415634D01*
X2032556Y1413072D01*
X2036117Y1411169D01*
X2039981Y1409997D01*
X2044000Y1409601D01*
X2048019Y1409997D01*
X2051883Y1411169D01*
X2055444Y1413072D01*
X2058566Y1415634D01*
X2061128Y1418756D01*
X2063031Y1422317D01*
X2064203Y1426181D01*
X2064599Y1430200D01*
X2064203Y1434219D01*
X2063031Y1438083D01*
X2061128Y1441644D01*
X2058566Y1444766D01*
X2055444Y1447328D01*
X2051883Y1449231D01*
X2048019Y1450403D01*
X2044000Y1450799D01*
D02*
G37*
G36*
X1167500Y935594D02*
X1163677Y935218D01*
X1160002Y934103D01*
X1156614Y932292D01*
X1153645Y929855D01*
X1151208Y926886D01*
X1149397Y923498D01*
X1148282Y919823D01*
X1147906Y916000D01*
X1148282Y912177D01*
X1149397Y908502D01*
X1151208Y905114D01*
X1153645Y902145D01*
X1156614Y899708D01*
X1160002Y897897D01*
X1163677Y896782D01*
X1167500Y896406D01*
X1171323Y896782D01*
X1174998Y897897D01*
X1178386Y899708D01*
X1181355Y902145D01*
X1183792Y905114D01*
X1185603Y908502D01*
X1186718Y912177D01*
X1187094Y916000D01*
X1186718Y919823D01*
X1185603Y923498D01*
X1183792Y926886D01*
X1181355Y929855D01*
X1178386Y932292D01*
X1174998Y934103D01*
X1171323Y935218D01*
X1167500Y935594D01*
D02*
G37*
G36*
X2650000Y1713111D02*
X2620000D01*
X2615491Y1712667D01*
X2611156Y1711352D01*
X2607160Y1709216D01*
X2603658Y1706342D01*
X2600784Y1702840D01*
X2598648Y1698844D01*
X2597333Y1694509D01*
X2596889Y1690000D01*
Y1660000D01*
X2597333Y1655491D01*
X2598648Y1651156D01*
X2600784Y1647160D01*
X2603658Y1643658D01*
X2607160Y1640784D01*
X2611156Y1638648D01*
X2615491Y1637333D01*
X2620000Y1636889D01*
X2650000D01*
X2654509Y1637333D01*
X2658844Y1638648D01*
X2662840Y1640784D01*
X2666342Y1643658D01*
X2669216Y1647160D01*
X2671352Y1651156D01*
X2672667Y1655491D01*
X2673111Y1660000D01*
Y1690000D01*
X2672667Y1694509D01*
X2671352Y1698844D01*
X2669216Y1702840D01*
X2666342Y1706342D01*
X2662840Y1709216D01*
X2658844Y1711352D01*
X2654509Y1712667D01*
X2650000Y1713111D01*
D02*
G37*
G36*
X2290000D02*
X2260000D01*
X2255491Y1712667D01*
X2251156Y1711352D01*
X2247160Y1709216D01*
X2243658Y1706342D01*
X2240784Y1702840D01*
X2238648Y1698844D01*
X2237333Y1694509D01*
X2236889Y1690000D01*
Y1660000D01*
X2237333Y1655491D01*
X2238648Y1651156D01*
X2240784Y1647160D01*
X2243658Y1643658D01*
X2247160Y1640784D01*
X2251156Y1638648D01*
X2255491Y1637333D01*
X2260000Y1636889D01*
X2290000D01*
X2294509Y1637333D01*
X2298844Y1638648D01*
X2302840Y1640784D01*
X2306342Y1643658D01*
X2309216Y1647160D01*
X2311352Y1651156D01*
X2312667Y1655491D01*
X2313111Y1660000D01*
Y1690000D01*
X2312667Y1694509D01*
X2311352Y1698844D01*
X2309216Y1702840D01*
X2306342Y1706342D01*
X2302840Y1709216D01*
X2298844Y1711352D01*
X2294509Y1712667D01*
X2290000Y1713111D01*
D02*
G37*
G36*
X1930000D02*
X1900000D01*
X1895491Y1712667D01*
X1891156Y1711352D01*
X1887160Y1709216D01*
X1883658Y1706342D01*
X1880784Y1702840D01*
X1878648Y1698844D01*
X1877333Y1694509D01*
X1876889Y1690000D01*
Y1660000D01*
X1877333Y1655491D01*
X1878648Y1651156D01*
X1880784Y1647160D01*
X1883658Y1643658D01*
X1887160Y1640784D01*
X1891156Y1638648D01*
X1895491Y1637333D01*
X1900000Y1636889D01*
X1930000D01*
X1934509Y1637333D01*
X1938844Y1638648D01*
X1942840Y1640784D01*
X1946342Y1643658D01*
X1949216Y1647160D01*
X1951352Y1651156D01*
X1952667Y1655491D01*
X1953111Y1660000D01*
Y1690000D01*
X1952667Y1694509D01*
X1951352Y1698844D01*
X1949216Y1702840D01*
X1946342Y1706342D01*
X1942840Y1709216D01*
X1938844Y1711352D01*
X1934509Y1712667D01*
X1930000Y1713111D01*
D02*
G37*
G36*
X2670000Y1373569D02*
X2668634Y1373297D01*
X2667477Y1372523D01*
X2666703Y1371366D01*
X2666431Y1370000D01*
Y1040000D01*
X2666703Y1038634D01*
X2667477Y1037477D01*
X2668634Y1036703D01*
X2670000Y1036431D01*
X2860000Y1036431D01*
X2861366Y1036703D01*
X2862523Y1037477D01*
X2863297Y1038634D01*
X2863568Y1040000D01*
Y1370000D01*
X2863297Y1371366D01*
X2862523Y1372523D01*
X2861366Y1373297D01*
X2860000Y1373569D01*
X2670000Y1373569D01*
D02*
G37*
G36*
X2839560Y968403D02*
X2699560D01*
X2697471Y968128D01*
X2695525Y967322D01*
X2693854Y966040D01*
X2692571Y964369D01*
X2691765Y962423D01*
X2691490Y960334D01*
Y820334D01*
X2691765Y818246D01*
X2692571Y816300D01*
X2693854Y814629D01*
X2695525Y813346D01*
X2697471Y812540D01*
X2699560Y812265D01*
X2839560D01*
X2841648Y812540D01*
X2843594Y813346D01*
X2845265Y814629D01*
X2846548Y816300D01*
X2847354Y818246D01*
X2847628Y820334D01*
Y960334D01*
X2847354Y962423D01*
X2846548Y964369D01*
X2845265Y966040D01*
X2843594Y967322D01*
X2841648Y968128D01*
X2839560Y968403D01*
D02*
G37*
G36*
X2750000Y563611D02*
X2720000D01*
X2715491Y563167D01*
X2711156Y561852D01*
X2707160Y559716D01*
X2703658Y556842D01*
X2700784Y553340D01*
X2698648Y549344D01*
X2697333Y545009D01*
X2696889Y540500D01*
Y510500D01*
X2697333Y505991D01*
X2698648Y501656D01*
X2700784Y497660D01*
X2703658Y494158D01*
X2707160Y491284D01*
X2711156Y489148D01*
X2715491Y487833D01*
X2720000Y487389D01*
X2750000D01*
X2754509Y487833D01*
X2758844Y489148D01*
X2762840Y491284D01*
X2766342Y494158D01*
X2769216Y497660D01*
X2771352Y501656D01*
X2772667Y505991D01*
X2773111Y510500D01*
Y540500D01*
X2772667Y545009D01*
X2771352Y549344D01*
X2769216Y553340D01*
X2766342Y556842D01*
X2762840Y559716D01*
X2758844Y561852D01*
X2754509Y563167D01*
X2750000Y563611D01*
D02*
G37*
G36*
X2390000D02*
X2360000D01*
X2355491Y563167D01*
X2351156Y561852D01*
X2347160Y559716D01*
X2343658Y556842D01*
X2340784Y553340D01*
X2338648Y549344D01*
X2337333Y545009D01*
X2336889Y540500D01*
Y510500D01*
X2337333Y505991D01*
X2338648Y501656D01*
X2340784Y497660D01*
X2343658Y494158D01*
X2347160Y491284D01*
X2351156Y489148D01*
X2355491Y487833D01*
X2360000Y487389D01*
X2390000D01*
X2394509Y487833D01*
X2398844Y489148D01*
X2402840Y491284D01*
X2406342Y494158D01*
X2409216Y497660D01*
X2411352Y501656D01*
X2412667Y505991D01*
X2413111Y510500D01*
Y540500D01*
X2412667Y545009D01*
X2411352Y549344D01*
X2409216Y553340D01*
X2406342Y556842D01*
X2402840Y559716D01*
X2398844Y561852D01*
X2394509Y563167D01*
X2390000Y563611D01*
D02*
G37*
G36*
X2030000D02*
X2000000D01*
X1995491Y563167D01*
X1991156Y561852D01*
X1987160Y559716D01*
X1983658Y556842D01*
X1980784Y553340D01*
X1978648Y549344D01*
X1977333Y545009D01*
X1976889Y540500D01*
Y510500D01*
X1977333Y505991D01*
X1978648Y501656D01*
X1980784Y497660D01*
X1983658Y494158D01*
X1987160Y491284D01*
X1991156Y489148D01*
X1995491Y487833D01*
X2000000Y487389D01*
X2030000D01*
X2034509Y487833D01*
X2038844Y489148D01*
X2042840Y491284D01*
X2046342Y494158D01*
X2049216Y497660D01*
X2051352Y501656D01*
X2052667Y505991D01*
X2053111Y510500D01*
Y540500D01*
X2052667Y545009D01*
X2051352Y549344D01*
X2049216Y553340D01*
X2046342Y556842D01*
X2042840Y559716D01*
X2038844Y561852D01*
X2034509Y563167D01*
X2030000Y563611D01*
D02*
G37*
%LPD*%
G36*
X2860000Y1370000D02*
Y1040000D01*
X2670000Y1040000D01*
Y1370000D01*
X2860000Y1370000D01*
D02*
G37*
G36*
X2839560Y820334D02*
X2699560D01*
Y960334D01*
X2839560D01*
Y820334D01*
D02*
G37*
D13*
X586015Y1711950D02*
X614050D01*
X586015Y911950D02*
X614050D01*
X507500Y382500D02*
X522500Y397500D01*
X2242500Y1368750D02*
Y1371250D01*
Y1348750D02*
Y1351250D01*
X2267500Y1492500D02*
X2300000Y1460000D01*
X1872500Y1492500D02*
X2267500D01*
X1850000Y1470000D02*
X1872500Y1492500D01*
X1850000Y1470000D02*
X1850000Y762500D01*
X1804500Y717000D02*
X1850000Y762500D01*
X581000Y1279500D02*
Y1306935D01*
Y1279500D02*
X585000Y1275500D01*
X594000D01*
X586015Y1311950D02*
X597500D01*
X594000Y1275500D02*
X597500Y1272000D01*
X581000Y1306935D02*
X586015Y1311950D01*
X597500Y1263500D02*
Y1272000D01*
X522500Y1208500D02*
Y1243500D01*
X510000Y1196000D02*
X522500Y1208500D01*
X515000Y1251000D02*
X522500Y1243500D01*
Y397500D02*
Y443500D01*
X515000Y451000D02*
X522500Y443500D01*
X2452500Y727500D02*
X2477500Y752500D01*
X1860000Y727500D02*
X2452500D01*
X1835000Y702500D02*
X1860000Y727500D01*
X2477500Y752500D02*
Y962500D01*
X240000Y608000D02*
Y616000D01*
X250000Y608000D02*
Y616000D01*
X248000Y606000D02*
X250000Y608000D01*
X240000D02*
X242000Y606000D01*
X2420000Y390000D02*
X2610000Y200000D01*
Y57500D02*
Y200000D01*
X2588000Y35500D02*
X2610000Y57500D01*
X2120000Y770000D02*
Y847500D01*
X2112500Y762500D02*
X2120000Y770000D01*
X1875000Y762500D02*
X2112500D01*
X2120000Y847500D02*
X2124000Y851500D01*
X2350000Y1410000D02*
X2372500D01*
X2310000Y1370000D02*
X2350000Y1410000D01*
X2292500Y1370000D02*
X2310000D01*
X2300000Y1460000D02*
X2370000D01*
X2474500Y35500D02*
X2588000D01*
X2462500Y47500D02*
X2474500Y35500D01*
X2505000Y77500D02*
X2515000D01*
X2500000Y59750D02*
Y72500D01*
X2505000Y77500D01*
X2580000D02*
X2590000D01*
X2575000Y59750D02*
Y72500D01*
X2580000Y77500D01*
X2370000Y1460000D02*
X2385000Y1445000D01*
Y1422500D02*
Y1445000D01*
X2462500Y47500D02*
Y230000D01*
X2382500Y242500D02*
X2450000D01*
X2375000Y235000D02*
X2382500Y242500D01*
X2372500Y235000D02*
X2375000D01*
X2372500Y235000D02*
X2372500Y235000D01*
X2372500Y212500D02*
Y235000D01*
X2450000Y242500D02*
X2462500Y230000D01*
X2402575Y374925D02*
X2565000Y212500D01*
Y59750D02*
Y212500D01*
X2392500Y362500D02*
X2490000Y265000D01*
Y59750D02*
Y265000D01*
X1843358Y390000D02*
X2420000D01*
X1835000Y398358D02*
X1843358Y390000D01*
X1820075Y379925D02*
Y707575D01*
Y379925D02*
X1825075Y374925D01*
X2402575D01*
X1812500Y362500D02*
X2392500D01*
X1804500Y370500D02*
X1812500Y362500D01*
X1804500Y370500D02*
Y717000D01*
X1835000Y398358D02*
Y702500D01*
X1820075Y707575D02*
X1875000Y762500D01*
X2372500Y1410000D02*
X2385000Y1422500D01*
X2495000Y1022500D02*
X2655242D01*
X2477500Y1005000D02*
X2495000Y1022500D01*
X2477500Y962500D02*
Y1005000D01*
X2477500Y962500D02*
X2477500Y962500D01*
X2655242Y1022500D02*
X2661100Y1016642D01*
Y999200D02*
Y1016642D01*
Y999200D02*
X2661900Y998400D01*
X2572960Y886246D02*
Y913996D01*
X2524827Y849629D02*
X2525210Y849246D01*
X2524827Y849629D02*
Y859746D01*
X2522827Y861746D02*
X2524827Y859746D01*
X2520210Y861746D02*
X2522827D01*
X2515210Y849246D02*
X2515592Y849629D01*
Y859746D01*
X2517592Y861746D01*
X2520210D01*
Y891746D02*
X2530210D01*
X2535710Y886246D01*
X2547210D01*
X2520210Y873232D02*
X2523725Y876746D01*
X2520210Y861746D02*
Y873232D01*
X2523725Y876746D02*
X2547210D01*
X2530210Y919246D02*
X2530592Y918864D01*
X2540710D01*
X2542710Y916864D01*
Y914246D02*
Y916864D01*
X2530210Y909246D02*
X2530592Y909629D01*
X2540710D01*
X2542710Y911629D01*
Y914246D01*
X2572710D02*
X2572960Y913996D01*
Y886246D02*
X2573210D01*
X2194617Y875383D02*
X2195000Y875000D01*
X2194617Y864617D02*
X2195000Y865000D01*
X2194617Y855383D02*
X2195000Y855000D01*
X2190000Y845000D02*
X2195000D01*
X2144617Y822883D02*
X2145000Y822500D01*
X2135000D02*
X2135383Y822883D01*
X2188250Y846750D02*
X2190000Y845000D01*
X2187000Y846750D02*
X2188250D01*
X2185000Y848750D02*
Y850000D01*
Y848750D02*
X2187000Y846750D01*
X2185000Y857500D02*
X2187117Y855383D01*
X2194617D01*
X2185000Y862500D02*
X2187117Y864617D01*
X2194617D01*
X2185000Y877500D02*
X2187117Y875383D01*
X2194617D01*
X2242500Y1348750D02*
X2242500Y1348750D01*
X2240500Y1346750D02*
X2242500Y1348750D01*
Y1368750D02*
X2242500Y1368750D01*
X2240500Y1366750D02*
X2242500Y1368750D01*
Y1351250D02*
X2242500Y1351250D01*
X2240500Y1353250D02*
X2242500Y1351250D01*
X2152500Y1411500D02*
Y1432500D01*
X2144000Y1420000D02*
Y1430459D01*
X2142500Y1431959D02*
X2144000Y1430459D01*
X2142500Y1431959D02*
Y1432500D01*
X2161000Y1420000D02*
Y1430459D01*
X2162500Y1431959D01*
Y1432500D01*
X2297117Y1399617D02*
X2297500Y1400000D01*
X2297117Y1392000D02*
Y1399617D01*
X2295117Y1390000D02*
X2297117Y1392000D01*
X2292500Y1390000D02*
X2295117D01*
X2287500Y1400000D02*
X2287883Y1399617D01*
Y1392000D02*
Y1399617D01*
Y1392000D02*
X2289883Y1390000D01*
X2292500D01*
X2230000Y1345000D02*
X2230383Y1345383D01*
X2237883D01*
X2239250Y1346750D01*
X2240500D01*
X2230000Y1355000D02*
X2230383Y1354617D01*
X2237883D01*
X2239250Y1353250D01*
X2240500D01*
X2230000Y1365000D02*
X2230383Y1365383D01*
X2237883D01*
X2239250Y1366750D01*
X2240500D01*
X2230000Y1375000D02*
X2230383Y1374617D01*
X2237883D01*
X2239250Y1373250D01*
X2240500D01*
X2242500Y1371250D01*
X2277117Y924617D02*
X2277500Y925000D01*
X2267117Y924617D02*
X2277117D01*
X2265750Y923250D02*
X2267117Y924617D01*
X2264500Y923250D02*
X2265750D01*
X2262500Y921250D02*
X2264500Y923250D01*
X2262500Y920000D02*
Y921250D01*
X2277117Y915383D02*
X2277500Y915000D01*
X2267117Y915383D02*
X2277117D01*
X2265750Y916750D02*
X2267117Y915383D01*
X2264500Y916750D02*
X2265750D01*
X2262500Y918750D02*
X2264500Y916750D01*
X2262500Y918750D02*
Y920000D01*
Y797500D02*
Y798041D01*
X2264000Y799541D01*
Y810000D01*
X2272500Y818500D01*
X2282500Y797500D02*
Y798041D01*
X2281000Y799541D02*
X2282500Y798041D01*
X2281000Y799541D02*
Y810000D01*
X2272500Y818500D02*
X2281000Y810000D01*
X2272500Y797500D02*
Y818500D01*
X2124000Y851500D02*
X2139000D01*
X2140000Y852500D01*
X2144617Y822883D02*
Y833000D01*
X2142617Y835000D02*
X2144617Y833000D01*
X2140000Y835000D02*
X2142617D01*
X2135383Y822883D02*
Y833000D01*
X2137383Y835000D01*
X2140000D01*
X808750Y1256000D02*
X837500D01*
X807500D02*
X808750D01*
X837500D02*
X842500Y1261000D01*
X705500Y1374500D02*
X707500Y1376500D01*
X806250Y1256000D02*
X807500D01*
X808750D02*
X810750Y1254000D01*
X804250D02*
X806250Y1256000D01*
X485750Y499250D02*
X502500D01*
X481985Y495485D02*
X485750Y499250D01*
X481985Y469515D02*
Y495485D01*
X502500Y854515D02*
Y866000D01*
Y854515D02*
X506015Y851000D01*
X452500Y767500D02*
X481000Y796000D01*
X452500Y1162500D02*
X486000Y1196000D01*
X460000Y1572500D02*
X483500Y1596000D01*
X510000D01*
X522500Y1608500D01*
X705500Y1774500D02*
X707500Y1776500D01*
X717500Y482015D02*
Y488500D01*
X707500Y498500D02*
X717500Y488500D01*
X682500Y498500D02*
X707500D01*
X705500Y574500D02*
X707500Y576500D01*
X705500Y974500D02*
X707500Y976500D01*
X632500Y483500D02*
X632500Y483500D01*
X632000Y548500D02*
X640000D01*
X630000Y546500D02*
X632000Y548500D01*
X630000Y543500D02*
X630000Y543500D01*
Y546500D01*
X632000Y538500D02*
X640000D01*
X630000Y540500D02*
Y543500D01*
Y540500D02*
X632000Y538500D01*
X662000Y548500D02*
X672500D01*
X660000Y546500D02*
X662000Y548500D01*
X660000Y540500D02*
X662000Y538500D01*
X660000Y540500D02*
Y543500D01*
X662000Y538500D02*
X672500D01*
X660000Y543500D02*
Y546500D01*
X632000Y581000D02*
X642500D01*
X630000Y579000D02*
X632000Y581000D01*
Y571000D02*
X642500D01*
X630000Y576000D02*
Y579000D01*
Y573000D02*
Y576000D01*
Y573000D02*
X632000Y571000D01*
X662000Y581000D02*
X672500D01*
X660000Y579000D02*
X662000Y581000D01*
X660000Y576000D02*
Y579000D01*
X662000Y571000D02*
X672500D01*
X660000Y573000D02*
X662000Y571000D01*
X660000Y573000D02*
Y576000D01*
X485500Y466000D02*
X502500D01*
X481985Y469515D02*
X485500Y466000D01*
X629450Y575450D02*
X630000Y576000D01*
X597500Y575450D02*
X629450D01*
X620000Y543500D02*
X630000D01*
X613850Y537350D02*
X620000Y543500D01*
X597500Y537350D02*
X613850D01*
X597500Y511950D02*
X614050D01*
X622500Y503500D02*
X632500D01*
X614050Y511950D02*
X622500Y503500D01*
X586015Y511950D02*
X597500D01*
X581000Y506935D02*
X586015Y511950D01*
X581000Y479500D02*
X585000Y475500D01*
X581000Y479500D02*
Y506935D01*
X597500Y463500D02*
Y472000D01*
X594000Y475500D02*
X597500Y472000D01*
X585000Y475500D02*
X594000D01*
X615000Y487015D02*
Y495735D01*
X611485Y499250D02*
X615000Y495735D01*
X597500Y499250D02*
X611485D01*
X615000Y487015D02*
X618515Y483500D01*
X632500D01*
X506015Y451000D02*
X515000D01*
X502500Y454515D02*
X506015Y451000D01*
X502500Y454515D02*
Y466000D01*
X707500Y514003D02*
Y521000D01*
X703850Y524650D02*
X707500Y521000D01*
X705997Y512500D02*
X707500Y514003D01*
X597500Y524650D02*
X703850D01*
X707500Y576500D02*
Y591000D01*
X702500Y596000D02*
X707500Y591000D01*
X704992Y574500D02*
X705500D01*
X585000Y596000D02*
X702500D01*
X580000Y591000D02*
X585000Y596000D01*
X704992Y574500D02*
X705000Y574508D01*
X580000Y568765D02*
X586015Y562750D01*
X580000Y568765D02*
Y591000D01*
X586015Y562750D02*
X597500D01*
X734000Y559500D02*
X750000Y543500D01*
X621000Y559500D02*
X734000D01*
X750000Y512500D02*
Y543500D01*
X611550Y550050D02*
X621000Y559500D01*
X597500Y550050D02*
X611550D01*
X734502Y483500D02*
X735000Y483997D01*
X734502Y478500D02*
X735000Y478997D01*
X721015Y478500D02*
X734502D01*
X717500Y482015D02*
X721015Y478500D01*
X660000Y503500D02*
X677500D01*
X660000Y503500D02*
X660000Y503500D01*
X677500D02*
X682500Y498500D01*
X708450Y466600D02*
X710000Y465050D01*
X697500Y468500D02*
X705000D01*
X706900Y466600D01*
X710000Y463500D02*
Y465050D01*
X706900Y466600D02*
X708450D01*
Y460400D02*
X710000Y461950D01*
Y463500D01*
X706900Y460400D02*
X708450D01*
X705000Y458500D02*
X706900Y460400D01*
X697500Y458500D02*
X705000D01*
X708450Y441600D02*
X710000Y440050D01*
X697500Y443500D02*
X705000D01*
X706900Y441600D02*
X708450D01*
X705000Y443500D02*
X706900Y441600D01*
X710000Y436950D02*
Y438500D01*
Y440050D01*
X708450Y435400D02*
X710000Y436950D01*
X706900Y435400D02*
X708450D01*
X705000Y433500D02*
X706900Y435400D01*
X697500Y433500D02*
X705000D01*
X323000Y449250D02*
X325000Y447250D01*
Y446000D02*
Y447250D01*
X321750Y449250D02*
X323000D01*
X325000Y444750D02*
Y446000D01*
X323000Y442750D02*
X325000Y444750D01*
X320000Y451000D02*
X321750Y449250D01*
X312500Y451000D02*
X320000D01*
X321750Y442750D02*
X323000D01*
X320000Y441000D02*
X321750Y442750D01*
X312500Y441000D02*
X320000D01*
X325000Y466000D02*
Y467250D01*
X321633Y470617D02*
X325000Y467250D01*
Y464750D02*
Y466000D01*
X323000Y462750D02*
X325000Y464750D01*
X312883Y470617D02*
X321633D01*
X312500Y471000D02*
X312883Y470617D01*
X321750Y462750D02*
X323000D01*
X312883Y461383D02*
X320383D01*
X321750Y462750D01*
X312500Y461000D02*
X312883Y461383D01*
X245000Y606000D02*
X248000D01*
X242000D02*
X245000D01*
X632500Y883500D02*
X632500Y883500D01*
X632000Y948500D02*
X640000D01*
X630000Y946500D02*
X632000Y948500D01*
X630000Y943500D02*
X630000Y943500D01*
Y946500D01*
X632000Y938500D02*
X640000D01*
X630000Y940500D02*
Y943500D01*
Y940500D02*
X632000Y938500D01*
X662000Y948500D02*
X672500D01*
X660000Y946500D02*
X662000Y948500D01*
X660000Y940500D02*
X662000Y938500D01*
X660000Y940500D02*
Y943500D01*
X662000Y938500D02*
X672500D01*
X660000Y943500D02*
Y946500D01*
X632000Y981000D02*
X642500D01*
X630000Y979000D02*
X632000Y981000D01*
Y971000D02*
X642500D01*
X630000Y976000D02*
Y979000D01*
Y973000D02*
Y976000D01*
Y973000D02*
X632000Y971000D01*
X662000Y981000D02*
X672500D01*
X660000Y979000D02*
X662000Y981000D01*
X660000Y976000D02*
Y979000D01*
X662000Y971000D02*
X672500D01*
X660000Y973000D02*
X662000Y971000D01*
X660000Y973000D02*
Y976000D01*
X485750Y899250D02*
X502500D01*
X481985Y895485D02*
X485750Y899250D01*
X481985Y869515D02*
Y895485D01*
X485500Y866000D02*
X502500D01*
X481985Y869515D02*
X485500Y866000D01*
X629450Y975450D02*
X630000Y976000D01*
X597500Y975450D02*
X629450D01*
X620000Y943500D02*
X630000D01*
X613850Y937350D02*
X620000Y943500D01*
X597500Y937350D02*
X613850D01*
X622500Y903500D02*
X632500D01*
X614050Y911950D02*
X622500Y903500D01*
X581000Y906935D02*
X586015Y911950D01*
X581000Y879500D02*
X585000Y875500D01*
X581000Y879500D02*
Y906935D01*
X597500Y863500D02*
Y872000D01*
X594000Y875500D02*
X597500Y872000D01*
X585000Y875500D02*
X594000D01*
X615000Y887015D02*
Y895735D01*
X611485Y899250D02*
X615000Y895735D01*
X597500Y899250D02*
X611485D01*
X615000Y887015D02*
X618515Y883500D01*
X632500D01*
X515000Y851000D02*
X522500Y843500D01*
Y808500D02*
Y843500D01*
X506015Y851000D02*
X515000D01*
X510000Y796000D02*
X522500Y808500D01*
X481000Y796000D02*
X510000D01*
X707500Y914003D02*
Y921000D01*
X703850Y924650D02*
X707500Y921000D01*
X705997Y912500D02*
X707500Y914003D01*
X597500Y924650D02*
X703850D01*
X707500Y976500D02*
Y991000D01*
X702500Y996000D02*
X707500Y991000D01*
X704992Y974500D02*
X705500D01*
X585000Y996000D02*
X702500D01*
X580000Y991000D02*
X585000Y996000D01*
X704992Y974500D02*
X705000Y974508D01*
X580000Y968765D02*
X586015Y962750D01*
X580000Y968765D02*
Y991000D01*
X586015Y962750D02*
X597500D01*
X734000Y959500D02*
X750000Y943500D01*
X621000Y959500D02*
X734000D01*
X750000Y912500D02*
Y943500D01*
X611550Y950050D02*
X621000Y959500D01*
X597500Y950050D02*
X611550D01*
X734502Y883500D02*
X735000Y883997D01*
X734502Y878500D02*
X735000Y878997D01*
X717500Y882015D02*
Y892485D01*
X721015Y878500D02*
X734502D01*
X717500Y882015D02*
X721015Y878500D01*
X660000Y903500D02*
X677500D01*
X660000Y903500D02*
X660000Y903500D01*
X682500Y898500D02*
X711485D01*
X717500Y892485D01*
X677500Y903500D02*
X682500Y898500D01*
X708450Y866600D02*
X710000Y865050D01*
X697500Y868500D02*
X705000D01*
X706900Y866600D01*
X710000Y863500D02*
Y865050D01*
X706900Y866600D02*
X708450D01*
Y860400D02*
X710000Y861950D01*
Y863500D01*
X706900Y860400D02*
X708450D01*
X705000Y858500D02*
X706900Y860400D01*
X697500Y858500D02*
X705000D01*
X708450Y841600D02*
X710000Y840050D01*
X697500Y843500D02*
X705000D01*
X706900Y841600D02*
X708450D01*
X705000Y843500D02*
X706900Y841600D01*
X710000Y836950D02*
Y838500D01*
Y840050D01*
X708450Y835400D02*
X710000Y836950D01*
X706900Y835400D02*
X708450D01*
X705000Y833500D02*
X706900Y835400D01*
X697500Y833500D02*
X705000D01*
X323000Y849250D02*
X325000Y847250D01*
Y846000D02*
Y847250D01*
X321750Y849250D02*
X323000D01*
X325000Y844750D02*
Y846000D01*
X323000Y842750D02*
X325000Y844750D01*
X320000Y851000D02*
X321750Y849250D01*
X312500Y851000D02*
X320000D01*
X321750Y842750D02*
X323000D01*
X320000Y841000D02*
X321750Y842750D01*
X312500Y841000D02*
X320000D01*
X325000Y866000D02*
Y867250D01*
X321633Y870617D02*
X325000Y867250D01*
Y864750D02*
Y866000D01*
X323000Y862750D02*
X325000Y864750D01*
X312883Y870617D02*
X321633D01*
X312500Y871000D02*
X312883Y870617D01*
X321750Y862750D02*
X323000D01*
X312883Y861383D02*
X320383D01*
X321750Y862750D01*
X312500Y861000D02*
X312883Y861383D01*
X250000Y1008000D02*
Y1016000D01*
X248000Y1006000D02*
X250000Y1008000D01*
X245000Y1006000D02*
X248000D01*
X240000Y1008000D02*
Y1016000D01*
X242000Y1006000D02*
X245000D01*
X240000Y1008000D02*
X242000Y1006000D01*
X632500Y1683500D02*
X632500Y1683500D01*
X632000Y1748500D02*
X640000D01*
X630000Y1746500D02*
X632000Y1748500D01*
X630000Y1743500D02*
X630000Y1743500D01*
Y1746500D01*
X632000Y1738500D02*
X640000D01*
X630000Y1740500D02*
Y1743500D01*
Y1740500D02*
X632000Y1738500D01*
X662000Y1748500D02*
X672500D01*
X660000Y1746500D02*
X662000Y1748500D01*
X660000Y1740500D02*
X662000Y1738500D01*
X660000Y1740500D02*
Y1743500D01*
X662000Y1738500D02*
X672500D01*
X660000Y1743500D02*
Y1746500D01*
X632000Y1781000D02*
X642500D01*
X630000Y1779000D02*
X632000Y1781000D01*
Y1771000D02*
X642500D01*
X630000Y1776000D02*
Y1779000D01*
Y1773000D02*
Y1776000D01*
Y1773000D02*
X632000Y1771000D01*
X662000Y1781000D02*
X672500D01*
X660000Y1779000D02*
X662000Y1781000D01*
X660000Y1776000D02*
Y1779000D01*
X662000Y1771000D02*
X672500D01*
X660000Y1773000D02*
X662000Y1771000D01*
X660000Y1773000D02*
Y1776000D01*
X485750Y1699250D02*
X502500D01*
X481985Y1695485D02*
X485750Y1699250D01*
X481985Y1669515D02*
Y1695485D01*
X485500Y1666000D02*
X502500D01*
X481985Y1669515D02*
X485500Y1666000D01*
X629450Y1775450D02*
X630000Y1776000D01*
X597500Y1775450D02*
X629450D01*
X620000Y1743500D02*
X630000D01*
X613850Y1737350D02*
X620000Y1743500D01*
X597500Y1737350D02*
X613850D01*
X622500Y1703500D02*
X632500D01*
X614050Y1711950D02*
X622500Y1703500D01*
X581000Y1706935D02*
X586015Y1711950D01*
X581000Y1679500D02*
X585000Y1675500D01*
X581000Y1679500D02*
Y1706935D01*
X597500Y1663500D02*
Y1672000D01*
X594000Y1675500D02*
X597500Y1672000D01*
X585000Y1675500D02*
X594000D01*
X615000Y1687015D02*
Y1695735D01*
X611485Y1699250D02*
X615000Y1695735D01*
X597500Y1699250D02*
X611485D01*
X615000Y1687015D02*
X618515Y1683500D01*
X632500D01*
X515000Y1651000D02*
X522500Y1643500D01*
Y1608500D02*
Y1643500D01*
X506015Y1651000D02*
X515000D01*
X502500Y1654515D02*
X506015Y1651000D01*
X502500Y1654515D02*
Y1666000D01*
X707500Y1714003D02*
Y1721000D01*
X703850Y1724650D02*
X707500Y1721000D01*
X705997Y1712500D02*
X707500Y1714003D01*
X597500Y1724650D02*
X703850D01*
X707500Y1776500D02*
Y1791000D01*
X702500Y1796000D02*
X707500Y1791000D01*
X704992Y1774500D02*
X705500D01*
X585000Y1796000D02*
X702500D01*
X580000Y1791000D02*
X585000Y1796000D01*
X704992Y1774500D02*
X705000Y1774508D01*
X580000Y1768765D02*
X586015Y1762750D01*
X580000Y1768765D02*
Y1791000D01*
X586015Y1762750D02*
X597500D01*
X734000Y1759500D02*
X750000Y1743500D01*
X621000Y1759500D02*
X734000D01*
X750000Y1712500D02*
Y1743500D01*
X611550Y1750050D02*
X621000Y1759500D01*
X597500Y1750050D02*
X611550D01*
X734502Y1683500D02*
X735000Y1683997D01*
X734502Y1678500D02*
X735000Y1678997D01*
X717500Y1682015D02*
Y1692485D01*
X721015Y1678500D02*
X734502D01*
X717500Y1682015D02*
X721015Y1678500D01*
X660000Y1703500D02*
X677500D01*
X660000Y1703500D02*
X660000Y1703500D01*
X682500Y1698500D02*
X711485D01*
X717500Y1692485D01*
X677500Y1703500D02*
X682500Y1698500D01*
X708450Y1666600D02*
X710000Y1665050D01*
X697500Y1668500D02*
X705000D01*
X706900Y1666600D01*
X710000Y1663500D02*
Y1665050D01*
X706900Y1666600D02*
X708450D01*
Y1660400D02*
X710000Y1661950D01*
Y1663500D01*
X706900Y1660400D02*
X708450D01*
X705000Y1658500D02*
X706900Y1660400D01*
X697500Y1658500D02*
X705000D01*
X708450Y1641600D02*
X710000Y1640050D01*
X697500Y1643500D02*
X705000D01*
X706900Y1641600D02*
X708450D01*
X705000Y1643500D02*
X706900Y1641600D01*
X710000Y1636950D02*
Y1638500D01*
Y1640050D01*
X708450Y1635400D02*
X710000Y1636950D01*
X706900Y1635400D02*
X708450D01*
X705000Y1633500D02*
X706900Y1635400D01*
X697500Y1633500D02*
X705000D01*
X323000Y1649250D02*
X325000Y1647250D01*
Y1646000D02*
Y1647250D01*
X321750Y1649250D02*
X323000D01*
X325000Y1644750D02*
Y1646000D01*
X323000Y1642750D02*
X325000Y1644750D01*
X320000Y1651000D02*
X321750Y1649250D01*
X312500Y1651000D02*
X320000D01*
X321750Y1642750D02*
X323000D01*
X320000Y1641000D02*
X321750Y1642750D01*
X312500Y1641000D02*
X320000D01*
X325000Y1666000D02*
Y1667250D01*
X321633Y1670617D02*
X325000Y1667250D01*
Y1664750D02*
Y1666000D01*
X323000Y1662750D02*
X325000Y1664750D01*
X312883Y1670617D02*
X321633D01*
X312500Y1671000D02*
X312883Y1670617D01*
X321750Y1662750D02*
X323000D01*
X312883Y1661383D02*
X320383D01*
X321750Y1662750D01*
X312500Y1661000D02*
X312883Y1661383D01*
X250000Y1808000D02*
Y1816000D01*
X248000Y1806000D02*
X250000Y1808000D01*
X245000Y1806000D02*
X248000D01*
X240000Y1808000D02*
Y1816000D01*
X242000Y1806000D02*
X245000D01*
X240000Y1808000D02*
X242000Y1806000D01*
X585000Y1396000D02*
X702500D01*
X580000Y1391000D02*
X585000Y1396000D01*
X580000Y1368765D02*
Y1391000D01*
Y1368765D02*
X586015Y1362750D01*
X813750Y861000D02*
X815750Y859000D01*
Y857750D02*
Y859000D01*
Y857750D02*
X819617Y853883D01*
Y848883D02*
Y853883D01*
Y848883D02*
X820000Y848500D01*
X812500Y861000D02*
X813750D01*
X811250D02*
X812500D01*
X809250Y859000D02*
X811250Y861000D01*
X809250Y857750D02*
Y859000D01*
X805383Y853883D02*
X809250Y857750D01*
X805383Y848883D02*
Y853883D01*
X805000Y848500D02*
X805383Y848883D01*
X810750Y1252750D02*
Y1254000D01*
Y1252750D02*
X814617Y1248883D01*
Y1243883D02*
Y1248883D01*
Y1243883D02*
X815000Y1243500D01*
X804250Y1252750D02*
Y1254000D01*
X800383Y1248883D02*
X804250Y1252750D01*
X800383Y1243883D02*
Y1248883D01*
X800000Y1243500D02*
X800383Y1243883D01*
X805000Y1643500D02*
X805383Y1643883D01*
Y1648883D01*
X809250Y1652750D01*
Y1654000D01*
X811250Y1656000D01*
X812500D01*
X813750D01*
X819617Y1643883D02*
X820000Y1643500D01*
X819617Y1643883D02*
Y1648883D01*
X815750Y1652750D02*
X819617Y1648883D01*
X815750Y1652750D02*
Y1654000D01*
X813750Y1656000D02*
X815750Y1654000D01*
X632500Y1283500D02*
X632500Y1283500D01*
X662000Y1348500D02*
X672500D01*
X660000Y1346500D02*
X662000Y1348500D01*
X660000Y1343500D02*
Y1346500D01*
X662000Y1338500D02*
X672500D01*
X660000Y1340500D02*
Y1343500D01*
Y1340500D02*
X662000Y1338500D01*
X632000Y1348500D02*
X640000D01*
X630000Y1346500D02*
X632000Y1348500D01*
X630000Y1343500D02*
X630000Y1343500D01*
Y1346500D01*
X632000Y1338500D02*
X640000D01*
X630000Y1340500D02*
Y1343500D01*
Y1340500D02*
X632000Y1338500D01*
X662000Y1371000D02*
X672500D01*
X662000Y1381000D02*
X672500D01*
X660000Y1379000D02*
X662000Y1381000D01*
X660000Y1376000D02*
Y1379000D01*
Y1373000D02*
Y1376000D01*
Y1373000D02*
X662000Y1371000D01*
X632000Y1381000D02*
X642500D01*
X630000Y1379000D02*
X632000Y1381000D01*
Y1371000D02*
X642500D01*
X630000Y1376000D02*
Y1379000D01*
Y1373000D02*
Y1376000D01*
Y1373000D02*
X632000Y1371000D01*
X615000Y1287015D02*
Y1295735D01*
X611485Y1299250D02*
X615000Y1295735D01*
X597500Y1299250D02*
X611485D01*
X615000Y1287015D02*
X618515Y1283500D01*
X632500D01*
X622500Y1303500D02*
X632500D01*
X597500Y1311950D02*
X614050D01*
X622500Y1303500D01*
X620000Y1343500D02*
X630000D01*
X613850Y1337350D02*
X620000Y1343500D01*
X597500Y1337350D02*
X613850D01*
X629450Y1375450D02*
X630000Y1376000D01*
X597500Y1375450D02*
X629450D01*
X485750Y1299250D02*
X502500D01*
X481985Y1295485D02*
X485750Y1299250D01*
X481985Y1269515D02*
Y1295485D01*
X485500Y1266000D02*
X502500D01*
X481985Y1269515D02*
X485500Y1266000D01*
X506015Y1251000D02*
X515000D01*
X502500Y1254515D02*
Y1266000D01*
X486000Y1196000D02*
X510000D01*
X502500Y1254515D02*
X506015Y1251000D01*
X707500Y1376500D02*
Y1391000D01*
X702500Y1396000D02*
X707500Y1391000D01*
X704992Y1374500D02*
X705500D01*
X704992D02*
X705000Y1374508D01*
X586015Y1362750D02*
X597500D01*
X707500Y1314003D02*
Y1321000D01*
X703850Y1324650D02*
X707500Y1321000D01*
X705997Y1312500D02*
X707500Y1314003D01*
X597500Y1324650D02*
X703850D01*
X734000Y1359500D02*
X750000Y1343500D01*
X621000Y1359500D02*
X734000D01*
X750000Y1312500D02*
Y1343500D01*
X611550Y1350050D02*
X621000Y1359500D01*
X597500Y1350050D02*
X611550D01*
X734502Y1283500D02*
X735000Y1283997D01*
X734502Y1278500D02*
X735000Y1278997D01*
X717500Y1282015D02*
Y1292485D01*
X721015Y1278500D02*
X734502D01*
X717500Y1282015D02*
X721015Y1278500D01*
X660000Y1303500D02*
X677500D01*
X660000Y1303500D02*
X660000Y1303500D01*
X682500Y1298500D02*
X711485D01*
X717500Y1292485D01*
X677500Y1303500D02*
X682500Y1298500D01*
X708450Y1266600D02*
X710000Y1265050D01*
X706900Y1266600D02*
X708450D01*
X710000Y1261950D02*
Y1263500D01*
Y1265050D01*
X697500Y1268500D02*
X705000D01*
X706900Y1266600D01*
X708450Y1260400D02*
X710000Y1261950D01*
X706900Y1260400D02*
X708450D01*
X705000Y1258500D02*
X706900Y1260400D01*
X697500Y1258500D02*
X705000D01*
X710000Y1236950D02*
Y1238500D01*
X708450Y1235400D02*
X710000Y1236950D01*
X705000Y1243500D02*
X706900Y1241600D01*
X697500Y1243500D02*
X705000D01*
X708450Y1241600D02*
X710000Y1240050D01*
X706900Y1241600D02*
X708450D01*
X710000Y1238500D02*
Y1240050D01*
X706900Y1235400D02*
X708450D01*
X705000Y1233500D02*
X706900Y1235400D01*
X697500Y1233500D02*
X705000D01*
X323000Y1249250D02*
X325000Y1247250D01*
Y1246000D02*
Y1247250D01*
X321750Y1249250D02*
X323000D01*
X325000Y1244750D02*
Y1246000D01*
X323000Y1242750D02*
X325000Y1244750D01*
X321750Y1242750D02*
X323000D01*
X320000Y1251000D02*
X321750Y1249250D01*
X320000Y1241000D02*
X321750Y1242750D01*
X312500Y1241000D02*
X320000D01*
X312500Y1251000D02*
X320000D01*
X325000Y1266000D02*
Y1267250D01*
Y1264750D02*
Y1266000D01*
X321633Y1270617D02*
X325000Y1267250D01*
X323000Y1262750D02*
X325000Y1264750D01*
X321750Y1262750D02*
X323000D01*
X320383Y1261383D02*
X321750Y1262750D01*
X312883Y1270617D02*
X321633D01*
X312883Y1261383D02*
X320383D01*
X312500Y1261000D02*
X312883Y1261383D01*
X312500Y1271000D02*
X312883Y1270617D01*
X250000Y1408000D02*
Y1416000D01*
X248000Y1406000D02*
X250000Y1408000D01*
X245000Y1406000D02*
X248000D01*
X240000Y1408000D02*
Y1416000D01*
X242000Y1406000D02*
X245000D01*
X240000Y1408000D02*
X242000Y1406000D01*
D15*
X2249500Y1405000D02*
D03*
Y1411000D02*
D03*
Y1399000D02*
D03*
X2255500D02*
D03*
Y1411000D02*
D03*
Y1405000D02*
D03*
X2178500Y816500D02*
D03*
Y810500D02*
D03*
Y822500D02*
D03*
X2172500D02*
D03*
Y810500D02*
D03*
Y816500D02*
D03*
D66*
X1536000Y1430200D02*
D03*
Y1379400D02*
D03*
Y1328600D02*
D03*
Y1277800D02*
D03*
Y1227000D02*
D03*
Y1176200D02*
D03*
Y1125400D02*
D03*
Y1074600D02*
D03*
Y1023800D02*
D03*
Y973000D02*
D03*
Y922200D02*
D03*
Y871400D02*
D03*
X2044000Y820600D02*
D03*
Y871400D02*
D03*
Y922200D02*
D03*
Y973000D02*
D03*
Y1023800D02*
D03*
Y1074600D02*
D03*
Y1125400D02*
D03*
Y1176200D02*
D03*
Y1227000D02*
D03*
Y1277800D02*
D03*
Y1328600D02*
D03*
Y1379400D02*
D03*
X1536000Y820600D02*
D03*
X2044000Y1430200D02*
D03*
X2500000Y1065000D02*
D03*
Y1115000D02*
D03*
X2300000D02*
D03*
Y1065000D02*
D03*
X937500Y464000D02*
D03*
Y518500D02*
D03*
Y573000D02*
D03*
Y1261500D02*
D03*
Y1316000D02*
D03*
Y1370500D02*
D03*
X1010500Y142500D02*
D03*
X1110500Y267500D02*
D03*
X1072500D02*
D03*
X972500Y142500D02*
D03*
X937500Y861500D02*
D03*
Y916000D02*
D03*
Y970500D02*
D03*
Y1659000D02*
D03*
Y1713500D02*
D03*
Y1768000D02*
D03*
D69*
X2452500Y1455000D02*
G03*
X2450500Y1453000I0J-2000D01*
G01*
X2050400Y192100D02*
G03*
X2025000Y217500I-25400J0D01*
G01*
X2497500Y727004D02*
Y887500D01*
X345000Y971000D02*
X375000D01*
X2242500Y1312500D02*
Y1348750D01*
X2133750Y1315000D02*
X2136250D01*
X502500Y1621000D02*
Y1636000D01*
Y821000D02*
Y836000D01*
Y421000D02*
Y436000D01*
X455000Y1806000D02*
X465000Y1796000D01*
X450000Y1806000D02*
X455000D01*
X470000Y1786000D02*
X477500D01*
X397500Y1353500D02*
X407500D01*
X397497Y1333497D02*
X407500D01*
X397497Y1313497D02*
X407500D01*
X395000Y1291000D02*
X407500D01*
X395000Y1351000D02*
X397500Y1353500D01*
X397250Y1333250D02*
X397497Y1333497D01*
X395000Y1332250D02*
X396000Y1333250D01*
X395000Y1291000D02*
Y1311000D01*
X397497Y1313497D01*
X396000Y1333250D02*
X397250D01*
X397500Y1368500D02*
X407500D01*
X395000Y1351000D02*
Y1371000D01*
X397500Y1368500D01*
X470000Y1386000D02*
X477500D01*
X485000D01*
X495000Y1220000D02*
X501500D01*
X502500Y1221000D01*
X503500Y1220000D02*
X505000D01*
X502500Y1221000D02*
X503500Y1220000D01*
X502500Y421000D02*
X510000D01*
X432500Y767500D02*
X435000Y770000D01*
X2130000Y1302500D02*
Y1310000D01*
X2132750Y1312750D01*
Y1314000D01*
X2140000Y1302500D02*
Y1310000D01*
X2137250Y1312750D02*
X2140000Y1310000D01*
X2137250Y1312750D02*
Y1314000D01*
X2136250Y1315000D02*
X2137250Y1314000D01*
X1630000Y327500D02*
Y340000D01*
Y327498D02*
Y327500D01*
X502500Y1221000D02*
Y1236000D01*
X2497500Y887500D02*
X2501746Y891746D01*
X2520210D01*
X2450500Y1372500D02*
Y1453000D01*
X2432500Y200000D02*
Y212500D01*
Y225000D01*
Y212500D02*
X2445000D01*
X2270000Y180000D02*
Y192500D01*
X2270000Y192500D02*
X2270000Y192500D01*
X2292500Y180000D02*
Y192500D01*
X2292500Y192500D01*
X2270000D02*
X2292500D01*
X2132750Y1314000D02*
X2133750Y1315000D01*
X2270000Y212500D02*
X2292500D01*
X2182500Y345000D02*
X2217500Y310000D01*
X1789849Y345000D02*
X2182500D01*
X1702349Y432500D02*
X1789849Y345000D01*
X2217500Y270000D02*
Y310000D01*
X2160000Y330000D02*
X2186250Y303750D01*
X1782500Y330000D02*
X2160000D01*
X1692500Y420000D02*
X1782500Y330000D01*
X2186250Y270000D02*
Y303750D01*
X2217500Y157500D02*
Y197500D01*
X2212900Y152900D02*
X2217500Y157500D01*
X2192900Y152900D02*
X2212900D01*
X2467000Y1485000D02*
X2470000D01*
X2443000D02*
X2467000D01*
X2440000D02*
X2443000D01*
X2480000Y1492000D02*
Y1500000D01*
X2473000Y1485000D02*
X2480000Y1492000D01*
X2470000Y1485000D02*
X2473000D01*
X2460000Y1492000D02*
Y1500000D01*
Y1492000D02*
X2467000Y1485000D01*
X2437000D02*
X2440000D01*
X2450000Y1492000D02*
Y1500000D01*
X2443000Y1485000D02*
X2450000Y1492000D01*
X2430000D02*
Y1500000D01*
Y1492000D02*
X2437000Y1485000D01*
X1918500Y191500D02*
X1919500Y192500D01*
X1915000Y177500D02*
Y185000D01*
X1918500Y188500D01*
Y191500D01*
X1932500Y177500D02*
Y185500D01*
X1925500Y192500D02*
X1932500Y185500D01*
X1922500Y192500D02*
X1925500D01*
X2219500Y222500D02*
X2230000D01*
X2218500Y223500D02*
X2219500Y222500D01*
X2218500Y223500D02*
Y232500D01*
Y232500D02*
Y241500D01*
Y232500D02*
Y232500D01*
X2218500Y232500D02*
X2218500Y232500D01*
X2218000Y232000D02*
X2218500Y232500D01*
X2218500Y232500D02*
X2230000D01*
X2219500Y242500D02*
X2230000D01*
X2218500Y241500D02*
X2219500Y242500D01*
X2157250Y197250D02*
X2157500Y197500D01*
X1610000Y420000D02*
X1692500D01*
X1600000Y410000D02*
X1610000Y420000D01*
X1572500Y432500D02*
X1702349D01*
X1560000Y420000D02*
X1572500Y432500D01*
X1600000Y390000D02*
Y410000D01*
X1560000Y390000D02*
Y420000D01*
X1902500Y292500D02*
X1922500D01*
X2120250Y217750D02*
Y222750D01*
Y227750D01*
X2175000Y270000D02*
X2186250D01*
X2197500D01*
X2155500Y233500D02*
Y254500D01*
X2141700Y259200D02*
X2145000Y255900D01*
X2142250Y270000D02*
X2142800Y269450D01*
X2141700Y259200D02*
Y269450D01*
X2155500Y233500D02*
X2156500Y232500D01*
X2154100Y255900D02*
X2155500Y254500D01*
X2156500Y232500D02*
X2156500D01*
X2145000Y255900D02*
X2154100D01*
X2141700Y269450D02*
X2142250Y270000D01*
X2156500Y232500D02*
X2177500D01*
X2218000Y233000D02*
X2218500Y232500D01*
X2218000Y233000D02*
Y269500D01*
X2217500Y270000D02*
X2218000Y269500D01*
X2187500Y197500D02*
X2197500D01*
X2177500D02*
X2187500D01*
X2177500Y232500D02*
X2187500Y222500D01*
Y197500D02*
Y222500D01*
X2217500Y197500D02*
X2218000Y198000D01*
Y232000D01*
X1985000Y157500D02*
Y177500D01*
Y157500D02*
X1989200Y153300D01*
X2025000D01*
X2050400Y127900D02*
Y192100D01*
X2005000Y217500D02*
X2025000D01*
X1985000D02*
X2005000D01*
X2005000Y197500D02*
X2005000Y197500D01*
X1985000Y197500D02*
X2005000D01*
X1901148Y293852D02*
X1902500Y292500D01*
X1884048Y293852D02*
X1901148D01*
X1882900Y295000D02*
X1884048Y293852D01*
X432500Y1162500D02*
X435000Y1165000D01*
X1965000Y237500D02*
Y250000D01*
X1952500Y237500D02*
X1965000D01*
Y165000D02*
Y177500D01*
X1952500D02*
X1965000D01*
X1985000Y177500D02*
X1985000Y177500D01*
X1985000Y177500D02*
Y197500D01*
Y217500D02*
Y237500D01*
X1985000Y237500D01*
X1732500Y210000D02*
Y232500D01*
X2209875Y837625D02*
Y869875D01*
X2237500Y850000D02*
X2242500Y855000D01*
X2237500Y837500D02*
Y850000D01*
X2185000Y857500D02*
Y862500D01*
Y850000D02*
Y857500D01*
Y862500D02*
Y870000D01*
Y877500D02*
Y885000D01*
Y870000D02*
Y877500D01*
X2242500Y1348750D02*
Y1350000D01*
Y1368750D02*
Y1370000D01*
Y1351250D02*
Y1368750D01*
X2217500Y1350000D02*
Y1387500D01*
X2185000Y1350250D02*
Y1365000D01*
X2184750Y1350000D02*
X2185000Y1350250D01*
Y1365000D02*
X2190000Y1370000D01*
Y1387500D01*
X2262500Y1370000D02*
Y1370000D01*
Y1350000D02*
Y1370000D01*
Y1350000D02*
X2262500Y1350000D01*
X2292500D01*
X2190000Y1417500D02*
X2217500D01*
X2140000Y872500D02*
X2155000D01*
X2157500Y870000D01*
X2165000D01*
Y850000D02*
Y870000D01*
X2267814Y887500D02*
X2272500Y882814D01*
Y861500D02*
Y882814D01*
X2247736Y887500D02*
X2267814D01*
X2243050Y882814D02*
X2247736Y887500D01*
X2243050Y870550D02*
Y882814D01*
X2242500Y870000D02*
X2243050Y870550D01*
X2237500Y837500D02*
X2237500Y837500D01*
X2242500Y855000D02*
Y870000D01*
X2209750D02*
X2209875Y869875D01*
Y837625D02*
X2210000Y837500D01*
Y807500D02*
X2237500D01*
X852500Y841000D02*
Y859500D01*
X847500Y864500D02*
X852500Y859500D01*
X842500Y859500D02*
X847500Y864500D01*
X842500Y841000D02*
Y859500D01*
X1615000Y327500D02*
X1630000D01*
X1645000D01*
X470000Y586000D02*
X477500D01*
X485000D01*
X435000Y382500D02*
Y421000D01*
Y375000D02*
Y382500D01*
X495000Y821000D02*
X502500D01*
Y1621000D02*
X510000D01*
X435000Y1572500D02*
X435000Y1572500D01*
Y1621000D01*
X495000D02*
X502500D01*
X435000Y1165000D02*
Y1221000D01*
X632500Y503500D02*
Y513500D01*
X495000Y421000D02*
X502500D01*
X397500Y553500D02*
X407500D01*
X395000Y551000D02*
X397500Y553500D01*
X397500Y568500D02*
X407500D01*
X395000Y571000D02*
X397500Y568500D01*
X395000Y551000D02*
Y571000D01*
X397497Y533497D02*
X407500D01*
X397250Y533250D02*
X397497Y533497D01*
X396000Y533250D02*
X397250D01*
X395000Y532250D02*
Y551000D01*
Y531000D02*
Y532250D01*
X396000Y533250D01*
X395000Y491000D02*
X407500D01*
X397497Y513497D02*
X407500D01*
X395000Y511000D02*
X397497Y513497D01*
X395000Y491000D02*
Y511000D01*
Y531000D01*
X455000Y446000D02*
X455000Y446000D01*
Y426000D02*
Y446000D01*
X450000Y421000D02*
X455000Y426000D01*
X435000Y421000D02*
X450000D01*
X435000Y421000D02*
Y446000D01*
X435000Y446000D02*
X435000Y446000D01*
X435000Y421000D02*
X435000Y421000D01*
X415000Y426000D02*
Y446000D01*
X415000Y446000D02*
X415000Y446000D01*
X420000Y421000D02*
X435000D01*
X415000Y426000D02*
X420000Y421000D01*
X345000Y511000D02*
X360000D01*
X375000D01*
X660000Y483500D02*
X660000Y483500D01*
X360000Y531000D02*
X375000D01*
X345000D02*
X360000D01*
Y551000D02*
X375000D01*
X345000D02*
X360000D01*
X420000Y606000D02*
X430000D01*
X415000Y601000D02*
X420000Y606000D01*
X415000Y596000D02*
Y601000D01*
X360000Y571000D02*
X375000D01*
X345000D02*
X360000D01*
X450000Y606000D02*
X460000D01*
X430000D02*
X450000D01*
X460000D02*
X465000Y601000D01*
Y596000D02*
Y601000D01*
X677250Y463500D02*
X677500Y463750D01*
X664686Y463500D02*
X677250D01*
X660000Y468186D02*
Y483500D01*
Y468186D02*
X664686Y463500D01*
X642500Y438500D02*
X677250D01*
Y463500D01*
X632500Y448500D02*
Y483500D01*
Y448500D02*
X642500Y438500D01*
X415000Y466000D02*
X415000Y466000D01*
X370000Y446000D02*
X390000Y466000D01*
X415000D01*
X345000Y446000D02*
X370000D01*
X360000Y491000D02*
X375000D01*
X345000D02*
X360000D01*
Y471000D02*
Y491000D01*
X355000Y466000D02*
X360000Y471000D01*
X345000Y466000D02*
X355000D01*
X632500Y903500D02*
Y913500D01*
X502500Y821000D02*
X510000D01*
X397500Y953500D02*
X407500D01*
X395000Y951000D02*
X397500Y953500D01*
X397500Y968500D02*
X407500D01*
X395000Y971000D02*
X397500Y968500D01*
X395000Y951000D02*
Y971000D01*
X397497Y933497D02*
X407500D01*
X397250Y933250D02*
X397497Y933497D01*
X396000Y933250D02*
X397250D01*
X395000Y932250D02*
Y951000D01*
Y931000D02*
Y932250D01*
X396000Y933250D01*
X395000Y891000D02*
X407500D01*
X397497Y913497D02*
X407500D01*
X395000Y911000D02*
X397497Y913497D01*
X395000Y891000D02*
Y911000D01*
Y931000D01*
X477500Y986000D02*
X485000D01*
X470000D02*
X477500D01*
X455000Y846000D02*
X455000Y846000D01*
Y826000D02*
Y846000D01*
X450000Y821000D02*
X455000Y826000D01*
X435000Y821000D02*
X450000D01*
X435000Y821000D02*
Y846000D01*
X435000Y846000D02*
X435000Y846000D01*
X435000Y821000D02*
X435000Y821000D01*
X435000Y770000D02*
Y821000D01*
X415000Y826000D02*
Y846000D01*
X415000Y846000D02*
X415000Y846000D01*
X420000Y821000D02*
X435000D01*
X415000Y826000D02*
X420000Y821000D01*
X345000Y911000D02*
X360000D01*
X375000D01*
X660000Y883500D02*
X660000Y883500D01*
X360000Y931000D02*
X375000D01*
X345000D02*
X360000D01*
Y951000D02*
X375000D01*
X345000D02*
X360000D01*
X420000Y1006000D02*
X430000D01*
X415000Y1001000D02*
X420000Y1006000D01*
X415000Y996000D02*
Y1001000D01*
X450000Y1006000D02*
X460000D01*
X430000D02*
X450000D01*
X460000D02*
X465000Y1001000D01*
Y996000D02*
Y1001000D01*
X677250Y863500D02*
X677500Y863750D01*
X664686Y863500D02*
X677250D01*
X660000Y868186D02*
Y883500D01*
Y868186D02*
X664686Y863500D01*
X642500Y838500D02*
X677250D01*
Y863500D01*
X632500Y848500D02*
Y883500D01*
Y848500D02*
X642500Y838500D01*
X415000Y866000D02*
X415000Y866000D01*
X370000Y846000D02*
X390000Y866000D01*
X415000D01*
X345000Y846000D02*
X370000D01*
X360000Y891000D02*
X375000D01*
X345000D02*
X360000D01*
Y871000D02*
Y891000D01*
X355000Y866000D02*
X360000Y871000D01*
X345000Y866000D02*
X355000D01*
X632500Y1703500D02*
Y1713500D01*
X397500Y1753500D02*
X407500D01*
X395000Y1751000D02*
X397500Y1753500D01*
X397500Y1768500D02*
X407500D01*
X395000Y1771000D02*
X397500Y1768500D01*
X395000Y1751000D02*
Y1771000D01*
X397497Y1733497D02*
X407500D01*
X397250Y1733250D02*
X397497Y1733497D01*
X396000Y1733250D02*
X397250D01*
X395000Y1732250D02*
Y1751000D01*
Y1731000D02*
Y1732250D01*
X396000Y1733250D01*
X395000Y1691000D02*
X407500D01*
X397497Y1713497D02*
X407500D01*
X395000Y1711000D02*
X397497Y1713497D01*
X395000Y1691000D02*
Y1711000D01*
Y1731000D01*
X477500Y1786000D02*
X485000D01*
X455000Y1646000D02*
X455000Y1646000D01*
Y1626000D02*
Y1646000D01*
X450000Y1621000D02*
X455000Y1626000D01*
X435000Y1621000D02*
X450000D01*
X435000Y1621000D02*
Y1646000D01*
X435000Y1646000D02*
X435000Y1646000D01*
X435000Y1621000D02*
X435000Y1621000D01*
X415000Y1626000D02*
Y1646000D01*
X415000Y1646000D02*
X415000Y1646000D01*
X420000Y1621000D02*
X435000D01*
X415000Y1626000D02*
X420000Y1621000D01*
X345000Y1711000D02*
X360000D01*
X375000D01*
X660000Y1683500D02*
X660000Y1683500D01*
X360000Y1731000D02*
X375000D01*
X345000D02*
X360000D01*
Y1751000D02*
X375000D01*
X345000D02*
X360000D01*
X420000Y1806000D02*
X430000D01*
X415000Y1801000D02*
X420000Y1806000D01*
X415000Y1796000D02*
Y1801000D01*
X360000Y1771000D02*
X375000D01*
X345000D02*
X360000D01*
X430000Y1806000D02*
X450000D01*
X677250Y1663500D02*
X677500Y1663750D01*
X664686Y1663500D02*
X677250D01*
X660000Y1668186D02*
Y1683500D01*
Y1668186D02*
X664686Y1663500D01*
X642500Y1638500D02*
X677250D01*
Y1663500D01*
X632500Y1648500D02*
Y1683500D01*
Y1648500D02*
X642500Y1638500D01*
X415000Y1666000D02*
X415000Y1666000D01*
X370000Y1646000D02*
X390000Y1666000D01*
X415000D01*
X345000Y1646000D02*
X370000D01*
X360000Y1691000D02*
X375000D01*
X345000D02*
X360000D01*
Y1671000D02*
Y1691000D01*
X355000Y1666000D02*
X360000Y1671000D01*
X345000Y1666000D02*
X355000D01*
X395000Y1332250D02*
Y1351000D01*
Y1331000D02*
Y1332250D01*
X360000Y1351000D02*
X375000D01*
X345000D02*
X360000D01*
X395000Y1311000D02*
Y1331000D01*
X632500Y1303500D02*
Y1313500D01*
X852500Y1638500D02*
Y1657000D01*
X847500Y1662000D02*
X852500Y1657000D01*
X455000Y1226000D02*
Y1246000D01*
X455000Y1246000D02*
X455000Y1246000D01*
X450000Y1221000D02*
X455000Y1226000D01*
X435000Y1221000D02*
X450000D01*
X435000Y1221000D02*
Y1246000D01*
X435000Y1246000D02*
X435000Y1246000D01*
X435000Y1221000D02*
X435000Y1221000D01*
X415000Y1226000D02*
Y1246000D01*
X415000Y1246000D02*
X415000Y1246000D01*
X420000Y1221000D02*
X435000D01*
X415000Y1226000D02*
X420000Y1221000D01*
X415000Y1266000D02*
X415000Y1266000D01*
X345000Y1311000D02*
X360000D01*
X375000D01*
X660000Y1283500D02*
X660000Y1283500D01*
X360000Y1331000D02*
X375000D01*
X345000D02*
X360000D01*
Y1371000D02*
X375000D01*
X345000D02*
X360000D01*
X677250Y1263500D02*
X677500Y1263750D01*
X664686Y1263500D02*
X677250D01*
X660000Y1268186D02*
Y1283500D01*
Y1268186D02*
X664686Y1263500D01*
X677250Y1238500D02*
Y1263500D01*
X642500Y1238500D02*
X677250D01*
X632500Y1248500D02*
Y1283500D01*
Y1248500D02*
X642500Y1238500D01*
X370000Y1246000D02*
X390000Y1266000D01*
X415000D01*
X345000Y1246000D02*
X370000D01*
X360000Y1291000D02*
X375000D01*
X345000D02*
X360000D01*
Y1271000D02*
Y1291000D01*
X355000Y1266000D02*
X360000Y1271000D01*
X345000Y1266000D02*
X355000D01*
X842500Y1657000D02*
X847500Y1662000D01*
X842500Y1638500D02*
Y1657000D01*
D70*
X2315000Y213000D02*
G03*
X2315500Y212500I500J0D01*
G01*
X2332500Y202500D02*
G03*
X2322500Y212500I-10000J0D01*
G01*
X2317500Y172500D02*
G03*
X2332500Y187500I0J15000D01*
G01*
X2307500Y172500D02*
G03*
X2285000Y150000I0J-22500D01*
G01*
X2157500Y174571D02*
G03*
X2162500Y162500I17071J0D01*
G01*
X2167500Y150429D02*
G03*
X2162500Y162500I-17071J0D01*
G01*
X2307500Y187500D02*
X2315000D01*
X115500Y875000D02*
X124250D01*
X115500Y472500D02*
X124250D01*
X417500Y1355000D02*
Y1383500D01*
X417500Y1383500D01*
X417500Y1355000D02*
X422450Y1350050D01*
X502500D01*
X437500Y1370000D02*
Y1383500D01*
X437500Y1383500D01*
X437500Y1370000D02*
X445012Y1362487D01*
X479087D01*
X479219Y1362619D01*
X502369D01*
X502500Y1362750D01*
X1794809Y188641D02*
X1795000Y188450D01*
X1910000Y192500D02*
X1919500D01*
X502450Y1312000D02*
X502500Y1311950D01*
X502325Y1337175D02*
X502500Y1337350D01*
X479000Y1312000D02*
X502450D01*
X477500Y1378500D02*
Y1386000D01*
X502309Y1324459D02*
X502500Y1324650D01*
X479000Y1324000D02*
X479459Y1324459D01*
X502309D01*
X477500Y1378500D02*
X480550Y1375450D01*
X479000Y1337000D02*
X479175Y1337175D01*
X480550Y1375450D02*
X502500D01*
X479175Y1337175D02*
X502325D01*
X2152500Y1337500D02*
Y1368500D01*
Y1290500D02*
Y1337500D01*
X2152500Y1337500D02*
X2152500Y1337500D01*
X2135000Y1337500D02*
X2152500D01*
X2152500Y1290500D02*
X2154000Y1289000D01*
X76250Y1751250D02*
X96750D01*
X75000Y1750000D02*
X76250Y1751250D01*
X75000Y1743132D02*
Y1750000D01*
X57500Y940000D02*
Y955000D01*
X72500Y940000D02*
Y947500D01*
X76250Y951250D01*
X96750D01*
X57500Y955000D02*
X66250Y963750D01*
X96750D01*
X60000Y1335000D02*
Y1355000D01*
X75000Y1335000D02*
Y1343000D01*
X80750Y1348750D01*
X96750D01*
X60000Y1355000D02*
X66250Y1361250D01*
X96750D01*
X60000Y1742500D02*
Y1757500D01*
X66250Y1763750D01*
X96750D01*
X68750Y561250D02*
X96750D01*
X62500Y555000D02*
X68750Y561250D01*
X263500Y1771000D02*
X325000D01*
X256250Y1763750D02*
X263500Y1771000D01*
X96750Y1763750D02*
X256250D01*
X270000Y1757500D02*
X287500D01*
X263750Y1751250D02*
X270000Y1757500D01*
X96750Y1751250D02*
X263750D01*
X271500Y1691000D02*
X325000D01*
X248750Y1713750D02*
X271500Y1691000D01*
X96750Y1713750D02*
X248750D01*
X272500Y1710000D02*
X324000D01*
X256250Y1726250D02*
X272500Y1710000D01*
X96750Y1726250D02*
X256250D01*
X277500Y1730000D02*
X324000D01*
X268750Y1738750D02*
X277500Y1730000D01*
X96750Y1738750D02*
X268750D01*
X267500Y1355000D02*
X300000D01*
X261250Y1348750D02*
X267500Y1355000D01*
X96750Y1348750D02*
X261250D01*
X261000Y1371000D02*
X325000D01*
X251250Y1361250D02*
X261000Y1371000D01*
X96750Y1361250D02*
X251250D01*
X324000Y1710000D02*
X325000Y1711000D01*
X324000Y1730000D02*
X325000Y1731000D01*
X294000Y1751000D02*
X325000D01*
X287500Y1757500D02*
X294000Y1751000D01*
X269000Y1291000D02*
X325000D01*
X248750Y1311250D02*
X269000Y1291000D01*
X96750Y1311250D02*
X248750D01*
X275000Y1310000D02*
X324000D01*
X261250Y1323750D02*
X275000Y1310000D01*
X96750Y1323750D02*
X261250D01*
X324000Y1310000D02*
X325000Y1311000D01*
X276500Y1331000D02*
X325000D01*
X271250Y1336250D02*
X276500Y1331000D01*
X96750Y1336250D02*
X271250D01*
X305000Y1350000D02*
X324000D01*
X325000Y1351000D01*
X300000Y1355000D02*
X305000Y1350000D01*
X275000Y957500D02*
X295000D01*
X268750Y951250D02*
X275000Y957500D01*
X96750Y951250D02*
X268750D01*
X279000Y931000D02*
X325000D01*
X271250Y938750D02*
X279000Y931000D01*
X96750Y938750D02*
X271250D01*
X111750Y1276250D02*
X115500Y1272500D01*
X96750Y1298750D02*
X108821D01*
X111750Y1295821D01*
Y1276250D02*
Y1295821D01*
X115500Y1272500D02*
X124250D01*
X111750Y476250D02*
X115500Y472500D01*
X96750Y498750D02*
X108821D01*
X111750Y495821D01*
Y476250D02*
Y495821D01*
Y878750D02*
X115500Y875000D01*
X96750Y901250D02*
X108821D01*
X111750Y898321D01*
Y878750D02*
Y898321D01*
X271500Y891000D02*
X325000D01*
X248750Y913750D02*
X271500Y891000D01*
X96750Y913750D02*
X248750D01*
X276500Y911000D02*
X325000D01*
X261250Y926250D02*
X276500Y911000D01*
X96750Y926250D02*
X261250D01*
X302500Y950000D02*
X324000D01*
X325000Y951000D01*
X295000Y957500D02*
X302500Y950000D01*
X76250Y548750D02*
X96750D01*
X75000Y547500D02*
X76250Y548750D01*
X75000Y542500D02*
Y547500D01*
X62500Y542500D02*
Y555000D01*
X263750Y963750D02*
X271000Y971000D01*
X325000D01*
X96750Y963750D02*
X263750D01*
X286500Y491000D02*
X325000D01*
X266250Y511250D02*
X286500Y491000D01*
X96750Y511250D02*
X266250D01*
X276250Y523750D02*
X289000Y511000D01*
X96750Y523750D02*
X276250D01*
X289000Y511000D02*
X325000D01*
X96750Y561250D02*
X276250D01*
X286000Y571000D01*
X325000D01*
X311500Y551000D02*
X325000D01*
X307500Y555000D02*
X311500Y551000D01*
X292500Y555000D02*
X307500D01*
X286250Y548750D02*
X292500Y555000D01*
X96750Y548750D02*
X286250D01*
X305000Y530000D02*
X324000D01*
X325000Y531000D01*
X298750Y536250D02*
X305000Y530000D01*
X96750Y536250D02*
X298750D01*
X2154000Y1289000D02*
X2180500D01*
X2219500Y920000D02*
X2242500D01*
X2219500D02*
Y921000D01*
X2315000Y213000D02*
Y224571D01*
X2315500Y212500D02*
X2322500D01*
X2332500Y187500D02*
Y202500D01*
X2307500Y172500D02*
X2317500D01*
X2285000Y127500D02*
Y150000D01*
X2315000Y187500D02*
Y197500D01*
Y187000D02*
Y187500D01*
X2302500Y192500D02*
X2307500Y187500D01*
X2292500Y192500D02*
X2302500D01*
X2402500Y127500D02*
X2402500Y212500D01*
X2292500Y224571D02*
X2295429Y227500D01*
X2292500Y212500D02*
Y224571D01*
Y212500D02*
X2292500Y212500D01*
X2295429Y227500D02*
X2312071D01*
X2315000Y224571D01*
X2135000Y197250D02*
X2157250D01*
X2157500Y174571D02*
Y197500D01*
X2167500Y127500D02*
Y150429D01*
X1906141Y188641D02*
X1910000Y192500D01*
X1895191Y188641D02*
X1906141D01*
X1919500Y192500D02*
X1922500D01*
X1895000Y188450D02*
X1895191Y188641D01*
X2120500Y223000D02*
X2120750Y223250D01*
X2120250Y222750D02*
X2120500Y223000D01*
X1770000Y197500D02*
X1772500D01*
X1770950Y188450D02*
X1795000D01*
X2120500Y223000D02*
X2135000D01*
X1770000Y187500D02*
X1770950Y188450D01*
X1712500Y210250D02*
X1732250D01*
X1749079Y213850D02*
X1795000D01*
X1747500Y215429D02*
X1749079Y213850D01*
X1747500Y215429D02*
Y227500D01*
X1742500Y232500D02*
X1747500Y227500D01*
X1732500Y232500D02*
X1742500D01*
X1732500Y190000D02*
X1752500D01*
X1782500Y197500D02*
X1786150Y201150D01*
X1773000Y197500D02*
X1782500D01*
X1730000Y175000D02*
X1732500Y177500D01*
X1715429Y175000D02*
X1730000D01*
X1732500Y177500D02*
Y190000D01*
X1712500Y177929D02*
X1715429Y175000D01*
X1712500Y177929D02*
Y184500D01*
X1752500Y190000D02*
X1760000Y197500D01*
X1770000D01*
X1732500Y190000D02*
X1732500Y190000D01*
X1770000Y197500D02*
X1770000Y197500D01*
X1786150Y201150D02*
X1795000D01*
X1770000Y227500D02*
X1770759Y226741D01*
X1794809D01*
X1795000Y226550D01*
X1910000Y222500D02*
X1922500D01*
X1905759Y226741D02*
X1910000Y222500D01*
X1895191Y226741D02*
X1905759D01*
X1895000Y226550D02*
X1895191Y226741D01*
X1922500Y222500D02*
X1922500Y222500D01*
X1732250Y210250D02*
X1732500Y210000D01*
X1712500Y210250D02*
Y210500D01*
X2217500Y1337500D02*
Y1350000D01*
X2215000Y1335000D02*
X2217500Y1337500D01*
X2187500Y1335000D02*
X2215000D01*
X2217500Y1350000D02*
X2217500Y1350000D01*
X2180500Y1328000D02*
X2187500Y1335000D01*
X2180500Y1289000D02*
Y1328000D01*
X2230000Y875000D02*
Y900000D01*
X2219500Y910500D02*
X2230000Y900000D01*
X2219500Y910500D02*
Y920000D01*
X2230000Y875000D02*
X2235000Y870000D01*
X2242500D01*
X453000Y524000D02*
X479000D01*
X479459Y524459D01*
X479263Y549963D02*
X502413D01*
X479087Y549787D02*
X479263Y549963D01*
X436213Y549787D02*
X479087D01*
X466000Y512000D02*
X479000D01*
X502450D01*
X433500Y537000D02*
X479000D01*
X479175Y537175D01*
X453512Y562487D02*
X479087D01*
X430000Y556000D02*
X436213Y549787D01*
X479087Y562487D02*
X479263Y562663D01*
X477500Y578500D02*
Y586000D01*
Y578500D02*
X480550Y575450D01*
X502500D01*
X450000Y566000D02*
X453512Y562487D01*
X450000Y566000D02*
Y586000D01*
X479263Y562663D02*
X502413D01*
X415000Y466000D02*
X417500Y468500D01*
X502325Y537175D02*
X502500Y537350D01*
X479175Y537175D02*
X502325D01*
X417500Y521000D02*
X433500Y537000D01*
X417500Y468500D02*
Y521000D01*
X502450Y512000D02*
X502500Y511950D01*
X455000Y501000D02*
X466000Y512000D01*
X455000Y466000D02*
Y501000D01*
X430000Y586000D02*
X430000Y586000D01*
X430000Y556000D02*
Y586000D01*
X450000D02*
X450000Y586000D01*
X502309Y524459D02*
X502500Y524650D01*
X479459Y524459D02*
X502309D01*
X435000Y506000D02*
X453000Y524000D01*
X435000Y466000D02*
Y506000D01*
X480550Y975450D02*
X502500D01*
X477500Y978500D02*
X480550Y975450D01*
X477500Y978500D02*
Y986000D01*
X415000Y866000D02*
X417500Y868500D01*
X502325Y937175D02*
X502500Y937350D01*
X479175Y937175D02*
X502325D01*
X479000Y937000D02*
X479175Y937175D01*
X433500Y937000D02*
X479000D01*
X417500Y921000D02*
X433500Y937000D01*
X417500Y868500D02*
Y921000D01*
X502450Y912000D02*
X502500Y911950D01*
X479000Y912000D02*
X502450D01*
X466000D02*
X479000D01*
X455000Y901000D02*
X466000Y912000D01*
X455000Y866000D02*
Y901000D01*
X479263Y949962D02*
X502413D01*
X479087Y949788D02*
X479263Y949962D01*
X436213Y949788D02*
X479087D01*
X430000Y986000D02*
X430000Y986000D01*
X430000Y956000D02*
Y986000D01*
Y956000D02*
X436213Y949788D01*
X479263Y962663D02*
X502413D01*
X479087Y962487D02*
X479263Y962663D01*
X453512Y962487D02*
X479087D01*
X450000Y986000D02*
X450000Y986000D01*
X450000Y966000D02*
Y986000D01*
Y966000D02*
X453512Y962487D01*
X502309Y924459D02*
X502500Y924650D01*
X479459Y924459D02*
X502309D01*
X479000Y924000D02*
X479459Y924459D01*
X453000Y924000D02*
X479000D01*
X435000Y906000D02*
X453000Y924000D01*
X435000Y866000D02*
Y906000D01*
X480550Y1775450D02*
X502500D01*
X477500Y1778500D02*
X480550Y1775450D01*
X477500Y1778500D02*
Y1786000D01*
X415000Y1666000D02*
X417500Y1668500D01*
X502325Y1737175D02*
X502500Y1737350D01*
X479175Y1737175D02*
X502325D01*
X479000Y1737000D02*
X479175Y1737175D01*
X433500Y1737000D02*
X479000D01*
X417500Y1721000D02*
X433500Y1737000D01*
X417500Y1668500D02*
Y1721000D01*
X502450Y1712000D02*
X502500Y1711950D01*
X479000Y1712000D02*
X502450D01*
X466000D02*
X479000D01*
X455000Y1701000D02*
X466000Y1712000D01*
X455000Y1666000D02*
Y1701000D01*
X479263Y1749962D02*
X502413D01*
X479087Y1749788D02*
X479263Y1749962D01*
X436213Y1749788D02*
X479087D01*
X430000Y1786000D02*
X430000Y1786000D01*
X430000Y1756000D02*
Y1786000D01*
Y1756000D02*
X436213Y1749788D01*
X479263Y1762663D02*
X502413D01*
X479087Y1762488D02*
X479263Y1762663D01*
X453512Y1762488D02*
X479087D01*
X450000Y1786000D02*
X450000Y1786000D01*
X450000Y1766000D02*
Y1786000D01*
Y1766000D02*
X453512Y1762488D01*
X502309Y1724459D02*
X502500Y1724650D01*
X479459Y1724459D02*
X502309D01*
X479000Y1724000D02*
X479459Y1724459D01*
X453000Y1724000D02*
X479000D01*
X435000Y1706000D02*
X453000Y1724000D01*
X435000Y1666000D02*
Y1706000D01*
X417500Y1321000D02*
X433500Y1337000D01*
X417500Y1268500D02*
Y1321000D01*
X415000Y1266000D02*
X417500Y1268500D01*
X433500Y1337000D02*
X479000D01*
X466000Y1312000D02*
X479000D01*
X455000Y1301000D02*
X466000Y1312000D01*
X455000Y1266000D02*
Y1301000D01*
X453000Y1324000D02*
X479000D01*
X435000Y1306000D02*
X453000Y1324000D01*
X435000Y1266000D02*
Y1306000D01*
D71*
X870000Y161750D02*
D03*
Y218250D02*
D03*
D72*
X64750Y579750D02*
D03*
Y480250D02*
D03*
Y982250D02*
D03*
Y882750D02*
D03*
Y1682750D02*
D03*
Y1782250D02*
D03*
Y1379750D02*
D03*
Y1280250D02*
D03*
D73*
X96750Y498750D02*
D03*
Y511250D02*
D03*
Y523750D02*
D03*
Y536250D02*
D03*
Y548750D02*
D03*
Y561250D02*
D03*
Y901250D02*
D03*
Y913750D02*
D03*
Y926250D02*
D03*
Y938750D02*
D03*
Y951250D02*
D03*
Y963750D02*
D03*
Y1763750D02*
D03*
Y1751250D02*
D03*
Y1738750D02*
D03*
Y1726250D02*
D03*
Y1713750D02*
D03*
Y1701250D02*
D03*
Y1298750D02*
D03*
Y1311250D02*
D03*
Y1323750D02*
D03*
Y1336250D02*
D03*
Y1348750D02*
D03*
Y1361250D02*
D03*
D74*
X2270000Y232500D02*
D03*
Y252500D02*
D03*
X2135000Y1317500D02*
D03*
Y1337500D02*
D03*
X2270000Y212500D02*
D03*
Y192500D02*
D03*
X2292500D02*
D03*
Y212500D02*
D03*
X812500Y1656000D02*
D03*
Y1676000D02*
D03*
Y861000D02*
D03*
Y881000D02*
D03*
Y461000D02*
D03*
Y481000D02*
D03*
X1732500Y210000D02*
D03*
Y190000D02*
D03*
X2005000Y217500D02*
D03*
Y197500D02*
D03*
X2292500Y1370000D02*
D03*
Y1350000D02*
D03*
X2140000Y852500D02*
D03*
Y872500D02*
D03*
X807500Y1276000D02*
D03*
Y1256000D02*
D03*
X450000Y1006000D02*
D03*
Y986000D02*
D03*
X430000Y1006000D02*
D03*
Y986000D02*
D03*
X660000Y903500D02*
D03*
Y883500D02*
D03*
X415000Y846000D02*
D03*
Y866000D02*
D03*
X435000Y846000D02*
D03*
Y866000D02*
D03*
X455000Y846000D02*
D03*
Y866000D02*
D03*
X437500Y1403500D02*
D03*
Y1383500D02*
D03*
X417500Y1403500D02*
D03*
Y1383500D02*
D03*
X660000Y1303500D02*
D03*
Y1283500D02*
D03*
X415000Y1246000D02*
D03*
Y1266000D02*
D03*
X435000Y1246000D02*
D03*
Y1266000D02*
D03*
X455000Y1246000D02*
D03*
Y1266000D02*
D03*
X450000Y1806000D02*
D03*
Y1786000D02*
D03*
X430000Y1806000D02*
D03*
Y1786000D02*
D03*
X660000Y1703500D02*
D03*
Y1683500D02*
D03*
X415000Y1646000D02*
D03*
Y1666000D02*
D03*
X435000Y1646000D02*
D03*
Y1666000D02*
D03*
X455000Y1646000D02*
D03*
Y1666000D02*
D03*
X632500Y903500D02*
D03*
Y883500D02*
D03*
Y1303500D02*
D03*
Y1283500D02*
D03*
Y1703500D02*
D03*
Y1683500D02*
D03*
Y483500D02*
D03*
Y503500D02*
D03*
X455000Y466000D02*
D03*
Y446000D02*
D03*
X435000Y466000D02*
D03*
Y446000D02*
D03*
X415000Y466000D02*
D03*
Y446000D02*
D03*
X660000Y483500D02*
D03*
Y503500D02*
D03*
X430000Y586000D02*
D03*
Y606000D02*
D03*
X450000Y586000D02*
D03*
Y606000D02*
D03*
X2270000Y292500D02*
D03*
Y272500D02*
D03*
D75*
X2391000Y1495000D02*
D03*
X2329000D02*
D03*
X2218500Y232500D02*
D03*
X2156500D02*
D03*
X1169000Y851000D02*
D03*
X1231000D02*
D03*
X1169000Y801000D02*
D03*
X1231000D02*
D03*
D76*
X2440000Y1455000D02*
D03*
Y1485000D02*
D03*
X2470000D02*
D03*
Y1455000D02*
D03*
X2520210Y891746D02*
D03*
Y861746D02*
D03*
X1630000Y297500D02*
D03*
Y327500D02*
D03*
Y235000D02*
D03*
Y265000D02*
D03*
Y170000D02*
D03*
Y200000D02*
D03*
Y107500D02*
D03*
Y137500D02*
D03*
X1770000Y227500D02*
D03*
Y197500D02*
D03*
X1922500Y262500D02*
D03*
Y292500D02*
D03*
X1922500Y222500D02*
D03*
Y192500D02*
D03*
X2190000Y1387500D02*
D03*
Y1417500D02*
D03*
X2217500Y1387500D02*
D03*
Y1417500D02*
D03*
X2292500Y1390000D02*
D03*
Y1420000D02*
D03*
X2140000Y835000D02*
D03*
Y805000D02*
D03*
X2210000Y807500D02*
D03*
Y837500D02*
D03*
X2237500Y807500D02*
D03*
Y837500D02*
D03*
X245000Y1006000D02*
D03*
Y1036000D02*
D03*
Y1406000D02*
D03*
Y1436000D02*
D03*
X502500Y836000D02*
D03*
Y866000D02*
D03*
X475000Y1071000D02*
D03*
Y1101000D02*
D03*
Y1016000D02*
D03*
Y1046000D02*
D03*
X502500Y1236000D02*
D03*
Y1266000D02*
D03*
X475000Y1471000D02*
D03*
Y1501000D02*
D03*
Y1416000D02*
D03*
Y1446000D02*
D03*
X502500Y1636000D02*
D03*
Y1666000D02*
D03*
X475000Y1871000D02*
D03*
Y1901000D02*
D03*
Y1816000D02*
D03*
Y1846000D02*
D03*
X245000Y1806000D02*
D03*
Y1836000D02*
D03*
X584995Y259678D02*
D03*
Y289677D02*
D03*
X464502Y286000D02*
D03*
Y256000D02*
D03*
X437500Y286000D02*
D03*
Y256000D02*
D03*
X312500Y186000D02*
D03*
Y156000D02*
D03*
X295000Y282500D02*
D03*
Y252500D02*
D03*
X475000Y646000D02*
D03*
Y616000D02*
D03*
Y701000D02*
D03*
Y671000D02*
D03*
X502500Y466000D02*
D03*
Y436000D02*
D03*
X245000Y636000D02*
D03*
Y606000D02*
D03*
D77*
X2384500Y1372500D02*
D03*
X2450500D02*
D03*
X2387000Y810000D02*
D03*
X2453000D02*
D03*
D78*
X2412500Y212500D02*
D03*
X2432500D02*
D03*
X2372500D02*
D03*
X2392500D02*
D03*
X2217500Y270000D02*
D03*
X2197500D02*
D03*
X2157500Y197500D02*
D03*
X2177500D02*
D03*
X1732500Y232500D02*
D03*
X1712500D02*
D03*
X1985000Y217500D02*
D03*
X1965000D02*
D03*
X1985000Y197500D02*
D03*
X1965000D02*
D03*
X1965000Y177500D02*
D03*
X1985000D02*
D03*
X1965000Y237500D02*
D03*
X1985000D02*
D03*
X2262500Y1350000D02*
D03*
X2242500D02*
D03*
Y1370000D02*
D03*
X2262500D02*
D03*
X2165000Y850000D02*
D03*
X2185000D02*
D03*
Y870000D02*
D03*
X2165000D02*
D03*
X325000Y866000D02*
D03*
X345000D02*
D03*
X325000Y846000D02*
D03*
X345000D02*
D03*
X370000Y1101000D02*
D03*
X350000D02*
D03*
X325000Y1266000D02*
D03*
X345000D02*
D03*
X325000Y1246000D02*
D03*
X345000D02*
D03*
X370000Y1501000D02*
D03*
X350000D02*
D03*
X325000Y1666000D02*
D03*
X345000D02*
D03*
X325000Y1646000D02*
D03*
X345000D02*
D03*
X370000Y1901000D02*
D03*
X350000D02*
D03*
X345000Y951000D02*
D03*
X325000D02*
D03*
X345000Y971000D02*
D03*
X325000D02*
D03*
X345000Y931000D02*
D03*
X325000D02*
D03*
X345000Y891000D02*
D03*
X325000D02*
D03*
X345000Y911000D02*
D03*
X325000D02*
D03*
X410000Y1101000D02*
D03*
X390000D02*
D03*
X345000Y1351000D02*
D03*
X325000D02*
D03*
X345000Y1371000D02*
D03*
X325000D02*
D03*
X345000Y1331000D02*
D03*
X325000D02*
D03*
X345000Y1291000D02*
D03*
X325000D02*
D03*
X345000Y1311000D02*
D03*
X325000D02*
D03*
X410000Y1501000D02*
D03*
X390000D02*
D03*
X345000Y1751000D02*
D03*
X325000D02*
D03*
X345000Y1771000D02*
D03*
X325000D02*
D03*
X345000Y1731000D02*
D03*
X325000D02*
D03*
X345000Y1691000D02*
D03*
X325000D02*
D03*
X345000Y1711000D02*
D03*
X325000D02*
D03*
X410000Y1901000D02*
D03*
X390000D02*
D03*
X395000Y911000D02*
D03*
X375000D02*
D03*
X395000Y891000D02*
D03*
X375000D02*
D03*
X395000Y931000D02*
D03*
X375000D02*
D03*
X395000Y971000D02*
D03*
X375000D02*
D03*
X395000Y951000D02*
D03*
X375000D02*
D03*
X395000Y1311000D02*
D03*
X375000D02*
D03*
X395000Y1291000D02*
D03*
X375000D02*
D03*
X395000Y1331000D02*
D03*
X375000D02*
D03*
X395000Y1371000D02*
D03*
X375000D02*
D03*
X395000Y1351000D02*
D03*
X375000D02*
D03*
X395000Y1711000D02*
D03*
X375000D02*
D03*
X395000Y1691000D02*
D03*
X375000D02*
D03*
X395000Y1731000D02*
D03*
X375000D02*
D03*
X395000Y1771000D02*
D03*
X375000D02*
D03*
X395000Y1751000D02*
D03*
X375000D02*
D03*
Y551000D02*
D03*
X395000D02*
D03*
X375000Y571000D02*
D03*
X395000D02*
D03*
X375000Y531000D02*
D03*
X395000D02*
D03*
X375000Y491000D02*
D03*
X395000D02*
D03*
X375000Y511000D02*
D03*
X395000D02*
D03*
X390000Y701000D02*
D03*
X410000D02*
D03*
X325000Y511000D02*
D03*
X345000D02*
D03*
X325000Y491000D02*
D03*
X345000D02*
D03*
X325000Y531000D02*
D03*
X345000D02*
D03*
X325000Y571000D02*
D03*
X345000D02*
D03*
X325000Y551000D02*
D03*
X345000D02*
D03*
X350000Y701000D02*
D03*
X370000D02*
D03*
X345000Y446000D02*
D03*
X325000D02*
D03*
X345000Y466000D02*
D03*
X325000D02*
D03*
X2217500Y197500D02*
D03*
X2197500D02*
D03*
X2242500Y920000D02*
D03*
X2262500D02*
D03*
D79*
X2588000Y16000D02*
D03*
X2552000D02*
D03*
X2513000D02*
D03*
X2477000D02*
D03*
D80*
X2575000Y54750D02*
D03*
X2565000D02*
D03*
X2500000D02*
D03*
X2490000D02*
D03*
D81*
X2315000Y187000D02*
D03*
Y213000D02*
D03*
X2135000Y223000D02*
D03*
Y197000D02*
D03*
X1712500Y184500D02*
D03*
Y210500D02*
D03*
X1945000Y194500D02*
D03*
Y220500D02*
D03*
D82*
X2573210Y886246D02*
D03*
Y867246D02*
D03*
X2547210D02*
D03*
Y876746D02*
D03*
Y886246D02*
D03*
D83*
X2542710Y914246D02*
D03*
X2572710D02*
D03*
X350000Y1076000D02*
D03*
X380000D02*
D03*
X350000Y1476000D02*
D03*
X380000D02*
D03*
X660000Y976000D02*
D03*
X630000D02*
D03*
X660000Y943500D02*
D03*
X630000D02*
D03*
X660000Y1376000D02*
D03*
X630000D02*
D03*
X660000Y1343500D02*
D03*
X630000D02*
D03*
X660000Y1776000D02*
D03*
X630000D02*
D03*
X660000Y1743500D02*
D03*
X630000D02*
D03*
X350000Y1876000D02*
D03*
X380000D02*
D03*
X630000Y543500D02*
D03*
X660000D02*
D03*
X630000Y576000D02*
D03*
X660000D02*
D03*
X380000Y676000D02*
D03*
X350000D02*
D03*
D84*
X847500Y1662000D02*
D03*
Y1705000D02*
D03*
Y867000D02*
D03*
Y910000D02*
D03*
Y467000D02*
D03*
Y510000D02*
D03*
X267500Y74500D02*
D03*
Y117500D02*
D03*
X2152500Y1411500D02*
D03*
Y1368500D02*
D03*
X2272500Y818500D02*
D03*
Y861500D02*
D03*
X842500Y1304000D02*
D03*
Y1261000D02*
D03*
D85*
X332500Y109000D02*
D03*
Y76000D02*
D03*
D86*
X424000D02*
D03*
X381000D02*
D03*
D87*
X2142250Y270000D02*
D03*
X2175000D02*
D03*
X2184750Y1350000D02*
D03*
X2217500D02*
D03*
X2209750Y870000D02*
D03*
X2242500D02*
D03*
X710000Y838500D02*
D03*
X677250D02*
D03*
X710000Y863500D02*
D03*
X677250D02*
D03*
X710000Y1238500D02*
D03*
X677250D02*
D03*
X710000Y1263500D02*
D03*
X677250D02*
D03*
X710000Y1638500D02*
D03*
X677250D02*
D03*
X710000Y1663500D02*
D03*
X677250D02*
D03*
Y463500D02*
D03*
X710000D02*
D03*
X677250Y438500D02*
D03*
X710000D02*
D03*
D88*
X1895000Y188450D02*
D03*
Y201150D02*
D03*
Y213850D02*
D03*
Y226550D02*
D03*
X1795000Y188450D02*
D03*
Y201150D02*
D03*
Y213850D02*
D03*
Y226550D02*
D03*
D89*
X2219500Y1231000D02*
D03*
X2206500D02*
D03*
X2193500D02*
D03*
X2180500D02*
D03*
X2180500Y979000D02*
D03*
X2193500D02*
D03*
X2206500D02*
D03*
X2219500D02*
D03*
D90*
X2180500Y1289000D02*
D03*
X2206500D02*
D03*
X2219500D02*
D03*
X2193500D02*
D03*
X2219500Y921000D02*
D03*
X2193500D02*
D03*
X2180500D02*
D03*
X2206500D02*
D03*
D91*
X2266600Y1395500D02*
D03*
Y1405000D02*
D03*
Y1414500D02*
D03*
X2238400Y1395500D02*
D03*
Y1405000D02*
D03*
Y1414500D02*
D03*
X2161400Y826000D02*
D03*
Y816500D02*
D03*
Y807000D02*
D03*
X2189600Y826000D02*
D03*
Y816500D02*
D03*
Y807000D02*
D03*
D92*
X2252500Y1405000D02*
D03*
X2175500Y816500D02*
D03*
D93*
X1102500Y967100D02*
D03*
Y1012900D02*
D03*
X1225000Y967100D02*
D03*
Y1012900D02*
D03*
D94*
X1037500Y990000D02*
D03*
X1160000D02*
D03*
D95*
X735000Y842995D02*
D03*
X775000D02*
D03*
Y878997D02*
D03*
X735000D02*
D03*
X600000Y1106000D02*
D03*
X640000D02*
D03*
X520000D02*
D03*
X560000D02*
D03*
X735000Y1242995D02*
D03*
X775000D02*
D03*
Y1278997D02*
D03*
X735000D02*
D03*
X600000Y1506000D02*
D03*
X640000D02*
D03*
X520000D02*
D03*
X560000D02*
D03*
X735000Y1642995D02*
D03*
X775000D02*
D03*
Y1678997D02*
D03*
X735000D02*
D03*
X600000Y1906000D02*
D03*
X640000D02*
D03*
X520000D02*
D03*
X560000D02*
D03*
Y706000D02*
D03*
X520000D02*
D03*
X640000D02*
D03*
X600000D02*
D03*
X735000Y478997D02*
D03*
X775000D02*
D03*
Y442995D02*
D03*
X735000D02*
D03*
D96*
X405000Y1028250D02*
D03*
Y1061000D02*
D03*
Y1428250D02*
D03*
Y1461000D02*
D03*
Y1828250D02*
D03*
Y1861000D02*
D03*
Y661000D02*
D03*
Y628250D02*
D03*
D97*
X750000Y974500D02*
D03*
Y912500D02*
D03*
X707500Y974500D02*
D03*
Y912500D02*
D03*
X440000Y1040000D02*
D03*
Y1102000D02*
D03*
X750000Y1374500D02*
D03*
Y1312500D02*
D03*
X707500Y1374500D02*
D03*
Y1312500D02*
D03*
X440000Y1440000D02*
D03*
Y1502000D02*
D03*
X750000Y1774500D02*
D03*
Y1712500D02*
D03*
X707500Y1774500D02*
D03*
Y1712500D02*
D03*
X440000Y1840000D02*
D03*
Y1902000D02*
D03*
Y702000D02*
D03*
Y640000D02*
D03*
X707500Y512500D02*
D03*
Y574500D02*
D03*
X750000Y512500D02*
D03*
Y574500D02*
D03*
D98*
X597500Y886550D02*
D03*
Y899250D02*
D03*
Y911950D02*
D03*
Y924650D02*
D03*
Y937350D02*
D03*
Y950050D02*
D03*
Y962750D02*
D03*
Y975450D02*
D03*
X502500Y886550D02*
D03*
Y899250D02*
D03*
Y911950D02*
D03*
Y924650D02*
D03*
Y937350D02*
D03*
Y950050D02*
D03*
Y962750D02*
D03*
Y975450D02*
D03*
X597500Y1286550D02*
D03*
Y1299250D02*
D03*
Y1311950D02*
D03*
Y1324650D02*
D03*
Y1337350D02*
D03*
Y1350050D02*
D03*
Y1362750D02*
D03*
Y1375450D02*
D03*
X502500Y1286550D02*
D03*
Y1299250D02*
D03*
Y1311950D02*
D03*
Y1324650D02*
D03*
Y1337350D02*
D03*
Y1350050D02*
D03*
Y1362750D02*
D03*
Y1375450D02*
D03*
X597500Y1686550D02*
D03*
Y1699250D02*
D03*
Y1711950D02*
D03*
Y1724650D02*
D03*
Y1737350D02*
D03*
Y1750050D02*
D03*
Y1762750D02*
D03*
Y1775450D02*
D03*
X502500Y1686550D02*
D03*
Y1699250D02*
D03*
Y1711950D02*
D03*
Y1724650D02*
D03*
Y1737350D02*
D03*
Y1750050D02*
D03*
Y1762750D02*
D03*
Y1775450D02*
D03*
Y575450D02*
D03*
Y562750D02*
D03*
Y550050D02*
D03*
Y537350D02*
D03*
Y524650D02*
D03*
Y511950D02*
D03*
Y499250D02*
D03*
Y486550D02*
D03*
X597500Y575450D02*
D03*
Y562750D02*
D03*
Y550050D02*
D03*
Y537350D02*
D03*
Y524650D02*
D03*
Y511950D02*
D03*
Y499250D02*
D03*
Y486550D02*
D03*
D99*
X344700Y225590D02*
D03*
X390300D02*
D03*
X507200Y228090D02*
D03*
X552800D02*
D03*
D100*
X367500Y289410D02*
D03*
X530000Y291910D02*
D03*
D101*
X277500Y184400D02*
D03*
Y155400D02*
D03*
D102*
X1256000Y278500D02*
D03*
Y260000D02*
D03*
Y241500D02*
D03*
X1184000D02*
D03*
Y260000D02*
D03*
Y278500D02*
D03*
D103*
X1220000Y233000D02*
D03*
Y287000D02*
D03*
D104*
X1182900Y970600D02*
X1225000D01*
X1160000Y993500D02*
X1182900Y970600D01*
X1060400Y967700D02*
X1102500D01*
X1037500Y990600D02*
X1060400Y967700D01*
X1102500Y1013500D02*
X1140000D01*
X1160000Y993500D01*
D105*
X580000Y1853500D02*
X625000D01*
X535000D02*
X580000D01*
Y1053500D02*
X625000D01*
X535000D02*
X580000D01*
X300000Y75250D02*
X326750D01*
X268250D02*
X300000D01*
X190000Y265000D02*
X237500D01*
X240000Y125787D02*
Y146613D01*
X237500Y265000D02*
X257500Y245000D01*
X2140000Y973000D02*
X2180500D01*
X2219500Y1230000D02*
X2320000D01*
X2193500D02*
X2206500D01*
X2219500D01*
X2180500D02*
X2193500D01*
X2130000Y973000D02*
X2140000D01*
X2110000D02*
X2120000D01*
X2130000D01*
X2090000D02*
X2100000D01*
X2110000D01*
X2070000D02*
X2080000D01*
X2090000D01*
X2160000Y1230000D02*
X2180500D01*
X2384500Y1294500D02*
Y1372500D01*
X2320000Y1230000D02*
X2384500Y1294500D01*
X2193500Y973000D02*
X2206500D01*
X2219500D02*
X2327000D01*
X2180500D02*
X2193500D01*
X2206500D02*
X2219500D01*
X2044000D02*
X2070000D01*
X2327000D02*
X2337000Y963000D01*
Y830500D02*
Y963000D01*
X2259600Y102100D02*
Y152900D01*
Y102100D02*
X2310400D01*
Y152900D01*
X2377100Y102100D02*
Y152900D01*
Y102100D02*
X2427900D01*
Y152900D01*
X2337000Y830500D02*
X2357500Y810000D01*
X2387000D01*
X2192900Y102100D02*
Y152900D01*
X2142100Y102100D02*
X2192900D01*
X2142100D02*
Y152900D01*
X2075800Y102500D02*
Y153300D01*
X2025000Y102500D02*
X2075800D01*
X2025000D02*
Y153300D01*
X842500Y1305000D02*
Y1348500D01*
X864500Y1370500D01*
X535000Y653500D02*
X580000D01*
X625000D01*
X580000Y1453500D02*
X625000D01*
X535000D02*
X580000D01*
X263100Y184400D02*
X277500D01*
X257500Y190000D02*
X263100Y184400D01*
X257500Y190000D02*
Y245000D01*
X240000Y146613D02*
X248787Y155400D01*
X277500D01*
X520000Y671000D02*
Y706000D01*
X505000Y656000D02*
X520000Y671000D01*
X505000Y627287D02*
Y656000D01*
X513787Y618500D02*
X535000D01*
X505000Y627287D02*
X513787Y618500D01*
X640000Y681000D02*
Y706000D01*
Y681000D02*
X660000Y661000D01*
Y626000D02*
Y661000D01*
X652309Y618309D02*
X660000Y626000D01*
X625000Y618500D02*
X625191Y618309D01*
X652309D01*
X580000Y706000D02*
X600000D01*
X560000D02*
X580000D01*
Y643500D02*
Y653500D01*
Y706000D01*
Y633500D02*
Y643500D01*
Y613500D02*
Y623500D01*
Y633500D01*
X535000Y653500D02*
X535000Y653500D01*
X775000Y442995D02*
Y478997D01*
X520000Y1071000D02*
Y1106000D01*
X505000Y1056000D02*
X520000Y1071000D01*
X505000Y1027287D02*
Y1056000D01*
X513787Y1018500D02*
X535000D01*
X505000Y1027287D02*
X513787Y1018500D01*
X640000Y1081000D02*
Y1106000D01*
Y1081000D02*
X660000Y1061000D01*
Y1026000D02*
Y1061000D01*
X652309Y1018309D02*
X660000Y1026000D01*
X625000Y1018500D02*
X625191Y1018309D01*
X652309D01*
X580000Y1106000D02*
X600000D01*
X560000D02*
X580000D01*
Y1043500D02*
Y1053500D01*
Y1106000D01*
Y1033500D02*
Y1043500D01*
Y1013500D02*
Y1023500D01*
Y1033500D01*
X535000Y1053500D02*
X535000Y1053500D01*
X775000Y842995D02*
Y878997D01*
X520000Y1871000D02*
Y1906000D01*
X505000Y1856000D02*
X520000Y1871000D01*
X505000Y1827287D02*
Y1856000D01*
X513787Y1818500D02*
X535000D01*
X505000Y1827287D02*
X513787Y1818500D01*
X640000Y1881000D02*
Y1906000D01*
Y1881000D02*
X660000Y1861000D01*
Y1826000D02*
Y1861000D01*
X652309Y1818309D02*
X660000Y1826000D01*
X625000Y1818500D02*
X625191Y1818309D01*
X652309D01*
X580000Y1906000D02*
X600000D01*
X560000D02*
X580000D01*
Y1843500D02*
Y1853500D01*
Y1906000D01*
Y1833500D02*
Y1843500D01*
Y1813500D02*
Y1823500D01*
Y1833500D01*
X535000Y1853500D02*
X535000Y1853500D01*
X775000Y1642995D02*
Y1678997D01*
X864500Y1370500D02*
X937500D01*
X847500Y956000D02*
X862000Y970500D01*
X937500D01*
X847500Y910000D02*
Y956000D01*
Y561000D02*
X859500Y573000D01*
X937500D01*
X847500Y510000D02*
Y561000D01*
Y1705000D02*
Y1753500D01*
X862000Y1768000D01*
X937500D01*
X520000Y1471000D02*
Y1506000D01*
X505000Y1456000D02*
X520000Y1471000D01*
X505000Y1427287D02*
Y1456000D01*
X513787Y1418500D02*
X535000D01*
X505000Y1427287D02*
X513787Y1418500D01*
X580000Y1506000D02*
X600000D01*
X580000Y1453500D02*
Y1506000D01*
X560000D02*
X580000D01*
Y1443500D02*
Y1453500D01*
Y1433500D02*
Y1443500D01*
Y1413500D02*
Y1423500D01*
Y1433500D01*
X535000Y1453500D02*
X535000Y1453500D01*
X640000Y1481000D02*
Y1506000D01*
Y1481000D02*
X660000Y1461000D01*
Y1426000D02*
Y1461000D01*
X652309Y1418309D02*
X660000Y1426000D01*
X625000Y1418500D02*
X625191Y1418309D01*
X652309D01*
X775000Y1242995D02*
Y1278997D01*
X240000Y125787D02*
X248787Y117000D01*
X267000D01*
X267500Y117500D01*
Y74500D02*
X268250Y75250D01*
X326750D02*
X327500Y76000D01*
D106*
X2335000Y1435000D02*
X2357500D01*
X2162500Y747500D02*
X2412500D01*
X300000Y133500D02*
X312500Y146000D01*
X300000Y75250D02*
Y133500D01*
X1256250Y278750D02*
X1277500D01*
X440000Y1431000D02*
X442500Y1428500D01*
X440000Y1431000D02*
Y1440000D01*
X442500Y1428500D02*
X475000D01*
X587500Y1263500D02*
X597500D01*
X607500D01*
X746995Y1603500D02*
X867500D01*
X740247Y1610247D02*
X746995Y1603500D01*
X867500D02*
X892500Y1628500D01*
X735000Y1615495D02*
X740247Y1610247D01*
X124250Y1266250D02*
Y1272500D01*
Y1278750D01*
Y466250D02*
Y472500D01*
Y478750D01*
Y868750D02*
Y875000D01*
Y881250D01*
X1630000Y340000D02*
Y344142D01*
X2515000Y70000D02*
Y77500D01*
Y85000D01*
X2590000Y70000D02*
Y77500D01*
Y85000D01*
X2497500Y727004D02*
X2504246D01*
X2491746D02*
X2497500D01*
X2270000Y292500D02*
Y310000D01*
X2452500Y1455000D02*
X2470000D01*
X2440000D02*
X2452500D01*
X2402500Y212500D02*
X2412500D01*
X2392500D02*
X2402500D01*
X2405000Y1495000D02*
X2410000Y1490000D01*
Y1480000D02*
Y1490000D01*
Y1480000D02*
X2420000Y1470000D01*
X2391000Y1495000D02*
X2405000D01*
X2270000Y310000D02*
X2277500D01*
X2262500D02*
X2270000D01*
X2270000Y292500D02*
X2270000D01*
X2270000Y252500D02*
Y272500D01*
Y212500D02*
Y232500D01*
X2420000Y1470000D02*
X2437500D01*
X2357500Y1428750D02*
Y1435000D01*
Y1441250D01*
X2320000Y1420000D02*
X2335000Y1435000D01*
X2440000Y1455000D02*
Y1467500D01*
X2437500Y1470000D02*
X2440000Y1467500D01*
X2610110Y998400D02*
X2610605Y997905D01*
X2572710Y992047D02*
X2579063Y998400D01*
X2610110D01*
X2572710Y914246D02*
Y992047D01*
X2610605Y997905D02*
X2611100Y998400D01*
X2329000Y1495000D02*
Y1539000D01*
X2140000Y770000D02*
Y805000D01*
Y770000D02*
X2162500Y747500D01*
X2412500D02*
Y753750D01*
Y741250D02*
Y747500D01*
X2292500Y1420000D02*
X2320000D01*
X1560000Y390000D02*
X1570000D01*
X1590000D02*
X1600000D01*
X1550000D02*
X1560000D01*
X1600000D02*
X1610000D01*
X1600000Y370000D02*
X1695000D01*
X1590000Y360000D02*
X1600000Y370000D01*
X1695000D02*
X1712500Y352500D01*
X1812500Y172500D02*
Y275400D01*
X1802500Y162500D02*
X1812500Y172500D01*
X1770000Y162500D02*
X1802500D01*
X1831335Y295765D02*
X1832100Y295000D01*
X1630000Y344142D02*
X1630001Y344141D01*
X1812500Y275400D02*
X1832100Y295000D01*
X1277500Y240000D02*
Y247500D01*
Y232500D02*
Y240000D01*
X1277350Y240150D02*
X1277500Y240000D01*
X1257350Y240150D02*
X1277350D01*
X1256000Y241500D02*
X1257350Y240150D01*
X1277500Y278750D02*
Y285000D01*
Y272500D02*
Y278750D01*
X1256000Y278500D02*
X1256250Y278750D01*
X1217500Y289500D02*
X1220000Y287000D01*
X1677500Y350000D02*
X1687500Y340000D01*
X1635858Y350000D02*
X1677500D01*
X1630000Y344142D02*
X1635858Y350000D01*
X1230000Y150000D02*
Y170000D01*
X1220000Y180000D02*
X1230000Y170000D01*
X1868000Y262500D02*
X1922500D01*
X1922500D01*
X1857500Y273000D02*
X1868000Y262500D01*
X1857500Y273000D02*
Y295000D01*
X1885000Y242500D02*
X1922500D01*
X1875000Y232500D02*
X1885000Y242500D01*
X1875000Y155000D02*
Y232500D01*
X1922500Y242500D02*
Y262500D01*
Y222500D02*
Y242500D01*
X1712500Y232500D02*
Y352500D01*
X1702500Y162500D02*
X1770000D01*
Y187500D01*
X1687500Y177500D02*
X1702500Y162500D01*
X1687500Y177500D02*
Y340000D01*
X1770000Y187500D02*
Y197500D01*
X1782500Y295000D02*
X1806700D01*
X1770000Y282500D02*
X1782500Y295000D01*
X1770000Y227500D02*
Y282500D01*
X1630000Y327498D02*
X1630001Y327497D01*
X1630000Y327498D02*
X1630001Y327499D01*
X1630000Y327500D02*
X1630001Y327499D01*
X1630000Y280000D02*
Y297500D01*
Y265000D02*
Y280000D01*
X1590000Y290000D02*
Y360000D01*
Y290000D02*
X1600000Y280000D01*
X1630000D01*
X807500Y1305000D02*
X842500D01*
X885000Y1206000D02*
X890000Y1201000D01*
X897500Y811000D02*
Y903500D01*
X882500Y796000D02*
X897500Y811000D01*
Y903500D02*
X910000Y916000D01*
X807500Y1305000D02*
Y1358500D01*
Y1276000D02*
Y1305000D01*
X791500Y1374500D02*
X807500Y1358500D01*
X1380000Y142500D02*
X1415000Y107500D01*
X1630000D01*
Y200000D02*
Y235000D01*
Y137500D02*
Y170000D01*
X200000Y1854142D02*
X205858Y1860000D01*
X200000Y1840000D02*
Y1854142D01*
X205858Y1860000D02*
X239142D01*
X245000Y1854142D01*
Y1836000D02*
Y1854142D01*
X200000Y1440000D02*
Y1454142D01*
X205858Y1460000D01*
X239142D01*
X245000Y1454142D01*
Y1436000D02*
Y1454142D01*
X200000Y1040000D02*
Y1054142D01*
X205858Y1060000D01*
X239142D01*
X245000Y1054142D01*
Y1036000D02*
Y1054142D01*
Y636000D02*
Y654142D01*
X239142Y660000D02*
X245000Y654142D01*
X205858Y660000D02*
X239142D01*
X200000Y654142D02*
X205858Y660000D01*
X200000Y640000D02*
Y654142D01*
X355858Y728500D02*
X472500D01*
X350000Y701000D02*
Y722642D01*
X355858Y728500D01*
X640000Y706000D02*
X640000Y706000D01*
X475000Y701000D02*
Y731000D01*
X350000Y679000D02*
Y701000D01*
X472500Y728500D02*
X475000Y731000D01*
Y743500D02*
X490000Y758500D01*
X475000Y731000D02*
Y743500D01*
X490000Y758500D02*
X629142D01*
X355858Y1128500D02*
X472500D01*
X350000Y1101000D02*
Y1122642D01*
X475000Y1101000D02*
Y1131000D01*
X640000Y1106000D02*
X640000Y1106000D01*
X350000Y1122642D02*
X355858Y1128500D01*
X350000Y1079000D02*
Y1101000D01*
X472500Y1128500D02*
X475000Y1131000D01*
X797500Y1711000D02*
Y1768500D01*
Y1711000D02*
X803500Y1705000D01*
X791500Y1774500D02*
X797500Y1768500D01*
X745000Y381000D02*
X942500D01*
X735000Y391000D02*
X745000Y381000D01*
X735000Y391000D02*
Y442995D01*
X947500Y386000D02*
Y421000D01*
X942500Y381000D02*
X947500Y386000D01*
X938358Y430142D02*
X947500Y421000D01*
X905858Y430142D02*
X938358D01*
X927500Y407250D02*
Y413500D01*
Y401000D02*
Y407250D01*
X926250Y406000D02*
X927500Y407250D01*
X877500Y406000D02*
X926250D01*
X847500Y436000D02*
X877500Y406000D01*
X810000Y436000D02*
X847500D01*
X900000D02*
X905858Y430142D01*
X900000Y436000D02*
Y503500D01*
X812500Y438500D02*
Y461000D01*
X810000Y436000D02*
X812500Y438500D01*
X800000Y436000D02*
X810000D01*
X900000Y503500D02*
X912500Y516000D01*
X935000D01*
X1231000Y826000D02*
Y851000D01*
Y801000D02*
Y826000D01*
X1270000Y841000D02*
Y911000D01*
X1255000Y826000D02*
X1270000Y841000D01*
X1231000Y826000D02*
X1255000D01*
X841500Y461000D02*
X847500Y467000D01*
X812500Y461000D02*
X841500D01*
X797500Y516000D02*
Y566500D01*
Y516000D02*
X803500Y510000D01*
X789500Y574500D02*
X797500Y566500D01*
X750000Y574500D02*
X789500D01*
X803500Y510000D02*
X812500D01*
Y481000D02*
Y510000D01*
X735000Y815495D02*
X754495Y796000D01*
X882500D01*
X791500Y917000D02*
Y967000D01*
X784000Y974500D02*
X791500Y967000D01*
X750000Y974500D02*
X784000D01*
X791500Y917000D02*
X798500Y910000D01*
X533071Y616571D02*
X535000Y618500D01*
X533071Y604929D02*
Y616571D01*
X529142Y601000D02*
X533071Y604929D01*
X502500Y601000D02*
X529142D01*
X487500Y616000D02*
X502500Y601000D01*
X475000Y616000D02*
X487500D01*
X475000Y646000D02*
Y671000D01*
X597500Y463500D02*
X607500D01*
X587500D02*
X597500D01*
X440000Y631000D02*
Y640000D01*
Y631000D02*
X442500Y628500D01*
X475000D02*
X475000Y628500D01*
X442500Y628500D02*
X475000D01*
X475000Y616000D02*
Y628500D01*
X410000Y702000D02*
X440000D01*
X410000Y701000D02*
Y702000D01*
X705500Y574500D02*
X707500D01*
X750000D01*
X372250Y628250D02*
X405000D01*
X365800Y611000D02*
Y621800D01*
X372250Y628250D01*
X370000Y701000D02*
X390000D01*
X640000Y706000D02*
Y747642D01*
X629142Y758500D02*
X640000Y747642D01*
X580000Y706000D02*
Y735142D01*
X574142Y741000D02*
X580000Y735142D01*
X510000Y741000D02*
X574142D01*
X495000Y726000D02*
X510000Y741000D01*
X495000Y676000D02*
Y726000D01*
X490000Y671000D02*
X495000Y676000D01*
X475000Y671000D02*
X490000D01*
X315000Y611000D02*
Y626000D01*
X305000Y636000D02*
X315000Y626000D01*
X245000Y636000D02*
X305000D01*
X410000Y686000D02*
Y701000D01*
X405450Y676000D02*
Y681450D01*
X410000Y686000D01*
X380000Y676000D02*
X405450D01*
X405000Y661000D02*
X405450Y661450D01*
Y676000D01*
X350000Y679000D02*
X350000Y679000D01*
Y676000D02*
Y679000D01*
Y646000D02*
Y676000D01*
X340400Y636400D02*
X350000Y646000D01*
X340400Y611000D02*
Y636400D01*
X533071Y1016571D02*
X535000Y1018500D01*
X533071Y1004929D02*
Y1016571D01*
X529142Y1001000D02*
X533071Y1004929D01*
X502500Y1001000D02*
X529142D01*
X487500Y1016000D02*
X502500Y1001000D01*
X475000Y1016000D02*
X487500D01*
X475000Y1046000D02*
Y1071000D01*
X597500Y863500D02*
X607500D01*
X587500D02*
X597500D01*
X440000Y1031000D02*
Y1040000D01*
Y1031000D02*
X442500Y1028500D01*
X475000D02*
X475000Y1028500D01*
X442500Y1028500D02*
X475000D01*
X475000Y1016000D02*
Y1028500D01*
X410000Y1102000D02*
X440000D01*
X410000Y1101000D02*
Y1102000D01*
X705500Y974500D02*
X707500D01*
X750000D01*
X372250Y1028250D02*
X405000D01*
X365800Y1011000D02*
Y1021800D01*
X372250Y1028250D01*
X370000Y1101000D02*
X390000D01*
X640000Y1106000D02*
Y1147642D01*
X629142Y1158500D02*
X640000Y1147642D01*
X490000Y1158500D02*
X629142D01*
X475000Y1143500D02*
X490000Y1158500D01*
X475000Y1131000D02*
Y1143500D01*
X580000Y1106000D02*
Y1135142D01*
X574142Y1141000D02*
X580000Y1135142D01*
X510000Y1141000D02*
X574142D01*
X495000Y1126000D02*
X510000Y1141000D01*
X495000Y1076000D02*
Y1126000D01*
X490000Y1071000D02*
X495000Y1076000D01*
X475000Y1071000D02*
X490000D01*
X735000Y815495D02*
Y842995D01*
X315000Y1011000D02*
Y1026000D01*
X305000Y1036000D02*
X315000Y1026000D01*
X245000Y1036000D02*
X305000D01*
X410000Y1086000D02*
Y1101000D01*
X405450Y1076000D02*
Y1081450D01*
X410000Y1086000D01*
X380000Y1076000D02*
X405450D01*
X405000Y1061000D02*
X405450Y1061450D01*
Y1076000D01*
X350000Y1079000D02*
X350000Y1079000D01*
Y1076000D02*
Y1079000D01*
Y1046000D02*
Y1076000D01*
X340400Y1036400D02*
X350000Y1046000D01*
X340400Y1011000D02*
Y1036400D01*
X533071Y1816571D02*
X535000Y1818500D01*
X533071Y1804929D02*
Y1816571D01*
X529142Y1801000D02*
X533071Y1804929D01*
X502500Y1801000D02*
X529142D01*
X487500Y1816000D02*
X502500Y1801000D01*
X475000Y1816000D02*
X487500D01*
X475000Y1846000D02*
Y1871000D01*
X597500Y1663500D02*
X607500D01*
X587500D02*
X597500D01*
X440000Y1831000D02*
Y1840000D01*
Y1831000D02*
X442500Y1828500D01*
X475000D02*
X475000Y1828500D01*
X442500Y1828500D02*
X475000D01*
X475000Y1816000D02*
Y1828500D01*
X410000Y1902000D02*
X440000D01*
X410000Y1901000D02*
Y1902000D01*
X705500Y1774500D02*
X707500D01*
X750000D02*
X791500D01*
X707500D02*
X750000D01*
X372250Y1828250D02*
X405000D01*
X365800Y1811000D02*
Y1821800D01*
X372250Y1828250D01*
X370000Y1901000D02*
X390000D01*
X640000Y1906000D02*
Y1947642D01*
X640000Y1906000D02*
X640000Y1906000D01*
X629142Y1958500D02*
X640000Y1947642D01*
X490000Y1958500D02*
X629142D01*
X475000Y1943500D02*
X490000Y1958500D01*
X475000Y1931000D02*
Y1943500D01*
X472500Y1928500D02*
X475000Y1931000D01*
Y1901000D02*
Y1931000D01*
X355858Y1928500D02*
X472500D01*
X350000Y1922642D02*
X355858Y1928500D01*
X350000Y1901000D02*
Y1922642D01*
X580000Y1906000D02*
Y1935142D01*
X574142Y1941000D02*
X580000Y1935142D01*
X510000Y1941000D02*
X574142D01*
X495000Y1926000D02*
X510000Y1941000D01*
X495000Y1876000D02*
Y1926000D01*
X490000Y1871000D02*
X495000Y1876000D01*
X475000Y1871000D02*
X490000D01*
X735000Y1615495D02*
Y1642995D01*
X315000Y1811000D02*
Y1826000D01*
X305000Y1836000D02*
X315000Y1826000D01*
X245000Y1836000D02*
X305000D01*
X410000Y1886000D02*
Y1901000D01*
X405450Y1876000D02*
Y1881450D01*
X410000Y1886000D01*
X380000Y1876000D02*
X405450D01*
X405000Y1861000D02*
X405450Y1861450D01*
Y1876000D01*
X350000Y1879000D02*
Y1901000D01*
Y1879000D02*
X350000Y1879000D01*
Y1876000D02*
Y1879000D01*
Y1846000D02*
Y1876000D01*
X340400Y1836400D02*
X350000Y1846000D01*
X340400Y1811000D02*
Y1836400D01*
X475000Y1416000D02*
Y1428500D01*
X475000Y1428500D02*
X475000Y1428500D01*
X502500Y1401000D02*
X529142D01*
X487500Y1416000D02*
X502500Y1401000D01*
X475000Y1416000D02*
X487500D01*
X529142Y1401000D02*
X533071Y1404929D01*
X744495Y1206000D02*
X885000D01*
X750000Y1374500D02*
X791500D01*
X812500Y910000D02*
X847500D01*
X798500D02*
X812500D01*
Y881000D02*
Y910000D01*
Y510000D02*
X847500D01*
X812500Y1702500D02*
X815000Y1705000D01*
X812500Y1676000D02*
Y1702500D01*
X815000Y1705000D02*
X847500D01*
X803500D02*
X815000D01*
X892500Y1696000D02*
X910000Y1713500D01*
X892500Y1628500D02*
Y1696000D01*
X910000Y1713500D02*
X937500D01*
X910000Y916000D02*
X937500D01*
X935000Y516000D02*
X937500Y518500D01*
X735000Y1215495D02*
X744495Y1206000D01*
X735000Y1215495D02*
Y1242995D01*
X707500Y1374500D02*
X750000D01*
X533071Y1416571D02*
X535000Y1418500D01*
X475000Y1446000D02*
Y1471000D01*
X533071Y1404929D02*
Y1416571D01*
X410000Y1502000D02*
X440000D01*
X410000Y1501000D02*
Y1502000D01*
X705500Y1374500D02*
X707500D01*
X372250Y1428250D02*
X405000D01*
X365800Y1421800D02*
X372250Y1428250D01*
X365800Y1411000D02*
Y1421800D01*
X370000Y1501000D02*
X390000D01*
X580000Y1506000D02*
Y1535142D01*
X574142Y1541000D02*
X580000Y1535142D01*
X510000Y1541000D02*
X574142D01*
X495000Y1526000D02*
X510000Y1541000D01*
X495000Y1476000D02*
Y1526000D01*
X490000Y1471000D02*
X495000Y1476000D01*
X475000Y1471000D02*
X490000D01*
X640000Y1506000D02*
Y1547642D01*
X640000Y1506000D02*
X640000Y1506000D01*
X629142Y1558500D02*
X640000Y1547642D01*
X490000Y1558500D02*
X629142D01*
X475000Y1543500D02*
X490000Y1558500D01*
X475000Y1531000D02*
Y1543500D01*
X472500Y1528500D02*
X475000Y1531000D01*
Y1501000D02*
Y1531000D01*
X355858Y1528500D02*
X472500D01*
X350000Y1522642D02*
X355858Y1528500D01*
X350000Y1501000D02*
Y1522642D01*
X315000Y1411000D02*
Y1426000D01*
X305000Y1436000D02*
X315000Y1426000D01*
X245000Y1436000D02*
X305000D01*
X350000Y1479000D02*
Y1501000D01*
Y1479000D02*
X350000Y1479000D01*
Y1476000D02*
Y1479000D01*
Y1446000D02*
Y1476000D01*
X340400Y1436400D02*
X350000Y1446000D01*
X340400Y1411000D02*
Y1436400D01*
X410000Y1486000D02*
Y1501000D01*
X405450Y1481450D02*
X410000Y1486000D01*
X405450Y1476000D02*
Y1481450D01*
X380000Y1476000D02*
X405450D01*
X405000Y1461000D02*
X405450Y1461450D01*
Y1476000D01*
X312500Y146000D02*
Y156000D01*
D107*
X332500Y76000D02*
X381000D01*
X327500D02*
X332500D01*
D108*
X530000Y291910D02*
Y360000D01*
X507500Y382500D02*
X530000Y360000D01*
X530000Y291910D02*
X530000Y291910D01*
X435000Y382500D02*
X507500D01*
X30000Y1162500D02*
X30000Y767500D01*
X30000Y1500000D02*
X30000Y1162500D01*
X432500Y1162500D01*
X30000Y767500D02*
X432500Y767500D01*
X30000Y430000D02*
Y767500D01*
X30000Y1500000D02*
X102500Y1572500D01*
X77500Y382500D02*
X435000Y382500D01*
X30000Y430000D02*
X77500Y382500D01*
X102500Y1572500D02*
X435000D01*
X432500Y767500D02*
X452500D01*
X432500Y1162500D02*
X452500D01*
X435000Y1572500D02*
X460000D01*
D109*
X2252500Y1401500D02*
Y1405000D01*
X2248000Y1397000D02*
X2252500Y1401500D01*
X2175500Y820000D02*
X2180000Y824500D01*
X2175500Y816500D02*
Y820000D01*
X2558452Y886746D02*
X2560210Y884989D01*
X2547710Y886746D02*
X2558452D01*
X2547210Y886246D02*
X2547710Y886746D01*
X2560210Y869246D02*
Y884989D01*
X2558210Y867246D02*
X2560210Y869246D01*
X2547210Y867246D02*
X2558210D01*
X2217500Y1417500D02*
X2220500Y1414500D01*
X2238400D01*
X1945000Y194500D02*
X1962000D01*
X1965000Y197500D01*
X1962000Y220500D02*
X1965000Y217500D01*
X1945000Y220500D02*
X1962000D01*
X1911500Y204000D02*
X1942500D01*
X1908650Y201150D02*
X1911500Y204000D01*
X1895000Y201150D02*
X1908650D01*
X1945000Y194500D02*
Y201500D01*
X1942500Y204000D02*
X1945000Y201500D01*
X1943500Y211000D02*
X1945000Y212500D01*
X1911500Y211000D02*
X1943500D01*
X1908650Y213850D02*
X1911500Y211000D01*
X1895000Y213850D02*
X1908650D01*
X1945000Y212500D02*
Y220500D01*
X2238400Y1405000D02*
X2249500D01*
X2237500D02*
X2238400D01*
X2281100Y1420000D02*
X2292500D01*
X2275600Y1414500D02*
X2281100Y1420000D01*
X2266600Y1414500D02*
X2275600D01*
X2255500Y1405000D02*
X2265700D01*
X2252500D02*
X2255500D01*
X2249500D02*
X2252500D01*
X2244500Y1397000D02*
X2248000D01*
X2243250Y1395750D02*
X2244500Y1397000D01*
X2238650Y1395750D02*
X2243250D01*
X2238400Y1395500D02*
X2238650Y1395750D01*
X2262500Y1370000D02*
X2262500D01*
X2275743D01*
X2277500Y1371757D01*
Y1393600D01*
X2275600Y1395500D02*
X2277500Y1393600D01*
X2266600Y1395500D02*
X2275600D01*
X2154000Y848500D02*
X2155500Y850000D01*
X2154000Y827757D02*
Y848500D01*
X2155500Y850000D02*
X2165000D01*
X2154000Y827757D02*
X2155757Y826000D01*
X2161400D01*
X2161400Y826000D01*
X2209500Y807000D02*
X2210000Y807500D01*
X2189600Y807000D02*
X2209500D01*
X2180000Y824500D02*
X2183500D01*
X2184750Y825750D01*
X2189350D01*
X2189600Y826000D01*
X2161400Y816500D02*
X2172500D01*
X2175500D01*
X2178500D01*
X2189600D01*
D110*
X617500Y160000D02*
X745000D01*
X760000Y60000D02*
Y145000D01*
X745000Y160000D02*
X760000Y145000D01*
X615000Y157500D02*
X617500Y160000D01*
X760000Y60000D02*
X787500Y32500D01*
X2450500Y1273000D02*
Y1372500D01*
X2407500Y1230000D02*
X2450500Y1273000D01*
X2407500Y905000D02*
Y1230000D01*
Y905000D02*
X2453000Y859500D01*
Y810000D02*
Y859500D01*
X787500Y32500D02*
X1815000D01*
X1875000Y92500D01*
Y155000D01*
X190000Y1840000D02*
X200000D01*
X210000D01*
X190000Y1440000D02*
X200000D01*
X210000D01*
X190000Y1040000D02*
X200000D01*
X210000D01*
X200000Y640000D02*
X210000D01*
X190000D02*
X200000D01*
D111*
X2140000Y805000D02*
X2142000Y807000D01*
X2161400D01*
D112*
X916000Y1316000D02*
X937500D01*
X890000Y1290000D02*
X916000Y1316000D01*
X890000Y1201000D02*
Y1290000D01*
X1469000Y1571000D02*
X1470000Y1570000D01*
X1390000Y1571000D02*
X1469000D01*
X1090000Y1197261D02*
X1176261D01*
X1090000Y1064739D02*
Y1131000D01*
X937500Y1261500D02*
X1019500D01*
X890000Y1151000D02*
Y1201000D01*
X987500Y1713500D02*
X990000Y1711000D01*
X937500Y1713500D02*
X987500D01*
D113*
X997500Y518500D02*
X1000000Y521000D01*
X937500Y518500D02*
X997500D01*
D114*
X2630000Y500500D02*
D03*
X2735000Y525500D02*
D03*
X2270000Y500500D02*
D03*
X2375000Y525500D02*
D03*
X1910000Y500500D02*
D03*
X2015000Y525500D02*
D03*
X2635000Y1675000D02*
D03*
X2740000Y1700000D02*
D03*
X2275000Y1675000D02*
D03*
X2380000Y1700000D02*
D03*
X1915000Y1675000D02*
D03*
X2020000Y1700000D02*
D03*
D115*
X3150000Y50000D02*
D03*
X1730000Y1900000D02*
D03*
Y100000D02*
D03*
X3150000Y1950000D02*
D03*
X50000D02*
D03*
Y50000D02*
D03*
X1167500Y518500D02*
D03*
Y1316000D02*
D03*
Y1713500D02*
D03*
Y916000D02*
D03*
D116*
X2745041Y1315066D02*
D03*
X2770440D02*
D03*
X2795840D02*
D03*
X2821241D02*
D03*
X2770440Y1340466D02*
D03*
X2745041D02*
D03*
X2719641D02*
D03*
Y1315066D02*
D03*
X2795840Y1340466D02*
D03*
X2821241D02*
D03*
X2770440Y1238866D02*
D03*
X2745041D02*
D03*
X2719641D02*
D03*
X2795840D02*
D03*
X2821241D02*
D03*
X2719641Y1289666D02*
D03*
Y1264266D02*
D03*
X2745041Y1289666D02*
D03*
X2770440D02*
D03*
X2795840D02*
D03*
X2821241D02*
D03*
Y1264266D02*
D03*
X2795840D02*
D03*
X2770440D02*
D03*
X2745041D02*
D03*
Y915066D02*
D03*
X2770440D02*
D03*
X2795840D02*
D03*
X2821241D02*
D03*
X2770440Y940466D02*
D03*
X2745041D02*
D03*
X2719641D02*
D03*
Y915066D02*
D03*
X2795840Y940466D02*
D03*
X2821241D02*
D03*
X2770440Y838866D02*
D03*
X2745041D02*
D03*
X2719641D02*
D03*
X2795840D02*
D03*
X2821241D02*
D03*
X2719641Y889666D02*
D03*
Y864266D02*
D03*
X2745041Y889666D02*
D03*
X2770440D02*
D03*
X2795840D02*
D03*
X2821241D02*
D03*
Y864266D02*
D03*
X2795840D02*
D03*
X2770440D02*
D03*
X2745041D02*
D03*
X540000Y171000D02*
D03*
X447500D02*
D03*
X390000D02*
D03*
X625000Y1019502D02*
D03*
X535000Y1053500D02*
D03*
X625000Y1419502D02*
D03*
X535000Y1453500D02*
D03*
X625000Y1819502D02*
D03*
X535000Y1853500D02*
D03*
Y653500D02*
D03*
X625000Y619502D02*
D03*
X2611100Y998400D02*
D03*
X2636500D02*
D03*
X2661900D02*
D03*
D117*
X2377100Y152900D02*
D03*
X2427900D02*
D03*
Y102100D02*
D03*
X2377100D02*
D03*
X2259600Y152900D02*
D03*
X2310400D02*
D03*
Y102100D02*
D03*
X2259600D02*
D03*
X2142100Y152900D02*
D03*
X2192900D02*
D03*
Y102100D02*
D03*
X2142100D02*
D03*
X2024600Y152900D02*
D03*
X2075400D02*
D03*
Y102100D02*
D03*
X2024600D02*
D03*
D118*
X2402500Y127500D02*
D03*
X2285000D02*
D03*
X2167500D02*
D03*
X2050000D02*
D03*
D119*
X1112500Y691000D02*
D03*
X1387500D02*
D03*
X1330000Y1438500D02*
D03*
Y1163500D02*
D03*
Y826000D02*
D03*
Y1101000D02*
D03*
X1390000Y1571000D02*
D03*
X1115000D02*
D03*
D120*
X575000Y171000D02*
D03*
X482500D02*
D03*
X355000D02*
D03*
D121*
X1090000Y1197261D02*
D03*
Y1064739D02*
D03*
D122*
X289600Y1011000D02*
D03*
X315000D02*
D03*
X340400D02*
D03*
X365800D02*
D03*
X289600Y1411000D02*
D03*
X315000D02*
D03*
X340400D02*
D03*
X365800D02*
D03*
X289600Y1811000D02*
D03*
X315000D02*
D03*
X340400D02*
D03*
X365800D02*
D03*
Y611000D02*
D03*
X340400D02*
D03*
X315000D02*
D03*
X289600D02*
D03*
X1882900Y295000D02*
D03*
X1857500D02*
D03*
X1832100D02*
D03*
X1806700D02*
D03*
D123*
X625000Y1054502D02*
D03*
X535000Y1018500D02*
D03*
X625000Y1454502D02*
D03*
X535000Y1418500D02*
D03*
X625000Y1854502D02*
D03*
X535000Y1818500D02*
D03*
Y618500D02*
D03*
X625000Y654502D02*
D03*
D124*
X190000Y170000D02*
D03*
D125*
Y265000D02*
D03*
D126*
X2700000Y1125400D02*
D03*
Y1100000D02*
D03*
X2573000Y1125400D02*
D03*
Y1100000D02*
D03*
X2700000Y1074600D02*
D03*
X2573000D02*
D03*
D127*
X1380000Y142500D02*
D03*
D128*
Y217500D02*
D03*
D129*
X850000Y140000D02*
D03*
X750000Y340000D02*
D03*
X737500Y315000D02*
D03*
X750000Y290000D02*
D03*
X737500Y265000D02*
D03*
X750000Y240000D02*
D03*
X737500Y215000D02*
D03*
X725000Y340000D02*
D03*
X712500Y315000D02*
D03*
X725000Y290000D02*
D03*
X712500Y265000D02*
D03*
X725000Y240000D02*
D03*
X712500Y215000D02*
D03*
X700000Y340000D02*
D03*
X687500Y315000D02*
D03*
X700000Y290000D02*
D03*
X687500Y265000D02*
D03*
X700000Y240000D02*
D03*
X687500Y215000D02*
D03*
X700000Y190000D02*
D03*
Y140000D02*
D03*
X687500Y115000D02*
D03*
X700000Y90000D02*
D03*
X687500Y15000D02*
D03*
X675000Y340000D02*
D03*
X662500Y315000D02*
D03*
X675000Y290000D02*
D03*
X662500Y265000D02*
D03*
X675000Y240000D02*
D03*
X662500Y215000D02*
D03*
X675000Y190000D02*
D03*
Y140000D02*
D03*
X662500Y115000D02*
D03*
X675000Y90000D02*
D03*
X662500Y15000D02*
D03*
X650000Y140000D02*
D03*
X637500Y115000D02*
D03*
X650000Y90000D02*
D03*
X637500Y15000D02*
D03*
X612500Y115000D02*
D03*
X625000Y90000D02*
D03*
X612500Y15000D02*
D03*
X587500Y215000D02*
D03*
Y115000D02*
D03*
X600000Y90000D02*
D03*
X587500Y15000D02*
D03*
X562500Y115000D02*
D03*
X575000Y90000D02*
D03*
X562500Y15000D02*
D03*
X550000Y190000D02*
D03*
Y140000D02*
D03*
X537500Y115000D02*
D03*
X550000Y90000D02*
D03*
X537500Y15000D02*
D03*
X512500Y115000D02*
D03*
Y15000D02*
D03*
X487500Y1615000D02*
D03*
Y815000D02*
D03*
Y415000D02*
D03*
Y65000D02*
D03*
X500000Y40000D02*
D03*
X487500Y15000D02*
D03*
X462500Y1615000D02*
D03*
Y1215000D02*
D03*
X475000Y840000D02*
D03*
X462500Y815000D02*
D03*
X475000Y440000D02*
D03*
X462500Y415000D02*
D03*
Y315000D02*
D03*
X475000Y40000D02*
D03*
X462500Y15000D02*
D03*
X450000Y1190000D02*
D03*
Y340000D02*
D03*
X437500Y315000D02*
D03*
Y115000D02*
D03*
X450000Y90000D02*
D03*
Y40000D02*
D03*
X437500Y15000D02*
D03*
X412500Y565000D02*
D03*
X425000Y190000D02*
D03*
X412500Y165000D02*
D03*
X425000Y140000D02*
D03*
X412500Y115000D02*
D03*
X425000Y40000D02*
D03*
X412500Y15000D02*
D03*
X400000Y1640000D02*
D03*
X387500Y1615000D02*
D03*
X400000Y1240000D02*
D03*
X387500Y1215000D02*
D03*
X400000Y1190000D02*
D03*
Y840000D02*
D03*
X387500Y815000D02*
D03*
X400000Y440000D02*
D03*
X387500Y415000D02*
D03*
X400000Y140000D02*
D03*
X387500Y115000D02*
D03*
X400000Y40000D02*
D03*
X387500Y15000D02*
D03*
X362500Y1615000D02*
D03*
Y1215000D02*
D03*
X375000Y1190000D02*
D03*
X362500Y815000D02*
D03*
Y415000D02*
D03*
X375000Y40000D02*
D03*
X362500Y15000D02*
D03*
X337500Y1615000D02*
D03*
Y1215000D02*
D03*
X350000Y1190000D02*
D03*
X337500Y815000D02*
D03*
Y415000D02*
D03*
X350000Y40000D02*
D03*
X337500Y15000D02*
D03*
X312500Y1915000D02*
D03*
X325000Y1890000D02*
D03*
X312500Y1865000D02*
D03*
Y1615000D02*
D03*
X325000Y1540000D02*
D03*
X312500Y1515000D02*
D03*
X325000Y1490000D02*
D03*
X312500Y1465000D02*
D03*
Y1215000D02*
D03*
X325000Y1190000D02*
D03*
X312500Y1115000D02*
D03*
X325000Y1090000D02*
D03*
X312500Y1065000D02*
D03*
Y815000D02*
D03*
X325000Y740000D02*
D03*
X312500Y715000D02*
D03*
X325000Y690000D02*
D03*
X312500Y665000D02*
D03*
Y415000D02*
D03*
X325000Y40000D02*
D03*
X312500Y15000D02*
D03*
X287500Y1915000D02*
D03*
X300000Y1890000D02*
D03*
X287500Y1865000D02*
D03*
Y1665000D02*
D03*
X300000Y1640000D02*
D03*
X287500Y1615000D02*
D03*
X300000Y1540000D02*
D03*
X287500Y1515000D02*
D03*
X300000Y1490000D02*
D03*
X287500Y1465000D02*
D03*
Y1265000D02*
D03*
X300000Y1240000D02*
D03*
X287500Y1215000D02*
D03*
X300000Y1190000D02*
D03*
X287500Y1115000D02*
D03*
X300000Y1090000D02*
D03*
X287500Y1065000D02*
D03*
Y865000D02*
D03*
X300000Y840000D02*
D03*
X287500Y815000D02*
D03*
X300000Y740000D02*
D03*
X287500Y715000D02*
D03*
X300000Y690000D02*
D03*
X287500Y665000D02*
D03*
Y465000D02*
D03*
X300000Y440000D02*
D03*
X287500Y415000D02*
D03*
X300000Y340000D02*
D03*
X287500Y315000D02*
D03*
X300000Y40000D02*
D03*
X287500Y15000D02*
D03*
X262500Y1915000D02*
D03*
X275000Y1890000D02*
D03*
X262500Y1865000D02*
D03*
Y1815000D02*
D03*
Y1665000D02*
D03*
X275000Y1640000D02*
D03*
X262500Y1615000D02*
D03*
X275000Y1540000D02*
D03*
X262500Y1515000D02*
D03*
X275000Y1490000D02*
D03*
X262500Y1465000D02*
D03*
Y1415000D02*
D03*
Y1265000D02*
D03*
X275000Y1240000D02*
D03*
X262500Y1215000D02*
D03*
X275000Y1190000D02*
D03*
X262500Y1115000D02*
D03*
X275000Y1090000D02*
D03*
X262500Y1065000D02*
D03*
Y1015000D02*
D03*
Y865000D02*
D03*
X275000Y840000D02*
D03*
X262500Y815000D02*
D03*
X275000Y740000D02*
D03*
X262500Y715000D02*
D03*
X275000Y690000D02*
D03*
X262500Y665000D02*
D03*
Y615000D02*
D03*
X275000Y40000D02*
D03*
X262500Y15000D02*
D03*
X237500Y1915000D02*
D03*
X250000Y1890000D02*
D03*
Y1690000D02*
D03*
X237500Y1665000D02*
D03*
X250000Y1640000D02*
D03*
X237500Y1615000D02*
D03*
X250000Y1540000D02*
D03*
X237500Y1515000D02*
D03*
X250000Y1490000D02*
D03*
Y1290000D02*
D03*
X237500Y1265000D02*
D03*
X250000Y1240000D02*
D03*
X237500Y1215000D02*
D03*
X250000Y1190000D02*
D03*
X237500Y1115000D02*
D03*
X250000Y1090000D02*
D03*
Y890000D02*
D03*
X237500Y865000D02*
D03*
X250000Y840000D02*
D03*
X237500Y815000D02*
D03*
X250000Y740000D02*
D03*
X237500Y715000D02*
D03*
X250000Y690000D02*
D03*
Y490000D02*
D03*
X237500Y65000D02*
D03*
X250000Y40000D02*
D03*
X237500Y15000D02*
D03*
X212500Y1915000D02*
D03*
X225000Y1890000D02*
D03*
X212500Y1815000D02*
D03*
X225000Y1690000D02*
D03*
X212500Y1665000D02*
D03*
X225000Y1640000D02*
D03*
X212500Y1615000D02*
D03*
X225000Y1540000D02*
D03*
X212500Y1515000D02*
D03*
X225000Y1490000D02*
D03*
X212500Y1415000D02*
D03*
X225000Y1290000D02*
D03*
X212500Y1265000D02*
D03*
X225000Y1240000D02*
D03*
X212500Y1215000D02*
D03*
X225000Y1190000D02*
D03*
X212500Y1115000D02*
D03*
X225000Y1090000D02*
D03*
X212500Y1015000D02*
D03*
X225000Y890000D02*
D03*
X212500Y865000D02*
D03*
X225000Y840000D02*
D03*
X212500Y815000D02*
D03*
X225000Y740000D02*
D03*
X212500Y715000D02*
D03*
X225000Y690000D02*
D03*
X212500Y615000D02*
D03*
Y415000D02*
D03*
Y315000D02*
D03*
Y215000D02*
D03*
Y115000D02*
D03*
Y65000D02*
D03*
X225000Y40000D02*
D03*
X212500Y15000D02*
D03*
X187500Y1915000D02*
D03*
X200000Y1890000D02*
D03*
Y1790000D02*
D03*
Y1690000D02*
D03*
X187500Y1665000D02*
D03*
X200000Y1640000D02*
D03*
X187500Y1615000D02*
D03*
X200000Y1540000D02*
D03*
X187500Y1515000D02*
D03*
X200000Y1490000D02*
D03*
Y1390000D02*
D03*
Y1290000D02*
D03*
X187500Y1265000D02*
D03*
X200000Y1240000D02*
D03*
X187500Y1215000D02*
D03*
X200000Y1190000D02*
D03*
X187500Y1115000D02*
D03*
X200000Y1090000D02*
D03*
Y990000D02*
D03*
Y890000D02*
D03*
X187500Y865000D02*
D03*
X200000Y840000D02*
D03*
X187500Y815000D02*
D03*
X200000Y740000D02*
D03*
X187500Y715000D02*
D03*
X200000Y690000D02*
D03*
Y590000D02*
D03*
X187500Y465000D02*
D03*
X200000Y440000D02*
D03*
X187500Y415000D02*
D03*
X200000Y340000D02*
D03*
X187500Y315000D02*
D03*
Y215000D02*
D03*
X200000Y140000D02*
D03*
X187500Y115000D02*
D03*
X200000Y90000D02*
D03*
X187500Y65000D02*
D03*
X200000Y40000D02*
D03*
X187500Y15000D02*
D03*
X162500Y1915000D02*
D03*
X175000Y1890000D02*
D03*
X162500Y1865000D02*
D03*
Y465000D02*
D03*
X175000Y440000D02*
D03*
X162500Y415000D02*
D03*
X175000Y340000D02*
D03*
X162500Y315000D02*
D03*
Y215000D02*
D03*
Y165000D02*
D03*
X175000Y140000D02*
D03*
X162500Y115000D02*
D03*
X175000Y90000D02*
D03*
X162500Y65000D02*
D03*
X175000Y40000D02*
D03*
X162500Y15000D02*
D03*
X137500Y1915000D02*
D03*
X150000Y1890000D02*
D03*
X137500Y1865000D02*
D03*
X150000Y490000D02*
D03*
X137500Y465000D02*
D03*
X150000Y440000D02*
D03*
X137500Y415000D02*
D03*
X150000Y340000D02*
D03*
X137500Y315000D02*
D03*
X150000Y290000D02*
D03*
X137500Y265000D02*
D03*
X150000Y240000D02*
D03*
X137500Y215000D02*
D03*
X150000Y190000D02*
D03*
X137500Y165000D02*
D03*
X150000Y140000D02*
D03*
X137500Y115000D02*
D03*
X150000Y90000D02*
D03*
X137500Y65000D02*
D03*
X150000Y40000D02*
D03*
X137500Y15000D02*
D03*
X112500Y1915000D02*
D03*
X125000Y1890000D02*
D03*
X112500Y1865000D02*
D03*
X125000Y1840000D02*
D03*
X112500Y1815000D02*
D03*
X125000Y1790000D02*
D03*
Y1690000D02*
D03*
X112500Y1665000D02*
D03*
X125000Y1640000D02*
D03*
X112500Y1615000D02*
D03*
X125000Y1540000D02*
D03*
X112500Y1515000D02*
D03*
X125000Y1490000D02*
D03*
X112500Y1465000D02*
D03*
X125000Y1440000D02*
D03*
X112500Y1415000D02*
D03*
X125000Y1390000D02*
D03*
Y1290000D02*
D03*
X112500Y1265000D02*
D03*
X125000Y1240000D02*
D03*
X112500Y1215000D02*
D03*
X125000Y1190000D02*
D03*
X112500Y1115000D02*
D03*
X125000Y1090000D02*
D03*
X112500Y1065000D02*
D03*
X125000Y1040000D02*
D03*
X112500Y1015000D02*
D03*
X125000Y990000D02*
D03*
X112500Y865000D02*
D03*
X125000Y840000D02*
D03*
X112500Y815000D02*
D03*
X125000Y740000D02*
D03*
X112500Y715000D02*
D03*
X125000Y690000D02*
D03*
X112500Y665000D02*
D03*
X125000Y640000D02*
D03*
X112500Y615000D02*
D03*
X125000Y590000D02*
D03*
Y490000D02*
D03*
X112500Y465000D02*
D03*
X125000Y440000D02*
D03*
X112500Y415000D02*
D03*
X125000Y340000D02*
D03*
X112500Y315000D02*
D03*
X125000Y290000D02*
D03*
X112500Y265000D02*
D03*
X125000Y240000D02*
D03*
X112500Y215000D02*
D03*
X125000Y190000D02*
D03*
X112500Y165000D02*
D03*
X125000Y140000D02*
D03*
X112500Y115000D02*
D03*
X125000Y90000D02*
D03*
X112500Y65000D02*
D03*
X125000Y40000D02*
D03*
X112500Y15000D02*
D03*
X100000Y1890000D02*
D03*
X87500Y1865000D02*
D03*
X100000Y1840000D02*
D03*
X87500Y1815000D02*
D03*
X100000Y1790000D02*
D03*
Y1690000D02*
D03*
X87500Y1665000D02*
D03*
X100000Y1640000D02*
D03*
X87500Y1615000D02*
D03*
Y1515000D02*
D03*
X100000Y1490000D02*
D03*
X87500Y1465000D02*
D03*
X100000Y1440000D02*
D03*
X87500Y1415000D02*
D03*
X100000Y1390000D02*
D03*
Y1290000D02*
D03*
X87500Y1265000D02*
D03*
X100000Y1240000D02*
D03*
X87500Y1215000D02*
D03*
X100000Y1190000D02*
D03*
X87500Y1115000D02*
D03*
X100000Y1090000D02*
D03*
X87500Y1065000D02*
D03*
X100000Y1040000D02*
D03*
X87500Y1015000D02*
D03*
X100000Y990000D02*
D03*
Y890000D02*
D03*
X87500Y865000D02*
D03*
X100000Y840000D02*
D03*
X87500Y815000D02*
D03*
X100000Y740000D02*
D03*
X87500Y715000D02*
D03*
X100000Y690000D02*
D03*
X87500Y665000D02*
D03*
X100000Y640000D02*
D03*
X87500Y615000D02*
D03*
X100000Y590000D02*
D03*
Y490000D02*
D03*
X87500Y465000D02*
D03*
X100000Y440000D02*
D03*
X87500Y415000D02*
D03*
X100000Y340000D02*
D03*
X87500Y315000D02*
D03*
X100000Y290000D02*
D03*
X87500Y265000D02*
D03*
X100000Y240000D02*
D03*
X87500Y215000D02*
D03*
X100000Y190000D02*
D03*
X87500Y165000D02*
D03*
X100000Y140000D02*
D03*
X87500Y115000D02*
D03*
X75000Y1890000D02*
D03*
X62500Y1865000D02*
D03*
X75000Y1840000D02*
D03*
X62500Y1815000D02*
D03*
X75000Y1640000D02*
D03*
Y1590000D02*
D03*
Y1490000D02*
D03*
Y1440000D02*
D03*
X62500Y1315000D02*
D03*
Y1265000D02*
D03*
X75000Y1240000D02*
D03*
X62500Y1215000D02*
D03*
X75000Y1190000D02*
D03*
X62500Y1115000D02*
D03*
X75000Y1090000D02*
D03*
X62500Y1065000D02*
D03*
X75000Y1040000D02*
D03*
X62500Y1015000D02*
D03*
X75000Y840000D02*
D03*
Y740000D02*
D03*
Y690000D02*
D03*
Y640000D02*
D03*
X62500Y465000D02*
D03*
X75000Y440000D02*
D03*
X62500Y365000D02*
D03*
X75000Y340000D02*
D03*
X62500Y315000D02*
D03*
X75000Y290000D02*
D03*
X62500Y265000D02*
D03*
X75000Y240000D02*
D03*
X62500Y215000D02*
D03*
X75000Y190000D02*
D03*
X62500Y165000D02*
D03*
X75000Y140000D02*
D03*
X62500Y115000D02*
D03*
X50000Y1890000D02*
D03*
X37500Y1865000D02*
D03*
X50000Y1840000D02*
D03*
X37500Y1815000D02*
D03*
Y1765000D02*
D03*
Y365000D02*
D03*
X50000Y340000D02*
D03*
X37500Y315000D02*
D03*
X50000Y290000D02*
D03*
X37500Y265000D02*
D03*
X50000Y240000D02*
D03*
X37500Y215000D02*
D03*
X50000Y190000D02*
D03*
X37500Y165000D02*
D03*
X50000Y140000D02*
D03*
X37500Y115000D02*
D03*
X25000Y1890000D02*
D03*
X12500Y1865000D02*
D03*
X25000Y1840000D02*
D03*
X12500Y1815000D02*
D03*
X25000Y1790000D02*
D03*
X12500Y1765000D02*
D03*
X25000Y1740000D02*
D03*
X12500Y1715000D02*
D03*
X25000Y1690000D02*
D03*
X12500Y1665000D02*
D03*
X25000Y1640000D02*
D03*
X12500Y1615000D02*
D03*
X25000Y1590000D02*
D03*
X12500Y1565000D02*
D03*
X25000Y1540000D02*
D03*
X12500Y1515000D02*
D03*
Y415000D02*
D03*
X25000Y390000D02*
D03*
X12500Y365000D02*
D03*
X25000Y340000D02*
D03*
X12500Y315000D02*
D03*
X25000Y290000D02*
D03*
X12500Y265000D02*
D03*
X25000Y240000D02*
D03*
X12500Y215000D02*
D03*
X25000Y190000D02*
D03*
X12500Y165000D02*
D03*
X25000Y140000D02*
D03*
X12500Y115000D02*
D03*
X360000Y971000D02*
D03*
X465000Y1796000D02*
D03*
X470000Y1786000D02*
D03*
X452500Y1407500D02*
D03*
X407500Y1353500D02*
D03*
X407500Y1333497D02*
D03*
Y1313497D02*
D03*
X407500Y1291000D02*
D03*
X407500Y1368500D02*
D03*
X470000Y1386000D02*
D03*
X479087Y1362487D02*
D03*
Y1349787D02*
D03*
X479000Y1324000D02*
D03*
X587500Y1263500D02*
D03*
X607500D02*
D03*
X485000Y1386000D02*
D03*
X479000Y1337000D02*
D03*
Y1312000D02*
D03*
X597500Y1263500D02*
D03*
X495000Y1220000D02*
D03*
X505000D02*
D03*
X510000Y421000D02*
D03*
X367500Y137500D02*
D03*
X355000D02*
D03*
X342500D02*
D03*
X492500Y140000D02*
D03*
X482500D02*
D03*
X472500D02*
D03*
X492500Y152500D02*
D03*
X482500D02*
D03*
X472500D02*
D03*
X447500Y71000D02*
D03*
X457500Y81000D02*
D03*
Y71000D02*
D03*
X240000Y616000D02*
D03*
X250000D02*
D03*
X2120000Y1260000D02*
D03*
X72500Y940000D02*
D03*
X57500D02*
D03*
X75000Y1743132D02*
D03*
X60000Y1335000D02*
D03*
X75000D02*
D03*
X60000Y1742500D02*
D03*
X124250Y466250D02*
D03*
Y478750D02*
D03*
Y868750D02*
D03*
Y881250D02*
D03*
X75000Y542500D02*
D03*
X62500D02*
D03*
X2100000Y1290000D02*
D03*
X2090000D02*
D03*
X2080000D02*
D03*
X2070000D02*
D03*
Y1220000D02*
D03*
Y1230000D02*
D03*
Y1240000D02*
D03*
Y1250000D02*
D03*
Y1260000D02*
D03*
Y1270000D02*
D03*
Y1280000D02*
D03*
X2130000Y1302500D02*
D03*
X2140000D02*
D03*
X2120000Y1270000D02*
D03*
X2110000Y1280000D02*
D03*
X2140000Y1260000D02*
D03*
X2120000Y1250000D02*
D03*
Y1220000D02*
D03*
Y1230000D02*
D03*
Y1240000D02*
D03*
X2100000Y1220000D02*
D03*
Y1230000D02*
D03*
Y1240000D02*
D03*
X2110000Y1220000D02*
D03*
Y1230000D02*
D03*
Y1240000D02*
D03*
X2080000Y1220000D02*
D03*
Y1230000D02*
D03*
Y1240000D02*
D03*
X2090000Y1220000D02*
D03*
Y1230000D02*
D03*
Y1240000D02*
D03*
X2100000Y1250000D02*
D03*
Y1260000D02*
D03*
Y1270000D02*
D03*
X2110000Y1250000D02*
D03*
X2090000Y1270000D02*
D03*
Y1260000D02*
D03*
Y1250000D02*
D03*
X2080000Y1270000D02*
D03*
Y1260000D02*
D03*
Y1250000D02*
D03*
X2130000Y1220000D02*
D03*
X2140000D02*
D03*
Y1250000D02*
D03*
Y1240000D02*
D03*
Y1230000D02*
D03*
X2130000Y1250000D02*
D03*
Y1240000D02*
D03*
Y1230000D02*
D03*
X2110000Y1260000D02*
D03*
X2130000D02*
D03*
X2110000Y1270000D02*
D03*
X2080000Y1280000D02*
D03*
X2090000D02*
D03*
X2100000D02*
D03*
X2140000Y950000D02*
D03*
Y960000D02*
D03*
Y970000D02*
D03*
Y980000D02*
D03*
X2110000Y990000D02*
D03*
X2120000D02*
D03*
X2130000D02*
D03*
X2140000D02*
D03*
X2070000D02*
D03*
X2080000D02*
D03*
X2090000D02*
D03*
X2100000D02*
D03*
X2120000Y930000D02*
D03*
X2070000Y970000D02*
D03*
Y980000D02*
D03*
Y930000D02*
D03*
Y950000D02*
D03*
Y940000D02*
D03*
Y960000D02*
D03*
X2090000Y930000D02*
D03*
X2100000D02*
D03*
X2110000D02*
D03*
X2090000Y920000D02*
D03*
X2100000D02*
D03*
X2110000D02*
D03*
X2080000D02*
D03*
X2070000D02*
D03*
X2080000Y930000D02*
D03*
X2110000Y980000D02*
D03*
X2120000D02*
D03*
X2130000D02*
D03*
X2110000Y970000D02*
D03*
X2120000D02*
D03*
X2130000D02*
D03*
Y950000D02*
D03*
X2120000D02*
D03*
X2110000D02*
D03*
X2130000Y960000D02*
D03*
X2120000D02*
D03*
X2110000D02*
D03*
X2100000Y970000D02*
D03*
X2090000D02*
D03*
X2080000D02*
D03*
X2100000Y980000D02*
D03*
X2090000D02*
D03*
X2080000D02*
D03*
X2100000Y950000D02*
D03*
X2090000D02*
D03*
X2080000D02*
D03*
X2100000Y960000D02*
D03*
X2090000D02*
D03*
X2080000D02*
D03*
X2100000Y940000D02*
D03*
X2090000D02*
D03*
X2080000D02*
D03*
X2130000D02*
D03*
X2120000D02*
D03*
X2110000D02*
D03*
X880000Y110000D02*
D03*
X870000D02*
D03*
X860000D02*
D03*
X1630000Y340000D02*
D03*
X2515000Y85000D02*
D03*
Y70000D02*
D03*
X2590000Y85000D02*
D03*
Y70000D02*
D03*
X2491746Y727004D02*
D03*
X2504246D02*
D03*
X2445000Y212500D02*
D03*
X2432500Y200000D02*
D03*
Y225000D02*
D03*
X2315000Y197500D02*
D03*
X2292500Y180000D02*
D03*
X2270000D02*
D03*
X2277500Y310000D02*
D03*
X2262500D02*
D03*
X2357500Y1441250D02*
D03*
Y1428750D02*
D03*
X2515210Y849246D02*
D03*
X2525210D02*
D03*
X2530210Y909246D02*
D03*
Y919246D02*
D03*
X2430000Y1500000D02*
D03*
X2450000D02*
D03*
X2480000D02*
D03*
X2460000D02*
D03*
X2412500Y741250D02*
D03*
Y753750D02*
D03*
X2255000Y1320000D02*
D03*
Y1300000D02*
D03*
Y1310000D02*
D03*
Y1290000D02*
D03*
X2245000Y1320000D02*
D03*
Y1300000D02*
D03*
Y1310000D02*
D03*
Y1290000D02*
D03*
X2225000Y1320000D02*
D03*
X2235000D02*
D03*
Y1300000D02*
D03*
Y1310000D02*
D03*
X2225000Y1300000D02*
D03*
X2205000D02*
D03*
X2225000Y1310000D02*
D03*
X2195000Y1300000D02*
D03*
X2215000D02*
D03*
X2205000Y1310000D02*
D03*
X880000Y120000D02*
D03*
X870000D02*
D03*
X860000D02*
D03*
X870000Y130000D02*
D03*
X860000D02*
D03*
X880000D02*
D03*
X870000Y140000D02*
D03*
X860000D02*
D03*
X880000D02*
D03*
X1932500Y177500D02*
D03*
X1915000D02*
D03*
X2230000Y242500D02*
D03*
Y232500D02*
D03*
Y222500D02*
D03*
X2120250Y217750D02*
D03*
Y227750D02*
D03*
X1570000Y390000D02*
D03*
X1590000D02*
D03*
X1550000D02*
D03*
X1610000D02*
D03*
X1277500Y232500D02*
D03*
Y247500D02*
D03*
Y285000D02*
D03*
Y272500D02*
D03*
X1952500Y237500D02*
D03*
X1965000Y250000D02*
D03*
X1952500Y177500D02*
D03*
X1965000Y165000D02*
D03*
X2195000Y875000D02*
D03*
Y865000D02*
D03*
Y855000D02*
D03*
Y845000D02*
D03*
X2145000Y822500D02*
D03*
X2135000D02*
D03*
X2177500Y897500D02*
D03*
X2167500Y887500D02*
D03*
X2177500Y907500D02*
D03*
X2167500Y897500D02*
D03*
X2187500Y907500D02*
D03*
X2157500Y887500D02*
D03*
X2167500Y907500D02*
D03*
X2157500Y897500D02*
D03*
X2147500Y887500D02*
D03*
X2152500Y1432500D02*
D03*
X2142500D02*
D03*
X2162500D02*
D03*
X2297500Y1400000D02*
D03*
X2287500D02*
D03*
X2230000Y1345000D02*
D03*
Y1355000D02*
D03*
Y1375000D02*
D03*
Y1365000D02*
D03*
X2195000Y1320000D02*
D03*
X2205000D02*
D03*
X2215000D02*
D03*
X2195000Y1310000D02*
D03*
X2215000Y1310000D02*
D03*
X2177500Y887500D02*
D03*
X2207500D02*
D03*
X2197500D02*
D03*
X2187500D02*
D03*
X2262500Y797500D02*
D03*
X2282500D02*
D03*
X2272500D02*
D03*
X2277500Y925000D02*
D03*
Y915000D02*
D03*
X2207500Y907500D02*
D03*
Y897500D02*
D03*
X2197500Y897500D02*
D03*
Y907500D02*
D03*
X2187500Y897500D02*
D03*
X2147500Y917500D02*
D03*
X2157500D02*
D03*
X2147500Y897500D02*
D03*
X2157500Y907500D02*
D03*
X2147500D02*
D03*
X852500Y841000D02*
D03*
X842500Y841000D02*
D03*
X1615000Y327500D02*
D03*
X1645000D02*
D03*
X210000Y1840000D02*
D03*
X200000D02*
D03*
X190000D02*
D03*
X210000Y640000D02*
D03*
X200000D02*
D03*
X190000D02*
D03*
X210000Y1040000D02*
D03*
X200000D02*
D03*
X190000D02*
D03*
Y1440000D02*
D03*
X200000D02*
D03*
X210000D02*
D03*
X355000Y150000D02*
D03*
X342500D02*
D03*
X367500D02*
D03*
X300000Y300000D02*
D03*
X479000Y524000D02*
D03*
X479087Y549787D02*
D03*
X479000Y512000D02*
D03*
Y537000D02*
D03*
X479087Y562487D02*
D03*
X470000Y586000D02*
D03*
X485000D02*
D03*
X395000Y197500D02*
D03*
X385000D02*
D03*
X405000D02*
D03*
X495000Y821000D02*
D03*
X510000Y1621000D02*
D03*
X495000D02*
D03*
X1240000Y1041000D02*
D03*
Y1051000D02*
D03*
X927500Y401000D02*
D03*
Y413500D02*
D03*
X800000Y436000D02*
D03*
X810000D02*
D03*
X632500Y513500D02*
D03*
X640000Y548500D02*
D03*
Y538500D02*
D03*
X672500Y548500D02*
D03*
Y538500D02*
D03*
X495000Y421000D02*
D03*
X642500Y581000D02*
D03*
Y571000D02*
D03*
X672500Y581000D02*
D03*
Y571000D02*
D03*
X407500Y553500D02*
D03*
X407500Y533497D02*
D03*
X407500Y491000D02*
D03*
X407500Y513497D02*
D03*
X607500Y463500D02*
D03*
X597500D02*
D03*
X587500D02*
D03*
X360000Y511000D02*
D03*
Y531000D02*
D03*
Y551000D02*
D03*
Y571000D02*
D03*
X465000Y596000D02*
D03*
X580000Y643500D02*
D03*
Y653500D02*
D03*
Y613500D02*
D03*
Y633500D02*
D03*
Y623500D02*
D03*
X697500Y468500D02*
D03*
Y458500D02*
D03*
Y443500D02*
D03*
Y433500D02*
D03*
X312500Y451000D02*
D03*
Y441000D02*
D03*
X360000Y491000D02*
D03*
X312500Y461000D02*
D03*
Y471000D02*
D03*
X632500Y913500D02*
D03*
X640000Y948500D02*
D03*
Y938500D02*
D03*
X672500Y948500D02*
D03*
Y938500D02*
D03*
X510000Y821000D02*
D03*
X642500Y981000D02*
D03*
Y971000D02*
D03*
X672500Y981000D02*
D03*
Y971000D02*
D03*
X407500Y953500D02*
D03*
Y968500D02*
D03*
X407500Y933497D02*
D03*
X407500Y891000D02*
D03*
X407500Y913497D02*
D03*
X485000Y986000D02*
D03*
X470000D02*
D03*
X607500Y863500D02*
D03*
X597500D02*
D03*
X587500D02*
D03*
X479000Y937000D02*
D03*
X360000Y911000D02*
D03*
X479000Y912000D02*
D03*
X360000Y931000D02*
D03*
X479087Y949788D02*
D03*
X360000Y951000D02*
D03*
X415000Y996000D02*
D03*
X479087Y962487D02*
D03*
X465000Y996000D02*
D03*
X580000Y1043500D02*
D03*
Y1053500D02*
D03*
Y1013500D02*
D03*
Y1033500D02*
D03*
Y1023500D02*
D03*
X697500Y868500D02*
D03*
Y858500D02*
D03*
Y843500D02*
D03*
Y833500D02*
D03*
X312500Y851000D02*
D03*
Y841000D02*
D03*
X479000Y924000D02*
D03*
X360000Y891000D02*
D03*
X312500Y861000D02*
D03*
Y871000D02*
D03*
X250000Y1016000D02*
D03*
X240000D02*
D03*
X632500Y1713500D02*
D03*
X640000Y1748500D02*
D03*
Y1738500D02*
D03*
X672500Y1748500D02*
D03*
Y1738500D02*
D03*
X642500Y1781000D02*
D03*
Y1771000D02*
D03*
X672500Y1781000D02*
D03*
Y1771000D02*
D03*
X407500Y1753500D02*
D03*
Y1768500D02*
D03*
X407500Y1733497D02*
D03*
X407500Y1691000D02*
D03*
X407500Y1713497D02*
D03*
X485000Y1786000D02*
D03*
X607500Y1663500D02*
D03*
X597500D02*
D03*
X587500D02*
D03*
X479000Y1737000D02*
D03*
X360000Y1711000D02*
D03*
X479000Y1712000D02*
D03*
X360000Y1731000D02*
D03*
X479087Y1749788D02*
D03*
X360000Y1751000D02*
D03*
X415000Y1796000D02*
D03*
X479087Y1762488D02*
D03*
X360000Y1771000D02*
D03*
X580000Y1843500D02*
D03*
Y1853500D02*
D03*
Y1813500D02*
D03*
Y1833500D02*
D03*
Y1823500D02*
D03*
X697500Y1668500D02*
D03*
Y1658500D02*
D03*
Y1643500D02*
D03*
Y1633500D02*
D03*
X312500Y1651000D02*
D03*
Y1641000D02*
D03*
X479000Y1724000D02*
D03*
X360000Y1691000D02*
D03*
X312500Y1661000D02*
D03*
Y1671000D02*
D03*
X250000Y1816000D02*
D03*
X240000D02*
D03*
X360000Y1351000D02*
D03*
X632500Y1313500D02*
D03*
X1220000Y1051000D02*
D03*
Y1041000D02*
D03*
X1230000D02*
D03*
Y1051000D02*
D03*
X805000Y848500D02*
D03*
X820000D02*
D03*
X800000Y1243500D02*
D03*
X815000D02*
D03*
X820000Y1643500D02*
D03*
X805000D02*
D03*
X842500Y1638500D02*
D03*
X852500Y1638500D02*
D03*
X672500Y1338500D02*
D03*
Y1348500D02*
D03*
X640000D02*
D03*
Y1338500D02*
D03*
X672500Y1381000D02*
D03*
Y1371000D02*
D03*
X642500Y1381000D02*
D03*
Y1371000D02*
D03*
X360000Y1311000D02*
D03*
Y1331000D02*
D03*
X452500Y1393500D02*
D03*
X360000Y1371000D02*
D03*
X580000Y1453500D02*
D03*
Y1433500D02*
D03*
Y1443500D02*
D03*
Y1413500D02*
D03*
Y1423500D02*
D03*
X697500Y1268500D02*
D03*
Y1258500D02*
D03*
Y1243500D02*
D03*
Y1233500D02*
D03*
X312500Y1241000D02*
D03*
Y1251000D02*
D03*
Y1261000D02*
D03*
Y1271000D02*
D03*
X360000Y1291000D02*
D03*
X250000Y1416000D02*
D03*
X240000D02*
D03*
X585000Y240000D02*
D03*
X567500D02*
D03*
Y222500D02*
D03*
X537500Y240000D02*
D03*
Y222500D02*
D03*
X457500Y301000D02*
D03*
X467500D02*
D03*
X432500D02*
D03*
X442500D02*
D03*
X447500Y81000D02*
D03*
X290000Y300000D02*
D03*
X307500Y201000D02*
D03*
X317500D02*
D03*
M02*
