G04*
G04 #@! TF.GenerationSoftware,Altium Limited,Altium Designer,19.1.9 (167)*
G04*
G04 Layer_Color=7477623*
%FSLAX44Y44*%
%MOMM*%
G71*
G01*
G75*
%ADD18R,3.8500X1.5000*%
%ADD19R,2.8500X1.1500*%
%ADD20R,1.8500X0.7500*%
%ADD21R,1.4000X1.1500*%
%ADD22R,1.1500X3.4500*%
%ADD23R,1.7500X1.1500*%
%ADD24R,2.5500X3.4500*%
%ADD25R,1.1500X1.4000*%
%ADD26R,1.3500X1.9500*%
%ADD27R,0.7500X1.7000*%
%ADD28R,0.6500X1.0000*%
%ADD29R,1.2500X0.7500*%
%ADD30R,1.1500X1.7500*%
%ADD31R,2.4500X2.6500*%
%ADD32R,4.6500X1.9500*%
%ADD33R,2.6500X2.4500*%
%ADD34R,1.0600X1.3700*%
%ADD35O,1.9500X0.7500*%
%ADD36R,0.7500X1.1500*%
%ADD37R,0.6500X1.1500*%
%ADD38R,1.0500X0.5000*%
%ADD39R,1.3500X2.0500*%
%ADD40R,2.6500X1.3500*%
%ADD41R,6.4000X6.6500*%
%ADD42R,1.8500X2.6500*%
%ADD43R,1.3700X1.0600*%
%ADD44R,3.4500X1.1500*%
%ADD45O,2.0500X0.7500*%
%ADD46R,1.2500X2.2500*%
%ADD47R,6.9500X7.0500*%
%ADD48R,1.9500X1.4500*%
%ADD49R,1.6700X1.4200*%
%ADD50R,3.2000X2.6900*%
G04:AMPARAMS|DCode=51|XSize=6.15mm|YSize=6.15mm|CornerRadius=1.575mm|HoleSize=0mm|Usage=FLASHONLY|Rotation=0.000|XOffset=0mm|YOffset=0mm|HoleType=Round|Shape=RoundedRectangle|*
%AMROUNDEDRECTD51*
21,1,6.1500,3.0000,0,0,0.0*
21,1,3.0000,6.1500,0,0,0.0*
1,1,3.1500,1.5000,-1.5000*
1,1,3.1500,-1.5000,-1.5000*
1,1,3.1500,-1.5000,1.5000*
1,1,3.1500,1.5000,1.5000*
%
%ADD51ROUNDEDRECTD51*%
%ADD52C,3.2500*%
%ADD53C,1.7500*%
%ADD54C,3.1500*%
%ADD55C,2.7000*%
%ADD56C,2.4000*%
%ADD57C,1.8000*%
%ADD58P,1.8942X8X202.5*%
%ADD59C,0.6500*%
%ADD60C,2.3500*%
%ADD61C,1.5500*%
%ADD62P,1.8942X8X292.5*%
%ADD63C,4.1500*%
G04:AMPARAMS|DCode=64|XSize=4.15mm|YSize=4.15mm|CornerRadius=1.075mm|HoleSize=0mm|Usage=FLASHONLY|Rotation=270.000|XOffset=0mm|YOffset=0mm|HoleType=Round|Shape=RoundedRectangle|*
%AMROUNDEDRECTD64*
21,1,4.1500,2.0000,0,0,270.0*
21,1,2.0000,4.1500,0,0,270.0*
1,1,2.1500,-1.0000,-1.0000*
1,1,2.1500,-1.0000,1.0000*
1,1,2.1500,1.0000,1.0000*
1,1,2.1500,1.0000,-1.0000*
%
%ADD64ROUNDEDRECTD64*%
%ADD65C,2.1500*%
%ADD66C,3.0000*%
%ADD67P,2.8684X8X112.5*%
%ADD68C,2.6500*%
G36*
X2176500Y976250D02*
Y943750D01*
X2171500D01*
Y938750D01*
X2176500D01*
Y936500D01*
X2223500D01*
Y938750D01*
X2228500D01*
Y943750D01*
X2223500D01*
Y976250D01*
X2176500D01*
D02*
G37*
G36*
X2223500Y1233750D02*
Y1266250D01*
X2228500D01*
Y1271250D01*
X2223500D01*
Y1273500D01*
X2176500D01*
Y1271250D01*
X2171500D01*
Y1266250D01*
X2176500D01*
Y1233750D01*
X2223500D01*
D02*
G37*
D18*
X870000Y161750D02*
D03*
Y218250D02*
D03*
D19*
X64750Y579750D02*
D03*
Y480250D02*
D03*
Y982250D02*
D03*
Y882750D02*
D03*
Y1682750D02*
D03*
Y1782250D02*
D03*
Y1379750D02*
D03*
Y1280250D02*
D03*
D20*
X96750Y498750D02*
D03*
Y511250D02*
D03*
Y523750D02*
D03*
Y536250D02*
D03*
Y548750D02*
D03*
Y561250D02*
D03*
Y901250D02*
D03*
Y913750D02*
D03*
Y926250D02*
D03*
Y938750D02*
D03*
Y951250D02*
D03*
Y963750D02*
D03*
Y1763750D02*
D03*
Y1751250D02*
D03*
Y1738750D02*
D03*
Y1726250D02*
D03*
Y1713750D02*
D03*
Y1701250D02*
D03*
Y1298750D02*
D03*
Y1311250D02*
D03*
Y1323750D02*
D03*
Y1336250D02*
D03*
Y1348750D02*
D03*
Y1361250D02*
D03*
D21*
X2270000Y232500D02*
D03*
Y252500D02*
D03*
X2135000Y1317500D02*
D03*
Y1337500D02*
D03*
X2270000Y212500D02*
D03*
Y192500D02*
D03*
X2292500D02*
D03*
Y212500D02*
D03*
X812500Y1656000D02*
D03*
Y1676000D02*
D03*
Y861000D02*
D03*
Y881000D02*
D03*
Y461000D02*
D03*
Y481000D02*
D03*
X1732500Y210000D02*
D03*
Y190000D02*
D03*
X2005000Y217500D02*
D03*
Y197500D02*
D03*
X2292500Y1370000D02*
D03*
Y1350000D02*
D03*
X2140000Y852500D02*
D03*
Y872500D02*
D03*
X807500Y1276000D02*
D03*
Y1256000D02*
D03*
X450000Y1006000D02*
D03*
Y986000D02*
D03*
X430000Y1006000D02*
D03*
Y986000D02*
D03*
X660000Y903500D02*
D03*
Y883500D02*
D03*
X415000Y846000D02*
D03*
Y866000D02*
D03*
X435000Y846000D02*
D03*
Y866000D02*
D03*
X455000Y846000D02*
D03*
Y866000D02*
D03*
X437500Y1403500D02*
D03*
Y1383500D02*
D03*
X417500Y1403500D02*
D03*
Y1383500D02*
D03*
X660000Y1303500D02*
D03*
Y1283500D02*
D03*
X415000Y1246000D02*
D03*
Y1266000D02*
D03*
X435000Y1246000D02*
D03*
Y1266000D02*
D03*
X455000Y1246000D02*
D03*
Y1266000D02*
D03*
X450000Y1806000D02*
D03*
Y1786000D02*
D03*
X430000Y1806000D02*
D03*
Y1786000D02*
D03*
X660000Y1703500D02*
D03*
Y1683500D02*
D03*
X415000Y1646000D02*
D03*
Y1666000D02*
D03*
X435000Y1646000D02*
D03*
Y1666000D02*
D03*
X455000Y1646000D02*
D03*
Y1666000D02*
D03*
X632500Y903500D02*
D03*
Y883500D02*
D03*
Y1303500D02*
D03*
Y1283500D02*
D03*
Y1703500D02*
D03*
Y1683500D02*
D03*
Y483500D02*
D03*
Y503500D02*
D03*
X455000Y466000D02*
D03*
Y446000D02*
D03*
X435000Y466000D02*
D03*
Y446000D02*
D03*
X415000Y466000D02*
D03*
Y446000D02*
D03*
X660000Y483500D02*
D03*
Y503500D02*
D03*
X430000Y586000D02*
D03*
Y606000D02*
D03*
X450000Y586000D02*
D03*
Y606000D02*
D03*
X2270000Y292500D02*
D03*
Y272500D02*
D03*
D22*
X2391000Y1495000D02*
D03*
X2329000D02*
D03*
X2218500Y232500D02*
D03*
X2156500D02*
D03*
X1169000Y851000D02*
D03*
X1231000D02*
D03*
X1169000Y801000D02*
D03*
X1231000D02*
D03*
D23*
X2440000Y1455000D02*
D03*
Y1485000D02*
D03*
X2470000D02*
D03*
Y1455000D02*
D03*
X2520210Y891746D02*
D03*
Y861746D02*
D03*
X1630000Y297500D02*
D03*
Y327500D02*
D03*
Y235000D02*
D03*
Y265000D02*
D03*
Y170000D02*
D03*
Y200000D02*
D03*
Y107500D02*
D03*
Y137500D02*
D03*
X1770000Y227500D02*
D03*
Y197500D02*
D03*
X1922500Y262500D02*
D03*
Y292500D02*
D03*
X1922500Y222500D02*
D03*
Y192500D02*
D03*
X2190000Y1387500D02*
D03*
Y1417500D02*
D03*
X2217500Y1387500D02*
D03*
Y1417500D02*
D03*
X2292500Y1390000D02*
D03*
Y1420000D02*
D03*
X2140000Y835000D02*
D03*
Y805000D02*
D03*
X2210000Y807500D02*
D03*
Y837500D02*
D03*
X2237500Y807500D02*
D03*
Y837500D02*
D03*
X245000Y1006000D02*
D03*
Y1036000D02*
D03*
Y1406000D02*
D03*
Y1436000D02*
D03*
X502500Y836000D02*
D03*
Y866000D02*
D03*
X475000Y1071000D02*
D03*
Y1101000D02*
D03*
Y1016000D02*
D03*
Y1046000D02*
D03*
X502500Y1236000D02*
D03*
Y1266000D02*
D03*
X475000Y1471000D02*
D03*
Y1501000D02*
D03*
Y1416000D02*
D03*
Y1446000D02*
D03*
X502500Y1636000D02*
D03*
Y1666000D02*
D03*
X475000Y1871000D02*
D03*
Y1901000D02*
D03*
Y1816000D02*
D03*
Y1846000D02*
D03*
X245000Y1806000D02*
D03*
Y1836000D02*
D03*
X584995Y259678D02*
D03*
Y289677D02*
D03*
X464502Y286000D02*
D03*
Y256000D02*
D03*
X437500Y286000D02*
D03*
Y256000D02*
D03*
X312500Y186000D02*
D03*
Y156000D02*
D03*
X295000Y282500D02*
D03*
Y252500D02*
D03*
X475000Y646000D02*
D03*
Y616000D02*
D03*
Y701000D02*
D03*
Y671000D02*
D03*
X502500Y466000D02*
D03*
Y436000D02*
D03*
X245000Y636000D02*
D03*
Y606000D02*
D03*
D24*
X2384500Y1372500D02*
D03*
X2450500D02*
D03*
X2387000Y810000D02*
D03*
X2453000D02*
D03*
D25*
X2412500Y212500D02*
D03*
X2432500D02*
D03*
X2372500D02*
D03*
X2392500D02*
D03*
X2217500Y270000D02*
D03*
X2197500D02*
D03*
X2157500Y197500D02*
D03*
X2177500D02*
D03*
X1732500Y232500D02*
D03*
X1712500D02*
D03*
X1985000Y217500D02*
D03*
X1965000D02*
D03*
X1985000Y197500D02*
D03*
X1965000D02*
D03*
X1965000Y177500D02*
D03*
X1985000D02*
D03*
X1965000Y237500D02*
D03*
X1985000D02*
D03*
X2262500Y1350000D02*
D03*
X2242500D02*
D03*
Y1370000D02*
D03*
X2262500D02*
D03*
X2165000Y850000D02*
D03*
X2185000D02*
D03*
Y870000D02*
D03*
X2165000D02*
D03*
X325000Y866000D02*
D03*
X345000D02*
D03*
X325000Y846000D02*
D03*
X345000D02*
D03*
X370000Y1101000D02*
D03*
X350000D02*
D03*
X325000Y1266000D02*
D03*
X345000D02*
D03*
X325000Y1246000D02*
D03*
X345000D02*
D03*
X370000Y1501000D02*
D03*
X350000D02*
D03*
X325000Y1666000D02*
D03*
X345000D02*
D03*
X325000Y1646000D02*
D03*
X345000D02*
D03*
X370000Y1901000D02*
D03*
X350000D02*
D03*
X345000Y951000D02*
D03*
X325000D02*
D03*
X345000Y971000D02*
D03*
X325000D02*
D03*
X345000Y931000D02*
D03*
X325000D02*
D03*
X345000Y891000D02*
D03*
X325000D02*
D03*
X345000Y911000D02*
D03*
X325000D02*
D03*
X410000Y1101000D02*
D03*
X390000D02*
D03*
X345000Y1351000D02*
D03*
X325000D02*
D03*
X345000Y1371000D02*
D03*
X325000D02*
D03*
X345000Y1331000D02*
D03*
X325000D02*
D03*
X345000Y1291000D02*
D03*
X325000D02*
D03*
X345000Y1311000D02*
D03*
X325000D02*
D03*
X410000Y1501000D02*
D03*
X390000D02*
D03*
X345000Y1751000D02*
D03*
X325000D02*
D03*
X345000Y1771000D02*
D03*
X325000D02*
D03*
X345000Y1731000D02*
D03*
X325000D02*
D03*
X345000Y1691000D02*
D03*
X325000D02*
D03*
X345000Y1711000D02*
D03*
X325000D02*
D03*
X410000Y1901000D02*
D03*
X390000D02*
D03*
X395000Y911000D02*
D03*
X375000D02*
D03*
X395000Y891000D02*
D03*
X375000D02*
D03*
X395000Y931000D02*
D03*
X375000D02*
D03*
X395000Y971000D02*
D03*
X375000D02*
D03*
X395000Y951000D02*
D03*
X375000D02*
D03*
X395000Y1311000D02*
D03*
X375000D02*
D03*
X395000Y1291000D02*
D03*
X375000D02*
D03*
X395000Y1331000D02*
D03*
X375000D02*
D03*
X395000Y1371000D02*
D03*
X375000D02*
D03*
X395000Y1351000D02*
D03*
X375000D02*
D03*
X395000Y1711000D02*
D03*
X375000D02*
D03*
X395000Y1691000D02*
D03*
X375000D02*
D03*
X395000Y1731000D02*
D03*
X375000D02*
D03*
X395000Y1771000D02*
D03*
X375000D02*
D03*
X395000Y1751000D02*
D03*
X375000D02*
D03*
Y551000D02*
D03*
X395000D02*
D03*
X375000Y571000D02*
D03*
X395000D02*
D03*
X375000Y531000D02*
D03*
X395000D02*
D03*
X375000Y491000D02*
D03*
X395000D02*
D03*
X375000Y511000D02*
D03*
X395000D02*
D03*
X390000Y701000D02*
D03*
X410000D02*
D03*
X325000Y511000D02*
D03*
X345000D02*
D03*
X325000Y491000D02*
D03*
X345000D02*
D03*
X325000Y531000D02*
D03*
X345000D02*
D03*
X325000Y571000D02*
D03*
X345000D02*
D03*
X325000Y551000D02*
D03*
X345000D02*
D03*
X350000Y701000D02*
D03*
X370000D02*
D03*
X345000Y446000D02*
D03*
X325000D02*
D03*
X345000Y466000D02*
D03*
X325000D02*
D03*
X2217500Y197500D02*
D03*
X2197500D02*
D03*
X2242500Y920000D02*
D03*
X2262500D02*
D03*
D26*
X2588000Y16000D02*
D03*
X2552000D02*
D03*
X2513000D02*
D03*
X2477000D02*
D03*
D27*
X2575000Y54750D02*
D03*
X2565000D02*
D03*
X2500000D02*
D03*
X2490000D02*
D03*
D28*
X2315000Y187000D02*
D03*
Y213000D02*
D03*
X2135000Y223000D02*
D03*
Y197000D02*
D03*
X1712500Y184500D02*
D03*
Y210500D02*
D03*
X1945000Y194500D02*
D03*
Y220500D02*
D03*
D29*
X2573210Y886246D02*
D03*
Y867246D02*
D03*
X2547210D02*
D03*
Y876746D02*
D03*
Y886246D02*
D03*
D30*
X2542710Y914246D02*
D03*
X2572710D02*
D03*
X350000Y1076000D02*
D03*
X380000D02*
D03*
X350000Y1476000D02*
D03*
X380000D02*
D03*
X660000Y976000D02*
D03*
X630000D02*
D03*
X660000Y943500D02*
D03*
X630000D02*
D03*
X660000Y1376000D02*
D03*
X630000D02*
D03*
X660000Y1343500D02*
D03*
X630000D02*
D03*
X660000Y1776000D02*
D03*
X630000D02*
D03*
X660000Y1743500D02*
D03*
X630000D02*
D03*
X350000Y1876000D02*
D03*
X380000D02*
D03*
X630000Y543500D02*
D03*
X660000D02*
D03*
X630000Y576000D02*
D03*
X660000D02*
D03*
X380000Y676000D02*
D03*
X350000D02*
D03*
D31*
X847500Y1662000D02*
D03*
Y1705000D02*
D03*
Y867000D02*
D03*
Y910000D02*
D03*
Y467000D02*
D03*
Y510000D02*
D03*
X267500Y74500D02*
D03*
Y117500D02*
D03*
X2152500Y1411500D02*
D03*
Y1368500D02*
D03*
X2272500Y818500D02*
D03*
Y861500D02*
D03*
X842500Y1304000D02*
D03*
Y1261000D02*
D03*
D32*
X332500Y109000D02*
D03*
Y76000D02*
D03*
D33*
X424000D02*
D03*
X381000D02*
D03*
D34*
X2142250Y270000D02*
D03*
X2175000D02*
D03*
X2184750Y1350000D02*
D03*
X2217500D02*
D03*
X2209750Y870000D02*
D03*
X2242500D02*
D03*
X710000Y838500D02*
D03*
X677250D02*
D03*
X710000Y863500D02*
D03*
X677250D02*
D03*
X710000Y1238500D02*
D03*
X677250D02*
D03*
X710000Y1263500D02*
D03*
X677250D02*
D03*
X710000Y1638500D02*
D03*
X677250D02*
D03*
X710000Y1663500D02*
D03*
X677250D02*
D03*
Y463500D02*
D03*
X710000D02*
D03*
X677250Y438500D02*
D03*
X710000D02*
D03*
D35*
X1895000Y188450D02*
D03*
Y201150D02*
D03*
Y213850D02*
D03*
Y226550D02*
D03*
X1795000Y188450D02*
D03*
Y201150D02*
D03*
Y213850D02*
D03*
Y226550D02*
D03*
D36*
X2219500Y1231000D02*
D03*
X2206500D02*
D03*
X2193500D02*
D03*
X2180500D02*
D03*
X2180500Y979000D02*
D03*
X2193500D02*
D03*
X2206500D02*
D03*
X2219500D02*
D03*
D37*
X2180500Y1289000D02*
D03*
X2206500D02*
D03*
X2219500D02*
D03*
X2193500D02*
D03*
X2219500Y921000D02*
D03*
X2193500D02*
D03*
X2180500D02*
D03*
X2206500D02*
D03*
D38*
X2266600Y1395500D02*
D03*
Y1405000D02*
D03*
Y1414500D02*
D03*
X2238400Y1395500D02*
D03*
Y1405000D02*
D03*
Y1414500D02*
D03*
X2161400Y826000D02*
D03*
Y816500D02*
D03*
Y807000D02*
D03*
X2189600Y826000D02*
D03*
Y816500D02*
D03*
Y807000D02*
D03*
D39*
X2252500Y1405000D02*
D03*
X2175500Y816500D02*
D03*
D40*
X1102500Y967100D02*
D03*
Y1012900D02*
D03*
X1225000Y967100D02*
D03*
Y1012900D02*
D03*
D41*
X1037500Y990000D02*
D03*
X1160000D02*
D03*
D42*
X735000Y842995D02*
D03*
X775000D02*
D03*
Y878997D02*
D03*
X735000D02*
D03*
X600000Y1106000D02*
D03*
X640000D02*
D03*
X520000D02*
D03*
X560000D02*
D03*
X735000Y1242995D02*
D03*
X775000D02*
D03*
Y1278997D02*
D03*
X735000D02*
D03*
X600000Y1506000D02*
D03*
X640000D02*
D03*
X520000D02*
D03*
X560000D02*
D03*
X735000Y1642995D02*
D03*
X775000D02*
D03*
Y1678997D02*
D03*
X735000D02*
D03*
X600000Y1906000D02*
D03*
X640000D02*
D03*
X520000D02*
D03*
X560000D02*
D03*
Y706000D02*
D03*
X520000D02*
D03*
X640000D02*
D03*
X600000D02*
D03*
X735000Y478997D02*
D03*
X775000D02*
D03*
Y442995D02*
D03*
X735000D02*
D03*
D43*
X405000Y1028250D02*
D03*
Y1061000D02*
D03*
Y1428250D02*
D03*
Y1461000D02*
D03*
Y1828250D02*
D03*
Y1861000D02*
D03*
Y661000D02*
D03*
Y628250D02*
D03*
D44*
X750000Y974500D02*
D03*
Y912500D02*
D03*
X707500Y974500D02*
D03*
Y912500D02*
D03*
X440000Y1040000D02*
D03*
Y1102000D02*
D03*
X750000Y1374500D02*
D03*
Y1312500D02*
D03*
X707500Y1374500D02*
D03*
Y1312500D02*
D03*
X440000Y1440000D02*
D03*
Y1502000D02*
D03*
X750000Y1774500D02*
D03*
Y1712500D02*
D03*
X707500Y1774500D02*
D03*
Y1712500D02*
D03*
X440000Y1840000D02*
D03*
Y1902000D02*
D03*
Y702000D02*
D03*
Y640000D02*
D03*
X707500Y512500D02*
D03*
Y574500D02*
D03*
X750000Y512500D02*
D03*
Y574500D02*
D03*
D45*
X597500Y886550D02*
D03*
Y899250D02*
D03*
Y911950D02*
D03*
Y924650D02*
D03*
Y937350D02*
D03*
Y950050D02*
D03*
Y962750D02*
D03*
Y975450D02*
D03*
X502500Y886550D02*
D03*
Y899250D02*
D03*
Y911950D02*
D03*
Y924650D02*
D03*
Y937350D02*
D03*
Y950050D02*
D03*
Y962750D02*
D03*
Y975450D02*
D03*
X597500Y1286550D02*
D03*
Y1299250D02*
D03*
Y1311950D02*
D03*
Y1324650D02*
D03*
Y1337350D02*
D03*
Y1350050D02*
D03*
Y1362750D02*
D03*
Y1375450D02*
D03*
X502500Y1286550D02*
D03*
Y1299250D02*
D03*
Y1311950D02*
D03*
Y1324650D02*
D03*
Y1337350D02*
D03*
Y1350050D02*
D03*
Y1362750D02*
D03*
Y1375450D02*
D03*
X597500Y1686550D02*
D03*
Y1699250D02*
D03*
Y1711950D02*
D03*
Y1724650D02*
D03*
Y1737350D02*
D03*
Y1750050D02*
D03*
Y1762750D02*
D03*
Y1775450D02*
D03*
X502500Y1686550D02*
D03*
Y1699250D02*
D03*
Y1711950D02*
D03*
Y1724650D02*
D03*
Y1737350D02*
D03*
Y1750050D02*
D03*
Y1762750D02*
D03*
Y1775450D02*
D03*
Y575450D02*
D03*
Y562750D02*
D03*
Y550050D02*
D03*
Y537350D02*
D03*
Y524650D02*
D03*
Y511950D02*
D03*
Y499250D02*
D03*
Y486550D02*
D03*
X597500Y575450D02*
D03*
Y562750D02*
D03*
Y550050D02*
D03*
Y537350D02*
D03*
Y524650D02*
D03*
Y511950D02*
D03*
Y499250D02*
D03*
Y486550D02*
D03*
D46*
X344700Y225590D02*
D03*
X390300D02*
D03*
X507200Y228090D02*
D03*
X552800D02*
D03*
D47*
X367500Y289410D02*
D03*
X530000Y291910D02*
D03*
D48*
X277500Y184400D02*
D03*
Y155400D02*
D03*
D49*
X1256000Y278500D02*
D03*
Y260000D02*
D03*
Y241500D02*
D03*
X1184000D02*
D03*
Y260000D02*
D03*
Y278500D02*
D03*
D50*
X1220000Y233000D02*
D03*
Y287000D02*
D03*
D51*
X2630000Y500500D02*
D03*
X2735000Y525500D02*
D03*
X2270000Y500500D02*
D03*
X2375000Y525500D02*
D03*
X1910000Y500500D02*
D03*
X2015000Y525500D02*
D03*
X2635000Y1675000D02*
D03*
X2740000Y1700000D02*
D03*
X2275000Y1675000D02*
D03*
X2380000Y1700000D02*
D03*
X1915000Y1675000D02*
D03*
X2020000Y1700000D02*
D03*
D52*
X3150000Y50000D02*
D03*
X1730000Y1900000D02*
D03*
Y100000D02*
D03*
X3150000Y1950000D02*
D03*
X50000D02*
D03*
Y50000D02*
D03*
X1167500Y518500D02*
D03*
Y1316000D02*
D03*
Y1713500D02*
D03*
Y916000D02*
D03*
D53*
X2745041Y1315066D02*
D03*
X2770440D02*
D03*
X2795840D02*
D03*
X2821241D02*
D03*
X2770440Y1340466D02*
D03*
X2745041D02*
D03*
X2719641D02*
D03*
Y1315066D02*
D03*
X2795840Y1340466D02*
D03*
X2821241D02*
D03*
X2770440Y1238866D02*
D03*
X2745041D02*
D03*
X2719641D02*
D03*
X2795840D02*
D03*
X2821241D02*
D03*
X2719641Y1289666D02*
D03*
Y1264266D02*
D03*
X2745041Y1289666D02*
D03*
X2770440D02*
D03*
X2795840D02*
D03*
X2821241D02*
D03*
Y1264266D02*
D03*
X2795840D02*
D03*
X2770440D02*
D03*
X2745041D02*
D03*
Y915066D02*
D03*
X2770440D02*
D03*
X2795840D02*
D03*
X2821241D02*
D03*
X2770440Y940466D02*
D03*
X2745041D02*
D03*
X2719641D02*
D03*
Y915066D02*
D03*
X2795840Y940466D02*
D03*
X2821241D02*
D03*
X2770440Y838866D02*
D03*
X2745041D02*
D03*
X2719641D02*
D03*
X2795840D02*
D03*
X2821241D02*
D03*
X2719641Y889666D02*
D03*
Y864266D02*
D03*
X2745041Y889666D02*
D03*
X2770440D02*
D03*
X2795840D02*
D03*
X2821241D02*
D03*
Y864266D02*
D03*
X2795840D02*
D03*
X2770440D02*
D03*
X2745041D02*
D03*
X540000Y171000D02*
D03*
X447500D02*
D03*
X390000D02*
D03*
X625000Y1019502D02*
D03*
X535000Y1053500D02*
D03*
X625000Y1419502D02*
D03*
X535000Y1453500D02*
D03*
X625000Y1819502D02*
D03*
X535000Y1853500D02*
D03*
Y653500D02*
D03*
X625000Y619502D02*
D03*
X2611100Y998400D02*
D03*
X2636500D02*
D03*
X2661900D02*
D03*
D54*
X1536000Y1430200D02*
D03*
Y1379400D02*
D03*
Y1328600D02*
D03*
Y1277800D02*
D03*
Y1227000D02*
D03*
Y1176200D02*
D03*
Y1125400D02*
D03*
Y1074600D02*
D03*
Y1023800D02*
D03*
Y973000D02*
D03*
Y922200D02*
D03*
Y871400D02*
D03*
X2044000Y820600D02*
D03*
Y871400D02*
D03*
Y922200D02*
D03*
Y973000D02*
D03*
Y1023800D02*
D03*
Y1074600D02*
D03*
Y1125400D02*
D03*
Y1176200D02*
D03*
Y1227000D02*
D03*
Y1277800D02*
D03*
Y1328600D02*
D03*
Y1379400D02*
D03*
X1536000Y820600D02*
D03*
X2044000Y1430200D02*
D03*
X2500000Y1065000D02*
D03*
Y1115000D02*
D03*
X2300000D02*
D03*
Y1065000D02*
D03*
X937500Y464000D02*
D03*
Y518500D02*
D03*
Y573000D02*
D03*
Y1261500D02*
D03*
Y1316000D02*
D03*
Y1370500D02*
D03*
Y861500D02*
D03*
Y916000D02*
D03*
Y970500D02*
D03*
Y1659000D02*
D03*
Y1713500D02*
D03*
Y1768000D02*
D03*
D55*
X2377100Y152900D02*
D03*
X2427900D02*
D03*
Y102100D02*
D03*
X2377100D02*
D03*
X2259600Y152900D02*
D03*
X2310400D02*
D03*
Y102100D02*
D03*
X2259600D02*
D03*
X2142100Y152900D02*
D03*
X2192900D02*
D03*
Y102100D02*
D03*
X2142100D02*
D03*
X2024600Y152900D02*
D03*
X2075400D02*
D03*
Y102100D02*
D03*
X2024600D02*
D03*
D56*
X2402500Y127500D02*
D03*
X2285000D02*
D03*
X2167500D02*
D03*
X2050000D02*
D03*
D57*
X1112500Y691000D02*
D03*
X1387500D02*
D03*
X1330000Y1438500D02*
D03*
Y1163500D02*
D03*
Y826000D02*
D03*
Y1101000D02*
D03*
X1390000Y1571000D02*
D03*
X1115000D02*
D03*
D58*
X575000Y171000D02*
D03*
X482500D02*
D03*
X355000D02*
D03*
D59*
X2249500Y1405000D02*
D03*
Y1411000D02*
D03*
Y1399000D02*
D03*
X2255500D02*
D03*
Y1411000D02*
D03*
Y1405000D02*
D03*
X2178500Y816500D02*
D03*
Y810500D02*
D03*
Y822500D02*
D03*
X2172500D02*
D03*
Y810500D02*
D03*
Y816500D02*
D03*
D60*
X1090000Y1197261D02*
D03*
Y1064739D02*
D03*
D61*
X289600Y1011000D02*
D03*
X315000D02*
D03*
X340400D02*
D03*
X365800D02*
D03*
X289600Y1411000D02*
D03*
X315000D02*
D03*
X340400D02*
D03*
X365800D02*
D03*
X289600Y1811000D02*
D03*
X315000D02*
D03*
X340400D02*
D03*
X365800D02*
D03*
Y611000D02*
D03*
X340400D02*
D03*
X315000D02*
D03*
X289600D02*
D03*
X1882900Y295000D02*
D03*
X1857500D02*
D03*
X1832100D02*
D03*
X1806700D02*
D03*
D62*
X625000Y1054502D02*
D03*
X535000Y1018500D02*
D03*
X625000Y1454502D02*
D03*
X535000Y1418500D02*
D03*
X625000Y1854502D02*
D03*
X535000Y1818500D02*
D03*
Y618500D02*
D03*
X625000Y654502D02*
D03*
D63*
X190000Y170000D02*
D03*
D64*
Y265000D02*
D03*
D65*
X2700000Y1125400D02*
D03*
Y1100000D02*
D03*
X2573000Y1125400D02*
D03*
Y1100000D02*
D03*
X2700000Y1074600D02*
D03*
X2573000D02*
D03*
D66*
X1010500Y142500D02*
D03*
X1110500Y267500D02*
D03*
X1072500D02*
D03*
X972500Y142500D02*
D03*
D67*
X1380000D02*
D03*
D68*
Y217500D02*
D03*
M02*
