M48
;Layer_Color=7618602
;FILE_FORMAT=4:4
METRIC,LZ
;TYPE=PLATED
T1F00S00C0.3000
T2F00S00C0.4000
T3F00S00C0.7000
T4F00S00C0.8000
T5F00S00C1.1000
T6F00S00C1.2000
T7F00S00C1.4500
T8F00S00C1.5000
T9F00S00C1.6000
T10F00S00C1.6002
T11F00S00C1.7000
T12F00S00C1.8000
T13F00S00C3.0000
T14F00S00C3.4000
;TYPE=NON_PLATED
T15F00S00C3.2000
%
T01
X021725Y008105
X021785
Y008165
Y008225
X021725
Y008165
X022495Y01399
Y01405
Y01411
X022555
Y01405
Y01399
T02
X001125Y00015
X001375
X001625
X001875
X002125
X002375
X002625
X002875
X003125
X003375
X003625
X003875
X00375Y0004
X0035
X00325
X003
X00275
X0025
X00225
X002
X00175
X0015
X00125
X001375Y00065
X001625
X001875
X002125
X002375
X002Y0009
X00175
X0015
X00125
X001375Y00115
X001625
X001875
X002125
X002Y0014
X00175
X0015
X00125
X001
X00075
X0005
X00025
X000375Y00165
X000625
X000875
X001125
X001375
X001625
X0015Y0019
X00125
X001
X00075
X0005
X00025
X000375Y00215
X000625
X000875
X001125
X001375
X001625
X001875
X002125
X0015Y0024
X00125
X001
X00075
X0005
X00025
X000375Y00265
X000625
X000875
X001125
X001375
X0015Y0029
X00125
X001
X00075
X0005
X00025
X000375Y00315
X000625
X000875
X001125
X001375
X001625
X001875
X002125
X002Y0034
X00175
X0015
X00125
X001
X00075
X0005
X00025
X000375Y00365
X000625
X000125
X00025Y0039
X000125Y00315
Y00265
Y00215
Y00165
Y00115
X000375
X000625
X000875
X001125
Y00065
X003425Y001375
X00355
X003675
Y0015
X00355
X003425
X003175Y00201
X003075
X00385Y001975
X00395
X003875Y00115
X003Y003
X0029
X002875Y00315
X003Y0034
X0045
X004625Y00315
X004675Y00301
X004575
X004425
X004325
X004375Y00315
X00425Y0019
X00405Y001975
X004125Y00165
X00425Y0014
X004
X004125Y00115
X004375
X0045Y0009
X004475Y00081
Y00071
X004575Y00071
Y00081
X004875Y00065
X005Y0004
X00475
X0045
X00425
X004
X004125Y00015
X004375
X004625
X004875
X005125
X005375
X005625
X005875
X006125
X006375
X006625
X006875
X007Y0009
X00675
X0065
X00625
X006
X00575
X0055
X005625Y00115
X005875
X006125
X006375
X006625
X006875
X007Y0014
X00675
X0065
X00675Y0019
X007
X007125Y00215
X007375
X0075Y0024
X00725
X007
X00675
X006875Y00265
X007125
X007375
X0075Y0029
X00725
X007
X00675
X006875Y00315
X007125
X007375
X0075Y0034
X00725
X007
X00675
X006625Y00315
Y00265
Y00215
X006875
X005875
X00585Y0024
X005675
Y002225
X005375
Y0024
X0055Y0019
Y0014
X005375Y00115
X005125
X004925Y0014
X004825
X004725
Y001525
X004825
X004925
X0085Y0014
X0086Y0014
Y0013
Y0012
Y0011
X0087
X0088
Y0012
X0087
Y0013
X0088
Y0014
X0087
X012775Y002325
Y002475
Y002725
Y00285
X0155Y0039
X0157
X0159
X0161
X01615Y003275
X0163Y0034
X01645Y003275
X019525Y002375
X01965Y0025
X019525Y001775
X019325
X01915
X01965Y00165
X0212025Y0021775
Y0022775
X0223Y002325
Y002225
Y002425
X022625Y0031
X022775
X0227Y0018
X022925
X02315Y001975
X024325Y002
X02445Y002125
X024325Y00225
X02515Y00085
Y0007
X0259
Y00085
X02504246Y00727004
X02491746
X024125Y0074125
Y0075375
X009275Y004135
Y00401
X0081Y00436
X008
X006975Y004335
Y004435
Y004585
Y004685
X006725Y005385
Y005485
Y00571
Y00581
X006425
Y00571
X0064Y005485
Y005385
X006325Y005135
X006075Y004635
X005975
X005875
X0051Y00421
X00495
X004875Y00415
X004625
X00475Y0044
X004
X004075Y00491
X004075Y00513497
Y00533497
X004075Y005535
X004125Y00565
X00479087Y00562487
Y00549787
X00479Y00537
Y00524
Y00512
X00485Y00586
X0047
X00465Y00596
X0058Y006135
Y006235
Y006335
Y006435
Y006535
X003125Y00665
X002875
X002625
X00275Y0069
X003
X00325
X003125Y00715
X002875
X002625
X002375
X002125
X001875
X002Y0074
X00225
X0025
X00275
X003
X00325
X0025Y0069
X00225
X002
Y0064
X0021
X0019
X002125Y00615
X0024Y00616
X0025
X002625Y00615
X002Y0059
X00125
X001
X001125Y00615
X000875
X001Y0064
X00125
X001125Y00665
X000875
X001Y0069
X00125
X001125Y00715
X000875
X001Y0074
X00125
X00075
Y0069
Y0064
Y005425
X000625
Y00465
X000875
X001125
X0012425Y0046625
Y0047875
X00125Y0049
X0015
X001625Y00465
X001875
X002Y0044
X00175
X0015
X00125
X001
X00075
X000875Y00415
X001125
X001375
X001625
X001875
X002125
X002875
X003125
X003375
X003625
X003875
X003125Y00441
Y00451
Y00461
Y00471
X002875Y00465
X003Y0044
X0025Y0049
X0036Y00491
Y00511
Y00531
Y00551
Y00571
X001375Y00465
X001Y0049
X000125Y00415
X000875Y00815
X001125
X00125Y0084
X001
X00075
X000875Y00865
X001125
X0012425Y0086875
Y0088125
X001Y0089
X000725Y0094
X000575
X000625Y01015
X000875
X001125
X00125Y0104
X001
X00075
X000875Y01065
X001125
X00125Y0109
X001
X00075
X000875Y01115
X001125
X000625
Y01065
X001Y0099
X00125
X002
X002125Y01015
X0021Y0104
X002
X0019
X002Y0109
X00225
X0025
X00275
X003
X00325
X003125Y01115
X002875
X002625
X002375
X002125
X001875
X002Y0119
X00225
X0025
X00275
X003
X00325
X0035
X00375
X003125Y01065
X002875
X002625
Y01015
X0025Y01016
X0024
X0025Y0089
X00225
X002
X002125Y00865
X002375
X002625
X002875
X003125Y00861
Y00871
Y00851
Y00841
X003Y0084
X00275
X0025
X00225
X002
X002125Y00815
X002375
X002625
X002875
X003125
X003375
X003625
X003875
X0036Y00891
Y00911
Y00931
Y00951
Y00971
X001875Y00865
Y00815
X00125Y0119
X001
X00075
X004
X0045
X00465Y00996
X0047Y00986
X00485
X00479087Y00962487
Y00949788
X00479Y00937
Y00924
Y00912
X004075Y00913497
Y00933497
X004075Y009535
Y009685
X00415Y00996
X004075Y00891
X004Y0084
X00475
X004875Y00815
X00495Y00821
X0051
X004625Y00815
X005875Y008635
X005975
X006075
X006325Y009135
X0064Y009385
Y009485
X006425Y00971
Y00981
X006725
Y00971
Y009485
Y009385
X006975Y008685
Y008585
Y008435
Y008335
X0058Y010135
Y010235
Y010335
Y010435
Y010535
X00805Y008485
X0082
X008425Y00841
X008525Y00841
X0122Y01041
Y01051
X0123
X0124
Y01041
X0123Y01041
X0207Y0099
X0208
X0209
X021
X0211
X0212
X0213
X0214
X0214Y0098
Y0097
Y0096
Y0095
X0213
X0212
X0211
X021
X0209
X0208
X0207
Y0096
Y0097
X0208
Y0096
X0209
Y0097
X021
X0211
Y0096
X021
X0212
Y0097
Y0098
X0211
X021
X0209
X0208
X0207
Y0094
X0208
X0209
Y0093
X0208
X0207
Y0092
X0208
X0209
X021
Y0093
X0211
X0212
X0212Y0094
X0213
Y0096
Y0097
Y0098
X0211Y0094
X021
X0211Y0092
X021475Y009175
X021575
Y009075
X021675
X021775
Y008975
X021675
Y008875
X021775
X021875
Y008975
Y009075
X021975
X022075
Y008975
Y008875
X021975
Y008975
X02195Y00875
Y00865
Y00855
Y00845
X02145Y008225
X02135
X021475Y008875
Y008975
X021575
Y008875
X021475Y009075
X022775Y00915
Y00925
X022725Y007975
X022625
X022825
X0251521Y00849246
X0252521
X0253021Y00909246
Y00919246
X0248Y015
X0246
X0245
X0243
X023575Y0144125
Y0142875
X022975Y014
X022875
X0223Y01375
Y01365
Y01355
Y01345
X02225Y0132
X02235
Y0131
X02225
Y013
X02235
X02245
X02255
Y0131
Y0132
X02245
Y0131
Y0129
X02255
X02215Y013
X02205
X02195
Y0131
Y0132
X02205
Y0131
X02215
Y0132
X0214Y013025
X0213
Y0126
Y0125
X0214
Y0126
Y0124
Y0123
Y0122
X0213
Y0123
X0212
Y0122
X0211
X021
X0209
X0208
X0207
Y0123
Y0124
Y0125
Y0126
Y0127
Y0128
Y0129
X0208
X0209
X021
Y0128
X0209
Y0127
X021
Y0126
X0209
Y0125
Y0124
X021
Y0125
X0211
Y0124
X0212
Y0125
Y0126
Y0127
X0211
Y0128
X0211Y0126
X0211Y0123
X021
X0209
X0208
Y0124
Y0125
Y0126
Y0127
Y0128
X0213Y0124
X021425Y014325
X021525
X021625
X00815Y012435
X008
X006975Y012435
Y012335
Y012585
Y012685
X006725Y013385
Y013485
Y01371
Y01381
X006425
Y01371
X0064Y013485
Y013385
X006325Y013135
X006075Y012635
X005975
X005875
X00505Y0122
X00495
X004625Y01215
X004Y0124
X004075Y01291
X004075Y01313497
Y01333497
X004075Y013535
Y013685
X004525Y013935
X004525Y014075
X0047Y01386
X00485
X00479087Y01362487
Y01349787
X00479Y01337
Y01324
Y01312
X0058Y014135
Y014235
Y014335
Y014435
Y014535
X003125Y01465
X002875
X002625
X00275Y0149
X003
X00325
X003125Y01515
X002875
X002625
X002375
X002125
X001875
X002Y0154
X00225
X0025
X00275
X003
X00325
X0025Y0149
X00225
X002
Y0144
X0019
X0021
X002125Y01415
X0024Y01416
X0025
X002625Y01415
X002Y0139
X00125
X001
X001125Y01415
X000875
X001Y0144
X00125
X001125Y01465
X000875
X001Y0149
X00125
X001125Y01515
X000875
X00075Y0149
Y0144
Y01335
X0006
X000625Y01315
Y01265
X000875
X001125
X00125Y0129
X001
Y0124
X00125
X001125Y01215
X000875
X000625
X00075Y0124
X002
X00225
X0025
X00275
X003
X003125Y01241
Y01251
Y01261
Y01271
X002875Y01265
X002625
X002375
X002125
X001875
X002Y0129
X00225
X0025
X002625Y01215
X002875
X003125
X003375
X003625
X003875
X0036Y01291
Y01311
Y01331
Y01351
Y01371
X002375Y01215
X002125
X001875
X00125Y0154
X00025
X000125Y01565
Y01515
X00025Y0159
X000125Y01615
X00025Y0164
X000125Y01665
X00025Y0169
X000125Y01715
X00025Y0174
X0006Y017425
X00075Y01743132
X000375Y01765
X000125
X00025Y0179
X000375Y01815
X000625
X000875
X001125
X00125Y0184
X001
X00075
X0005
X00025
X000375Y01865
X000625
X000875
X001125
X001375
X001625
X00175Y0189
X002
X00225
X0025
X00275
X003
X00325
X003125Y01915
X002875
X002625
X002375
X002125
X001875
X001625
X001375
X001125
X00125Y0189
X0015
X001
X00075
X0005
X00025
X000125Y01865
Y01815
X001Y0179
X00125
X002
X002125Y01815
X0021Y0184
X002
X0019
X0024Y01816
X0025
X002625Y01815
Y01865
X002875
X003125
X0036Y01771
Y01751
Y01731
Y01711
Y01691
X003125Y01671
Y01661
Y01651
Y01641
X003Y0164
X00275
X0025
X00225
X002
X002125Y01665
X002375
X002625
X002875
Y01615
X003125
X003375
X003625
X003875
X002625
X002375
X002125
X001875
Y01665
X002Y0169
X00225
X0025
X00125
X001
X001125Y01665
X000875
X001Y0164
X00125
X001125Y01615
X000875
X00075Y0164
Y0159
X004Y0164
X004075Y01691
X004075Y01713497
Y01733497
X004075Y017535
Y017685
X00415Y01796
X00465
X0047Y01786
X00485
X00479087Y01762488
Y01749788
X00479Y01737
Y01724
Y01712
X004875Y01615
X00495Y01621
X0051
X004625Y01615
X005875Y016635
X005975
X006075
X006325Y017135
X0064Y017385
Y017485
X006425Y01771
Y01781
X006725
Y01771
Y017485
Y017385
X006975Y016685
Y016585
Y016435
Y016335
X0058Y018135
Y018235
Y018335
Y018435
Y018535
X00805Y016435
X0082
X008425Y016385
X008525Y016385
T03
X018067Y00295
X018321
X018575
X018829
X003658Y00611
X003404
X00315
X002896
Y01011
X00315
X003404
X003658
Y01411
X003404
X00315
X002896
Y01811
X00315
X003404
X003658
T04
X00355Y00171
X0039
X004475
X004825
X0054
X00575
X00535Y006185
Y006535
X00625Y00654502
Y00619502
Y01019502
Y01054502
X00535Y010535
Y010185
X026111Y009984
X026365
X026619
X00625Y01419502
Y01454502
X00535Y014535
Y014185
Y018185
Y018535
X00625Y01854502
Y01819502
T05
X0138Y001425
Y002175
X013875Y00691
X011125
X0133Y00826
Y01101
Y011635
X02573Y011254
Y011
Y010746
X027
Y011
Y011254
X0133Y014385
X0139Y01571
X01115
T06
X0109Y01064739
Y01197261
T07
X02719641Y00838866
X02745041
X0277044
Y00864266
Y00889666
Y00915066
X02745041
Y00940466
X0277044
X02719641
Y00915066
Y00889666
Y00864266
X02745041
Y00889666
X0279584
Y00915066
X02821241
Y00940466
X0279584
X02821241Y00889666
Y00864266
Y00838866
X0279584
Y00864266
Y01238866
X02821241
Y01264266
Y01289666
Y01315066
X0279584
Y01340466
X02821241
X0279584Y01289666
Y01264266
X0277044
Y01238866
X02745041
X02719641
Y01264266
Y01289666
Y01315066
X02745041
X0277044
Y01340466
X02745041
X02719641
X02745041Y01289666
X0277044
X02745041Y01264266
T08
X0205Y001275
X021675
X02285
X024025
X009375Y00464
Y005185
Y00573
Y008615
Y00916
Y009705
Y012615
Y01316
Y013705
Y01659
Y017135
Y01768
T09
X01536Y008714
Y009222
Y00973
Y010238
Y010746
Y011254
Y011762
X02044
Y011254
Y010746
Y010238
Y00973
Y009222
Y008714
Y008206
Y01227
Y012778
Y013286
Y013794
X01536
Y014302
Y013286
Y012778
Y01227
T10
X009725Y001425
X010105
X010725Y002675
X011105
T11
X020246Y001021
Y001529
X020754
Y001021
X021421
Y001529
X021929
Y001021
X022596
Y001529
X023104
Y001021
X023771
Y001529
X024279
Y001021
T12
X0019Y0017
Y00265
X023Y01065
Y01115
X025
Y01065
T13
X0263Y005005
X02735Y005255
X02375
X0227Y005005
X02015Y005255
X0191Y005005
X01915Y01675
X0202Y017
X02275Y01675
X0238Y017
X02635Y01675
X0274Y017
T14
X01536Y008206
X02044Y014302
T15
X0005Y0005
X0173Y001
X0315Y0005
X011675Y005185
Y00916
Y01316
X0005Y0195
X011675Y017135
X0173Y019
X0315Y0195
M30
