G04*
G04 #@! TF.GenerationSoftware,Altium Limited,Altium Designer,19.1.9 (167)*
G04*
G04 Layer_Color=14412276*
%FSLAX44Y44*%
%MOMM*%
G71*
G01*
G75*
%ADD10C,0.2000*%
%ADD14C,0.5080*%
G36*
X2698279Y389987D02*
X2698421Y389961D01*
X2698551Y389909D01*
X2698667Y389857D01*
X2698758Y389780D01*
X2698835Y389702D01*
X2698900Y389611D01*
X2698952Y389521D01*
X2699017Y389352D01*
X2699056Y389197D01*
X2699069Y389145D01*
Y389093D01*
Y389067D01*
Y389054D01*
Y387111D01*
X2700273D01*
X2700442Y387098D01*
X2700584Y387072D01*
X2700714Y387021D01*
X2700830Y386969D01*
X2700921Y386891D01*
X2700999Y386813D01*
X2701064Y386723D01*
X2701115Y386632D01*
X2701180Y386464D01*
X2701219Y386308D01*
X2701232Y386256D01*
Y386204D01*
Y386179D01*
Y386166D01*
X2701219Y385997D01*
X2701193Y385855D01*
X2701141Y385725D01*
X2701077Y385622D01*
X2701012Y385531D01*
X2700934Y385453D01*
X2700844Y385388D01*
X2700753Y385337D01*
X2700571Y385272D01*
X2700429Y385233D01*
X2700364Y385220D01*
X2699069D01*
Y383277D01*
X2699056Y383108D01*
X2699030Y382966D01*
X2698978Y382836D01*
X2698913Y382733D01*
X2698849Y382642D01*
X2698771Y382564D01*
X2698680Y382500D01*
X2698589Y382448D01*
X2698408Y382383D01*
X2698266Y382344D01*
X2698201Y382331D01*
X2698110D01*
X2697942Y382344D01*
X2697799Y382370D01*
X2697670Y382422D01*
X2697566Y382474D01*
X2697475Y382551D01*
X2697398Y382629D01*
X2697333Y382720D01*
X2697281Y382798D01*
X2697216Y382979D01*
X2697177Y383134D01*
Y383186D01*
X2697165Y383238D01*
Y383264D01*
Y383277D01*
Y385220D01*
X2694237D01*
X2696854Y376385D01*
X2696880Y376243D01*
X2696906Y376139D01*
Y376087D01*
Y376062D01*
X2696892Y375893D01*
X2696866Y375751D01*
X2696815Y375621D01*
X2696750Y375517D01*
X2696685Y375427D01*
X2696607Y375349D01*
X2696517Y375284D01*
X2696426Y375232D01*
X2696245Y375168D01*
X2696102Y375129D01*
X2696038Y375116D01*
X2695817D01*
X2695701Y375142D01*
X2695506Y375206D01*
X2695351Y375297D01*
X2695234Y375401D01*
X2695144Y375504D01*
X2695092Y375595D01*
X2695066Y375660D01*
X2695053Y375673D01*
Y375686D01*
X2692138Y385906D01*
X2692126Y385984D01*
X2692112Y386075D01*
Y386140D01*
Y386153D01*
Y386166D01*
X2692126Y386334D01*
X2692151Y386477D01*
X2692203Y386606D01*
X2692255Y386710D01*
X2692333Y386800D01*
X2692410Y386878D01*
X2692501Y386943D01*
X2692592Y386995D01*
X2692760Y387059D01*
X2692916Y387098D01*
X2692968D01*
X2693019Y387111D01*
X2697165D01*
Y389054D01*
X2697177Y389223D01*
X2697203Y389365D01*
X2697255Y389495D01*
X2697307Y389598D01*
X2697385Y389689D01*
X2697462Y389767D01*
X2697553Y389832D01*
X2697644Y389883D01*
X2697812Y389948D01*
X2697968Y389987D01*
X2698019D01*
X2698071Y390000D01*
X2698110D01*
X2698279Y389987D01*
D02*
G37*
G36*
X2686490D02*
X2686633Y389961D01*
X2686762Y389909D01*
X2686879Y389857D01*
X2686970Y389780D01*
X2687047Y389702D01*
X2687112Y389611D01*
X2687164Y389521D01*
X2687229Y389352D01*
X2687268Y389197D01*
X2687281Y389145D01*
Y389093D01*
Y389067D01*
Y389054D01*
Y387111D01*
X2688485D01*
X2688654Y387098D01*
X2688796Y387072D01*
X2688926Y387021D01*
X2689042Y386969D01*
X2689133Y386891D01*
X2689211Y386813D01*
X2689276Y386723D01*
X2689327Y386632D01*
X2689392Y386464D01*
X2689431Y386308D01*
X2689444Y386256D01*
Y386204D01*
Y386179D01*
Y386166D01*
X2689431Y385997D01*
X2689405Y385855D01*
X2689353Y385725D01*
X2689289Y385622D01*
X2689224Y385531D01*
X2689146Y385453D01*
X2689055Y385388D01*
X2688965Y385337D01*
X2688783Y385272D01*
X2688641Y385233D01*
X2688576Y385220D01*
X2687281D01*
Y383277D01*
X2687268Y383108D01*
X2687242Y382966D01*
X2687190Y382836D01*
X2687125Y382733D01*
X2687061Y382642D01*
X2686983Y382564D01*
X2686892Y382500D01*
X2686801Y382448D01*
X2686620Y382383D01*
X2686477Y382344D01*
X2686413Y382331D01*
X2686322D01*
X2686154Y382344D01*
X2686011Y382370D01*
X2685882Y382422D01*
X2685778Y382474D01*
X2685687Y382551D01*
X2685610Y382629D01*
X2685545Y382720D01*
X2685493Y382798D01*
X2685428Y382979D01*
X2685389Y383134D01*
Y383186D01*
X2685376Y383238D01*
Y383264D01*
Y383277D01*
Y385220D01*
X2682449D01*
X2685066Y376385D01*
X2685091Y376243D01*
X2685117Y376139D01*
Y376087D01*
Y376062D01*
X2685104Y375893D01*
X2685078Y375751D01*
X2685027Y375621D01*
X2684962Y375517D01*
X2684897Y375427D01*
X2684819Y375349D01*
X2684729Y375284D01*
X2684638Y375232D01*
X2684457Y375168D01*
X2684314Y375129D01*
X2684249Y375116D01*
X2684029D01*
X2683913Y375142D01*
X2683718Y375206D01*
X2683563Y375297D01*
X2683446Y375401D01*
X2683356Y375504D01*
X2683304Y375595D01*
X2683278Y375660D01*
X2683265Y375673D01*
Y375686D01*
X2680350Y385906D01*
X2680337Y385984D01*
X2680324Y386075D01*
Y386140D01*
Y386153D01*
Y386166D01*
X2680337Y386334D01*
X2680363Y386477D01*
X2680415Y386606D01*
X2680467Y386710D01*
X2680544Y386800D01*
X2680622Y386878D01*
X2680713Y386943D01*
X2680804Y386995D01*
X2680972Y387059D01*
X2681128Y387098D01*
X2681179D01*
X2681231Y387111D01*
X2685376D01*
Y389054D01*
X2685389Y389223D01*
X2685415Y389365D01*
X2685467Y389495D01*
X2685519Y389598D01*
X2685597Y389689D01*
X2685674Y389767D01*
X2685765Y389832D01*
X2685856Y389883D01*
X2686024Y389948D01*
X2686180Y389987D01*
X2686231D01*
X2686283Y390000D01*
X2686322D01*
X2686490Y389987D01*
D02*
G37*
G36*
X2676891D02*
X2677034Y389961D01*
X2677164Y389909D01*
X2677280Y389857D01*
X2677371Y389780D01*
X2677448Y389702D01*
X2677513Y389611D01*
X2677565Y389521D01*
X2677630Y389352D01*
X2677669Y389197D01*
X2677682Y389145D01*
Y389093D01*
Y389067D01*
Y389054D01*
X2677669Y388886D01*
X2677643Y388744D01*
X2677591Y388614D01*
X2677526Y388510D01*
X2677462Y388420D01*
X2677384Y388342D01*
X2677293Y388277D01*
X2677202Y388225D01*
X2677021Y388161D01*
X2676879Y388122D01*
X2676814Y388109D01*
X2673835D01*
X2673692Y388096D01*
X2673549Y388083D01*
X2673277Y388018D01*
X2673044Y387927D01*
X2672850Y387824D01*
X2672682Y387733D01*
X2672565Y387642D01*
X2672487Y387578D01*
X2672474Y387552D01*
X2672461D01*
X2672357Y387448D01*
X2672280Y387332D01*
X2672137Y387098D01*
X2672047Y386865D01*
X2671969Y386645D01*
X2671930Y386451D01*
X2671917Y386295D01*
X2671904Y386243D01*
Y386204D01*
Y386179D01*
Y386166D01*
Y378950D01*
X2671917Y378808D01*
X2671930Y378665D01*
X2671995Y378393D01*
X2672086Y378160D01*
X2672189Y377966D01*
X2672280Y377797D01*
X2672371Y377681D01*
X2672435Y377603D01*
X2672461Y377577D01*
X2672565Y377473D01*
X2672682Y377383D01*
X2672915Y377253D01*
X2673135Y377150D01*
X2673355Y377072D01*
X2673549Y377033D01*
X2673705Y377020D01*
X2673757Y377007D01*
X2676723D01*
X2676891Y376994D01*
X2677034Y376968D01*
X2677164Y376917D01*
X2677280Y376865D01*
X2677371Y376787D01*
X2677448Y376709D01*
X2677513Y376618D01*
X2677565Y376528D01*
X2677630Y376359D01*
X2677669Y376204D01*
X2677682Y376152D01*
Y376100D01*
Y376074D01*
Y376062D01*
X2677669Y375893D01*
X2677643Y375751D01*
X2677591Y375621D01*
X2677526Y375517D01*
X2677462Y375427D01*
X2677384Y375349D01*
X2677293Y375284D01*
X2677202Y375232D01*
X2677021Y375168D01*
X2676879Y375129D01*
X2676814Y375116D01*
X2673835D01*
X2673536Y375129D01*
X2673264Y375168D01*
X2672992Y375219D01*
X2672733Y375297D01*
X2672500Y375375D01*
X2672280Y375466D01*
X2672072Y375569D01*
X2671878Y375673D01*
X2671710Y375789D01*
X2671555Y375880D01*
X2671425Y375984D01*
X2671321Y376062D01*
X2671230Y376139D01*
X2671166Y376191D01*
X2671127Y376230D01*
X2671114Y376243D01*
X2670920Y376450D01*
X2670751Y376683D01*
X2670596Y376903D01*
X2670466Y377137D01*
X2670363Y377370D01*
X2670272Y377590D01*
X2670194Y377810D01*
X2670143Y378018D01*
X2670091Y378212D01*
X2670065Y378393D01*
X2670039Y378549D01*
X2670013Y378678D01*
Y378795D01*
X2670000Y378885D01*
Y378937D01*
Y378950D01*
Y386166D01*
X2670013Y386464D01*
X2670052Y386736D01*
X2670103Y387008D01*
X2670168Y387267D01*
X2670259Y387500D01*
X2670350Y387720D01*
X2670453Y387927D01*
X2670557Y388122D01*
X2670661Y388290D01*
X2670764Y388446D01*
X2670855Y388575D01*
X2670946Y388679D01*
X2671010Y388769D01*
X2671062Y388834D01*
X2671101Y388873D01*
X2671114Y388886D01*
X2671334Y389080D01*
X2671555Y389249D01*
X2671788Y389404D01*
X2672021Y389534D01*
X2672241Y389637D01*
X2672474Y389728D01*
X2672694Y389806D01*
X2672902Y389857D01*
X2673096Y389909D01*
X2673277Y389935D01*
X2673433Y389961D01*
X2673562Y389987D01*
X2673679D01*
X2673770Y390000D01*
X2676723D01*
X2676891Y389987D01*
D02*
G37*
G36*
X2326490D02*
X2326633Y389961D01*
X2326763Y389909D01*
X2326879Y389857D01*
X2326970Y389780D01*
X2327047Y389702D01*
X2327112Y389611D01*
X2327164Y389521D01*
X2327229Y389352D01*
X2327268Y389197D01*
X2327281Y389145D01*
Y389093D01*
Y389067D01*
Y389054D01*
Y387111D01*
X2328485D01*
X2328654Y387098D01*
X2328796Y387072D01*
X2328926Y387021D01*
X2329042Y386969D01*
X2329133Y386891D01*
X2329211Y386813D01*
X2329276Y386723D01*
X2329327Y386632D01*
X2329392Y386464D01*
X2329431Y386308D01*
X2329444Y386256D01*
Y386204D01*
Y386179D01*
Y386166D01*
X2329431Y385997D01*
X2329405Y385855D01*
X2329353Y385725D01*
X2329288Y385622D01*
X2329224Y385531D01*
X2329146Y385453D01*
X2329055Y385388D01*
X2328965Y385337D01*
X2328783Y385272D01*
X2328641Y385233D01*
X2328576Y385220D01*
X2327281D01*
Y383277D01*
X2327268Y383108D01*
X2327242Y382966D01*
X2327190Y382836D01*
X2327125Y382733D01*
X2327060Y382642D01*
X2326983Y382564D01*
X2326892Y382500D01*
X2326801Y382448D01*
X2326620Y382383D01*
X2326478Y382344D01*
X2326413Y382331D01*
X2326322D01*
X2326154Y382344D01*
X2326011Y382370D01*
X2325882Y382422D01*
X2325778Y382474D01*
X2325687Y382551D01*
X2325610Y382629D01*
X2325545Y382720D01*
X2325493Y382798D01*
X2325428Y382979D01*
X2325389Y383134D01*
Y383186D01*
X2325376Y383238D01*
Y383264D01*
Y383277D01*
Y385220D01*
X2322449D01*
X2325065Y376385D01*
X2325091Y376243D01*
X2325117Y376139D01*
Y376087D01*
Y376062D01*
X2325104Y375893D01*
X2325078Y375751D01*
X2325027Y375621D01*
X2324962Y375517D01*
X2324897Y375427D01*
X2324819Y375349D01*
X2324729Y375284D01*
X2324638Y375232D01*
X2324457Y375168D01*
X2324314Y375129D01*
X2324249Y375116D01*
X2324029D01*
X2323913Y375142D01*
X2323718Y375206D01*
X2323563Y375297D01*
X2323446Y375401D01*
X2323356Y375504D01*
X2323304Y375595D01*
X2323278Y375660D01*
X2323265Y375673D01*
Y375686D01*
X2320350Y385906D01*
X2320337Y385984D01*
X2320324Y386075D01*
Y386140D01*
Y386153D01*
Y386166D01*
X2320337Y386334D01*
X2320363Y386477D01*
X2320415Y386606D01*
X2320467Y386710D01*
X2320545Y386800D01*
X2320622Y386878D01*
X2320713Y386943D01*
X2320804Y386995D01*
X2320972Y387059D01*
X2321127Y387098D01*
X2321179D01*
X2321231Y387111D01*
X2325376D01*
Y389054D01*
X2325389Y389223D01*
X2325415Y389365D01*
X2325467Y389495D01*
X2325519Y389598D01*
X2325597Y389689D01*
X2325674Y389767D01*
X2325765Y389832D01*
X2325856Y389883D01*
X2326024Y389948D01*
X2326180Y389987D01*
X2326231D01*
X2326283Y390000D01*
X2326322D01*
X2326490Y389987D01*
D02*
G37*
G36*
X2336232D02*
X2336517Y389948D01*
X2336789Y389896D01*
X2337035Y389832D01*
X2337281Y389741D01*
X2337501Y389650D01*
X2337709Y389547D01*
X2337890Y389443D01*
X2338058Y389339D01*
X2338214Y389236D01*
X2338343Y389145D01*
X2338460Y389054D01*
X2338538Y388990D01*
X2338602Y388938D01*
X2338641Y388899D01*
X2338654Y388886D01*
X2338862Y388666D01*
X2339030Y388446D01*
X2339185Y388212D01*
X2339315Y387979D01*
X2339418Y387759D01*
X2339522Y387526D01*
X2339587Y387306D01*
X2339652Y387098D01*
X2339704Y386904D01*
X2339729Y386723D01*
X2339755Y386567D01*
X2339781Y386438D01*
Y386321D01*
X2339794Y386230D01*
Y386179D01*
Y386166D01*
Y384728D01*
X2339781Y384378D01*
X2339729Y384054D01*
X2339665Y383756D01*
X2339574Y383471D01*
X2339457Y383212D01*
X2339341Y382979D01*
X2339198Y382759D01*
X2339069Y382564D01*
X2338939Y382396D01*
X2338797Y382253D01*
X2338680Y382124D01*
X2338577Y382020D01*
X2338473Y381943D01*
X2338408Y381891D01*
X2338356Y381852D01*
X2338343Y381839D01*
X2338602Y381645D01*
X2338823Y381437D01*
X2339017Y381204D01*
X2339185Y380971D01*
X2339328Y380738D01*
X2339444Y380492D01*
X2339535Y380259D01*
X2339613Y380025D01*
X2339678Y379805D01*
X2339716Y379598D01*
X2339755Y379417D01*
X2339768Y379261D01*
X2339781Y379132D01*
X2339794Y379028D01*
Y378976D01*
Y378950D01*
X2339781Y378665D01*
X2339742Y378380D01*
X2339691Y378121D01*
X2339613Y377862D01*
X2339535Y377629D01*
X2339444Y377409D01*
X2339341Y377201D01*
X2339237Y377020D01*
X2339121Y376839D01*
X2339030Y376696D01*
X2338926Y376567D01*
X2338849Y376450D01*
X2338771Y376372D01*
X2338719Y376308D01*
X2338680Y376269D01*
X2338667Y376256D01*
X2338447Y376049D01*
X2338227Y375880D01*
X2337994Y375725D01*
X2337773Y375595D01*
X2337540Y375491D01*
X2337307Y375388D01*
X2337087Y375323D01*
X2336880Y375258D01*
X2336685Y375206D01*
X2336517Y375181D01*
X2336348Y375155D01*
X2336219Y375129D01*
X2336102D01*
X2336012Y375116D01*
X2333058D01*
X2332890Y375129D01*
X2332747Y375155D01*
X2332618Y375206D01*
X2332514Y375258D01*
X2332423Y375336D01*
X2332346Y375414D01*
X2332281Y375504D01*
X2332229Y375582D01*
X2332164Y375764D01*
X2332125Y375919D01*
Y375971D01*
X2332112Y376023D01*
Y376049D01*
Y376062D01*
X2332125Y376230D01*
X2332151Y376372D01*
X2332203Y376502D01*
X2332255Y376606D01*
X2332333Y376696D01*
X2332410Y376774D01*
X2332501Y376839D01*
X2332592Y376891D01*
X2332760Y376955D01*
X2332916Y376994D01*
X2332967D01*
X2333019Y377007D01*
X2336089D01*
X2336232Y377033D01*
X2336504Y377098D01*
X2336737Y377188D01*
X2336931Y377292D01*
X2337100Y377396D01*
X2337216Y377486D01*
X2337294Y377551D01*
X2337320Y377564D01*
Y377577D01*
X2337424Y377681D01*
X2337514Y377797D01*
X2337644Y378031D01*
X2337747Y378264D01*
X2337825Y378471D01*
X2337864Y378652D01*
X2337877Y378808D01*
X2337890Y378860D01*
Y378898D01*
Y378924D01*
Y378937D01*
Y379093D01*
X2337864Y379235D01*
X2337799Y379507D01*
X2337709Y379740D01*
X2337605Y379935D01*
X2337501Y380103D01*
X2337411Y380220D01*
X2337346Y380298D01*
X2337333Y380310D01*
X2337320Y380323D01*
X2337216Y380427D01*
X2337100Y380505D01*
X2336867Y380647D01*
X2336646Y380738D01*
X2336426Y380816D01*
X2336245Y380854D01*
X2336089Y380867D01*
X2336037Y380880D01*
X2334509D01*
X2334341Y380893D01*
X2334198Y380919D01*
X2334068Y380971D01*
X2333965Y381023D01*
X2333874Y381101D01*
X2333797Y381178D01*
X2333732Y381269D01*
X2333680Y381347D01*
X2333615Y381528D01*
X2333576Y381684D01*
Y381735D01*
X2333563Y381787D01*
Y381813D01*
Y381826D01*
X2333576Y381994D01*
X2333602Y382137D01*
X2333654Y382267D01*
X2333706Y382370D01*
X2333784Y382461D01*
X2333861Y382538D01*
X2333952Y382603D01*
X2334043Y382655D01*
X2334211Y382720D01*
X2334366Y382759D01*
X2334418D01*
X2334470Y382772D01*
X2336102D01*
X2336245Y382798D01*
X2336504Y382862D01*
X2336737Y382953D01*
X2336931Y383057D01*
X2337100Y383173D01*
X2337216Y383264D01*
X2337294Y383329D01*
X2337320Y383342D01*
Y383355D01*
X2337424Y383458D01*
X2337514Y383575D01*
X2337644Y383808D01*
X2337747Y384041D01*
X2337825Y384248D01*
X2337864Y384430D01*
X2337877Y384585D01*
X2337890Y384637D01*
Y384676D01*
Y384702D01*
Y384715D01*
Y386166D01*
Y386321D01*
X2337864Y386464D01*
X2337799Y386723D01*
X2337709Y386969D01*
X2337605Y387163D01*
X2337501Y387332D01*
X2337411Y387448D01*
X2337346Y387526D01*
X2337333Y387539D01*
X2337320Y387552D01*
X2337216Y387655D01*
X2337100Y387733D01*
X2336867Y387876D01*
X2336633Y387966D01*
X2336426Y388044D01*
X2336232Y388083D01*
X2336076Y388096D01*
X2336025Y388109D01*
X2333058D01*
X2332890Y388122D01*
X2332747Y388148D01*
X2332618Y388199D01*
X2332514Y388251D01*
X2332423Y388329D01*
X2332346Y388407D01*
X2332281Y388497D01*
X2332229Y388575D01*
X2332164Y388756D01*
X2332125Y388912D01*
Y388964D01*
X2332112Y389016D01*
Y389041D01*
Y389054D01*
X2332125Y389223D01*
X2332151Y389365D01*
X2332203Y389495D01*
X2332255Y389598D01*
X2332333Y389689D01*
X2332410Y389767D01*
X2332501Y389832D01*
X2332592Y389883D01*
X2332760Y389948D01*
X2332916Y389987D01*
X2332967D01*
X2333019Y390000D01*
X2335947D01*
X2336232Y389987D01*
D02*
G37*
G36*
X2316891D02*
X2317034Y389961D01*
X2317164Y389909D01*
X2317280Y389857D01*
X2317371Y389780D01*
X2317449Y389702D01*
X2317513Y389611D01*
X2317565Y389521D01*
X2317630Y389352D01*
X2317669Y389197D01*
X2317682Y389145D01*
Y389093D01*
Y389067D01*
Y389054D01*
X2317669Y388886D01*
X2317643Y388744D01*
X2317591Y388614D01*
X2317526Y388510D01*
X2317462Y388420D01*
X2317384Y388342D01*
X2317293Y388277D01*
X2317202Y388225D01*
X2317021Y388161D01*
X2316879Y388122D01*
X2316814Y388109D01*
X2313834D01*
X2313692Y388096D01*
X2313549Y388083D01*
X2313277Y388018D01*
X2313044Y387927D01*
X2312850Y387824D01*
X2312681Y387733D01*
X2312565Y387642D01*
X2312487Y387578D01*
X2312474Y387552D01*
X2312461D01*
X2312358Y387448D01*
X2312280Y387332D01*
X2312137Y387098D01*
X2312047Y386865D01*
X2311969Y386645D01*
X2311930Y386451D01*
X2311917Y386295D01*
X2311904Y386243D01*
Y386204D01*
Y386179D01*
Y386166D01*
Y378950D01*
X2311917Y378808D01*
X2311930Y378665D01*
X2311995Y378393D01*
X2312086Y378160D01*
X2312189Y377966D01*
X2312280Y377797D01*
X2312371Y377681D01*
X2312435Y377603D01*
X2312461Y377577D01*
X2312565Y377473D01*
X2312681Y377383D01*
X2312915Y377253D01*
X2313135Y377150D01*
X2313355Y377072D01*
X2313549Y377033D01*
X2313705Y377020D01*
X2313757Y377007D01*
X2316723D01*
X2316891Y376994D01*
X2317034Y376968D01*
X2317164Y376917D01*
X2317280Y376865D01*
X2317371Y376787D01*
X2317449Y376709D01*
X2317513Y376618D01*
X2317565Y376528D01*
X2317630Y376359D01*
X2317669Y376204D01*
X2317682Y376152D01*
Y376100D01*
Y376074D01*
Y376062D01*
X2317669Y375893D01*
X2317643Y375751D01*
X2317591Y375621D01*
X2317526Y375517D01*
X2317462Y375427D01*
X2317384Y375349D01*
X2317293Y375284D01*
X2317202Y375232D01*
X2317021Y375168D01*
X2316879Y375129D01*
X2316814Y375116D01*
X2313834D01*
X2313536Y375129D01*
X2313264Y375168D01*
X2312992Y375219D01*
X2312733Y375297D01*
X2312500Y375375D01*
X2312280Y375466D01*
X2312073Y375569D01*
X2311878Y375673D01*
X2311710Y375789D01*
X2311555Y375880D01*
X2311425Y375984D01*
X2311321Y376062D01*
X2311231Y376139D01*
X2311166Y376191D01*
X2311127Y376230D01*
X2311114Y376243D01*
X2310920Y376450D01*
X2310751Y376683D01*
X2310596Y376903D01*
X2310466Y377137D01*
X2310363Y377370D01*
X2310272Y377590D01*
X2310194Y377810D01*
X2310143Y378018D01*
X2310091Y378212D01*
X2310065Y378393D01*
X2310039Y378549D01*
X2310013Y378678D01*
Y378795D01*
X2310000Y378885D01*
Y378937D01*
Y378950D01*
Y386166D01*
X2310013Y386464D01*
X2310052Y386736D01*
X2310104Y387008D01*
X2310168Y387267D01*
X2310259Y387500D01*
X2310350Y387720D01*
X2310453Y387927D01*
X2310557Y388122D01*
X2310661Y388290D01*
X2310764Y388446D01*
X2310855Y388575D01*
X2310946Y388679D01*
X2311010Y388769D01*
X2311062Y388834D01*
X2311101Y388873D01*
X2311114Y388886D01*
X2311334Y389080D01*
X2311555Y389249D01*
X2311788Y389404D01*
X2312021Y389534D01*
X2312241Y389637D01*
X2312474Y389728D01*
X2312694Y389806D01*
X2312902Y389857D01*
X2313096Y389909D01*
X2313277Y389935D01*
X2313433Y389961D01*
X2313562Y389987D01*
X2313679D01*
X2313770Y390000D01*
X2316723D01*
X2316891Y389987D01*
D02*
G37*
G36*
X1966490D02*
X1966633Y389961D01*
X1966763Y389909D01*
X1966879Y389857D01*
X1966970Y389780D01*
X1967047Y389702D01*
X1967112Y389611D01*
X1967164Y389521D01*
X1967229Y389352D01*
X1967268Y389197D01*
X1967281Y389145D01*
Y389093D01*
Y389067D01*
Y389054D01*
Y387111D01*
X1968485D01*
X1968654Y387098D01*
X1968796Y387072D01*
X1968926Y387021D01*
X1969042Y386969D01*
X1969133Y386891D01*
X1969211Y386813D01*
X1969276Y386723D01*
X1969327Y386632D01*
X1969392Y386464D01*
X1969431Y386308D01*
X1969444Y386256D01*
Y386204D01*
Y386179D01*
Y386166D01*
X1969431Y385997D01*
X1969405Y385855D01*
X1969353Y385725D01*
X1969288Y385622D01*
X1969224Y385531D01*
X1969146Y385453D01*
X1969055Y385388D01*
X1968965Y385337D01*
X1968783Y385272D01*
X1968641Y385233D01*
X1968576Y385220D01*
X1967281D01*
Y383277D01*
X1967268Y383108D01*
X1967242Y382966D01*
X1967190Y382836D01*
X1967125Y382733D01*
X1967060Y382642D01*
X1966983Y382564D01*
X1966892Y382500D01*
X1966801Y382448D01*
X1966620Y382383D01*
X1966478Y382344D01*
X1966413Y382331D01*
X1966322D01*
X1966154Y382344D01*
X1966011Y382370D01*
X1965882Y382422D01*
X1965778Y382474D01*
X1965687Y382551D01*
X1965610Y382629D01*
X1965545Y382720D01*
X1965493Y382798D01*
X1965428Y382979D01*
X1965389Y383134D01*
Y383186D01*
X1965376Y383238D01*
Y383264D01*
Y383277D01*
Y385220D01*
X1962449D01*
X1965065Y376385D01*
X1965091Y376243D01*
X1965117Y376139D01*
Y376087D01*
Y376062D01*
X1965104Y375893D01*
X1965078Y375751D01*
X1965027Y375621D01*
X1964962Y375517D01*
X1964897Y375427D01*
X1964819Y375349D01*
X1964729Y375284D01*
X1964638Y375232D01*
X1964457Y375168D01*
X1964314Y375129D01*
X1964249Y375116D01*
X1964029D01*
X1963913Y375142D01*
X1963718Y375206D01*
X1963563Y375297D01*
X1963446Y375401D01*
X1963356Y375504D01*
X1963304Y375595D01*
X1963278Y375660D01*
X1963265Y375673D01*
Y375686D01*
X1960350Y385906D01*
X1960337Y385984D01*
X1960324Y386075D01*
Y386140D01*
Y386153D01*
Y386166D01*
X1960337Y386334D01*
X1960363Y386477D01*
X1960415Y386606D01*
X1960467Y386710D01*
X1960545Y386800D01*
X1960622Y386878D01*
X1960713Y386943D01*
X1960804Y386995D01*
X1960972Y387059D01*
X1961127Y387098D01*
X1961179D01*
X1961231Y387111D01*
X1965376D01*
Y389054D01*
X1965389Y389223D01*
X1965415Y389365D01*
X1965467Y389495D01*
X1965519Y389598D01*
X1965597Y389689D01*
X1965674Y389767D01*
X1965765Y389832D01*
X1965856Y389883D01*
X1966024Y389948D01*
X1966180Y389987D01*
X1966231D01*
X1966283Y390000D01*
X1966322D01*
X1966490Y389987D01*
D02*
G37*
G36*
X1979004D02*
X1979147Y389961D01*
X1979276Y389909D01*
X1979393Y389857D01*
X1979483Y389780D01*
X1979561Y389702D01*
X1979626Y389611D01*
X1979678Y389521D01*
X1979742Y389352D01*
X1979781Y389197D01*
X1979794Y389145D01*
Y389093D01*
Y389067D01*
Y389054D01*
X1979781Y388886D01*
X1979755Y388744D01*
X1979704Y388614D01*
X1979639Y388510D01*
X1979574Y388420D01*
X1979496Y388342D01*
X1979406Y388277D01*
X1979315Y388225D01*
X1979134Y388161D01*
X1978991Y388122D01*
X1978926Y388109D01*
X1974587D01*
X1979095Y381152D01*
X1979224Y380945D01*
X1979328Y380738D01*
X1979418Y380544D01*
X1979496Y380349D01*
X1979626Y379974D01*
X1979704Y379637D01*
X1979742Y379494D01*
X1979755Y379352D01*
X1979768Y379235D01*
X1979781Y379145D01*
X1979794Y379054D01*
Y379002D01*
Y378963D01*
Y378950D01*
X1979781Y378665D01*
X1979742Y378380D01*
X1979691Y378108D01*
X1979613Y377862D01*
X1979535Y377616D01*
X1979444Y377396D01*
X1979341Y377188D01*
X1979237Y377007D01*
X1979121Y376839D01*
X1979030Y376683D01*
X1978926Y376554D01*
X1978849Y376437D01*
X1978771Y376359D01*
X1978719Y376295D01*
X1978680Y376256D01*
X1978667Y376243D01*
X1978447Y376049D01*
X1978227Y375867D01*
X1977994Y375725D01*
X1977773Y375595D01*
X1977540Y375479D01*
X1977307Y375388D01*
X1977087Y375310D01*
X1976880Y375258D01*
X1976685Y375206D01*
X1976517Y375181D01*
X1976348Y375155D01*
X1976219Y375129D01*
X1976102D01*
X1976012Y375116D01*
X1975947D01*
X1975727Y375129D01*
X1975519Y375142D01*
X1975312Y375181D01*
X1975118Y375232D01*
X1974729Y375375D01*
X1974366Y375556D01*
X1974030Y375764D01*
X1973719Y376010D01*
X1973447Y376256D01*
X1973188Y376515D01*
X1972955Y376787D01*
X1972747Y377033D01*
X1972579Y377279D01*
X1972436Y377486D01*
X1972320Y377668D01*
X1972242Y377810D01*
X1972216Y377862D01*
X1972190Y377901D01*
X1972177Y377914D01*
Y377927D01*
X1972151Y377966D01*
X1972138Y378005D01*
X1972125Y378108D01*
X1972112Y378186D01*
Y378212D01*
Y378225D01*
X1972125Y378393D01*
X1972151Y378536D01*
X1972203Y378665D01*
X1972255Y378782D01*
X1972333Y378872D01*
X1972410Y378950D01*
X1972501Y379015D01*
X1972592Y379067D01*
X1972760Y379132D01*
X1972916Y379170D01*
X1972968D01*
X1973019Y379183D01*
X1973058D01*
X1973252Y379157D01*
X1973434Y379106D01*
X1973576Y379041D01*
X1973693Y378950D01*
X1973771Y378860D01*
X1973835Y378795D01*
X1973874Y378743D01*
X1973887Y378717D01*
X1974068Y378419D01*
X1974250Y378147D01*
X1974444Y377927D01*
X1974626Y377733D01*
X1974794Y377564D01*
X1974962Y377422D01*
X1975131Y377305D01*
X1975286Y377214D01*
X1975429Y377150D01*
X1975545Y377098D01*
X1975662Y377059D01*
X1975766Y377033D01*
X1975843Y377020D01*
X1975895Y377007D01*
X1976089D01*
X1976232Y377033D01*
X1976504Y377098D01*
X1976737Y377188D01*
X1976931Y377292D01*
X1977100Y377396D01*
X1977216Y377486D01*
X1977294Y377551D01*
X1977320Y377564D01*
Y377577D01*
X1977424Y377681D01*
X1977514Y377797D01*
X1977644Y378031D01*
X1977747Y378264D01*
X1977825Y378471D01*
X1977864Y378665D01*
X1977877Y378821D01*
X1977890Y378872D01*
Y378911D01*
Y378937D01*
Y378950D01*
X1977877Y379157D01*
X1977838Y379352D01*
X1977786Y379533D01*
X1977722Y379689D01*
X1977657Y379831D01*
X1977605Y379935D01*
X1977566Y380000D01*
X1977553Y380025D01*
X1972281Y388497D01*
X1972229Y388601D01*
X1972190Y388705D01*
X1972138Y388873D01*
X1972125Y388951D01*
X1972112Y389002D01*
Y389041D01*
Y389054D01*
X1972125Y389223D01*
X1972151Y389365D01*
X1972203Y389495D01*
X1972255Y389598D01*
X1972333Y389689D01*
X1972410Y389767D01*
X1972501Y389832D01*
X1972592Y389883D01*
X1972760Y389948D01*
X1972916Y389987D01*
X1972968D01*
X1973019Y390000D01*
X1978836D01*
X1979004Y389987D01*
D02*
G37*
G36*
X1956891D02*
X1957034Y389961D01*
X1957164Y389909D01*
X1957280Y389857D01*
X1957371Y389780D01*
X1957449Y389702D01*
X1957513Y389611D01*
X1957565Y389521D01*
X1957630Y389352D01*
X1957669Y389197D01*
X1957682Y389145D01*
Y389093D01*
Y389067D01*
Y389054D01*
X1957669Y388886D01*
X1957643Y388744D01*
X1957591Y388614D01*
X1957526Y388510D01*
X1957462Y388420D01*
X1957384Y388342D01*
X1957293Y388277D01*
X1957202Y388225D01*
X1957021Y388161D01*
X1956879Y388122D01*
X1956814Y388109D01*
X1953834D01*
X1953692Y388096D01*
X1953549Y388083D01*
X1953277Y388018D01*
X1953044Y387927D01*
X1952850Y387824D01*
X1952681Y387733D01*
X1952565Y387642D01*
X1952487Y387578D01*
X1952474Y387552D01*
X1952461D01*
X1952358Y387448D01*
X1952280Y387332D01*
X1952137Y387098D01*
X1952047Y386865D01*
X1951969Y386645D01*
X1951930Y386451D01*
X1951917Y386295D01*
X1951904Y386243D01*
Y386204D01*
Y386179D01*
Y386166D01*
Y378950D01*
X1951917Y378808D01*
X1951930Y378665D01*
X1951995Y378393D01*
X1952086Y378160D01*
X1952189Y377966D01*
X1952280Y377797D01*
X1952371Y377681D01*
X1952435Y377603D01*
X1952461Y377577D01*
X1952565Y377473D01*
X1952681Y377383D01*
X1952915Y377253D01*
X1953135Y377150D01*
X1953355Y377072D01*
X1953549Y377033D01*
X1953705Y377020D01*
X1953757Y377007D01*
X1956723D01*
X1956891Y376994D01*
X1957034Y376968D01*
X1957164Y376917D01*
X1957280Y376865D01*
X1957371Y376787D01*
X1957449Y376709D01*
X1957513Y376618D01*
X1957565Y376528D01*
X1957630Y376359D01*
X1957669Y376204D01*
X1957682Y376152D01*
Y376100D01*
Y376074D01*
Y376062D01*
X1957669Y375893D01*
X1957643Y375751D01*
X1957591Y375621D01*
X1957526Y375517D01*
X1957462Y375427D01*
X1957384Y375349D01*
X1957293Y375284D01*
X1957202Y375232D01*
X1957021Y375168D01*
X1956879Y375129D01*
X1956814Y375116D01*
X1953834D01*
X1953537Y375129D01*
X1953264Y375168D01*
X1952992Y375219D01*
X1952733Y375297D01*
X1952500Y375375D01*
X1952280Y375466D01*
X1952073Y375569D01*
X1951878Y375673D01*
X1951710Y375789D01*
X1951555Y375880D01*
X1951425Y375984D01*
X1951321Y376062D01*
X1951231Y376139D01*
X1951166Y376191D01*
X1951127Y376230D01*
X1951114Y376243D01*
X1950920Y376450D01*
X1950751Y376683D01*
X1950596Y376903D01*
X1950466Y377137D01*
X1950363Y377370D01*
X1950272Y377590D01*
X1950194Y377810D01*
X1950143Y378018D01*
X1950091Y378212D01*
X1950065Y378393D01*
X1950039Y378549D01*
X1950013Y378678D01*
Y378795D01*
X1950000Y378885D01*
Y378937D01*
Y378950D01*
Y386166D01*
X1950013Y386464D01*
X1950052Y386736D01*
X1950104Y387008D01*
X1950168Y387267D01*
X1950259Y387500D01*
X1950350Y387720D01*
X1950453Y387927D01*
X1950557Y388122D01*
X1950661Y388290D01*
X1950764Y388446D01*
X1950855Y388575D01*
X1950946Y388679D01*
X1951010Y388769D01*
X1951062Y388834D01*
X1951101Y388873D01*
X1951114Y388886D01*
X1951334Y389080D01*
X1951555Y389249D01*
X1951788Y389404D01*
X1952021Y389534D01*
X1952241Y389637D01*
X1952474Y389728D01*
X1952694Y389806D01*
X1952902Y389857D01*
X1953096Y389909D01*
X1953277Y389935D01*
X1953433Y389961D01*
X1953562Y389987D01*
X1953679D01*
X1953770Y390000D01*
X1956723D01*
X1956891Y389987D01*
D02*
G37*
G36*
X2676490Y1809987D02*
X2676633Y1809961D01*
X2676762Y1809909D01*
X2676879Y1809857D01*
X2676970Y1809780D01*
X2677047Y1809702D01*
X2677112Y1809611D01*
X2677164Y1809521D01*
X2677229Y1809352D01*
X2677268Y1809197D01*
X2677281Y1809145D01*
Y1809093D01*
Y1809067D01*
Y1809054D01*
Y1807111D01*
X2678485D01*
X2678654Y1807098D01*
X2678796Y1807072D01*
X2678926Y1807021D01*
X2679042Y1806969D01*
X2679133Y1806891D01*
X2679211Y1806813D01*
X2679276Y1806723D01*
X2679327Y1806632D01*
X2679392Y1806464D01*
X2679431Y1806308D01*
X2679444Y1806256D01*
Y1806205D01*
Y1806179D01*
Y1806166D01*
X2679431Y1805997D01*
X2679405Y1805855D01*
X2679353Y1805725D01*
X2679289Y1805622D01*
X2679224Y1805531D01*
X2679146Y1805453D01*
X2679055Y1805388D01*
X2678965Y1805337D01*
X2678783Y1805272D01*
X2678641Y1805233D01*
X2678576Y1805220D01*
X2677281D01*
Y1803277D01*
X2677268Y1803109D01*
X2677242Y1802966D01*
X2677190Y1802836D01*
X2677125Y1802733D01*
X2677061Y1802642D01*
X2676983Y1802564D01*
X2676892Y1802500D01*
X2676801Y1802448D01*
X2676620Y1802383D01*
X2676477Y1802344D01*
X2676413Y1802331D01*
X2676322D01*
X2676154Y1802344D01*
X2676011Y1802370D01*
X2675882Y1802422D01*
X2675778Y1802474D01*
X2675687Y1802552D01*
X2675610Y1802629D01*
X2675545Y1802720D01*
X2675493Y1802798D01*
X2675428Y1802979D01*
X2675389Y1803134D01*
Y1803186D01*
X2675376Y1803238D01*
Y1803264D01*
Y1803277D01*
Y1805220D01*
X2672449D01*
X2675066Y1796385D01*
X2675091Y1796243D01*
X2675117Y1796139D01*
Y1796087D01*
Y1796062D01*
X2675104Y1795893D01*
X2675078Y1795751D01*
X2675027Y1795621D01*
X2674962Y1795517D01*
X2674897Y1795427D01*
X2674819Y1795349D01*
X2674729Y1795284D01*
X2674638Y1795233D01*
X2674457Y1795168D01*
X2674314Y1795129D01*
X2674249Y1795116D01*
X2674029D01*
X2673913Y1795142D01*
X2673718Y1795206D01*
X2673563Y1795297D01*
X2673446Y1795401D01*
X2673356Y1795504D01*
X2673304Y1795595D01*
X2673278Y1795660D01*
X2673265Y1795673D01*
Y1795686D01*
X2670350Y1805907D01*
X2670337Y1805984D01*
X2670324Y1806075D01*
Y1806140D01*
Y1806153D01*
Y1806166D01*
X2670337Y1806334D01*
X2670363Y1806476D01*
X2670415Y1806606D01*
X2670467Y1806710D01*
X2670544Y1806800D01*
X2670622Y1806878D01*
X2670713Y1806943D01*
X2670804Y1806995D01*
X2670972Y1807059D01*
X2671128Y1807098D01*
X2671179D01*
X2671231Y1807111D01*
X2675376D01*
Y1809054D01*
X2675389Y1809223D01*
X2675415Y1809365D01*
X2675467Y1809495D01*
X2675519Y1809598D01*
X2675597Y1809689D01*
X2675674Y1809767D01*
X2675765Y1809832D01*
X2675856Y1809883D01*
X2676024Y1809948D01*
X2676180Y1809987D01*
X2676231D01*
X2676283Y1810000D01*
X2676322D01*
X2676490Y1809987D01*
D02*
G37*
G36*
X2686115D02*
X2686258Y1809961D01*
X2686387Y1809909D01*
X2686504Y1809857D01*
X2686595Y1809780D01*
X2686672Y1809702D01*
X2686737Y1809611D01*
X2686789Y1809521D01*
X2686854Y1809352D01*
X2686892Y1809197D01*
X2686906Y1809145D01*
Y1809093D01*
Y1809067D01*
Y1809054D01*
Y1796062D01*
X2686892Y1795893D01*
X2686866Y1795751D01*
X2686815Y1795621D01*
X2686750Y1795517D01*
X2686685Y1795427D01*
X2686607Y1795349D01*
X2686517Y1795284D01*
X2686426Y1795233D01*
X2686245Y1795168D01*
X2686102Y1795129D01*
X2686038Y1795116D01*
X2685869D01*
X2685804Y1795142D01*
X2685662Y1795206D01*
X2685519Y1795310D01*
X2685390Y1795414D01*
X2685286Y1795530D01*
X2685208Y1795634D01*
X2685157Y1795699D01*
X2685131Y1795712D01*
Y1795725D01*
X2682385Y1798290D01*
X2682294Y1798393D01*
X2682229Y1798510D01*
X2682177Y1798613D01*
X2682151Y1798717D01*
X2682126Y1798808D01*
X2682112Y1798885D01*
Y1798937D01*
Y1798950D01*
X2682126Y1799119D01*
X2682151Y1799261D01*
X2682203Y1799391D01*
X2682255Y1799494D01*
X2682333Y1799585D01*
X2682410Y1799663D01*
X2682501Y1799727D01*
X2682592Y1799779D01*
X2682760Y1799844D01*
X2682916Y1799883D01*
X2682968D01*
X2683019Y1799896D01*
X2683058D01*
X2683201Y1799883D01*
X2683330Y1799857D01*
X2683447Y1799805D01*
X2683550Y1799753D01*
X2683628Y1799715D01*
X2683680Y1799663D01*
X2683719Y1799637D01*
X2683732Y1799624D01*
X2685001Y1798031D01*
Y1809054D01*
X2685014Y1809223D01*
X2685040Y1809365D01*
X2685092Y1809495D01*
X2685144Y1809598D01*
X2685221Y1809689D01*
X2685299Y1809767D01*
X2685390Y1809832D01*
X2685481Y1809883D01*
X2685649Y1809948D01*
X2685804Y1809987D01*
X2685856D01*
X2685908Y1810000D01*
X2685947D01*
X2686115Y1809987D01*
D02*
G37*
G36*
X2666891D02*
X2667034Y1809961D01*
X2667164Y1809909D01*
X2667280Y1809857D01*
X2667371Y1809780D01*
X2667448Y1809702D01*
X2667513Y1809611D01*
X2667565Y1809521D01*
X2667630Y1809352D01*
X2667669Y1809197D01*
X2667682Y1809145D01*
Y1809093D01*
Y1809067D01*
Y1809054D01*
X2667669Y1808886D01*
X2667643Y1808743D01*
X2667591Y1808614D01*
X2667526Y1808510D01*
X2667462Y1808420D01*
X2667384Y1808342D01*
X2667293Y1808277D01*
X2667202Y1808225D01*
X2667021Y1808161D01*
X2666879Y1808122D01*
X2666814Y1808109D01*
X2663835D01*
X2663692Y1808096D01*
X2663549Y1808083D01*
X2663277Y1808018D01*
X2663044Y1807927D01*
X2662850Y1807824D01*
X2662682Y1807733D01*
X2662565Y1807642D01*
X2662487Y1807578D01*
X2662474Y1807552D01*
X2662461D01*
X2662357Y1807448D01*
X2662280Y1807332D01*
X2662137Y1807098D01*
X2662047Y1806865D01*
X2661969Y1806645D01*
X2661930Y1806451D01*
X2661917Y1806295D01*
X2661904Y1806243D01*
Y1806205D01*
Y1806179D01*
Y1806166D01*
Y1798950D01*
X2661917Y1798808D01*
X2661930Y1798665D01*
X2661995Y1798393D01*
X2662086Y1798160D01*
X2662189Y1797966D01*
X2662280Y1797797D01*
X2662371Y1797681D01*
X2662435Y1797603D01*
X2662461Y1797577D01*
X2662565Y1797473D01*
X2662682Y1797383D01*
X2662915Y1797253D01*
X2663135Y1797150D01*
X2663355Y1797072D01*
X2663549Y1797033D01*
X2663705Y1797020D01*
X2663757Y1797007D01*
X2666723D01*
X2666891Y1796994D01*
X2667034Y1796968D01*
X2667164Y1796917D01*
X2667280Y1796865D01*
X2667371Y1796787D01*
X2667448Y1796709D01*
X2667513Y1796618D01*
X2667565Y1796528D01*
X2667630Y1796360D01*
X2667669Y1796204D01*
X2667682Y1796152D01*
Y1796100D01*
Y1796075D01*
Y1796062D01*
X2667669Y1795893D01*
X2667643Y1795751D01*
X2667591Y1795621D01*
X2667526Y1795517D01*
X2667462Y1795427D01*
X2667384Y1795349D01*
X2667293Y1795284D01*
X2667202Y1795233D01*
X2667021Y1795168D01*
X2666879Y1795129D01*
X2666814Y1795116D01*
X2663835D01*
X2663536Y1795129D01*
X2663264Y1795168D01*
X2662992Y1795220D01*
X2662733Y1795297D01*
X2662500Y1795375D01*
X2662280Y1795466D01*
X2662072Y1795569D01*
X2661878Y1795673D01*
X2661710Y1795789D01*
X2661555Y1795880D01*
X2661425Y1795984D01*
X2661321Y1796062D01*
X2661230Y1796139D01*
X2661166Y1796191D01*
X2661127Y1796230D01*
X2661114Y1796243D01*
X2660920Y1796450D01*
X2660751Y1796683D01*
X2660596Y1796904D01*
X2660466Y1797137D01*
X2660363Y1797370D01*
X2660272Y1797590D01*
X2660194Y1797810D01*
X2660143Y1798018D01*
X2660091Y1798212D01*
X2660065Y1798393D01*
X2660039Y1798549D01*
X2660013Y1798678D01*
Y1798795D01*
X2660000Y1798885D01*
Y1798937D01*
Y1798950D01*
Y1806166D01*
X2660013Y1806464D01*
X2660052Y1806736D01*
X2660103Y1807008D01*
X2660168Y1807267D01*
X2660259Y1807500D01*
X2660350Y1807720D01*
X2660453Y1807927D01*
X2660557Y1808122D01*
X2660661Y1808290D01*
X2660764Y1808445D01*
X2660855Y1808575D01*
X2660946Y1808679D01*
X2661010Y1808769D01*
X2661062Y1808834D01*
X2661101Y1808873D01*
X2661114Y1808886D01*
X2661334Y1809080D01*
X2661555Y1809249D01*
X2661788Y1809404D01*
X2662021Y1809534D01*
X2662241Y1809637D01*
X2662474Y1809728D01*
X2662694Y1809806D01*
X2662902Y1809857D01*
X2663096Y1809909D01*
X2663277Y1809935D01*
X2663433Y1809961D01*
X2663562Y1809987D01*
X2663679D01*
X2663770Y1810000D01*
X2666723D01*
X2666891Y1809987D01*
D02*
G37*
G36*
X2316490D02*
X2316633Y1809961D01*
X2316763Y1809909D01*
X2316879Y1809857D01*
X2316970Y1809780D01*
X2317047Y1809702D01*
X2317112Y1809611D01*
X2317164Y1809521D01*
X2317229Y1809352D01*
X2317268Y1809197D01*
X2317281Y1809145D01*
Y1809093D01*
Y1809067D01*
Y1809054D01*
Y1807111D01*
X2318485D01*
X2318654Y1807098D01*
X2318796Y1807072D01*
X2318926Y1807021D01*
X2319042Y1806969D01*
X2319133Y1806891D01*
X2319211Y1806813D01*
X2319276Y1806723D01*
X2319327Y1806632D01*
X2319392Y1806464D01*
X2319431Y1806308D01*
X2319444Y1806256D01*
Y1806205D01*
Y1806179D01*
Y1806166D01*
X2319431Y1805997D01*
X2319405Y1805855D01*
X2319353Y1805725D01*
X2319288Y1805622D01*
X2319224Y1805531D01*
X2319146Y1805453D01*
X2319055Y1805388D01*
X2318965Y1805337D01*
X2318783Y1805272D01*
X2318641Y1805233D01*
X2318576Y1805220D01*
X2317281D01*
Y1803277D01*
X2317268Y1803109D01*
X2317242Y1802966D01*
X2317190Y1802836D01*
X2317125Y1802733D01*
X2317060Y1802642D01*
X2316983Y1802564D01*
X2316892Y1802500D01*
X2316801Y1802448D01*
X2316620Y1802383D01*
X2316478Y1802344D01*
X2316413Y1802331D01*
X2316322D01*
X2316154Y1802344D01*
X2316011Y1802370D01*
X2315882Y1802422D01*
X2315778Y1802474D01*
X2315687Y1802552D01*
X2315610Y1802629D01*
X2315545Y1802720D01*
X2315493Y1802798D01*
X2315428Y1802979D01*
X2315389Y1803134D01*
Y1803186D01*
X2315376Y1803238D01*
Y1803264D01*
Y1803277D01*
Y1805220D01*
X2312449D01*
X2315065Y1796385D01*
X2315091Y1796243D01*
X2315117Y1796139D01*
Y1796087D01*
Y1796062D01*
X2315104Y1795893D01*
X2315078Y1795751D01*
X2315027Y1795621D01*
X2314962Y1795517D01*
X2314897Y1795427D01*
X2314819Y1795349D01*
X2314729Y1795284D01*
X2314638Y1795233D01*
X2314457Y1795168D01*
X2314314Y1795129D01*
X2314249Y1795116D01*
X2314029D01*
X2313913Y1795142D01*
X2313718Y1795206D01*
X2313563Y1795297D01*
X2313446Y1795401D01*
X2313356Y1795504D01*
X2313304Y1795595D01*
X2313278Y1795660D01*
X2313265Y1795673D01*
Y1795686D01*
X2310350Y1805907D01*
X2310337Y1805984D01*
X2310324Y1806075D01*
Y1806140D01*
Y1806153D01*
Y1806166D01*
X2310337Y1806334D01*
X2310363Y1806476D01*
X2310415Y1806606D01*
X2310467Y1806710D01*
X2310545Y1806800D01*
X2310622Y1806878D01*
X2310713Y1806943D01*
X2310804Y1806995D01*
X2310972Y1807059D01*
X2311127Y1807098D01*
X2311179D01*
X2311231Y1807111D01*
X2315376D01*
Y1809054D01*
X2315389Y1809223D01*
X2315415Y1809365D01*
X2315467Y1809495D01*
X2315519Y1809598D01*
X2315597Y1809689D01*
X2315674Y1809767D01*
X2315765Y1809832D01*
X2315856Y1809883D01*
X2316024Y1809948D01*
X2316180Y1809987D01*
X2316231D01*
X2316283Y1810000D01*
X2316322D01*
X2316490Y1809987D01*
D02*
G37*
G36*
X2326154D02*
X2326348Y1809961D01*
X2326543Y1809922D01*
X2326724Y1809870D01*
X2327061Y1809728D01*
X2327385Y1809547D01*
X2327670Y1809326D01*
X2327929Y1809080D01*
X2328162Y1808821D01*
X2328369Y1808549D01*
X2328551Y1808277D01*
X2328706Y1808018D01*
X2328836Y1807772D01*
X2328952Y1807552D01*
X2329030Y1807370D01*
X2329082Y1807228D01*
X2329108Y1807176D01*
X2329121Y1807124D01*
X2329133Y1807111D01*
Y1807098D01*
X2329250Y1806723D01*
X2329354Y1806347D01*
X2329444Y1805958D01*
X2329522Y1805570D01*
X2329639Y1804805D01*
X2329678Y1804443D01*
X2329716Y1804106D01*
X2329742Y1803782D01*
X2329755Y1803484D01*
X2329768Y1803212D01*
X2329781Y1802992D01*
X2329794Y1802811D01*
Y1802668D01*
Y1802616D01*
Y1802577D01*
Y1802564D01*
Y1802552D01*
X2329781Y1802072D01*
X2329768Y1801606D01*
X2329729Y1801165D01*
X2329691Y1800751D01*
X2329639Y1800349D01*
X2329587Y1799974D01*
X2329522Y1799637D01*
X2329470Y1799313D01*
X2329406Y1799028D01*
X2329341Y1798769D01*
X2329289Y1798549D01*
X2329237Y1798367D01*
X2329198Y1798225D01*
X2329160Y1798121D01*
X2329147Y1798056D01*
X2329133Y1798031D01*
X2329043Y1797771D01*
X2328939Y1797512D01*
X2328836Y1797279D01*
X2328719Y1797072D01*
X2328602Y1796865D01*
X2328473Y1796683D01*
X2328356Y1796502D01*
X2328227Y1796346D01*
X2327968Y1796062D01*
X2327696Y1795828D01*
X2327437Y1795634D01*
X2327177Y1795479D01*
X2326931Y1795362D01*
X2326698Y1795271D01*
X2326491Y1795206D01*
X2326310Y1795155D01*
X2326154Y1795129D01*
X2326051Y1795116D01*
X2325947D01*
X2325740Y1795129D01*
X2325545Y1795142D01*
X2325351Y1795194D01*
X2325170Y1795245D01*
X2324833Y1795388D01*
X2324509Y1795569D01*
X2324224Y1795789D01*
X2323965Y1796036D01*
X2323732Y1796295D01*
X2323512Y1796567D01*
X2323330Y1796839D01*
X2323175Y1797098D01*
X2323045Y1797344D01*
X2322941Y1797564D01*
X2322851Y1797746D01*
X2322799Y1797888D01*
X2322773Y1797940D01*
X2322760Y1797979D01*
X2322747Y1798005D01*
Y1798018D01*
X2322631Y1798380D01*
X2322540Y1798756D01*
X2322449Y1799145D01*
X2322384Y1799533D01*
X2322268Y1800298D01*
X2322229Y1800660D01*
X2322190Y1800997D01*
X2322164Y1801321D01*
X2322151Y1801619D01*
X2322138Y1801891D01*
X2322125Y1802111D01*
X2322112Y1802292D01*
Y1802435D01*
Y1802487D01*
Y1802526D01*
Y1802538D01*
Y1802552D01*
X2322125Y1803044D01*
X2322138Y1803510D01*
X2322177Y1803951D01*
X2322216Y1804378D01*
X2322255Y1804780D01*
X2322320Y1805155D01*
X2322372Y1805505D01*
X2322436Y1805816D01*
X2322488Y1806114D01*
X2322553Y1806360D01*
X2322605Y1806580D01*
X2322644Y1806774D01*
X2322695Y1806917D01*
X2322721Y1807021D01*
X2322734Y1807085D01*
X2322747Y1807111D01*
X2322838Y1807370D01*
X2322941Y1807616D01*
X2323058Y1807850D01*
X2323162Y1808070D01*
X2323291Y1808264D01*
X2323408Y1808445D01*
X2323537Y1808627D01*
X2323667Y1808782D01*
X2323926Y1809067D01*
X2324198Y1809301D01*
X2324457Y1809482D01*
X2324716Y1809637D01*
X2324962Y1809754D01*
X2325195Y1809845D01*
X2325403Y1809909D01*
X2325584Y1809948D01*
X2325740Y1809974D01*
X2325856Y1810000D01*
X2325947D01*
X2326154Y1809987D01*
D02*
G37*
G36*
X2306891D02*
X2307034Y1809961D01*
X2307164Y1809909D01*
X2307280Y1809857D01*
X2307371Y1809780D01*
X2307448Y1809702D01*
X2307513Y1809611D01*
X2307565Y1809521D01*
X2307630Y1809352D01*
X2307669Y1809197D01*
X2307682Y1809145D01*
Y1809093D01*
Y1809067D01*
Y1809054D01*
X2307669Y1808886D01*
X2307643Y1808743D01*
X2307591Y1808614D01*
X2307526Y1808510D01*
X2307462Y1808420D01*
X2307384Y1808342D01*
X2307293Y1808277D01*
X2307202Y1808225D01*
X2307021Y1808161D01*
X2306879Y1808122D01*
X2306814Y1808109D01*
X2303834D01*
X2303692Y1808096D01*
X2303549Y1808083D01*
X2303277Y1808018D01*
X2303044Y1807927D01*
X2302850Y1807824D01*
X2302681Y1807733D01*
X2302565Y1807642D01*
X2302487Y1807578D01*
X2302474Y1807552D01*
X2302461D01*
X2302358Y1807448D01*
X2302280Y1807332D01*
X2302137Y1807098D01*
X2302047Y1806865D01*
X2301969Y1806645D01*
X2301930Y1806451D01*
X2301917Y1806295D01*
X2301904Y1806243D01*
Y1806205D01*
Y1806179D01*
Y1806166D01*
Y1798950D01*
X2301917Y1798808D01*
X2301930Y1798665D01*
X2301995Y1798393D01*
X2302086Y1798160D01*
X2302189Y1797966D01*
X2302280Y1797797D01*
X2302371Y1797681D01*
X2302435Y1797603D01*
X2302461Y1797577D01*
X2302565Y1797473D01*
X2302681Y1797383D01*
X2302915Y1797253D01*
X2303135Y1797150D01*
X2303355Y1797072D01*
X2303549Y1797033D01*
X2303705Y1797020D01*
X2303757Y1797007D01*
X2306723D01*
X2306891Y1796994D01*
X2307034Y1796968D01*
X2307164Y1796917D01*
X2307280Y1796865D01*
X2307371Y1796787D01*
X2307448Y1796709D01*
X2307513Y1796618D01*
X2307565Y1796528D01*
X2307630Y1796360D01*
X2307669Y1796204D01*
X2307682Y1796152D01*
Y1796100D01*
Y1796075D01*
Y1796062D01*
X2307669Y1795893D01*
X2307643Y1795751D01*
X2307591Y1795621D01*
X2307526Y1795517D01*
X2307462Y1795427D01*
X2307384Y1795349D01*
X2307293Y1795284D01*
X2307202Y1795233D01*
X2307021Y1795168D01*
X2306879Y1795129D01*
X2306814Y1795116D01*
X2303834D01*
X2303536Y1795129D01*
X2303264Y1795168D01*
X2302992Y1795220D01*
X2302733Y1795297D01*
X2302500Y1795375D01*
X2302280Y1795466D01*
X2302073Y1795569D01*
X2301878Y1795673D01*
X2301710Y1795789D01*
X2301555Y1795880D01*
X2301425Y1795984D01*
X2301321Y1796062D01*
X2301231Y1796139D01*
X2301166Y1796191D01*
X2301127Y1796230D01*
X2301114Y1796243D01*
X2300920Y1796450D01*
X2300751Y1796683D01*
X2300596Y1796904D01*
X2300466Y1797137D01*
X2300363Y1797370D01*
X2300272Y1797590D01*
X2300194Y1797810D01*
X2300143Y1798018D01*
X2300091Y1798212D01*
X2300065Y1798393D01*
X2300039Y1798549D01*
X2300013Y1798678D01*
Y1798795D01*
X2300000Y1798885D01*
Y1798937D01*
Y1798950D01*
Y1806166D01*
X2300013Y1806464D01*
X2300052Y1806736D01*
X2300104Y1807008D01*
X2300168Y1807267D01*
X2300259Y1807500D01*
X2300350Y1807720D01*
X2300453Y1807927D01*
X2300557Y1808122D01*
X2300661Y1808290D01*
X2300764Y1808445D01*
X2300855Y1808575D01*
X2300946Y1808679D01*
X2301010Y1808769D01*
X2301062Y1808834D01*
X2301101Y1808873D01*
X2301114Y1808886D01*
X2301334Y1809080D01*
X2301555Y1809249D01*
X2301788Y1809404D01*
X2302021Y1809534D01*
X2302241Y1809637D01*
X2302474Y1809728D01*
X2302694Y1809806D01*
X2302902Y1809857D01*
X2303096Y1809909D01*
X2303277Y1809935D01*
X2303433Y1809961D01*
X2303562Y1809987D01*
X2303679D01*
X2303770Y1810000D01*
X2306723D01*
X2306891Y1809987D01*
D02*
G37*
G36*
X1963162D02*
X1963291Y1809974D01*
X1963563Y1809883D01*
X1963861Y1809780D01*
X1964133Y1809637D01*
X1964392Y1809508D01*
X1964509Y1809456D01*
X1964600Y1809404D01*
X1964677Y1809352D01*
X1964742Y1809314D01*
X1964781Y1809301D01*
X1964794Y1809288D01*
X1965118Y1809080D01*
X1965416Y1808860D01*
X1965701Y1808627D01*
X1965960Y1808394D01*
X1966206Y1808161D01*
X1966439Y1807914D01*
X1966646Y1807668D01*
X1966841Y1807422D01*
X1967022Y1807163D01*
X1967177Y1806917D01*
X1967333Y1806671D01*
X1967462Y1806412D01*
X1967592Y1806166D01*
X1967696Y1805932D01*
X1967890Y1805453D01*
X1968033Y1805013D01*
X1968149Y1804598D01*
X1968227Y1804223D01*
X1968253Y1804054D01*
X1968279Y1803912D01*
X1968291Y1803769D01*
X1968304Y1803640D01*
X1968318Y1803536D01*
Y1803445D01*
X1968330Y1803368D01*
Y1803316D01*
Y1803290D01*
Y1803277D01*
Y1798924D01*
X1968318Y1798639D01*
X1968279Y1798354D01*
X1968227Y1798082D01*
X1968149Y1797836D01*
X1968071Y1797603D01*
X1967981Y1797383D01*
X1967877Y1797176D01*
X1967773Y1796981D01*
X1967657Y1796813D01*
X1967566Y1796670D01*
X1967462Y1796541D01*
X1967385Y1796424D01*
X1967307Y1796346D01*
X1967255Y1796282D01*
X1967216Y1796243D01*
X1967203Y1796230D01*
X1966996Y1796036D01*
X1966763Y1795867D01*
X1966543Y1795712D01*
X1966310Y1795582D01*
X1966076Y1795479D01*
X1965856Y1795388D01*
X1965636Y1795310D01*
X1965429Y1795258D01*
X1965234Y1795206D01*
X1965053Y1795181D01*
X1964885Y1795155D01*
X1964755Y1795129D01*
X1964639D01*
X1964561Y1795116D01*
X1964483D01*
X1964185Y1795129D01*
X1963900Y1795168D01*
X1963641Y1795220D01*
X1963382Y1795297D01*
X1963136Y1795375D01*
X1962916Y1795466D01*
X1962708Y1795569D01*
X1962527Y1795673D01*
X1962346Y1795789D01*
X1962203Y1795880D01*
X1962074Y1795984D01*
X1961957Y1796062D01*
X1961879Y1796139D01*
X1961815Y1796191D01*
X1961776Y1796230D01*
X1961763Y1796243D01*
X1961568Y1796450D01*
X1961400Y1796683D01*
X1961245Y1796904D01*
X1961115Y1797137D01*
X1961011Y1797370D01*
X1960921Y1797590D01*
X1960843Y1797810D01*
X1960791Y1798018D01*
X1960739Y1798212D01*
X1960714Y1798393D01*
X1960688Y1798549D01*
X1960662Y1798678D01*
Y1798795D01*
X1960649Y1798885D01*
Y1798937D01*
Y1798950D01*
Y1800388D01*
X1960662Y1800686D01*
X1960701Y1800971D01*
X1960752Y1801230D01*
X1960817Y1801489D01*
X1960908Y1801735D01*
X1960998Y1801956D01*
X1961102Y1802163D01*
X1961206Y1802344D01*
X1961309Y1802526D01*
X1961413Y1802668D01*
X1961504Y1802798D01*
X1961594Y1802914D01*
X1961659Y1802992D01*
X1961711Y1803057D01*
X1961750Y1803096D01*
X1961763Y1803109D01*
X1961983Y1803303D01*
X1962203Y1803471D01*
X1962436Y1803627D01*
X1962670Y1803756D01*
X1962890Y1803860D01*
X1963123Y1803951D01*
X1963343Y1804028D01*
X1963550Y1804080D01*
X1963745Y1804132D01*
X1963926Y1804158D01*
X1964082Y1804184D01*
X1964211Y1804210D01*
X1964328D01*
X1964418Y1804223D01*
X1966361D01*
X1966297Y1804585D01*
X1966180Y1804935D01*
X1966037Y1805272D01*
X1965856Y1805583D01*
X1965662Y1805894D01*
X1965455Y1806166D01*
X1965234Y1806425D01*
X1965014Y1806671D01*
X1964794Y1806891D01*
X1964587Y1807085D01*
X1964392Y1807241D01*
X1964211Y1807383D01*
X1964068Y1807500D01*
X1963965Y1807578D01*
X1963887Y1807629D01*
X1963874Y1807642D01*
X1963861D01*
X1963667Y1807759D01*
X1963447Y1807876D01*
X1963239Y1807966D01*
X1963045Y1808057D01*
X1962864Y1808122D01*
X1962734Y1808174D01*
X1962682Y1808199D01*
X1962644Y1808212D01*
X1962618Y1808225D01*
X1962605D01*
X1962436Y1808303D01*
X1962307Y1808420D01*
X1962216Y1808562D01*
X1962151Y1808705D01*
X1962112Y1808834D01*
X1962099Y1808951D01*
X1962087Y1809028D01*
Y1809041D01*
Y1809054D01*
X1962099Y1809197D01*
X1962125Y1809326D01*
X1962177Y1809443D01*
X1962229Y1809534D01*
X1962281Y1809611D01*
X1962333Y1809676D01*
X1962359Y1809715D01*
X1962372Y1809728D01*
X1962488Y1809819D01*
X1962592Y1809883D01*
X1962708Y1809935D01*
X1962812Y1809961D01*
X1962903Y1809987D01*
X1962980Y1810000D01*
X1963045D01*
X1963162Y1809987D01*
D02*
G37*
G36*
X1954444D02*
X1954729Y1809948D01*
X1955001Y1809896D01*
X1955247Y1809832D01*
X1955493Y1809741D01*
X1955713Y1809650D01*
X1955921Y1809547D01*
X1956102Y1809443D01*
X1956270Y1809339D01*
X1956426Y1809236D01*
X1956555Y1809145D01*
X1956672Y1809054D01*
X1956750Y1808990D01*
X1956814Y1808938D01*
X1956853Y1808899D01*
X1956866Y1808886D01*
X1957073Y1808666D01*
X1957242Y1808445D01*
X1957397Y1808212D01*
X1957527Y1807979D01*
X1957630Y1807759D01*
X1957734Y1807526D01*
X1957799Y1807306D01*
X1957864Y1807098D01*
X1957915Y1806904D01*
X1957941Y1806723D01*
X1957967Y1806567D01*
X1957993Y1806438D01*
Y1806321D01*
X1958006Y1806230D01*
Y1806179D01*
Y1806166D01*
Y1804728D01*
X1957993Y1804378D01*
X1957941Y1804054D01*
X1957876Y1803756D01*
X1957786Y1803471D01*
X1957669Y1803212D01*
X1957553Y1802979D01*
X1957410Y1802759D01*
X1957281Y1802564D01*
X1957151Y1802396D01*
X1957009Y1802254D01*
X1956892Y1802124D01*
X1956788Y1802020D01*
X1956685Y1801943D01*
X1956620Y1801891D01*
X1956568Y1801852D01*
X1956555Y1801839D01*
X1956814Y1801645D01*
X1957034Y1801437D01*
X1957229Y1801204D01*
X1957397Y1800971D01*
X1957540Y1800738D01*
X1957656Y1800492D01*
X1957747Y1800259D01*
X1957825Y1800025D01*
X1957890Y1799805D01*
X1957928Y1799598D01*
X1957967Y1799417D01*
X1957980Y1799261D01*
X1957993Y1799132D01*
X1958006Y1799028D01*
Y1798976D01*
Y1798950D01*
X1957993Y1798665D01*
X1957954Y1798380D01*
X1957902Y1798121D01*
X1957825Y1797862D01*
X1957747Y1797629D01*
X1957656Y1797409D01*
X1957553Y1797202D01*
X1957449Y1797020D01*
X1957332Y1796839D01*
X1957242Y1796696D01*
X1957138Y1796567D01*
X1957060Y1796450D01*
X1956983Y1796372D01*
X1956931Y1796308D01*
X1956892Y1796269D01*
X1956879Y1796256D01*
X1956659Y1796049D01*
X1956439Y1795880D01*
X1956205Y1795725D01*
X1955985Y1795595D01*
X1955752Y1795491D01*
X1955519Y1795388D01*
X1955299Y1795323D01*
X1955091Y1795258D01*
X1954897Y1795206D01*
X1954729Y1795181D01*
X1954560Y1795155D01*
X1954431Y1795129D01*
X1954314D01*
X1954223Y1795116D01*
X1951270D01*
X1951102Y1795129D01*
X1950959Y1795155D01*
X1950830Y1795206D01*
X1950726Y1795258D01*
X1950635Y1795336D01*
X1950558Y1795414D01*
X1950493Y1795504D01*
X1950441Y1795582D01*
X1950376Y1795764D01*
X1950337Y1795919D01*
Y1795971D01*
X1950324Y1796023D01*
Y1796049D01*
Y1796062D01*
X1950337Y1796230D01*
X1950363Y1796372D01*
X1950415Y1796502D01*
X1950467Y1796606D01*
X1950545Y1796696D01*
X1950622Y1796774D01*
X1950713Y1796839D01*
X1950804Y1796891D01*
X1950972Y1796955D01*
X1951127Y1796994D01*
X1951179D01*
X1951231Y1797007D01*
X1954301D01*
X1954444Y1797033D01*
X1954716Y1797098D01*
X1954949Y1797189D01*
X1955143Y1797292D01*
X1955312Y1797396D01*
X1955428Y1797486D01*
X1955506Y1797551D01*
X1955532Y1797564D01*
Y1797577D01*
X1955636Y1797681D01*
X1955726Y1797797D01*
X1955856Y1798031D01*
X1955959Y1798264D01*
X1956037Y1798471D01*
X1956076Y1798652D01*
X1956089Y1798808D01*
X1956102Y1798860D01*
Y1798898D01*
Y1798924D01*
Y1798937D01*
Y1799093D01*
X1956076Y1799235D01*
X1956011Y1799507D01*
X1955921Y1799740D01*
X1955817Y1799935D01*
X1955713Y1800103D01*
X1955623Y1800220D01*
X1955558Y1800298D01*
X1955545Y1800310D01*
X1955532Y1800323D01*
X1955428Y1800427D01*
X1955312Y1800505D01*
X1955078Y1800647D01*
X1954858Y1800738D01*
X1954638Y1800816D01*
X1954457Y1800854D01*
X1954301Y1800867D01*
X1954249Y1800880D01*
X1952721D01*
X1952552Y1800893D01*
X1952410Y1800919D01*
X1952280Y1800971D01*
X1952177Y1801023D01*
X1952086Y1801101D01*
X1952008Y1801178D01*
X1951944Y1801269D01*
X1951892Y1801347D01*
X1951827Y1801528D01*
X1951788Y1801684D01*
Y1801735D01*
X1951775Y1801787D01*
Y1801813D01*
Y1801826D01*
X1951788Y1801994D01*
X1951814Y1802137D01*
X1951866Y1802267D01*
X1951918Y1802370D01*
X1951995Y1802461D01*
X1952073Y1802538D01*
X1952164Y1802603D01*
X1952254Y1802655D01*
X1952423Y1802720D01*
X1952578Y1802759D01*
X1952630D01*
X1952682Y1802772D01*
X1954314D01*
X1954457Y1802798D01*
X1954716Y1802862D01*
X1954949Y1802953D01*
X1955143Y1803057D01*
X1955312Y1803173D01*
X1955428Y1803264D01*
X1955506Y1803329D01*
X1955532Y1803342D01*
Y1803355D01*
X1955636Y1803458D01*
X1955726Y1803575D01*
X1955856Y1803808D01*
X1955959Y1804041D01*
X1956037Y1804248D01*
X1956076Y1804430D01*
X1956089Y1804585D01*
X1956102Y1804637D01*
Y1804676D01*
Y1804702D01*
Y1804715D01*
Y1806166D01*
Y1806321D01*
X1956076Y1806464D01*
X1956011Y1806723D01*
X1955921Y1806969D01*
X1955817Y1807163D01*
X1955713Y1807332D01*
X1955623Y1807448D01*
X1955558Y1807526D01*
X1955545Y1807539D01*
X1955532Y1807552D01*
X1955428Y1807655D01*
X1955312Y1807733D01*
X1955078Y1807876D01*
X1954845Y1807966D01*
X1954638Y1808044D01*
X1954444Y1808083D01*
X1954288Y1808096D01*
X1954236Y1808109D01*
X1951270D01*
X1951102Y1808122D01*
X1950959Y1808148D01*
X1950830Y1808199D01*
X1950726Y1808251D01*
X1950635Y1808329D01*
X1950558Y1808407D01*
X1950493Y1808497D01*
X1950441Y1808575D01*
X1950376Y1808756D01*
X1950337Y1808912D01*
Y1808964D01*
X1950324Y1809016D01*
Y1809041D01*
Y1809054D01*
X1950337Y1809223D01*
X1950363Y1809365D01*
X1950415Y1809495D01*
X1950467Y1809598D01*
X1950545Y1809689D01*
X1950622Y1809767D01*
X1950713Y1809832D01*
X1950804Y1809883D01*
X1950972Y1809948D01*
X1951127Y1809987D01*
X1951179D01*
X1951231Y1810000D01*
X1954159D01*
X1954444Y1809987D01*
D02*
G37*
G36*
X1946891D02*
X1947034Y1809961D01*
X1947164Y1809909D01*
X1947280Y1809857D01*
X1947371Y1809780D01*
X1947449Y1809702D01*
X1947513Y1809611D01*
X1947565Y1809521D01*
X1947630Y1809352D01*
X1947669Y1809197D01*
X1947682Y1809145D01*
Y1809093D01*
Y1809067D01*
Y1809054D01*
X1947669Y1808886D01*
X1947643Y1808743D01*
X1947591Y1808614D01*
X1947526Y1808510D01*
X1947462Y1808420D01*
X1947384Y1808342D01*
X1947293Y1808277D01*
X1947202Y1808225D01*
X1947021Y1808161D01*
X1946879Y1808122D01*
X1946814Y1808109D01*
X1943834D01*
X1943692Y1808096D01*
X1943549Y1808083D01*
X1943277Y1808018D01*
X1943044Y1807927D01*
X1942850Y1807824D01*
X1942681Y1807733D01*
X1942565Y1807642D01*
X1942487Y1807578D01*
X1942474Y1807552D01*
X1942461D01*
X1942358Y1807448D01*
X1942280Y1807332D01*
X1942137Y1807098D01*
X1942047Y1806865D01*
X1941969Y1806645D01*
X1941930Y1806451D01*
X1941917Y1806295D01*
X1941904Y1806243D01*
Y1806205D01*
Y1806179D01*
Y1806166D01*
Y1798950D01*
X1941917Y1798808D01*
X1941930Y1798665D01*
X1941995Y1798393D01*
X1942086Y1798160D01*
X1942189Y1797966D01*
X1942280Y1797797D01*
X1942371Y1797681D01*
X1942435Y1797603D01*
X1942461Y1797577D01*
X1942565Y1797473D01*
X1942681Y1797383D01*
X1942915Y1797253D01*
X1943135Y1797150D01*
X1943355Y1797072D01*
X1943549Y1797033D01*
X1943705Y1797020D01*
X1943757Y1797007D01*
X1946723D01*
X1946891Y1796994D01*
X1947034Y1796968D01*
X1947164Y1796917D01*
X1947280Y1796865D01*
X1947371Y1796787D01*
X1947449Y1796709D01*
X1947513Y1796618D01*
X1947565Y1796528D01*
X1947630Y1796360D01*
X1947669Y1796204D01*
X1947682Y1796152D01*
Y1796100D01*
Y1796075D01*
Y1796062D01*
X1947669Y1795893D01*
X1947643Y1795751D01*
X1947591Y1795621D01*
X1947526Y1795517D01*
X1947462Y1795427D01*
X1947384Y1795349D01*
X1947293Y1795284D01*
X1947202Y1795233D01*
X1947021Y1795168D01*
X1946879Y1795129D01*
X1946814Y1795116D01*
X1943834D01*
X1943536Y1795129D01*
X1943264Y1795168D01*
X1942992Y1795220D01*
X1942733Y1795297D01*
X1942500Y1795375D01*
X1942280Y1795466D01*
X1942073Y1795569D01*
X1941878Y1795673D01*
X1941710Y1795789D01*
X1941555Y1795880D01*
X1941425Y1795984D01*
X1941321Y1796062D01*
X1941231Y1796139D01*
X1941166Y1796191D01*
X1941127Y1796230D01*
X1941114Y1796243D01*
X1940920Y1796450D01*
X1940751Y1796683D01*
X1940596Y1796904D01*
X1940466Y1797137D01*
X1940363Y1797370D01*
X1940272Y1797590D01*
X1940194Y1797810D01*
X1940143Y1798018D01*
X1940091Y1798212D01*
X1940065Y1798393D01*
X1940039Y1798549D01*
X1940013Y1798678D01*
Y1798795D01*
X1940000Y1798885D01*
Y1798937D01*
Y1798950D01*
Y1806166D01*
X1940013Y1806464D01*
X1940052Y1806736D01*
X1940104Y1807008D01*
X1940168Y1807267D01*
X1940259Y1807500D01*
X1940350Y1807720D01*
X1940453Y1807927D01*
X1940557Y1808122D01*
X1940661Y1808290D01*
X1940764Y1808445D01*
X1940855Y1808575D01*
X1940946Y1808679D01*
X1941010Y1808769D01*
X1941062Y1808834D01*
X1941101Y1808873D01*
X1941114Y1808886D01*
X1941334Y1809080D01*
X1941555Y1809249D01*
X1941788Y1809404D01*
X1942021Y1809534D01*
X1942241Y1809637D01*
X1942474Y1809728D01*
X1942694Y1809806D01*
X1942902Y1809857D01*
X1943096Y1809909D01*
X1943277Y1809935D01*
X1943433Y1809961D01*
X1943562Y1809987D01*
X1943679D01*
X1943770Y1810000D01*
X1946723D01*
X1946891Y1809987D01*
D02*
G37*
%LPC*%
G36*
X2325999Y1808109D02*
X2325947D01*
X2325856Y1808096D01*
X2325766Y1808083D01*
X2325584Y1808005D01*
X2325416Y1807888D01*
X2325260Y1807733D01*
X2325118Y1807552D01*
X2324975Y1807344D01*
X2324859Y1807137D01*
X2324742Y1806904D01*
X2324639Y1806684D01*
X2324548Y1806476D01*
X2324483Y1806269D01*
X2324418Y1806088D01*
X2324366Y1805932D01*
X2324328Y1805816D01*
X2324315Y1805738D01*
X2324302Y1805712D01*
X2324211Y1805181D01*
X2324133Y1804637D01*
X2324082Y1804106D01*
X2324068Y1803847D01*
X2324056Y1803614D01*
X2324043Y1803394D01*
X2324030Y1803186D01*
Y1803005D01*
X2324017Y1802849D01*
Y1802720D01*
Y1802629D01*
Y1802577D01*
Y1802552D01*
X2324030Y1801917D01*
X2324082Y1801308D01*
X2324107Y1801023D01*
X2324133Y1800751D01*
X2324172Y1800492D01*
X2324211Y1800259D01*
X2324237Y1800038D01*
X2324276Y1799844D01*
X2324302Y1799676D01*
X2324341Y1799520D01*
X2324353Y1799404D01*
X2324379Y1799326D01*
X2324392Y1799261D01*
Y1799248D01*
X2324444Y1799041D01*
X2324496Y1798860D01*
X2324613Y1798510D01*
X2324742Y1798212D01*
X2324872Y1797953D01*
X2324988Y1797733D01*
X2325118Y1797551D01*
X2325247Y1797409D01*
X2325377Y1797292D01*
X2325493Y1797189D01*
X2325597Y1797124D01*
X2325701Y1797072D01*
X2325779Y1797046D01*
X2325856Y1797020D01*
X2325908Y1797007D01*
X2326037D01*
X2326128Y1797033D01*
X2326310Y1797098D01*
X2326465Y1797214D01*
X2326620Y1797357D01*
X2326763Y1797525D01*
X2326893Y1797707D01*
X2327009Y1797914D01*
X2327113Y1798121D01*
X2327203Y1798329D01*
X2327281Y1798536D01*
X2327346Y1798717D01*
X2327398Y1798885D01*
X2327449Y1799028D01*
X2327475Y1799145D01*
X2327501Y1799209D01*
Y1799222D01*
Y1799235D01*
X2327631Y1799831D01*
X2327722Y1800414D01*
X2327799Y1800971D01*
X2327825Y1801230D01*
X2327838Y1801476D01*
X2327864Y1801709D01*
Y1801917D01*
X2327877Y1802098D01*
X2327890Y1802254D01*
Y1802383D01*
Y1802474D01*
Y1802526D01*
Y1802552D01*
X2327877Y1803186D01*
X2327864Y1803497D01*
X2327838Y1803782D01*
X2327825Y1804067D01*
X2327799Y1804326D01*
X2327773Y1804572D01*
X2327747Y1804792D01*
X2327709Y1805000D01*
X2327683Y1805181D01*
X2327657Y1805337D01*
X2327644Y1805466D01*
X2327618Y1805570D01*
X2327605Y1805647D01*
X2327592Y1805699D01*
Y1805712D01*
X2327527Y1805932D01*
X2327475Y1806140D01*
X2327411Y1806321D01*
X2327346Y1806502D01*
X2327203Y1806826D01*
X2327074Y1807098D01*
X2326931Y1807332D01*
X2326802Y1807526D01*
X2326659Y1807681D01*
X2326543Y1807811D01*
X2326413Y1807901D01*
X2326310Y1807979D01*
X2326206Y1808031D01*
X2326115Y1808070D01*
X2326051Y1808096D01*
X2325999Y1808109D01*
D02*
G37*
G36*
X1966426Y1802331D02*
X1964483D01*
X1964328Y1802318D01*
X1964185Y1802305D01*
X1963926Y1802241D01*
X1963693Y1802150D01*
X1963486Y1802046D01*
X1963330Y1801956D01*
X1963214Y1801865D01*
X1963136Y1801800D01*
X1963123Y1801774D01*
X1963110D01*
X1963006Y1801671D01*
X1962929Y1801554D01*
X1962786Y1801321D01*
X1962695Y1801088D01*
X1962618Y1800867D01*
X1962579Y1800673D01*
X1962566Y1800595D01*
Y1800531D01*
X1962553Y1800466D01*
Y1800427D01*
Y1800401D01*
Y1800388D01*
Y1798950D01*
X1962566Y1798808D01*
X1962579Y1798665D01*
X1962644Y1798393D01*
X1962734Y1798160D01*
X1962838Y1797966D01*
X1962929Y1797797D01*
X1963019Y1797681D01*
X1963084Y1797603D01*
X1963110Y1797577D01*
X1963214Y1797473D01*
X1963330Y1797383D01*
X1963563Y1797253D01*
X1963797Y1797150D01*
X1964017Y1797072D01*
X1964198Y1797033D01*
X1964353Y1797020D01*
X1964405Y1797007D01*
X1964626D01*
X1964768Y1797033D01*
X1965040Y1797098D01*
X1965273Y1797189D01*
X1965468Y1797292D01*
X1965636Y1797396D01*
X1965753Y1797486D01*
X1965830Y1797551D01*
X1965856Y1797564D01*
Y1797577D01*
X1965960Y1797681D01*
X1966051Y1797797D01*
X1966180Y1798031D01*
X1966284Y1798264D01*
X1966361Y1798471D01*
X1966400Y1798665D01*
X1966413Y1798821D01*
X1966426Y1798873D01*
Y1798911D01*
Y1798937D01*
Y1798950D01*
Y1802331D01*
D02*
G37*
%LPD*%
D10*
X2702000Y1765000D02*
Y1785000D01*
X2658000Y1765000D02*
Y1785000D01*
X2702000D01*
X2658000Y1765000D02*
X2702000D01*
X2342000D02*
Y1785000D01*
X2298000Y1765000D02*
Y1785000D01*
X2342000D01*
X2298000Y1765000D02*
X2342000D01*
X1982000D02*
Y1785000D01*
X1938000Y1765000D02*
Y1785000D01*
X1982000D01*
X1938000Y1765000D02*
X1982000D01*
X2668000Y405000D02*
Y425000D01*
X2712000Y405000D02*
Y425000D01*
X2668000Y405000D02*
X2712000D01*
X2668000Y425000D02*
X2712000D01*
X1948000Y405000D02*
Y425000D01*
X1992000Y405000D02*
Y425000D01*
X1948000Y405000D02*
X1992000D01*
X1948000Y425000D02*
X1992000D01*
X2308000Y405000D02*
Y425000D01*
X2352000Y405000D02*
Y425000D01*
X2308000Y405000D02*
X2352000D01*
X2308000Y425000D02*
X2352000D01*
D14*
X919260Y142500D02*
G03*
X919260Y142500I-3810J0D01*
G01*
M02*
