G04*
G04 #@! TF.GenerationSoftware,Altium Limited,Altium Designer,19.1.9 (167)*
G04*
G04 Layer_Color=7477623*
%FSLAX44Y44*%
%MOMM*%
G71*
G01*
G75*
%ADD51R,1.1500X1.7500*%
%ADD52P,2.8684X8X112.5*%
%ADD53C,2.6500*%
%ADD54C,1.8000*%
G04:AMPARAMS|DCode=55|XSize=6.15mm|YSize=6.15mm|CornerRadius=1.575mm|HoleSize=0mm|Usage=FLASHONLY|Rotation=0.000|XOffset=0mm|YOffset=0mm|HoleType=Round|Shape=RoundedRectangle|*
%AMROUNDEDRECTD55*
21,1,6.1500,3.0000,0,0,0.0*
21,1,3.0000,6.1500,0,0,0.0*
1,1,3.1500,1.5000,-1.5000*
1,1,3.1500,-1.5000,-1.5000*
1,1,3.1500,-1.5000,1.5000*
1,1,3.1500,1.5000,1.5000*
%
%ADD55ROUNDEDRECTD55*%
%ADD56C,1.7500*%
%ADD57C,2.1500*%
%ADD58C,0.6500*%
%ADD59C,2.3500*%
%ADD60C,3.1500*%
%ADD62C,2.7000*%
%ADD63C,2.4000*%
G04:AMPARAMS|DCode=64|XSize=4.15mm|YSize=4.15mm|CornerRadius=1.075mm|HoleSize=0mm|Usage=FLASHONLY|Rotation=270.000|XOffset=0mm|YOffset=0mm|HoleType=Round|Shape=RoundedRectangle|*
%AMROUNDEDRECTD64*
21,1,4.1500,2.0000,0,0,270.0*
21,1,2.0000,4.1500,0,0,270.0*
1,1,2.1500,-1.0000,-1.0000*
1,1,2.1500,-1.0000,1.0000*
1,1,2.1500,1.0000,1.0000*
1,1,2.1500,1.0000,-1.0000*
%
%ADD64ROUNDEDRECTD64*%
%ADD65C,4.1500*%
%ADD66P,1.8942X8X292.5*%
%ADD67C,1.5500*%
%ADD68P,1.8942X8X202.5*%
%ADD69C,3.2500*%
%ADD131C,2.1082*%
G36*
X3159178Y1996138D02*
X3165121Y1994545D01*
X3170806Y1992191D01*
X3176135Y1989114D01*
X3181017Y1985368D01*
X3185368Y1981017D01*
X3189114Y1976135D01*
X3192191Y1970806D01*
X3194546Y1965121D01*
X3196138Y1959177D01*
X3196942Y1953077D01*
Y1950000D01*
Y1900000D01*
X3100000D01*
Y1996941D01*
X3150000D01*
D01*
X3150000D01*
X3153076Y1996941D01*
X3159178Y1996138D01*
D02*
G37*
G36*
X100000Y1996942D02*
Y1900000D01*
X3059D01*
Y1950000D01*
Y1953077D01*
X3862Y1959177D01*
X5454Y1965121D01*
X7809Y1970806D01*
X10886Y1976135D01*
X14632Y1981017D01*
X18983Y1985368D01*
X23865Y1989114D01*
X29194Y1992191D01*
X34879Y1994545D01*
X40823Y1996138D01*
X46923Y1996941D01*
X50000Y1996942D01*
X100000D01*
D02*
G37*
G36*
X332500Y1832500D02*
X377500Y1832500D01*
X377997Y1832500D01*
X378916Y1832119D01*
X379619Y1831416D01*
X379716Y1831183D01*
X380000Y1830000D01*
D01*
X380000Y1828825D01*
Y1822500D01*
X380000Y1822003D01*
X379619Y1821084D01*
X378916Y1820381D01*
X378657Y1820273D01*
X377500Y1820000D01*
Y1820000D01*
X335000Y1820000D01*
X334512Y1819952D01*
X333611Y1819579D01*
X332921Y1818889D01*
X332548Y1817988D01*
X332500Y1817500D01*
Y1805000D01*
X332548Y1804512D01*
X332921Y1803611D01*
X333611Y1802921D01*
X334512Y1802548D01*
X335000Y1802500D01*
X377500Y1802500D01*
X377997Y1802500D01*
X378916Y1802119D01*
X379619Y1801416D01*
X379726Y1801157D01*
X380000Y1800000D01*
Y1800000D01*
X380000D01*
X380000Y1800000D01*
X380000Y1790000D01*
X380000Y1789503D01*
X379620Y1788584D01*
X378917Y1787880D01*
X378657Y1787773D01*
X377500Y1787500D01*
Y1787500D01*
X360000Y1787500D01*
X359024Y1787404D01*
X357221Y1786658D01*
X355842Y1785278D01*
X355186Y1783693D01*
X355096Y1783476D01*
X355000Y1782500D01*
X355000Y1782500D01*
X355000Y1782500D01*
X355000Y1780000D01*
X355000Y1779503D01*
X354620Y1778583D01*
X353917Y1777880D01*
X352997Y1777500D01*
X352500Y1777500D01*
X275000D01*
X274503Y1777500D01*
X273584Y1777880D01*
X272880Y1778584D01*
X272500Y1779503D01*
X272500Y1780000D01*
X272500Y1792997D01*
X272880Y1793916D01*
X273584Y1794619D01*
X274502Y1795000D01*
X275000Y1795000D01*
X315000Y1795000D01*
X315735Y1795036D01*
X317177Y1795323D01*
X318535Y1795885D01*
X319757Y1796702D01*
X320797Y1797742D01*
X321614Y1798964D01*
X322176Y1800322D01*
X322463Y1801764D01*
X322499Y1802499D01*
X322500Y1802500D01*
Y1830497D01*
X322881Y1831416D01*
X323583Y1832119D01*
X324502Y1832499D01*
X324999D01*
X325000Y1832500D01*
X332500Y1832500D01*
D02*
G37*
G36*
Y1432500D02*
X377500Y1432500D01*
X377997Y1432500D01*
X378916Y1432119D01*
X379619Y1431416D01*
X379716Y1431183D01*
X380000Y1430000D01*
D01*
X380000Y1428825D01*
Y1422500D01*
X380000Y1422003D01*
X379619Y1421084D01*
X378916Y1420381D01*
X378657Y1420273D01*
X377500Y1420000D01*
Y1420000D01*
X335000Y1420000D01*
X334512Y1419952D01*
X333611Y1419579D01*
X332921Y1418889D01*
X332548Y1417988D01*
X332500Y1417500D01*
Y1405000D01*
X332548Y1404512D01*
X332921Y1403611D01*
X333611Y1402921D01*
X334512Y1402548D01*
X335000Y1402500D01*
X377500Y1402500D01*
X377997Y1402500D01*
X378916Y1402119D01*
X379619Y1401416D01*
X379726Y1401157D01*
X380000Y1400000D01*
Y1400000D01*
X380000D01*
X380000Y1400000D01*
X380000Y1390000D01*
X380000Y1389503D01*
X379620Y1388584D01*
X378917Y1387880D01*
X378657Y1387773D01*
X377500Y1387500D01*
Y1387500D01*
X360000Y1387500D01*
X359024Y1387404D01*
X357221Y1386658D01*
X355842Y1385278D01*
X355186Y1383693D01*
X355096Y1383476D01*
X355000Y1382500D01*
X355000Y1382500D01*
X355000Y1382500D01*
X355000Y1380000D01*
X355000Y1379503D01*
X354620Y1378583D01*
X353917Y1377880D01*
X352997Y1377500D01*
X352500Y1377500D01*
X275000D01*
X274503Y1377500D01*
X273584Y1377880D01*
X272880Y1378584D01*
X272500Y1379503D01*
X272500Y1380000D01*
X272500Y1392997D01*
X272880Y1393916D01*
X273584Y1394619D01*
X274502Y1395000D01*
X275000Y1395000D01*
X315000Y1395000D01*
X315735Y1395036D01*
X317177Y1395323D01*
X318535Y1395885D01*
X319757Y1396702D01*
X320797Y1397742D01*
X321614Y1398964D01*
X322176Y1400322D01*
X322463Y1401764D01*
X322499Y1402499D01*
X322500Y1402500D01*
Y1430497D01*
X322881Y1431416D01*
X323583Y1432119D01*
X324502Y1432499D01*
X324999D01*
X325000Y1432500D01*
X332500Y1432500D01*
D02*
G37*
G36*
X2840440Y1219666D02*
X2700440D01*
Y1359666D01*
X2840440D01*
Y1219666D01*
D02*
G37*
G36*
X1620000Y1500000D02*
X1620000Y1500000D01*
X1620000Y1500000D01*
X1621970Y1500000D01*
X1625834Y1499231D01*
X1629473Y1497724D01*
X1632749Y1495535D01*
X1635535Y1492749D01*
X1637724Y1489474D01*
X1639231Y1485834D01*
X1640000Y1481970D01*
X1640000Y1480000D01*
X1640000Y800000D01*
X1640000Y800000D01*
X1640000Y798030D01*
X1639231Y794166D01*
X1637724Y790526D01*
X1635535Y787251D01*
X1632749Y784465D01*
X1629473Y782276D01*
X1625834Y780769D01*
X1621970Y780000D01*
X1620000Y780000D01*
X1390000D01*
Y850000D01*
X1550000D01*
X1551960Y850096D01*
X1555806Y850861D01*
X1559428Y852361D01*
X1562688Y854540D01*
X1565460Y857312D01*
X1567639Y860572D01*
X1569139Y864194D01*
X1569904Y868040D01*
X1570000Y870000D01*
X1570000Y1120000D01*
X1570000Y1120000D01*
X1570000Y1120000D01*
X1569904Y1121960D01*
X1569139Y1125806D01*
X1567638Y1129428D01*
X1565460Y1132688D01*
X1562688Y1135460D01*
X1559428Y1137638D01*
X1555806Y1139139D01*
X1551960Y1139904D01*
X1550000Y1140000D01*
X1430000Y1140000D01*
Y1160000D01*
X1550000Y1160000D01*
X1551960Y1160096D01*
X1555806Y1160861D01*
X1559428Y1162362D01*
X1562688Y1164540D01*
X1565460Y1167312D01*
X1567638Y1170572D01*
X1569139Y1174194D01*
X1569904Y1178040D01*
X1570000Y1180000D01*
X1570000Y1430000D01*
X1570000D01*
X1570000Y1430000D01*
X1569904Y1431960D01*
X1569139Y1435806D01*
X1567638Y1439428D01*
X1565460Y1442688D01*
X1562688Y1445460D01*
X1559428Y1447638D01*
X1555806Y1449139D01*
X1551960Y1449904D01*
X1550000Y1450000D01*
X1420000Y1450000D01*
Y1500000D01*
X1620000Y1500000D01*
D02*
G37*
G36*
X2120000Y1460000D02*
X2120000Y1280000D01*
X2130000Y1270000D01*
X2250000Y1270000D01*
Y1120000D01*
X2080000D01*
Y1195000D01*
X2065000Y1210000D01*
Y1460000D01*
X2120000Y1460000D01*
D02*
G37*
G36*
X332500Y1032500D02*
X377500Y1032500D01*
X377997Y1032500D01*
X378916Y1032119D01*
X379619Y1031416D01*
X379716Y1031183D01*
X380000Y1030000D01*
D01*
X380000Y1028825D01*
Y1022500D01*
X380000Y1022003D01*
X379619Y1021084D01*
X378916Y1020381D01*
X378657Y1020273D01*
X377500Y1020000D01*
Y1020000D01*
X335000Y1020000D01*
X334512Y1019952D01*
X333611Y1019579D01*
X332921Y1018889D01*
X332548Y1017988D01*
X332500Y1017500D01*
Y1005000D01*
X332548Y1004512D01*
X332921Y1003611D01*
X333611Y1002921D01*
X334512Y1002548D01*
X335000Y1002500D01*
X377500Y1002500D01*
X377997Y1002500D01*
X378916Y1002119D01*
X379619Y1001416D01*
X379726Y1001157D01*
X380000Y1000001D01*
Y1000000D01*
X380000D01*
X380000Y1000000D01*
X380000Y990000D01*
X380000Y989503D01*
X379620Y988584D01*
X378917Y987880D01*
X378657Y987773D01*
X377500Y987500D01*
Y987500D01*
X360000Y987500D01*
X359024Y987404D01*
X357221Y986658D01*
X355842Y985278D01*
X355186Y983693D01*
X355096Y983476D01*
X355000Y982500D01*
X355000Y982500D01*
X355000Y982500D01*
X355000Y980000D01*
X355000Y979502D01*
X354620Y978583D01*
X353917Y977880D01*
X352997Y977499D01*
X352500Y977500D01*
X275000D01*
X274503Y977500D01*
X273584Y977880D01*
X272880Y978584D01*
X272500Y979503D01*
X272500Y980000D01*
X272500Y992997D01*
X272880Y993916D01*
X273584Y994619D01*
X274502Y994999D01*
X275000Y994999D01*
X315000Y995000D01*
X315735Y995036D01*
X317177Y995323D01*
X318535Y995885D01*
X319757Y996702D01*
X320797Y997742D01*
X321614Y998964D01*
X322176Y1000322D01*
X322463Y1001764D01*
X322499Y1002499D01*
X322500Y1002500D01*
Y1030497D01*
X322881Y1031416D01*
X323583Y1032119D01*
X324502Y1032499D01*
X324999D01*
X325000Y1032500D01*
X332500Y1032500D01*
D02*
G37*
G36*
X2840440Y819666D02*
X2700440D01*
Y959666D01*
X2840440D01*
Y819666D01*
D02*
G37*
G36*
X2250000Y940000D02*
X2140000D01*
X2125000Y925000D01*
Y790000D01*
X2065000Y790000D01*
Y1005000D01*
X2080000Y1020000D01*
Y1090000D01*
X2250000D01*
Y940000D01*
D02*
G37*
G36*
X332500Y632500D02*
X377500Y632500D01*
X377997Y632500D01*
X378916Y632119D01*
X379619Y631416D01*
X379716Y631183D01*
X380000Y630000D01*
D01*
X380000Y628825D01*
Y622500D01*
X380000Y622003D01*
X379619Y621084D01*
X378916Y620381D01*
X378657Y620273D01*
X377500Y620000D01*
Y620000D01*
X335000Y620000D01*
X334512Y619952D01*
X333611Y619579D01*
X332921Y618889D01*
X332548Y617988D01*
X332500Y617500D01*
Y605000D01*
X332548Y604512D01*
X332921Y603611D01*
X333611Y602921D01*
X334512Y602548D01*
X335000Y602500D01*
X377500Y602500D01*
X377997Y602500D01*
X378916Y602119D01*
X379619Y601416D01*
X379726Y601157D01*
X380000Y600000D01*
Y600000D01*
X380000D01*
X380000Y600000D01*
X380000Y590000D01*
X380000Y589503D01*
X379620Y588583D01*
X378917Y587880D01*
X378657Y587773D01*
X377500Y587500D01*
Y587500D01*
X360000Y587500D01*
X359024Y587404D01*
X357221Y586658D01*
X355842Y585279D01*
X355186Y583693D01*
X355096Y583476D01*
X355000Y582500D01*
X355000Y582500D01*
X355000Y582500D01*
X355000Y580000D01*
X355000Y579502D01*
X354620Y578583D01*
X353917Y577880D01*
X352997Y577500D01*
X352500Y577500D01*
X275000D01*
X274503Y577500D01*
X273584Y577880D01*
X272880Y578584D01*
X272500Y579503D01*
X272500Y580000D01*
X272500Y592997D01*
X272880Y593916D01*
X273584Y594619D01*
X274502Y595000D01*
X275000Y595000D01*
X315000Y595000D01*
X315735Y595036D01*
X317177Y595323D01*
X318535Y595886D01*
X319757Y596702D01*
X320797Y597742D01*
X321614Y598964D01*
X322176Y600322D01*
X322463Y601764D01*
X322499Y602499D01*
X322500Y602500D01*
Y630497D01*
X322881Y631416D01*
X323583Y632119D01*
X324502Y632499D01*
X324999D01*
X325000Y632500D01*
X332500Y632500D01*
D02*
G37*
G36*
X780000Y360000D02*
X780985Y360000D01*
X782917Y359616D01*
X784737Y358862D01*
X786375Y357767D01*
X787767Y356375D01*
X788862Y354737D01*
X789616Y352917D01*
X789962Y351174D01*
X790000Y350004D01*
Y350000D01*
X790000Y350000D01*
X790000Y350000D01*
X790000Y210000D01*
X790048Y209020D01*
X790430Y207098D01*
X791180Y205287D01*
X792269Y203657D01*
X793655Y202271D01*
X795285Y201182D01*
X797096Y200432D01*
X799018Y200050D01*
X799998Y200002D01*
X1430000Y200000D01*
X1430980Y200048D01*
X1432903Y200431D01*
X1434714Y201181D01*
X1436344Y202270D01*
X1437730Y203656D01*
X1438819Y205286D01*
X1439569Y207097D01*
X1439951Y209020D01*
X1440000Y210000D01*
X1440000Y210000D01*
X1440000Y260000D01*
Y260985D01*
X1440384Y262917D01*
X1441138Y264737D01*
X1442232Y266374D01*
X1443625Y267767D01*
X1445263Y268862D01*
X1447083Y269616D01*
X1449015Y270000D01*
X1450000Y270000D01*
X1450000Y270000D01*
X1470985Y270000D01*
X1472917Y269616D01*
X1474737Y268862D01*
X1476375Y267767D01*
X1477767Y266375D01*
X1478862Y264737D01*
X1479616Y262917D01*
X1480000Y260985D01*
Y260000D01*
X1480000D01*
X1480000Y180000D01*
X1480000Y179015D01*
X1479616Y177083D01*
X1478862Y175263D01*
X1477768Y173625D01*
X1476375Y172232D01*
X1474737Y171138D01*
X1472917Y170384D01*
X1470985Y170000D01*
X1470000Y170000D01*
X780000D01*
X778030Y170000D01*
X774166Y170768D01*
X770526Y172276D01*
X767251Y174465D01*
X764465Y177250D01*
X762276Y180526D01*
X760769Y184166D01*
X760000Y188030D01*
X760000Y190000D01*
X760000Y350000D01*
Y350985D01*
X760384Y352917D01*
X761138Y354737D01*
X762233Y356375D01*
X763625Y357767D01*
X765263Y358862D01*
X767083Y359616D01*
X769015Y360000D01*
X770000Y360000D01*
X770000Y360000D01*
X780000Y360000D01*
D02*
G37*
G36*
X1847501Y316499D02*
X1847998D01*
X1848916Y316119D01*
X1849619Y315416D01*
X1850000Y314497D01*
X1850000Y286500D01*
X1850001Y286499D01*
X1850037Y285764D01*
X1850324Y284322D01*
X1850886Y282964D01*
X1851703Y281742D01*
X1852743Y280702D01*
X1853965Y279886D01*
X1855323Y279323D01*
X1856765Y279036D01*
X1857500Y279000D01*
X1897500Y279000D01*
X1897500Y278999D01*
X1898657Y278726D01*
X1898916Y278619D01*
X1899619Y277916D01*
X1900000Y276997D01*
X1900000Y264000D01*
X1900000Y264000D01*
X1900000Y263503D01*
X1899620Y262584D01*
X1898916Y261880D01*
X1897997Y261500D01*
X1897500Y261500D01*
X1820000D01*
X1819503Y261499D01*
X1818583Y261880D01*
X1817880Y262583D01*
X1817500Y263503D01*
X1817500Y264000D01*
X1817500Y266500D01*
X1817500Y266500D01*
X1817500Y266500D01*
X1817404Y267476D01*
X1817314Y267693D01*
X1816658Y269278D01*
X1815278Y270658D01*
X1813476Y271404D01*
X1812500Y271500D01*
X1795000Y271500D01*
X1794503Y271500D01*
X1793583Y271880D01*
X1792880Y272584D01*
X1792500Y273503D01*
X1792500Y274000D01*
X1792500Y284000D01*
X1792500Y284000D01*
X1792500Y284000D01*
X1792774Y285157D01*
X1792881Y285416D01*
X1793584Y286119D01*
X1794503Y286500D01*
X1795000Y286500D01*
X1837500Y286500D01*
X1837988Y286548D01*
X1838889Y286921D01*
X1839579Y287611D01*
X1839952Y288512D01*
X1840000Y289000D01*
X1840000Y301500D01*
X1840000Y301500D01*
X1840000Y301500D01*
X1839952Y301988D01*
X1839579Y302889D01*
X1838889Y303579D01*
X1837988Y303952D01*
X1837500Y304000D01*
X1795000Y304000D01*
X1794503Y304000D01*
X1793584Y304380D01*
X1792881Y305084D01*
X1792500Y306003D01*
X1792500Y306500D01*
X1792500Y314000D01*
X1792500Y314000D01*
X1792500Y314000D01*
Y314000D01*
X1792773Y315157D01*
X1792881Y315416D01*
X1793584Y316119D01*
X1794503Y316500D01*
X1795000Y316500D01*
X1840000Y316500D01*
X1847500Y316500D01*
X1847501Y316499D01*
D02*
G37*
G36*
X100000Y3059D02*
X50000D01*
X46923D01*
X40823Y3862D01*
X34879Y5454D01*
X29194Y7809D01*
X23865Y10886D01*
X18983Y14632D01*
X14632Y18983D01*
X10886Y23865D01*
X7809Y29194D01*
X5454Y34879D01*
X3862Y40823D01*
X3059Y46923D01*
Y50000D01*
Y100000D01*
X100000D01*
Y3059D01*
D02*
G37*
G36*
X3196941Y50000D02*
Y46923D01*
X3196138Y40823D01*
X3194546Y34879D01*
X3192191Y29194D01*
X3189114Y23865D01*
X3185368Y18983D01*
X3181017Y14632D01*
X3176135Y10886D01*
X3170806Y7809D01*
X3165121Y5454D01*
X3159178Y3862D01*
X3153077Y3059D01*
X3150000D01*
X3100000D01*
Y100000D01*
X3196941D01*
Y50000D01*
D02*
G37*
D51*
X2675000Y415000D02*
D03*
X2705000D02*
D03*
X2315000D02*
D03*
X2345000D02*
D03*
X1955000D02*
D03*
X1985000D02*
D03*
X2695000Y1775000D02*
D03*
X2665000D02*
D03*
X2335000D02*
D03*
X2305000D02*
D03*
X1975000D02*
D03*
X1945000D02*
D03*
D52*
X1380000Y142500D02*
D03*
D53*
Y217500D02*
D03*
D54*
X1330000Y1438500D02*
D03*
Y1163500D02*
D03*
Y1101000D02*
D03*
Y826000D02*
D03*
X1390000Y1571000D02*
D03*
X1115000D02*
D03*
X1387500Y691000D02*
D03*
X1112500D02*
D03*
D55*
X2630000Y500500D02*
D03*
X2735000Y525500D02*
D03*
X2375000D02*
D03*
X2270000Y500500D02*
D03*
X2015000Y525500D02*
D03*
X1910000Y500500D02*
D03*
X2635000Y1675000D02*
D03*
X2740000Y1700000D02*
D03*
X2275000Y1675000D02*
D03*
X2380000Y1700000D02*
D03*
X1915000Y1675000D02*
D03*
X2020000Y1700000D02*
D03*
D56*
X2661900Y998400D02*
D03*
X2636500D02*
D03*
X2611100D02*
D03*
X2745041Y915066D02*
D03*
X2770440D02*
D03*
X2795840D02*
D03*
X2821241D02*
D03*
X2770440Y940466D02*
D03*
X2745041D02*
D03*
X2719641D02*
D03*
Y915066D02*
D03*
X2795840Y940466D02*
D03*
X2821241D02*
D03*
X2770440Y838866D02*
D03*
X2745041D02*
D03*
X2719641D02*
D03*
X2795840D02*
D03*
X2821241D02*
D03*
X2719641Y889666D02*
D03*
Y864266D02*
D03*
X2745041Y889666D02*
D03*
X2770440D02*
D03*
X2795840D02*
D03*
X2821241D02*
D03*
Y864266D02*
D03*
X2795840D02*
D03*
X2770440D02*
D03*
X2745041D02*
D03*
X625000Y1019502D02*
D03*
X2745041Y1264266D02*
D03*
X2770440D02*
D03*
X2795840D02*
D03*
X2821241D02*
D03*
Y1289666D02*
D03*
X2795840D02*
D03*
X2770440D02*
D03*
X2745041D02*
D03*
X2719641Y1264266D02*
D03*
Y1289666D02*
D03*
X2821241Y1238866D02*
D03*
X2795840D02*
D03*
X2719641D02*
D03*
X2745041D02*
D03*
X2770440D02*
D03*
X2821241Y1340466D02*
D03*
X2795840D02*
D03*
X2719641Y1315066D02*
D03*
Y1340466D02*
D03*
X2745041D02*
D03*
X2770440D02*
D03*
X2821241Y1315066D02*
D03*
X2795840D02*
D03*
X2770440D02*
D03*
X2745041D02*
D03*
X540000Y171000D02*
D03*
X447500D02*
D03*
X390000D02*
D03*
X625000Y619502D02*
D03*
X535000Y653500D02*
D03*
Y1053500D02*
D03*
X625000Y1419502D02*
D03*
X535000Y1453500D02*
D03*
X625000Y1819502D02*
D03*
X535000Y1853500D02*
D03*
D57*
X2573000Y1074600D02*
D03*
X2700000D02*
D03*
X2573000Y1100000D02*
D03*
Y1125400D02*
D03*
X2700000Y1100000D02*
D03*
Y1125400D02*
D03*
D58*
X2249500Y1405000D02*
D03*
Y1411000D02*
D03*
Y1399000D02*
D03*
X2255500D02*
D03*
Y1411000D02*
D03*
Y1405000D02*
D03*
X2172500Y816500D02*
D03*
Y810500D02*
D03*
Y822500D02*
D03*
X2178500D02*
D03*
Y810500D02*
D03*
Y816500D02*
D03*
D59*
X1090000Y1197261D02*
D03*
Y1064739D02*
D03*
D60*
X2500000Y1065000D02*
D03*
Y1115000D02*
D03*
X2300000D02*
D03*
Y1065000D02*
D03*
X937500Y1768000D02*
D03*
Y1713500D02*
D03*
Y1659000D02*
D03*
X1536000Y1430200D02*
D03*
Y1379400D02*
D03*
Y1328600D02*
D03*
Y1277800D02*
D03*
Y1227000D02*
D03*
Y1176200D02*
D03*
Y1125400D02*
D03*
Y1074600D02*
D03*
Y1023800D02*
D03*
Y973000D02*
D03*
Y922200D02*
D03*
Y871400D02*
D03*
X2044000Y820600D02*
D03*
Y871400D02*
D03*
Y922200D02*
D03*
Y973000D02*
D03*
Y1023800D02*
D03*
Y1074600D02*
D03*
Y1125400D02*
D03*
Y1176200D02*
D03*
Y1227000D02*
D03*
Y1277800D02*
D03*
Y1328600D02*
D03*
Y1379400D02*
D03*
X1536000Y820600D02*
D03*
X2044000Y1430200D02*
D03*
X937500Y861500D02*
D03*
Y916000D02*
D03*
Y970500D02*
D03*
Y1261500D02*
D03*
Y1316000D02*
D03*
Y1370500D02*
D03*
Y464000D02*
D03*
Y518500D02*
D03*
Y573000D02*
D03*
D62*
X2259600Y152900D02*
D03*
X2310400D02*
D03*
Y102100D02*
D03*
X2259600D02*
D03*
X2377100D02*
D03*
X2427900D02*
D03*
Y152900D02*
D03*
X2377100D02*
D03*
X2142100Y102100D02*
D03*
X2192900D02*
D03*
Y152900D02*
D03*
X2142100D02*
D03*
X2024600Y102100D02*
D03*
X2075400D02*
D03*
Y152900D02*
D03*
X2024600D02*
D03*
D63*
X2285000Y127500D02*
D03*
X2402500D02*
D03*
X2167500D02*
D03*
X2050000D02*
D03*
D64*
X190000Y265000D02*
D03*
D65*
Y170000D02*
D03*
D66*
X625000Y1054502D02*
D03*
Y654502D02*
D03*
X535000Y618500D02*
D03*
Y1018500D02*
D03*
X625000Y1454502D02*
D03*
X535000Y1418500D02*
D03*
X625000Y1854502D02*
D03*
X535000Y1818500D02*
D03*
D67*
X365800Y1011000D02*
D03*
X340400D02*
D03*
X315000D02*
D03*
X289600D02*
D03*
Y611000D02*
D03*
X315000D02*
D03*
X340400D02*
D03*
X365800D02*
D03*
X289600Y1411000D02*
D03*
X315000D02*
D03*
X340400D02*
D03*
X365800D02*
D03*
X289600Y1811000D02*
D03*
X315000D02*
D03*
X340400D02*
D03*
X365800D02*
D03*
X1882900Y295000D02*
D03*
X1857500D02*
D03*
X1832100D02*
D03*
X1806700D02*
D03*
D68*
X575000Y171000D02*
D03*
X482500D02*
D03*
X355000D02*
D03*
D69*
X3150000Y50000D02*
D03*
X1730000Y1900000D02*
D03*
Y100000D02*
D03*
X3150000Y1950000D02*
D03*
X50000D02*
D03*
Y50000D02*
D03*
X1167500Y518500D02*
D03*
Y1316000D02*
D03*
Y1713500D02*
D03*
Y916000D02*
D03*
D131*
X972500Y142500D02*
D03*
X1072500Y267500D02*
D03*
X1110500D02*
D03*
X1010500Y142500D02*
D03*
M02*
