G04*
G04 #@! TF.GenerationSoftware,Altium Limited,Altium Designer,19.1.9 (167)*
G04*
G04 Layer_Color=7477623*
%FSLAX44Y44*%
%MOMM*%
G71*
G01*
G75*
%ADD30R,1.1500X1.7500*%
G04:AMPARAMS|DCode=51|XSize=6.15mm|YSize=6.15mm|CornerRadius=1.575mm|HoleSize=0mm|Usage=FLASHONLY|Rotation=0.000|XOffset=0mm|YOffset=0mm|HoleType=Round|Shape=RoundedRectangle|*
%AMROUNDEDRECTD51*
21,1,6.1500,3.0000,0,0,0.0*
21,1,3.0000,6.1500,0,0,0.0*
1,1,3.1500,1.5000,-1.5000*
1,1,3.1500,-1.5000,-1.5000*
1,1,3.1500,-1.5000,1.5000*
1,1,3.1500,1.5000,1.5000*
%
%ADD51ROUNDEDRECTD51*%
%ADD52C,3.2500*%
%ADD53C,1.7500*%
%ADD54C,3.1500*%
%ADD55C,2.7000*%
%ADD56C,2.4000*%
%ADD57C,1.8000*%
%ADD58P,1.8942X8X202.5*%
%ADD59C,0.6500*%
%ADD60C,2.3500*%
%ADD61C,1.5500*%
%ADD62P,1.8942X8X292.5*%
%ADD63C,4.1500*%
G04:AMPARAMS|DCode=64|XSize=4.15mm|YSize=4.15mm|CornerRadius=1.075mm|HoleSize=0mm|Usage=FLASHONLY|Rotation=270.000|XOffset=0mm|YOffset=0mm|HoleType=Round|Shape=RoundedRectangle|*
%AMROUNDEDRECTD64*
21,1,4.1500,2.0000,0,0,270.0*
21,1,2.0000,4.1500,0,0,270.0*
1,1,2.1500,-1.0000,-1.0000*
1,1,2.1500,-1.0000,1.0000*
1,1,2.1500,1.0000,1.0000*
1,1,2.1500,1.0000,-1.0000*
%
%ADD64ROUNDEDRECTD64*%
%ADD65C,2.1500*%
%ADD67P,2.8684X8X112.5*%
%ADD68C,2.6500*%
%ADD130C,2.1082*%
D30*
X2695000Y1775000D02*
D03*
X2665000D02*
D03*
X2335000D02*
D03*
X2305000D02*
D03*
X1975000D02*
D03*
X1945000D02*
D03*
X2675000Y415000D02*
D03*
X2705000D02*
D03*
X1955000D02*
D03*
X1985000D02*
D03*
X2315000D02*
D03*
X2345000D02*
D03*
D51*
X2630000Y500500D02*
D03*
X2735000Y525500D02*
D03*
X2270000Y500500D02*
D03*
X2375000Y525500D02*
D03*
X1910000Y500500D02*
D03*
X2015000Y525500D02*
D03*
X2635000Y1675000D02*
D03*
X2740000Y1700000D02*
D03*
X2275000Y1675000D02*
D03*
X2380000Y1700000D02*
D03*
X1915000Y1675000D02*
D03*
X2020000Y1700000D02*
D03*
D52*
X3150000Y50000D02*
D03*
X1730000Y1900000D02*
D03*
Y100000D02*
D03*
X3150000Y1950000D02*
D03*
X50000D02*
D03*
Y50000D02*
D03*
X1167500Y518500D02*
D03*
Y1316000D02*
D03*
Y1713500D02*
D03*
Y916000D02*
D03*
D53*
X2745041Y1315066D02*
D03*
X2770440D02*
D03*
X2795840D02*
D03*
X2821241D02*
D03*
X2770440Y1340466D02*
D03*
X2745041D02*
D03*
X2719641D02*
D03*
Y1315066D02*
D03*
X2795840Y1340466D02*
D03*
X2821241D02*
D03*
X2770440Y1238866D02*
D03*
X2745041D02*
D03*
X2719641D02*
D03*
X2795840D02*
D03*
X2821241D02*
D03*
X2719641Y1289666D02*
D03*
Y1264266D02*
D03*
X2745041Y1289666D02*
D03*
X2770440D02*
D03*
X2795840D02*
D03*
X2821241D02*
D03*
Y1264266D02*
D03*
X2795840D02*
D03*
X2770440D02*
D03*
X2745041D02*
D03*
Y915066D02*
D03*
X2770440D02*
D03*
X2795840D02*
D03*
X2821241D02*
D03*
X2770440Y940466D02*
D03*
X2745041D02*
D03*
X2719641D02*
D03*
Y915066D02*
D03*
X2795840Y940466D02*
D03*
X2821241D02*
D03*
X2770440Y838866D02*
D03*
X2745041D02*
D03*
X2719641D02*
D03*
X2795840D02*
D03*
X2821241D02*
D03*
X2719641Y889666D02*
D03*
Y864266D02*
D03*
X2745041Y889666D02*
D03*
X2770440D02*
D03*
X2795840D02*
D03*
X2821241D02*
D03*
Y864266D02*
D03*
X2795840D02*
D03*
X2770440D02*
D03*
X2745041D02*
D03*
X540000Y171000D02*
D03*
X447500D02*
D03*
X390000D02*
D03*
X625000Y1019502D02*
D03*
X535000Y1053500D02*
D03*
X625000Y1419502D02*
D03*
X535000Y1453500D02*
D03*
X625000Y1819502D02*
D03*
X535000Y1853500D02*
D03*
Y653500D02*
D03*
X625000Y619502D02*
D03*
X2611100Y998400D02*
D03*
X2636500D02*
D03*
X2661900D02*
D03*
D54*
X1536000Y1430200D02*
D03*
Y1379400D02*
D03*
Y1328600D02*
D03*
Y1277800D02*
D03*
Y1227000D02*
D03*
Y1176200D02*
D03*
Y1125400D02*
D03*
Y1074600D02*
D03*
Y1023800D02*
D03*
Y973000D02*
D03*
Y922200D02*
D03*
Y871400D02*
D03*
X2044000Y820600D02*
D03*
Y871400D02*
D03*
Y922200D02*
D03*
Y973000D02*
D03*
Y1023800D02*
D03*
Y1074600D02*
D03*
Y1125400D02*
D03*
Y1176200D02*
D03*
Y1227000D02*
D03*
Y1277800D02*
D03*
Y1328600D02*
D03*
Y1379400D02*
D03*
X1536000Y820600D02*
D03*
X2044000Y1430200D02*
D03*
X2500000Y1065000D02*
D03*
Y1115000D02*
D03*
X2300000D02*
D03*
Y1065000D02*
D03*
X937500Y464000D02*
D03*
Y518500D02*
D03*
Y573000D02*
D03*
Y1261500D02*
D03*
Y1316000D02*
D03*
Y1370500D02*
D03*
Y861500D02*
D03*
Y916000D02*
D03*
Y970500D02*
D03*
Y1659000D02*
D03*
Y1713500D02*
D03*
Y1768000D02*
D03*
D55*
X2377100Y152900D02*
D03*
X2427900D02*
D03*
Y102100D02*
D03*
X2377100D02*
D03*
X2259600Y152900D02*
D03*
X2310400D02*
D03*
Y102100D02*
D03*
X2259600D02*
D03*
X2142100Y152900D02*
D03*
X2192900D02*
D03*
Y102100D02*
D03*
X2142100D02*
D03*
X2024600Y152900D02*
D03*
X2075400D02*
D03*
Y102100D02*
D03*
X2024600D02*
D03*
D56*
X2402500Y127500D02*
D03*
X2285000D02*
D03*
X2167500D02*
D03*
X2050000D02*
D03*
D57*
X1112500Y691000D02*
D03*
X1387500D02*
D03*
X1330000Y1438500D02*
D03*
Y1163500D02*
D03*
Y826000D02*
D03*
Y1101000D02*
D03*
X1390000Y1571000D02*
D03*
X1115000D02*
D03*
D58*
X575000Y171000D02*
D03*
X482500D02*
D03*
X355000D02*
D03*
D59*
X2249500Y1405000D02*
D03*
Y1411000D02*
D03*
Y1399000D02*
D03*
X2255500D02*
D03*
Y1411000D02*
D03*
Y1405000D02*
D03*
X2178500Y816500D02*
D03*
Y810500D02*
D03*
Y822500D02*
D03*
X2172500D02*
D03*
Y810500D02*
D03*
Y816500D02*
D03*
D60*
X1090000Y1197261D02*
D03*
Y1064739D02*
D03*
D61*
X289600Y1011000D02*
D03*
X315000D02*
D03*
X340400D02*
D03*
X365800D02*
D03*
X289600Y1411000D02*
D03*
X315000D02*
D03*
X340400D02*
D03*
X365800D02*
D03*
X289600Y1811000D02*
D03*
X315000D02*
D03*
X340400D02*
D03*
X365800D02*
D03*
Y611000D02*
D03*
X340400D02*
D03*
X315000D02*
D03*
X289600D02*
D03*
X1882900Y295000D02*
D03*
X1857500D02*
D03*
X1832100D02*
D03*
X1806700D02*
D03*
D62*
X625000Y1054502D02*
D03*
X535000Y1018500D02*
D03*
X625000Y1454502D02*
D03*
X535000Y1418500D02*
D03*
X625000Y1854502D02*
D03*
X535000Y1818500D02*
D03*
Y618500D02*
D03*
X625000Y654502D02*
D03*
D63*
X190000Y170000D02*
D03*
D64*
Y265000D02*
D03*
D65*
X2700000Y1125400D02*
D03*
Y1100000D02*
D03*
X2573000Y1125400D02*
D03*
Y1100000D02*
D03*
X2700000Y1074600D02*
D03*
X2573000D02*
D03*
D67*
X1380000Y142500D02*
D03*
D68*
Y217500D02*
D03*
D130*
X1010500Y142500D02*
D03*
X1110500Y267500D02*
D03*
X1072500D02*
D03*
X972500Y142500D02*
D03*
M02*
