G04 #@! TF.GenerationSoftware,KiCad,Pcbnew,(5.1.7)-1*
G04 #@! TF.CreationDate,2021-02-02T18:25:37+02:00*
G04 #@! TF.ProjectId,CP_inverter,43505f69-6e76-4657-9274-65722e6b6963,rev?*
G04 #@! TF.SameCoordinates,Original*
G04 #@! TF.FileFunction,Soldermask,Top*
G04 #@! TF.FilePolarity,Negative*
%FSLAX46Y46*%
G04 Gerber Fmt 4.6, Leading zero omitted, Abs format (unit mm)*
G04 Created by KiCad (PCBNEW (5.1.7)-1) date 2021-02-02 18:25:37*
%MOMM*%
%LPD*%
G01*
G04 APERTURE LIST*
%ADD10C,3.000000*%
%ADD11C,2.400000*%
%ADD12R,2.500000X1.800000*%
%ADD13R,0.600000X0.700000*%
%ADD14R,1.600000X1.600000*%
%ADD15C,1.600000*%
%ADD16C,4.000000*%
%ADD17R,4.000000X4.000000*%
%ADD18R,0.700000X0.600000*%
%ADD19R,0.900000X1.200000*%
%ADD20C,3.200000*%
%ADD21R,3.000000X3.000000*%
%ADD22R,2.500000X3.300000*%
%ADD23R,3.300000X2.500000*%
%ADD24O,3.500000X3.500000*%
%ADD25R,2.000000X2.000000*%
%ADD26O,2.000000X2.000000*%
%ADD27C,3.500000*%
%ADD28O,1.700000X1.850000*%
%ADD29C,8.500000*%
%ADD30R,0.800000X0.900000*%
%ADD31R,2.200000X1.200000*%
%ADD32R,6.400000X5.800000*%
%ADD33C,2.000000*%
%ADD34R,2.000000X0.640000*%
%ADD35C,1.635000*%
%ADD36O,5.850000X2.925000*%
%ADD37O,2.670000X5.340000*%
%ADD38R,1.200000X2.200000*%
%ADD39R,5.800000X6.400000*%
%ADD40O,1.750000X2.250000*%
%ADD41R,1.750000X2.250000*%
%ADD42R,1.800000X2.500000*%
%ADD43O,2.500000X4.500000*%
%ADD44R,2.500000X4.500000*%
%ADD45O,3.600000X3.600000*%
%ADD46C,0.254000*%
%ADD47C,0.100000*%
G04 APERTURE END LIST*
D10*
G04 #@! TO.C,J1*
X370246800Y-214300000D03*
X370246800Y-210490000D03*
X357750000Y-214300000D03*
X357750000Y-210490000D03*
X370246800Y-204292400D03*
X370246800Y-200482400D03*
X357750000Y-204292400D03*
X357750000Y-200482400D03*
X370246800Y-194284800D03*
X370246800Y-190474800D03*
X357750000Y-194284800D03*
X357750000Y-190474800D03*
G04 #@! TD*
D11*
G04 #@! TO.C,F1*
X316000000Y-222500000D03*
X353000000Y-222500000D03*
G04 #@! TD*
G04 #@! TO.C,C33*
X215000000Y-165000000D03*
X215000000Y-137500000D03*
G04 #@! TD*
D12*
G04 #@! TO.C,D2*
X150500000Y-233500000D03*
X154500000Y-233500000D03*
G04 #@! TD*
G04 #@! TO.C,R17*
G36*
G01*
X109050002Y-208775000D02*
X108149998Y-208775000D01*
G75*
G02*
X107900000Y-208525002I0J249998D01*
G01*
X107900000Y-207999998D01*
G75*
G02*
X108149998Y-207750000I249998J0D01*
G01*
X109050002Y-207750000D01*
G75*
G02*
X109300000Y-207999998I0J-249998D01*
G01*
X109300000Y-208525002D01*
G75*
G02*
X109050002Y-208775000I-249998J0D01*
G01*
G37*
G36*
G01*
X109050002Y-206950000D02*
X108149998Y-206950000D01*
G75*
G02*
X107900000Y-206700002I0J249998D01*
G01*
X107900000Y-206174998D01*
G75*
G02*
X108149998Y-205925000I249998J0D01*
G01*
X109050002Y-205925000D01*
G75*
G02*
X109300000Y-206174998I0J-249998D01*
G01*
X109300000Y-206700002D01*
G75*
G02*
X109050002Y-206950000I-249998J0D01*
G01*
G37*
G04 #@! TD*
D13*
G04 #@! TO.C,D10*
X129400000Y-219850000D03*
X130800000Y-219850000D03*
G04 #@! TD*
G04 #@! TO.C,C1*
G36*
G01*
X124449999Y-219550000D02*
X125750001Y-219550000D01*
G75*
G02*
X126000000Y-219799999I0J-249999D01*
G01*
X126000000Y-220450001D01*
G75*
G02*
X125750001Y-220700000I-249999J0D01*
G01*
X124449999Y-220700000D01*
G75*
G02*
X124200000Y-220450001I0J249999D01*
G01*
X124200000Y-219799999D01*
G75*
G02*
X124449999Y-219550000I249999J0D01*
G01*
G37*
G36*
G01*
X124449999Y-222500000D02*
X125750001Y-222500000D01*
G75*
G02*
X126000000Y-222749999I0J-249999D01*
G01*
X126000000Y-223400001D01*
G75*
G02*
X125750001Y-223650000I-249999J0D01*
G01*
X124449999Y-223650000D01*
G75*
G02*
X124200000Y-223400001I0J249999D01*
G01*
X124200000Y-222749999D01*
G75*
G02*
X124449999Y-222500000I249999J0D01*
G01*
G37*
G04 #@! TD*
G04 #@! TO.C,C2*
G36*
G01*
X122625000Y-231550000D02*
X123575000Y-231550000D01*
G75*
G02*
X123825000Y-231800000I0J-250000D01*
G01*
X123825000Y-232300000D01*
G75*
G02*
X123575000Y-232550000I-250000J0D01*
G01*
X122625000Y-232550000D01*
G75*
G02*
X122375000Y-232300000I0J250000D01*
G01*
X122375000Y-231800000D01*
G75*
G02*
X122625000Y-231550000I250000J0D01*
G01*
G37*
G36*
G01*
X122625000Y-229650000D02*
X123575000Y-229650000D01*
G75*
G02*
X123825000Y-229900000I0J-250000D01*
G01*
X123825000Y-230400000D01*
G75*
G02*
X123575000Y-230650000I-250000J0D01*
G01*
X122625000Y-230650000D01*
G75*
G02*
X122375000Y-230400000I0J250000D01*
G01*
X122375000Y-229900000D01*
G75*
G02*
X122625000Y-229650000I250000J0D01*
G01*
G37*
G04 #@! TD*
G04 #@! TO.C,C3*
G36*
G01*
X100875000Y-229650000D02*
X101825000Y-229650000D01*
G75*
G02*
X102075000Y-229900000I0J-250000D01*
G01*
X102075000Y-230400000D01*
G75*
G02*
X101825000Y-230650000I-250000J0D01*
G01*
X100875000Y-230650000D01*
G75*
G02*
X100625000Y-230400000I0J250000D01*
G01*
X100625000Y-229900000D01*
G75*
G02*
X100875000Y-229650000I250000J0D01*
G01*
G37*
G36*
G01*
X100875000Y-231550000D02*
X101825000Y-231550000D01*
G75*
G02*
X102075000Y-231800000I0J-250000D01*
G01*
X102075000Y-232300000D01*
G75*
G02*
X101825000Y-232550000I-250000J0D01*
G01*
X100875000Y-232550000D01*
G75*
G02*
X100625000Y-232300000I0J250000D01*
G01*
X100625000Y-231800000D01*
G75*
G02*
X100875000Y-231550000I250000J0D01*
G01*
G37*
G04 #@! TD*
G04 #@! TO.C,C4*
G36*
G01*
X121449999Y-219550000D02*
X122750001Y-219550000D01*
G75*
G02*
X123000000Y-219799999I0J-249999D01*
G01*
X123000000Y-220450001D01*
G75*
G02*
X122750001Y-220700000I-249999J0D01*
G01*
X121449999Y-220700000D01*
G75*
G02*
X121200000Y-220450001I0J249999D01*
G01*
X121200000Y-219799999D01*
G75*
G02*
X121449999Y-219550000I249999J0D01*
G01*
G37*
G36*
G01*
X121449999Y-222500000D02*
X122750001Y-222500000D01*
G75*
G02*
X123000000Y-222749999I0J-249999D01*
G01*
X123000000Y-223400001D01*
G75*
G02*
X122750001Y-223650000I-249999J0D01*
G01*
X121449999Y-223650000D01*
G75*
G02*
X121200000Y-223400001I0J249999D01*
G01*
X121200000Y-222749999D01*
G75*
G02*
X121449999Y-222500000I249999J0D01*
G01*
G37*
G04 #@! TD*
G04 #@! TO.C,C5*
G36*
G01*
X112875000Y-219150000D02*
X113825000Y-219150000D01*
G75*
G02*
X114075000Y-219400000I0J-250000D01*
G01*
X114075000Y-219900000D01*
G75*
G02*
X113825000Y-220150000I-250000J0D01*
G01*
X112875000Y-220150000D01*
G75*
G02*
X112625000Y-219900000I0J250000D01*
G01*
X112625000Y-219400000D01*
G75*
G02*
X112875000Y-219150000I250000J0D01*
G01*
G37*
G36*
G01*
X112875000Y-221050000D02*
X113825000Y-221050000D01*
G75*
G02*
X114075000Y-221300000I0J-250000D01*
G01*
X114075000Y-221800000D01*
G75*
G02*
X113825000Y-222050000I-250000J0D01*
G01*
X112875000Y-222050000D01*
G75*
G02*
X112625000Y-221800000I0J250000D01*
G01*
X112625000Y-221300000D01*
G75*
G02*
X112875000Y-221050000I250000J0D01*
G01*
G37*
G04 #@! TD*
G04 #@! TO.C,C6*
G36*
G01*
X342912350Y-207125000D02*
X339587650Y-207125000D01*
G75*
G02*
X339400000Y-206937350I0J187650D01*
G01*
X339400000Y-205962650D01*
G75*
G02*
X339587650Y-205775000I187650J0D01*
G01*
X342912350Y-205775000D01*
G75*
G02*
X343100000Y-205962650I0J-187650D01*
G01*
X343100000Y-206937350D01*
G75*
G02*
X342912350Y-207125000I-187650J0D01*
G01*
G37*
G36*
G01*
X342912350Y-212225000D02*
X339587650Y-212225000D01*
G75*
G02*
X339400000Y-212037350I0J187650D01*
G01*
X339400000Y-211062650D01*
G75*
G02*
X339587650Y-210875000I187650J0D01*
G01*
X342912350Y-210875000D01*
G75*
G02*
X343100000Y-211062650I0J-187650D01*
G01*
X343100000Y-212037350D01*
G75*
G02*
X342912350Y-212225000I-187650J0D01*
G01*
G37*
G04 #@! TD*
G04 #@! TO.C,C7*
G36*
G01*
X342912350Y-194925000D02*
X339587650Y-194925000D01*
G75*
G02*
X339400000Y-194737350I0J187650D01*
G01*
X339400000Y-193762650D01*
G75*
G02*
X339587650Y-193575000I187650J0D01*
G01*
X342912350Y-193575000D01*
G75*
G02*
X343100000Y-193762650I0J-187650D01*
G01*
X343100000Y-194737350D01*
G75*
G02*
X342912350Y-194925000I-187650J0D01*
G01*
G37*
G36*
G01*
X342912350Y-200025000D02*
X339587650Y-200025000D01*
G75*
G02*
X339400000Y-199837350I0J187650D01*
G01*
X339400000Y-198862650D01*
G75*
G02*
X339587650Y-198675000I187650J0D01*
G01*
X342912350Y-198675000D01*
G75*
G02*
X343100000Y-198862650I0J-187650D01*
G01*
X343100000Y-199837350D01*
G75*
G02*
X342912350Y-200025000I-187650J0D01*
G01*
G37*
G04 #@! TD*
G04 #@! TO.C,C8*
G36*
G01*
X114075000Y-206900000D02*
X113125000Y-206900000D01*
G75*
G02*
X112875000Y-206650000I0J250000D01*
G01*
X112875000Y-206150000D01*
G75*
G02*
X113125000Y-205900000I250000J0D01*
G01*
X114075000Y-205900000D01*
G75*
G02*
X114325000Y-206150000I0J-250000D01*
G01*
X114325000Y-206650000D01*
G75*
G02*
X114075000Y-206900000I-250000J0D01*
G01*
G37*
G36*
G01*
X114075000Y-208800000D02*
X113125000Y-208800000D01*
G75*
G02*
X112875000Y-208550000I0J250000D01*
G01*
X112875000Y-208050000D01*
G75*
G02*
X113125000Y-207800000I250000J0D01*
G01*
X114075000Y-207800000D01*
G75*
G02*
X114325000Y-208050000I0J-250000D01*
G01*
X114325000Y-208550000D01*
G75*
G02*
X114075000Y-208800000I-250000J0D01*
G01*
G37*
G04 #@! TD*
D11*
G04 #@! TO.C,C9*
X315750000Y-214800000D03*
X315750000Y-192300000D03*
G04 #@! TD*
G04 #@! TO.C,C10*
G36*
G01*
X102375000Y-219150000D02*
X103325000Y-219150000D01*
G75*
G02*
X103575000Y-219400000I0J-250000D01*
G01*
X103575000Y-219900000D01*
G75*
G02*
X103325000Y-220150000I-250000J0D01*
G01*
X102375000Y-220150000D01*
G75*
G02*
X102125000Y-219900000I0J250000D01*
G01*
X102125000Y-219400000D01*
G75*
G02*
X102375000Y-219150000I250000J0D01*
G01*
G37*
G36*
G01*
X102375000Y-221050000D02*
X103325000Y-221050000D01*
G75*
G02*
X103575000Y-221300000I0J-250000D01*
G01*
X103575000Y-221800000D01*
G75*
G02*
X103325000Y-222050000I-250000J0D01*
G01*
X102375000Y-222050000D01*
G75*
G02*
X102125000Y-221800000I0J250000D01*
G01*
X102125000Y-221300000D01*
G75*
G02*
X102375000Y-221050000I250000J0D01*
G01*
G37*
G04 #@! TD*
G04 #@! TO.C,C11*
G36*
G01*
X109325000Y-222050000D02*
X108375000Y-222050000D01*
G75*
G02*
X108125000Y-221800000I0J250000D01*
G01*
X108125000Y-221300000D01*
G75*
G02*
X108375000Y-221050000I250000J0D01*
G01*
X109325000Y-221050000D01*
G75*
G02*
X109575000Y-221300000I0J-250000D01*
G01*
X109575000Y-221800000D01*
G75*
G02*
X109325000Y-222050000I-250000J0D01*
G01*
G37*
G36*
G01*
X109325000Y-220150000D02*
X108375000Y-220150000D01*
G75*
G02*
X108125000Y-219900000I0J250000D01*
G01*
X108125000Y-219400000D01*
G75*
G02*
X108375000Y-219150000I250000J0D01*
G01*
X109325000Y-219150000D01*
G75*
G02*
X109575000Y-219400000I0J-250000D01*
G01*
X109575000Y-219900000D01*
G75*
G02*
X109325000Y-220150000I-250000J0D01*
G01*
G37*
G04 #@! TD*
G04 #@! TO.C,C12*
G36*
G01*
X125699999Y-205300000D02*
X127000001Y-205300000D01*
G75*
G02*
X127250000Y-205549999I0J-249999D01*
G01*
X127250000Y-206200001D01*
G75*
G02*
X127000001Y-206450000I-249999J0D01*
G01*
X125699999Y-206450000D01*
G75*
G02*
X125450000Y-206200001I0J249999D01*
G01*
X125450000Y-205549999D01*
G75*
G02*
X125699999Y-205300000I249999J0D01*
G01*
G37*
G36*
G01*
X125699999Y-208250000D02*
X127000001Y-208250000D01*
G75*
G02*
X127250000Y-208499999I0J-249999D01*
G01*
X127250000Y-209150001D01*
G75*
G02*
X127000001Y-209400000I-249999J0D01*
G01*
X125699999Y-209400000D01*
G75*
G02*
X125450000Y-209150001I0J249999D01*
G01*
X125450000Y-208499999D01*
G75*
G02*
X125699999Y-208250000I249999J0D01*
G01*
G37*
G04 #@! TD*
G04 #@! TO.C,C13*
G36*
G01*
X111875000Y-229650000D02*
X112825000Y-229650000D01*
G75*
G02*
X113075000Y-229900000I0J-250000D01*
G01*
X113075000Y-230400000D01*
G75*
G02*
X112825000Y-230650000I-250000J0D01*
G01*
X111875000Y-230650000D01*
G75*
G02*
X111625000Y-230400000I0J250000D01*
G01*
X111625000Y-229900000D01*
G75*
G02*
X111875000Y-229650000I250000J0D01*
G01*
G37*
G36*
G01*
X111875000Y-231550000D02*
X112825000Y-231550000D01*
G75*
G02*
X113075000Y-231800000I0J-250000D01*
G01*
X113075000Y-232300000D01*
G75*
G02*
X112825000Y-232550000I-250000J0D01*
G01*
X111875000Y-232550000D01*
G75*
G02*
X111625000Y-232300000I0J250000D01*
G01*
X111625000Y-231800000D01*
G75*
G02*
X111875000Y-231550000I250000J0D01*
G01*
G37*
G04 #@! TD*
G04 #@! TO.C,C14*
G36*
G01*
X271162350Y-211725000D02*
X267837650Y-211725000D01*
G75*
G02*
X267650000Y-211537350I0J187650D01*
G01*
X267650000Y-210562650D01*
G75*
G02*
X267837650Y-210375000I187650J0D01*
G01*
X271162350Y-210375000D01*
G75*
G02*
X271350000Y-210562650I0J-187650D01*
G01*
X271350000Y-211537350D01*
G75*
G02*
X271162350Y-211725000I-187650J0D01*
G01*
G37*
G36*
G01*
X271162350Y-206625000D02*
X267837650Y-206625000D01*
G75*
G02*
X267650000Y-206437350I0J187650D01*
G01*
X267650000Y-205462650D01*
G75*
G02*
X267837650Y-205275000I187650J0D01*
G01*
X271162350Y-205275000D01*
G75*
G02*
X271350000Y-205462650I0J-187650D01*
G01*
X271350000Y-206437350D01*
G75*
G02*
X271162350Y-206625000I-187650J0D01*
G01*
G37*
G04 #@! TD*
G04 #@! TO.C,C15*
G36*
G01*
X271162350Y-201725000D02*
X267837650Y-201725000D01*
G75*
G02*
X267650000Y-201537350I0J187650D01*
G01*
X267650000Y-200562650D01*
G75*
G02*
X267837650Y-200375000I187650J0D01*
G01*
X271162350Y-200375000D01*
G75*
G02*
X271350000Y-200562650I0J-187650D01*
G01*
X271350000Y-201537350D01*
G75*
G02*
X271162350Y-201725000I-187650J0D01*
G01*
G37*
G36*
G01*
X271162350Y-196625000D02*
X267837650Y-196625000D01*
G75*
G02*
X267650000Y-196437350I0J187650D01*
G01*
X267650000Y-195462650D01*
G75*
G02*
X267837650Y-195275000I187650J0D01*
G01*
X271162350Y-195275000D01*
G75*
G02*
X271350000Y-195462650I0J-187650D01*
G01*
X271350000Y-196437350D01*
G75*
G02*
X271162350Y-196625000I-187650J0D01*
G01*
G37*
G04 #@! TD*
G04 #@! TO.C,C16*
G36*
G01*
X109075000Y-210400000D02*
X108125000Y-210400000D01*
G75*
G02*
X107875000Y-210150000I0J250000D01*
G01*
X107875000Y-209650000D01*
G75*
G02*
X108125000Y-209400000I250000J0D01*
G01*
X109075000Y-209400000D01*
G75*
G02*
X109325000Y-209650000I0J-250000D01*
G01*
X109325000Y-210150000D01*
G75*
G02*
X109075000Y-210400000I-250000J0D01*
G01*
G37*
G36*
G01*
X109075000Y-212300000D02*
X108125000Y-212300000D01*
G75*
G02*
X107875000Y-212050000I0J250000D01*
G01*
X107875000Y-211550000D01*
G75*
G02*
X108125000Y-211300000I250000J0D01*
G01*
X109075000Y-211300000D01*
G75*
G02*
X109325000Y-211550000I0J-250000D01*
G01*
X109325000Y-212050000D01*
G75*
G02*
X109075000Y-212300000I-250000J0D01*
G01*
G37*
G04 #@! TD*
G04 #@! TO.C,C17*
X259500000Y-215050000D03*
X259500000Y-192550000D03*
G04 #@! TD*
G04 #@! TO.C,C18*
G36*
G01*
X130800000Y-206325000D02*
X130800000Y-205375000D01*
G75*
G02*
X131050000Y-205125000I250000J0D01*
G01*
X131550000Y-205125000D01*
G75*
G02*
X131800000Y-205375000I0J-250000D01*
G01*
X131800000Y-206325000D01*
G75*
G02*
X131550000Y-206575000I-250000J0D01*
G01*
X131050000Y-206575000D01*
G75*
G02*
X130800000Y-206325000I0J250000D01*
G01*
G37*
G36*
G01*
X128900000Y-206325000D02*
X128900000Y-205375000D01*
G75*
G02*
X129150000Y-205125000I250000J0D01*
G01*
X129650000Y-205125000D01*
G75*
G02*
X129900000Y-205375000I0J-250000D01*
G01*
X129900000Y-206325000D01*
G75*
G02*
X129650000Y-206575000I-250000J0D01*
G01*
X129150000Y-206575000D01*
G75*
G02*
X128900000Y-206325000I0J250000D01*
G01*
G37*
G04 #@! TD*
G04 #@! TO.C,C19*
X218500000Y-192500000D03*
X218500000Y-215000000D03*
G04 #@! TD*
G04 #@! TO.C,C20*
G36*
G01*
X204600000Y-189849999D02*
X204600000Y-191150001D01*
G75*
G02*
X204350001Y-191400000I-249999J0D01*
G01*
X203699999Y-191400000D01*
G75*
G02*
X203450000Y-191150001I0J249999D01*
G01*
X203450000Y-189849999D01*
G75*
G02*
X203699999Y-189600000I249999J0D01*
G01*
X204350001Y-189600000D01*
G75*
G02*
X204600000Y-189849999I0J-249999D01*
G01*
G37*
G36*
G01*
X207550000Y-189849999D02*
X207550000Y-191150001D01*
G75*
G02*
X207300001Y-191400000I-249999J0D01*
G01*
X206649999Y-191400000D01*
G75*
G02*
X206400000Y-191150001I0J249999D01*
G01*
X206400000Y-189849999D01*
G75*
G02*
X206649999Y-189600000I249999J0D01*
G01*
X207300001Y-189600000D01*
G75*
G02*
X207550000Y-189849999I0J-249999D01*
G01*
G37*
G04 #@! TD*
G04 #@! TO.C,C21*
G36*
G01*
X130850000Y-223575000D02*
X130850000Y-222625000D01*
G75*
G02*
X131100000Y-222375000I250000J0D01*
G01*
X131600000Y-222375000D01*
G75*
G02*
X131850000Y-222625000I0J-250000D01*
G01*
X131850000Y-223575000D01*
G75*
G02*
X131600000Y-223825000I-250000J0D01*
G01*
X131100000Y-223825000D01*
G75*
G02*
X130850000Y-223575000I0J250000D01*
G01*
G37*
G36*
G01*
X128950000Y-223575000D02*
X128950000Y-222625000D01*
G75*
G02*
X129200000Y-222375000I250000J0D01*
G01*
X129700000Y-222375000D01*
G75*
G02*
X129950000Y-222625000I0J-250000D01*
G01*
X129950000Y-223575000D01*
G75*
G02*
X129700000Y-223825000I-250000J0D01*
G01*
X129200000Y-223825000D01*
G75*
G02*
X128950000Y-223575000I0J250000D01*
G01*
G37*
G04 #@! TD*
G04 #@! TO.C,C22*
G36*
G01*
X36587650Y-155225000D02*
X39912350Y-155225000D01*
G75*
G02*
X40100000Y-155412650I0J-187650D01*
G01*
X40100000Y-156387350D01*
G75*
G02*
X39912350Y-156575000I-187650J0D01*
G01*
X36587650Y-156575000D01*
G75*
G02*
X36400000Y-156387350I0J187650D01*
G01*
X36400000Y-155412650D01*
G75*
G02*
X36587650Y-155225000I187650J0D01*
G01*
G37*
G36*
G01*
X36587650Y-160325000D02*
X39912350Y-160325000D01*
G75*
G02*
X40100000Y-160512650I0J-187650D01*
G01*
X40100000Y-161487350D01*
G75*
G02*
X39912350Y-161675000I-187650J0D01*
G01*
X36587650Y-161675000D01*
G75*
G02*
X36400000Y-161487350I0J187650D01*
G01*
X36400000Y-160512650D01*
G75*
G02*
X36587650Y-160325000I187650J0D01*
G01*
G37*
G04 #@! TD*
D14*
G04 #@! TO.C,C23*
X69500000Y-222500000D03*
D15*
X69500000Y-220500000D03*
G04 #@! TD*
D14*
G04 #@! TO.C,C24*
X75500000Y-222500000D03*
D15*
X75500000Y-220500000D03*
G04 #@! TD*
G04 #@! TO.C,C25*
G36*
G01*
X77550000Y-211000001D02*
X77550000Y-209699999D01*
G75*
G02*
X77799999Y-209450000I249999J0D01*
G01*
X78450001Y-209450000D01*
G75*
G02*
X78700000Y-209699999I0J-249999D01*
G01*
X78700000Y-211000001D01*
G75*
G02*
X78450001Y-211250000I-249999J0D01*
G01*
X77799999Y-211250000D01*
G75*
G02*
X77550000Y-211000001I0J249999D01*
G01*
G37*
G36*
G01*
X74600000Y-211000001D02*
X74600000Y-209699999D01*
G75*
G02*
X74849999Y-209450000I249999J0D01*
G01*
X75500001Y-209450000D01*
G75*
G02*
X75750000Y-209699999I0J-249999D01*
G01*
X75750000Y-211000001D01*
G75*
G02*
X75500001Y-211250000I-249999J0D01*
G01*
X74849999Y-211250000D01*
G75*
G02*
X74600000Y-211000001I0J249999D01*
G01*
G37*
G04 #@! TD*
G04 #@! TO.C,C26*
G36*
G01*
X79725000Y-224200000D02*
X78775000Y-224200000D01*
G75*
G02*
X78525000Y-223950000I0J250000D01*
G01*
X78525000Y-223450000D01*
G75*
G02*
X78775000Y-223200000I250000J0D01*
G01*
X79725000Y-223200000D01*
G75*
G02*
X79975000Y-223450000I0J-250000D01*
G01*
X79975000Y-223950000D01*
G75*
G02*
X79725000Y-224200000I-250000J0D01*
G01*
G37*
G36*
G01*
X79725000Y-222300000D02*
X78775000Y-222300000D01*
G75*
G02*
X78525000Y-222050000I0J250000D01*
G01*
X78525000Y-221550000D01*
G75*
G02*
X78775000Y-221300000I250000J0D01*
G01*
X79725000Y-221300000D01*
G75*
G02*
X79975000Y-221550000I0J-250000D01*
G01*
X79975000Y-222050000D01*
G75*
G02*
X79725000Y-222300000I-250000J0D01*
G01*
G37*
G04 #@! TD*
D11*
G04 #@! TO.C,C27*
X85000000Y-96000000D03*
X85000000Y-123500000D03*
G04 #@! TD*
G04 #@! TO.C,C28*
X85000000Y-158000000D03*
X85000000Y-130500000D03*
G04 #@! TD*
G04 #@! TO.C,C29*
G36*
G01*
X87849999Y-223200000D02*
X89150001Y-223200000D01*
G75*
G02*
X89400000Y-223449999I0J-249999D01*
G01*
X89400000Y-224100001D01*
G75*
G02*
X89150001Y-224350000I-249999J0D01*
G01*
X87849999Y-224350000D01*
G75*
G02*
X87600000Y-224100001I0J249999D01*
G01*
X87600000Y-223449999D01*
G75*
G02*
X87849999Y-223200000I249999J0D01*
G01*
G37*
G36*
G01*
X87849999Y-226150000D02*
X89150001Y-226150000D01*
G75*
G02*
X89400000Y-226399999I0J-249999D01*
G01*
X89400000Y-227050001D01*
G75*
G02*
X89150001Y-227300000I-249999J0D01*
G01*
X87849999Y-227300000D01*
G75*
G02*
X87600000Y-227050001I0J249999D01*
G01*
X87600000Y-226399999D01*
G75*
G02*
X87849999Y-226150000I249999J0D01*
G01*
G37*
G04 #@! TD*
D14*
G04 #@! TO.C,C30*
X90750000Y-237500000D03*
D15*
X87250000Y-237500000D03*
G04 #@! TD*
G04 #@! TO.C,C31*
X72750000Y-205750000D03*
D14*
X70750000Y-205750000D03*
G04 #@! TD*
D11*
G04 #@! TO.C,C32*
X215000000Y-120500000D03*
X215000000Y-93000000D03*
G04 #@! TD*
G04 #@! TO.C,C34*
G36*
G01*
X72200000Y-210975000D02*
X72200000Y-210025000D01*
G75*
G02*
X72450000Y-209775000I250000J0D01*
G01*
X72950000Y-209775000D01*
G75*
G02*
X73200000Y-210025000I0J-250000D01*
G01*
X73200000Y-210975000D01*
G75*
G02*
X72950000Y-211225000I-250000J0D01*
G01*
X72450000Y-211225000D01*
G75*
G02*
X72200000Y-210975000I0J250000D01*
G01*
G37*
G36*
G01*
X70300000Y-210975000D02*
X70300000Y-210025000D01*
G75*
G02*
X70550000Y-209775000I250000J0D01*
G01*
X71050000Y-209775000D01*
G75*
G02*
X71300000Y-210025000I0J-250000D01*
G01*
X71300000Y-210975000D01*
G75*
G02*
X71050000Y-211225000I-250000J0D01*
G01*
X70550000Y-211225000D01*
G75*
G02*
X70300000Y-210975000I0J250000D01*
G01*
G37*
G04 #@! TD*
G04 #@! TO.C,C35*
X194000000Y-120500000D03*
X194000000Y-93000000D03*
G04 #@! TD*
G04 #@! TO.C,C36*
X194000000Y-137500000D03*
X194000000Y-165000000D03*
G04 #@! TD*
D16*
G04 #@! TO.C,C37*
X245250000Y-102750000D03*
D17*
X245250000Y-92750000D03*
G04 #@! TD*
G04 #@! TO.C,C38*
X285250000Y-92750000D03*
D16*
X285250000Y-102750000D03*
G04 #@! TD*
D14*
G04 #@! TO.C,C39*
X91500000Y-218750000D03*
D15*
X91500000Y-215250000D03*
G04 #@! TD*
G04 #@! TO.C,C40*
X91500000Y-206500000D03*
D14*
X91500000Y-210000000D03*
G04 #@! TD*
D16*
G04 #@! TO.C,C41*
X325250000Y-102750000D03*
D17*
X325250000Y-92750000D03*
G04 #@! TD*
G04 #@! TO.C,C42*
G36*
G01*
X75700000Y-199900001D02*
X75700000Y-198599999D01*
G75*
G02*
X75949999Y-198350000I249999J0D01*
G01*
X76600001Y-198350000D01*
G75*
G02*
X76850000Y-198599999I0J-249999D01*
G01*
X76850000Y-199900001D01*
G75*
G02*
X76600001Y-200150000I-249999J0D01*
G01*
X75949999Y-200150000D01*
G75*
G02*
X75700000Y-199900001I0J249999D01*
G01*
G37*
G36*
G01*
X78650000Y-199900001D02*
X78650000Y-198599999D01*
G75*
G02*
X78899999Y-198350000I249999J0D01*
G01*
X79550001Y-198350000D01*
G75*
G02*
X79800000Y-198599999I0J-249999D01*
G01*
X79800000Y-199900001D01*
G75*
G02*
X79550001Y-200150000I-249999J0D01*
G01*
X78899999Y-200150000D01*
G75*
G02*
X78650000Y-199900001I0J249999D01*
G01*
G37*
G04 #@! TD*
G04 #@! TO.C,C43*
G36*
G01*
X87150000Y-199900001D02*
X87150000Y-198599999D01*
G75*
G02*
X87399999Y-198350000I249999J0D01*
G01*
X88050001Y-198350000D01*
G75*
G02*
X88300000Y-198599999I0J-249999D01*
G01*
X88300000Y-199900001D01*
G75*
G02*
X88050001Y-200150000I-249999J0D01*
G01*
X87399999Y-200150000D01*
G75*
G02*
X87150000Y-199900001I0J249999D01*
G01*
G37*
G36*
G01*
X84200000Y-199900001D02*
X84200000Y-198599999D01*
G75*
G02*
X84449999Y-198350000I249999J0D01*
G01*
X85100001Y-198350000D01*
G75*
G02*
X85350000Y-198599999I0J-249999D01*
G01*
X85350000Y-199900001D01*
G75*
G02*
X85100001Y-200150000I-249999J0D01*
G01*
X84449999Y-200150000D01*
G75*
G02*
X84200000Y-199900001I0J249999D01*
G01*
G37*
G04 #@! TD*
G04 #@! TO.C,C44*
X245250000Y-155750000D03*
D16*
X245250000Y-145750000D03*
G04 #@! TD*
D17*
G04 #@! TO.C,C45*
X285250000Y-155750000D03*
D16*
X285250000Y-145750000D03*
G04 #@! TD*
G04 #@! TO.C,C46*
X325250000Y-145750000D03*
D17*
X325250000Y-155750000D03*
G04 #@! TD*
G04 #@! TO.C,C49*
G36*
G01*
X165350000Y-124849999D02*
X165350000Y-126150001D01*
G75*
G02*
X165100001Y-126400000I-249999J0D01*
G01*
X164449999Y-126400000D01*
G75*
G02*
X164200000Y-126150001I0J249999D01*
G01*
X164200000Y-124849999D01*
G75*
G02*
X164449999Y-124600000I249999J0D01*
G01*
X165100001Y-124600000D01*
G75*
G02*
X165350000Y-124849999I0J-249999D01*
G01*
G37*
G36*
G01*
X168300000Y-124849999D02*
X168300000Y-126150001D01*
G75*
G02*
X168050001Y-126400000I-249999J0D01*
G01*
X167399999Y-126400000D01*
G75*
G02*
X167150000Y-126150001I0J249999D01*
G01*
X167150000Y-124849999D01*
G75*
G02*
X167399999Y-124600000I249999J0D01*
G01*
X168050001Y-124600000D01*
G75*
G02*
X168300000Y-124849999I0J-249999D01*
G01*
G37*
G04 #@! TD*
G04 #@! TO.C,C50*
G36*
G01*
X164925000Y-129550000D02*
X165875000Y-129550000D01*
G75*
G02*
X166125000Y-129800000I0J-250000D01*
G01*
X166125000Y-130300000D01*
G75*
G02*
X165875000Y-130550000I-250000J0D01*
G01*
X164925000Y-130550000D01*
G75*
G02*
X164675000Y-130300000I0J250000D01*
G01*
X164675000Y-129800000D01*
G75*
G02*
X164925000Y-129550000I250000J0D01*
G01*
G37*
G36*
G01*
X164925000Y-131450000D02*
X165875000Y-131450000D01*
G75*
G02*
X166125000Y-131700000I0J-250000D01*
G01*
X166125000Y-132200000D01*
G75*
G02*
X165875000Y-132450000I-250000J0D01*
G01*
X164925000Y-132450000D01*
G75*
G02*
X164675000Y-132200000I0J250000D01*
G01*
X164675000Y-131700000D01*
G75*
G02*
X164925000Y-131450000I250000J0D01*
G01*
G37*
G04 #@! TD*
G04 #@! TO.C,C55*
G36*
G01*
X383837650Y-191875000D02*
X387162350Y-191875000D01*
G75*
G02*
X387350000Y-192062650I0J-187650D01*
G01*
X387350000Y-193037350D01*
G75*
G02*
X387162350Y-193225000I-187650J0D01*
G01*
X383837650Y-193225000D01*
G75*
G02*
X383650000Y-193037350I0J187650D01*
G01*
X383650000Y-192062650D01*
G75*
G02*
X383837650Y-191875000I187650J0D01*
G01*
G37*
G36*
G01*
X383837650Y-186775000D02*
X387162350Y-186775000D01*
G75*
G02*
X387350000Y-186962650I0J-187650D01*
G01*
X387350000Y-187937350D01*
G75*
G02*
X387162350Y-188125000I-187650J0D01*
G01*
X383837650Y-188125000D01*
G75*
G02*
X383650000Y-187937350I0J187650D01*
G01*
X383650000Y-186962650D01*
G75*
G02*
X383837650Y-186775000I187650J0D01*
G01*
G37*
G04 #@! TD*
G04 #@! TO.C,C56*
G36*
G01*
X176849999Y-130950000D02*
X178150001Y-130950000D01*
G75*
G02*
X178400000Y-131199999I0J-249999D01*
G01*
X178400000Y-131850001D01*
G75*
G02*
X178150001Y-132100000I-249999J0D01*
G01*
X176849999Y-132100000D01*
G75*
G02*
X176600000Y-131850001I0J249999D01*
G01*
X176600000Y-131199999D01*
G75*
G02*
X176849999Y-130950000I249999J0D01*
G01*
G37*
G36*
G01*
X176849999Y-133900000D02*
X178150001Y-133900000D01*
G75*
G02*
X178400000Y-134149999I0J-249999D01*
G01*
X178400000Y-134800001D01*
G75*
G02*
X178150001Y-135050000I-249999J0D01*
G01*
X176849999Y-135050000D01*
G75*
G02*
X176600000Y-134800001I0J249999D01*
G01*
X176600000Y-134149999D01*
G75*
G02*
X176849999Y-133900000I249999J0D01*
G01*
G37*
G04 #@! TD*
G04 #@! TO.C,C57*
G36*
G01*
X176849999Y-126425000D02*
X178150001Y-126425000D01*
G75*
G02*
X178400000Y-126674999I0J-249999D01*
G01*
X178400000Y-127325001D01*
G75*
G02*
X178150001Y-127575000I-249999J0D01*
G01*
X176849999Y-127575000D01*
G75*
G02*
X176600000Y-127325001I0J249999D01*
G01*
X176600000Y-126674999D01*
G75*
G02*
X176849999Y-126425000I249999J0D01*
G01*
G37*
G36*
G01*
X176849999Y-123475000D02*
X178150001Y-123475000D01*
G75*
G02*
X178400000Y-123724999I0J-249999D01*
G01*
X178400000Y-124375001D01*
G75*
G02*
X178150001Y-124625000I-249999J0D01*
G01*
X176849999Y-124625000D01*
G75*
G02*
X176600000Y-124375001I0J249999D01*
G01*
X176600000Y-123724999D01*
G75*
G02*
X176849999Y-123475000I249999J0D01*
G01*
G37*
G04 #@! TD*
D18*
G04 #@! TO.C,D1*
X134000000Y-226000000D03*
X134000000Y-224600000D03*
G04 #@! TD*
G04 #@! TO.C,D4*
X121100000Y-231550000D03*
X121100000Y-230150000D03*
G04 #@! TD*
G04 #@! TO.C,D5*
X99350000Y-230150000D03*
X99350000Y-231550000D03*
G04 #@! TD*
G04 #@! TO.C,D6*
X110350000Y-230150000D03*
X110350000Y-231550000D03*
G04 #@! TD*
D13*
G04 #@! TO.C,D8*
X130800000Y-209100000D03*
X129400000Y-209100000D03*
G04 #@! TD*
D19*
G04 #@! TO.C,D9*
X207150000Y-193500000D03*
X203850000Y-193500000D03*
G04 #@! TD*
D20*
G04 #@! TO.C,D11*
X58000000Y-97000000D03*
D21*
X70000000Y-83000000D03*
D10*
X60000000Y-83000000D03*
X52500000Y-83000000D03*
X45000000Y-83000000D03*
G04 #@! TD*
G04 #@! TO.C,D12*
X45000000Y-153000000D03*
X52500000Y-153000000D03*
X60000000Y-153000000D03*
D21*
X70000000Y-153000000D03*
D20*
X58000000Y-167000000D03*
G04 #@! TD*
D22*
G04 #@! TO.C,D13*
X68600000Y-230000000D03*
X75400000Y-230000000D03*
G04 #@! TD*
D19*
G04 #@! TO.C,D14*
X86000000Y-227000000D03*
X82700000Y-227000000D03*
G04 #@! TD*
D23*
G04 #@! TO.C,D15*
X221000000Y-77600000D03*
X221000000Y-84400000D03*
G04 #@! TD*
G04 #@! TO.C,D17*
X221000000Y-173600000D03*
X221000000Y-180400000D03*
G04 #@! TD*
D24*
G04 #@! TO.C,D18*
X211660000Y-176540000D03*
D25*
X195000000Y-174000000D03*
D26*
X195000000Y-179080000D03*
G04 #@! TD*
G04 #@! TO.C,D20*
G36*
G01*
X95456250Y-238425000D02*
X94543750Y-238425000D01*
G75*
G02*
X94300000Y-238181250I0J243750D01*
G01*
X94300000Y-237693750D01*
G75*
G02*
X94543750Y-237450000I243750J0D01*
G01*
X95456250Y-237450000D01*
G75*
G02*
X95700000Y-237693750I0J-243750D01*
G01*
X95700000Y-238181250D01*
G75*
G02*
X95456250Y-238425000I-243750J0D01*
G01*
G37*
G36*
G01*
X95456250Y-236550000D02*
X94543750Y-236550000D01*
G75*
G02*
X94300000Y-236306250I0J243750D01*
G01*
X94300000Y-235818750D01*
G75*
G02*
X94543750Y-235575000I243750J0D01*
G01*
X95456250Y-235575000D01*
G75*
G02*
X95700000Y-235818750I0J-243750D01*
G01*
X95700000Y-236306250D01*
G75*
G02*
X95456250Y-236550000I-243750J0D01*
G01*
G37*
G04 #@! TD*
G04 #@! TO.C,D21*
G36*
G01*
X63043750Y-204950000D02*
X63956250Y-204950000D01*
G75*
G02*
X64200000Y-205193750I0J-243750D01*
G01*
X64200000Y-205681250D01*
G75*
G02*
X63956250Y-205925000I-243750J0D01*
G01*
X63043750Y-205925000D01*
G75*
G02*
X62800000Y-205681250I0J243750D01*
G01*
X62800000Y-205193750D01*
G75*
G02*
X63043750Y-204950000I243750J0D01*
G01*
G37*
G36*
G01*
X63043750Y-203075000D02*
X63956250Y-203075000D01*
G75*
G02*
X64200000Y-203318750I0J-243750D01*
G01*
X64200000Y-203806250D01*
G75*
G02*
X63956250Y-204050000I-243750J0D01*
G01*
X63043750Y-204050000D01*
G75*
G02*
X62800000Y-203806250I0J243750D01*
G01*
X62800000Y-203318750D01*
G75*
G02*
X63043750Y-203075000I243750J0D01*
G01*
G37*
G04 #@! TD*
D12*
G04 #@! TO.C,D22*
X76250000Y-202750000D03*
X80250000Y-202750000D03*
G04 #@! TD*
G04 #@! TO.C,D23*
X87750000Y-202750000D03*
X83750000Y-202750000D03*
G04 #@! TD*
G04 #@! TO.C,F2*
G36*
G01*
X79024999Y-233450000D02*
X83975001Y-233450000D01*
G75*
G02*
X84225000Y-233699999I0J-249999D01*
G01*
X84225000Y-235125001D01*
G75*
G02*
X83975001Y-235375000I-249999J0D01*
G01*
X79024999Y-235375000D01*
G75*
G02*
X78775000Y-235125001I0J249999D01*
G01*
X78775000Y-233699999D01*
G75*
G02*
X79024999Y-233450000I249999J0D01*
G01*
G37*
G36*
G01*
X79024999Y-240225000D02*
X83975001Y-240225000D01*
G75*
G02*
X84225000Y-240474999I0J-249999D01*
G01*
X84225000Y-241900001D01*
G75*
G02*
X83975001Y-242150000I-249999J0D01*
G01*
X79024999Y-242150000D01*
G75*
G02*
X78775000Y-241900001I0J249999D01*
G01*
X78775000Y-240474999D01*
G75*
G02*
X79024999Y-240225000I249999J0D01*
G01*
G37*
G04 #@! TD*
D27*
G04 #@! TO.C,FL1*
X298000000Y-209000000D03*
X277000000Y-209000000D03*
X298000000Y-214000000D03*
X298000000Y-219000000D03*
X277000000Y-219000000D03*
X277000000Y-214000000D03*
X298000000Y-189000000D03*
X298000000Y-199000000D03*
X298000000Y-194000000D03*
X277000000Y-194000000D03*
X277000000Y-189000000D03*
X277000000Y-199000000D03*
D11*
X288000000Y-186800000D03*
X288000000Y-219800000D03*
G04 #@! TD*
D27*
G04 #@! TO.C,FL2*
X248750000Y-208800000D03*
X229750000Y-208800000D03*
X229750000Y-197800000D03*
X248750000Y-197800000D03*
G04 #@! TD*
G04 #@! TO.C,GD1*
G36*
G01*
X348549999Y-206000000D02*
X351450001Y-206000000D01*
G75*
G02*
X351700000Y-206249999I0J-249999D01*
G01*
X351700000Y-207150001D01*
G75*
G02*
X351450001Y-207400000I-249999J0D01*
G01*
X348549999Y-207400000D01*
G75*
G02*
X348300000Y-207150001I0J249999D01*
G01*
X348300000Y-206249999D01*
G75*
G02*
X348549999Y-206000000I249999J0D01*
G01*
G37*
G36*
G01*
X348550600Y-210100000D02*
X351449400Y-210100000D01*
G75*
G02*
X351700000Y-210350600I0J-250600D01*
G01*
X351700000Y-211249400D01*
G75*
G02*
X351449400Y-211500000I-250600J0D01*
G01*
X348550600Y-211500000D01*
G75*
G02*
X348300000Y-211249400I0J250600D01*
G01*
X348300000Y-210350600D01*
G75*
G02*
X348550600Y-210100000I250600J0D01*
G01*
G37*
G04 #@! TD*
G04 #@! TO.C,GD2*
G36*
G01*
X348550600Y-198600000D02*
X351449400Y-198600000D01*
G75*
G02*
X351700000Y-198850600I0J-250600D01*
G01*
X351700000Y-199749400D01*
G75*
G02*
X351449400Y-200000000I-250600J0D01*
G01*
X348550600Y-200000000D01*
G75*
G02*
X348300000Y-199749400I0J250600D01*
G01*
X348300000Y-198850600D01*
G75*
G02*
X348550600Y-198600000I250600J0D01*
G01*
G37*
G36*
G01*
X348549999Y-194500000D02*
X351450001Y-194500000D01*
G75*
G02*
X351700000Y-194749999I0J-249999D01*
G01*
X351700000Y-195650001D01*
G75*
G02*
X351450001Y-195900000I-249999J0D01*
G01*
X348549999Y-195900000D01*
G75*
G02*
X348300000Y-195650001I0J249999D01*
G01*
X348300000Y-194749999D01*
G75*
G02*
X348549999Y-194500000I249999J0D01*
G01*
G37*
G04 #@! TD*
G04 #@! TO.C,J5*
G36*
G01*
X67150000Y-236275000D02*
X67150000Y-234925000D01*
G75*
G02*
X67400000Y-234675000I250000J0D01*
G01*
X68600000Y-234675000D01*
G75*
G02*
X68850000Y-234925000I0J-250000D01*
G01*
X68850000Y-236275000D01*
G75*
G02*
X68600000Y-236525000I-250000J0D01*
G01*
X67400000Y-236525000D01*
G75*
G02*
X67150000Y-236275000I0J250000D01*
G01*
G37*
D28*
X70500000Y-235600000D03*
X73000000Y-235600000D03*
X75500000Y-235600000D03*
G04 #@! TD*
D10*
G04 #@! TO.C,J6*
X371250000Y-130750000D03*
X358750000Y-120750000D03*
X371250000Y-126950000D03*
X358750000Y-116950000D03*
G04 #@! TD*
G04 #@! TO.C,L1*
G36*
G01*
X82825000Y-213275000D02*
X80675000Y-213275000D01*
G75*
G02*
X80425000Y-213025000I0J250000D01*
G01*
X80425000Y-212275000D01*
G75*
G02*
X80675000Y-212025000I250000J0D01*
G01*
X82825000Y-212025000D01*
G75*
G02*
X83075000Y-212275000I0J-250000D01*
G01*
X83075000Y-213025000D01*
G75*
G02*
X82825000Y-213275000I-250000J0D01*
G01*
G37*
G36*
G01*
X82825000Y-210475000D02*
X80675000Y-210475000D01*
G75*
G02*
X80425000Y-210225000I0J250000D01*
G01*
X80425000Y-209475000D01*
G75*
G02*
X80675000Y-209225000I250000J0D01*
G01*
X82825000Y-209225000D01*
G75*
G02*
X83075000Y-209475000I0J-250000D01*
G01*
X83075000Y-210225000D01*
G75*
G02*
X82825000Y-210475000I-250000J0D01*
G01*
G37*
G04 #@! TD*
D29*
G04 #@! TO.C,L2*
X129000000Y-72000000D03*
X129000000Y-120000000D03*
G04 #@! TD*
G04 #@! TO.C,L3*
X129000000Y-134000000D03*
X129000000Y-182000000D03*
G04 #@! TD*
D30*
G04 #@! TO.C,Q1*
X177300000Y-205500000D03*
X179200000Y-205500000D03*
X178250000Y-203500000D03*
G04 #@! TD*
G04 #@! TO.C,R1*
G36*
G01*
X150000000Y-222225002D02*
X150000000Y-220974998D01*
G75*
G02*
X150249998Y-220725000I249998J0D01*
G01*
X150875002Y-220725000D01*
G75*
G02*
X151125000Y-220974998I0J-249998D01*
G01*
X151125000Y-222225002D01*
G75*
G02*
X150875002Y-222475000I-249998J0D01*
G01*
X150249998Y-222475000D01*
G75*
G02*
X150000000Y-222225002I0J249998D01*
G01*
G37*
G36*
G01*
X147075000Y-222225002D02*
X147075000Y-220974998D01*
G75*
G02*
X147324998Y-220725000I249998J0D01*
G01*
X147950002Y-220725000D01*
G75*
G02*
X148200000Y-220974998I0J-249998D01*
G01*
X148200000Y-222225002D01*
G75*
G02*
X147950002Y-222475000I-249998J0D01*
G01*
X147324998Y-222475000D01*
G75*
G02*
X147075000Y-222225002I0J249998D01*
G01*
G37*
G04 #@! TD*
G04 #@! TO.C,R2*
G36*
G01*
X141825000Y-222225002D02*
X141825000Y-220974998D01*
G75*
G02*
X142074998Y-220725000I249998J0D01*
G01*
X142700002Y-220725000D01*
G75*
G02*
X142950000Y-220974998I0J-249998D01*
G01*
X142950000Y-222225002D01*
G75*
G02*
X142700002Y-222475000I-249998J0D01*
G01*
X142074998Y-222475000D01*
G75*
G02*
X141825000Y-222225002I0J249998D01*
G01*
G37*
G36*
G01*
X144750000Y-222225002D02*
X144750000Y-220974998D01*
G75*
G02*
X144999998Y-220725000I249998J0D01*
G01*
X145625002Y-220725000D01*
G75*
G02*
X145875000Y-220974998I0J-249998D01*
G01*
X145875000Y-222225002D01*
G75*
G02*
X145625002Y-222475000I-249998J0D01*
G01*
X144999998Y-222475000D01*
G75*
G02*
X144750000Y-222225002I0J249998D01*
G01*
G37*
G04 #@! TD*
G04 #@! TO.C,R3*
G36*
G01*
X136575000Y-222225002D02*
X136575000Y-220974998D01*
G75*
G02*
X136824998Y-220725000I249998J0D01*
G01*
X137450002Y-220725000D01*
G75*
G02*
X137700000Y-220974998I0J-249998D01*
G01*
X137700000Y-222225002D01*
G75*
G02*
X137450002Y-222475000I-249998J0D01*
G01*
X136824998Y-222475000D01*
G75*
G02*
X136575000Y-222225002I0J249998D01*
G01*
G37*
G36*
G01*
X139500000Y-222225002D02*
X139500000Y-220974998D01*
G75*
G02*
X139749998Y-220725000I249998J0D01*
G01*
X140375002Y-220725000D01*
G75*
G02*
X140625000Y-220974998I0J-249998D01*
G01*
X140625000Y-222225002D01*
G75*
G02*
X140375002Y-222475000I-249998J0D01*
G01*
X139749998Y-222475000D01*
G75*
G02*
X139500000Y-222225002I0J249998D01*
G01*
G37*
G04 #@! TD*
G04 #@! TO.C,R5*
G36*
G01*
X126050002Y-230700000D02*
X125149998Y-230700000D01*
G75*
G02*
X124900000Y-230450002I0J249998D01*
G01*
X124900000Y-229924998D01*
G75*
G02*
X125149998Y-229675000I249998J0D01*
G01*
X126050002Y-229675000D01*
G75*
G02*
X126300000Y-229924998I0J-249998D01*
G01*
X126300000Y-230450002D01*
G75*
G02*
X126050002Y-230700000I-249998J0D01*
G01*
G37*
G36*
G01*
X126050002Y-232525000D02*
X125149998Y-232525000D01*
G75*
G02*
X124900000Y-232275002I0J249998D01*
G01*
X124900000Y-231749998D01*
G75*
G02*
X125149998Y-231500000I249998J0D01*
G01*
X126050002Y-231500000D01*
G75*
G02*
X126300000Y-231749998I0J-249998D01*
G01*
X126300000Y-232275002D01*
G75*
G02*
X126050002Y-232525000I-249998J0D01*
G01*
G37*
G04 #@! TD*
G04 #@! TO.C,R6*
G36*
G01*
X104300002Y-232525000D02*
X103399998Y-232525000D01*
G75*
G02*
X103150000Y-232275002I0J249998D01*
G01*
X103150000Y-231749998D01*
G75*
G02*
X103399998Y-231500000I249998J0D01*
G01*
X104300002Y-231500000D01*
G75*
G02*
X104550000Y-231749998I0J-249998D01*
G01*
X104550000Y-232275002D01*
G75*
G02*
X104300002Y-232525000I-249998J0D01*
G01*
G37*
G36*
G01*
X104300002Y-230700000D02*
X103399998Y-230700000D01*
G75*
G02*
X103150000Y-230450002I0J249998D01*
G01*
X103150000Y-229924998D01*
G75*
G02*
X103399998Y-229675000I249998J0D01*
G01*
X104300002Y-229675000D01*
G75*
G02*
X104550000Y-229924998I0J-249998D01*
G01*
X104550000Y-230450002D01*
G75*
G02*
X104300002Y-230700000I-249998J0D01*
G01*
G37*
G04 #@! TD*
G04 #@! TO.C,R7*
G36*
G01*
X116899998Y-221000000D02*
X117800002Y-221000000D01*
G75*
G02*
X118050000Y-221249998I0J-249998D01*
G01*
X118050000Y-221775002D01*
G75*
G02*
X117800002Y-222025000I-249998J0D01*
G01*
X116899998Y-222025000D01*
G75*
G02*
X116650000Y-221775002I0J249998D01*
G01*
X116650000Y-221249998D01*
G75*
G02*
X116899998Y-221000000I249998J0D01*
G01*
G37*
G36*
G01*
X116899998Y-219175000D02*
X117800002Y-219175000D01*
G75*
G02*
X118050000Y-219424998I0J-249998D01*
G01*
X118050000Y-219950002D01*
G75*
G02*
X117800002Y-220200000I-249998J0D01*
G01*
X116899998Y-220200000D01*
G75*
G02*
X116650000Y-219950002I0J249998D01*
G01*
X116650000Y-219424998D01*
G75*
G02*
X116899998Y-219175000I249998J0D01*
G01*
G37*
G04 #@! TD*
G04 #@! TO.C,R8*
G36*
G01*
X115800002Y-222025000D02*
X114899998Y-222025000D01*
G75*
G02*
X114650000Y-221775002I0J249998D01*
G01*
X114650000Y-221249998D01*
G75*
G02*
X114899998Y-221000000I249998J0D01*
G01*
X115800002Y-221000000D01*
G75*
G02*
X116050000Y-221249998I0J-249998D01*
G01*
X116050000Y-221775002D01*
G75*
G02*
X115800002Y-222025000I-249998J0D01*
G01*
G37*
G36*
G01*
X115800002Y-220200000D02*
X114899998Y-220200000D01*
G75*
G02*
X114650000Y-219950002I0J249998D01*
G01*
X114650000Y-219424998D01*
G75*
G02*
X114899998Y-219175000I249998J0D01*
G01*
X115800002Y-219175000D01*
G75*
G02*
X116050000Y-219424998I0J-249998D01*
G01*
X116050000Y-219950002D01*
G75*
G02*
X115800002Y-220200000I-249998J0D01*
G01*
G37*
G04 #@! TD*
G04 #@! TO.C,R9*
G36*
G01*
X118050002Y-206950000D02*
X117149998Y-206950000D01*
G75*
G02*
X116900000Y-206700002I0J249998D01*
G01*
X116900000Y-206174998D01*
G75*
G02*
X117149998Y-205925000I249998J0D01*
G01*
X118050002Y-205925000D01*
G75*
G02*
X118300000Y-206174998I0J-249998D01*
G01*
X118300000Y-206700002D01*
G75*
G02*
X118050002Y-206950000I-249998J0D01*
G01*
G37*
G36*
G01*
X118050002Y-208775000D02*
X117149998Y-208775000D01*
G75*
G02*
X116900000Y-208525002I0J249998D01*
G01*
X116900000Y-207999998D01*
G75*
G02*
X117149998Y-207750000I249998J0D01*
G01*
X118050002Y-207750000D01*
G75*
G02*
X118300000Y-207999998I0J-249998D01*
G01*
X118300000Y-208525002D01*
G75*
G02*
X118050002Y-208775000I-249998J0D01*
G01*
G37*
G04 #@! TD*
G04 #@! TO.C,R10*
G36*
G01*
X115149998Y-205925000D02*
X116050002Y-205925000D01*
G75*
G02*
X116300000Y-206174998I0J-249998D01*
G01*
X116300000Y-206700002D01*
G75*
G02*
X116050002Y-206950000I-249998J0D01*
G01*
X115149998Y-206950000D01*
G75*
G02*
X114900000Y-206700002I0J249998D01*
G01*
X114900000Y-206174998D01*
G75*
G02*
X115149998Y-205925000I249998J0D01*
G01*
G37*
G36*
G01*
X115149998Y-207750000D02*
X116050002Y-207750000D01*
G75*
G02*
X116300000Y-207999998I0J-249998D01*
G01*
X116300000Y-208525002D01*
G75*
G02*
X116050002Y-208775000I-249998J0D01*
G01*
X115149998Y-208775000D01*
G75*
G02*
X114900000Y-208525002I0J249998D01*
G01*
X114900000Y-207999998D01*
G75*
G02*
X115149998Y-207750000I249998J0D01*
G01*
G37*
G04 #@! TD*
G04 #@! TO.C,R11*
G36*
G01*
X107300002Y-220200000D02*
X106399998Y-220200000D01*
G75*
G02*
X106150000Y-219950002I0J249998D01*
G01*
X106150000Y-219424998D01*
G75*
G02*
X106399998Y-219175000I249998J0D01*
G01*
X107300002Y-219175000D01*
G75*
G02*
X107550000Y-219424998I0J-249998D01*
G01*
X107550000Y-219950002D01*
G75*
G02*
X107300002Y-220200000I-249998J0D01*
G01*
G37*
G36*
G01*
X107300002Y-222025000D02*
X106399998Y-222025000D01*
G75*
G02*
X106150000Y-221775002I0J249998D01*
G01*
X106150000Y-221249998D01*
G75*
G02*
X106399998Y-221000000I249998J0D01*
G01*
X107300002Y-221000000D01*
G75*
G02*
X107550000Y-221249998I0J-249998D01*
G01*
X107550000Y-221775002D01*
G75*
G02*
X107300002Y-222025000I-249998J0D01*
G01*
G37*
G04 #@! TD*
G04 #@! TO.C,R12*
G36*
G01*
X105300002Y-220200000D02*
X104399998Y-220200000D01*
G75*
G02*
X104150000Y-219950002I0J249998D01*
G01*
X104150000Y-219424998D01*
G75*
G02*
X104399998Y-219175000I249998J0D01*
G01*
X105300002Y-219175000D01*
G75*
G02*
X105550000Y-219424998I0J-249998D01*
G01*
X105550000Y-219950002D01*
G75*
G02*
X105300002Y-220200000I-249998J0D01*
G01*
G37*
G36*
G01*
X105300002Y-222025000D02*
X104399998Y-222025000D01*
G75*
G02*
X104150000Y-221775002I0J249998D01*
G01*
X104150000Y-221249998D01*
G75*
G02*
X104399998Y-221000000I249998J0D01*
G01*
X105300002Y-221000000D01*
G75*
G02*
X105550000Y-221249998I0J-249998D01*
G01*
X105550000Y-221775002D01*
G75*
G02*
X105300002Y-222025000I-249998J0D01*
G01*
G37*
G04 #@! TD*
G04 #@! TO.C,R13*
G36*
G01*
X383624998Y-219975000D02*
X384875002Y-219975000D01*
G75*
G02*
X385125000Y-220224998I0J-249998D01*
G01*
X385125000Y-220850002D01*
G75*
G02*
X384875002Y-221100000I-249998J0D01*
G01*
X383624998Y-221100000D01*
G75*
G02*
X383375000Y-220850002I0J249998D01*
G01*
X383375000Y-220224998D01*
G75*
G02*
X383624998Y-219975000I249998J0D01*
G01*
G37*
G36*
G01*
X383624998Y-222900000D02*
X384875002Y-222900000D01*
G75*
G02*
X385125000Y-223149998I0J-249998D01*
G01*
X385125000Y-223775002D01*
G75*
G02*
X384875002Y-224025000I-249998J0D01*
G01*
X383624998Y-224025000D01*
G75*
G02*
X383375000Y-223775002I0J249998D01*
G01*
X383375000Y-223149998D01*
G75*
G02*
X383624998Y-222900000I249998J0D01*
G01*
G37*
G04 #@! TD*
G04 #@! TO.C,R14*
G36*
G01*
X383624998Y-217450000D02*
X384875002Y-217450000D01*
G75*
G02*
X385125000Y-217699998I0J-249998D01*
G01*
X385125000Y-218325002D01*
G75*
G02*
X384875002Y-218575000I-249998J0D01*
G01*
X383624998Y-218575000D01*
G75*
G02*
X383375000Y-218325002I0J249998D01*
G01*
X383375000Y-217699998D01*
G75*
G02*
X383624998Y-217450000I249998J0D01*
G01*
G37*
G36*
G01*
X383624998Y-214525000D02*
X384875002Y-214525000D01*
G75*
G02*
X385125000Y-214774998I0J-249998D01*
G01*
X385125000Y-215400002D01*
G75*
G02*
X384875002Y-215650000I-249998J0D01*
G01*
X383624998Y-215650000D01*
G75*
G02*
X383375000Y-215400002I0J249998D01*
G01*
X383375000Y-214774998D01*
G75*
G02*
X383624998Y-214525000I249998J0D01*
G01*
G37*
G04 #@! TD*
G04 #@! TO.C,R15*
G36*
G01*
X383624998Y-209475000D02*
X384875002Y-209475000D01*
G75*
G02*
X385125000Y-209724998I0J-249998D01*
G01*
X385125000Y-210350002D01*
G75*
G02*
X384875002Y-210600000I-249998J0D01*
G01*
X383624998Y-210600000D01*
G75*
G02*
X383375000Y-210350002I0J249998D01*
G01*
X383375000Y-209724998D01*
G75*
G02*
X383624998Y-209475000I249998J0D01*
G01*
G37*
G36*
G01*
X383624998Y-212400000D02*
X384875002Y-212400000D01*
G75*
G02*
X385125000Y-212649998I0J-249998D01*
G01*
X385125000Y-213275002D01*
G75*
G02*
X384875002Y-213525000I-249998J0D01*
G01*
X383624998Y-213525000D01*
G75*
G02*
X383375000Y-213275002I0J249998D01*
G01*
X383375000Y-212649998D01*
G75*
G02*
X383624998Y-212400000I249998J0D01*
G01*
G37*
G04 #@! TD*
G04 #@! TO.C,R16*
G36*
G01*
X115300002Y-230700000D02*
X114399998Y-230700000D01*
G75*
G02*
X114150000Y-230450002I0J249998D01*
G01*
X114150000Y-229924998D01*
G75*
G02*
X114399998Y-229675000I249998J0D01*
G01*
X115300002Y-229675000D01*
G75*
G02*
X115550000Y-229924998I0J-249998D01*
G01*
X115550000Y-230450002D01*
G75*
G02*
X115300002Y-230700000I-249998J0D01*
G01*
G37*
G36*
G01*
X115300002Y-232525000D02*
X114399998Y-232525000D01*
G75*
G02*
X114150000Y-232275002I0J249998D01*
G01*
X114150000Y-231749998D01*
G75*
G02*
X114399998Y-231500000I249998J0D01*
G01*
X115300002Y-231500000D01*
G75*
G02*
X115550000Y-231749998I0J-249998D01*
G01*
X115550000Y-232275002D01*
G75*
G02*
X115300002Y-232525000I-249998J0D01*
G01*
G37*
G04 #@! TD*
G04 #@! TO.C,R18*
G36*
G01*
X134250000Y-212725002D02*
X134250000Y-211474998D01*
G75*
G02*
X134499998Y-211225000I249998J0D01*
G01*
X135125002Y-211225000D01*
G75*
G02*
X135375000Y-211474998I0J-249998D01*
G01*
X135375000Y-212725002D01*
G75*
G02*
X135125002Y-212975000I-249998J0D01*
G01*
X134499998Y-212975000D01*
G75*
G02*
X134250000Y-212725002I0J249998D01*
G01*
G37*
G36*
G01*
X131325000Y-212725002D02*
X131325000Y-211474998D01*
G75*
G02*
X131574998Y-211225000I249998J0D01*
G01*
X132200002Y-211225000D01*
G75*
G02*
X132450000Y-211474998I0J-249998D01*
G01*
X132450000Y-212725002D01*
G75*
G02*
X132200002Y-212975000I-249998J0D01*
G01*
X131574998Y-212975000D01*
G75*
G02*
X131325000Y-212725002I0J249998D01*
G01*
G37*
G04 #@! TD*
G04 #@! TO.C,R19*
G36*
G01*
X150000000Y-212725002D02*
X150000000Y-211474998D01*
G75*
G02*
X150249998Y-211225000I249998J0D01*
G01*
X150875002Y-211225000D01*
G75*
G02*
X151125000Y-211474998I0J-249998D01*
G01*
X151125000Y-212725002D01*
G75*
G02*
X150875002Y-212975000I-249998J0D01*
G01*
X150249998Y-212975000D01*
G75*
G02*
X150000000Y-212725002I0J249998D01*
G01*
G37*
G36*
G01*
X147075000Y-212725002D02*
X147075000Y-211474998D01*
G75*
G02*
X147324998Y-211225000I249998J0D01*
G01*
X147950002Y-211225000D01*
G75*
G02*
X148200000Y-211474998I0J-249998D01*
G01*
X148200000Y-212725002D01*
G75*
G02*
X147950002Y-212975000I-249998J0D01*
G01*
X147324998Y-212975000D01*
G75*
G02*
X147075000Y-212725002I0J249998D01*
G01*
G37*
G04 #@! TD*
G04 #@! TO.C,R20*
G36*
G01*
X141825000Y-212725002D02*
X141825000Y-211474998D01*
G75*
G02*
X142074998Y-211225000I249998J0D01*
G01*
X142700002Y-211225000D01*
G75*
G02*
X142950000Y-211474998I0J-249998D01*
G01*
X142950000Y-212725002D01*
G75*
G02*
X142700002Y-212975000I-249998J0D01*
G01*
X142074998Y-212975000D01*
G75*
G02*
X141825000Y-212725002I0J249998D01*
G01*
G37*
G36*
G01*
X144750000Y-212725002D02*
X144750000Y-211474998D01*
G75*
G02*
X144999998Y-211225000I249998J0D01*
G01*
X145625002Y-211225000D01*
G75*
G02*
X145875000Y-211474998I0J-249998D01*
G01*
X145875000Y-212725002D01*
G75*
G02*
X145625002Y-212975000I-249998J0D01*
G01*
X144999998Y-212975000D01*
G75*
G02*
X144750000Y-212725002I0J249998D01*
G01*
G37*
G04 #@! TD*
G04 #@! TO.C,R21*
G36*
G01*
X136575000Y-212725002D02*
X136575000Y-211474998D01*
G75*
G02*
X136824998Y-211225000I249998J0D01*
G01*
X137450002Y-211225000D01*
G75*
G02*
X137700000Y-211474998I0J-249998D01*
G01*
X137700000Y-212725002D01*
G75*
G02*
X137450002Y-212975000I-249998J0D01*
G01*
X136824998Y-212975000D01*
G75*
G02*
X136575000Y-212725002I0J249998D01*
G01*
G37*
G36*
G01*
X139500000Y-212725002D02*
X139500000Y-211474998D01*
G75*
G02*
X139749998Y-211225000I249998J0D01*
G01*
X140375002Y-211225000D01*
G75*
G02*
X140625000Y-211474998I0J-249998D01*
G01*
X140625000Y-212725002D01*
G75*
G02*
X140375002Y-212975000I-249998J0D01*
G01*
X139749998Y-212975000D01*
G75*
G02*
X139500000Y-212725002I0J249998D01*
G01*
G37*
G04 #@! TD*
G04 #@! TO.C,R22*
G36*
G01*
X188825000Y-200824999D02*
X188825000Y-203675001D01*
G75*
G02*
X188575001Y-203925000I-249999J0D01*
G01*
X187849999Y-203925000D01*
G75*
G02*
X187600000Y-203675001I0J249999D01*
G01*
X187600000Y-200824999D01*
G75*
G02*
X187849999Y-200575000I249999J0D01*
G01*
X188575001Y-200575000D01*
G75*
G02*
X188825000Y-200824999I0J-249999D01*
G01*
G37*
G36*
G01*
X182900000Y-200824999D02*
X182900000Y-203675001D01*
G75*
G02*
X182650001Y-203925000I-249999J0D01*
G01*
X181924999Y-203925000D01*
G75*
G02*
X181675000Y-203675001I0J249999D01*
G01*
X181675000Y-200824999D01*
G75*
G02*
X181924999Y-200575000I249999J0D01*
G01*
X182650001Y-200575000D01*
G75*
G02*
X182900000Y-200824999I0J-249999D01*
G01*
G37*
G04 #@! TD*
G04 #@! TO.C,R23*
G36*
G01*
X182900000Y-206574999D02*
X182900000Y-209425001D01*
G75*
G02*
X182650001Y-209675000I-249999J0D01*
G01*
X181924999Y-209675000D01*
G75*
G02*
X181675000Y-209425001I0J249999D01*
G01*
X181675000Y-206574999D01*
G75*
G02*
X181924999Y-206325000I249999J0D01*
G01*
X182650001Y-206325000D01*
G75*
G02*
X182900000Y-206574999I0J-249999D01*
G01*
G37*
G36*
G01*
X188825000Y-206574999D02*
X188825000Y-209425001D01*
G75*
G02*
X188575001Y-209675000I-249999J0D01*
G01*
X187849999Y-209675000D01*
G75*
G02*
X187600000Y-209425001I0J249999D01*
G01*
X187600000Y-206574999D01*
G75*
G02*
X187849999Y-206325000I249999J0D01*
G01*
X188575001Y-206325000D01*
G75*
G02*
X188825000Y-206574999I0J-249999D01*
G01*
G37*
G04 #@! TD*
G04 #@! TO.C,R24*
G36*
G01*
X131325000Y-217475002D02*
X131325000Y-216224998D01*
G75*
G02*
X131574998Y-215975000I249998J0D01*
G01*
X132200002Y-215975000D01*
G75*
G02*
X132450000Y-216224998I0J-249998D01*
G01*
X132450000Y-217475002D01*
G75*
G02*
X132200002Y-217725000I-249998J0D01*
G01*
X131574998Y-217725000D01*
G75*
G02*
X131325000Y-217475002I0J249998D01*
G01*
G37*
G36*
G01*
X134250000Y-217475002D02*
X134250000Y-216224998D01*
G75*
G02*
X134499998Y-215975000I249998J0D01*
G01*
X135125002Y-215975000D01*
G75*
G02*
X135375000Y-216224998I0J-249998D01*
G01*
X135375000Y-217475002D01*
G75*
G02*
X135125002Y-217725000I-249998J0D01*
G01*
X134499998Y-217725000D01*
G75*
G02*
X134250000Y-217475002I0J249998D01*
G01*
G37*
G04 #@! TD*
D31*
G04 #@! TO.C,R25*
X179700000Y-217970000D03*
D32*
X173400000Y-220250000D03*
D31*
X179700000Y-222530000D03*
G04 #@! TD*
G04 #@! TO.C,R26*
G36*
G01*
X150000000Y-217475002D02*
X150000000Y-216224998D01*
G75*
G02*
X150249998Y-215975000I249998J0D01*
G01*
X150875002Y-215975000D01*
G75*
G02*
X151125000Y-216224998I0J-249998D01*
G01*
X151125000Y-217475002D01*
G75*
G02*
X150875002Y-217725000I-249998J0D01*
G01*
X150249998Y-217725000D01*
G75*
G02*
X150000000Y-217475002I0J249998D01*
G01*
G37*
G36*
G01*
X147075000Y-217475002D02*
X147075000Y-216224998D01*
G75*
G02*
X147324998Y-215975000I249998J0D01*
G01*
X147950002Y-215975000D01*
G75*
G02*
X148200000Y-216224998I0J-249998D01*
G01*
X148200000Y-217475002D01*
G75*
G02*
X147950002Y-217725000I-249998J0D01*
G01*
X147324998Y-217725000D01*
G75*
G02*
X147075000Y-217475002I0J249998D01*
G01*
G37*
G04 #@! TD*
G04 #@! TO.C,R27*
G36*
G01*
X141825000Y-217475002D02*
X141825000Y-216224998D01*
G75*
G02*
X142074998Y-215975000I249998J0D01*
G01*
X142700002Y-215975000D01*
G75*
G02*
X142950000Y-216224998I0J-249998D01*
G01*
X142950000Y-217475002D01*
G75*
G02*
X142700002Y-217725000I-249998J0D01*
G01*
X142074998Y-217725000D01*
G75*
G02*
X141825000Y-217475002I0J249998D01*
G01*
G37*
G36*
G01*
X144750000Y-217475002D02*
X144750000Y-216224998D01*
G75*
G02*
X144999998Y-215975000I249998J0D01*
G01*
X145625002Y-215975000D01*
G75*
G02*
X145875000Y-216224998I0J-249998D01*
G01*
X145875000Y-217475002D01*
G75*
G02*
X145625002Y-217725000I-249998J0D01*
G01*
X144999998Y-217725000D01*
G75*
G02*
X144750000Y-217475002I0J249998D01*
G01*
G37*
G04 #@! TD*
G04 #@! TO.C,R28*
G36*
G01*
X139500000Y-217475002D02*
X139500000Y-216224998D01*
G75*
G02*
X139749998Y-215975000I249998J0D01*
G01*
X140375002Y-215975000D01*
G75*
G02*
X140625000Y-216224998I0J-249998D01*
G01*
X140625000Y-217475002D01*
G75*
G02*
X140375002Y-217725000I-249998J0D01*
G01*
X139749998Y-217725000D01*
G75*
G02*
X139500000Y-217475002I0J249998D01*
G01*
G37*
G36*
G01*
X136575000Y-217475002D02*
X136575000Y-216224998D01*
G75*
G02*
X136824998Y-215975000I249998J0D01*
G01*
X137450002Y-215975000D01*
G75*
G02*
X137700000Y-216224998I0J-249998D01*
G01*
X137700000Y-217475002D01*
G75*
G02*
X137450002Y-217725000I-249998J0D01*
G01*
X136824998Y-217725000D01*
G75*
G02*
X136575000Y-217475002I0J249998D01*
G01*
G37*
G04 #@! TD*
G04 #@! TO.C,R29*
G36*
G01*
X175700002Y-207825000D02*
X174799998Y-207825000D01*
G75*
G02*
X174550000Y-207575002I0J249998D01*
G01*
X174550000Y-207049998D01*
G75*
G02*
X174799998Y-206800000I249998J0D01*
G01*
X175700002Y-206800000D01*
G75*
G02*
X175950000Y-207049998I0J-249998D01*
G01*
X175950000Y-207575002D01*
G75*
G02*
X175700002Y-207825000I-249998J0D01*
G01*
G37*
G36*
G01*
X175700002Y-206000000D02*
X174799998Y-206000000D01*
G75*
G02*
X174550000Y-205750002I0J249998D01*
G01*
X174550000Y-205224998D01*
G75*
G02*
X174799998Y-204975000I249998J0D01*
G01*
X175700002Y-204975000D01*
G75*
G02*
X175950000Y-205224998I0J-249998D01*
G01*
X175950000Y-205750002D01*
G75*
G02*
X175700002Y-206000000I-249998J0D01*
G01*
G37*
G04 #@! TD*
G04 #@! TO.C,R30*
G36*
G01*
X177850000Y-207549998D02*
X177850000Y-208450002D01*
G75*
G02*
X177600002Y-208700000I-249998J0D01*
G01*
X177074998Y-208700000D01*
G75*
G02*
X176825000Y-208450002I0J249998D01*
G01*
X176825000Y-207549998D01*
G75*
G02*
X177074998Y-207300000I249998J0D01*
G01*
X177600002Y-207300000D01*
G75*
G02*
X177850000Y-207549998I0J-249998D01*
G01*
G37*
G36*
G01*
X179675000Y-207549998D02*
X179675000Y-208450002D01*
G75*
G02*
X179425002Y-208700000I-249998J0D01*
G01*
X178899998Y-208700000D01*
G75*
G02*
X178650000Y-208450002I0J249998D01*
G01*
X178650000Y-207549998D01*
G75*
G02*
X178899998Y-207300000I249998J0D01*
G01*
X179425002Y-207300000D01*
G75*
G02*
X179675000Y-207549998I0J-249998D01*
G01*
G37*
G04 #@! TD*
G04 #@! TO.C,R35*
G36*
G01*
X181900000Y-94450002D02*
X181900000Y-93549998D01*
G75*
G02*
X182149998Y-93300000I249998J0D01*
G01*
X182675002Y-93300000D01*
G75*
G02*
X182925000Y-93549998I0J-249998D01*
G01*
X182925000Y-94450002D01*
G75*
G02*
X182675002Y-94700000I-249998J0D01*
G01*
X182149998Y-94700000D01*
G75*
G02*
X181900000Y-94450002I0J249998D01*
G01*
G37*
G36*
G01*
X180075000Y-94450002D02*
X180075000Y-93549998D01*
G75*
G02*
X180324998Y-93300000I249998J0D01*
G01*
X180850002Y-93300000D01*
G75*
G02*
X181100000Y-93549998I0J-249998D01*
G01*
X181100000Y-94450002D01*
G75*
G02*
X180850002Y-94700000I-249998J0D01*
G01*
X180324998Y-94700000D01*
G75*
G02*
X180075000Y-94450002I0J249998D01*
G01*
G37*
G04 #@! TD*
G04 #@! TO.C,R36*
G36*
G01*
X164425000Y-169549998D02*
X164425000Y-170450002D01*
G75*
G02*
X164175002Y-170700000I-249998J0D01*
G01*
X163649998Y-170700000D01*
G75*
G02*
X163400000Y-170450002I0J249998D01*
G01*
X163400000Y-169549998D01*
G75*
G02*
X163649998Y-169300000I249998J0D01*
G01*
X164175002Y-169300000D01*
G75*
G02*
X164425000Y-169549998I0J-249998D01*
G01*
G37*
G36*
G01*
X162600000Y-169549998D02*
X162600000Y-170450002D01*
G75*
G02*
X162350002Y-170700000I-249998J0D01*
G01*
X161824998Y-170700000D01*
G75*
G02*
X161575000Y-170450002I0J249998D01*
G01*
X161575000Y-169549998D01*
G75*
G02*
X161824998Y-169300000I249998J0D01*
G01*
X162350002Y-169300000D01*
G75*
G02*
X162600000Y-169549998I0J-249998D01*
G01*
G37*
G04 #@! TD*
G04 #@! TO.C,R37*
G36*
G01*
X177575000Y-92574999D02*
X177575000Y-95425001D01*
G75*
G02*
X177325001Y-95675000I-249999J0D01*
G01*
X176599999Y-95675000D01*
G75*
G02*
X176350000Y-95425001I0J249999D01*
G01*
X176350000Y-92574999D01*
G75*
G02*
X176599999Y-92325000I249999J0D01*
G01*
X177325001Y-92325000D01*
G75*
G02*
X177575000Y-92574999I0J-249999D01*
G01*
G37*
G36*
G01*
X171650000Y-92574999D02*
X171650000Y-95425001D01*
G75*
G02*
X171400001Y-95675000I-249999J0D01*
G01*
X170674999Y-95675000D01*
G75*
G02*
X170425000Y-95425001I0J249999D01*
G01*
X170425000Y-92574999D01*
G75*
G02*
X170674999Y-92325000I249999J0D01*
G01*
X171400001Y-92325000D01*
G75*
G02*
X171650000Y-92574999I0J-249999D01*
G01*
G37*
G04 #@! TD*
G04 #@! TO.C,R38*
G36*
G01*
X172350000Y-164425001D02*
X172350000Y-161574999D01*
G75*
G02*
X172599999Y-161325000I249999J0D01*
G01*
X173325001Y-161325000D01*
G75*
G02*
X173575000Y-161574999I0J-249999D01*
G01*
X173575000Y-164425001D01*
G75*
G02*
X173325001Y-164675000I-249999J0D01*
G01*
X172599999Y-164675000D01*
G75*
G02*
X172350000Y-164425001I0J249999D01*
G01*
G37*
G36*
G01*
X166425000Y-164425001D02*
X166425000Y-161574999D01*
G75*
G02*
X166674999Y-161325000I249999J0D01*
G01*
X167400001Y-161325000D01*
G75*
G02*
X167650000Y-161574999I0J-249999D01*
G01*
X167650000Y-164425001D01*
G75*
G02*
X167400001Y-164675000I-249999J0D01*
G01*
X166674999Y-164675000D01*
G75*
G02*
X166425000Y-164425001I0J249999D01*
G01*
G37*
G04 #@! TD*
G04 #@! TO.C,R39*
G36*
G01*
X95450002Y-234425000D02*
X94549998Y-234425000D01*
G75*
G02*
X94300000Y-234175002I0J249998D01*
G01*
X94300000Y-233649998D01*
G75*
G02*
X94549998Y-233400000I249998J0D01*
G01*
X95450002Y-233400000D01*
G75*
G02*
X95700000Y-233649998I0J-249998D01*
G01*
X95700000Y-234175002D01*
G75*
G02*
X95450002Y-234425000I-249998J0D01*
G01*
G37*
G36*
G01*
X95450002Y-232600000D02*
X94549998Y-232600000D01*
G75*
G02*
X94300000Y-232350002I0J249998D01*
G01*
X94300000Y-231824998D01*
G75*
G02*
X94549998Y-231575000I249998J0D01*
G01*
X95450002Y-231575000D01*
G75*
G02*
X95700000Y-231824998I0J-249998D01*
G01*
X95700000Y-232350002D01*
G75*
G02*
X95450002Y-232600000I-249998J0D01*
G01*
G37*
G04 #@! TD*
G04 #@! TO.C,R40*
G36*
G01*
X63049998Y-207075000D02*
X63950002Y-207075000D01*
G75*
G02*
X64200000Y-207324998I0J-249998D01*
G01*
X64200000Y-207850002D01*
G75*
G02*
X63950002Y-208100000I-249998J0D01*
G01*
X63049998Y-208100000D01*
G75*
G02*
X62800000Y-207850002I0J249998D01*
G01*
X62800000Y-207324998D01*
G75*
G02*
X63049998Y-207075000I249998J0D01*
G01*
G37*
G36*
G01*
X63049998Y-208900000D02*
X63950002Y-208900000D01*
G75*
G02*
X64200000Y-209149998I0J-249998D01*
G01*
X64200000Y-209675002D01*
G75*
G02*
X63950002Y-209925000I-249998J0D01*
G01*
X63049998Y-209925000D01*
G75*
G02*
X62800000Y-209675002I0J249998D01*
G01*
X62800000Y-209149998D01*
G75*
G02*
X63049998Y-208900000I249998J0D01*
G01*
G37*
G04 #@! TD*
G04 #@! TO.C,R41*
G36*
G01*
X65574999Y-202175000D02*
X68425001Y-202175000D01*
G75*
G02*
X68675000Y-202424999I0J-249999D01*
G01*
X68675000Y-203150001D01*
G75*
G02*
X68425001Y-203400000I-249999J0D01*
G01*
X65574999Y-203400000D01*
G75*
G02*
X65325000Y-203150001I0J249999D01*
G01*
X65325000Y-202424999D01*
G75*
G02*
X65574999Y-202175000I249999J0D01*
G01*
G37*
G36*
G01*
X65574999Y-208100000D02*
X68425001Y-208100000D01*
G75*
G02*
X68675000Y-208349999I0J-249999D01*
G01*
X68675000Y-209075001D01*
G75*
G02*
X68425001Y-209325000I-249999J0D01*
G01*
X65574999Y-209325000D01*
G75*
G02*
X65325000Y-209075001I0J249999D01*
G01*
X65325000Y-208349999D01*
G75*
G02*
X65574999Y-208100000I249999J0D01*
G01*
G37*
G04 #@! TD*
G04 #@! TO.C,R42*
G36*
G01*
X123800002Y-208275000D02*
X122899998Y-208275000D01*
G75*
G02*
X122650000Y-208025002I0J249998D01*
G01*
X122650000Y-207499998D01*
G75*
G02*
X122899998Y-207250000I249998J0D01*
G01*
X123800002Y-207250000D01*
G75*
G02*
X124050000Y-207499998I0J-249998D01*
G01*
X124050000Y-208025002D01*
G75*
G02*
X123800002Y-208275000I-249998J0D01*
G01*
G37*
G36*
G01*
X123800002Y-206450000D02*
X122899998Y-206450000D01*
G75*
G02*
X122650000Y-206200002I0J249998D01*
G01*
X122650000Y-205674998D01*
G75*
G02*
X122899998Y-205425000I249998J0D01*
G01*
X123800002Y-205425000D01*
G75*
G02*
X124050000Y-205674998I0J-249998D01*
G01*
X124050000Y-206200002D01*
G75*
G02*
X123800002Y-206450000I-249998J0D01*
G01*
G37*
G04 #@! TD*
G04 #@! TO.C,R43*
G36*
G01*
X180675000Y-134175001D02*
X180675000Y-131324999D01*
G75*
G02*
X180924999Y-131075000I249999J0D01*
G01*
X181650001Y-131075000D01*
G75*
G02*
X181900000Y-131324999I0J-249999D01*
G01*
X181900000Y-134175001D01*
G75*
G02*
X181650001Y-134425000I-249999J0D01*
G01*
X180924999Y-134425000D01*
G75*
G02*
X180675000Y-134175001I0J249999D01*
G01*
G37*
G36*
G01*
X186600000Y-134175001D02*
X186600000Y-131324999D01*
G75*
G02*
X186849999Y-131075000I249999J0D01*
G01*
X187575001Y-131075000D01*
G75*
G02*
X187825000Y-131324999I0J-249999D01*
G01*
X187825000Y-134175001D01*
G75*
G02*
X187575001Y-134425000I-249999J0D01*
G01*
X186849999Y-134425000D01*
G75*
G02*
X186600000Y-134175001I0J249999D01*
G01*
G37*
G04 #@! TD*
G04 #@! TO.C,R44*
G36*
G01*
X186600000Y-126925001D02*
X186600000Y-124074999D01*
G75*
G02*
X186849999Y-123825000I249999J0D01*
G01*
X187575001Y-123825000D01*
G75*
G02*
X187825000Y-124074999I0J-249999D01*
G01*
X187825000Y-126925001D01*
G75*
G02*
X187575001Y-127175000I-249999J0D01*
G01*
X186849999Y-127175000D01*
G75*
G02*
X186600000Y-126925001I0J249999D01*
G01*
G37*
G36*
G01*
X180675000Y-126925001D02*
X180675000Y-124074999D01*
G75*
G02*
X180924999Y-123825000I249999J0D01*
G01*
X181650001Y-123825000D01*
G75*
G02*
X181900000Y-124074999I0J-249999D01*
G01*
X181900000Y-126925001D01*
G75*
G02*
X181650001Y-127175000I-249999J0D01*
G01*
X180924999Y-127175000D01*
G75*
G02*
X180675000Y-126925001I0J249999D01*
G01*
G37*
G04 #@! TD*
G04 #@! TO.C,R45*
G36*
G01*
X394625002Y-135350000D02*
X393374998Y-135350000D01*
G75*
G02*
X393125000Y-135100002I0J249998D01*
G01*
X393125000Y-134474998D01*
G75*
G02*
X393374998Y-134225000I249998J0D01*
G01*
X394625002Y-134225000D01*
G75*
G02*
X394875000Y-134474998I0J-249998D01*
G01*
X394875000Y-135100002D01*
G75*
G02*
X394625002Y-135350000I-249998J0D01*
G01*
G37*
G36*
G01*
X394625002Y-138275000D02*
X393374998Y-138275000D01*
G75*
G02*
X393125000Y-138025002I0J249998D01*
G01*
X393125000Y-137399998D01*
G75*
G02*
X393374998Y-137150000I249998J0D01*
G01*
X394625002Y-137150000D01*
G75*
G02*
X394875000Y-137399998I0J-249998D01*
G01*
X394875000Y-138025002D01*
G75*
G02*
X394625002Y-138275000I-249998J0D01*
G01*
G37*
G04 #@! TD*
G04 #@! TO.C,R46*
G36*
G01*
X394625002Y-132809999D02*
X393374998Y-132809999D01*
G75*
G02*
X393125000Y-132560001I0J249998D01*
G01*
X393125000Y-131934997D01*
G75*
G02*
X393374998Y-131684999I249998J0D01*
G01*
X394625002Y-131684999D01*
G75*
G02*
X394875000Y-131934997I0J-249998D01*
G01*
X394875000Y-132560001D01*
G75*
G02*
X394625002Y-132809999I-249998J0D01*
G01*
G37*
G36*
G01*
X394625002Y-129884999D02*
X393374998Y-129884999D01*
G75*
G02*
X393125000Y-129635001I0J249998D01*
G01*
X393125000Y-129009997D01*
G75*
G02*
X393374998Y-128759999I249998J0D01*
G01*
X394625002Y-128759999D01*
G75*
G02*
X394875000Y-129009997I0J-249998D01*
G01*
X394875000Y-129635001D01*
G75*
G02*
X394625002Y-129884999I-249998J0D01*
G01*
G37*
G04 #@! TD*
G04 #@! TO.C,R47*
G36*
G01*
X394625002Y-124350000D02*
X393374998Y-124350000D01*
G75*
G02*
X393125000Y-124100002I0J249998D01*
G01*
X393125000Y-123474998D01*
G75*
G02*
X393374998Y-123225000I249998J0D01*
G01*
X394625002Y-123225000D01*
G75*
G02*
X394875000Y-123474998I0J-249998D01*
G01*
X394875000Y-124100002D01*
G75*
G02*
X394625002Y-124350000I-249998J0D01*
G01*
G37*
G36*
G01*
X394625002Y-127275000D02*
X393374998Y-127275000D01*
G75*
G02*
X393125000Y-127025002I0J249998D01*
G01*
X393125000Y-126399998D01*
G75*
G02*
X393374998Y-126150000I249998J0D01*
G01*
X394625002Y-126150000D01*
G75*
G02*
X394875000Y-126399998I0J-249998D01*
G01*
X394875000Y-127025002D01*
G75*
G02*
X394625002Y-127275000I-249998J0D01*
G01*
G37*
G04 #@! TD*
D15*
G04 #@! TO.C,RV1*
X333250000Y-211300000D03*
X335250000Y-206300000D03*
G04 #@! TD*
G04 #@! TO.C,RV2*
X335250000Y-192300000D03*
X333250000Y-197300000D03*
G04 #@! TD*
D33*
G04 #@! TO.C,RV3*
X324250000Y-207800000D03*
X328150000Y-197800000D03*
G04 #@! TD*
D34*
G04 #@! TO.C,U1*
X126500000Y-226965000D03*
X126500000Y-228235000D03*
X120200000Y-228235000D03*
X120200000Y-226965000D03*
G04 #@! TD*
G04 #@! TO.C,U2*
X104600000Y-226965000D03*
X104600000Y-228235000D03*
X98300000Y-228235000D03*
X98300000Y-226965000D03*
G04 #@! TD*
G04 #@! TO.C,U3*
X115750000Y-228235000D03*
X115750000Y-226965000D03*
X109450000Y-226965000D03*
X109450000Y-228235000D03*
G04 #@! TD*
G04 #@! TO.C,U4*
G36*
G01*
X114900000Y-210190000D02*
X114900000Y-209890000D01*
G75*
G02*
X115050000Y-209740000I150000J0D01*
G01*
X116700000Y-209740000D01*
G75*
G02*
X116850000Y-209890000I0J-150000D01*
G01*
X116850000Y-210190000D01*
G75*
G02*
X116700000Y-210340000I-150000J0D01*
G01*
X115050000Y-210340000D01*
G75*
G02*
X114900000Y-210190000I0J150000D01*
G01*
G37*
G36*
G01*
X114900000Y-211460000D02*
X114900000Y-211160000D01*
G75*
G02*
X115050000Y-211010000I150000J0D01*
G01*
X116700000Y-211010000D01*
G75*
G02*
X116850000Y-211160000I0J-150000D01*
G01*
X116850000Y-211460000D01*
G75*
G02*
X116700000Y-211610000I-150000J0D01*
G01*
X115050000Y-211610000D01*
G75*
G02*
X114900000Y-211460000I0J150000D01*
G01*
G37*
G36*
G01*
X114900000Y-212730000D02*
X114900000Y-212430000D01*
G75*
G02*
X115050000Y-212280000I150000J0D01*
G01*
X116700000Y-212280000D01*
G75*
G02*
X116850000Y-212430000I0J-150000D01*
G01*
X116850000Y-212730000D01*
G75*
G02*
X116700000Y-212880000I-150000J0D01*
G01*
X115050000Y-212880000D01*
G75*
G02*
X114900000Y-212730000I0J150000D01*
G01*
G37*
G36*
G01*
X114900000Y-214000000D02*
X114900000Y-213700000D01*
G75*
G02*
X115050000Y-213550000I150000J0D01*
G01*
X116700000Y-213550000D01*
G75*
G02*
X116850000Y-213700000I0J-150000D01*
G01*
X116850000Y-214000000D01*
G75*
G02*
X116700000Y-214150000I-150000J0D01*
G01*
X115050000Y-214150000D01*
G75*
G02*
X114900000Y-214000000I0J150000D01*
G01*
G37*
G36*
G01*
X114900000Y-215270000D02*
X114900000Y-214970000D01*
G75*
G02*
X115050000Y-214820000I150000J0D01*
G01*
X116700000Y-214820000D01*
G75*
G02*
X116850000Y-214970000I0J-150000D01*
G01*
X116850000Y-215270000D01*
G75*
G02*
X116700000Y-215420000I-150000J0D01*
G01*
X115050000Y-215420000D01*
G75*
G02*
X114900000Y-215270000I0J150000D01*
G01*
G37*
G36*
G01*
X114900000Y-216540000D02*
X114900000Y-216240000D01*
G75*
G02*
X115050000Y-216090000I150000J0D01*
G01*
X116700000Y-216090000D01*
G75*
G02*
X116850000Y-216240000I0J-150000D01*
G01*
X116850000Y-216540000D01*
G75*
G02*
X116700000Y-216690000I-150000J0D01*
G01*
X115050000Y-216690000D01*
G75*
G02*
X114900000Y-216540000I0J150000D01*
G01*
G37*
G36*
G01*
X114900000Y-217810000D02*
X114900000Y-217510000D01*
G75*
G02*
X115050000Y-217360000I150000J0D01*
G01*
X116700000Y-217360000D01*
G75*
G02*
X116850000Y-217510000I0J-150000D01*
G01*
X116850000Y-217810000D01*
G75*
G02*
X116700000Y-217960000I-150000J0D01*
G01*
X115050000Y-217960000D01*
G75*
G02*
X114900000Y-217810000I0J150000D01*
G01*
G37*
G36*
G01*
X119850000Y-217810000D02*
X119850000Y-217510000D01*
G75*
G02*
X120000000Y-217360000I150000J0D01*
G01*
X121650000Y-217360000D01*
G75*
G02*
X121800000Y-217510000I0J-150000D01*
G01*
X121800000Y-217810000D01*
G75*
G02*
X121650000Y-217960000I-150000J0D01*
G01*
X120000000Y-217960000D01*
G75*
G02*
X119850000Y-217810000I0J150000D01*
G01*
G37*
G36*
G01*
X119850000Y-216540000D02*
X119850000Y-216240000D01*
G75*
G02*
X120000000Y-216090000I150000J0D01*
G01*
X121650000Y-216090000D01*
G75*
G02*
X121800000Y-216240000I0J-150000D01*
G01*
X121800000Y-216540000D01*
G75*
G02*
X121650000Y-216690000I-150000J0D01*
G01*
X120000000Y-216690000D01*
G75*
G02*
X119850000Y-216540000I0J150000D01*
G01*
G37*
G36*
G01*
X119850000Y-215270000D02*
X119850000Y-214970000D01*
G75*
G02*
X120000000Y-214820000I150000J0D01*
G01*
X121650000Y-214820000D01*
G75*
G02*
X121800000Y-214970000I0J-150000D01*
G01*
X121800000Y-215270000D01*
G75*
G02*
X121650000Y-215420000I-150000J0D01*
G01*
X120000000Y-215420000D01*
G75*
G02*
X119850000Y-215270000I0J150000D01*
G01*
G37*
G36*
G01*
X119850000Y-214000000D02*
X119850000Y-213700000D01*
G75*
G02*
X120000000Y-213550000I150000J0D01*
G01*
X121650000Y-213550000D01*
G75*
G02*
X121800000Y-213700000I0J-150000D01*
G01*
X121800000Y-214000000D01*
G75*
G02*
X121650000Y-214150000I-150000J0D01*
G01*
X120000000Y-214150000D01*
G75*
G02*
X119850000Y-214000000I0J150000D01*
G01*
G37*
G36*
G01*
X119850000Y-212730000D02*
X119850000Y-212430000D01*
G75*
G02*
X120000000Y-212280000I150000J0D01*
G01*
X121650000Y-212280000D01*
G75*
G02*
X121800000Y-212430000I0J-150000D01*
G01*
X121800000Y-212730000D01*
G75*
G02*
X121650000Y-212880000I-150000J0D01*
G01*
X120000000Y-212880000D01*
G75*
G02*
X119850000Y-212730000I0J150000D01*
G01*
G37*
G36*
G01*
X119850000Y-211460000D02*
X119850000Y-211160000D01*
G75*
G02*
X120000000Y-211010000I150000J0D01*
G01*
X121650000Y-211010000D01*
G75*
G02*
X121800000Y-211160000I0J-150000D01*
G01*
X121800000Y-211460000D01*
G75*
G02*
X121650000Y-211610000I-150000J0D01*
G01*
X120000000Y-211610000D01*
G75*
G02*
X119850000Y-211460000I0J150000D01*
G01*
G37*
G36*
G01*
X119850000Y-210190000D02*
X119850000Y-209890000D01*
G75*
G02*
X120000000Y-209740000I150000J0D01*
G01*
X121650000Y-209740000D01*
G75*
G02*
X121800000Y-209890000I0J-150000D01*
G01*
X121800000Y-210190000D01*
G75*
G02*
X121650000Y-210340000I-150000J0D01*
G01*
X120000000Y-210340000D01*
G75*
G02*
X119850000Y-210190000I0J150000D01*
G01*
G37*
G04 #@! TD*
D35*
G04 #@! TO.C,U5*
X193435000Y-202490000D03*
X203595000Y-202490000D03*
D36*
X189625000Y-217930000D03*
D37*
X208375000Y-214500000D03*
G04 #@! TD*
D38*
G04 #@! TO.C,U6*
X81470000Y-223700000D03*
X86030000Y-223700000D03*
D39*
X83750000Y-217400000D03*
G04 #@! TD*
D40*
G04 #@! TO.C,U7*
X70130000Y-213250000D03*
X72670000Y-213250000D03*
X75210000Y-213250000D03*
D41*
X77750000Y-213250000D03*
G04 #@! TD*
G04 #@! TO.C,U8*
G36*
G01*
X168800000Y-127495000D02*
X168800000Y-127195000D01*
G75*
G02*
X168950000Y-127045000I150000J0D01*
G01*
X170600000Y-127045000D01*
G75*
G02*
X170750000Y-127195000I0J-150000D01*
G01*
X170750000Y-127495000D01*
G75*
G02*
X170600000Y-127645000I-150000J0D01*
G01*
X168950000Y-127645000D01*
G75*
G02*
X168800000Y-127495000I0J150000D01*
G01*
G37*
G36*
G01*
X168800000Y-128765000D02*
X168800000Y-128465000D01*
G75*
G02*
X168950000Y-128315000I150000J0D01*
G01*
X170600000Y-128315000D01*
G75*
G02*
X170750000Y-128465000I0J-150000D01*
G01*
X170750000Y-128765000D01*
G75*
G02*
X170600000Y-128915000I-150000J0D01*
G01*
X168950000Y-128915000D01*
G75*
G02*
X168800000Y-128765000I0J150000D01*
G01*
G37*
G36*
G01*
X168800000Y-130035000D02*
X168800000Y-129735000D01*
G75*
G02*
X168950000Y-129585000I150000J0D01*
G01*
X170600000Y-129585000D01*
G75*
G02*
X170750000Y-129735000I0J-150000D01*
G01*
X170750000Y-130035000D01*
G75*
G02*
X170600000Y-130185000I-150000J0D01*
G01*
X168950000Y-130185000D01*
G75*
G02*
X168800000Y-130035000I0J150000D01*
G01*
G37*
G36*
G01*
X168800000Y-131305000D02*
X168800000Y-131005000D01*
G75*
G02*
X168950000Y-130855000I150000J0D01*
G01*
X170600000Y-130855000D01*
G75*
G02*
X170750000Y-131005000I0J-150000D01*
G01*
X170750000Y-131305000D01*
G75*
G02*
X170600000Y-131455000I-150000J0D01*
G01*
X168950000Y-131455000D01*
G75*
G02*
X168800000Y-131305000I0J150000D01*
G01*
G37*
G36*
G01*
X173750000Y-131305000D02*
X173750000Y-131005000D01*
G75*
G02*
X173900000Y-130855000I150000J0D01*
G01*
X175550000Y-130855000D01*
G75*
G02*
X175700000Y-131005000I0J-150000D01*
G01*
X175700000Y-131305000D01*
G75*
G02*
X175550000Y-131455000I-150000J0D01*
G01*
X173900000Y-131455000D01*
G75*
G02*
X173750000Y-131305000I0J150000D01*
G01*
G37*
G36*
G01*
X173750000Y-130035000D02*
X173750000Y-129735000D01*
G75*
G02*
X173900000Y-129585000I150000J0D01*
G01*
X175550000Y-129585000D01*
G75*
G02*
X175700000Y-129735000I0J-150000D01*
G01*
X175700000Y-130035000D01*
G75*
G02*
X175550000Y-130185000I-150000J0D01*
G01*
X173900000Y-130185000D01*
G75*
G02*
X173750000Y-130035000I0J150000D01*
G01*
G37*
G36*
G01*
X173750000Y-128765000D02*
X173750000Y-128465000D01*
G75*
G02*
X173900000Y-128315000I150000J0D01*
G01*
X175550000Y-128315000D01*
G75*
G02*
X175700000Y-128465000I0J-150000D01*
G01*
X175700000Y-128765000D01*
G75*
G02*
X175550000Y-128915000I-150000J0D01*
G01*
X173900000Y-128915000D01*
G75*
G02*
X173750000Y-128765000I0J150000D01*
G01*
G37*
G36*
G01*
X173750000Y-127495000D02*
X173750000Y-127195000D01*
G75*
G02*
X173900000Y-127045000I150000J0D01*
G01*
X175550000Y-127045000D01*
G75*
G02*
X175700000Y-127195000I0J-150000D01*
G01*
X175700000Y-127495000D01*
G75*
G02*
X175550000Y-127645000I-150000J0D01*
G01*
X173900000Y-127645000D01*
G75*
G02*
X173750000Y-127495000I0J150000D01*
G01*
G37*
G04 #@! TD*
D12*
G04 #@! TO.C,D3*
X150500000Y-227000000D03*
X154500000Y-227000000D03*
G04 #@! TD*
D42*
G04 #@! TO.C,D7*
X105600000Y-207350000D03*
X105600000Y-211350000D03*
G04 #@! TD*
G04 #@! TO.C,D19*
X66250000Y-213500000D03*
X66250000Y-217500000D03*
G04 #@! TD*
D12*
G04 #@! TO.C,D24*
X174250000Y-123000000D03*
X170250000Y-123000000D03*
G04 #@! TD*
G04 #@! TO.C,J2*
G36*
G01*
X110000000Y-236275000D02*
X110000000Y-234925000D01*
G75*
G02*
X110250000Y-234675000I250000J0D01*
G01*
X111450000Y-234675000D01*
G75*
G02*
X111700000Y-234925000I0J-250000D01*
G01*
X111700000Y-236275000D01*
G75*
G02*
X111450000Y-236525000I-250000J0D01*
G01*
X110250000Y-236525000D01*
G75*
G02*
X110000000Y-236275000I0J250000D01*
G01*
G37*
D28*
X113350000Y-235600000D03*
G04 #@! TD*
G04 #@! TO.C,J3*
X124100000Y-235600000D03*
G36*
G01*
X120750000Y-236275000D02*
X120750000Y-234925000D01*
G75*
G02*
X121000000Y-234675000I250000J0D01*
G01*
X122200000Y-234675000D01*
G75*
G02*
X122450000Y-234925000I0J-250000D01*
G01*
X122450000Y-236275000D01*
G75*
G02*
X122200000Y-236525000I-250000J0D01*
G01*
X121000000Y-236525000D01*
G75*
G02*
X120750000Y-236275000I0J250000D01*
G01*
G37*
G04 #@! TD*
G04 #@! TO.C,J4*
G36*
G01*
X99000000Y-236275000D02*
X99000000Y-234925000D01*
G75*
G02*
X99250000Y-234675000I250000J0D01*
G01*
X100450000Y-234675000D01*
G75*
G02*
X100700000Y-234925000I0J-250000D01*
G01*
X100700000Y-236275000D01*
G75*
G02*
X100450000Y-236525000I-250000J0D01*
G01*
X99250000Y-236525000D01*
G75*
G02*
X99000000Y-236275000I0J250000D01*
G01*
G37*
X102350000Y-235600000D03*
G04 #@! TD*
G04 #@! TO.C,R4*
G36*
G01*
X137725002Y-228087500D02*
X136474998Y-228087500D01*
G75*
G02*
X136225000Y-227837502I0J249998D01*
G01*
X136225000Y-227212498D01*
G75*
G02*
X136474998Y-226962500I249998J0D01*
G01*
X137725002Y-226962500D01*
G75*
G02*
X137975000Y-227212498I0J-249998D01*
G01*
X137975000Y-227837502D01*
G75*
G02*
X137725002Y-228087500I-249998J0D01*
G01*
G37*
G36*
G01*
X137725002Y-225162500D02*
X136474998Y-225162500D01*
G75*
G02*
X136225000Y-224912502I0J249998D01*
G01*
X136225000Y-224287498D01*
G75*
G02*
X136474998Y-224037500I249998J0D01*
G01*
X137725002Y-224037500D01*
G75*
G02*
X137975000Y-224287498I0J-249998D01*
G01*
X137975000Y-224912502D01*
G75*
G02*
X137725002Y-225162500I-249998J0D01*
G01*
G37*
G04 #@! TD*
D43*
G04 #@! TO.C,Q2*
X166100000Y-87000000D03*
X171550000Y-87000000D03*
D44*
X177000000Y-87000000D03*
D45*
X171550000Y-106860000D03*
G04 #@! TD*
G04 #@! TO.C,Q3*
X172450000Y-150140000D03*
D44*
X167000000Y-170000000D03*
D43*
X172450000Y-170000000D03*
X177900000Y-170000000D03*
G04 #@! TD*
D24*
G04 #@! TO.C,D16*
X211660000Y-81540000D03*
D25*
X195000000Y-79000000D03*
D26*
X195000000Y-84080000D03*
G04 #@! TD*
D20*
G04 #@! TO.C,H1*
X26000000Y-246000000D03*
G04 #@! TD*
G04 #@! TO.C,H2*
X26000000Y-56000000D03*
G04 #@! TD*
G04 #@! TO.C,H3*
X396000000Y-56000000D03*
G04 #@! TD*
G04 #@! TO.C,H4*
X396000000Y-246000000D03*
G04 #@! TD*
G04 #@! TO.C,H5*
X205000000Y-56000000D03*
G04 #@! TD*
G04 #@! TO.C,H6*
X205000000Y-131000000D03*
G04 #@! TD*
G04 #@! TO.C,H7*
X205000000Y-246000000D03*
G04 #@! TD*
D46*
X383373000Y-178373000D02*
X226127000Y-178373000D01*
X226127000Y-175627000D01*
X383373000Y-175627000D01*
X383373000Y-178373000D01*
D47*
G36*
X383373000Y-178373000D02*
G01*
X226127000Y-178373000D01*
X226127000Y-175627000D01*
X383373000Y-175627000D01*
X383373000Y-178373000D01*
G37*
D46*
X331623000Y-202123000D02*
X292127000Y-202123000D01*
X292127000Y-201377000D01*
X331623000Y-201377000D01*
X331623000Y-202123000D01*
D47*
G36*
X331623000Y-202123000D02*
G01*
X292127000Y-202123000D01*
X292127000Y-201377000D01*
X331623000Y-201377000D01*
X331623000Y-202123000D01*
G37*
D46*
X331571500Y-206123000D02*
X292127000Y-206123000D01*
X292127000Y-205377000D01*
X331571500Y-205377000D01*
X331571500Y-206123000D01*
D47*
G36*
X331571500Y-206123000D02*
G01*
X292127000Y-206123000D01*
X292127000Y-205377000D01*
X331571500Y-205377000D01*
X331571500Y-206123000D01*
G37*
D46*
X161373000Y-127873000D02*
X96127000Y-127873000D01*
X96127000Y-126127000D01*
X161373000Y-126127000D01*
X161373000Y-127873000D01*
D47*
G36*
X161373000Y-127873000D02*
G01*
X96127000Y-127873000D01*
X96127000Y-126127000D01*
X161373000Y-126127000D01*
X161373000Y-127873000D01*
G37*
D46*
X191873000Y-59373000D02*
X96500000Y-59373000D01*
X96475224Y-59375440D01*
X96451399Y-59382667D01*
X96429443Y-59394403D01*
X96410197Y-59410197D01*
X96394403Y-59429443D01*
X96382667Y-59451399D01*
X96375440Y-59475224D01*
X96373000Y-59500000D01*
X96373000Y-83000000D01*
X96375440Y-83024776D01*
X96382667Y-83048601D01*
X96394403Y-83070557D01*
X96410197Y-83089803D01*
X96429443Y-83105597D01*
X96451399Y-83117333D01*
X96475224Y-83124560D01*
X96500000Y-83127000D01*
X158873000Y-83127000D01*
X158873000Y-85873000D01*
X93627000Y-85873000D01*
X93627000Y-57127000D01*
X191873000Y-57127000D01*
X191873000Y-59373000D01*
D47*
G36*
X191873000Y-59373000D02*
G01*
X96500000Y-59373000D01*
X96475224Y-59375440D01*
X96451399Y-59382667D01*
X96429443Y-59394403D01*
X96410197Y-59410197D01*
X96394403Y-59429443D01*
X96382667Y-59451399D01*
X96375440Y-59475224D01*
X96373000Y-59500000D01*
X96373000Y-83000000D01*
X96375440Y-83024776D01*
X96382667Y-83048601D01*
X96394403Y-83070557D01*
X96410197Y-83089803D01*
X96429443Y-83105597D01*
X96451399Y-83117333D01*
X96475224Y-83124560D01*
X96500000Y-83127000D01*
X158873000Y-83127000D01*
X158873000Y-85873000D01*
X93627000Y-85873000D01*
X93627000Y-57127000D01*
X191873000Y-57127000D01*
X191873000Y-59373000D01*
G37*
D46*
X158873000Y-169373000D02*
X96749812Y-169373000D01*
X96725036Y-169375440D01*
X96701211Y-169382667D01*
X96679255Y-169394403D01*
X96660009Y-169410197D01*
X96644215Y-169429443D01*
X96632479Y-169451399D01*
X96625252Y-169475224D01*
X96622812Y-169500001D01*
X96623000Y-188000001D01*
X96625441Y-188024778D01*
X96632668Y-188048602D01*
X96644404Y-188070558D01*
X96660198Y-188089803D01*
X96679444Y-188105597D01*
X96701400Y-188117333D01*
X96725225Y-188124560D01*
X96750000Y-188127000D01*
X161500000Y-188127000D01*
X161524776Y-188124560D01*
X161548601Y-188117333D01*
X161570557Y-188105597D01*
X161589803Y-188089803D01*
X161605597Y-188070557D01*
X161617333Y-188048601D01*
X161624560Y-188024776D01*
X161627000Y-188000000D01*
X161627000Y-187627000D01*
X193000000Y-187627000D01*
X193024776Y-187624560D01*
X193048601Y-187617333D01*
X193070557Y-187605597D01*
X193089803Y-187589803D01*
X197589803Y-183089803D01*
X197605597Y-183070557D01*
X197617333Y-183048601D01*
X197624560Y-183024776D01*
X197627000Y-183000000D01*
X197627000Y-176627000D01*
X208373000Y-176627000D01*
X208373000Y-181873000D01*
X202500000Y-181873000D01*
X202475224Y-181875440D01*
X202451399Y-181882667D01*
X202429443Y-181894403D01*
X202410819Y-181909580D01*
X195147881Y-189073026D01*
X95052580Y-189122974D01*
X92127000Y-186197394D01*
X92127000Y-166127000D01*
X158873000Y-166127000D01*
X158873000Y-169373000D01*
D47*
G36*
X158873000Y-169373000D02*
G01*
X96749812Y-169373000D01*
X96725036Y-169375440D01*
X96701211Y-169382667D01*
X96679255Y-169394403D01*
X96660009Y-169410197D01*
X96644215Y-169429443D01*
X96632479Y-169451399D01*
X96625252Y-169475224D01*
X96622812Y-169500001D01*
X96623000Y-188000001D01*
X96625441Y-188024778D01*
X96632668Y-188048602D01*
X96644404Y-188070558D01*
X96660198Y-188089803D01*
X96679444Y-188105597D01*
X96701400Y-188117333D01*
X96725225Y-188124560D01*
X96750000Y-188127000D01*
X161500000Y-188127000D01*
X161524776Y-188124560D01*
X161548601Y-188117333D01*
X161570557Y-188105597D01*
X161589803Y-188089803D01*
X161605597Y-188070557D01*
X161617333Y-188048601D01*
X161624560Y-188024776D01*
X161627000Y-188000000D01*
X161627000Y-187627000D01*
X193000000Y-187627000D01*
X193024776Y-187624560D01*
X193048601Y-187617333D01*
X193070557Y-187605597D01*
X193089803Y-187589803D01*
X197589803Y-183089803D01*
X197605597Y-183070557D01*
X197617333Y-183048601D01*
X197624560Y-183024776D01*
X197627000Y-183000000D01*
X197627000Y-176627000D01*
X208373000Y-176627000D01*
X208373000Y-181873000D01*
X202500000Y-181873000D01*
X202475224Y-181875440D01*
X202451399Y-181882667D01*
X202429443Y-181894403D01*
X202410819Y-181909580D01*
X195147881Y-189073026D01*
X95052580Y-189122974D01*
X92127000Y-186197394D01*
X92127000Y-166127000D01*
X158873000Y-166127000D01*
X158873000Y-169373000D01*
G37*
D46*
X187373000Y-175500000D02*
X187375440Y-175524776D01*
X187382667Y-175548601D01*
X187394403Y-175570557D01*
X187410197Y-175589803D01*
X187429443Y-175605597D01*
X187451399Y-175617333D01*
X187475224Y-175624560D01*
X187500000Y-175627000D01*
X208373000Y-175627000D01*
X208373000Y-176873000D01*
X184627000Y-176873000D01*
X184627000Y-173127000D01*
X187373000Y-173127000D01*
X187373000Y-175500000D01*
D47*
G36*
X187373000Y-175500000D02*
G01*
X187375440Y-175524776D01*
X187382667Y-175548601D01*
X187394403Y-175570557D01*
X187410197Y-175589803D01*
X187429443Y-175605597D01*
X187451399Y-175617333D01*
X187475224Y-175624560D01*
X187500000Y-175627000D01*
X208373000Y-175627000D01*
X208373000Y-176873000D01*
X184627000Y-176873000D01*
X184627000Y-173127000D01*
X187373000Y-173127000D01*
X187373000Y-175500000D01*
G37*
D46*
X216873000Y-85873000D02*
X208627000Y-85873000D01*
X208627000Y-76127000D01*
X216873000Y-76127000D01*
X216873000Y-85873000D01*
D47*
G36*
X216873000Y-85873000D02*
G01*
X208627000Y-85873000D01*
X208627000Y-76127000D01*
X216873000Y-76127000D01*
X216873000Y-85873000D01*
G37*
D46*
X216873000Y-181873000D02*
X208426651Y-181873000D01*
X208426651Y-171627000D01*
X216873000Y-171627000D01*
X216873000Y-181873000D01*
D47*
G36*
X216873000Y-181873000D02*
G01*
X208426651Y-181873000D01*
X208426651Y-171627000D01*
X216873000Y-171627000D01*
X216873000Y-181873000D01*
G37*
D46*
X197873000Y-194873000D02*
X189250000Y-194873000D01*
X189225224Y-194875440D01*
X189201399Y-194882667D01*
X189179443Y-194894403D01*
X189160197Y-194910197D01*
X189144403Y-194929443D01*
X189132667Y-194951399D01*
X189125440Y-194975224D01*
X189123000Y-195000000D01*
X189123000Y-195623000D01*
X39377000Y-195623000D01*
X39377000Y-193127000D01*
X197873000Y-193127000D01*
X197873000Y-194873000D01*
D47*
G36*
X197873000Y-194873000D02*
G01*
X189250000Y-194873000D01*
X189225224Y-194875440D01*
X189201399Y-194882667D01*
X189179443Y-194894403D01*
X189160197Y-194910197D01*
X189144403Y-194929443D01*
X189132667Y-194951399D01*
X189125440Y-194975224D01*
X189123000Y-195000000D01*
X189123000Y-195623000D01*
X39377000Y-195623000D01*
X39377000Y-193127000D01*
X197873000Y-193127000D01*
X197873000Y-194873000D01*
G37*
D46*
X144123000Y-244873302D02*
X39377000Y-245122697D01*
X39377000Y-244377000D01*
X140250000Y-244377000D01*
X140274776Y-244374560D01*
X140298601Y-244367333D01*
X140320557Y-244355597D01*
X140339803Y-244339803D01*
X140355597Y-244320557D01*
X140367333Y-244298601D01*
X140374560Y-244274776D01*
X140377000Y-244250000D01*
X140377000Y-225877000D01*
X144123000Y-225877000D01*
X144123000Y-244873302D01*
D47*
G36*
X144123000Y-244873302D02*
G01*
X39377000Y-245122697D01*
X39377000Y-244377000D01*
X140250000Y-244377000D01*
X140274776Y-244374560D01*
X140298601Y-244367333D01*
X140320557Y-244355597D01*
X140339803Y-244339803D01*
X140355597Y-244320557D01*
X140367333Y-244298601D01*
X140374560Y-244274776D01*
X140377000Y-244250000D01*
X140377000Y-225877000D01*
X144123000Y-225877000D01*
X144123000Y-244873302D01*
G37*
D46*
X191873000Y-80750000D02*
X191875440Y-80774776D01*
X191882667Y-80798601D01*
X191894403Y-80820557D01*
X191910197Y-80839803D01*
X191929443Y-80855597D01*
X191951399Y-80867333D01*
X191975224Y-80874560D01*
X192000000Y-80877000D01*
X200123000Y-80877000D01*
X200123000Y-88623000D01*
X181127000Y-88623000D01*
X181127000Y-85877000D01*
X198250000Y-85877000D01*
X198274776Y-85874560D01*
X198298601Y-85867333D01*
X198320557Y-85855597D01*
X198339803Y-85839803D01*
X198355597Y-85820557D01*
X198367333Y-85798601D01*
X198374560Y-85774776D01*
X198377000Y-85750000D01*
X198377000Y-82000000D01*
X198374560Y-81975224D01*
X198367333Y-81951399D01*
X198355597Y-81929443D01*
X198339803Y-81910197D01*
X198320557Y-81894403D01*
X198298601Y-81882667D01*
X198274776Y-81875440D01*
X198250000Y-81873000D01*
X190127000Y-81873000D01*
X190127000Y-59127000D01*
X191873000Y-59127000D01*
X191873000Y-80750000D01*
D47*
G36*
X191873000Y-80750000D02*
G01*
X191875440Y-80774776D01*
X191882667Y-80798601D01*
X191894403Y-80820557D01*
X191910197Y-80839803D01*
X191929443Y-80855597D01*
X191951399Y-80867333D01*
X191975224Y-80874560D01*
X192000000Y-80877000D01*
X200123000Y-80877000D01*
X200123000Y-88623000D01*
X181127000Y-88623000D01*
X181127000Y-85877000D01*
X198250000Y-85877000D01*
X198274776Y-85874560D01*
X198298601Y-85867333D01*
X198320557Y-85855597D01*
X198339803Y-85839803D01*
X198355597Y-85820557D01*
X198367333Y-85798601D01*
X198374560Y-85774776D01*
X198377000Y-85750000D01*
X198377000Y-82000000D01*
X198374560Y-81975224D01*
X198367333Y-81951399D01*
X198355597Y-81929443D01*
X198339803Y-81910197D01*
X198320557Y-81894403D01*
X198298601Y-81882667D01*
X198274776Y-81875440D01*
X198250000Y-81873000D01*
X190127000Y-81873000D01*
X190127000Y-59127000D01*
X191873000Y-59127000D01*
X191873000Y-80750000D01*
G37*
D46*
X379873000Y-198123000D02*
X353877000Y-198123000D01*
X353877000Y-196377000D01*
X379873000Y-196377000D01*
X379873000Y-198123000D01*
D47*
G36*
X379873000Y-198123000D02*
G01*
X353877000Y-198123000D01*
X353877000Y-196377000D01*
X379873000Y-196377000D01*
X379873000Y-198123000D01*
G37*
D46*
X379873000Y-208123000D02*
X353877000Y-208123000D01*
X353877000Y-206377000D01*
X379873000Y-206377000D01*
X379873000Y-208123000D01*
D47*
G36*
X379873000Y-208123000D02*
G01*
X353877000Y-208123000D01*
X353877000Y-206377000D01*
X379873000Y-206377000D01*
X379873000Y-208123000D01*
G37*
D46*
X229873000Y-234873000D02*
X188500000Y-234873000D01*
X188475224Y-234875440D01*
X188451399Y-234882667D01*
X188429443Y-234894403D01*
X188410197Y-234910197D01*
X184947394Y-238373000D01*
X148127000Y-238373000D01*
X148127000Y-236127000D01*
X157000000Y-236127000D01*
X157024776Y-236124560D01*
X157048601Y-236117333D01*
X157070557Y-236105597D01*
X157089803Y-236089803D01*
X157105597Y-236070557D01*
X157117333Y-236048601D01*
X157124560Y-236024776D01*
X157127000Y-236000000D01*
X157127000Y-234627000D01*
X176000000Y-234627000D01*
X176024776Y-234624560D01*
X176048601Y-234617333D01*
X176070557Y-234605597D01*
X176089803Y-234589803D01*
X177052606Y-233627000D01*
X229873000Y-233627000D01*
X229873000Y-234873000D01*
D47*
G36*
X229873000Y-234873000D02*
G01*
X188500000Y-234873000D01*
X188475224Y-234875440D01*
X188451399Y-234882667D01*
X188429443Y-234894403D01*
X188410197Y-234910197D01*
X184947394Y-238373000D01*
X148127000Y-238373000D01*
X148127000Y-236127000D01*
X157000000Y-236127000D01*
X157024776Y-236124560D01*
X157048601Y-236117333D01*
X157070557Y-236105597D01*
X157089803Y-236089803D01*
X157105597Y-236070557D01*
X157117333Y-236048601D01*
X157124560Y-236024776D01*
X157127000Y-236000000D01*
X157127000Y-234627000D01*
X176000000Y-234627000D01*
X176024776Y-234624560D01*
X176048601Y-234617333D01*
X176070557Y-234605597D01*
X176089803Y-234589803D01*
X177052606Y-233627000D01*
X229873000Y-233627000D01*
X229873000Y-234873000D01*
G37*
D46*
X229873000Y-238873000D02*
X195000000Y-238873000D01*
X194975224Y-238875440D01*
X194951399Y-238882667D01*
X194929443Y-238894403D01*
X194910197Y-238910197D01*
X188947394Y-244873000D01*
X144127000Y-244873000D01*
X144127000Y-240627000D01*
X186000000Y-240627000D01*
X186024776Y-240624560D01*
X186048601Y-240617333D01*
X186070557Y-240605597D01*
X186089803Y-240589803D01*
X189552606Y-237127000D01*
X229873000Y-237127000D01*
X229873000Y-238873000D01*
D47*
G36*
X229873000Y-238873000D02*
G01*
X195000000Y-238873000D01*
X194975224Y-238875440D01*
X194951399Y-238882667D01*
X194929443Y-238894403D01*
X194910197Y-238910197D01*
X188947394Y-244873000D01*
X144127000Y-244873000D01*
X144127000Y-240627000D01*
X186000000Y-240627000D01*
X186024776Y-240624560D01*
X186048601Y-240617333D01*
X186070557Y-240605597D01*
X186089803Y-240589803D01*
X189552606Y-237127000D01*
X229873000Y-237127000D01*
X229873000Y-238873000D01*
G37*
D46*
X223873000Y-185947394D02*
X222447394Y-187373000D01*
X211500000Y-187373000D01*
X211475224Y-187375440D01*
X211451399Y-187382667D01*
X211429443Y-187394403D01*
X211410197Y-187410197D01*
X209910197Y-188910197D01*
X209894403Y-188929443D01*
X209882667Y-188951399D01*
X209875440Y-188975224D01*
X209873000Y-189000000D01*
X209873000Y-200947394D01*
X198697394Y-212123000D01*
X171127000Y-212123000D01*
X171127000Y-210377000D01*
X198250000Y-210377000D01*
X198274776Y-210374560D01*
X198298601Y-210367333D01*
X198320557Y-210355597D01*
X198339803Y-210339803D01*
X208589803Y-200089803D01*
X208605597Y-200070557D01*
X208617333Y-200048601D01*
X208624560Y-200024776D01*
X208627000Y-200000000D01*
X208627000Y-186127000D01*
X221000000Y-186127000D01*
X221024776Y-186124560D01*
X221048601Y-186117333D01*
X221070557Y-186105597D01*
X221089803Y-186089803D01*
X221099170Y-186079336D01*
X223099170Y-183579336D01*
X223112743Y-183558465D01*
X223121982Y-183535346D01*
X223127000Y-183500000D01*
X223127000Y-179127000D01*
X223873000Y-179127000D01*
X223873000Y-185947394D01*
D47*
G36*
X223873000Y-185947394D02*
G01*
X222447394Y-187373000D01*
X211500000Y-187373000D01*
X211475224Y-187375440D01*
X211451399Y-187382667D01*
X211429443Y-187394403D01*
X211410197Y-187410197D01*
X209910197Y-188910197D01*
X209894403Y-188929443D01*
X209882667Y-188951399D01*
X209875440Y-188975224D01*
X209873000Y-189000000D01*
X209873000Y-200947394D01*
X198697394Y-212123000D01*
X171127000Y-212123000D01*
X171127000Y-210377000D01*
X198250000Y-210377000D01*
X198274776Y-210374560D01*
X198298601Y-210367333D01*
X198320557Y-210355597D01*
X198339803Y-210339803D01*
X208589803Y-200089803D01*
X208605597Y-200070557D01*
X208617333Y-200048601D01*
X208624560Y-200024776D01*
X208627000Y-200000000D01*
X208627000Y-186127000D01*
X221000000Y-186127000D01*
X221024776Y-186124560D01*
X221048601Y-186117333D01*
X221070557Y-186105597D01*
X221089803Y-186089803D01*
X221099170Y-186079336D01*
X223099170Y-183579336D01*
X223112743Y-183558465D01*
X223121982Y-183535346D01*
X223127000Y-183500000D01*
X223127000Y-179127000D01*
X223873000Y-179127000D01*
X223873000Y-185947394D01*
G37*
D46*
X341401707Y-229080421D02*
X341419285Y-229098052D01*
X341439965Y-229111914D01*
X341462952Y-229121476D01*
X341487363Y-229126370D01*
X341500000Y-229127000D01*
X385873000Y-229127000D01*
X385873000Y-231623000D01*
X241127000Y-231623000D01*
X241127000Y-226377000D01*
X339189817Y-226377000D01*
X341401707Y-229080421D01*
D47*
G36*
X341401707Y-229080421D02*
G01*
X341419285Y-229098052D01*
X341439965Y-229111914D01*
X341462952Y-229121476D01*
X341487363Y-229126370D01*
X341500000Y-229127000D01*
X385873000Y-229127000D01*
X385873000Y-231623000D01*
X241127000Y-231623000D01*
X241127000Y-226377000D01*
X339189817Y-226377000D01*
X341401707Y-229080421D01*
G37*
D46*
X382321500Y-227373000D02*
X342627000Y-227373000D01*
X342627000Y-226377000D01*
X382321500Y-226377000D01*
X382321500Y-227373000D01*
D47*
G36*
X382321500Y-227373000D02*
G01*
X342627000Y-227373000D01*
X342627000Y-226377000D01*
X382321500Y-226377000D01*
X382321500Y-227373000D01*
G37*
D46*
X66623000Y-86250000D02*
X66625440Y-86274776D01*
X66632667Y-86298601D01*
X66644403Y-86320557D01*
X66660197Y-86339803D01*
X66679443Y-86355597D01*
X66701399Y-86367333D01*
X66725224Y-86374560D01*
X66750000Y-86377000D01*
X75623000Y-86377000D01*
X75623000Y-147623000D01*
X65750000Y-147623000D01*
X65725224Y-147625440D01*
X65701399Y-147632667D01*
X65679443Y-147644403D01*
X65660197Y-147660197D01*
X65644403Y-147679443D01*
X65632667Y-147701399D01*
X65625440Y-147725224D01*
X65623000Y-147750000D01*
X65623000Y-157123000D01*
X63377000Y-157123000D01*
X63377000Y-145377000D01*
X71250000Y-145377000D01*
X71274776Y-145374560D01*
X71298601Y-145367333D01*
X71320557Y-145355597D01*
X71339803Y-145339803D01*
X71355597Y-145320557D01*
X71367333Y-145298601D01*
X71374560Y-145274776D01*
X71377000Y-145250000D01*
X71377000Y-88750000D01*
X71374560Y-88725224D01*
X71367333Y-88701399D01*
X71355597Y-88679443D01*
X71339803Y-88660197D01*
X71320557Y-88644403D01*
X71298601Y-88632667D01*
X71274776Y-88625440D01*
X71250000Y-88623000D01*
X64377000Y-88623000D01*
X64377000Y-78627000D01*
X66623000Y-78627000D01*
X66623000Y-86250000D01*
D47*
G36*
X66623000Y-86250000D02*
G01*
X66625440Y-86274776D01*
X66632667Y-86298601D01*
X66644403Y-86320557D01*
X66660197Y-86339803D01*
X66679443Y-86355597D01*
X66701399Y-86367333D01*
X66725224Y-86374560D01*
X66750000Y-86377000D01*
X75623000Y-86377000D01*
X75623000Y-147623000D01*
X65750000Y-147623000D01*
X65725224Y-147625440D01*
X65701399Y-147632667D01*
X65679443Y-147644403D01*
X65660197Y-147660197D01*
X65644403Y-147679443D01*
X65632667Y-147701399D01*
X65625440Y-147725224D01*
X65623000Y-147750000D01*
X65623000Y-157123000D01*
X63377000Y-157123000D01*
X63377000Y-145377000D01*
X71250000Y-145377000D01*
X71274776Y-145374560D01*
X71298601Y-145367333D01*
X71320557Y-145355597D01*
X71339803Y-145339803D01*
X71355597Y-145320557D01*
X71367333Y-145298601D01*
X71374560Y-145274776D01*
X71377000Y-145250000D01*
X71377000Y-88750000D01*
X71374560Y-88725224D01*
X71367333Y-88701399D01*
X71355597Y-88679443D01*
X71339803Y-88660197D01*
X71320557Y-88644403D01*
X71298601Y-88632667D01*
X71274776Y-88625440D01*
X71250000Y-88623000D01*
X64377000Y-88623000D01*
X64377000Y-78627000D01*
X66623000Y-78627000D01*
X66623000Y-86250000D01*
G37*
D46*
X57623000Y-93250000D02*
X57625440Y-93274776D01*
X57632667Y-93298601D01*
X57644403Y-93320557D01*
X57660197Y-93339803D01*
X57679443Y-93355597D01*
X57701399Y-93367333D01*
X57725224Y-93374560D01*
X57750000Y-93377000D01*
X60623000Y-93377000D01*
X60623000Y-100623000D01*
X57750000Y-100623000D01*
X57725224Y-100625440D01*
X57701399Y-100632667D01*
X57679443Y-100644403D01*
X57660197Y-100660197D01*
X57644403Y-100679443D01*
X57632667Y-100701399D01*
X57625440Y-100725224D01*
X57623000Y-100750000D01*
X57623000Y-157123000D01*
X55377000Y-157123000D01*
X55377000Y-78627000D01*
X57623000Y-78627000D01*
X57623000Y-93250000D01*
D47*
G36*
X57623000Y-93250000D02*
G01*
X57625440Y-93274776D01*
X57632667Y-93298601D01*
X57644403Y-93320557D01*
X57660197Y-93339803D01*
X57679443Y-93355597D01*
X57701399Y-93367333D01*
X57725224Y-93374560D01*
X57750000Y-93377000D01*
X60623000Y-93377000D01*
X60623000Y-100623000D01*
X57750000Y-100623000D01*
X57725224Y-100625440D01*
X57701399Y-100632667D01*
X57679443Y-100644403D01*
X57660197Y-100660197D01*
X57644403Y-100679443D01*
X57632667Y-100701399D01*
X57625440Y-100725224D01*
X57623000Y-100750000D01*
X57623000Y-157123000D01*
X55377000Y-157123000D01*
X55377000Y-78627000D01*
X57623000Y-78627000D01*
X57623000Y-93250000D01*
G37*
D46*
X49623000Y-88623000D02*
X44750000Y-88623000D01*
X44725224Y-88625440D01*
X44701399Y-88632667D01*
X44679443Y-88644403D01*
X44660197Y-88660197D01*
X44644403Y-88679443D01*
X44632667Y-88701399D01*
X44625440Y-88725224D01*
X44623000Y-88750000D01*
X44623000Y-146250000D01*
X44625440Y-146274776D01*
X44632667Y-146298601D01*
X44644403Y-146320557D01*
X44660197Y-146339803D01*
X44679443Y-146355597D01*
X44701399Y-146367333D01*
X44725224Y-146374560D01*
X44750000Y-146377000D01*
X49623000Y-146377000D01*
X49623000Y-157123000D01*
X48377000Y-157123000D01*
X48377000Y-148750000D01*
X48374560Y-148725224D01*
X48367333Y-148701399D01*
X48355597Y-148679443D01*
X48339803Y-148660197D01*
X48320557Y-148644403D01*
X48298601Y-148632667D01*
X48274776Y-148625440D01*
X48250000Y-148623000D01*
X42377000Y-148623000D01*
X42377000Y-86377000D01*
X47250000Y-86377000D01*
X47274776Y-86374560D01*
X47298601Y-86367333D01*
X47320557Y-86355597D01*
X47339803Y-86339803D01*
X47355597Y-86320557D01*
X47367333Y-86298601D01*
X47374560Y-86274776D01*
X47377000Y-86250000D01*
X47377000Y-78877000D01*
X49623000Y-78877000D01*
X49623000Y-88623000D01*
D47*
G36*
X49623000Y-88623000D02*
G01*
X44750000Y-88623000D01*
X44725224Y-88625440D01*
X44701399Y-88632667D01*
X44679443Y-88644403D01*
X44660197Y-88660197D01*
X44644403Y-88679443D01*
X44632667Y-88701399D01*
X44625440Y-88725224D01*
X44623000Y-88750000D01*
X44623000Y-146250000D01*
X44625440Y-146274776D01*
X44632667Y-146298601D01*
X44644403Y-146320557D01*
X44660197Y-146339803D01*
X44679443Y-146355597D01*
X44701399Y-146367333D01*
X44725224Y-146374560D01*
X44750000Y-146377000D01*
X49623000Y-146377000D01*
X49623000Y-157123000D01*
X48377000Y-157123000D01*
X48377000Y-148750000D01*
X48374560Y-148725224D01*
X48367333Y-148701399D01*
X48355597Y-148679443D01*
X48339803Y-148660197D01*
X48320557Y-148644403D01*
X48298601Y-148632667D01*
X48274776Y-148625440D01*
X48250000Y-148623000D01*
X42377000Y-148623000D01*
X42377000Y-86377000D01*
X47250000Y-86377000D01*
X47274776Y-86374560D01*
X47298601Y-86367333D01*
X47320557Y-86355597D01*
X47339803Y-86339803D01*
X47355597Y-86320557D01*
X47367333Y-86298601D01*
X47374560Y-86274776D01*
X47377000Y-86250000D01*
X47377000Y-78877000D01*
X49623000Y-78877000D01*
X49623000Y-88623000D01*
G37*
D46*
X226873000Y-190373000D02*
X224627000Y-190373000D01*
X224627000Y-190000000D01*
X224624560Y-189975224D01*
X224617333Y-189951399D01*
X224605597Y-189929443D01*
X224589803Y-189910197D01*
X224570557Y-189894403D01*
X224548601Y-189882667D01*
X224524776Y-189875440D01*
X224500000Y-189873000D01*
X212500000Y-189873000D01*
X212475224Y-189875440D01*
X212451399Y-189882667D01*
X212429443Y-189894403D01*
X212410197Y-189910197D01*
X212394403Y-189929443D01*
X212382667Y-189951399D01*
X212375440Y-189975224D01*
X212373000Y-190000000D01*
X212373000Y-209373000D01*
X209627000Y-209373000D01*
X209627000Y-204052606D01*
X211589803Y-202089803D01*
X211605597Y-202070557D01*
X211617333Y-202048601D01*
X211624560Y-202024776D01*
X211627000Y-202000000D01*
X211627000Y-189552606D01*
X212052606Y-189127000D01*
X223500000Y-189127000D01*
X223524776Y-189124560D01*
X223548601Y-189117333D01*
X223570557Y-189105597D01*
X223589803Y-189089803D01*
X226089803Y-186589803D01*
X226105597Y-186570557D01*
X226117333Y-186548601D01*
X226124560Y-186524776D01*
X226127000Y-186500000D01*
X226127000Y-178127000D01*
X226873000Y-178127000D01*
X226873000Y-190373000D01*
D47*
G36*
X226873000Y-190373000D02*
G01*
X224627000Y-190373000D01*
X224627000Y-190000000D01*
X224624560Y-189975224D01*
X224617333Y-189951399D01*
X224605597Y-189929443D01*
X224589803Y-189910197D01*
X224570557Y-189894403D01*
X224548601Y-189882667D01*
X224524776Y-189875440D01*
X224500000Y-189873000D01*
X212500000Y-189873000D01*
X212475224Y-189875440D01*
X212451399Y-189882667D01*
X212429443Y-189894403D01*
X212410197Y-189910197D01*
X212394403Y-189929443D01*
X212382667Y-189951399D01*
X212375440Y-189975224D01*
X212373000Y-190000000D01*
X212373000Y-209373000D01*
X209627000Y-209373000D01*
X209627000Y-204052606D01*
X211589803Y-202089803D01*
X211605597Y-202070557D01*
X211617333Y-202048601D01*
X211624560Y-202024776D01*
X211627000Y-202000000D01*
X211627000Y-189552606D01*
X212052606Y-189127000D01*
X223500000Y-189127000D01*
X223524776Y-189124560D01*
X223548601Y-189117333D01*
X223570557Y-189105597D01*
X223589803Y-189089803D01*
X226089803Y-186589803D01*
X226105597Y-186570557D01*
X226117333Y-186548601D01*
X226124560Y-186524776D01*
X226127000Y-186500000D01*
X226127000Y-178127000D01*
X226873000Y-178127000D01*
X226873000Y-190373000D01*
G37*
D46*
X218873000Y-76373000D02*
X208627000Y-76373000D01*
X208627000Y-72000000D01*
X208624560Y-71975224D01*
X208617333Y-71951399D01*
X208605597Y-71929443D01*
X208589803Y-71910197D01*
X208570557Y-71894403D01*
X208548601Y-71882667D01*
X208524776Y-71875440D01*
X208500000Y-71873000D01*
X191627000Y-71873000D01*
X191627000Y-69127000D01*
X218873000Y-69127000D01*
X218873000Y-76373000D01*
D47*
G36*
X218873000Y-76373000D02*
G01*
X208627000Y-76373000D01*
X208627000Y-72000000D01*
X208624560Y-71975224D01*
X208617333Y-71951399D01*
X208605597Y-71929443D01*
X208589803Y-71910197D01*
X208570557Y-71894403D01*
X208548601Y-71882667D01*
X208524776Y-71875440D01*
X208500000Y-71873000D01*
X191627000Y-71873000D01*
X191627000Y-69127000D01*
X218873000Y-69127000D01*
X218873000Y-76373000D01*
G37*
D46*
X239873000Y-223873000D02*
X238127000Y-223873000D01*
X238127000Y-204127000D01*
X239873000Y-204127000D01*
X239873000Y-223873000D01*
D47*
G36*
X239873000Y-223873000D02*
G01*
X238127000Y-223873000D01*
X238127000Y-204127000D01*
X239873000Y-204127000D01*
X239873000Y-223873000D01*
G37*
D46*
X235873000Y-223873000D02*
X234127000Y-223873000D01*
X234127000Y-204127000D01*
X235873000Y-204127000D01*
X235873000Y-223873000D01*
D47*
G36*
X235873000Y-223873000D02*
G01*
X234127000Y-223873000D01*
X234127000Y-204127000D01*
X235873000Y-204127000D01*
X235873000Y-223873000D01*
G37*
M02*
