G04 #@! TF.GenerationSoftware,KiCad,Pcbnew,(5.1.7)-1*
G04 #@! TF.CreationDate,2021-02-02T18:25:37+02:00*
G04 #@! TF.ProjectId,CP_inverter,43505f69-6e76-4657-9274-65722e6b6963,rev?*
G04 #@! TF.SameCoordinates,Original*
G04 #@! TF.FileFunction,Soldermask,Bot*
G04 #@! TF.FilePolarity,Negative*
%FSLAX46Y46*%
G04 Gerber Fmt 4.6, Leading zero omitted, Abs format (unit mm)*
G04 Created by KiCad (PCBNEW (5.1.7)-1) date 2021-02-02 18:25:37*
%MOMM*%
%LPD*%
G01*
G04 APERTURE LIST*
%ADD10C,3.000000*%
%ADD11C,2.400000*%
%ADD12R,1.600000X1.600000*%
%ADD13C,1.600000*%
%ADD14C,4.000000*%
%ADD15R,4.000000X4.000000*%
%ADD16C,3.200000*%
%ADD17R,3.000000X3.000000*%
%ADD18O,3.500000X3.500000*%
%ADD19R,2.000000X2.000000*%
%ADD20O,2.000000X2.000000*%
%ADD21C,3.500000*%
%ADD22O,1.700000X1.850000*%
%ADD23C,8.500000*%
%ADD24C,2.000000*%
%ADD25C,1.635000*%
%ADD26O,5.850000X2.925000*%
%ADD27O,2.670000X5.340000*%
%ADD28O,1.750000X2.250000*%
%ADD29R,1.750000X2.250000*%
%ADD30O,2.500000X4.500000*%
%ADD31R,2.500000X4.500000*%
%ADD32O,3.600000X3.600000*%
%ADD33C,0.254000*%
%ADD34C,0.100000*%
G04 APERTURE END LIST*
D10*
G04 #@! TO.C,J1*
X370246800Y-214300000D03*
X370246800Y-210490000D03*
X357750000Y-214300000D03*
X357750000Y-210490000D03*
X370246800Y-204292400D03*
X370246800Y-200482400D03*
X357750000Y-204292400D03*
X357750000Y-200482400D03*
X370246800Y-194284800D03*
X370246800Y-190474800D03*
X357750000Y-194284800D03*
X357750000Y-190474800D03*
G04 #@! TD*
D11*
G04 #@! TO.C,F1*
X316000000Y-222500000D03*
X353000000Y-222500000D03*
G04 #@! TD*
G04 #@! TO.C,C33*
X215000000Y-165000000D03*
X215000000Y-137500000D03*
G04 #@! TD*
G04 #@! TO.C,C9*
X315750000Y-214800000D03*
X315750000Y-192300000D03*
G04 #@! TD*
G04 #@! TO.C,C17*
X259500000Y-215050000D03*
X259500000Y-192550000D03*
G04 #@! TD*
G04 #@! TO.C,C19*
X218500000Y-192500000D03*
X218500000Y-215000000D03*
G04 #@! TD*
D12*
G04 #@! TO.C,C23*
X69500000Y-222500000D03*
D13*
X69500000Y-220500000D03*
G04 #@! TD*
D12*
G04 #@! TO.C,C24*
X75500000Y-222500000D03*
D13*
X75500000Y-220500000D03*
G04 #@! TD*
D11*
G04 #@! TO.C,C27*
X85000000Y-96000000D03*
X85000000Y-123500000D03*
G04 #@! TD*
G04 #@! TO.C,C28*
X85000000Y-158000000D03*
X85000000Y-130500000D03*
G04 #@! TD*
D12*
G04 #@! TO.C,C30*
X90750000Y-237500000D03*
D13*
X87250000Y-237500000D03*
G04 #@! TD*
G04 #@! TO.C,C31*
X72750000Y-205750000D03*
D12*
X70750000Y-205750000D03*
G04 #@! TD*
D11*
G04 #@! TO.C,C32*
X215000000Y-120500000D03*
X215000000Y-93000000D03*
G04 #@! TD*
G04 #@! TO.C,C35*
X194000000Y-120500000D03*
X194000000Y-93000000D03*
G04 #@! TD*
G04 #@! TO.C,C36*
X194000000Y-137500000D03*
X194000000Y-165000000D03*
G04 #@! TD*
D14*
G04 #@! TO.C,C37*
X245250000Y-102750000D03*
D15*
X245250000Y-92750000D03*
G04 #@! TD*
G04 #@! TO.C,C38*
X285250000Y-92750000D03*
D14*
X285250000Y-102750000D03*
G04 #@! TD*
D12*
G04 #@! TO.C,C39*
X91500000Y-218750000D03*
D13*
X91500000Y-215250000D03*
G04 #@! TD*
G04 #@! TO.C,C40*
X91500000Y-206500000D03*
D12*
X91500000Y-210000000D03*
G04 #@! TD*
D14*
G04 #@! TO.C,C41*
X325250000Y-102750000D03*
D15*
X325250000Y-92750000D03*
G04 #@! TD*
G04 #@! TO.C,C44*
X245250000Y-155750000D03*
D14*
X245250000Y-145750000D03*
G04 #@! TD*
D15*
G04 #@! TO.C,C45*
X285250000Y-155750000D03*
D14*
X285250000Y-145750000D03*
G04 #@! TD*
G04 #@! TO.C,C46*
X325250000Y-145750000D03*
D15*
X325250000Y-155750000D03*
G04 #@! TD*
G04 #@! TO.C,C47*
G36*
G01*
X246350001Y-152800000D02*
X244149999Y-152800000D01*
G75*
G02*
X243900000Y-152550001I0J249999D01*
G01*
X243900000Y-151899999D01*
G75*
G02*
X244149999Y-151650000I249999J0D01*
G01*
X246350001Y-151650000D01*
G75*
G02*
X246600000Y-151899999I0J-249999D01*
G01*
X246600000Y-152550001D01*
G75*
G02*
X246350001Y-152800000I-249999J0D01*
G01*
G37*
G36*
G01*
X246350001Y-149850000D02*
X244149999Y-149850000D01*
G75*
G02*
X243900000Y-149600001I0J249999D01*
G01*
X243900000Y-148949999D01*
G75*
G02*
X244149999Y-148700000I249999J0D01*
G01*
X246350001Y-148700000D01*
G75*
G02*
X246600000Y-148949999I0J-249999D01*
G01*
X246600000Y-149600001D01*
G75*
G02*
X246350001Y-149850000I-249999J0D01*
G01*
G37*
G04 #@! TD*
G04 #@! TO.C,C48*
G36*
G01*
X286350001Y-149850000D02*
X284149999Y-149850000D01*
G75*
G02*
X283900000Y-149600001I0J249999D01*
G01*
X283900000Y-148949999D01*
G75*
G02*
X284149999Y-148700000I249999J0D01*
G01*
X286350001Y-148700000D01*
G75*
G02*
X286600000Y-148949999I0J-249999D01*
G01*
X286600000Y-149600001D01*
G75*
G02*
X286350001Y-149850000I-249999J0D01*
G01*
G37*
G36*
G01*
X286350001Y-152800000D02*
X284149999Y-152800000D01*
G75*
G02*
X283900000Y-152550001I0J249999D01*
G01*
X283900000Y-151899999D01*
G75*
G02*
X284149999Y-151650000I249999J0D01*
G01*
X286350001Y-151650000D01*
G75*
G02*
X286600000Y-151899999I0J-249999D01*
G01*
X286600000Y-152550001D01*
G75*
G02*
X286350001Y-152800000I-249999J0D01*
G01*
G37*
G04 #@! TD*
G04 #@! TO.C,C51*
G36*
G01*
X326350001Y-152800000D02*
X324149999Y-152800000D01*
G75*
G02*
X323900000Y-152550001I0J249999D01*
G01*
X323900000Y-151899999D01*
G75*
G02*
X324149999Y-151650000I249999J0D01*
G01*
X326350001Y-151650000D01*
G75*
G02*
X326600000Y-151899999I0J-249999D01*
G01*
X326600000Y-152550001D01*
G75*
G02*
X326350001Y-152800000I-249999J0D01*
G01*
G37*
G36*
G01*
X326350001Y-149850000D02*
X324149999Y-149850000D01*
G75*
G02*
X323900000Y-149600001I0J249999D01*
G01*
X323900000Y-148949999D01*
G75*
G02*
X324149999Y-148700000I249999J0D01*
G01*
X326350001Y-148700000D01*
G75*
G02*
X326600000Y-148949999I0J-249999D01*
G01*
X326600000Y-149600001D01*
G75*
G02*
X326350001Y-149850000I-249999J0D01*
G01*
G37*
G04 #@! TD*
G04 #@! TO.C,C52*
G36*
G01*
X244149999Y-98650000D02*
X246350001Y-98650000D01*
G75*
G02*
X246600000Y-98899999I0J-249999D01*
G01*
X246600000Y-99550001D01*
G75*
G02*
X246350001Y-99800000I-249999J0D01*
G01*
X244149999Y-99800000D01*
G75*
G02*
X243900000Y-99550001I0J249999D01*
G01*
X243900000Y-98899999D01*
G75*
G02*
X244149999Y-98650000I249999J0D01*
G01*
G37*
G36*
G01*
X244149999Y-95700000D02*
X246350001Y-95700000D01*
G75*
G02*
X246600000Y-95949999I0J-249999D01*
G01*
X246600000Y-96600001D01*
G75*
G02*
X246350001Y-96850000I-249999J0D01*
G01*
X244149999Y-96850000D01*
G75*
G02*
X243900000Y-96600001I0J249999D01*
G01*
X243900000Y-95949999D01*
G75*
G02*
X244149999Y-95700000I249999J0D01*
G01*
G37*
G04 #@! TD*
G04 #@! TO.C,C53*
G36*
G01*
X284149999Y-98650000D02*
X286350001Y-98650000D01*
G75*
G02*
X286600000Y-98899999I0J-249999D01*
G01*
X286600000Y-99550001D01*
G75*
G02*
X286350001Y-99800000I-249999J0D01*
G01*
X284149999Y-99800000D01*
G75*
G02*
X283900000Y-99550001I0J249999D01*
G01*
X283900000Y-98899999D01*
G75*
G02*
X284149999Y-98650000I249999J0D01*
G01*
G37*
G36*
G01*
X284149999Y-95700000D02*
X286350001Y-95700000D01*
G75*
G02*
X286600000Y-95949999I0J-249999D01*
G01*
X286600000Y-96600001D01*
G75*
G02*
X286350001Y-96850000I-249999J0D01*
G01*
X284149999Y-96850000D01*
G75*
G02*
X283900000Y-96600001I0J249999D01*
G01*
X283900000Y-95949999D01*
G75*
G02*
X284149999Y-95700000I249999J0D01*
G01*
G37*
G04 #@! TD*
G04 #@! TO.C,C54*
G36*
G01*
X324149999Y-95700000D02*
X326350001Y-95700000D01*
G75*
G02*
X326600000Y-95949999I0J-249999D01*
G01*
X326600000Y-96600001D01*
G75*
G02*
X326350001Y-96850000I-249999J0D01*
G01*
X324149999Y-96850000D01*
G75*
G02*
X323900000Y-96600001I0J249999D01*
G01*
X323900000Y-95949999D01*
G75*
G02*
X324149999Y-95700000I249999J0D01*
G01*
G37*
G36*
G01*
X324149999Y-98650000D02*
X326350001Y-98650000D01*
G75*
G02*
X326600000Y-98899999I0J-249999D01*
G01*
X326600000Y-99550001D01*
G75*
G02*
X326350001Y-99800000I-249999J0D01*
G01*
X324149999Y-99800000D01*
G75*
G02*
X323900000Y-99550001I0J249999D01*
G01*
X323900000Y-98899999D01*
G75*
G02*
X324149999Y-98650000I249999J0D01*
G01*
G37*
G04 #@! TD*
D16*
G04 #@! TO.C,D11*
X58000000Y-97000000D03*
D17*
X70000000Y-83000000D03*
D10*
X60000000Y-83000000D03*
X52500000Y-83000000D03*
X45000000Y-83000000D03*
G04 #@! TD*
G04 #@! TO.C,D12*
X45000000Y-153000000D03*
X52500000Y-153000000D03*
X60000000Y-153000000D03*
D17*
X70000000Y-153000000D03*
D16*
X58000000Y-167000000D03*
G04 #@! TD*
D18*
G04 #@! TO.C,D18*
X211660000Y-176540000D03*
D19*
X195000000Y-174000000D03*
D20*
X195000000Y-179080000D03*
G04 #@! TD*
D21*
G04 #@! TO.C,FL1*
X298000000Y-209000000D03*
X277000000Y-209000000D03*
X298000000Y-214000000D03*
X298000000Y-219000000D03*
X277000000Y-219000000D03*
X277000000Y-214000000D03*
X298000000Y-189000000D03*
X298000000Y-199000000D03*
X298000000Y-194000000D03*
X277000000Y-194000000D03*
X277000000Y-189000000D03*
X277000000Y-199000000D03*
D11*
X288000000Y-186800000D03*
X288000000Y-219800000D03*
G04 #@! TD*
D21*
G04 #@! TO.C,FL2*
X248750000Y-208800000D03*
X229750000Y-208800000D03*
X229750000Y-197800000D03*
X248750000Y-197800000D03*
G04 #@! TD*
G04 #@! TO.C,J5*
G36*
G01*
X67150000Y-236275000D02*
X67150000Y-234925000D01*
G75*
G02*
X67400000Y-234675000I250000J0D01*
G01*
X68600000Y-234675000D01*
G75*
G02*
X68850000Y-234925000I0J-250000D01*
G01*
X68850000Y-236275000D01*
G75*
G02*
X68600000Y-236525000I-250000J0D01*
G01*
X67400000Y-236525000D01*
G75*
G02*
X67150000Y-236275000I0J250000D01*
G01*
G37*
D22*
X70500000Y-235600000D03*
X73000000Y-235600000D03*
X75500000Y-235600000D03*
G04 #@! TD*
D10*
G04 #@! TO.C,J6*
X371250000Y-130750000D03*
X358750000Y-120750000D03*
X371250000Y-126950000D03*
X358750000Y-116950000D03*
G04 #@! TD*
D23*
G04 #@! TO.C,L2*
X129000000Y-72000000D03*
X129000000Y-120000000D03*
G04 #@! TD*
G04 #@! TO.C,L3*
X129000000Y-134000000D03*
X129000000Y-182000000D03*
G04 #@! TD*
G04 #@! TO.C,R33*
G36*
G01*
X75835001Y-188425001D02*
X75835001Y-185574999D01*
G75*
G02*
X76085000Y-185325000I249999J0D01*
G01*
X76810002Y-185325000D01*
G75*
G02*
X77060001Y-185574999I0J-249999D01*
G01*
X77060001Y-188425001D01*
G75*
G02*
X76810002Y-188675000I-249999J0D01*
G01*
X76085000Y-188675000D01*
G75*
G02*
X75835001Y-188425001I0J249999D01*
G01*
G37*
G36*
G01*
X69910001Y-188425001D02*
X69910001Y-185574999D01*
G75*
G02*
X70160000Y-185325000I249999J0D01*
G01*
X70885002Y-185325000D01*
G75*
G02*
X71135001Y-185574999I0J-249999D01*
G01*
X71135001Y-188425001D01*
G75*
G02*
X70885002Y-188675000I-249999J0D01*
G01*
X70160000Y-188675000D01*
G75*
G02*
X69910001Y-188425001I0J249999D01*
G01*
G37*
G04 #@! TD*
G04 #@! TO.C,R34*
G36*
G01*
X69925000Y-184425001D02*
X69925000Y-181574999D01*
G75*
G02*
X70174999Y-181325000I249999J0D01*
G01*
X70900001Y-181325000D01*
G75*
G02*
X71150000Y-181574999I0J-249999D01*
G01*
X71150000Y-184425001D01*
G75*
G02*
X70900001Y-184675000I-249999J0D01*
G01*
X70174999Y-184675000D01*
G75*
G02*
X69925000Y-184425001I0J249999D01*
G01*
G37*
G36*
G01*
X75850000Y-184425001D02*
X75850000Y-181574999D01*
G75*
G02*
X76099999Y-181325000I249999J0D01*
G01*
X76825001Y-181325000D01*
G75*
G02*
X77075000Y-181574999I0J-249999D01*
G01*
X77075000Y-184425001D01*
G75*
G02*
X76825001Y-184675000I-249999J0D01*
G01*
X76099999Y-184675000D01*
G75*
G02*
X75850000Y-184425001I0J249999D01*
G01*
G37*
G04 #@! TD*
D13*
G04 #@! TO.C,RV1*
X333250000Y-211300000D03*
X335250000Y-206300000D03*
G04 #@! TD*
G04 #@! TO.C,RV2*
X335250000Y-192300000D03*
X333250000Y-197300000D03*
G04 #@! TD*
D24*
G04 #@! TO.C,RV3*
X324250000Y-207800000D03*
X328150000Y-197800000D03*
G04 #@! TD*
D25*
G04 #@! TO.C,U5*
X193435000Y-202490000D03*
X203595000Y-202490000D03*
D26*
X189625000Y-217930000D03*
D27*
X208375000Y-214500000D03*
G04 #@! TD*
D28*
G04 #@! TO.C,U7*
X70130000Y-213250000D03*
X72670000Y-213250000D03*
X75210000Y-213250000D03*
D29*
X77750000Y-213250000D03*
G04 #@! TD*
G04 #@! TO.C,J2*
G36*
G01*
X110000000Y-236275000D02*
X110000000Y-234925000D01*
G75*
G02*
X110250000Y-234675000I250000J0D01*
G01*
X111450000Y-234675000D01*
G75*
G02*
X111700000Y-234925000I0J-250000D01*
G01*
X111700000Y-236275000D01*
G75*
G02*
X111450000Y-236525000I-250000J0D01*
G01*
X110250000Y-236525000D01*
G75*
G02*
X110000000Y-236275000I0J250000D01*
G01*
G37*
D22*
X113350000Y-235600000D03*
G04 #@! TD*
G04 #@! TO.C,J3*
X124100000Y-235600000D03*
G36*
G01*
X120750000Y-236275000D02*
X120750000Y-234925000D01*
G75*
G02*
X121000000Y-234675000I250000J0D01*
G01*
X122200000Y-234675000D01*
G75*
G02*
X122450000Y-234925000I0J-250000D01*
G01*
X122450000Y-236275000D01*
G75*
G02*
X122200000Y-236525000I-250000J0D01*
G01*
X121000000Y-236525000D01*
G75*
G02*
X120750000Y-236275000I0J250000D01*
G01*
G37*
G04 #@! TD*
G04 #@! TO.C,J4*
G36*
G01*
X99000000Y-236275000D02*
X99000000Y-234925000D01*
G75*
G02*
X99250000Y-234675000I250000J0D01*
G01*
X100450000Y-234675000D01*
G75*
G02*
X100700000Y-234925000I0J-250000D01*
G01*
X100700000Y-236275000D01*
G75*
G02*
X100450000Y-236525000I-250000J0D01*
G01*
X99250000Y-236525000D01*
G75*
G02*
X99000000Y-236275000I0J250000D01*
G01*
G37*
X102350000Y-235600000D03*
G04 #@! TD*
D30*
G04 #@! TO.C,Q2*
X166100000Y-87000000D03*
X171550000Y-87000000D03*
D31*
X177000000Y-87000000D03*
D32*
X171550000Y-106860000D03*
G04 #@! TD*
G04 #@! TO.C,Q3*
X172450000Y-150140000D03*
D31*
X167000000Y-170000000D03*
D30*
X172450000Y-170000000D03*
X177900000Y-170000000D03*
G04 #@! TD*
D18*
G04 #@! TO.C,D16*
X211660000Y-81540000D03*
D19*
X195000000Y-79000000D03*
D20*
X195000000Y-84080000D03*
G04 #@! TD*
D16*
G04 #@! TO.C,H1*
X26000000Y-246000000D03*
G04 #@! TD*
G04 #@! TO.C,H2*
X26000000Y-56000000D03*
G04 #@! TD*
G04 #@! TO.C,H3*
X396000000Y-56000000D03*
G04 #@! TD*
G04 #@! TO.C,H4*
X396000000Y-246000000D03*
G04 #@! TD*
G04 #@! TO.C,H5*
X205000000Y-56000000D03*
G04 #@! TD*
G04 #@! TO.C,H6*
X205000000Y-131000000D03*
G04 #@! TD*
G04 #@! TO.C,H7*
X205000000Y-246000000D03*
G04 #@! TD*
G04 #@! TO.C,R31*
G36*
G01*
X69925000Y-180425001D02*
X69925000Y-177574999D01*
G75*
G02*
X70174999Y-177325000I249999J0D01*
G01*
X70900001Y-177325000D01*
G75*
G02*
X71150000Y-177574999I0J-249999D01*
G01*
X71150000Y-180425001D01*
G75*
G02*
X70900001Y-180675000I-249999J0D01*
G01*
X70174999Y-180675000D01*
G75*
G02*
X69925000Y-180425001I0J249999D01*
G01*
G37*
G36*
G01*
X75850000Y-180425001D02*
X75850000Y-177574999D01*
G75*
G02*
X76099999Y-177325000I249999J0D01*
G01*
X76825001Y-177325000D01*
G75*
G02*
X77075000Y-177574999I0J-249999D01*
G01*
X77075000Y-180425001D01*
G75*
G02*
X76825001Y-180675000I-249999J0D01*
G01*
X76099999Y-180675000D01*
G75*
G02*
X75850000Y-180425001I0J249999D01*
G01*
G37*
G04 #@! TD*
G04 #@! TO.C,R32*
G36*
G01*
X75850000Y-176425001D02*
X75850000Y-173574999D01*
G75*
G02*
X76099999Y-173325000I249999J0D01*
G01*
X76825001Y-173325000D01*
G75*
G02*
X77075000Y-173574999I0J-249999D01*
G01*
X77075000Y-176425001D01*
G75*
G02*
X76825001Y-176675000I-249999J0D01*
G01*
X76099999Y-176675000D01*
G75*
G02*
X75850000Y-176425001I0J249999D01*
G01*
G37*
G36*
G01*
X69925000Y-176425001D02*
X69925000Y-173574999D01*
G75*
G02*
X70174999Y-173325000I249999J0D01*
G01*
X70900001Y-173325000D01*
G75*
G02*
X71150000Y-173574999I0J-249999D01*
G01*
X71150000Y-176425001D01*
G75*
G02*
X70900001Y-176675000I-249999J0D01*
G01*
X70174999Y-176675000D01*
G75*
G02*
X69925000Y-176425001I0J249999D01*
G01*
G37*
G04 #@! TD*
D33*
X49623000Y-88623000D02*
X44750000Y-88623000D01*
X44725224Y-88625440D01*
X44701399Y-88632667D01*
X44679443Y-88644403D01*
X44660197Y-88660197D01*
X44644403Y-88679443D01*
X44632667Y-88701399D01*
X44625440Y-88725224D01*
X44623000Y-88750000D01*
X44623000Y-146250000D01*
X44625440Y-146274776D01*
X44632667Y-146298601D01*
X44644403Y-146320557D01*
X44660197Y-146339803D01*
X44679443Y-146355597D01*
X44701399Y-146367333D01*
X44725224Y-146374560D01*
X44750000Y-146377000D01*
X49623000Y-146377000D01*
X49623000Y-157123000D01*
X48377000Y-157123000D01*
X48377000Y-148750000D01*
X48374560Y-148725224D01*
X48367333Y-148701399D01*
X48355597Y-148679443D01*
X48339803Y-148660197D01*
X48320557Y-148644403D01*
X48298601Y-148632667D01*
X48274776Y-148625440D01*
X48250000Y-148623000D01*
X42377000Y-148623000D01*
X42377000Y-86377000D01*
X47250000Y-86377000D01*
X47274776Y-86374560D01*
X47298601Y-86367333D01*
X47320557Y-86355597D01*
X47339803Y-86339803D01*
X47355597Y-86320557D01*
X47367333Y-86298601D01*
X47374560Y-86274776D01*
X47377000Y-86250000D01*
X47377000Y-78627000D01*
X49623000Y-78627000D01*
X49623000Y-88623000D01*
D34*
G36*
X49623000Y-88623000D02*
G01*
X44750000Y-88623000D01*
X44725224Y-88625440D01*
X44701399Y-88632667D01*
X44679443Y-88644403D01*
X44660197Y-88660197D01*
X44644403Y-88679443D01*
X44632667Y-88701399D01*
X44625440Y-88725224D01*
X44623000Y-88750000D01*
X44623000Y-146250000D01*
X44625440Y-146274776D01*
X44632667Y-146298601D01*
X44644403Y-146320557D01*
X44660197Y-146339803D01*
X44679443Y-146355597D01*
X44701399Y-146367333D01*
X44725224Y-146374560D01*
X44750000Y-146377000D01*
X49623000Y-146377000D01*
X49623000Y-157123000D01*
X48377000Y-157123000D01*
X48377000Y-148750000D01*
X48374560Y-148725224D01*
X48367333Y-148701399D01*
X48355597Y-148679443D01*
X48339803Y-148660197D01*
X48320557Y-148644403D01*
X48298601Y-148632667D01*
X48274776Y-148625440D01*
X48250000Y-148623000D01*
X42377000Y-148623000D01*
X42377000Y-86377000D01*
X47250000Y-86377000D01*
X47274776Y-86374560D01*
X47298601Y-86367333D01*
X47320557Y-86355597D01*
X47339803Y-86339803D01*
X47355597Y-86320557D01*
X47367333Y-86298601D01*
X47374560Y-86274776D01*
X47377000Y-86250000D01*
X47377000Y-78627000D01*
X49623000Y-78627000D01*
X49623000Y-88623000D01*
G37*
D33*
X57623000Y-93250000D02*
X57625440Y-93274776D01*
X57632667Y-93298601D01*
X57644403Y-93320557D01*
X57660197Y-93339803D01*
X57679443Y-93355597D01*
X57701399Y-93367333D01*
X57725224Y-93374560D01*
X57750000Y-93377000D01*
X60623000Y-93377000D01*
X60623000Y-100623000D01*
X57750000Y-100623000D01*
X57725224Y-100625440D01*
X57701399Y-100632667D01*
X57679443Y-100644403D01*
X57660197Y-100660197D01*
X57644403Y-100679443D01*
X57632667Y-100701399D01*
X57625440Y-100725224D01*
X57623000Y-100750000D01*
X57623000Y-157123000D01*
X55377000Y-157123000D01*
X55377000Y-78627000D01*
X57623000Y-78627000D01*
X57623000Y-93250000D01*
D34*
G36*
X57623000Y-93250000D02*
G01*
X57625440Y-93274776D01*
X57632667Y-93298601D01*
X57644403Y-93320557D01*
X57660197Y-93339803D01*
X57679443Y-93355597D01*
X57701399Y-93367333D01*
X57725224Y-93374560D01*
X57750000Y-93377000D01*
X60623000Y-93377000D01*
X60623000Y-100623000D01*
X57750000Y-100623000D01*
X57725224Y-100625440D01*
X57701399Y-100632667D01*
X57679443Y-100644403D01*
X57660197Y-100660197D01*
X57644403Y-100679443D01*
X57632667Y-100701399D01*
X57625440Y-100725224D01*
X57623000Y-100750000D01*
X57623000Y-157123000D01*
X55377000Y-157123000D01*
X55377000Y-78627000D01*
X57623000Y-78627000D01*
X57623000Y-93250000D01*
G37*
D33*
X66623000Y-86250000D02*
X66625440Y-86274776D01*
X66632667Y-86298601D01*
X66644403Y-86320557D01*
X66660197Y-86339803D01*
X66679443Y-86355597D01*
X66701399Y-86367333D01*
X66725224Y-86374560D01*
X66750000Y-86377000D01*
X75623000Y-86377000D01*
X75623000Y-147623000D01*
X65750000Y-147623000D01*
X65725224Y-147625440D01*
X65701399Y-147632667D01*
X65679443Y-147644403D01*
X65660197Y-147660197D01*
X65644403Y-147679443D01*
X65632667Y-147701399D01*
X65625440Y-147725224D01*
X65623000Y-147750000D01*
X65623000Y-157123000D01*
X63377000Y-157123000D01*
X63377000Y-145377000D01*
X71250000Y-145377000D01*
X71274776Y-145374560D01*
X71298601Y-145367333D01*
X71320557Y-145355597D01*
X71339803Y-145339803D01*
X71355597Y-145320557D01*
X71367333Y-145298601D01*
X71374560Y-145274776D01*
X71377000Y-145250000D01*
X71377000Y-88750000D01*
X71374560Y-88725224D01*
X71367333Y-88701399D01*
X71355597Y-88679443D01*
X71339803Y-88660197D01*
X71320557Y-88644403D01*
X71298601Y-88632667D01*
X71274776Y-88625440D01*
X71250000Y-88623000D01*
X64377000Y-88623000D01*
X64377000Y-78627000D01*
X66623000Y-78627000D01*
X66623000Y-86250000D01*
D34*
G36*
X66623000Y-86250000D02*
G01*
X66625440Y-86274776D01*
X66632667Y-86298601D01*
X66644403Y-86320557D01*
X66660197Y-86339803D01*
X66679443Y-86355597D01*
X66701399Y-86367333D01*
X66725224Y-86374560D01*
X66750000Y-86377000D01*
X75623000Y-86377000D01*
X75623000Y-147623000D01*
X65750000Y-147623000D01*
X65725224Y-147625440D01*
X65701399Y-147632667D01*
X65679443Y-147644403D01*
X65660197Y-147660197D01*
X65644403Y-147679443D01*
X65632667Y-147701399D01*
X65625440Y-147725224D01*
X65623000Y-147750000D01*
X65623000Y-157123000D01*
X63377000Y-157123000D01*
X63377000Y-145377000D01*
X71250000Y-145377000D01*
X71274776Y-145374560D01*
X71298601Y-145367333D01*
X71320557Y-145355597D01*
X71339803Y-145339803D01*
X71355597Y-145320557D01*
X71367333Y-145298601D01*
X71374560Y-145274776D01*
X71377000Y-145250000D01*
X71377000Y-88750000D01*
X71374560Y-88725224D01*
X71367333Y-88701399D01*
X71355597Y-88679443D01*
X71339803Y-88660197D01*
X71320557Y-88644403D01*
X71298601Y-88632667D01*
X71274776Y-88625440D01*
X71250000Y-88623000D01*
X64377000Y-88623000D01*
X64377000Y-78627000D01*
X66623000Y-78627000D01*
X66623000Y-86250000D01*
G37*
M02*
