M48
; DRILL file {KiCad (5.1.7)-1} date 03/09/21 01:47:13
; FORMAT={-:-/ absolute / metric / decimal}
; #@! TF.CreationDate,2021-03-09T01:47:13+02:00
; #@! TF.GenerationSoftware,Kicad,Pcbnew,(5.1.7)-1
; #@! TF.FileFunction,Plated,1,4,PTH
FMAT,2
METRIC
T1C0.400
T2C0.600
T3C0.800
T4C0.850
T5C1.000
T6C1.075
T7C1.090
T8C1.100
T9C1.200
T10C1.500
T11C1.700
T12C1.780
T13C1.950
T14C2.000
T15C3.800
%
G90
G05
T1
X25.0Y-80.0
X25.0Y-82.5
X25.0Y-85.0
X25.0Y-87.5
X25.0Y-90.0
X25.0Y-92.5
X25.0Y-95.0
X25.0Y-97.5
X25.0Y-100.0
X25.0Y-102.5
X25.0Y-105.0
X25.0Y-107.5
X25.0Y-110.0
X25.0Y-112.5
X25.0Y-115.0
X25.0Y-117.5
X25.0Y-120.0
X25.0Y-122.5
X25.0Y-125.0
X25.0Y-127.5
X25.0Y-130.0
X25.0Y-132.5
X25.0Y-135.0
X25.0Y-137.5
X25.0Y-140.0
X25.0Y-142.5
X25.0Y-145.0
X25.0Y-147.5
X25.0Y-150.0
X25.0Y-152.5
X25.0Y-155.0
X27.5Y-80.0
X27.5Y-82.5
X27.5Y-85.0
X27.5Y-87.5
X27.5Y-90.0
X27.5Y-92.5
X27.5Y-95.0
X27.5Y-97.5
X27.5Y-100.0
X27.5Y-102.5
X27.5Y-105.0
X27.5Y-107.5
X27.5Y-110.0
X27.5Y-112.5
X27.5Y-115.0
X27.5Y-117.5
X27.5Y-120.0
X27.5Y-122.5
X27.5Y-125.0
X27.5Y-127.5
X27.5Y-130.0
X27.5Y-132.5
X27.5Y-135.0
X27.5Y-137.5
X27.5Y-140.0
X27.5Y-142.5
X27.5Y-145.0
X27.5Y-147.5
X27.5Y-150.0
X27.5Y-152.5
X27.5Y-155.0
X41.515Y-197.882
X41.515Y-201.882
X41.515Y-205.882
X41.515Y-209.882
X41.515Y-213.882
X41.515Y-217.882
X41.515Y-221.882
X41.515Y-225.882
X41.515Y-229.882
X41.515Y-233.882
X41.515Y-237.882
X41.515Y-241.882
X43.515Y-199.882
X43.515Y-203.882
X43.515Y-207.882
X43.515Y-211.882
X43.515Y-215.882
X43.515Y-219.882
X43.515Y-223.882
X43.515Y-227.882
X43.515Y-231.882
X43.515Y-235.882
X43.515Y-239.882
X45.515Y-197.882
X45.515Y-201.882
X45.515Y-205.882
X45.515Y-209.882
X45.515Y-213.882
X45.515Y-217.882
X45.515Y-221.882
X45.515Y-225.882
X45.515Y-229.882
X45.515Y-233.882
X45.515Y-237.882
X45.515Y-241.882
X47.5Y-105.0
X47.5Y-107.5
X47.5Y-110.0
X47.5Y-112.5
X47.5Y-115.0
X47.5Y-117.5
X47.5Y-120.0
X47.5Y-122.5
X47.5Y-125.0
X47.5Y-127.5
X47.5Y-130.0
X47.5Y-132.5
X47.5Y-135.0
X47.5Y-137.5
X47.5Y-140.0
X47.5Y-142.5
X47.515Y-199.882
X47.515Y-203.882
X47.515Y-207.882
X47.515Y-211.882
X47.515Y-215.882
X47.515Y-219.882
X47.515Y-223.882
X47.515Y-227.882
X47.515Y-231.882
X47.515Y-235.882
X47.515Y-239.882
X49.515Y-197.882
X49.515Y-201.882
X49.515Y-205.882
X49.515Y-209.882
X49.515Y-213.882
X49.515Y-217.882
X49.515Y-221.882
X49.515Y-225.882
X49.515Y-229.882
X49.515Y-233.882
X49.515Y-237.882
X49.515Y-241.882
X50.0Y-105.0
X50.0Y-107.5
X50.0Y-110.0
X50.0Y-112.5
X50.0Y-115.0
X50.0Y-117.5
X50.0Y-120.0
X50.0Y-122.5
X50.0Y-125.0
X50.0Y-127.5
X50.0Y-130.0
X50.0Y-132.5
X50.0Y-135.0
X50.0Y-137.5
X50.0Y-140.0
X50.0Y-142.5
X51.515Y-199.882
X51.515Y-203.882
X51.515Y-207.882
X51.515Y-211.882
X51.515Y-215.882
X51.515Y-219.882
X51.515Y-223.882
X51.515Y-227.882
X51.515Y-231.882
X51.515Y-235.882
X51.515Y-239.882
X52.5Y-105.0
X52.5Y-107.5
X52.5Y-110.0
X52.5Y-112.5
X52.5Y-115.0
X52.5Y-117.5
X52.5Y-120.0
X52.5Y-122.5
X52.5Y-125.0
X52.5Y-127.5
X52.5Y-130.0
X52.5Y-132.5
X52.5Y-135.0
X52.5Y-137.5
X52.5Y-140.0
X52.5Y-142.5
X53.515Y-197.882
X53.515Y-201.882
X53.515Y-205.882
X53.515Y-209.882
X53.515Y-213.882
X53.515Y-217.882
X53.515Y-221.882
X53.515Y-225.882
X53.515Y-229.882
X53.515Y-233.882
X53.515Y-237.882
X53.515Y-241.882
X55.515Y-199.882
X55.515Y-203.882
X55.515Y-207.882
X55.515Y-211.882
X55.515Y-215.882
X55.515Y-219.882
X55.515Y-223.882
X55.515Y-227.882
X55.515Y-231.882
X55.515Y-235.882
X55.515Y-239.882
X57.515Y-197.882
X57.515Y-201.882
X57.515Y-205.882
X57.515Y-209.882
X57.515Y-213.882
X57.515Y-217.882
X57.515Y-221.882
X57.515Y-225.882
X57.515Y-229.882
X57.515Y-233.882
X57.515Y-237.882
X57.515Y-241.882
X59.515Y-199.882
X59.515Y-203.882
X59.515Y-207.882
X59.515Y-211.882
X59.515Y-215.882
X59.515Y-219.882
X59.515Y-223.882
X59.515Y-227.882
X59.515Y-231.882
X59.515Y-235.882
X59.515Y-239.882
X60.0Y-105.0
X60.0Y-107.5
X60.0Y-110.0
X60.0Y-112.5
X60.0Y-115.0
X60.0Y-117.5
X60.0Y-120.0
X60.0Y-122.5
X60.0Y-125.0
X60.0Y-127.5
X60.0Y-130.0
X60.0Y-132.5
X60.0Y-135.0
X60.0Y-137.5
X60.0Y-140.0
X60.0Y-142.5
X61.515Y-197.882
X61.515Y-213.882
X61.515Y-217.882
X61.515Y-221.882
X61.515Y-225.882
X61.515Y-229.882
X61.515Y-233.882
X61.515Y-237.882
X61.515Y-241.882
X62.5Y-105.0
X62.5Y-107.5
X62.5Y-110.0
X62.5Y-112.5
X62.5Y-115.0
X62.5Y-117.5
X62.5Y-120.0
X62.5Y-122.5
X62.5Y-125.0
X62.5Y-127.5
X62.5Y-130.0
X62.5Y-132.5
X62.5Y-135.0
X62.5Y-137.5
X62.5Y-140.0
X62.5Y-142.5
X63.515Y-223.882
X63.515Y-227.882
X63.515Y-231.882
X64.515Y-198.882
X65.0Y-105.0
X65.0Y-107.5
X65.0Y-110.0
X65.0Y-112.5
X65.0Y-115.0
X65.0Y-117.5
X65.0Y-120.0
X65.0Y-122.5
X65.0Y-125.0
X65.0Y-127.5
X65.0Y-130.0
X65.0Y-132.5
X65.0Y-135.0
X65.0Y-137.5
X65.0Y-140.0
X65.0Y-142.5
X67.0Y-238.0
X67.0Y-239.0
X67.0Y-240.0
X67.0Y-241.0
X67.5Y-105.0
X67.5Y-107.5
X67.5Y-110.0
X67.5Y-112.5
X67.5Y-115.0
X67.5Y-117.5
X67.5Y-120.0
X67.5Y-122.5
X67.5Y-125.0
X67.5Y-127.5
X67.5Y-130.0
X67.5Y-132.5
X67.5Y-135.0
X67.5Y-137.5
X67.5Y-140.0
X67.5Y-142.5
X67.515Y-197.882
X67.75Y-228.75
X68.0Y-238.0
X68.0Y-239.0
X68.0Y-240.0
X68.0Y-241.0
X68.1Y-219.9
X68.1Y-220.9
X69.0Y-238.0
X69.0Y-239.0
X69.0Y-240.0
X69.0Y-241.0
X70.0Y-105.0
X70.0Y-107.5
X70.0Y-110.0
X70.0Y-112.5
X70.0Y-115.0
X70.0Y-117.5
X70.0Y-120.0
X70.0Y-122.5
X70.0Y-125.0
X70.0Y-127.5
X70.0Y-130.0
X70.0Y-132.5
X70.0Y-135.0
X70.0Y-137.5
X70.0Y-140.0
X70.0Y-142.5
X70.0Y-238.0
X70.0Y-239.0
X70.0Y-240.0
X70.0Y-241.0
X70.515Y-198.882
X71.0Y-238.0
X71.0Y-239.0
X71.0Y-240.0
X71.0Y-241.0
X74.1Y-219.9
X74.1Y-220.9
X75.0Y-219.0
X76.1Y-219.0
X77.1Y-219.9
X77.1Y-220.9
X77.25Y-215.0
X77.25Y-216.0
X78.25Y-215.0
X78.25Y-216.0
X78.5Y-220.6
X79.521Y-209.827
X79.521Y-210.927
X79.85Y-220.6
X81.0Y-198.25
X81.0Y-199.25
X81.0Y-200.25
X82.0Y-198.25
X82.0Y-199.25
X82.0Y-200.25
X83.0Y-198.25
X83.0Y-199.25
X83.0Y-200.25
X84.0Y-211.25
X84.0Y-212.25
X84.0Y-213.25
X85.0Y-211.25
X85.0Y-212.25
X85.0Y-213.25
X85.5Y-237.0
X85.5Y-238.0
X85.5Y-239.0
X86.0Y-208.25
X86.0Y-209.25
X86.0Y-210.25
X86.0Y-211.25
X86.0Y-212.25
X86.0Y-213.25
X86.5Y-236.0
X86.5Y-239.0
X87.5Y-236.0
X87.5Y-239.0
X88.0Y-228.0
X88.5Y-236.0
X88.5Y-239.0
X89.0Y-228.0
X90.5Y-239.0
X90.5Y-240.0
X90.5Y-241.0
X91.5Y-239.0
X91.5Y-240.0
X91.5Y-241.0
X92.5Y-239.0
X92.5Y-240.0
X92.5Y-241.0
X96.515Y-241.882
X99.515Y-239.882
X101.515Y-241.882
X102.35Y-222.85
X103.0Y-210.5
X103.0Y-212.25
X103.35Y-222.85
X103.515Y-239.882
X104.35Y-222.85
X105.1Y-229.35
X105.35Y-222.85
X105.515Y-241.882
X106.1Y-229.35
X106.515Y-236.882
X107.515Y-239.882
X107.75Y-205.0
X108.0Y-218.5
X108.6Y-205.0
X109.5Y-205.0
X109.515Y-241.882
X110.0Y-218.0
X111.0Y-218.0
X111.515Y-239.882
X112.85Y-222.85
X113.1Y-205.1
X113.515Y-241.882
X113.85Y-222.85
X114.1Y-205.1
X114.85Y-222.85
X115.1Y-205.1
X115.35Y-225.85
X115.515Y-239.882
X115.85Y-222.85
X116.1Y-205.1
X116.25Y-198.1
X116.35Y-225.85
X117.515Y-236.882
X117.515Y-241.882
X117.6Y-198.1
X117.6Y-211.9
X117.6Y-213.4
X119.0Y-198.1
X119.515Y-239.882
X121.515Y-241.882
X121.6Y-221.85
X122.35Y-209.1
X122.35Y-210.1
X122.6Y-221.85
X123.515Y-239.882
X124.6Y-221.85
X124.85Y-208.85
X125.515Y-241.882
X125.6Y-221.85
X125.85Y-204.35
X126.85Y-204.35
X127.1Y-229.35
X127.515Y-239.882
X127.85Y-208.85
X128.0Y-214.5
X128.1Y-229.35
X128.515Y-236.882
X128.75Y-213.75
X129.515Y-233.882
X129.515Y-241.882
X130.515Y-238.882
X130.6Y-211.6
X130.6Y-212.85
X130.6Y-216.1
X130.6Y-217.6
X131.5Y-218.5
X131.515Y-235.882
X132.0Y-209.0
X132.0Y-210.0
X132.5Y-205.2
X132.5Y-206.5
X132.515Y-231.882
X132.515Y-240.882
X132.6Y-219.1
X132.6Y-220.1
X132.6Y-222.6
X132.6Y-223.6
X133.45Y-227.2
X133.5Y-209.0
X133.5Y-210.0
X133.5Y-219.1
X133.5Y-220.1
X133.515Y-237.882
X134.45Y-227.2
X134.515Y-233.882
X135.515Y-239.882
X136.515Y-235.882
X136.6Y-228.85
X137.515Y-232.882
X137.515Y-241.882
X137.6Y-228.85
X138.515Y-237.882
X162.088Y-168.588
X162.088Y-171.412
X162.5Y-86.5
X162.5Y-88.5
X162.5Y-90.5
X162.5Y-92.5
X162.5Y-94.5
X162.5Y-96.5
X162.5Y-98.5
X162.5Y-100.5
X162.5Y-102.5
X163.5Y-124.75
X163.5Y-126.25
X163.5Y-147.25
X164.5Y-86.5
X164.5Y-88.5
X164.5Y-90.5
X164.5Y-92.5
X164.5Y-94.5
X164.5Y-96.5
X164.5Y-98.5
X164.5Y-100.5
X164.5Y-102.5
X164.75Y-147.25
X164.85Y-133.25
X166.0Y-133.25
X166.0Y-147.25
X166.5Y-90.5
X166.5Y-92.5
X166.5Y-94.5
X166.5Y-96.5
X166.5Y-98.5
X166.5Y-100.5
X166.5Y-102.5
X168.145Y-131.155
X168.215Y-129.885
X168.5Y-92.5
X168.5Y-94.5
X168.5Y-96.5
X168.5Y-98.5
X168.5Y-100.5
X168.5Y-102.5
X171.355Y-131.155
X171.385Y-129.885
X172.75Y-115.5
X174.25Y-115.5
X174.5Y-208.5
X175.5Y-115.5
X176.0Y-208.5
X176.75Y-122.85
X176.75Y-135.75
X177.0Y-159.0
X177.0Y-161.0
X177.0Y-163.0
X177.0Y-165.0
X177.0Y-167.0
X178.0Y-119.25
X178.25Y-122.85
X178.25Y-135.75
X178.25Y-139.5
X178.25Y-206.5
X178.75Y-209.5
X179.0Y-159.0
X179.0Y-161.0
X179.0Y-163.0
X179.0Y-165.0
X179.0Y-167.0
X179.5Y-119.25
X179.75Y-139.5
X179.75Y-209.5
X181.0Y-119.25
X181.0Y-159.0
X181.0Y-161.0
X181.0Y-163.0
X181.0Y-165.0
X181.0Y-167.0
X181.0Y-169.0
X181.0Y-171.0
X181.25Y-139.5
X182.0Y-216.0
X182.0Y-218.0
X183.0Y-159.0
X183.0Y-161.0
X183.0Y-163.0
X183.0Y-165.0
X183.0Y-167.0
X183.0Y-169.0
X183.0Y-171.0
X184.0Y-93.0
X184.0Y-95.0
X184.0Y-201.0
X184.0Y-202.25
X184.0Y-203.5
X184.0Y-206.75
X184.0Y-208.0
X184.0Y-209.25
X184.0Y-216.0
X184.0Y-218.0
X186.0Y-216.0
X186.0Y-218.0
X186.0Y-220.0
X186.0Y-222.0
X186.0Y-224.0
X188.0Y-216.0
X188.0Y-220.0
X188.0Y-222.0
X188.0Y-224.0
X190.0Y-216.0
X190.0Y-220.0
X190.0Y-222.0
X190.0Y-224.0
X192.0Y-216.0
X192.0Y-220.0
X192.0Y-222.0
X192.0Y-224.0
X194.0Y-216.0
X194.0Y-218.0
X194.0Y-220.0
X194.0Y-222.0
X194.0Y-224.0
X196.0Y-216.0
X196.0Y-218.0
X196.0Y-220.0
X196.0Y-222.0
X196.0Y-224.0
X198.0Y-216.0
X198.0Y-218.0
X198.0Y-220.0
X198.0Y-222.0
X198.0Y-224.0
X200.0Y-216.0
X200.0Y-218.0
X200.0Y-220.0
X200.0Y-222.0
X200.0Y-224.0
X213.5Y-196.0
X213.5Y-198.5
X213.5Y-201.0
X216.0Y-196.0
X216.0Y-198.5
X216.0Y-201.0
X218.5Y-196.0
X218.5Y-198.5
X218.5Y-201.0
X221.0Y-193.5
X221.0Y-196.0
X221.0Y-198.5
X221.0Y-201.0
X223.5Y-193.5
X223.5Y-196.0
X223.5Y-198.5
X223.5Y-201.0
X226.0Y-193.5
X226.0Y-196.0
X226.0Y-198.5
X226.0Y-201.0
X228.5Y-181.0
X228.5Y-183.5
X228.5Y-186.0
X228.5Y-188.5
X228.5Y-191.0
X228.5Y-193.5
X228.5Y-201.0
X231.0Y-181.0
X231.0Y-183.5
X231.0Y-186.0
X231.0Y-188.5
X231.0Y-191.0
X231.0Y-193.5
X231.0Y-201.0
X233.5Y-181.0
X233.5Y-183.5
X233.5Y-186.0
X233.5Y-188.5
X233.5Y-191.0
X233.5Y-193.5
X233.5Y-196.0
X233.5Y-198.5
X233.5Y-201.0
X236.0Y-181.0
X236.0Y-183.5
X236.0Y-186.0
X236.0Y-188.5
X236.0Y-191.0
X236.0Y-193.5
X236.0Y-196.0
X236.0Y-198.5
X236.0Y-201.0
X382.5Y-207.5
X386.0Y-207.5
X393.0Y-121.0
X393.0Y-122.0
X394.0Y-121.0
X394.0Y-122.0
X395.0Y-121.0
X395.0Y-122.0
T2
X333.25Y-197.3
X335.25Y-192.3
X333.25Y-211.3
X335.25Y-206.3
T3
X75.5Y-220.5
X75.5Y-222.5
X70.75Y-205.75
X72.75Y-205.75
X87.25Y-237.5
X90.75Y-237.5
X69.5Y-220.5
X69.5Y-222.5
X91.5Y-206.5
X91.5Y-210.0
X91.5Y-215.25
X91.5Y-218.75
T4
X99.85Y-235.6
X102.35Y-235.6
X73.0Y-235.6
X75.5Y-235.6
X121.6Y-235.6
X124.1Y-235.6
X110.85Y-235.6
X113.35Y-235.6
X68.0Y-235.6
X70.5Y-235.6
T5
X324.25Y-207.8
X328.15Y-197.8
T6
X70.13Y-213.25
X72.67Y-213.25
X75.21Y-213.25
X77.75Y-213.25
T7
X193.435Y-202.49
X203.595Y-202.49
T8
X195.0Y-79.0
X195.0Y-84.08
X195.0Y-174.0
X195.0Y-179.08
T9
X85.0Y-96.0
X85.0Y-123.5
X315.75Y-192.3
X315.75Y-214.8
X259.5Y-192.55
X259.5Y-215.05
X316.0Y-222.5
X353.0Y-222.5
X194.0Y-93.0
X194.0Y-120.5
X215.0Y-93.0
X215.0Y-120.5
X215.0Y-137.5
X215.0Y-165.0
X194.0Y-137.5
X194.0Y-165.0
X218.5Y-192.5
X218.5Y-215.0
X85.0Y-130.5
X85.0Y-158.0
T10
X166.1Y-87.0
X171.55Y-87.0
X177.0Y-87.0
X167.0Y-170.0
X172.45Y-170.0
X177.9Y-170.0
X45.0Y-153.0
X52.5Y-153.0
X60.0Y-153.0
X70.0Y-153.0
X45.0Y-83.0
X52.5Y-83.0
X60.0Y-83.0
X70.0Y-83.0
T11
X357.75Y-190.475
X357.75Y-194.285
X357.75Y-200.482
X357.75Y-204.292
X357.75Y-210.49
X357.75Y-214.3
X370.247Y-190.475
X370.247Y-194.285
X370.247Y-200.482
X370.247Y-204.292
X370.247Y-210.49
X370.247Y-214.3
X358.75Y-116.95
X358.75Y-120.75
X371.25Y-126.95
X371.25Y-130.75
T14
X325.25Y-145.75
X325.25Y-155.75
X285.25Y-92.75
X285.25Y-102.75
X325.25Y-92.75
X325.25Y-102.75
X229.75Y-197.8
X229.75Y-208.8
X248.75Y-197.8
X248.75Y-208.8
X245.25Y-145.75
X245.25Y-155.75
X285.25Y-145.75
X285.25Y-155.75
X245.25Y-92.75
X245.25Y-102.75
X277.0Y-189.0
X277.0Y-194.0
X277.0Y-199.0
X277.0Y-209.0
X277.0Y-214.0
X277.0Y-219.0
X298.0Y-189.0
X298.0Y-194.0
X298.0Y-199.0
X298.0Y-209.0
X298.0Y-214.0
X298.0Y-219.0
T15
X129.0Y-72.0
X129.0Y-120.0
X129.0Y-134.0
X129.0Y-182.0
T12
G00X208.375Y-215.275
M15
G01X208.375Y-213.725
M16
G05
T13
G00X190.65Y-217.93
M15
G01X188.6Y-217.93
M16
G05
T0
M30
