G04 #@! TF.GenerationSoftware,KiCad,Pcbnew,(5.1.7)-1*
G04 #@! TF.CreationDate,2021-02-02T18:25:37+02:00*
G04 #@! TF.ProjectId,CP_inverter,43505f69-6e76-4657-9274-65722e6b6963,rev?*
G04 #@! TF.SameCoordinates,Original*
G04 #@! TF.FileFunction,Paste,Bot*
G04 #@! TF.FilePolarity,Positive*
%FSLAX46Y46*%
G04 Gerber Fmt 4.6, Leading zero omitted, Abs format (unit mm)*
G04 Created by KiCad (PCBNEW (5.1.7)-1) date 2021-02-02 18:25:37*
%MOMM*%
%LPD*%
G01*
G04 APERTURE LIST*
G04 APERTURE END LIST*
G04 #@! TO.C,C47*
G36*
G01*
X246350001Y-152800000D02*
X244149999Y-152800000D01*
G75*
G02*
X243900000Y-152550001I0J249999D01*
G01*
X243900000Y-151899999D01*
G75*
G02*
X244149999Y-151650000I249999J0D01*
G01*
X246350001Y-151650000D01*
G75*
G02*
X246600000Y-151899999I0J-249999D01*
G01*
X246600000Y-152550001D01*
G75*
G02*
X246350001Y-152800000I-249999J0D01*
G01*
G37*
G36*
G01*
X246350001Y-149850000D02*
X244149999Y-149850000D01*
G75*
G02*
X243900000Y-149600001I0J249999D01*
G01*
X243900000Y-148949999D01*
G75*
G02*
X244149999Y-148700000I249999J0D01*
G01*
X246350001Y-148700000D01*
G75*
G02*
X246600000Y-148949999I0J-249999D01*
G01*
X246600000Y-149600001D01*
G75*
G02*
X246350001Y-149850000I-249999J0D01*
G01*
G37*
G04 #@! TD*
G04 #@! TO.C,C48*
G36*
G01*
X286350001Y-149850000D02*
X284149999Y-149850000D01*
G75*
G02*
X283900000Y-149600001I0J249999D01*
G01*
X283900000Y-148949999D01*
G75*
G02*
X284149999Y-148700000I249999J0D01*
G01*
X286350001Y-148700000D01*
G75*
G02*
X286600000Y-148949999I0J-249999D01*
G01*
X286600000Y-149600001D01*
G75*
G02*
X286350001Y-149850000I-249999J0D01*
G01*
G37*
G36*
G01*
X286350001Y-152800000D02*
X284149999Y-152800000D01*
G75*
G02*
X283900000Y-152550001I0J249999D01*
G01*
X283900000Y-151899999D01*
G75*
G02*
X284149999Y-151650000I249999J0D01*
G01*
X286350001Y-151650000D01*
G75*
G02*
X286600000Y-151899999I0J-249999D01*
G01*
X286600000Y-152550001D01*
G75*
G02*
X286350001Y-152800000I-249999J0D01*
G01*
G37*
G04 #@! TD*
G04 #@! TO.C,C51*
G36*
G01*
X326350001Y-152800000D02*
X324149999Y-152800000D01*
G75*
G02*
X323900000Y-152550001I0J249999D01*
G01*
X323900000Y-151899999D01*
G75*
G02*
X324149999Y-151650000I249999J0D01*
G01*
X326350001Y-151650000D01*
G75*
G02*
X326600000Y-151899999I0J-249999D01*
G01*
X326600000Y-152550001D01*
G75*
G02*
X326350001Y-152800000I-249999J0D01*
G01*
G37*
G36*
G01*
X326350001Y-149850000D02*
X324149999Y-149850000D01*
G75*
G02*
X323900000Y-149600001I0J249999D01*
G01*
X323900000Y-148949999D01*
G75*
G02*
X324149999Y-148700000I249999J0D01*
G01*
X326350001Y-148700000D01*
G75*
G02*
X326600000Y-148949999I0J-249999D01*
G01*
X326600000Y-149600001D01*
G75*
G02*
X326350001Y-149850000I-249999J0D01*
G01*
G37*
G04 #@! TD*
G04 #@! TO.C,C52*
G36*
G01*
X244149999Y-98650000D02*
X246350001Y-98650000D01*
G75*
G02*
X246600000Y-98899999I0J-249999D01*
G01*
X246600000Y-99550001D01*
G75*
G02*
X246350001Y-99800000I-249999J0D01*
G01*
X244149999Y-99800000D01*
G75*
G02*
X243900000Y-99550001I0J249999D01*
G01*
X243900000Y-98899999D01*
G75*
G02*
X244149999Y-98650000I249999J0D01*
G01*
G37*
G36*
G01*
X244149999Y-95700000D02*
X246350001Y-95700000D01*
G75*
G02*
X246600000Y-95949999I0J-249999D01*
G01*
X246600000Y-96600001D01*
G75*
G02*
X246350001Y-96850000I-249999J0D01*
G01*
X244149999Y-96850000D01*
G75*
G02*
X243900000Y-96600001I0J249999D01*
G01*
X243900000Y-95949999D01*
G75*
G02*
X244149999Y-95700000I249999J0D01*
G01*
G37*
G04 #@! TD*
G04 #@! TO.C,C53*
G36*
G01*
X284149999Y-98650000D02*
X286350001Y-98650000D01*
G75*
G02*
X286600000Y-98899999I0J-249999D01*
G01*
X286600000Y-99550001D01*
G75*
G02*
X286350001Y-99800000I-249999J0D01*
G01*
X284149999Y-99800000D01*
G75*
G02*
X283900000Y-99550001I0J249999D01*
G01*
X283900000Y-98899999D01*
G75*
G02*
X284149999Y-98650000I249999J0D01*
G01*
G37*
G36*
G01*
X284149999Y-95700000D02*
X286350001Y-95700000D01*
G75*
G02*
X286600000Y-95949999I0J-249999D01*
G01*
X286600000Y-96600001D01*
G75*
G02*
X286350001Y-96850000I-249999J0D01*
G01*
X284149999Y-96850000D01*
G75*
G02*
X283900000Y-96600001I0J249999D01*
G01*
X283900000Y-95949999D01*
G75*
G02*
X284149999Y-95700000I249999J0D01*
G01*
G37*
G04 #@! TD*
G04 #@! TO.C,C54*
G36*
G01*
X324149999Y-95700000D02*
X326350001Y-95700000D01*
G75*
G02*
X326600000Y-95949999I0J-249999D01*
G01*
X326600000Y-96600001D01*
G75*
G02*
X326350001Y-96850000I-249999J0D01*
G01*
X324149999Y-96850000D01*
G75*
G02*
X323900000Y-96600001I0J249999D01*
G01*
X323900000Y-95949999D01*
G75*
G02*
X324149999Y-95700000I249999J0D01*
G01*
G37*
G36*
G01*
X324149999Y-98650000D02*
X326350001Y-98650000D01*
G75*
G02*
X326600000Y-98899999I0J-249999D01*
G01*
X326600000Y-99550001D01*
G75*
G02*
X326350001Y-99800000I-249999J0D01*
G01*
X324149999Y-99800000D01*
G75*
G02*
X323900000Y-99550001I0J249999D01*
G01*
X323900000Y-98899999D01*
G75*
G02*
X324149999Y-98650000I249999J0D01*
G01*
G37*
G04 #@! TD*
G04 #@! TO.C,R33*
G36*
G01*
X75835001Y-188425001D02*
X75835001Y-185574999D01*
G75*
G02*
X76085000Y-185325000I249999J0D01*
G01*
X76810002Y-185325000D01*
G75*
G02*
X77060001Y-185574999I0J-249999D01*
G01*
X77060001Y-188425001D01*
G75*
G02*
X76810002Y-188675000I-249999J0D01*
G01*
X76085000Y-188675000D01*
G75*
G02*
X75835001Y-188425001I0J249999D01*
G01*
G37*
G36*
G01*
X69910001Y-188425001D02*
X69910001Y-185574999D01*
G75*
G02*
X70160000Y-185325000I249999J0D01*
G01*
X70885002Y-185325000D01*
G75*
G02*
X71135001Y-185574999I0J-249999D01*
G01*
X71135001Y-188425001D01*
G75*
G02*
X70885002Y-188675000I-249999J0D01*
G01*
X70160000Y-188675000D01*
G75*
G02*
X69910001Y-188425001I0J249999D01*
G01*
G37*
G04 #@! TD*
G04 #@! TO.C,R34*
G36*
G01*
X69925000Y-184425001D02*
X69925000Y-181574999D01*
G75*
G02*
X70174999Y-181325000I249999J0D01*
G01*
X70900001Y-181325000D01*
G75*
G02*
X71150000Y-181574999I0J-249999D01*
G01*
X71150000Y-184425001D01*
G75*
G02*
X70900001Y-184675000I-249999J0D01*
G01*
X70174999Y-184675000D01*
G75*
G02*
X69925000Y-184425001I0J249999D01*
G01*
G37*
G36*
G01*
X75850000Y-184425001D02*
X75850000Y-181574999D01*
G75*
G02*
X76099999Y-181325000I249999J0D01*
G01*
X76825001Y-181325000D01*
G75*
G02*
X77075000Y-181574999I0J-249999D01*
G01*
X77075000Y-184425001D01*
G75*
G02*
X76825001Y-184675000I-249999J0D01*
G01*
X76099999Y-184675000D01*
G75*
G02*
X75850000Y-184425001I0J249999D01*
G01*
G37*
G04 #@! TD*
G04 #@! TO.C,R31*
G36*
G01*
X69925000Y-180425001D02*
X69925000Y-177574999D01*
G75*
G02*
X70174999Y-177325000I249999J0D01*
G01*
X70900001Y-177325000D01*
G75*
G02*
X71150000Y-177574999I0J-249999D01*
G01*
X71150000Y-180425001D01*
G75*
G02*
X70900001Y-180675000I-249999J0D01*
G01*
X70174999Y-180675000D01*
G75*
G02*
X69925000Y-180425001I0J249999D01*
G01*
G37*
G36*
G01*
X75850000Y-180425001D02*
X75850000Y-177574999D01*
G75*
G02*
X76099999Y-177325000I249999J0D01*
G01*
X76825001Y-177325000D01*
G75*
G02*
X77075000Y-177574999I0J-249999D01*
G01*
X77075000Y-180425001D01*
G75*
G02*
X76825001Y-180675000I-249999J0D01*
G01*
X76099999Y-180675000D01*
G75*
G02*
X75850000Y-180425001I0J249999D01*
G01*
G37*
G04 #@! TD*
G04 #@! TO.C,R32*
G36*
G01*
X75850000Y-176425001D02*
X75850000Y-173574999D01*
G75*
G02*
X76099999Y-173325000I249999J0D01*
G01*
X76825001Y-173325000D01*
G75*
G02*
X77075000Y-173574999I0J-249999D01*
G01*
X77075000Y-176425001D01*
G75*
G02*
X76825001Y-176675000I-249999J0D01*
G01*
X76099999Y-176675000D01*
G75*
G02*
X75850000Y-176425001I0J249999D01*
G01*
G37*
G36*
G01*
X69925000Y-176425001D02*
X69925000Y-173574999D01*
G75*
G02*
X70174999Y-173325000I249999J0D01*
G01*
X70900001Y-173325000D01*
G75*
G02*
X71150000Y-173574999I0J-249999D01*
G01*
X71150000Y-176425001D01*
G75*
G02*
X70900001Y-176675000I-249999J0D01*
G01*
X70174999Y-176675000D01*
G75*
G02*
X69925000Y-176425001I0J249999D01*
G01*
G37*
G04 #@! TD*
M02*
