G04 #@! TF.GenerationSoftware,KiCad,Pcbnew,(5.1.7)-1*
G04 #@! TF.CreationDate,2021-03-09T01:47:10+02:00*
G04 #@! TF.ProjectId,CP_inverter,43505f69-6e76-4657-9274-65722e6b6963,rev?*
G04 #@! TF.SameCoordinates,Original*
G04 #@! TF.FileFunction,Copper,L4,Bot*
G04 #@! TF.FilePolarity,Positive*
%FSLAX46Y46*%
G04 Gerber Fmt 4.6, Leading zero omitted, Abs format (unit mm)*
G04 Created by KiCad (PCBNEW (5.1.7)-1) date 2021-03-09 01:47:10*
%MOMM*%
%LPD*%
G01*
G04 APERTURE LIST*
G04 #@! TA.AperFunction,ComponentPad*
%ADD10C,3.000000*%
G04 #@! TD*
G04 #@! TA.AperFunction,ComponentPad*
%ADD11C,2.400000*%
G04 #@! TD*
G04 #@! TA.AperFunction,ComponentPad*
%ADD12R,1.600000X1.600000*%
G04 #@! TD*
G04 #@! TA.AperFunction,ComponentPad*
%ADD13C,1.600000*%
G04 #@! TD*
G04 #@! TA.AperFunction,ComponentPad*
%ADD14C,4.000000*%
G04 #@! TD*
G04 #@! TA.AperFunction,ComponentPad*
%ADD15R,4.000000X4.000000*%
G04 #@! TD*
G04 #@! TA.AperFunction,ComponentPad*
%ADD16R,3.000000X3.000000*%
G04 #@! TD*
G04 #@! TA.AperFunction,ComponentPad*
%ADD17R,2.000000X2.000000*%
G04 #@! TD*
G04 #@! TA.AperFunction,ComponentPad*
%ADD18O,2.000000X2.000000*%
G04 #@! TD*
G04 #@! TA.AperFunction,ComponentPad*
%ADD19C,3.500000*%
G04 #@! TD*
G04 #@! TA.AperFunction,ComponentPad*
%ADD20O,1.700000X1.850000*%
G04 #@! TD*
G04 #@! TA.AperFunction,ComponentPad*
%ADD21C,8.500000*%
G04 #@! TD*
G04 #@! TA.AperFunction,ComponentPad*
%ADD22C,2.000000*%
G04 #@! TD*
G04 #@! TA.AperFunction,ComponentPad*
%ADD23C,1.635000*%
G04 #@! TD*
G04 #@! TA.AperFunction,ComponentPad*
%ADD24O,5.850000X2.925000*%
G04 #@! TD*
G04 #@! TA.AperFunction,ComponentPad*
%ADD25O,2.670000X5.340000*%
G04 #@! TD*
G04 #@! TA.AperFunction,ComponentPad*
%ADD26O,1.750000X2.250000*%
G04 #@! TD*
G04 #@! TA.AperFunction,ComponentPad*
%ADD27R,1.750000X2.250000*%
G04 #@! TD*
G04 #@! TA.AperFunction,ComponentPad*
%ADD28O,2.500000X4.500000*%
G04 #@! TD*
G04 #@! TA.AperFunction,ComponentPad*
%ADD29R,2.500000X4.500000*%
G04 #@! TD*
G04 #@! TA.AperFunction,ViaPad*
%ADD30C,0.800000*%
G04 #@! TD*
G04 #@! TA.AperFunction,Conductor*
%ADD31C,0.800000*%
G04 #@! TD*
G04 #@! TA.AperFunction,Conductor*
%ADD32C,1.000000*%
G04 #@! TD*
G04 #@! TA.AperFunction,Conductor*
%ADD33C,3.000000*%
G04 #@! TD*
G04 #@! TA.AperFunction,Conductor*
%ADD34C,0.254000*%
G04 #@! TD*
G04 #@! TA.AperFunction,Conductor*
%ADD35C,0.100000*%
G04 #@! TD*
G04 APERTURE END LIST*
D10*
G04 #@! TO.P,J1,1*
G04 #@! TO.N,Net-(F1-Pad1)*
X370246800Y-214300000D03*
X370246800Y-210490000D03*
X357750000Y-214300000D03*
X357750000Y-210490000D03*
G04 #@! TO.P,J1,2*
G04 #@! TO.N,Earth*
X370246800Y-204292400D03*
X370246800Y-200482400D03*
X357750000Y-204292400D03*
X357750000Y-200482400D03*
G04 #@! TO.P,J1,3*
G04 #@! TO.N,Net-(C7-Pad2)*
X370246800Y-194284800D03*
X370246800Y-190474800D03*
X357750000Y-194284800D03*
X357750000Y-190474800D03*
G04 #@! TD*
D11*
G04 #@! TO.P,F1,2*
G04 #@! TO.N,Net-(C6-Pad1)*
X316000000Y-222500000D03*
G04 #@! TO.P,F1,1*
G04 #@! TO.N,Net-(F1-Pad1)*
X353000000Y-222500000D03*
G04 #@! TD*
G04 #@! TO.P,C33,1*
G04 #@! TO.N,VBUS*
X215000000Y-165000000D03*
G04 #@! TO.P,C33,2*
G04 #@! TO.N,GND*
X215000000Y-137500000D03*
G04 #@! TD*
G04 #@! TO.P,C9,1*
G04 #@! TO.N,Net-(C6-Pad1)*
X315750000Y-214800000D03*
G04 #@! TO.P,C9,2*
G04 #@! TO.N,Net-(C7-Pad2)*
X315750000Y-192300000D03*
G04 #@! TD*
G04 #@! TO.P,C17,1*
G04 #@! TO.N,Net-(C14-Pad1)*
X259500000Y-215050000D03*
G04 #@! TO.P,C17,2*
G04 #@! TO.N,Net-(C15-Pad2)*
X259500000Y-192550000D03*
G04 #@! TD*
G04 #@! TO.P,C19,2*
G04 #@! TO.N,AC_IN2*
X218500000Y-192500000D03*
G04 #@! TO.P,C19,1*
G04 #@! TO.N,AC_IN1*
X218500000Y-215000000D03*
G04 #@! TD*
D12*
G04 #@! TO.P,C23,1*
G04 #@! TO.N,Net-(C23-Pad1)*
X69500000Y-222500000D03*
D13*
G04 #@! TO.P,C23,2*
G04 #@! TO.N,GND*
X69500000Y-220500000D03*
G04 #@! TD*
D12*
G04 #@! TO.P,C24,1*
G04 #@! TO.N,Net-(C23-Pad1)*
X75500000Y-222500000D03*
D13*
G04 #@! TO.P,C24,2*
G04 #@! TO.N,GND*
X75500000Y-220500000D03*
G04 #@! TD*
D11*
G04 #@! TO.P,C27,1*
G04 #@! TO.N,Net-(C27-Pad1)*
X85000000Y-96000000D03*
G04 #@! TO.P,C27,2*
G04 #@! TO.N,GND*
X85000000Y-123500000D03*
G04 #@! TD*
G04 #@! TO.P,C28,1*
G04 #@! TO.N,Net-(C28-Pad1)*
X85000000Y-158000000D03*
G04 #@! TO.P,C28,2*
G04 #@! TO.N,GND*
X85000000Y-130500000D03*
G04 #@! TD*
D12*
G04 #@! TO.P,C30,1*
G04 #@! TO.N,VCC*
X90750000Y-237500000D03*
D13*
G04 #@! TO.P,C30,2*
G04 #@! TO.N,GND*
X87250000Y-237500000D03*
G04 #@! TD*
G04 #@! TO.P,C31,2*
G04 #@! TO.N,-5V*
X72750000Y-205750000D03*
D12*
G04 #@! TO.P,C31,1*
G04 #@! TO.N,Net-(C31-Pad1)*
X70750000Y-205750000D03*
G04 #@! TD*
D11*
G04 #@! TO.P,C32,2*
G04 #@! TO.N,GND*
X215000000Y-120500000D03*
G04 #@! TO.P,C32,1*
G04 #@! TO.N,VBUS*
X215000000Y-93000000D03*
G04 #@! TD*
G04 #@! TO.P,C35,2*
G04 #@! TO.N,GND*
X194000000Y-120500000D03*
G04 #@! TO.P,C35,1*
G04 #@! TO.N,VBUS*
X194000000Y-93000000D03*
G04 #@! TD*
G04 #@! TO.P,C36,2*
G04 #@! TO.N,GND*
X194000000Y-137500000D03*
G04 #@! TO.P,C36,1*
G04 #@! TO.N,VBUS*
X194000000Y-165000000D03*
G04 #@! TD*
D14*
G04 #@! TO.P,C37,2*
G04 #@! TO.N,GND*
X245250000Y-102750000D03*
D15*
G04 #@! TO.P,C37,1*
G04 #@! TO.N,VBUS*
X245250000Y-92750000D03*
G04 #@! TD*
G04 #@! TO.P,C38,1*
G04 #@! TO.N,VBUS*
X285250000Y-92750000D03*
D14*
G04 #@! TO.P,C38,2*
G04 #@! TO.N,GND*
X285250000Y-102750000D03*
G04 #@! TD*
D12*
G04 #@! TO.P,C39,1*
G04 #@! TO.N,+15V*
X91500000Y-218750000D03*
D13*
G04 #@! TO.P,C39,2*
G04 #@! TO.N,GND*
X91500000Y-215250000D03*
G04 #@! TD*
G04 #@! TO.P,C40,2*
G04 #@! TO.N,-5V*
X91500000Y-206500000D03*
D12*
G04 #@! TO.P,C40,1*
G04 #@! TO.N,GND*
X91500000Y-210000000D03*
G04 #@! TD*
D14*
G04 #@! TO.P,C41,2*
G04 #@! TO.N,GND*
X325250000Y-102750000D03*
D15*
G04 #@! TO.P,C41,1*
G04 #@! TO.N,VBUS*
X325250000Y-92750000D03*
G04 #@! TD*
G04 #@! TO.P,C44,1*
G04 #@! TO.N,VBUS*
X245250000Y-155750000D03*
D14*
G04 #@! TO.P,C44,2*
G04 #@! TO.N,GND*
X245250000Y-145750000D03*
G04 #@! TD*
D15*
G04 #@! TO.P,C45,1*
G04 #@! TO.N,VBUS*
X285250000Y-155750000D03*
D14*
G04 #@! TO.P,C45,2*
G04 #@! TO.N,GND*
X285250000Y-145750000D03*
G04 #@! TD*
G04 #@! TO.P,C46,2*
G04 #@! TO.N,GND*
X325250000Y-145750000D03*
D15*
G04 #@! TO.P,C46,1*
G04 #@! TO.N,VBUS*
X325250000Y-155750000D03*
G04 #@! TD*
G04 #@! TO.P,C47,1*
G04 #@! TO.N,VBUS*
G04 #@! TA.AperFunction,SMDPad,CuDef*
G36*
G01*
X246350001Y-152800000D02*
X244149999Y-152800000D01*
G75*
G02*
X243900000Y-152550001I0J249999D01*
G01*
X243900000Y-151899999D01*
G75*
G02*
X244149999Y-151650000I249999J0D01*
G01*
X246350001Y-151650000D01*
G75*
G02*
X246600000Y-151899999I0J-249999D01*
G01*
X246600000Y-152550001D01*
G75*
G02*
X246350001Y-152800000I-249999J0D01*
G01*
G37*
G04 #@! TD.AperFunction*
G04 #@! TO.P,C47,2*
G04 #@! TO.N,GND*
G04 #@! TA.AperFunction,SMDPad,CuDef*
G36*
G01*
X246350001Y-149850000D02*
X244149999Y-149850000D01*
G75*
G02*
X243900000Y-149600001I0J249999D01*
G01*
X243900000Y-148949999D01*
G75*
G02*
X244149999Y-148700000I249999J0D01*
G01*
X246350001Y-148700000D01*
G75*
G02*
X246600000Y-148949999I0J-249999D01*
G01*
X246600000Y-149600001D01*
G75*
G02*
X246350001Y-149850000I-249999J0D01*
G01*
G37*
G04 #@! TD.AperFunction*
G04 #@! TD*
G04 #@! TO.P,C48,2*
G04 #@! TO.N,GND*
G04 #@! TA.AperFunction,SMDPad,CuDef*
G36*
G01*
X286350001Y-149850000D02*
X284149999Y-149850000D01*
G75*
G02*
X283900000Y-149600001I0J249999D01*
G01*
X283900000Y-148949999D01*
G75*
G02*
X284149999Y-148700000I249999J0D01*
G01*
X286350001Y-148700000D01*
G75*
G02*
X286600000Y-148949999I0J-249999D01*
G01*
X286600000Y-149600001D01*
G75*
G02*
X286350001Y-149850000I-249999J0D01*
G01*
G37*
G04 #@! TD.AperFunction*
G04 #@! TO.P,C48,1*
G04 #@! TO.N,VBUS*
G04 #@! TA.AperFunction,SMDPad,CuDef*
G36*
G01*
X286350001Y-152800000D02*
X284149999Y-152800000D01*
G75*
G02*
X283900000Y-152550001I0J249999D01*
G01*
X283900000Y-151899999D01*
G75*
G02*
X284149999Y-151650000I249999J0D01*
G01*
X286350001Y-151650000D01*
G75*
G02*
X286600000Y-151899999I0J-249999D01*
G01*
X286600000Y-152550001D01*
G75*
G02*
X286350001Y-152800000I-249999J0D01*
G01*
G37*
G04 #@! TD.AperFunction*
G04 #@! TD*
G04 #@! TO.P,C51,1*
G04 #@! TO.N,VBUS*
G04 #@! TA.AperFunction,SMDPad,CuDef*
G36*
G01*
X326350001Y-152800000D02*
X324149999Y-152800000D01*
G75*
G02*
X323900000Y-152550001I0J249999D01*
G01*
X323900000Y-151899999D01*
G75*
G02*
X324149999Y-151650000I249999J0D01*
G01*
X326350001Y-151650000D01*
G75*
G02*
X326600000Y-151899999I0J-249999D01*
G01*
X326600000Y-152550001D01*
G75*
G02*
X326350001Y-152800000I-249999J0D01*
G01*
G37*
G04 #@! TD.AperFunction*
G04 #@! TO.P,C51,2*
G04 #@! TO.N,GND*
G04 #@! TA.AperFunction,SMDPad,CuDef*
G36*
G01*
X326350001Y-149850000D02*
X324149999Y-149850000D01*
G75*
G02*
X323900000Y-149600001I0J249999D01*
G01*
X323900000Y-148949999D01*
G75*
G02*
X324149999Y-148700000I249999J0D01*
G01*
X326350001Y-148700000D01*
G75*
G02*
X326600000Y-148949999I0J-249999D01*
G01*
X326600000Y-149600001D01*
G75*
G02*
X326350001Y-149850000I-249999J0D01*
G01*
G37*
G04 #@! TD.AperFunction*
G04 #@! TD*
G04 #@! TO.P,C52,2*
G04 #@! TO.N,GND*
G04 #@! TA.AperFunction,SMDPad,CuDef*
G36*
G01*
X244149999Y-98650000D02*
X246350001Y-98650000D01*
G75*
G02*
X246600000Y-98899999I0J-249999D01*
G01*
X246600000Y-99550001D01*
G75*
G02*
X246350001Y-99800000I-249999J0D01*
G01*
X244149999Y-99800000D01*
G75*
G02*
X243900000Y-99550001I0J249999D01*
G01*
X243900000Y-98899999D01*
G75*
G02*
X244149999Y-98650000I249999J0D01*
G01*
G37*
G04 #@! TD.AperFunction*
G04 #@! TO.P,C52,1*
G04 #@! TO.N,VBUS*
G04 #@! TA.AperFunction,SMDPad,CuDef*
G36*
G01*
X244149999Y-95700000D02*
X246350001Y-95700000D01*
G75*
G02*
X246600000Y-95949999I0J-249999D01*
G01*
X246600000Y-96600001D01*
G75*
G02*
X246350001Y-96850000I-249999J0D01*
G01*
X244149999Y-96850000D01*
G75*
G02*
X243900000Y-96600001I0J249999D01*
G01*
X243900000Y-95949999D01*
G75*
G02*
X244149999Y-95700000I249999J0D01*
G01*
G37*
G04 #@! TD.AperFunction*
G04 #@! TD*
G04 #@! TO.P,C53,2*
G04 #@! TO.N,GND*
G04 #@! TA.AperFunction,SMDPad,CuDef*
G36*
G01*
X284149999Y-98650000D02*
X286350001Y-98650000D01*
G75*
G02*
X286600000Y-98899999I0J-249999D01*
G01*
X286600000Y-99550001D01*
G75*
G02*
X286350001Y-99800000I-249999J0D01*
G01*
X284149999Y-99800000D01*
G75*
G02*
X283900000Y-99550001I0J249999D01*
G01*
X283900000Y-98899999D01*
G75*
G02*
X284149999Y-98650000I249999J0D01*
G01*
G37*
G04 #@! TD.AperFunction*
G04 #@! TO.P,C53,1*
G04 #@! TO.N,VBUS*
G04 #@! TA.AperFunction,SMDPad,CuDef*
G36*
G01*
X284149999Y-95700000D02*
X286350001Y-95700000D01*
G75*
G02*
X286600000Y-95949999I0J-249999D01*
G01*
X286600000Y-96600001D01*
G75*
G02*
X286350001Y-96850000I-249999J0D01*
G01*
X284149999Y-96850000D01*
G75*
G02*
X283900000Y-96600001I0J249999D01*
G01*
X283900000Y-95949999D01*
G75*
G02*
X284149999Y-95700000I249999J0D01*
G01*
G37*
G04 #@! TD.AperFunction*
G04 #@! TD*
G04 #@! TO.P,C54,1*
G04 #@! TO.N,VBUS*
G04 #@! TA.AperFunction,SMDPad,CuDef*
G36*
G01*
X324149999Y-95700000D02*
X326350001Y-95700000D01*
G75*
G02*
X326600000Y-95949999I0J-249999D01*
G01*
X326600000Y-96600001D01*
G75*
G02*
X326350001Y-96850000I-249999J0D01*
G01*
X324149999Y-96850000D01*
G75*
G02*
X323900000Y-96600001I0J249999D01*
G01*
X323900000Y-95949999D01*
G75*
G02*
X324149999Y-95700000I249999J0D01*
G01*
G37*
G04 #@! TD.AperFunction*
G04 #@! TO.P,C54,2*
G04 #@! TO.N,GND*
G04 #@! TA.AperFunction,SMDPad,CuDef*
G36*
G01*
X324149999Y-98650000D02*
X326350001Y-98650000D01*
G75*
G02*
X326600000Y-98899999I0J-249999D01*
G01*
X326600000Y-99550001D01*
G75*
G02*
X326350001Y-99800000I-249999J0D01*
G01*
X324149999Y-99800000D01*
G75*
G02*
X323900000Y-99550001I0J249999D01*
G01*
X323900000Y-98899999D01*
G75*
G02*
X324149999Y-98650000I249999J0D01*
G01*
G37*
G04 #@! TD.AperFunction*
G04 #@! TD*
D16*
G04 #@! TO.P,D11,1*
G04 #@! TO.N,Net-(C27-Pad1)*
X70000000Y-83000000D03*
D10*
G04 #@! TO.P,D11,2*
G04 #@! TO.N,Net-(D11-Pad2)*
X60000000Y-83000000D03*
G04 #@! TO.P,D11,3*
G04 #@! TO.N,AC_IN2*
X52500000Y-83000000D03*
G04 #@! TO.P,D11,4*
G04 #@! TO.N,CS1*
X45000000Y-83000000D03*
G04 #@! TD*
G04 #@! TO.P,D12,4*
G04 #@! TO.N,CS1*
X45000000Y-153000000D03*
G04 #@! TO.P,D12,3*
G04 #@! TO.N,AC_IN2*
X52500000Y-153000000D03*
G04 #@! TO.P,D12,2*
G04 #@! TO.N,Net-(D11-Pad2)*
X60000000Y-153000000D03*
D16*
G04 #@! TO.P,D12,1*
G04 #@! TO.N,Net-(C28-Pad1)*
X70000000Y-153000000D03*
G04 #@! TD*
D17*
G04 #@! TO.P,D18,1*
G04 #@! TO.N,VBUS*
X195000000Y-174000000D03*
D18*
G04 #@! TO.P,D18,2*
G04 #@! TO.N,Net-(D18-Pad2)*
X195000000Y-179080000D03*
G04 #@! TD*
D19*
G04 #@! TO.P,FL1,1*
G04 #@! TO.N,Net-(C6-Pad1)*
X298000000Y-209000000D03*
G04 #@! TO.P,FL1,2*
G04 #@! TO.N,Net-(C14-Pad1)*
X277000000Y-209000000D03*
G04 #@! TO.P,FL1,1*
G04 #@! TO.N,Net-(C6-Pad1)*
X298000000Y-214000000D03*
X298000000Y-219000000D03*
G04 #@! TO.P,FL1,2*
G04 #@! TO.N,Net-(C14-Pad1)*
X277000000Y-219000000D03*
X277000000Y-214000000D03*
G04 #@! TO.P,FL1,3*
G04 #@! TO.N,Net-(C7-Pad2)*
X298000000Y-189000000D03*
X298000000Y-199000000D03*
X298000000Y-194000000D03*
G04 #@! TO.P,FL1,4*
G04 #@! TO.N,Net-(C15-Pad2)*
X277000000Y-194000000D03*
X277000000Y-189000000D03*
X277000000Y-199000000D03*
G04 #@! TD*
G04 #@! TO.P,FL2,1*
G04 #@! TO.N,Net-(C14-Pad1)*
X248750000Y-208800000D03*
G04 #@! TO.P,FL2,2*
G04 #@! TO.N,AC_IN1*
X229750000Y-208800000D03*
G04 #@! TO.P,FL2,4*
G04 #@! TO.N,AC_IN2*
X229750000Y-197800000D03*
G04 #@! TO.P,FL2,3*
G04 #@! TO.N,Net-(C15-Pad2)*
X248750000Y-197800000D03*
G04 #@! TD*
G04 #@! TO.P,J5,1*
G04 #@! TO.N,GND*
G04 #@! TA.AperFunction,ComponentPad*
G36*
G01*
X67150000Y-236275000D02*
X67150000Y-234925000D01*
G75*
G02*
X67400000Y-234675000I250000J0D01*
G01*
X68600000Y-234675000D01*
G75*
G02*
X68850000Y-234925000I0J-250000D01*
G01*
X68850000Y-236275000D01*
G75*
G02*
X68600000Y-236525000I-250000J0D01*
G01*
X67400000Y-236525000D01*
G75*
G02*
X67150000Y-236275000I0J250000D01*
G01*
G37*
G04 #@! TD.AperFunction*
D20*
G04 #@! TO.P,J5,2*
X70500000Y-235600000D03*
G04 #@! TO.P,J5,3*
G04 #@! TO.N,Net-(F2-Pad2)*
X73000000Y-235600000D03*
G04 #@! TO.P,J5,4*
X75500000Y-235600000D03*
G04 #@! TD*
D10*
G04 #@! TO.P,J6,1*
G04 #@! TO.N,VBUS*
X371250000Y-130750000D03*
G04 #@! TO.P,J6,2*
G04 #@! TO.N,GND*
X358750000Y-120750000D03*
G04 #@! TO.P,J6,1*
G04 #@! TO.N,VBUS*
X371250000Y-126950000D03*
G04 #@! TO.P,J6,2*
G04 #@! TO.N,GND*
X358750000Y-116950000D03*
G04 #@! TD*
D21*
G04 #@! TO.P,L2,2*
G04 #@! TO.N,Net-(D16-Pad2)*
X129000000Y-72000000D03*
G04 #@! TO.P,L2,1*
G04 #@! TO.N,Net-(C27-Pad1)*
X129000000Y-120000000D03*
G04 #@! TD*
G04 #@! TO.P,L3,1*
G04 #@! TO.N,Net-(C28-Pad1)*
X129000000Y-134000000D03*
G04 #@! TO.P,L3,2*
G04 #@! TO.N,Net-(D18-Pad2)*
X129000000Y-182000000D03*
G04 #@! TD*
G04 #@! TO.P,R33,2*
G04 #@! TO.N,GND*
G04 #@! TA.AperFunction,SMDPad,CuDef*
G36*
G01*
X75835001Y-188425001D02*
X75835001Y-185574999D01*
G75*
G02*
X76085000Y-185325000I249999J0D01*
G01*
X76810002Y-185325000D01*
G75*
G02*
X77060001Y-185574999I0J-249999D01*
G01*
X77060001Y-188425001D01*
G75*
G02*
X76810002Y-188675000I-249999J0D01*
G01*
X76085000Y-188675000D01*
G75*
G02*
X75835001Y-188425001I0J249999D01*
G01*
G37*
G04 #@! TD.AperFunction*
G04 #@! TO.P,R33,1*
G04 #@! TO.N,CS1*
G04 #@! TA.AperFunction,SMDPad,CuDef*
G36*
G01*
X69910001Y-188425001D02*
X69910001Y-185574999D01*
G75*
G02*
X70160000Y-185325000I249999J0D01*
G01*
X70885002Y-185325000D01*
G75*
G02*
X71135001Y-185574999I0J-249999D01*
G01*
X71135001Y-188425001D01*
G75*
G02*
X70885002Y-188675000I-249999J0D01*
G01*
X70160000Y-188675000D01*
G75*
G02*
X69910001Y-188425001I0J249999D01*
G01*
G37*
G04 #@! TD.AperFunction*
G04 #@! TD*
G04 #@! TO.P,R34,1*
G04 #@! TO.N,CS1*
G04 #@! TA.AperFunction,SMDPad,CuDef*
G36*
G01*
X69925000Y-184425001D02*
X69925000Y-181574999D01*
G75*
G02*
X70174999Y-181325000I249999J0D01*
G01*
X70900001Y-181325000D01*
G75*
G02*
X71150000Y-181574999I0J-249999D01*
G01*
X71150000Y-184425001D01*
G75*
G02*
X70900001Y-184675000I-249999J0D01*
G01*
X70174999Y-184675000D01*
G75*
G02*
X69925000Y-184425001I0J249999D01*
G01*
G37*
G04 #@! TD.AperFunction*
G04 #@! TO.P,R34,2*
G04 #@! TO.N,GND*
G04 #@! TA.AperFunction,SMDPad,CuDef*
G36*
G01*
X75850000Y-184425001D02*
X75850000Y-181574999D01*
G75*
G02*
X76099999Y-181325000I249999J0D01*
G01*
X76825001Y-181325000D01*
G75*
G02*
X77075000Y-181574999I0J-249999D01*
G01*
X77075000Y-184425001D01*
G75*
G02*
X76825001Y-184675000I-249999J0D01*
G01*
X76099999Y-184675000D01*
G75*
G02*
X75850000Y-184425001I0J249999D01*
G01*
G37*
G04 #@! TD.AperFunction*
G04 #@! TD*
D13*
G04 #@! TO.P,RV1,1*
G04 #@! TO.N,Net-(C6-Pad1)*
X333250000Y-211300000D03*
G04 #@! TO.P,RV1,2*
G04 #@! TO.N,Earth*
X335250000Y-206300000D03*
G04 #@! TD*
G04 #@! TO.P,RV2,2*
G04 #@! TO.N,Net-(C7-Pad2)*
X335250000Y-192300000D03*
G04 #@! TO.P,RV2,1*
G04 #@! TO.N,Earth*
X333250000Y-197300000D03*
G04 #@! TD*
D22*
G04 #@! TO.P,RV3,1*
G04 #@! TO.N,Net-(C6-Pad1)*
X324250000Y-207800000D03*
G04 #@! TO.P,RV3,2*
G04 #@! TO.N,Net-(C7-Pad2)*
X328150000Y-197800000D03*
G04 #@! TD*
D23*
G04 #@! TO.P,U5,1*
G04 #@! TO.N,Net-(C20-Pad2)*
X193435000Y-202490000D03*
G04 #@! TO.P,U5,2*
G04 #@! TO.N,Net-(C20-Pad1)*
X203595000Y-202490000D03*
D24*
G04 #@! TO.P,U5,4*
G04 #@! TO.N,Net-(D11-Pad2)*
X189625000Y-217930000D03*
D25*
G04 #@! TO.P,U5,3*
G04 #@! TO.N,AC_IN1*
X208375000Y-214500000D03*
G04 #@! TD*
D26*
G04 #@! TO.P,U7,4*
G04 #@! TO.N,Net-(D19-Pad2)*
X70130000Y-213250000D03*
G04 #@! TO.P,U7,3*
G04 #@! TO.N,-5V*
X72670000Y-213250000D03*
G04 #@! TO.P,U7,2*
G04 #@! TO.N,Net-(C25-Pad1)*
X75210000Y-213250000D03*
D27*
G04 #@! TO.P,U7,1*
G04 #@! TO.N,GND*
X77750000Y-213250000D03*
G04 #@! TD*
G04 #@! TO.P,J2,1*
G04 #@! TO.N,PGOOD_SIGNAL-*
G04 #@! TA.AperFunction,ComponentPad*
G36*
G01*
X110000000Y-236275000D02*
X110000000Y-234925000D01*
G75*
G02*
X110250000Y-234675000I250000J0D01*
G01*
X111450000Y-234675000D01*
G75*
G02*
X111700000Y-234925000I0J-250000D01*
G01*
X111700000Y-236275000D01*
G75*
G02*
X111450000Y-236525000I-250000J0D01*
G01*
X110250000Y-236525000D01*
G75*
G02*
X110000000Y-236275000I0J250000D01*
G01*
G37*
G04 #@! TD.AperFunction*
D20*
G04 #@! TO.P,J2,2*
G04 #@! TO.N,PGOOD_SIGNAL+*
X113350000Y-235600000D03*
G04 #@! TD*
G04 #@! TO.P,J3,2*
G04 #@! TO.N,PFC_ENBL+*
X124100000Y-235600000D03*
G04 #@! TO.P,J3,1*
G04 #@! TO.N,PFC_ENBL-*
G04 #@! TA.AperFunction,ComponentPad*
G36*
G01*
X120750000Y-236275000D02*
X120750000Y-234925000D01*
G75*
G02*
X121000000Y-234675000I250000J0D01*
G01*
X122200000Y-234675000D01*
G75*
G02*
X122450000Y-234925000I0J-250000D01*
G01*
X122450000Y-236275000D01*
G75*
G02*
X122200000Y-236525000I-250000J0D01*
G01*
X121000000Y-236525000D01*
G75*
G02*
X120750000Y-236275000I0J250000D01*
G01*
G37*
G04 #@! TD.AperFunction*
G04 #@! TD*
G04 #@! TO.P,J4,1*
G04 #@! TO.N,BOFO_ENBL-*
G04 #@! TA.AperFunction,ComponentPad*
G36*
G01*
X99000000Y-236275000D02*
X99000000Y-234925000D01*
G75*
G02*
X99250000Y-234675000I250000J0D01*
G01*
X100450000Y-234675000D01*
G75*
G02*
X100700000Y-234925000I0J-250000D01*
G01*
X100700000Y-236275000D01*
G75*
G02*
X100450000Y-236525000I-250000J0D01*
G01*
X99250000Y-236525000D01*
G75*
G02*
X99000000Y-236275000I0J250000D01*
G01*
G37*
G04 #@! TD.AperFunction*
G04 #@! TO.P,J4,2*
G04 #@! TO.N,BOFO_ENBL+*
X102350000Y-235600000D03*
G04 #@! TD*
D28*
G04 #@! TO.P,Q2,3*
G04 #@! TO.N,GND*
X166100000Y-87000000D03*
G04 #@! TO.P,Q2,2*
G04 #@! TO.N,Net-(D16-Pad2)*
X171550000Y-87000000D03*
D29*
G04 #@! TO.P,Q2,1*
G04 #@! TO.N,Net-(Q2-Pad1)*
X177000000Y-87000000D03*
G04 #@! TD*
G04 #@! TO.P,Q3,1*
G04 #@! TO.N,Net-(Q3-Pad1)*
X167000000Y-170000000D03*
D28*
G04 #@! TO.P,Q3,2*
G04 #@! TO.N,Net-(D18-Pad2)*
X172450000Y-170000000D03*
G04 #@! TO.P,Q3,3*
G04 #@! TO.N,GND*
X177900000Y-170000000D03*
G04 #@! TD*
D17*
G04 #@! TO.P,D16,1*
G04 #@! TO.N,VBUS*
X195000000Y-79000000D03*
D18*
G04 #@! TO.P,D16,2*
G04 #@! TO.N,Net-(D16-Pad2)*
X195000000Y-84080000D03*
G04 #@! TD*
G04 #@! TO.P,R31,1*
G04 #@! TO.N,CS1*
G04 #@! TA.AperFunction,SMDPad,CuDef*
G36*
G01*
X69925000Y-180425001D02*
X69925000Y-177574999D01*
G75*
G02*
X70174999Y-177325000I249999J0D01*
G01*
X70900001Y-177325000D01*
G75*
G02*
X71150000Y-177574999I0J-249999D01*
G01*
X71150000Y-180425001D01*
G75*
G02*
X70900001Y-180675000I-249999J0D01*
G01*
X70174999Y-180675000D01*
G75*
G02*
X69925000Y-180425001I0J249999D01*
G01*
G37*
G04 #@! TD.AperFunction*
G04 #@! TO.P,R31,2*
G04 #@! TO.N,GND*
G04 #@! TA.AperFunction,SMDPad,CuDef*
G36*
G01*
X75850000Y-180425001D02*
X75850000Y-177574999D01*
G75*
G02*
X76099999Y-177325000I249999J0D01*
G01*
X76825001Y-177325000D01*
G75*
G02*
X77075000Y-177574999I0J-249999D01*
G01*
X77075000Y-180425001D01*
G75*
G02*
X76825001Y-180675000I-249999J0D01*
G01*
X76099999Y-180675000D01*
G75*
G02*
X75850000Y-180425001I0J249999D01*
G01*
G37*
G04 #@! TD.AperFunction*
G04 #@! TD*
G04 #@! TO.P,R32,2*
G04 #@! TO.N,GND*
G04 #@! TA.AperFunction,SMDPad,CuDef*
G36*
G01*
X75850000Y-176425001D02*
X75850000Y-173574999D01*
G75*
G02*
X76099999Y-173325000I249999J0D01*
G01*
X76825001Y-173325000D01*
G75*
G02*
X77075000Y-173574999I0J-249999D01*
G01*
X77075000Y-176425001D01*
G75*
G02*
X76825001Y-176675000I-249999J0D01*
G01*
X76099999Y-176675000D01*
G75*
G02*
X75850000Y-176425001I0J249999D01*
G01*
G37*
G04 #@! TD.AperFunction*
G04 #@! TO.P,R32,1*
G04 #@! TO.N,CS1*
G04 #@! TA.AperFunction,SMDPad,CuDef*
G36*
G01*
X69925000Y-176425001D02*
X69925000Y-173574999D01*
G75*
G02*
X70174999Y-173325000I249999J0D01*
G01*
X70900001Y-173325000D01*
G75*
G02*
X71150000Y-173574999I0J-249999D01*
G01*
X71150000Y-176425001D01*
G75*
G02*
X70900001Y-176675000I-249999J0D01*
G01*
X70174999Y-176675000D01*
G75*
G02*
X69925000Y-176425001I0J249999D01*
G01*
G37*
G04 #@! TD.AperFunction*
G04 #@! TD*
D30*
G04 #@! TO.N,Net-(C7-Pad2)*
X386000000Y-207500000D03*
X382500000Y-207500000D03*
G04 #@! TO.N,VCC*
X184000000Y-209250000D03*
X90500000Y-239000000D03*
X90500000Y-240000000D03*
X90500000Y-241000000D03*
X91500000Y-239000000D03*
X91500000Y-240000000D03*
X91500000Y-241000000D03*
X92500000Y-241000000D03*
X92500000Y-240000000D03*
X92500000Y-239000000D03*
X127850000Y-208850000D03*
X124850000Y-208850000D03*
X184000000Y-206750000D03*
X184000000Y-202250000D03*
X184000000Y-208000000D03*
X184000000Y-201000000D03*
X184000000Y-203500000D03*
X175500000Y-115500000D03*
X174250000Y-115500000D03*
X172750000Y-115500000D03*
G04 #@! TO.N,AC_IN2*
X52500000Y-122500000D03*
X52500000Y-135000000D03*
X52500000Y-132500000D03*
X52500000Y-115000000D03*
X52500000Y-105000000D03*
X52500000Y-110000000D03*
X52500000Y-130000000D03*
X52500000Y-125000000D03*
X52500000Y-127500000D03*
X52500000Y-112500000D03*
X52500000Y-107500000D03*
X52500000Y-117500000D03*
X52500000Y-120000000D03*
X52500000Y-140000000D03*
X52500000Y-137500000D03*
X52500000Y-142500000D03*
X50000000Y-122500000D03*
X50000000Y-135000000D03*
X50000000Y-132500000D03*
X50000000Y-115000000D03*
X50000000Y-105000000D03*
X50000000Y-110000000D03*
X50000000Y-130000000D03*
X50000000Y-125000000D03*
X50000000Y-127500000D03*
X50000000Y-112500000D03*
X50000000Y-107500000D03*
X50000000Y-117500000D03*
X50000000Y-120000000D03*
X50000000Y-140000000D03*
X50000000Y-137500000D03*
X50000000Y-142500000D03*
X47500000Y-122500000D03*
X47500000Y-135000000D03*
X47500000Y-132500000D03*
X47500000Y-115000000D03*
X47500000Y-105000000D03*
X47500000Y-110000000D03*
X47500000Y-130000000D03*
X47500000Y-125000000D03*
X47500000Y-127500000D03*
X47500000Y-112500000D03*
X47500000Y-107500000D03*
X47500000Y-117500000D03*
X47500000Y-120000000D03*
X47500000Y-140000000D03*
X47500000Y-137500000D03*
X47500000Y-142500000D03*
X213500000Y-201000000D03*
X216000000Y-201000000D03*
X218500000Y-201000000D03*
X221000000Y-201000000D03*
X223500000Y-201000000D03*
X226000000Y-201000000D03*
X228500000Y-201000000D03*
X231000000Y-201000000D03*
X233500000Y-201000000D03*
X213500000Y-198500000D03*
X213500000Y-196000000D03*
X216000000Y-196000000D03*
X218500000Y-196000000D03*
X221000000Y-196000000D03*
X223500000Y-196000000D03*
X226000000Y-196000000D03*
X226000000Y-193500000D03*
X223500000Y-193500000D03*
X221000000Y-193500000D03*
X221000000Y-198500000D03*
X223500000Y-198500000D03*
X226000000Y-198500000D03*
X218500000Y-198500000D03*
X216000000Y-198500000D03*
X233500000Y-198500000D03*
X233500000Y-196000000D03*
X233500000Y-193500000D03*
X231000000Y-193500000D03*
X228500000Y-193500000D03*
X236000000Y-201000000D03*
X236000000Y-198500000D03*
X236000000Y-196000000D03*
X236000000Y-193500000D03*
X231000000Y-191000000D03*
X233500000Y-191000000D03*
X236000000Y-191000000D03*
X236000000Y-188500000D03*
X236000000Y-186000000D03*
X236000000Y-183500000D03*
X236000000Y-181000000D03*
X233500000Y-181000000D03*
X233500000Y-183500000D03*
X233500000Y-186000000D03*
X233500000Y-188500000D03*
X231000000Y-188500000D03*
X231000000Y-186000000D03*
X231000000Y-183500000D03*
X231000000Y-181000000D03*
X228500000Y-181000000D03*
X228500000Y-183500000D03*
X228500000Y-186000000D03*
X228500000Y-188500000D03*
X228500000Y-191000000D03*
G04 #@! TO.N,CS1*
X27500000Y-97500000D03*
X27500000Y-110000000D03*
X27500000Y-107500000D03*
X27500000Y-90000000D03*
X27500000Y-80000000D03*
X27500000Y-85000000D03*
X27500000Y-105000000D03*
X27500000Y-100000000D03*
X27500000Y-102500000D03*
X27500000Y-87500000D03*
X27500000Y-82500000D03*
X27500000Y-92500000D03*
X27500000Y-95000000D03*
X27500000Y-115000000D03*
X27500000Y-112500000D03*
X27500000Y-117500000D03*
X27500000Y-137500000D03*
X27500000Y-150000000D03*
X27500000Y-147500000D03*
X27500000Y-130000000D03*
X27500000Y-120000000D03*
X27500000Y-125000000D03*
X27500000Y-145000000D03*
X27500000Y-140000000D03*
X27500000Y-142500000D03*
X27500000Y-127500000D03*
X27500000Y-122500000D03*
X27500000Y-132500000D03*
X27500000Y-135000000D03*
X27500000Y-155000000D03*
X27500000Y-152500000D03*
X107750000Y-205000000D03*
X109500000Y-205000000D03*
X25000000Y-80000000D03*
X25000000Y-82500000D03*
X25000000Y-85000000D03*
X25000000Y-87500000D03*
X25000000Y-90000000D03*
X25000000Y-92500000D03*
X25000000Y-95000000D03*
X25000000Y-97500000D03*
X25000000Y-100000000D03*
X25000000Y-102500000D03*
X25000000Y-105000000D03*
X25000000Y-107500000D03*
X25000000Y-110000000D03*
X25000000Y-112500000D03*
X25000000Y-115000000D03*
X25000000Y-117500000D03*
X25000000Y-120000000D03*
X25000000Y-122500000D03*
X25000000Y-125000000D03*
X25000000Y-127500000D03*
X25000000Y-130000000D03*
X25000000Y-132500000D03*
X25000000Y-135000000D03*
X25000000Y-137500000D03*
X25000000Y-140000000D03*
X25000000Y-142500000D03*
X25000000Y-145000000D03*
X25000000Y-147500000D03*
X25000000Y-150000000D03*
X25000000Y-152500000D03*
X25000000Y-155000000D03*
X108600000Y-205000000D03*
G04 #@! TO.N,-5V*
X181000000Y-119250000D03*
X178000000Y-119250000D03*
X179500000Y-119250000D03*
G04 #@! TO.N,+15V*
X178250000Y-139500000D03*
X181250000Y-139500000D03*
X179750000Y-139500000D03*
G04 #@! TO.N,Net-(C50-Pad1)*
X166000000Y-147250000D03*
X164750000Y-147250000D03*
X163500000Y-147250000D03*
X116250000Y-198100026D03*
X119000000Y-198100000D03*
X117600000Y-198100000D03*
G04 #@! TO.N,Net-(D11-Pad2)*
X62500000Y-122500000D03*
X62500000Y-135000000D03*
X62500000Y-132500000D03*
X62500000Y-115000000D03*
X62500000Y-105000000D03*
X62500000Y-110000000D03*
X62500000Y-130000000D03*
X62500000Y-125000000D03*
X62500000Y-127500000D03*
X62500000Y-112500000D03*
X62500000Y-107500000D03*
X62500000Y-117500000D03*
X62500000Y-120000000D03*
X62500000Y-140000000D03*
X62500000Y-137500000D03*
X62500000Y-142500000D03*
X65000000Y-122500000D03*
X65000000Y-135000000D03*
X65000000Y-132500000D03*
X65000000Y-115000000D03*
X65000000Y-105000000D03*
X65000000Y-110000000D03*
X65000000Y-130000000D03*
X65000000Y-125000000D03*
X65000000Y-127500000D03*
X65000000Y-112500000D03*
X65000000Y-107500000D03*
X65000000Y-117500000D03*
X65000000Y-120000000D03*
X65000000Y-140000000D03*
X65000000Y-137500000D03*
X65000000Y-142500000D03*
X67500000Y-122500000D03*
X67500000Y-135000000D03*
X67500000Y-132500000D03*
X67500000Y-115000000D03*
X67500000Y-105000000D03*
X67500000Y-110000000D03*
X67500000Y-130000000D03*
X67500000Y-125000000D03*
X67500000Y-127500000D03*
X67500000Y-112500000D03*
X67500000Y-107500000D03*
X67500000Y-117500000D03*
X67500000Y-120000000D03*
X67500000Y-140000000D03*
X67500000Y-137500000D03*
X67500000Y-142500000D03*
X70000000Y-122500000D03*
X70000000Y-135000000D03*
X70000000Y-132500000D03*
X70000000Y-115000000D03*
X70000000Y-105000000D03*
X70000000Y-110000000D03*
X70000000Y-130000000D03*
X70000000Y-125000000D03*
X70000000Y-127500000D03*
X70000000Y-112500000D03*
X70000000Y-107500000D03*
X70000000Y-117500000D03*
X70000000Y-120000000D03*
X70000000Y-140000000D03*
X70000000Y-137500000D03*
X70000000Y-142500000D03*
X60000000Y-105000000D03*
X60000000Y-107500000D03*
X60000000Y-110000000D03*
X60000000Y-112500000D03*
X60000000Y-115000000D03*
X60000000Y-117500000D03*
X60000000Y-120000000D03*
X60000000Y-122500000D03*
X60000000Y-125000000D03*
X60000000Y-127500000D03*
X60000000Y-130000000D03*
X60000000Y-132500000D03*
X60000000Y-135000000D03*
X60000000Y-140000000D03*
X60000000Y-137500000D03*
X60000000Y-142500000D03*
X194000000Y-216000000D03*
X194000000Y-218000000D03*
X194000000Y-220000000D03*
X194000000Y-222000000D03*
X194000000Y-224000000D03*
X196000000Y-224000000D03*
X196000000Y-222000000D03*
X196000000Y-220000000D03*
X196000000Y-218000000D03*
X196000000Y-216000000D03*
X198000000Y-216000000D03*
X198000000Y-218000000D03*
X198000000Y-220000000D03*
X198000000Y-222000000D03*
X198000000Y-224000000D03*
X200000000Y-224000000D03*
X200000000Y-222000000D03*
X200000000Y-220000000D03*
X200000000Y-218000000D03*
X200000000Y-216000000D03*
X192000000Y-224000000D03*
X192000000Y-222000000D03*
X192000000Y-220000000D03*
X190000000Y-220000000D03*
X190000000Y-222000000D03*
X190000000Y-224000000D03*
X188000000Y-224000000D03*
X188000000Y-222000000D03*
X188000000Y-220000000D03*
X186000000Y-224000000D03*
X186000000Y-222000000D03*
X186000000Y-220000000D03*
X186000000Y-218000000D03*
X186000000Y-216000000D03*
X188000000Y-216000000D03*
X190000000Y-216000000D03*
X192000000Y-216000000D03*
X184000000Y-216000000D03*
X184000000Y-218000000D03*
X182000000Y-216000000D03*
X182000000Y-218000000D03*
G04 #@! TO.N,VB_OK*
X176000000Y-208500000D03*
X174500000Y-208500000D03*
X108000000Y-218500000D03*
G04 #@! TO.N,GND*
X164500000Y-100500000D03*
X164500000Y-98500000D03*
X164500000Y-94500000D03*
X166500000Y-92500000D03*
X168500000Y-94500000D03*
X168500000Y-96500000D03*
X162500000Y-92500000D03*
X166500000Y-100500000D03*
X166500000Y-98500000D03*
X164500000Y-96500000D03*
X168500000Y-102500000D03*
X168500000Y-100500000D03*
X166500000Y-94500000D03*
X168500000Y-92500000D03*
X162500000Y-98500000D03*
X162500000Y-100500000D03*
X162500000Y-96500000D03*
X166500000Y-102500000D03*
X164500000Y-92500000D03*
X166500000Y-96500000D03*
X162500000Y-94500000D03*
X168500000Y-98500000D03*
X117600000Y-213400000D03*
X89000000Y-228000000D03*
X88000000Y-228000000D03*
X103000000Y-210500000D03*
X103000000Y-212250000D03*
X184000000Y-93000000D03*
X184000000Y-95000000D03*
X179750000Y-209500000D03*
X178750000Y-209500000D03*
X395000000Y-122000000D03*
X393000000Y-122000000D03*
X395000000Y-121000000D03*
X393000000Y-121000000D03*
X394000000Y-121000000D03*
X82000000Y-198250000D03*
X81000000Y-198250000D03*
X83000000Y-198250000D03*
X83000000Y-199250000D03*
X82000000Y-199250000D03*
X81000000Y-199250000D03*
X81000000Y-200250000D03*
X82000000Y-200250000D03*
X83000000Y-200250000D03*
X85500000Y-237000000D03*
X85500000Y-238000000D03*
X85500000Y-239000000D03*
X86500000Y-239000000D03*
X87500000Y-239000000D03*
X88500000Y-239000000D03*
X86500000Y-236000000D03*
X87500000Y-236000000D03*
X88500000Y-236000000D03*
X77250000Y-216000000D03*
X78250000Y-216000000D03*
X84000000Y-211250000D03*
X84000000Y-212250000D03*
X84000000Y-213250000D03*
X85000000Y-211250000D03*
X85000000Y-212250000D03*
X85000000Y-213250000D03*
X86000000Y-211250000D03*
X86000000Y-212250000D03*
X86000000Y-213250000D03*
X86000000Y-209250000D03*
X86000000Y-210250000D03*
X86000000Y-208250000D03*
X67750000Y-228750000D03*
X79521000Y-210927000D03*
X79521000Y-209827000D03*
X77250000Y-215000000D03*
X78250000Y-215000000D03*
X68100000Y-219900000D03*
X68100000Y-220900000D03*
X77100000Y-219900000D03*
X77100000Y-220900000D03*
X74100000Y-219900000D03*
X74100000Y-220900000D03*
X76100000Y-219000000D03*
X75000000Y-219000000D03*
X79850000Y-220600000D03*
X78500000Y-220600000D03*
X70000000Y-238000000D03*
X71000000Y-239000000D03*
X70000000Y-239000000D03*
X71000000Y-238000000D03*
X70000000Y-241000000D03*
X70000000Y-240000000D03*
X71000000Y-240000000D03*
X71000000Y-241000000D03*
X69000000Y-241000000D03*
X68000000Y-241000000D03*
X68000000Y-240000000D03*
X67000000Y-241000000D03*
X69000000Y-240000000D03*
X67000000Y-240000000D03*
X69000000Y-239000000D03*
X67000000Y-238000000D03*
X68000000Y-238000000D03*
X69000000Y-238000000D03*
X68000000Y-239000000D03*
X67000000Y-239000000D03*
X178250000Y-122850000D03*
X176750000Y-122850000D03*
X178250000Y-135750000D03*
X176750000Y-135750000D03*
X166000000Y-133250000D03*
X164850000Y-133250000D03*
X105100000Y-229350000D03*
X106100000Y-229350000D03*
X127100000Y-229350000D03*
X128100000Y-229350000D03*
X115350000Y-225850000D03*
X116350000Y-225850000D03*
X163500000Y-126250000D03*
X163500000Y-124750000D03*
X137600000Y-228850000D03*
X136600000Y-228850000D03*
X134450000Y-227200000D03*
X133450000Y-227200000D03*
X105350000Y-222850000D03*
X104350000Y-222850000D03*
X103350000Y-222850000D03*
X102350000Y-222850000D03*
X113850000Y-222850000D03*
X112850000Y-222850000D03*
X115850000Y-222850000D03*
X114850000Y-222850000D03*
X115100000Y-205100000D03*
X116100000Y-205100000D03*
X113100000Y-205100000D03*
X114100000Y-205100000D03*
X130600000Y-217600000D03*
X130600000Y-216100000D03*
X130600000Y-212850000D03*
X130600000Y-211600000D03*
X132500000Y-205200000D03*
X132500000Y-206500000D03*
X132000000Y-209000000D03*
X132000000Y-210000000D03*
X132600000Y-220100000D03*
X132600000Y-219100000D03*
X132600000Y-222600000D03*
X132600000Y-223600000D03*
X122350000Y-210100000D03*
X122350000Y-209100000D03*
X122600000Y-221850000D03*
X121600000Y-221850000D03*
X126850000Y-204350000D03*
X125850000Y-204350000D03*
X125600000Y-221850000D03*
X124600000Y-221850000D03*
X110000000Y-218000000D03*
X111000000Y-218000000D03*
X171385000Y-129885000D03*
X171355000Y-131155000D03*
X168145000Y-131155000D03*
X168215000Y-129885000D03*
X178250000Y-206500000D03*
X162087500Y-171412500D03*
X162087500Y-168587500D03*
X117600000Y-211900000D03*
X41515058Y-197882250D03*
X41515058Y-201882250D03*
X41515058Y-205882250D03*
X41515058Y-209882250D03*
X41515058Y-213882250D03*
X41515058Y-217882250D03*
X41515058Y-221882250D03*
X41515058Y-225882250D03*
X41515058Y-229882250D03*
X41515058Y-233882250D03*
X41515058Y-237882250D03*
X41515058Y-241882250D03*
X43515058Y-199882250D03*
X43515058Y-203882250D03*
X43515058Y-207882250D03*
X43515058Y-211882250D03*
X43515058Y-215882250D03*
X43515058Y-219882250D03*
X43515058Y-223882250D03*
X43515058Y-227882250D03*
X43515058Y-231882250D03*
X43515058Y-235882250D03*
X43515058Y-239882250D03*
X45515058Y-197882250D03*
X45515058Y-201882250D03*
X45515058Y-205882250D03*
X45515058Y-209882250D03*
X45515058Y-213882250D03*
X45515058Y-217882250D03*
X45515058Y-221882250D03*
X45515058Y-225882250D03*
X45515058Y-229882250D03*
X45515058Y-233882250D03*
X45515058Y-237882250D03*
X45515058Y-241882250D03*
X47515058Y-199882250D03*
X47515058Y-203882250D03*
X47515058Y-207882250D03*
X47515058Y-211882250D03*
X47515058Y-215882250D03*
X47515058Y-219882250D03*
X47515058Y-223882250D03*
X47515058Y-227882250D03*
X47515058Y-231882250D03*
X47515058Y-235882250D03*
X47515058Y-239882250D03*
X49515058Y-197882250D03*
X49515058Y-201882250D03*
X49515058Y-205882250D03*
X49515058Y-209882250D03*
X49515058Y-213882250D03*
X49515058Y-217882250D03*
X49515058Y-221882250D03*
X49515058Y-225882250D03*
X49515058Y-229882250D03*
X49515058Y-233882250D03*
X49515058Y-237882250D03*
X49515058Y-241882250D03*
X51515058Y-199882250D03*
X51515058Y-203882250D03*
X51515058Y-207882250D03*
X51515058Y-211882250D03*
X51515058Y-215882250D03*
X51515058Y-219882250D03*
X51515058Y-223882250D03*
X51515058Y-227882250D03*
X51515058Y-231882250D03*
X51515058Y-235882250D03*
X51515058Y-239882250D03*
X53515058Y-197882250D03*
X53515058Y-201882250D03*
X53515058Y-205882250D03*
X53515058Y-209882250D03*
X53515058Y-213882250D03*
X53515058Y-217882250D03*
X53515058Y-221882250D03*
X53515058Y-225882250D03*
X53515058Y-229882250D03*
X53515058Y-233882250D03*
X53515058Y-237882250D03*
X53515058Y-241882250D03*
X55515058Y-199882250D03*
X55515058Y-203882250D03*
X55515058Y-207882250D03*
X55515058Y-211882250D03*
X55515058Y-215882250D03*
X55515058Y-219882250D03*
X55515058Y-223882250D03*
X55515058Y-227882250D03*
X55515058Y-231882250D03*
X55515058Y-235882250D03*
X55515058Y-239882250D03*
X57515058Y-197882250D03*
X57515058Y-201882250D03*
X57515058Y-205882250D03*
X57515058Y-209882250D03*
X57515058Y-213882250D03*
X57515058Y-217882250D03*
X57515058Y-221882250D03*
X57515058Y-225882250D03*
X57515058Y-229882250D03*
X57515058Y-233882250D03*
X57515058Y-237882250D03*
X57515058Y-241882250D03*
X59515058Y-199882250D03*
X59515058Y-203882250D03*
X59515058Y-207882250D03*
X59515058Y-211882250D03*
X59515058Y-215882250D03*
X59515058Y-219882250D03*
X59515058Y-223882250D03*
X59515058Y-227882250D03*
X59515058Y-231882250D03*
X59515058Y-235882250D03*
X59515058Y-239882250D03*
X61515058Y-197882250D03*
X61515058Y-213882250D03*
X61515058Y-217882250D03*
X61515058Y-221882250D03*
X61515058Y-225882250D03*
X61515058Y-229882250D03*
X61515058Y-233882250D03*
X61515058Y-237882250D03*
X61515058Y-241882250D03*
X63515058Y-223882250D03*
X63515058Y-227882250D03*
X63515058Y-231882250D03*
X64515058Y-198882250D03*
X67515058Y-197882250D03*
X70515058Y-198882250D03*
X96515058Y-241882250D03*
X99515058Y-239882250D03*
X101515058Y-241882250D03*
X103515058Y-239882250D03*
X105515058Y-241882250D03*
X106515058Y-236882250D03*
X107515058Y-239882250D03*
X109515058Y-241882250D03*
X111515058Y-239882250D03*
X113515058Y-241882250D03*
X115515058Y-239882250D03*
X117515058Y-236882250D03*
X117515058Y-241882250D03*
X119515058Y-239882250D03*
X121515058Y-241882250D03*
X123515058Y-239882250D03*
X125515058Y-241882250D03*
X127515058Y-239882250D03*
X128515058Y-236882250D03*
X129515058Y-233882250D03*
X129515058Y-241882250D03*
X130515058Y-238882250D03*
X131515058Y-235882250D03*
X132515058Y-231882250D03*
X132515058Y-240882250D03*
X133515058Y-237882250D03*
X134515058Y-233882250D03*
X135515058Y-239882250D03*
X136515058Y-235882250D03*
X137515058Y-232882250D03*
X137515058Y-241882250D03*
X138515058Y-237882250D03*
X177000000Y-159000000D03*
X179000000Y-159000000D03*
X181000000Y-159000000D03*
X183000000Y-159000000D03*
X177000000Y-161000000D03*
X179000000Y-161000000D03*
X181000000Y-161000000D03*
X183000000Y-161000000D03*
X177000000Y-163000000D03*
X179000000Y-163000000D03*
X181000000Y-163000000D03*
X183000000Y-163000000D03*
X177000000Y-165000000D03*
X179000000Y-165000000D03*
X181000000Y-165000000D03*
X183000000Y-165000000D03*
X183000000Y-167000000D03*
X181000000Y-167000000D03*
X179000000Y-167000000D03*
X177000000Y-167000000D03*
X181000000Y-169000000D03*
X183000000Y-169000000D03*
X183000000Y-171000000D03*
X181000000Y-171000000D03*
X164500000Y-102500000D03*
X162500000Y-102500000D03*
X164500000Y-90500000D03*
X162500000Y-90500000D03*
X166500000Y-90500000D03*
X162500000Y-88500000D03*
X164500000Y-88500000D03*
X162500000Y-86500000D03*
X164500000Y-86500000D03*
X128750000Y-213750000D03*
X128000000Y-214500000D03*
X133500000Y-209000000D03*
X133500000Y-210000000D03*
X133500000Y-219100000D03*
X133500000Y-220100000D03*
X131500000Y-218500000D03*
X394000000Y-122000000D03*
G04 #@! TD*
D31*
G04 #@! TO.N,Net-(C7-Pad2)*
X386000000Y-207500000D02*
X382500000Y-207500000D01*
X370246800Y-194284800D02*
X381784800Y-194284800D01*
X384250000Y-196750000D02*
X384250000Y-207500000D01*
X381784800Y-194284800D02*
X384250000Y-196750000D01*
G04 #@! TO.N,CS1*
X109500000Y-205000000D02*
X108750000Y-205000000D01*
X108750000Y-205000000D02*
X107750000Y-205000000D01*
X101000000Y-194000000D02*
X108750000Y-201750000D01*
X108750000Y-201750000D02*
X108750000Y-205000000D01*
X76500000Y-194000000D02*
X101000000Y-194000000D01*
D32*
X70537500Y-186985001D02*
X70522501Y-187000000D01*
D31*
X70537500Y-181037500D02*
X72037500Y-181037500D01*
D32*
X70537500Y-175000000D02*
X70537500Y-181037500D01*
X70537500Y-181037500D02*
X70537500Y-186985001D01*
D31*
X72037500Y-181037500D02*
X72500000Y-181500000D01*
X72500000Y-181500000D02*
X72500000Y-190000000D01*
X76500000Y-194000000D02*
X72500000Y-190000000D01*
D32*
G04 #@! TO.N,VBUS*
X245250000Y-96275000D02*
X245250000Y-92750000D01*
X285250000Y-96275000D02*
X285250000Y-92750000D01*
X325250000Y-96275000D02*
X325250000Y-92750000D01*
X325250000Y-155750000D02*
X325250000Y-152225000D01*
X285250000Y-155750000D02*
X285250000Y-152225000D01*
X245250000Y-155750000D02*
X245250000Y-152225000D01*
D31*
G04 #@! TO.N,GND*
X103000000Y-210500000D02*
X103000000Y-211250000D01*
X103000000Y-211250000D02*
X103000000Y-212250000D01*
D32*
X245250000Y-102750000D02*
X245250000Y-99225000D01*
X285250000Y-102750000D02*
X285250000Y-99225000D01*
X325250000Y-102750000D02*
X325250000Y-99225000D01*
X325250000Y-149275000D02*
X325250000Y-145750000D01*
X285250000Y-149275000D02*
X285250000Y-145750000D01*
X245250000Y-149275000D02*
X245250000Y-145750000D01*
X76447501Y-175014999D02*
X76462500Y-175000000D01*
X76447501Y-187000000D02*
X76447501Y-180947501D01*
X76447501Y-180947501D02*
X76447501Y-175014999D01*
D31*
X75052499Y-180947501D02*
X76447501Y-180947501D01*
X74500000Y-181500000D02*
X75052499Y-180947501D01*
X77125000Y-192000000D02*
X74500000Y-189375000D01*
X102000000Y-192000000D02*
X77125000Y-192000000D01*
X110500010Y-200500010D02*
X102000000Y-192000000D01*
X110500010Y-205957103D02*
X110500010Y-200500010D01*
X74500000Y-189375000D02*
X74500000Y-181500000D01*
X105207113Y-211250000D02*
X110500010Y-205957103D01*
X103000000Y-211250000D02*
X105207113Y-211250000D01*
D33*
X394000000Y-121000000D02*
X394000000Y-116000000D01*
X359700000Y-116000000D02*
X358750000Y-116950000D01*
X394000000Y-116000000D02*
X359700000Y-116000000D01*
G04 #@! TD*
D34*
G04 #@! TO.N,GND*
X395873000Y-124373000D02*
X392127000Y-124373000D01*
X392127000Y-120127000D01*
X395873000Y-120127000D01*
X395873000Y-124373000D01*
G04 #@! TA.AperFunction,Conductor*
D35*
G36*
X395873000Y-124373000D02*
G01*
X392127000Y-124373000D01*
X392127000Y-120127000D01*
X395873000Y-120127000D01*
X395873000Y-124373000D01*
G37*
G04 #@! TD.AperFunction*
G04 #@! TD*
D34*
G04 #@! TO.N,GND*
X199373000Y-60750000D02*
X199375440Y-60774776D01*
X199382667Y-60798601D01*
X199394403Y-60820557D01*
X199410197Y-60839803D01*
X199429443Y-60855597D01*
X199451399Y-60867333D01*
X199475224Y-60874560D01*
X199500000Y-60877000D01*
X210500000Y-60877000D01*
X210524776Y-60874560D01*
X210548601Y-60867333D01*
X210570557Y-60855597D01*
X210589803Y-60839803D01*
X210605597Y-60820557D01*
X210617333Y-60798601D01*
X210624560Y-60774776D01*
X210627000Y-60750000D01*
X210627000Y-53727000D01*
X388373000Y-53727000D01*
X388373000Y-177123000D01*
X225000000Y-177123000D01*
X224975224Y-177125440D01*
X224951399Y-177132667D01*
X224929443Y-177144403D01*
X224910197Y-177160197D01*
X224894403Y-177179443D01*
X224882667Y-177201399D01*
X224875440Y-177225224D01*
X224873000Y-177250000D01*
X224873000Y-185623000D01*
X172511122Y-185623000D01*
X172486346Y-185625440D01*
X172462521Y-185632667D01*
X172440565Y-185644403D01*
X172421319Y-185660197D01*
X172405525Y-185679443D01*
X172393789Y-185701399D01*
X172386562Y-185725224D01*
X172384122Y-185749978D01*
X172380544Y-206338632D01*
X172148776Y-206570400D01*
X171817508Y-207066178D01*
X171589326Y-207617057D01*
X171473000Y-208201867D01*
X171473000Y-208798133D01*
X171589326Y-209382943D01*
X171817508Y-209933822D01*
X172148776Y-210429600D01*
X172379793Y-210660617D01*
X172373257Y-248273000D01*
X30627000Y-248273000D01*
X30627000Y-241250000D01*
X30624560Y-241225224D01*
X30617333Y-241201399D01*
X30605597Y-241179443D01*
X30589803Y-241160197D01*
X30570557Y-241144403D01*
X30548601Y-241132667D01*
X30524776Y-241125440D01*
X30500000Y-241123000D01*
X23727000Y-241123000D01*
X23727000Y-235354195D01*
X69523000Y-235354195D01*
X69523000Y-235845806D01*
X69573310Y-236356611D01*
X69772128Y-237012028D01*
X70094992Y-237616064D01*
X70529494Y-238145506D01*
X71058937Y-238580008D01*
X71662973Y-238902872D01*
X72318390Y-239101690D01*
X73000000Y-239168823D01*
X73681611Y-239101690D01*
X74250001Y-238929271D01*
X74818390Y-239101690D01*
X75500000Y-239168823D01*
X76181611Y-239101690D01*
X76837028Y-238902872D01*
X77441064Y-238580008D01*
X77970506Y-238145506D01*
X78405008Y-237616063D01*
X78727872Y-237012027D01*
X78926690Y-236356610D01*
X78961813Y-236000000D01*
X86873000Y-236000000D01*
X86873000Y-242000000D01*
X86923477Y-242512502D01*
X87072968Y-243005309D01*
X87315729Y-243459483D01*
X87642430Y-243857570D01*
X88040517Y-244184271D01*
X88494691Y-244427032D01*
X88987498Y-244576523D01*
X89500000Y-244627000D01*
X94000000Y-244627000D01*
X94512502Y-244576523D01*
X95005309Y-244427032D01*
X95459483Y-244184271D01*
X95857570Y-243857570D01*
X96184271Y-243459483D01*
X96427032Y-243005309D01*
X96576523Y-242512502D01*
X96627000Y-242000000D01*
X96627000Y-237468296D01*
X96847294Y-237880437D01*
X97206666Y-238318334D01*
X97644563Y-238677706D01*
X98144156Y-238944744D01*
X98686246Y-239109185D01*
X99250000Y-239164710D01*
X100450000Y-239164710D01*
X101013754Y-239109185D01*
X101353426Y-239006147D01*
X101668390Y-239101690D01*
X102350000Y-239168823D01*
X103031611Y-239101690D01*
X103687028Y-238902872D01*
X104291064Y-238580008D01*
X104820506Y-238145506D01*
X105255008Y-237616063D01*
X105577872Y-237012027D01*
X105776690Y-236356610D01*
X105827000Y-235845805D01*
X105827000Y-235354194D01*
X105784728Y-234925000D01*
X107360290Y-234925000D01*
X107360290Y-236275000D01*
X107415815Y-236838754D01*
X107580256Y-237380844D01*
X107847294Y-237880437D01*
X108206666Y-238318334D01*
X108644563Y-238677706D01*
X109144156Y-238944744D01*
X109686246Y-239109185D01*
X110250000Y-239164710D01*
X111450000Y-239164710D01*
X112013754Y-239109185D01*
X112353426Y-239006147D01*
X112668390Y-239101690D01*
X113350000Y-239168823D01*
X114031611Y-239101690D01*
X114687028Y-238902872D01*
X115291064Y-238580008D01*
X115820506Y-238145506D01*
X116255008Y-237616063D01*
X116577872Y-237012027D01*
X116776690Y-236356610D01*
X116827000Y-235845805D01*
X116827000Y-235354194D01*
X116784728Y-234925000D01*
X118110290Y-234925000D01*
X118110290Y-236275000D01*
X118165815Y-236838754D01*
X118330256Y-237380844D01*
X118597294Y-237880437D01*
X118956666Y-238318334D01*
X119394563Y-238677706D01*
X119894156Y-238944744D01*
X120436246Y-239109185D01*
X121000000Y-239164710D01*
X122200000Y-239164710D01*
X122763754Y-239109185D01*
X123103426Y-239006147D01*
X123418390Y-239101690D01*
X124100000Y-239168823D01*
X124781611Y-239101690D01*
X125437028Y-238902872D01*
X126041064Y-238580008D01*
X126570506Y-238145506D01*
X127005008Y-237616063D01*
X127327872Y-237012027D01*
X127526690Y-236356610D01*
X127577000Y-235845805D01*
X127577000Y-235354194D01*
X127526690Y-234843389D01*
X127327872Y-234187972D01*
X127005008Y-233583936D01*
X126570506Y-233054494D01*
X126041063Y-232619992D01*
X125437027Y-232297128D01*
X124781610Y-232098310D01*
X124100000Y-232031177D01*
X123418389Y-232098310D01*
X123103425Y-232193853D01*
X122763754Y-232090815D01*
X122200000Y-232035290D01*
X121000000Y-232035290D01*
X120436246Y-232090815D01*
X119894156Y-232255256D01*
X119394563Y-232522294D01*
X118956666Y-232881666D01*
X118597294Y-233319563D01*
X118330256Y-233819156D01*
X118165815Y-234361246D01*
X118110290Y-234925000D01*
X116784728Y-234925000D01*
X116776690Y-234843389D01*
X116577872Y-234187972D01*
X116255008Y-233583936D01*
X115820506Y-233054494D01*
X115291063Y-232619992D01*
X114687027Y-232297128D01*
X114031610Y-232098310D01*
X113350000Y-232031177D01*
X112668389Y-232098310D01*
X112353425Y-232193853D01*
X112013754Y-232090815D01*
X111450000Y-232035290D01*
X110250000Y-232035290D01*
X109686246Y-232090815D01*
X109144156Y-232255256D01*
X108644563Y-232522294D01*
X108206666Y-232881666D01*
X107847294Y-233319563D01*
X107580256Y-233819156D01*
X107415815Y-234361246D01*
X107360290Y-234925000D01*
X105784728Y-234925000D01*
X105776690Y-234843389D01*
X105577872Y-234187972D01*
X105255008Y-233583936D01*
X104820506Y-233054494D01*
X104291063Y-232619992D01*
X103687027Y-232297128D01*
X103031610Y-232098310D01*
X102350000Y-232031177D01*
X101668389Y-232098310D01*
X101353425Y-232193853D01*
X101013754Y-232090815D01*
X100450000Y-232035290D01*
X99250000Y-232035290D01*
X98686246Y-232090815D01*
X98144156Y-232255256D01*
X97644563Y-232522294D01*
X97206666Y-232881666D01*
X96847294Y-233319563D01*
X96580256Y-233819156D01*
X96415815Y-234361246D01*
X96364879Y-234878410D01*
X96184271Y-234540517D01*
X95857570Y-234142430D01*
X95459483Y-233815729D01*
X95005309Y-233572968D01*
X94512502Y-233423477D01*
X94000000Y-233373000D01*
X89500000Y-233373000D01*
X88987498Y-233423477D01*
X88494691Y-233572968D01*
X88040517Y-233815729D01*
X87642430Y-234142430D01*
X87315729Y-234540517D01*
X87072968Y-234994691D01*
X86923477Y-235487498D01*
X86873000Y-236000000D01*
X78961813Y-236000000D01*
X78977000Y-235845805D01*
X78977000Y-235354194D01*
X78926690Y-234843389D01*
X78727872Y-234187972D01*
X78405008Y-233583936D01*
X77970506Y-233054494D01*
X77441063Y-232619992D01*
X76837027Y-232297128D01*
X76181610Y-232098310D01*
X75500000Y-232031177D01*
X74818389Y-232098310D01*
X74250000Y-232270729D01*
X73681610Y-232098310D01*
X73000000Y-232031177D01*
X72318389Y-232098310D01*
X71662972Y-232297128D01*
X71058936Y-232619992D01*
X70529494Y-233054494D01*
X70094992Y-233583937D01*
X69772128Y-234187973D01*
X69573310Y-234843390D01*
X69523000Y-235354195D01*
X23727000Y-235354195D01*
X23727000Y-221700000D01*
X66060290Y-221700000D01*
X66060290Y-223300000D01*
X66111011Y-223814982D01*
X66261226Y-224310173D01*
X66505161Y-224766544D01*
X66833443Y-225166557D01*
X67233456Y-225494839D01*
X67689827Y-225738774D01*
X68185018Y-225888989D01*
X68700000Y-225939710D01*
X70300000Y-225939710D01*
X70814982Y-225888989D01*
X71310173Y-225738774D01*
X71766544Y-225494839D01*
X72166557Y-225166557D01*
X72494839Y-224766544D01*
X72500000Y-224756888D01*
X72505161Y-224766544D01*
X72833443Y-225166557D01*
X73233456Y-225494839D01*
X73689827Y-225738774D01*
X74185018Y-225888989D01*
X74700000Y-225939710D01*
X76300000Y-225939710D01*
X76814982Y-225888989D01*
X77310173Y-225738774D01*
X77766544Y-225494839D01*
X78166557Y-225166557D01*
X78494839Y-224766544D01*
X78738774Y-224310173D01*
X78888989Y-223814982D01*
X78939710Y-223300000D01*
X78939710Y-221700000D01*
X78888989Y-221185018D01*
X78738774Y-220689827D01*
X78494839Y-220233456D01*
X78166557Y-219833443D01*
X77766544Y-219505161D01*
X77310173Y-219261226D01*
X76814982Y-219111011D01*
X76300000Y-219060290D01*
X74700000Y-219060290D01*
X74185018Y-219111011D01*
X73689827Y-219261226D01*
X73233456Y-219505161D01*
X72833443Y-219833443D01*
X72505161Y-220233456D01*
X72500000Y-220243112D01*
X72494839Y-220233456D01*
X72166557Y-219833443D01*
X71766544Y-219505161D01*
X71310173Y-219261226D01*
X70814982Y-219111011D01*
X70300000Y-219060290D01*
X68700000Y-219060290D01*
X68185018Y-219111011D01*
X67689827Y-219261226D01*
X67233456Y-219505161D01*
X66833443Y-219833443D01*
X66505161Y-220233456D01*
X66261226Y-220689827D01*
X66111011Y-221185018D01*
X66060290Y-221700000D01*
X23727000Y-221700000D01*
X23727000Y-217950000D01*
X88060290Y-217950000D01*
X88060290Y-219550000D01*
X88111011Y-220064982D01*
X88261226Y-220560173D01*
X88505161Y-221016544D01*
X88833443Y-221416557D01*
X89233456Y-221744839D01*
X89689827Y-221988774D01*
X90185018Y-222138989D01*
X90700000Y-222189710D01*
X92300000Y-222189710D01*
X92814982Y-222138989D01*
X93310173Y-221988774D01*
X93766544Y-221744839D01*
X94166557Y-221416557D01*
X94494839Y-221016544D01*
X94738774Y-220560173D01*
X94888989Y-220064982D01*
X94939710Y-219550000D01*
X94939710Y-218201867D01*
X104973000Y-218201867D01*
X104973000Y-218798133D01*
X105089326Y-219382943D01*
X105317508Y-219933822D01*
X105648776Y-220429600D01*
X106070400Y-220851224D01*
X106566178Y-221182492D01*
X107117057Y-221410674D01*
X107701867Y-221527000D01*
X108298133Y-221527000D01*
X108882943Y-221410674D01*
X109433822Y-221182492D01*
X109929600Y-220851224D01*
X110351224Y-220429600D01*
X110682492Y-219933822D01*
X110910674Y-219382943D01*
X111027000Y-218798133D01*
X111027000Y-218201867D01*
X110910674Y-217617057D01*
X110682492Y-217066178D01*
X110351224Y-216570400D01*
X109929600Y-216148776D01*
X109433822Y-215817508D01*
X108882943Y-215589326D01*
X108298133Y-215473000D01*
X107701867Y-215473000D01*
X107117057Y-215589326D01*
X106566178Y-215817508D01*
X106070400Y-216148776D01*
X105648776Y-216570400D01*
X105317508Y-217066178D01*
X105089326Y-217617057D01*
X104973000Y-218201867D01*
X94939710Y-218201867D01*
X94939710Y-217950000D01*
X94888989Y-217435018D01*
X94738774Y-216939827D01*
X94494839Y-216483456D01*
X94166557Y-216083443D01*
X93766544Y-215755161D01*
X93310173Y-215511226D01*
X92814982Y-215361011D01*
X92300000Y-215310290D01*
X90700000Y-215310290D01*
X90185018Y-215361011D01*
X89689827Y-215511226D01*
X89233456Y-215755161D01*
X88833443Y-216083443D01*
X88505161Y-216483456D01*
X88261226Y-216939827D01*
X88111011Y-217435018D01*
X88060290Y-217950000D01*
X23727000Y-217950000D01*
X23727000Y-212827966D01*
X66628000Y-212827966D01*
X66628000Y-213672033D01*
X66678672Y-214186511D01*
X66878920Y-214846641D01*
X67204105Y-215455020D01*
X67641731Y-215988269D01*
X68174979Y-216425895D01*
X68783358Y-216751080D01*
X69443488Y-216951328D01*
X70130000Y-217018944D01*
X70816511Y-216951328D01*
X71400000Y-216774329D01*
X71983488Y-216951328D01*
X72670000Y-217018944D01*
X73356511Y-216951328D01*
X73940000Y-216774329D01*
X74523488Y-216951328D01*
X75210000Y-217018944D01*
X75896511Y-216951328D01*
X76556641Y-216751080D01*
X77165020Y-216425895D01*
X77698269Y-215988269D01*
X78135895Y-215455021D01*
X78461080Y-214846642D01*
X78661328Y-214186512D01*
X78712000Y-213672034D01*
X78712000Y-212827967D01*
X78661328Y-212313489D01*
X78461080Y-211653359D01*
X78135895Y-211044979D01*
X77698269Y-210511731D01*
X77165021Y-210074105D01*
X76556642Y-209748920D01*
X75896512Y-209548672D01*
X75210000Y-209481056D01*
X74523489Y-209548672D01*
X73940001Y-209725671D01*
X73356512Y-209548672D01*
X72670000Y-209481056D01*
X71983489Y-209548672D01*
X71400001Y-209725671D01*
X70816512Y-209548672D01*
X70130000Y-209481056D01*
X69443489Y-209548672D01*
X68783359Y-209748920D01*
X68174980Y-210074105D01*
X67641731Y-210511731D01*
X67204105Y-211044979D01*
X66878920Y-211653358D01*
X66678672Y-212313488D01*
X66628000Y-212827966D01*
X23727000Y-212827966D01*
X23727000Y-204950000D01*
X67310290Y-204950000D01*
X67310290Y-206550000D01*
X67361011Y-207064982D01*
X67511226Y-207560173D01*
X67755161Y-208016544D01*
X68083443Y-208416557D01*
X68483456Y-208744839D01*
X68939827Y-208988774D01*
X69435018Y-209138989D01*
X69950000Y-209189710D01*
X71550000Y-209189710D01*
X72064982Y-209138989D01*
X72126919Y-209120201D01*
X72412470Y-209177000D01*
X73087530Y-209177000D01*
X73749619Y-209045303D01*
X74373293Y-208786968D01*
X74934585Y-208411925D01*
X75411925Y-207934585D01*
X75786968Y-207373293D01*
X76045303Y-206749619D01*
X76162093Y-206162470D01*
X88073000Y-206162470D01*
X88073000Y-206837530D01*
X88204697Y-207499619D01*
X88463032Y-208123293D01*
X88838075Y-208684585D01*
X89315415Y-209161925D01*
X89876707Y-209536968D01*
X90500381Y-209795303D01*
X91162470Y-209927000D01*
X91837530Y-209927000D01*
X92499619Y-209795303D01*
X93123293Y-209536968D01*
X93684585Y-209161925D01*
X94161925Y-208684585D01*
X94536968Y-208123293D01*
X94795303Y-207499619D01*
X94927000Y-206837530D01*
X94927000Y-206162470D01*
X94795303Y-205500381D01*
X94536968Y-204876707D01*
X94161925Y-204315415D01*
X93684585Y-203838075D01*
X93123293Y-203463032D01*
X92499619Y-203204697D01*
X91837530Y-203073000D01*
X91162470Y-203073000D01*
X90500381Y-203204697D01*
X89876707Y-203463032D01*
X89315415Y-203838075D01*
X88838075Y-204315415D01*
X88463032Y-204876707D01*
X88204697Y-205500381D01*
X88073000Y-206162470D01*
X76162093Y-206162470D01*
X76177000Y-206087530D01*
X76177000Y-205412470D01*
X76045303Y-204750381D01*
X75786968Y-204126707D01*
X75411925Y-203565415D01*
X74934585Y-203088075D01*
X74373293Y-202713032D01*
X73749619Y-202454697D01*
X73087530Y-202323000D01*
X72412470Y-202323000D01*
X72126919Y-202379799D01*
X72064982Y-202361011D01*
X71550000Y-202310290D01*
X69950000Y-202310290D01*
X69435018Y-202361011D01*
X68939827Y-202511226D01*
X68483456Y-202755161D01*
X68083443Y-203083443D01*
X67755161Y-203483456D01*
X67511226Y-203939827D01*
X67361011Y-204435018D01*
X67310290Y-204950000D01*
X23727000Y-204950000D01*
X23727000Y-195877000D01*
X74096176Y-195877000D01*
X74254433Y-196035257D01*
X74349231Y-196150769D01*
X74624895Y-196377000D01*
X74810151Y-196529036D01*
X75066775Y-196666204D01*
X75336012Y-196810114D01*
X75906604Y-196983202D01*
X76351296Y-197027000D01*
X76351297Y-197027000D01*
X76499999Y-197041646D01*
X76648701Y-197027000D01*
X97873000Y-197027000D01*
X97873000Y-214000000D01*
X97875440Y-214024776D01*
X97882667Y-214048601D01*
X97894403Y-214070557D01*
X97910197Y-214089803D01*
X97929443Y-214105597D01*
X97951399Y-214117333D01*
X97975224Y-214124560D01*
X98000000Y-214127000D01*
X112511122Y-214127000D01*
X112535898Y-214124560D01*
X112559723Y-214117333D01*
X112581679Y-214105597D01*
X112600925Y-214089803D01*
X112616719Y-214070557D01*
X112628455Y-214048601D01*
X112635682Y-214024776D01*
X112638122Y-214000000D01*
X112638122Y-208551867D01*
X121823000Y-208551867D01*
X121823000Y-209148133D01*
X121939326Y-209732943D01*
X122167508Y-210283822D01*
X122498776Y-210779600D01*
X122920400Y-211201224D01*
X123416178Y-211532492D01*
X123967057Y-211760674D01*
X124551867Y-211877000D01*
X125148133Y-211877000D01*
X125732943Y-211760674D01*
X126283822Y-211532492D01*
X126350000Y-211488273D01*
X126416178Y-211532492D01*
X126967057Y-211760674D01*
X127551867Y-211877000D01*
X128148133Y-211877000D01*
X128732943Y-211760674D01*
X129283822Y-211532492D01*
X129779600Y-211201224D01*
X130201224Y-210779600D01*
X130532492Y-210283822D01*
X130760674Y-209732943D01*
X130877000Y-209148133D01*
X130877000Y-208551867D01*
X130760674Y-207967057D01*
X130532492Y-207416178D01*
X130201224Y-206920400D01*
X129779600Y-206498776D01*
X129283822Y-206167508D01*
X128732943Y-205939326D01*
X128148133Y-205823000D01*
X127551867Y-205823000D01*
X126967057Y-205939326D01*
X126416178Y-206167508D01*
X126350000Y-206211727D01*
X126283822Y-206167508D01*
X125732943Y-205939326D01*
X125148133Y-205823000D01*
X124551867Y-205823000D01*
X123967057Y-205939326D01*
X123416178Y-206167508D01*
X122920400Y-206498776D01*
X122498776Y-206920400D01*
X122167508Y-207416178D01*
X121939326Y-207967057D01*
X121823000Y-208551867D01*
X112638122Y-208551867D01*
X112638122Y-197801893D01*
X113223000Y-197801893D01*
X113223000Y-198398159D01*
X113339326Y-198982969D01*
X113567508Y-199533848D01*
X113898776Y-200029626D01*
X114320400Y-200451250D01*
X114816178Y-200782518D01*
X115367057Y-201010700D01*
X115951867Y-201127026D01*
X116548133Y-201127026D01*
X116925065Y-201052049D01*
X117301867Y-201127000D01*
X117898133Y-201127000D01*
X118300000Y-201047064D01*
X118701867Y-201127000D01*
X119298133Y-201127000D01*
X119882943Y-201010674D01*
X120433822Y-200782492D01*
X120929600Y-200451224D01*
X121351224Y-200029600D01*
X121682492Y-199533822D01*
X121910674Y-198982943D01*
X122027000Y-198398133D01*
X122027000Y-197801867D01*
X121910674Y-197217057D01*
X121682492Y-196666178D01*
X121351224Y-196170400D01*
X120929600Y-195748776D01*
X120433822Y-195417508D01*
X119882943Y-195189326D01*
X119298133Y-195073000D01*
X118701867Y-195073000D01*
X118300000Y-195152936D01*
X117898133Y-195073000D01*
X117301867Y-195073000D01*
X116924935Y-195147977D01*
X116548133Y-195073026D01*
X115951867Y-195073026D01*
X115367057Y-195189352D01*
X114816178Y-195417534D01*
X114320400Y-195748802D01*
X113898776Y-196170426D01*
X113567508Y-196666204D01*
X113339326Y-197217083D01*
X113223000Y-197801893D01*
X112638122Y-197801893D01*
X112638122Y-188550742D01*
X112635682Y-188525966D01*
X112628455Y-188502141D01*
X112616719Y-188480185D01*
X112600925Y-188460939D01*
X112581679Y-188445145D01*
X112559723Y-188433409D01*
X112535898Y-188426182D01*
X112511122Y-188423742D01*
X76127000Y-188423742D01*
X76127000Y-181322675D01*
X122123000Y-181322675D01*
X122123000Y-182677325D01*
X122387279Y-184005947D01*
X122905682Y-185257481D01*
X123658285Y-186383832D01*
X124616168Y-187341715D01*
X125742519Y-188094318D01*
X126994053Y-188612721D01*
X128322675Y-188877000D01*
X129677325Y-188877000D01*
X131005947Y-188612721D01*
X132257481Y-188094318D01*
X133383832Y-187341715D01*
X134341715Y-186383832D01*
X135094318Y-185257481D01*
X135612721Y-184005947D01*
X135877000Y-182677325D01*
X135877000Y-181322675D01*
X135612721Y-179994053D01*
X135094318Y-178742519D01*
X134341715Y-177616168D01*
X133383832Y-176658285D01*
X132257481Y-175905682D01*
X131005947Y-175387279D01*
X129677325Y-175123000D01*
X128322675Y-175123000D01*
X126994053Y-175387279D01*
X125742519Y-175905682D01*
X124616168Y-176658285D01*
X123658285Y-177616168D01*
X122905682Y-178742519D01*
X122387279Y-179994053D01*
X122123000Y-181322675D01*
X76127000Y-181322675D01*
X76127000Y-172877000D01*
X78000000Y-172877000D01*
X78024776Y-172874560D01*
X78048601Y-172867333D01*
X78070557Y-172855597D01*
X78089803Y-172839803D01*
X78105597Y-172820557D01*
X78117333Y-172798601D01*
X78124560Y-172774776D01*
X78127000Y-172750000D01*
X78127000Y-165000000D01*
X162873000Y-165000000D01*
X162873000Y-175000000D01*
X162875440Y-175024776D01*
X162882667Y-175048601D01*
X162894403Y-175070557D01*
X162910197Y-175089803D01*
X162929443Y-175105597D01*
X162951399Y-175117333D01*
X162975224Y-175124560D01*
X163000000Y-175127000D01*
X176000000Y-175127000D01*
X176024776Y-175124560D01*
X176048601Y-175117333D01*
X176070557Y-175105597D01*
X176089803Y-175089803D01*
X176105597Y-175070557D01*
X176117333Y-175048601D01*
X176124560Y-175024776D01*
X176127000Y-175000000D01*
X176127000Y-173000000D01*
X191360290Y-173000000D01*
X191360290Y-175000000D01*
X191411011Y-175514982D01*
X191561226Y-176010173D01*
X191805161Y-176466544D01*
X192124280Y-176855392D01*
X191785794Y-177361971D01*
X191512383Y-178022043D01*
X191373000Y-178722772D01*
X191373000Y-179437228D01*
X191512383Y-180137957D01*
X191785794Y-180798029D01*
X192182725Y-181392078D01*
X192687922Y-181897275D01*
X193281971Y-182294206D01*
X193942043Y-182567617D01*
X194642772Y-182707000D01*
X195357228Y-182707000D01*
X196057957Y-182567617D01*
X196718029Y-182294206D01*
X197312078Y-181897275D01*
X197817275Y-181392078D01*
X198214206Y-180798029D01*
X198487617Y-180137957D01*
X198627000Y-179437228D01*
X198627000Y-178722772D01*
X198487617Y-178022043D01*
X198214206Y-177361971D01*
X197875720Y-176855392D01*
X198194839Y-176466544D01*
X198386001Y-176108903D01*
X207283000Y-176108903D01*
X207283000Y-176971097D01*
X207451206Y-177816724D01*
X207781153Y-178613287D01*
X208260162Y-179330175D01*
X208869825Y-179939838D01*
X209586713Y-180418847D01*
X210383276Y-180748794D01*
X211228903Y-180917000D01*
X212091097Y-180917000D01*
X212936724Y-180748794D01*
X213733287Y-180418847D01*
X214450175Y-179939838D01*
X215059838Y-179330175D01*
X215538847Y-178613287D01*
X215868794Y-177816724D01*
X216037000Y-176971097D01*
X216037000Y-176108903D01*
X215868794Y-175263276D01*
X215538847Y-174466713D01*
X215059838Y-173749825D01*
X214450175Y-173140162D01*
X213733287Y-172661153D01*
X212936724Y-172331206D01*
X212091097Y-172163000D01*
X211228903Y-172163000D01*
X210383276Y-172331206D01*
X209586713Y-172661153D01*
X208869825Y-173140162D01*
X208260162Y-173749825D01*
X207781153Y-174466713D01*
X207451206Y-175263276D01*
X207283000Y-176108903D01*
X198386001Y-176108903D01*
X198438774Y-176010173D01*
X198588989Y-175514982D01*
X198639710Y-175000000D01*
X198639710Y-173000000D01*
X198588989Y-172485018D01*
X198438774Y-171989827D01*
X198194839Y-171533456D01*
X197866557Y-171133443D01*
X197466544Y-170805161D01*
X197010173Y-170561226D01*
X196514982Y-170411011D01*
X196000000Y-170360290D01*
X194000000Y-170360290D01*
X193485018Y-170411011D01*
X192989827Y-170561226D01*
X192533456Y-170805161D01*
X192133443Y-171133443D01*
X191805161Y-171533456D01*
X191561226Y-171989827D01*
X191411011Y-172485018D01*
X191360290Y-173000000D01*
X176127000Y-173000000D01*
X176127000Y-172234409D01*
X176270903Y-171760024D01*
X176327000Y-171190462D01*
X176327000Y-168809537D01*
X176270903Y-168239975D01*
X176127000Y-167765591D01*
X176127000Y-165000000D01*
X176124560Y-164975224D01*
X176117333Y-164951399D01*
X176105597Y-164929443D01*
X176089803Y-164910197D01*
X176070557Y-164894403D01*
X176048601Y-164882667D01*
X176024776Y-164875440D01*
X176000000Y-164873000D01*
X163000000Y-164873000D01*
X162975224Y-164875440D01*
X162951399Y-164882667D01*
X162929443Y-164894403D01*
X162910197Y-164910197D01*
X162894403Y-164929443D01*
X162882667Y-164951399D01*
X162875440Y-164975224D01*
X162873000Y-165000000D01*
X78127000Y-165000000D01*
X78127000Y-164623073D01*
X190173000Y-164623073D01*
X190173000Y-165376927D01*
X190320070Y-166116295D01*
X190608557Y-166812764D01*
X191027375Y-167439570D01*
X191560430Y-167972625D01*
X192187236Y-168391443D01*
X192883705Y-168679930D01*
X193623073Y-168827000D01*
X194376927Y-168827000D01*
X195116295Y-168679930D01*
X195812764Y-168391443D01*
X196439570Y-167972625D01*
X196972625Y-167439570D01*
X197391443Y-166812764D01*
X197679930Y-166116295D01*
X197827000Y-165376927D01*
X197827000Y-164623073D01*
X211173000Y-164623073D01*
X211173000Y-165376927D01*
X211320070Y-166116295D01*
X211608557Y-166812764D01*
X212027375Y-167439570D01*
X212560430Y-167972625D01*
X213187236Y-168391443D01*
X213883705Y-168679930D01*
X214623073Y-168827000D01*
X215376927Y-168827000D01*
X216116295Y-168679930D01*
X216812764Y-168391443D01*
X217439570Y-167972625D01*
X217972625Y-167439570D01*
X218391443Y-166812764D01*
X218679930Y-166116295D01*
X218827000Y-165376927D01*
X218827000Y-164623073D01*
X218679930Y-163883705D01*
X218391443Y-163187236D01*
X217972625Y-162560430D01*
X217439570Y-162027375D01*
X216812764Y-161608557D01*
X216116295Y-161320070D01*
X215376927Y-161173000D01*
X214623073Y-161173000D01*
X213883705Y-161320070D01*
X213187236Y-161608557D01*
X212560430Y-162027375D01*
X212027375Y-162560430D01*
X211608557Y-163187236D01*
X211320070Y-163883705D01*
X211173000Y-164623073D01*
X197827000Y-164623073D01*
X197679930Y-163883705D01*
X197391443Y-163187236D01*
X196972625Y-162560430D01*
X196439570Y-162027375D01*
X195812764Y-161608557D01*
X195116295Y-161320070D01*
X194376927Y-161173000D01*
X193623073Y-161173000D01*
X192883705Y-161320070D01*
X192187236Y-161608557D01*
X191560430Y-162027375D01*
X191027375Y-162560430D01*
X190608557Y-163187236D01*
X190320070Y-163883705D01*
X190173000Y-164623073D01*
X78127000Y-164623073D01*
X78127000Y-157623073D01*
X81173000Y-157623073D01*
X81173000Y-158376927D01*
X81320070Y-159116295D01*
X81608557Y-159812764D01*
X82027375Y-160439570D01*
X82560430Y-160972625D01*
X83187236Y-161391443D01*
X83883705Y-161679930D01*
X84623073Y-161827000D01*
X85376927Y-161827000D01*
X86116295Y-161679930D01*
X86812764Y-161391443D01*
X87439570Y-160972625D01*
X87972625Y-160439570D01*
X88391443Y-159812764D01*
X88679930Y-159116295D01*
X88827000Y-158376927D01*
X88827000Y-157623073D01*
X88679930Y-156883705D01*
X88391443Y-156187236D01*
X87972625Y-155560430D01*
X87439570Y-155027375D01*
X86812764Y-154608557D01*
X86116295Y-154320070D01*
X85376927Y-154173000D01*
X84623073Y-154173000D01*
X83883705Y-154320070D01*
X83187236Y-154608557D01*
X82560430Y-155027375D01*
X82027375Y-155560430D01*
X81608557Y-156187236D01*
X81320070Y-156883705D01*
X81173000Y-157623073D01*
X78127000Y-157623073D01*
X78127000Y-146951867D01*
X160473000Y-146951867D01*
X160473000Y-147548133D01*
X160589326Y-148132943D01*
X160817508Y-148683822D01*
X161148776Y-149179600D01*
X161570400Y-149601224D01*
X162066178Y-149932492D01*
X162617057Y-150160674D01*
X163201867Y-150277000D01*
X163798133Y-150277000D01*
X164125000Y-150211982D01*
X164451867Y-150277000D01*
X165048133Y-150277000D01*
X165375000Y-150211982D01*
X165701867Y-150277000D01*
X166298133Y-150277000D01*
X166882943Y-150160674D01*
X167433822Y-149932492D01*
X167929600Y-149601224D01*
X168071706Y-149459118D01*
X168023000Y-149703979D01*
X168023000Y-150576021D01*
X168193127Y-151431308D01*
X168526844Y-152236971D01*
X169011325Y-152962048D01*
X169627952Y-153578675D01*
X170353029Y-154063156D01*
X171158692Y-154396873D01*
X172013979Y-154567000D01*
X172886021Y-154567000D01*
X173741308Y-154396873D01*
X174546971Y-154063156D01*
X175015642Y-153750000D01*
X240610290Y-153750000D01*
X240610290Y-157750000D01*
X240661011Y-158264982D01*
X240811226Y-158760173D01*
X241055161Y-159216544D01*
X241383443Y-159616557D01*
X241783456Y-159944839D01*
X242239827Y-160188774D01*
X242735018Y-160338989D01*
X243250000Y-160389710D01*
X247250000Y-160389710D01*
X247764982Y-160338989D01*
X248260173Y-160188774D01*
X248716544Y-159944839D01*
X249116557Y-159616557D01*
X249444839Y-159216544D01*
X249688774Y-158760173D01*
X249838989Y-158264982D01*
X249889710Y-157750000D01*
X249889710Y-153750000D01*
X280610290Y-153750000D01*
X280610290Y-157750000D01*
X280661011Y-158264982D01*
X280811226Y-158760173D01*
X281055161Y-159216544D01*
X281383443Y-159616557D01*
X281783456Y-159944839D01*
X282239827Y-160188774D01*
X282735018Y-160338989D01*
X283250000Y-160389710D01*
X287250000Y-160389710D01*
X287764982Y-160338989D01*
X288260173Y-160188774D01*
X288716544Y-159944839D01*
X289116557Y-159616557D01*
X289444839Y-159216544D01*
X289688774Y-158760173D01*
X289838989Y-158264982D01*
X289889710Y-157750000D01*
X289889710Y-153750000D01*
X320610290Y-153750000D01*
X320610290Y-157750000D01*
X320661011Y-158264982D01*
X320811226Y-158760173D01*
X321055161Y-159216544D01*
X321383443Y-159616557D01*
X321783456Y-159944839D01*
X322239827Y-160188774D01*
X322735018Y-160338989D01*
X323250000Y-160389710D01*
X327250000Y-160389710D01*
X327764982Y-160338989D01*
X328260173Y-160188774D01*
X328716544Y-159944839D01*
X329116557Y-159616557D01*
X329444839Y-159216544D01*
X329688774Y-158760173D01*
X329838989Y-158264982D01*
X329889710Y-157750000D01*
X329889710Y-153750000D01*
X329838989Y-153235018D01*
X329688774Y-152739827D01*
X329444839Y-152283456D01*
X329239710Y-152033505D01*
X329239710Y-151899999D01*
X329184185Y-151336245D01*
X329019744Y-150794155D01*
X328752706Y-150294563D01*
X328393334Y-149856666D01*
X327955437Y-149497294D01*
X327455845Y-149230256D01*
X326913755Y-149065815D01*
X326350001Y-149010290D01*
X324149999Y-149010290D01*
X323586245Y-149065815D01*
X323044155Y-149230256D01*
X322544563Y-149497294D01*
X322106666Y-149856666D01*
X321747294Y-150294563D01*
X321480256Y-150794155D01*
X321315815Y-151336245D01*
X321260290Y-151899999D01*
X321260290Y-152033505D01*
X321055161Y-152283456D01*
X320811226Y-152739827D01*
X320661011Y-153235018D01*
X320610290Y-153750000D01*
X289889710Y-153750000D01*
X289838989Y-153235018D01*
X289688774Y-152739827D01*
X289444839Y-152283456D01*
X289239710Y-152033505D01*
X289239710Y-151899999D01*
X289184185Y-151336245D01*
X289019744Y-150794155D01*
X288752706Y-150294563D01*
X288393334Y-149856666D01*
X287955437Y-149497294D01*
X287455845Y-149230256D01*
X286913755Y-149065815D01*
X286350001Y-149010290D01*
X284149999Y-149010290D01*
X283586245Y-149065815D01*
X283044155Y-149230256D01*
X282544563Y-149497294D01*
X282106666Y-149856666D01*
X281747294Y-150294563D01*
X281480256Y-150794155D01*
X281315815Y-151336245D01*
X281260290Y-151899999D01*
X281260290Y-152033505D01*
X281055161Y-152283456D01*
X280811226Y-152739827D01*
X280661011Y-153235018D01*
X280610290Y-153750000D01*
X249889710Y-153750000D01*
X249838989Y-153235018D01*
X249688774Y-152739827D01*
X249444839Y-152283456D01*
X249239710Y-152033505D01*
X249239710Y-151899999D01*
X249184185Y-151336245D01*
X249019744Y-150794155D01*
X248752706Y-150294563D01*
X248393334Y-149856666D01*
X247955437Y-149497294D01*
X247455845Y-149230256D01*
X246913755Y-149065815D01*
X246350001Y-149010290D01*
X244149999Y-149010290D01*
X243586245Y-149065815D01*
X243044155Y-149230256D01*
X242544563Y-149497294D01*
X242106666Y-149856666D01*
X241747294Y-150294563D01*
X241480256Y-150794155D01*
X241315815Y-151336245D01*
X241260290Y-151899999D01*
X241260290Y-152033505D01*
X241055161Y-152283456D01*
X240811226Y-152739827D01*
X240661011Y-153235018D01*
X240610290Y-153750000D01*
X175015642Y-153750000D01*
X175272048Y-153578675D01*
X175888675Y-152962048D01*
X176373156Y-152236971D01*
X176706873Y-151431308D01*
X176877000Y-150576021D01*
X176877000Y-149703979D01*
X176706873Y-148848692D01*
X176373156Y-148043029D01*
X175888675Y-147317952D01*
X175272048Y-146701325D01*
X174546971Y-146216844D01*
X173741308Y-145883127D01*
X172886021Y-145713000D01*
X172013979Y-145713000D01*
X171158692Y-145883127D01*
X170353029Y-146216844D01*
X169627952Y-146701325D01*
X169027000Y-147302277D01*
X169027000Y-146951867D01*
X168910674Y-146367057D01*
X168682492Y-145816178D01*
X168351224Y-145320400D01*
X167929600Y-144898776D01*
X167433822Y-144567508D01*
X166882943Y-144339326D01*
X166298133Y-144223000D01*
X165701867Y-144223000D01*
X165375000Y-144288018D01*
X165048133Y-144223000D01*
X164451867Y-144223000D01*
X164125000Y-144288018D01*
X163798133Y-144223000D01*
X163201867Y-144223000D01*
X162617057Y-144339326D01*
X162066178Y-144567508D01*
X161570400Y-144898776D01*
X161148776Y-145320400D01*
X160817508Y-145816178D01*
X160589326Y-146367057D01*
X160473000Y-146951867D01*
X78127000Y-146951867D01*
X78127000Y-133322675D01*
X122123000Y-133322675D01*
X122123000Y-134677325D01*
X122387279Y-136005947D01*
X122905682Y-137257481D01*
X123658285Y-138383832D01*
X124616168Y-139341715D01*
X125742519Y-140094318D01*
X126994053Y-140612721D01*
X128322675Y-140877000D01*
X129677325Y-140877000D01*
X131005947Y-140612721D01*
X132257481Y-140094318D01*
X133383832Y-139341715D01*
X133523680Y-139201867D01*
X175223000Y-139201867D01*
X175223000Y-139798133D01*
X175339326Y-140382943D01*
X175567508Y-140933822D01*
X175898776Y-141429600D01*
X176320400Y-141851224D01*
X176816178Y-142182492D01*
X177367057Y-142410674D01*
X177951867Y-142527000D01*
X178548133Y-142527000D01*
X179000000Y-142437118D01*
X179451867Y-142527000D01*
X180048133Y-142527000D01*
X180500000Y-142437118D01*
X180951867Y-142527000D01*
X181548133Y-142527000D01*
X182132943Y-142410674D01*
X182683822Y-142182492D01*
X183179600Y-141851224D01*
X183601224Y-141429600D01*
X183932492Y-140933822D01*
X184160674Y-140382943D01*
X184277000Y-139798133D01*
X184277000Y-139201867D01*
X184160674Y-138617057D01*
X183932492Y-138066178D01*
X183601224Y-137570400D01*
X183179600Y-137148776D01*
X182683822Y-136817508D01*
X182132943Y-136589326D01*
X181548133Y-136473000D01*
X180951867Y-136473000D01*
X180500000Y-136562882D01*
X180048133Y-136473000D01*
X179451867Y-136473000D01*
X179000000Y-136562882D01*
X178548133Y-136473000D01*
X177951867Y-136473000D01*
X177367057Y-136589326D01*
X176816178Y-136817508D01*
X176320400Y-137148776D01*
X175898776Y-137570400D01*
X175567508Y-138066178D01*
X175339326Y-138617057D01*
X175223000Y-139201867D01*
X133523680Y-139201867D01*
X134341715Y-138383832D01*
X135094318Y-137257481D01*
X135612721Y-136005947D01*
X135877000Y-134677325D01*
X135877000Y-133322675D01*
X135612721Y-131994053D01*
X135094318Y-130742519D01*
X134988184Y-130583677D01*
X200773000Y-130583677D01*
X200773000Y-131416323D01*
X200935441Y-132232971D01*
X201254081Y-133002235D01*
X201716674Y-133694556D01*
X202305444Y-134283326D01*
X202997765Y-134745919D01*
X203767029Y-135064559D01*
X204583677Y-135227000D01*
X205416323Y-135227000D01*
X206232971Y-135064559D01*
X207002235Y-134745919D01*
X207694556Y-134283326D01*
X208283326Y-133694556D01*
X208745919Y-133002235D01*
X209064559Y-132232971D01*
X209227000Y-131416323D01*
X209227000Y-130583677D01*
X209064559Y-129767029D01*
X208745919Y-128997765D01*
X208283326Y-128305444D01*
X207694556Y-127716674D01*
X207002235Y-127254081D01*
X206232971Y-126935441D01*
X205416323Y-126773000D01*
X204583677Y-126773000D01*
X203767029Y-126935441D01*
X202997765Y-127254081D01*
X202305444Y-127716674D01*
X201716674Y-128305444D01*
X201254081Y-128997765D01*
X200935441Y-129767029D01*
X200773000Y-130583677D01*
X134988184Y-130583677D01*
X134341715Y-129616168D01*
X133383832Y-128658285D01*
X132257481Y-127905682D01*
X131005947Y-127387279D01*
X129677325Y-127123000D01*
X128322675Y-127123000D01*
X126994053Y-127387279D01*
X125742519Y-127905682D01*
X124616168Y-128658285D01*
X123658285Y-129616168D01*
X122905682Y-130742519D01*
X122387279Y-131994053D01*
X122123000Y-133322675D01*
X78127000Y-133322675D01*
X78127000Y-119322675D01*
X122123000Y-119322675D01*
X122123000Y-120677325D01*
X122387279Y-122005947D01*
X122905682Y-123257481D01*
X123658285Y-124383832D01*
X124616168Y-125341715D01*
X125742519Y-126094318D01*
X126994053Y-126612721D01*
X128322675Y-126877000D01*
X129677325Y-126877000D01*
X131005947Y-126612721D01*
X131172998Y-126543526D01*
X367123000Y-126543526D01*
X367123000Y-127356474D01*
X367281598Y-128153802D01*
X367569973Y-128850000D01*
X367281598Y-129546198D01*
X367123000Y-130343526D01*
X367123000Y-131156474D01*
X367281598Y-131953802D01*
X367592700Y-132704868D01*
X368044350Y-133380809D01*
X368619191Y-133955650D01*
X369295132Y-134407300D01*
X370046198Y-134718402D01*
X370843526Y-134877000D01*
X371656474Y-134877000D01*
X372453802Y-134718402D01*
X373204868Y-134407300D01*
X373880809Y-133955650D01*
X374455650Y-133380809D01*
X374907300Y-132704868D01*
X375218402Y-131953802D01*
X375377000Y-131156474D01*
X375377000Y-130343526D01*
X375218402Y-129546198D01*
X374930027Y-128850000D01*
X375218402Y-128153802D01*
X375377000Y-127356474D01*
X375377000Y-126543526D01*
X375218402Y-125746198D01*
X374907300Y-124995132D01*
X374455650Y-124319191D01*
X373880809Y-123744350D01*
X373204868Y-123292700D01*
X372453802Y-122981598D01*
X371656474Y-122823000D01*
X370843526Y-122823000D01*
X370046198Y-122981598D01*
X369295132Y-123292700D01*
X368619191Y-123744350D01*
X368044350Y-124319191D01*
X367592700Y-124995132D01*
X367281598Y-125746198D01*
X367123000Y-126543526D01*
X131172998Y-126543526D01*
X132257481Y-126094318D01*
X133383832Y-125341715D01*
X134341715Y-124383832D01*
X135094318Y-123257481D01*
X135612721Y-122005947D01*
X135877000Y-120677325D01*
X135877000Y-119322675D01*
X135612721Y-117994053D01*
X135094318Y-116742519D01*
X134341715Y-115616168D01*
X133927414Y-115201867D01*
X169723000Y-115201867D01*
X169723000Y-115798133D01*
X169839326Y-116382943D01*
X170067508Y-116933822D01*
X170398776Y-117429600D01*
X170820400Y-117851224D01*
X171316178Y-118182492D01*
X171867057Y-118410674D01*
X172451867Y-118527000D01*
X173048133Y-118527000D01*
X173500000Y-118437118D01*
X173951867Y-118527000D01*
X174548133Y-118527000D01*
X174875000Y-118461982D01*
X175063006Y-118499379D01*
X174973000Y-118951867D01*
X174973000Y-119548133D01*
X175089326Y-120132943D01*
X175317508Y-120683822D01*
X175648776Y-121179600D01*
X176070400Y-121601224D01*
X176566178Y-121932492D01*
X177117057Y-122160674D01*
X177701867Y-122277000D01*
X178298133Y-122277000D01*
X178750000Y-122187118D01*
X179201867Y-122277000D01*
X179798133Y-122277000D01*
X180250000Y-122187118D01*
X180701867Y-122277000D01*
X181298133Y-122277000D01*
X181882943Y-122160674D01*
X182433822Y-121932492D01*
X182929600Y-121601224D01*
X183351224Y-121179600D01*
X183682492Y-120683822D01*
X183910674Y-120132943D01*
X184027000Y-119548133D01*
X184027000Y-118951867D01*
X183910674Y-118367057D01*
X183682492Y-117816178D01*
X183351224Y-117320400D01*
X182929600Y-116898776D01*
X182433822Y-116567508D01*
X181882943Y-116339326D01*
X181298133Y-116223000D01*
X180701867Y-116223000D01*
X180250000Y-116312882D01*
X179798133Y-116223000D01*
X179201867Y-116223000D01*
X178750000Y-116312882D01*
X178436994Y-116250621D01*
X178527000Y-115798133D01*
X178527000Y-115201867D01*
X178410674Y-114617057D01*
X178182492Y-114066178D01*
X177851224Y-113570400D01*
X177429600Y-113148776D01*
X176933822Y-112817508D01*
X176382943Y-112589326D01*
X175798133Y-112473000D01*
X175201867Y-112473000D01*
X174875000Y-112538018D01*
X174548133Y-112473000D01*
X173951867Y-112473000D01*
X173500000Y-112562882D01*
X173048133Y-112473000D01*
X172451867Y-112473000D01*
X171867057Y-112589326D01*
X171316178Y-112817508D01*
X170820400Y-113148776D01*
X170398776Y-113570400D01*
X170067508Y-114066178D01*
X169839326Y-114617057D01*
X169723000Y-115201867D01*
X133927414Y-115201867D01*
X133383832Y-114658285D01*
X132257481Y-113905682D01*
X131005947Y-113387279D01*
X129677325Y-113123000D01*
X128322675Y-113123000D01*
X126994053Y-113387279D01*
X125742519Y-113905682D01*
X124616168Y-114658285D01*
X123658285Y-115616168D01*
X122905682Y-116742519D01*
X122387279Y-117994053D01*
X122123000Y-119322675D01*
X78127000Y-119322675D01*
X78127000Y-106423979D01*
X167123000Y-106423979D01*
X167123000Y-107296021D01*
X167293127Y-108151308D01*
X167626844Y-108956971D01*
X168111325Y-109682048D01*
X168727952Y-110298675D01*
X169453029Y-110783156D01*
X170258692Y-111116873D01*
X171113979Y-111287000D01*
X171986021Y-111287000D01*
X172841308Y-111116873D01*
X173646971Y-110783156D01*
X174372048Y-110298675D01*
X174988675Y-109682048D01*
X175473156Y-108956971D01*
X175806873Y-108151308D01*
X175977000Y-107296021D01*
X175977000Y-106423979D01*
X175806873Y-105568692D01*
X175473156Y-104763029D01*
X174988675Y-104037952D01*
X174372048Y-103421325D01*
X173646971Y-102936844D01*
X172841308Y-102603127D01*
X171986021Y-102433000D01*
X171113979Y-102433000D01*
X170258692Y-102603127D01*
X169453029Y-102936844D01*
X168727952Y-103421325D01*
X168111325Y-104037952D01*
X167626844Y-104763029D01*
X167293127Y-105568692D01*
X167123000Y-106423979D01*
X78127000Y-106423979D01*
X78127000Y-95623073D01*
X81173000Y-95623073D01*
X81173000Y-96376927D01*
X81320070Y-97116295D01*
X81608557Y-97812764D01*
X82027375Y-98439570D01*
X82560430Y-98972625D01*
X83187236Y-99391443D01*
X83883705Y-99679930D01*
X84623073Y-99827000D01*
X85376927Y-99827000D01*
X86116295Y-99679930D01*
X86812764Y-99391443D01*
X87439570Y-98972625D01*
X87972625Y-98439570D01*
X88391443Y-97812764D01*
X88679930Y-97116295D01*
X88827000Y-96376927D01*
X88827000Y-95623073D01*
X88679930Y-94883705D01*
X88391443Y-94187236D01*
X87972625Y-93560430D01*
X87439570Y-93027375D01*
X86834489Y-92623073D01*
X190173000Y-92623073D01*
X190173000Y-93376927D01*
X190320070Y-94116295D01*
X190608557Y-94812764D01*
X191027375Y-95439570D01*
X191560430Y-95972625D01*
X192187236Y-96391443D01*
X192883705Y-96679930D01*
X193623073Y-96827000D01*
X194376927Y-96827000D01*
X195116295Y-96679930D01*
X195812764Y-96391443D01*
X196439570Y-95972625D01*
X196972625Y-95439570D01*
X197391443Y-94812764D01*
X197679930Y-94116295D01*
X197827000Y-93376927D01*
X197827000Y-92623073D01*
X211173000Y-92623073D01*
X211173000Y-93376927D01*
X211320070Y-94116295D01*
X211608557Y-94812764D01*
X212027375Y-95439570D01*
X212560430Y-95972625D01*
X213187236Y-96391443D01*
X213883705Y-96679930D01*
X214623073Y-96827000D01*
X215376927Y-96827000D01*
X216116295Y-96679930D01*
X216812764Y-96391443D01*
X217439570Y-95972625D01*
X217972625Y-95439570D01*
X218391443Y-94812764D01*
X218679930Y-94116295D01*
X218827000Y-93376927D01*
X218827000Y-92623073D01*
X218679930Y-91883705D01*
X218391443Y-91187236D01*
X218099292Y-90750000D01*
X240610290Y-90750000D01*
X240610290Y-94750000D01*
X240661011Y-95264982D01*
X240811226Y-95760173D01*
X241055161Y-96216544D01*
X241260290Y-96466495D01*
X241260290Y-96600001D01*
X241315815Y-97163755D01*
X241480256Y-97705845D01*
X241747294Y-98205437D01*
X242106666Y-98643334D01*
X242544563Y-99002706D01*
X243044155Y-99269744D01*
X243586245Y-99434185D01*
X244149999Y-99489710D01*
X246350001Y-99489710D01*
X246913755Y-99434185D01*
X247455845Y-99269744D01*
X247955437Y-99002706D01*
X248393334Y-98643334D01*
X248752706Y-98205437D01*
X249019744Y-97705845D01*
X249184185Y-97163755D01*
X249239710Y-96600001D01*
X249239710Y-96466495D01*
X249444839Y-96216544D01*
X249688774Y-95760173D01*
X249838989Y-95264982D01*
X249889710Y-94750000D01*
X249889710Y-90750000D01*
X280610290Y-90750000D01*
X280610290Y-94750000D01*
X280661011Y-95264982D01*
X280811226Y-95760173D01*
X281055161Y-96216544D01*
X281260290Y-96466495D01*
X281260290Y-96600001D01*
X281315815Y-97163755D01*
X281480256Y-97705845D01*
X281747294Y-98205437D01*
X282106666Y-98643334D01*
X282544563Y-99002706D01*
X283044155Y-99269744D01*
X283586245Y-99434185D01*
X284149999Y-99489710D01*
X286350001Y-99489710D01*
X286913755Y-99434185D01*
X287455845Y-99269744D01*
X287955437Y-99002706D01*
X288393334Y-98643334D01*
X288752706Y-98205437D01*
X289019744Y-97705845D01*
X289184185Y-97163755D01*
X289239710Y-96600001D01*
X289239710Y-96466495D01*
X289444839Y-96216544D01*
X289688774Y-95760173D01*
X289838989Y-95264982D01*
X289889710Y-94750000D01*
X289889710Y-90750000D01*
X320610290Y-90750000D01*
X320610290Y-94750000D01*
X320661011Y-95264982D01*
X320811226Y-95760173D01*
X321055161Y-96216544D01*
X321260290Y-96466495D01*
X321260290Y-96600001D01*
X321315815Y-97163755D01*
X321480256Y-97705845D01*
X321747294Y-98205437D01*
X322106666Y-98643334D01*
X322544563Y-99002706D01*
X323044155Y-99269744D01*
X323586245Y-99434185D01*
X324149999Y-99489710D01*
X326350001Y-99489710D01*
X326913755Y-99434185D01*
X327455845Y-99269744D01*
X327955437Y-99002706D01*
X328393334Y-98643334D01*
X328752706Y-98205437D01*
X329019744Y-97705845D01*
X329184185Y-97163755D01*
X329239710Y-96600001D01*
X329239710Y-96466495D01*
X329444839Y-96216544D01*
X329688774Y-95760173D01*
X329838989Y-95264982D01*
X329889710Y-94750000D01*
X329889710Y-90750000D01*
X329838989Y-90235018D01*
X329688774Y-89739827D01*
X329444839Y-89283456D01*
X329116557Y-88883443D01*
X328716544Y-88555161D01*
X328260173Y-88311226D01*
X327764982Y-88161011D01*
X327250000Y-88110290D01*
X323250000Y-88110290D01*
X322735018Y-88161011D01*
X322239827Y-88311226D01*
X321783456Y-88555161D01*
X321383443Y-88883443D01*
X321055161Y-89283456D01*
X320811226Y-89739827D01*
X320661011Y-90235018D01*
X320610290Y-90750000D01*
X289889710Y-90750000D01*
X289838989Y-90235018D01*
X289688774Y-89739827D01*
X289444839Y-89283456D01*
X289116557Y-88883443D01*
X288716544Y-88555161D01*
X288260173Y-88311226D01*
X287764982Y-88161011D01*
X287250000Y-88110290D01*
X283250000Y-88110290D01*
X282735018Y-88161011D01*
X282239827Y-88311226D01*
X281783456Y-88555161D01*
X281383443Y-88883443D01*
X281055161Y-89283456D01*
X280811226Y-89739827D01*
X280661011Y-90235018D01*
X280610290Y-90750000D01*
X249889710Y-90750000D01*
X249838989Y-90235018D01*
X249688774Y-89739827D01*
X249444839Y-89283456D01*
X249116557Y-88883443D01*
X248716544Y-88555161D01*
X248260173Y-88311226D01*
X247764982Y-88161011D01*
X247250000Y-88110290D01*
X243250000Y-88110290D01*
X242735018Y-88161011D01*
X242239827Y-88311226D01*
X241783456Y-88555161D01*
X241383443Y-88883443D01*
X241055161Y-89283456D01*
X240811226Y-89739827D01*
X240661011Y-90235018D01*
X240610290Y-90750000D01*
X218099292Y-90750000D01*
X217972625Y-90560430D01*
X217439570Y-90027375D01*
X216812764Y-89608557D01*
X216116295Y-89320070D01*
X215376927Y-89173000D01*
X214623073Y-89173000D01*
X213883705Y-89320070D01*
X213187236Y-89608557D01*
X212560430Y-90027375D01*
X212027375Y-90560430D01*
X211608557Y-91187236D01*
X211320070Y-91883705D01*
X211173000Y-92623073D01*
X197827000Y-92623073D01*
X197679930Y-91883705D01*
X197391443Y-91187236D01*
X196972625Y-90560430D01*
X196439570Y-90027375D01*
X195812764Y-89608557D01*
X195116295Y-89320070D01*
X194376927Y-89173000D01*
X193623073Y-89173000D01*
X192883705Y-89320070D01*
X192187236Y-89608557D01*
X191560430Y-90027375D01*
X191027375Y-90560430D01*
X190608557Y-91187236D01*
X190320070Y-91883705D01*
X190173000Y-92623073D01*
X86834489Y-92623073D01*
X86812764Y-92608557D01*
X86116295Y-92320070D01*
X85376927Y-92173000D01*
X84623073Y-92173000D01*
X83883705Y-92320070D01*
X83187236Y-92608557D01*
X82560430Y-93027375D01*
X82027375Y-93560430D01*
X81608557Y-94187236D01*
X81320070Y-94883705D01*
X81173000Y-95623073D01*
X78127000Y-95623073D01*
X78127000Y-85809537D01*
X167673000Y-85809537D01*
X167673000Y-88190462D01*
X167729097Y-88760024D01*
X167950788Y-89490841D01*
X168310795Y-90164368D01*
X168795282Y-90754718D01*
X169385632Y-91239205D01*
X170059158Y-91599212D01*
X170789975Y-91820903D01*
X171550000Y-91895759D01*
X172310024Y-91820903D01*
X173040841Y-91599212D01*
X173714368Y-91239205D01*
X173875544Y-91106932D01*
X173883443Y-91116557D01*
X174283456Y-91444839D01*
X174739827Y-91688774D01*
X175235018Y-91838989D01*
X175750000Y-91889710D01*
X178250000Y-91889710D01*
X178764982Y-91838989D01*
X179260173Y-91688774D01*
X179716544Y-91444839D01*
X180116557Y-91116557D01*
X180444839Y-90716544D01*
X180688774Y-90260173D01*
X180838989Y-89764982D01*
X180889710Y-89250000D01*
X180889710Y-84750000D01*
X180838989Y-84235018D01*
X180688774Y-83739827D01*
X180444839Y-83283456D01*
X180116557Y-82883443D01*
X179716544Y-82555161D01*
X179260173Y-82311226D01*
X178764982Y-82161011D01*
X178250000Y-82110290D01*
X175750000Y-82110290D01*
X175235018Y-82161011D01*
X174739827Y-82311226D01*
X174283456Y-82555161D01*
X173883443Y-82883443D01*
X173875544Y-82893068D01*
X173714368Y-82760795D01*
X173040842Y-82400788D01*
X172310025Y-82179097D01*
X171550000Y-82104241D01*
X170789976Y-82179097D01*
X170059159Y-82400788D01*
X169385633Y-82760795D01*
X168795283Y-83245282D01*
X168310796Y-83835632D01*
X167950788Y-84509158D01*
X167729097Y-85239975D01*
X167673000Y-85809537D01*
X78127000Y-85809537D01*
X78127000Y-71322675D01*
X122123000Y-71322675D01*
X122123000Y-72677325D01*
X122387279Y-74005947D01*
X122905682Y-75257481D01*
X123658285Y-76383832D01*
X124616168Y-77341715D01*
X125742519Y-78094318D01*
X126994053Y-78612721D01*
X128322675Y-78877000D01*
X129677325Y-78877000D01*
X131005947Y-78612721D01*
X132257481Y-78094318D01*
X132398637Y-78000000D01*
X191360290Y-78000000D01*
X191360290Y-80000000D01*
X191411011Y-80514982D01*
X191561226Y-81010173D01*
X191805161Y-81466544D01*
X192124280Y-81855392D01*
X191785794Y-82361971D01*
X191512383Y-83022043D01*
X191373000Y-83722772D01*
X191373000Y-84437228D01*
X191512383Y-85137957D01*
X191785794Y-85798029D01*
X192182725Y-86392078D01*
X192687922Y-86897275D01*
X193281971Y-87294206D01*
X193942043Y-87567617D01*
X194642772Y-87707000D01*
X195357228Y-87707000D01*
X196057957Y-87567617D01*
X196718029Y-87294206D01*
X197312078Y-86897275D01*
X197817275Y-86392078D01*
X198214206Y-85798029D01*
X198487617Y-85137957D01*
X198627000Y-84437228D01*
X198627000Y-83722772D01*
X198487617Y-83022043D01*
X198214206Y-82361971D01*
X197875720Y-81855392D01*
X198194839Y-81466544D01*
X198386001Y-81108903D01*
X207283000Y-81108903D01*
X207283000Y-81971097D01*
X207451206Y-82816724D01*
X207781153Y-83613287D01*
X208260162Y-84330175D01*
X208869825Y-84939838D01*
X209586713Y-85418847D01*
X210383276Y-85748794D01*
X211228903Y-85917000D01*
X212091097Y-85917000D01*
X212936724Y-85748794D01*
X213733287Y-85418847D01*
X214450175Y-84939838D01*
X215059838Y-84330175D01*
X215538847Y-83613287D01*
X215868794Y-82816724D01*
X216037000Y-81971097D01*
X216037000Y-81108903D01*
X215868794Y-80263276D01*
X215538847Y-79466713D01*
X215059838Y-78749825D01*
X214450175Y-78140162D01*
X213733287Y-77661153D01*
X212936724Y-77331206D01*
X212091097Y-77163000D01*
X211228903Y-77163000D01*
X210383276Y-77331206D01*
X209586713Y-77661153D01*
X208869825Y-78140162D01*
X208260162Y-78749825D01*
X207781153Y-79466713D01*
X207451206Y-80263276D01*
X207283000Y-81108903D01*
X198386001Y-81108903D01*
X198438774Y-81010173D01*
X198588989Y-80514982D01*
X198639710Y-80000000D01*
X198639710Y-78000000D01*
X198588989Y-77485018D01*
X198438774Y-76989827D01*
X198194839Y-76533456D01*
X197866557Y-76133443D01*
X197466544Y-75805161D01*
X197010173Y-75561226D01*
X196514982Y-75411011D01*
X196000000Y-75360290D01*
X194000000Y-75360290D01*
X193485018Y-75411011D01*
X192989827Y-75561226D01*
X192533456Y-75805161D01*
X192133443Y-76133443D01*
X191805161Y-76533456D01*
X191561226Y-76989827D01*
X191411011Y-77485018D01*
X191360290Y-78000000D01*
X132398637Y-78000000D01*
X133383832Y-77341715D01*
X134341715Y-76383832D01*
X135094318Y-75257481D01*
X135612721Y-74005947D01*
X135877000Y-72677325D01*
X135877000Y-71322675D01*
X135612721Y-69994053D01*
X135094318Y-68742519D01*
X134341715Y-67616168D01*
X133383832Y-66658285D01*
X132257481Y-65905682D01*
X131005947Y-65387279D01*
X129677325Y-65123000D01*
X128322675Y-65123000D01*
X126994053Y-65387279D01*
X125742519Y-65905682D01*
X124616168Y-66658285D01*
X123658285Y-67616168D01*
X122905682Y-68742519D01*
X122387279Y-69994053D01*
X122123000Y-71322675D01*
X78127000Y-71322675D01*
X78127000Y-53727000D01*
X199373000Y-53727000D01*
X199373000Y-60750000D01*
G04 #@! TA.AperFunction,Conductor*
D35*
G36*
X199373000Y-60750000D02*
G01*
X199375440Y-60774776D01*
X199382667Y-60798601D01*
X199394403Y-60820557D01*
X199410197Y-60839803D01*
X199429443Y-60855597D01*
X199451399Y-60867333D01*
X199475224Y-60874560D01*
X199500000Y-60877000D01*
X210500000Y-60877000D01*
X210524776Y-60874560D01*
X210548601Y-60867333D01*
X210570557Y-60855597D01*
X210589803Y-60839803D01*
X210605597Y-60820557D01*
X210617333Y-60798601D01*
X210624560Y-60774776D01*
X210627000Y-60750000D01*
X210627000Y-53727000D01*
X388373000Y-53727000D01*
X388373000Y-177123000D01*
X225000000Y-177123000D01*
X224975224Y-177125440D01*
X224951399Y-177132667D01*
X224929443Y-177144403D01*
X224910197Y-177160197D01*
X224894403Y-177179443D01*
X224882667Y-177201399D01*
X224875440Y-177225224D01*
X224873000Y-177250000D01*
X224873000Y-185623000D01*
X172511122Y-185623000D01*
X172486346Y-185625440D01*
X172462521Y-185632667D01*
X172440565Y-185644403D01*
X172421319Y-185660197D01*
X172405525Y-185679443D01*
X172393789Y-185701399D01*
X172386562Y-185725224D01*
X172384122Y-185749978D01*
X172380544Y-206338632D01*
X172148776Y-206570400D01*
X171817508Y-207066178D01*
X171589326Y-207617057D01*
X171473000Y-208201867D01*
X171473000Y-208798133D01*
X171589326Y-209382943D01*
X171817508Y-209933822D01*
X172148776Y-210429600D01*
X172379793Y-210660617D01*
X172373257Y-248273000D01*
X30627000Y-248273000D01*
X30627000Y-241250000D01*
X30624560Y-241225224D01*
X30617333Y-241201399D01*
X30605597Y-241179443D01*
X30589803Y-241160197D01*
X30570557Y-241144403D01*
X30548601Y-241132667D01*
X30524776Y-241125440D01*
X30500000Y-241123000D01*
X23727000Y-241123000D01*
X23727000Y-235354195D01*
X69523000Y-235354195D01*
X69523000Y-235845806D01*
X69573310Y-236356611D01*
X69772128Y-237012028D01*
X70094992Y-237616064D01*
X70529494Y-238145506D01*
X71058937Y-238580008D01*
X71662973Y-238902872D01*
X72318390Y-239101690D01*
X73000000Y-239168823D01*
X73681611Y-239101690D01*
X74250001Y-238929271D01*
X74818390Y-239101690D01*
X75500000Y-239168823D01*
X76181611Y-239101690D01*
X76837028Y-238902872D01*
X77441064Y-238580008D01*
X77970506Y-238145506D01*
X78405008Y-237616063D01*
X78727872Y-237012027D01*
X78926690Y-236356610D01*
X78961813Y-236000000D01*
X86873000Y-236000000D01*
X86873000Y-242000000D01*
X86923477Y-242512502D01*
X87072968Y-243005309D01*
X87315729Y-243459483D01*
X87642430Y-243857570D01*
X88040517Y-244184271D01*
X88494691Y-244427032D01*
X88987498Y-244576523D01*
X89500000Y-244627000D01*
X94000000Y-244627000D01*
X94512502Y-244576523D01*
X95005309Y-244427032D01*
X95459483Y-244184271D01*
X95857570Y-243857570D01*
X96184271Y-243459483D01*
X96427032Y-243005309D01*
X96576523Y-242512502D01*
X96627000Y-242000000D01*
X96627000Y-237468296D01*
X96847294Y-237880437D01*
X97206666Y-238318334D01*
X97644563Y-238677706D01*
X98144156Y-238944744D01*
X98686246Y-239109185D01*
X99250000Y-239164710D01*
X100450000Y-239164710D01*
X101013754Y-239109185D01*
X101353426Y-239006147D01*
X101668390Y-239101690D01*
X102350000Y-239168823D01*
X103031611Y-239101690D01*
X103687028Y-238902872D01*
X104291064Y-238580008D01*
X104820506Y-238145506D01*
X105255008Y-237616063D01*
X105577872Y-237012027D01*
X105776690Y-236356610D01*
X105827000Y-235845805D01*
X105827000Y-235354194D01*
X105784728Y-234925000D01*
X107360290Y-234925000D01*
X107360290Y-236275000D01*
X107415815Y-236838754D01*
X107580256Y-237380844D01*
X107847294Y-237880437D01*
X108206666Y-238318334D01*
X108644563Y-238677706D01*
X109144156Y-238944744D01*
X109686246Y-239109185D01*
X110250000Y-239164710D01*
X111450000Y-239164710D01*
X112013754Y-239109185D01*
X112353426Y-239006147D01*
X112668390Y-239101690D01*
X113350000Y-239168823D01*
X114031611Y-239101690D01*
X114687028Y-238902872D01*
X115291064Y-238580008D01*
X115820506Y-238145506D01*
X116255008Y-237616063D01*
X116577872Y-237012027D01*
X116776690Y-236356610D01*
X116827000Y-235845805D01*
X116827000Y-235354194D01*
X116784728Y-234925000D01*
X118110290Y-234925000D01*
X118110290Y-236275000D01*
X118165815Y-236838754D01*
X118330256Y-237380844D01*
X118597294Y-237880437D01*
X118956666Y-238318334D01*
X119394563Y-238677706D01*
X119894156Y-238944744D01*
X120436246Y-239109185D01*
X121000000Y-239164710D01*
X122200000Y-239164710D01*
X122763754Y-239109185D01*
X123103426Y-239006147D01*
X123418390Y-239101690D01*
X124100000Y-239168823D01*
X124781611Y-239101690D01*
X125437028Y-238902872D01*
X126041064Y-238580008D01*
X126570506Y-238145506D01*
X127005008Y-237616063D01*
X127327872Y-237012027D01*
X127526690Y-236356610D01*
X127577000Y-235845805D01*
X127577000Y-235354194D01*
X127526690Y-234843389D01*
X127327872Y-234187972D01*
X127005008Y-233583936D01*
X126570506Y-233054494D01*
X126041063Y-232619992D01*
X125437027Y-232297128D01*
X124781610Y-232098310D01*
X124100000Y-232031177D01*
X123418389Y-232098310D01*
X123103425Y-232193853D01*
X122763754Y-232090815D01*
X122200000Y-232035290D01*
X121000000Y-232035290D01*
X120436246Y-232090815D01*
X119894156Y-232255256D01*
X119394563Y-232522294D01*
X118956666Y-232881666D01*
X118597294Y-233319563D01*
X118330256Y-233819156D01*
X118165815Y-234361246D01*
X118110290Y-234925000D01*
X116784728Y-234925000D01*
X116776690Y-234843389D01*
X116577872Y-234187972D01*
X116255008Y-233583936D01*
X115820506Y-233054494D01*
X115291063Y-232619992D01*
X114687027Y-232297128D01*
X114031610Y-232098310D01*
X113350000Y-232031177D01*
X112668389Y-232098310D01*
X112353425Y-232193853D01*
X112013754Y-232090815D01*
X111450000Y-232035290D01*
X110250000Y-232035290D01*
X109686246Y-232090815D01*
X109144156Y-232255256D01*
X108644563Y-232522294D01*
X108206666Y-232881666D01*
X107847294Y-233319563D01*
X107580256Y-233819156D01*
X107415815Y-234361246D01*
X107360290Y-234925000D01*
X105784728Y-234925000D01*
X105776690Y-234843389D01*
X105577872Y-234187972D01*
X105255008Y-233583936D01*
X104820506Y-233054494D01*
X104291063Y-232619992D01*
X103687027Y-232297128D01*
X103031610Y-232098310D01*
X102350000Y-232031177D01*
X101668389Y-232098310D01*
X101353425Y-232193853D01*
X101013754Y-232090815D01*
X100450000Y-232035290D01*
X99250000Y-232035290D01*
X98686246Y-232090815D01*
X98144156Y-232255256D01*
X97644563Y-232522294D01*
X97206666Y-232881666D01*
X96847294Y-233319563D01*
X96580256Y-233819156D01*
X96415815Y-234361246D01*
X96364879Y-234878410D01*
X96184271Y-234540517D01*
X95857570Y-234142430D01*
X95459483Y-233815729D01*
X95005309Y-233572968D01*
X94512502Y-233423477D01*
X94000000Y-233373000D01*
X89500000Y-233373000D01*
X88987498Y-233423477D01*
X88494691Y-233572968D01*
X88040517Y-233815729D01*
X87642430Y-234142430D01*
X87315729Y-234540517D01*
X87072968Y-234994691D01*
X86923477Y-235487498D01*
X86873000Y-236000000D01*
X78961813Y-236000000D01*
X78977000Y-235845805D01*
X78977000Y-235354194D01*
X78926690Y-234843389D01*
X78727872Y-234187972D01*
X78405008Y-233583936D01*
X77970506Y-233054494D01*
X77441063Y-232619992D01*
X76837027Y-232297128D01*
X76181610Y-232098310D01*
X75500000Y-232031177D01*
X74818389Y-232098310D01*
X74250000Y-232270729D01*
X73681610Y-232098310D01*
X73000000Y-232031177D01*
X72318389Y-232098310D01*
X71662972Y-232297128D01*
X71058936Y-232619992D01*
X70529494Y-233054494D01*
X70094992Y-233583937D01*
X69772128Y-234187973D01*
X69573310Y-234843390D01*
X69523000Y-235354195D01*
X23727000Y-235354195D01*
X23727000Y-221700000D01*
X66060290Y-221700000D01*
X66060290Y-223300000D01*
X66111011Y-223814982D01*
X66261226Y-224310173D01*
X66505161Y-224766544D01*
X66833443Y-225166557D01*
X67233456Y-225494839D01*
X67689827Y-225738774D01*
X68185018Y-225888989D01*
X68700000Y-225939710D01*
X70300000Y-225939710D01*
X70814982Y-225888989D01*
X71310173Y-225738774D01*
X71766544Y-225494839D01*
X72166557Y-225166557D01*
X72494839Y-224766544D01*
X72500000Y-224756888D01*
X72505161Y-224766544D01*
X72833443Y-225166557D01*
X73233456Y-225494839D01*
X73689827Y-225738774D01*
X74185018Y-225888989D01*
X74700000Y-225939710D01*
X76300000Y-225939710D01*
X76814982Y-225888989D01*
X77310173Y-225738774D01*
X77766544Y-225494839D01*
X78166557Y-225166557D01*
X78494839Y-224766544D01*
X78738774Y-224310173D01*
X78888989Y-223814982D01*
X78939710Y-223300000D01*
X78939710Y-221700000D01*
X78888989Y-221185018D01*
X78738774Y-220689827D01*
X78494839Y-220233456D01*
X78166557Y-219833443D01*
X77766544Y-219505161D01*
X77310173Y-219261226D01*
X76814982Y-219111011D01*
X76300000Y-219060290D01*
X74700000Y-219060290D01*
X74185018Y-219111011D01*
X73689827Y-219261226D01*
X73233456Y-219505161D01*
X72833443Y-219833443D01*
X72505161Y-220233456D01*
X72500000Y-220243112D01*
X72494839Y-220233456D01*
X72166557Y-219833443D01*
X71766544Y-219505161D01*
X71310173Y-219261226D01*
X70814982Y-219111011D01*
X70300000Y-219060290D01*
X68700000Y-219060290D01*
X68185018Y-219111011D01*
X67689827Y-219261226D01*
X67233456Y-219505161D01*
X66833443Y-219833443D01*
X66505161Y-220233456D01*
X66261226Y-220689827D01*
X66111011Y-221185018D01*
X66060290Y-221700000D01*
X23727000Y-221700000D01*
X23727000Y-217950000D01*
X88060290Y-217950000D01*
X88060290Y-219550000D01*
X88111011Y-220064982D01*
X88261226Y-220560173D01*
X88505161Y-221016544D01*
X88833443Y-221416557D01*
X89233456Y-221744839D01*
X89689827Y-221988774D01*
X90185018Y-222138989D01*
X90700000Y-222189710D01*
X92300000Y-222189710D01*
X92814982Y-222138989D01*
X93310173Y-221988774D01*
X93766544Y-221744839D01*
X94166557Y-221416557D01*
X94494839Y-221016544D01*
X94738774Y-220560173D01*
X94888989Y-220064982D01*
X94939710Y-219550000D01*
X94939710Y-218201867D01*
X104973000Y-218201867D01*
X104973000Y-218798133D01*
X105089326Y-219382943D01*
X105317508Y-219933822D01*
X105648776Y-220429600D01*
X106070400Y-220851224D01*
X106566178Y-221182492D01*
X107117057Y-221410674D01*
X107701867Y-221527000D01*
X108298133Y-221527000D01*
X108882943Y-221410674D01*
X109433822Y-221182492D01*
X109929600Y-220851224D01*
X110351224Y-220429600D01*
X110682492Y-219933822D01*
X110910674Y-219382943D01*
X111027000Y-218798133D01*
X111027000Y-218201867D01*
X110910674Y-217617057D01*
X110682492Y-217066178D01*
X110351224Y-216570400D01*
X109929600Y-216148776D01*
X109433822Y-215817508D01*
X108882943Y-215589326D01*
X108298133Y-215473000D01*
X107701867Y-215473000D01*
X107117057Y-215589326D01*
X106566178Y-215817508D01*
X106070400Y-216148776D01*
X105648776Y-216570400D01*
X105317508Y-217066178D01*
X105089326Y-217617057D01*
X104973000Y-218201867D01*
X94939710Y-218201867D01*
X94939710Y-217950000D01*
X94888989Y-217435018D01*
X94738774Y-216939827D01*
X94494839Y-216483456D01*
X94166557Y-216083443D01*
X93766544Y-215755161D01*
X93310173Y-215511226D01*
X92814982Y-215361011D01*
X92300000Y-215310290D01*
X90700000Y-215310290D01*
X90185018Y-215361011D01*
X89689827Y-215511226D01*
X89233456Y-215755161D01*
X88833443Y-216083443D01*
X88505161Y-216483456D01*
X88261226Y-216939827D01*
X88111011Y-217435018D01*
X88060290Y-217950000D01*
X23727000Y-217950000D01*
X23727000Y-212827966D01*
X66628000Y-212827966D01*
X66628000Y-213672033D01*
X66678672Y-214186511D01*
X66878920Y-214846641D01*
X67204105Y-215455020D01*
X67641731Y-215988269D01*
X68174979Y-216425895D01*
X68783358Y-216751080D01*
X69443488Y-216951328D01*
X70130000Y-217018944D01*
X70816511Y-216951328D01*
X71400000Y-216774329D01*
X71983488Y-216951328D01*
X72670000Y-217018944D01*
X73356511Y-216951328D01*
X73940000Y-216774329D01*
X74523488Y-216951328D01*
X75210000Y-217018944D01*
X75896511Y-216951328D01*
X76556641Y-216751080D01*
X77165020Y-216425895D01*
X77698269Y-215988269D01*
X78135895Y-215455021D01*
X78461080Y-214846642D01*
X78661328Y-214186512D01*
X78712000Y-213672034D01*
X78712000Y-212827967D01*
X78661328Y-212313489D01*
X78461080Y-211653359D01*
X78135895Y-211044979D01*
X77698269Y-210511731D01*
X77165021Y-210074105D01*
X76556642Y-209748920D01*
X75896512Y-209548672D01*
X75210000Y-209481056D01*
X74523489Y-209548672D01*
X73940001Y-209725671D01*
X73356512Y-209548672D01*
X72670000Y-209481056D01*
X71983489Y-209548672D01*
X71400001Y-209725671D01*
X70816512Y-209548672D01*
X70130000Y-209481056D01*
X69443489Y-209548672D01*
X68783359Y-209748920D01*
X68174980Y-210074105D01*
X67641731Y-210511731D01*
X67204105Y-211044979D01*
X66878920Y-211653358D01*
X66678672Y-212313488D01*
X66628000Y-212827966D01*
X23727000Y-212827966D01*
X23727000Y-204950000D01*
X67310290Y-204950000D01*
X67310290Y-206550000D01*
X67361011Y-207064982D01*
X67511226Y-207560173D01*
X67755161Y-208016544D01*
X68083443Y-208416557D01*
X68483456Y-208744839D01*
X68939827Y-208988774D01*
X69435018Y-209138989D01*
X69950000Y-209189710D01*
X71550000Y-209189710D01*
X72064982Y-209138989D01*
X72126919Y-209120201D01*
X72412470Y-209177000D01*
X73087530Y-209177000D01*
X73749619Y-209045303D01*
X74373293Y-208786968D01*
X74934585Y-208411925D01*
X75411925Y-207934585D01*
X75786968Y-207373293D01*
X76045303Y-206749619D01*
X76162093Y-206162470D01*
X88073000Y-206162470D01*
X88073000Y-206837530D01*
X88204697Y-207499619D01*
X88463032Y-208123293D01*
X88838075Y-208684585D01*
X89315415Y-209161925D01*
X89876707Y-209536968D01*
X90500381Y-209795303D01*
X91162470Y-209927000D01*
X91837530Y-209927000D01*
X92499619Y-209795303D01*
X93123293Y-209536968D01*
X93684585Y-209161925D01*
X94161925Y-208684585D01*
X94536968Y-208123293D01*
X94795303Y-207499619D01*
X94927000Y-206837530D01*
X94927000Y-206162470D01*
X94795303Y-205500381D01*
X94536968Y-204876707D01*
X94161925Y-204315415D01*
X93684585Y-203838075D01*
X93123293Y-203463032D01*
X92499619Y-203204697D01*
X91837530Y-203073000D01*
X91162470Y-203073000D01*
X90500381Y-203204697D01*
X89876707Y-203463032D01*
X89315415Y-203838075D01*
X88838075Y-204315415D01*
X88463032Y-204876707D01*
X88204697Y-205500381D01*
X88073000Y-206162470D01*
X76162093Y-206162470D01*
X76177000Y-206087530D01*
X76177000Y-205412470D01*
X76045303Y-204750381D01*
X75786968Y-204126707D01*
X75411925Y-203565415D01*
X74934585Y-203088075D01*
X74373293Y-202713032D01*
X73749619Y-202454697D01*
X73087530Y-202323000D01*
X72412470Y-202323000D01*
X72126919Y-202379799D01*
X72064982Y-202361011D01*
X71550000Y-202310290D01*
X69950000Y-202310290D01*
X69435018Y-202361011D01*
X68939827Y-202511226D01*
X68483456Y-202755161D01*
X68083443Y-203083443D01*
X67755161Y-203483456D01*
X67511226Y-203939827D01*
X67361011Y-204435018D01*
X67310290Y-204950000D01*
X23727000Y-204950000D01*
X23727000Y-195877000D01*
X74096176Y-195877000D01*
X74254433Y-196035257D01*
X74349231Y-196150769D01*
X74624895Y-196377000D01*
X74810151Y-196529036D01*
X75066775Y-196666204D01*
X75336012Y-196810114D01*
X75906604Y-196983202D01*
X76351296Y-197027000D01*
X76351297Y-197027000D01*
X76499999Y-197041646D01*
X76648701Y-197027000D01*
X97873000Y-197027000D01*
X97873000Y-214000000D01*
X97875440Y-214024776D01*
X97882667Y-214048601D01*
X97894403Y-214070557D01*
X97910197Y-214089803D01*
X97929443Y-214105597D01*
X97951399Y-214117333D01*
X97975224Y-214124560D01*
X98000000Y-214127000D01*
X112511122Y-214127000D01*
X112535898Y-214124560D01*
X112559723Y-214117333D01*
X112581679Y-214105597D01*
X112600925Y-214089803D01*
X112616719Y-214070557D01*
X112628455Y-214048601D01*
X112635682Y-214024776D01*
X112638122Y-214000000D01*
X112638122Y-208551867D01*
X121823000Y-208551867D01*
X121823000Y-209148133D01*
X121939326Y-209732943D01*
X122167508Y-210283822D01*
X122498776Y-210779600D01*
X122920400Y-211201224D01*
X123416178Y-211532492D01*
X123967057Y-211760674D01*
X124551867Y-211877000D01*
X125148133Y-211877000D01*
X125732943Y-211760674D01*
X126283822Y-211532492D01*
X126350000Y-211488273D01*
X126416178Y-211532492D01*
X126967057Y-211760674D01*
X127551867Y-211877000D01*
X128148133Y-211877000D01*
X128732943Y-211760674D01*
X129283822Y-211532492D01*
X129779600Y-211201224D01*
X130201224Y-210779600D01*
X130532492Y-210283822D01*
X130760674Y-209732943D01*
X130877000Y-209148133D01*
X130877000Y-208551867D01*
X130760674Y-207967057D01*
X130532492Y-207416178D01*
X130201224Y-206920400D01*
X129779600Y-206498776D01*
X129283822Y-206167508D01*
X128732943Y-205939326D01*
X128148133Y-205823000D01*
X127551867Y-205823000D01*
X126967057Y-205939326D01*
X126416178Y-206167508D01*
X126350000Y-206211727D01*
X126283822Y-206167508D01*
X125732943Y-205939326D01*
X125148133Y-205823000D01*
X124551867Y-205823000D01*
X123967057Y-205939326D01*
X123416178Y-206167508D01*
X122920400Y-206498776D01*
X122498776Y-206920400D01*
X122167508Y-207416178D01*
X121939326Y-207967057D01*
X121823000Y-208551867D01*
X112638122Y-208551867D01*
X112638122Y-197801893D01*
X113223000Y-197801893D01*
X113223000Y-198398159D01*
X113339326Y-198982969D01*
X113567508Y-199533848D01*
X113898776Y-200029626D01*
X114320400Y-200451250D01*
X114816178Y-200782518D01*
X115367057Y-201010700D01*
X115951867Y-201127026D01*
X116548133Y-201127026D01*
X116925065Y-201052049D01*
X117301867Y-201127000D01*
X117898133Y-201127000D01*
X118300000Y-201047064D01*
X118701867Y-201127000D01*
X119298133Y-201127000D01*
X119882943Y-201010674D01*
X120433822Y-200782492D01*
X120929600Y-200451224D01*
X121351224Y-200029600D01*
X121682492Y-199533822D01*
X121910674Y-198982943D01*
X122027000Y-198398133D01*
X122027000Y-197801867D01*
X121910674Y-197217057D01*
X121682492Y-196666178D01*
X121351224Y-196170400D01*
X120929600Y-195748776D01*
X120433822Y-195417508D01*
X119882943Y-195189326D01*
X119298133Y-195073000D01*
X118701867Y-195073000D01*
X118300000Y-195152936D01*
X117898133Y-195073000D01*
X117301867Y-195073000D01*
X116924935Y-195147977D01*
X116548133Y-195073026D01*
X115951867Y-195073026D01*
X115367057Y-195189352D01*
X114816178Y-195417534D01*
X114320400Y-195748802D01*
X113898776Y-196170426D01*
X113567508Y-196666204D01*
X113339326Y-197217083D01*
X113223000Y-197801893D01*
X112638122Y-197801893D01*
X112638122Y-188550742D01*
X112635682Y-188525966D01*
X112628455Y-188502141D01*
X112616719Y-188480185D01*
X112600925Y-188460939D01*
X112581679Y-188445145D01*
X112559723Y-188433409D01*
X112535898Y-188426182D01*
X112511122Y-188423742D01*
X76127000Y-188423742D01*
X76127000Y-181322675D01*
X122123000Y-181322675D01*
X122123000Y-182677325D01*
X122387279Y-184005947D01*
X122905682Y-185257481D01*
X123658285Y-186383832D01*
X124616168Y-187341715D01*
X125742519Y-188094318D01*
X126994053Y-188612721D01*
X128322675Y-188877000D01*
X129677325Y-188877000D01*
X131005947Y-188612721D01*
X132257481Y-188094318D01*
X133383832Y-187341715D01*
X134341715Y-186383832D01*
X135094318Y-185257481D01*
X135612721Y-184005947D01*
X135877000Y-182677325D01*
X135877000Y-181322675D01*
X135612721Y-179994053D01*
X135094318Y-178742519D01*
X134341715Y-177616168D01*
X133383832Y-176658285D01*
X132257481Y-175905682D01*
X131005947Y-175387279D01*
X129677325Y-175123000D01*
X128322675Y-175123000D01*
X126994053Y-175387279D01*
X125742519Y-175905682D01*
X124616168Y-176658285D01*
X123658285Y-177616168D01*
X122905682Y-178742519D01*
X122387279Y-179994053D01*
X122123000Y-181322675D01*
X76127000Y-181322675D01*
X76127000Y-172877000D01*
X78000000Y-172877000D01*
X78024776Y-172874560D01*
X78048601Y-172867333D01*
X78070557Y-172855597D01*
X78089803Y-172839803D01*
X78105597Y-172820557D01*
X78117333Y-172798601D01*
X78124560Y-172774776D01*
X78127000Y-172750000D01*
X78127000Y-165000000D01*
X162873000Y-165000000D01*
X162873000Y-175000000D01*
X162875440Y-175024776D01*
X162882667Y-175048601D01*
X162894403Y-175070557D01*
X162910197Y-175089803D01*
X162929443Y-175105597D01*
X162951399Y-175117333D01*
X162975224Y-175124560D01*
X163000000Y-175127000D01*
X176000000Y-175127000D01*
X176024776Y-175124560D01*
X176048601Y-175117333D01*
X176070557Y-175105597D01*
X176089803Y-175089803D01*
X176105597Y-175070557D01*
X176117333Y-175048601D01*
X176124560Y-175024776D01*
X176127000Y-175000000D01*
X176127000Y-173000000D01*
X191360290Y-173000000D01*
X191360290Y-175000000D01*
X191411011Y-175514982D01*
X191561226Y-176010173D01*
X191805161Y-176466544D01*
X192124280Y-176855392D01*
X191785794Y-177361971D01*
X191512383Y-178022043D01*
X191373000Y-178722772D01*
X191373000Y-179437228D01*
X191512383Y-180137957D01*
X191785794Y-180798029D01*
X192182725Y-181392078D01*
X192687922Y-181897275D01*
X193281971Y-182294206D01*
X193942043Y-182567617D01*
X194642772Y-182707000D01*
X195357228Y-182707000D01*
X196057957Y-182567617D01*
X196718029Y-182294206D01*
X197312078Y-181897275D01*
X197817275Y-181392078D01*
X198214206Y-180798029D01*
X198487617Y-180137957D01*
X198627000Y-179437228D01*
X198627000Y-178722772D01*
X198487617Y-178022043D01*
X198214206Y-177361971D01*
X197875720Y-176855392D01*
X198194839Y-176466544D01*
X198386001Y-176108903D01*
X207283000Y-176108903D01*
X207283000Y-176971097D01*
X207451206Y-177816724D01*
X207781153Y-178613287D01*
X208260162Y-179330175D01*
X208869825Y-179939838D01*
X209586713Y-180418847D01*
X210383276Y-180748794D01*
X211228903Y-180917000D01*
X212091097Y-180917000D01*
X212936724Y-180748794D01*
X213733287Y-180418847D01*
X214450175Y-179939838D01*
X215059838Y-179330175D01*
X215538847Y-178613287D01*
X215868794Y-177816724D01*
X216037000Y-176971097D01*
X216037000Y-176108903D01*
X215868794Y-175263276D01*
X215538847Y-174466713D01*
X215059838Y-173749825D01*
X214450175Y-173140162D01*
X213733287Y-172661153D01*
X212936724Y-172331206D01*
X212091097Y-172163000D01*
X211228903Y-172163000D01*
X210383276Y-172331206D01*
X209586713Y-172661153D01*
X208869825Y-173140162D01*
X208260162Y-173749825D01*
X207781153Y-174466713D01*
X207451206Y-175263276D01*
X207283000Y-176108903D01*
X198386001Y-176108903D01*
X198438774Y-176010173D01*
X198588989Y-175514982D01*
X198639710Y-175000000D01*
X198639710Y-173000000D01*
X198588989Y-172485018D01*
X198438774Y-171989827D01*
X198194839Y-171533456D01*
X197866557Y-171133443D01*
X197466544Y-170805161D01*
X197010173Y-170561226D01*
X196514982Y-170411011D01*
X196000000Y-170360290D01*
X194000000Y-170360290D01*
X193485018Y-170411011D01*
X192989827Y-170561226D01*
X192533456Y-170805161D01*
X192133443Y-171133443D01*
X191805161Y-171533456D01*
X191561226Y-171989827D01*
X191411011Y-172485018D01*
X191360290Y-173000000D01*
X176127000Y-173000000D01*
X176127000Y-172234409D01*
X176270903Y-171760024D01*
X176327000Y-171190462D01*
X176327000Y-168809537D01*
X176270903Y-168239975D01*
X176127000Y-167765591D01*
X176127000Y-165000000D01*
X176124560Y-164975224D01*
X176117333Y-164951399D01*
X176105597Y-164929443D01*
X176089803Y-164910197D01*
X176070557Y-164894403D01*
X176048601Y-164882667D01*
X176024776Y-164875440D01*
X176000000Y-164873000D01*
X163000000Y-164873000D01*
X162975224Y-164875440D01*
X162951399Y-164882667D01*
X162929443Y-164894403D01*
X162910197Y-164910197D01*
X162894403Y-164929443D01*
X162882667Y-164951399D01*
X162875440Y-164975224D01*
X162873000Y-165000000D01*
X78127000Y-165000000D01*
X78127000Y-164623073D01*
X190173000Y-164623073D01*
X190173000Y-165376927D01*
X190320070Y-166116295D01*
X190608557Y-166812764D01*
X191027375Y-167439570D01*
X191560430Y-167972625D01*
X192187236Y-168391443D01*
X192883705Y-168679930D01*
X193623073Y-168827000D01*
X194376927Y-168827000D01*
X195116295Y-168679930D01*
X195812764Y-168391443D01*
X196439570Y-167972625D01*
X196972625Y-167439570D01*
X197391443Y-166812764D01*
X197679930Y-166116295D01*
X197827000Y-165376927D01*
X197827000Y-164623073D01*
X211173000Y-164623073D01*
X211173000Y-165376927D01*
X211320070Y-166116295D01*
X211608557Y-166812764D01*
X212027375Y-167439570D01*
X212560430Y-167972625D01*
X213187236Y-168391443D01*
X213883705Y-168679930D01*
X214623073Y-168827000D01*
X215376927Y-168827000D01*
X216116295Y-168679930D01*
X216812764Y-168391443D01*
X217439570Y-167972625D01*
X217972625Y-167439570D01*
X218391443Y-166812764D01*
X218679930Y-166116295D01*
X218827000Y-165376927D01*
X218827000Y-164623073D01*
X218679930Y-163883705D01*
X218391443Y-163187236D01*
X217972625Y-162560430D01*
X217439570Y-162027375D01*
X216812764Y-161608557D01*
X216116295Y-161320070D01*
X215376927Y-161173000D01*
X214623073Y-161173000D01*
X213883705Y-161320070D01*
X213187236Y-161608557D01*
X212560430Y-162027375D01*
X212027375Y-162560430D01*
X211608557Y-163187236D01*
X211320070Y-163883705D01*
X211173000Y-164623073D01*
X197827000Y-164623073D01*
X197679930Y-163883705D01*
X197391443Y-163187236D01*
X196972625Y-162560430D01*
X196439570Y-162027375D01*
X195812764Y-161608557D01*
X195116295Y-161320070D01*
X194376927Y-161173000D01*
X193623073Y-161173000D01*
X192883705Y-161320070D01*
X192187236Y-161608557D01*
X191560430Y-162027375D01*
X191027375Y-162560430D01*
X190608557Y-163187236D01*
X190320070Y-163883705D01*
X190173000Y-164623073D01*
X78127000Y-164623073D01*
X78127000Y-157623073D01*
X81173000Y-157623073D01*
X81173000Y-158376927D01*
X81320070Y-159116295D01*
X81608557Y-159812764D01*
X82027375Y-160439570D01*
X82560430Y-160972625D01*
X83187236Y-161391443D01*
X83883705Y-161679930D01*
X84623073Y-161827000D01*
X85376927Y-161827000D01*
X86116295Y-161679930D01*
X86812764Y-161391443D01*
X87439570Y-160972625D01*
X87972625Y-160439570D01*
X88391443Y-159812764D01*
X88679930Y-159116295D01*
X88827000Y-158376927D01*
X88827000Y-157623073D01*
X88679930Y-156883705D01*
X88391443Y-156187236D01*
X87972625Y-155560430D01*
X87439570Y-155027375D01*
X86812764Y-154608557D01*
X86116295Y-154320070D01*
X85376927Y-154173000D01*
X84623073Y-154173000D01*
X83883705Y-154320070D01*
X83187236Y-154608557D01*
X82560430Y-155027375D01*
X82027375Y-155560430D01*
X81608557Y-156187236D01*
X81320070Y-156883705D01*
X81173000Y-157623073D01*
X78127000Y-157623073D01*
X78127000Y-146951867D01*
X160473000Y-146951867D01*
X160473000Y-147548133D01*
X160589326Y-148132943D01*
X160817508Y-148683822D01*
X161148776Y-149179600D01*
X161570400Y-149601224D01*
X162066178Y-149932492D01*
X162617057Y-150160674D01*
X163201867Y-150277000D01*
X163798133Y-150277000D01*
X164125000Y-150211982D01*
X164451867Y-150277000D01*
X165048133Y-150277000D01*
X165375000Y-150211982D01*
X165701867Y-150277000D01*
X166298133Y-150277000D01*
X166882943Y-150160674D01*
X167433822Y-149932492D01*
X167929600Y-149601224D01*
X168071706Y-149459118D01*
X168023000Y-149703979D01*
X168023000Y-150576021D01*
X168193127Y-151431308D01*
X168526844Y-152236971D01*
X169011325Y-152962048D01*
X169627952Y-153578675D01*
X170353029Y-154063156D01*
X171158692Y-154396873D01*
X172013979Y-154567000D01*
X172886021Y-154567000D01*
X173741308Y-154396873D01*
X174546971Y-154063156D01*
X175015642Y-153750000D01*
X240610290Y-153750000D01*
X240610290Y-157750000D01*
X240661011Y-158264982D01*
X240811226Y-158760173D01*
X241055161Y-159216544D01*
X241383443Y-159616557D01*
X241783456Y-159944839D01*
X242239827Y-160188774D01*
X242735018Y-160338989D01*
X243250000Y-160389710D01*
X247250000Y-160389710D01*
X247764982Y-160338989D01*
X248260173Y-160188774D01*
X248716544Y-159944839D01*
X249116557Y-159616557D01*
X249444839Y-159216544D01*
X249688774Y-158760173D01*
X249838989Y-158264982D01*
X249889710Y-157750000D01*
X249889710Y-153750000D01*
X280610290Y-153750000D01*
X280610290Y-157750000D01*
X280661011Y-158264982D01*
X280811226Y-158760173D01*
X281055161Y-159216544D01*
X281383443Y-159616557D01*
X281783456Y-159944839D01*
X282239827Y-160188774D01*
X282735018Y-160338989D01*
X283250000Y-160389710D01*
X287250000Y-160389710D01*
X287764982Y-160338989D01*
X288260173Y-160188774D01*
X288716544Y-159944839D01*
X289116557Y-159616557D01*
X289444839Y-159216544D01*
X289688774Y-158760173D01*
X289838989Y-158264982D01*
X289889710Y-157750000D01*
X289889710Y-153750000D01*
X320610290Y-153750000D01*
X320610290Y-157750000D01*
X320661011Y-158264982D01*
X320811226Y-158760173D01*
X321055161Y-159216544D01*
X321383443Y-159616557D01*
X321783456Y-159944839D01*
X322239827Y-160188774D01*
X322735018Y-160338989D01*
X323250000Y-160389710D01*
X327250000Y-160389710D01*
X327764982Y-160338989D01*
X328260173Y-160188774D01*
X328716544Y-159944839D01*
X329116557Y-159616557D01*
X329444839Y-159216544D01*
X329688774Y-158760173D01*
X329838989Y-158264982D01*
X329889710Y-157750000D01*
X329889710Y-153750000D01*
X329838989Y-153235018D01*
X329688774Y-152739827D01*
X329444839Y-152283456D01*
X329239710Y-152033505D01*
X329239710Y-151899999D01*
X329184185Y-151336245D01*
X329019744Y-150794155D01*
X328752706Y-150294563D01*
X328393334Y-149856666D01*
X327955437Y-149497294D01*
X327455845Y-149230256D01*
X326913755Y-149065815D01*
X326350001Y-149010290D01*
X324149999Y-149010290D01*
X323586245Y-149065815D01*
X323044155Y-149230256D01*
X322544563Y-149497294D01*
X322106666Y-149856666D01*
X321747294Y-150294563D01*
X321480256Y-150794155D01*
X321315815Y-151336245D01*
X321260290Y-151899999D01*
X321260290Y-152033505D01*
X321055161Y-152283456D01*
X320811226Y-152739827D01*
X320661011Y-153235018D01*
X320610290Y-153750000D01*
X289889710Y-153750000D01*
X289838989Y-153235018D01*
X289688774Y-152739827D01*
X289444839Y-152283456D01*
X289239710Y-152033505D01*
X289239710Y-151899999D01*
X289184185Y-151336245D01*
X289019744Y-150794155D01*
X288752706Y-150294563D01*
X288393334Y-149856666D01*
X287955437Y-149497294D01*
X287455845Y-149230256D01*
X286913755Y-149065815D01*
X286350001Y-149010290D01*
X284149999Y-149010290D01*
X283586245Y-149065815D01*
X283044155Y-149230256D01*
X282544563Y-149497294D01*
X282106666Y-149856666D01*
X281747294Y-150294563D01*
X281480256Y-150794155D01*
X281315815Y-151336245D01*
X281260290Y-151899999D01*
X281260290Y-152033505D01*
X281055161Y-152283456D01*
X280811226Y-152739827D01*
X280661011Y-153235018D01*
X280610290Y-153750000D01*
X249889710Y-153750000D01*
X249838989Y-153235018D01*
X249688774Y-152739827D01*
X249444839Y-152283456D01*
X249239710Y-152033505D01*
X249239710Y-151899999D01*
X249184185Y-151336245D01*
X249019744Y-150794155D01*
X248752706Y-150294563D01*
X248393334Y-149856666D01*
X247955437Y-149497294D01*
X247455845Y-149230256D01*
X246913755Y-149065815D01*
X246350001Y-149010290D01*
X244149999Y-149010290D01*
X243586245Y-149065815D01*
X243044155Y-149230256D01*
X242544563Y-149497294D01*
X242106666Y-149856666D01*
X241747294Y-150294563D01*
X241480256Y-150794155D01*
X241315815Y-151336245D01*
X241260290Y-151899999D01*
X241260290Y-152033505D01*
X241055161Y-152283456D01*
X240811226Y-152739827D01*
X240661011Y-153235018D01*
X240610290Y-153750000D01*
X175015642Y-153750000D01*
X175272048Y-153578675D01*
X175888675Y-152962048D01*
X176373156Y-152236971D01*
X176706873Y-151431308D01*
X176877000Y-150576021D01*
X176877000Y-149703979D01*
X176706873Y-148848692D01*
X176373156Y-148043029D01*
X175888675Y-147317952D01*
X175272048Y-146701325D01*
X174546971Y-146216844D01*
X173741308Y-145883127D01*
X172886021Y-145713000D01*
X172013979Y-145713000D01*
X171158692Y-145883127D01*
X170353029Y-146216844D01*
X169627952Y-146701325D01*
X169027000Y-147302277D01*
X169027000Y-146951867D01*
X168910674Y-146367057D01*
X168682492Y-145816178D01*
X168351224Y-145320400D01*
X167929600Y-144898776D01*
X167433822Y-144567508D01*
X166882943Y-144339326D01*
X166298133Y-144223000D01*
X165701867Y-144223000D01*
X165375000Y-144288018D01*
X165048133Y-144223000D01*
X164451867Y-144223000D01*
X164125000Y-144288018D01*
X163798133Y-144223000D01*
X163201867Y-144223000D01*
X162617057Y-144339326D01*
X162066178Y-144567508D01*
X161570400Y-144898776D01*
X161148776Y-145320400D01*
X160817508Y-145816178D01*
X160589326Y-146367057D01*
X160473000Y-146951867D01*
X78127000Y-146951867D01*
X78127000Y-133322675D01*
X122123000Y-133322675D01*
X122123000Y-134677325D01*
X122387279Y-136005947D01*
X122905682Y-137257481D01*
X123658285Y-138383832D01*
X124616168Y-139341715D01*
X125742519Y-140094318D01*
X126994053Y-140612721D01*
X128322675Y-140877000D01*
X129677325Y-140877000D01*
X131005947Y-140612721D01*
X132257481Y-140094318D01*
X133383832Y-139341715D01*
X133523680Y-139201867D01*
X175223000Y-139201867D01*
X175223000Y-139798133D01*
X175339326Y-140382943D01*
X175567508Y-140933822D01*
X175898776Y-141429600D01*
X176320400Y-141851224D01*
X176816178Y-142182492D01*
X177367057Y-142410674D01*
X177951867Y-142527000D01*
X178548133Y-142527000D01*
X179000000Y-142437118D01*
X179451867Y-142527000D01*
X180048133Y-142527000D01*
X180500000Y-142437118D01*
X180951867Y-142527000D01*
X181548133Y-142527000D01*
X182132943Y-142410674D01*
X182683822Y-142182492D01*
X183179600Y-141851224D01*
X183601224Y-141429600D01*
X183932492Y-140933822D01*
X184160674Y-140382943D01*
X184277000Y-139798133D01*
X184277000Y-139201867D01*
X184160674Y-138617057D01*
X183932492Y-138066178D01*
X183601224Y-137570400D01*
X183179600Y-137148776D01*
X182683822Y-136817508D01*
X182132943Y-136589326D01*
X181548133Y-136473000D01*
X180951867Y-136473000D01*
X180500000Y-136562882D01*
X180048133Y-136473000D01*
X179451867Y-136473000D01*
X179000000Y-136562882D01*
X178548133Y-136473000D01*
X177951867Y-136473000D01*
X177367057Y-136589326D01*
X176816178Y-136817508D01*
X176320400Y-137148776D01*
X175898776Y-137570400D01*
X175567508Y-138066178D01*
X175339326Y-138617057D01*
X175223000Y-139201867D01*
X133523680Y-139201867D01*
X134341715Y-138383832D01*
X135094318Y-137257481D01*
X135612721Y-136005947D01*
X135877000Y-134677325D01*
X135877000Y-133322675D01*
X135612721Y-131994053D01*
X135094318Y-130742519D01*
X134988184Y-130583677D01*
X200773000Y-130583677D01*
X200773000Y-131416323D01*
X200935441Y-132232971D01*
X201254081Y-133002235D01*
X201716674Y-133694556D01*
X202305444Y-134283326D01*
X202997765Y-134745919D01*
X203767029Y-135064559D01*
X204583677Y-135227000D01*
X205416323Y-135227000D01*
X206232971Y-135064559D01*
X207002235Y-134745919D01*
X207694556Y-134283326D01*
X208283326Y-133694556D01*
X208745919Y-133002235D01*
X209064559Y-132232971D01*
X209227000Y-131416323D01*
X209227000Y-130583677D01*
X209064559Y-129767029D01*
X208745919Y-128997765D01*
X208283326Y-128305444D01*
X207694556Y-127716674D01*
X207002235Y-127254081D01*
X206232971Y-126935441D01*
X205416323Y-126773000D01*
X204583677Y-126773000D01*
X203767029Y-126935441D01*
X202997765Y-127254081D01*
X202305444Y-127716674D01*
X201716674Y-128305444D01*
X201254081Y-128997765D01*
X200935441Y-129767029D01*
X200773000Y-130583677D01*
X134988184Y-130583677D01*
X134341715Y-129616168D01*
X133383832Y-128658285D01*
X132257481Y-127905682D01*
X131005947Y-127387279D01*
X129677325Y-127123000D01*
X128322675Y-127123000D01*
X126994053Y-127387279D01*
X125742519Y-127905682D01*
X124616168Y-128658285D01*
X123658285Y-129616168D01*
X122905682Y-130742519D01*
X122387279Y-131994053D01*
X122123000Y-133322675D01*
X78127000Y-133322675D01*
X78127000Y-119322675D01*
X122123000Y-119322675D01*
X122123000Y-120677325D01*
X122387279Y-122005947D01*
X122905682Y-123257481D01*
X123658285Y-124383832D01*
X124616168Y-125341715D01*
X125742519Y-126094318D01*
X126994053Y-126612721D01*
X128322675Y-126877000D01*
X129677325Y-126877000D01*
X131005947Y-126612721D01*
X131172998Y-126543526D01*
X367123000Y-126543526D01*
X367123000Y-127356474D01*
X367281598Y-128153802D01*
X367569973Y-128850000D01*
X367281598Y-129546198D01*
X367123000Y-130343526D01*
X367123000Y-131156474D01*
X367281598Y-131953802D01*
X367592700Y-132704868D01*
X368044350Y-133380809D01*
X368619191Y-133955650D01*
X369295132Y-134407300D01*
X370046198Y-134718402D01*
X370843526Y-134877000D01*
X371656474Y-134877000D01*
X372453802Y-134718402D01*
X373204868Y-134407300D01*
X373880809Y-133955650D01*
X374455650Y-133380809D01*
X374907300Y-132704868D01*
X375218402Y-131953802D01*
X375377000Y-131156474D01*
X375377000Y-130343526D01*
X375218402Y-129546198D01*
X374930027Y-128850000D01*
X375218402Y-128153802D01*
X375377000Y-127356474D01*
X375377000Y-126543526D01*
X375218402Y-125746198D01*
X374907300Y-124995132D01*
X374455650Y-124319191D01*
X373880809Y-123744350D01*
X373204868Y-123292700D01*
X372453802Y-122981598D01*
X371656474Y-122823000D01*
X370843526Y-122823000D01*
X370046198Y-122981598D01*
X369295132Y-123292700D01*
X368619191Y-123744350D01*
X368044350Y-124319191D01*
X367592700Y-124995132D01*
X367281598Y-125746198D01*
X367123000Y-126543526D01*
X131172998Y-126543526D01*
X132257481Y-126094318D01*
X133383832Y-125341715D01*
X134341715Y-124383832D01*
X135094318Y-123257481D01*
X135612721Y-122005947D01*
X135877000Y-120677325D01*
X135877000Y-119322675D01*
X135612721Y-117994053D01*
X135094318Y-116742519D01*
X134341715Y-115616168D01*
X133927414Y-115201867D01*
X169723000Y-115201867D01*
X169723000Y-115798133D01*
X169839326Y-116382943D01*
X170067508Y-116933822D01*
X170398776Y-117429600D01*
X170820400Y-117851224D01*
X171316178Y-118182492D01*
X171867057Y-118410674D01*
X172451867Y-118527000D01*
X173048133Y-118527000D01*
X173500000Y-118437118D01*
X173951867Y-118527000D01*
X174548133Y-118527000D01*
X174875000Y-118461982D01*
X175063006Y-118499379D01*
X174973000Y-118951867D01*
X174973000Y-119548133D01*
X175089326Y-120132943D01*
X175317508Y-120683822D01*
X175648776Y-121179600D01*
X176070400Y-121601224D01*
X176566178Y-121932492D01*
X177117057Y-122160674D01*
X177701867Y-122277000D01*
X178298133Y-122277000D01*
X178750000Y-122187118D01*
X179201867Y-122277000D01*
X179798133Y-122277000D01*
X180250000Y-122187118D01*
X180701867Y-122277000D01*
X181298133Y-122277000D01*
X181882943Y-122160674D01*
X182433822Y-121932492D01*
X182929600Y-121601224D01*
X183351224Y-121179600D01*
X183682492Y-120683822D01*
X183910674Y-120132943D01*
X184027000Y-119548133D01*
X184027000Y-118951867D01*
X183910674Y-118367057D01*
X183682492Y-117816178D01*
X183351224Y-117320400D01*
X182929600Y-116898776D01*
X182433822Y-116567508D01*
X181882943Y-116339326D01*
X181298133Y-116223000D01*
X180701867Y-116223000D01*
X180250000Y-116312882D01*
X179798133Y-116223000D01*
X179201867Y-116223000D01*
X178750000Y-116312882D01*
X178436994Y-116250621D01*
X178527000Y-115798133D01*
X178527000Y-115201867D01*
X178410674Y-114617057D01*
X178182492Y-114066178D01*
X177851224Y-113570400D01*
X177429600Y-113148776D01*
X176933822Y-112817508D01*
X176382943Y-112589326D01*
X175798133Y-112473000D01*
X175201867Y-112473000D01*
X174875000Y-112538018D01*
X174548133Y-112473000D01*
X173951867Y-112473000D01*
X173500000Y-112562882D01*
X173048133Y-112473000D01*
X172451867Y-112473000D01*
X171867057Y-112589326D01*
X171316178Y-112817508D01*
X170820400Y-113148776D01*
X170398776Y-113570400D01*
X170067508Y-114066178D01*
X169839326Y-114617057D01*
X169723000Y-115201867D01*
X133927414Y-115201867D01*
X133383832Y-114658285D01*
X132257481Y-113905682D01*
X131005947Y-113387279D01*
X129677325Y-113123000D01*
X128322675Y-113123000D01*
X126994053Y-113387279D01*
X125742519Y-113905682D01*
X124616168Y-114658285D01*
X123658285Y-115616168D01*
X122905682Y-116742519D01*
X122387279Y-117994053D01*
X122123000Y-119322675D01*
X78127000Y-119322675D01*
X78127000Y-106423979D01*
X167123000Y-106423979D01*
X167123000Y-107296021D01*
X167293127Y-108151308D01*
X167626844Y-108956971D01*
X168111325Y-109682048D01*
X168727952Y-110298675D01*
X169453029Y-110783156D01*
X170258692Y-111116873D01*
X171113979Y-111287000D01*
X171986021Y-111287000D01*
X172841308Y-111116873D01*
X173646971Y-110783156D01*
X174372048Y-110298675D01*
X174988675Y-109682048D01*
X175473156Y-108956971D01*
X175806873Y-108151308D01*
X175977000Y-107296021D01*
X175977000Y-106423979D01*
X175806873Y-105568692D01*
X175473156Y-104763029D01*
X174988675Y-104037952D01*
X174372048Y-103421325D01*
X173646971Y-102936844D01*
X172841308Y-102603127D01*
X171986021Y-102433000D01*
X171113979Y-102433000D01*
X170258692Y-102603127D01*
X169453029Y-102936844D01*
X168727952Y-103421325D01*
X168111325Y-104037952D01*
X167626844Y-104763029D01*
X167293127Y-105568692D01*
X167123000Y-106423979D01*
X78127000Y-106423979D01*
X78127000Y-95623073D01*
X81173000Y-95623073D01*
X81173000Y-96376927D01*
X81320070Y-97116295D01*
X81608557Y-97812764D01*
X82027375Y-98439570D01*
X82560430Y-98972625D01*
X83187236Y-99391443D01*
X83883705Y-99679930D01*
X84623073Y-99827000D01*
X85376927Y-99827000D01*
X86116295Y-99679930D01*
X86812764Y-99391443D01*
X87439570Y-98972625D01*
X87972625Y-98439570D01*
X88391443Y-97812764D01*
X88679930Y-97116295D01*
X88827000Y-96376927D01*
X88827000Y-95623073D01*
X88679930Y-94883705D01*
X88391443Y-94187236D01*
X87972625Y-93560430D01*
X87439570Y-93027375D01*
X86834489Y-92623073D01*
X190173000Y-92623073D01*
X190173000Y-93376927D01*
X190320070Y-94116295D01*
X190608557Y-94812764D01*
X191027375Y-95439570D01*
X191560430Y-95972625D01*
X192187236Y-96391443D01*
X192883705Y-96679930D01*
X193623073Y-96827000D01*
X194376927Y-96827000D01*
X195116295Y-96679930D01*
X195812764Y-96391443D01*
X196439570Y-95972625D01*
X196972625Y-95439570D01*
X197391443Y-94812764D01*
X197679930Y-94116295D01*
X197827000Y-93376927D01*
X197827000Y-92623073D01*
X211173000Y-92623073D01*
X211173000Y-93376927D01*
X211320070Y-94116295D01*
X211608557Y-94812764D01*
X212027375Y-95439570D01*
X212560430Y-95972625D01*
X213187236Y-96391443D01*
X213883705Y-96679930D01*
X214623073Y-96827000D01*
X215376927Y-96827000D01*
X216116295Y-96679930D01*
X216812764Y-96391443D01*
X217439570Y-95972625D01*
X217972625Y-95439570D01*
X218391443Y-94812764D01*
X218679930Y-94116295D01*
X218827000Y-93376927D01*
X218827000Y-92623073D01*
X218679930Y-91883705D01*
X218391443Y-91187236D01*
X218099292Y-90750000D01*
X240610290Y-90750000D01*
X240610290Y-94750000D01*
X240661011Y-95264982D01*
X240811226Y-95760173D01*
X241055161Y-96216544D01*
X241260290Y-96466495D01*
X241260290Y-96600001D01*
X241315815Y-97163755D01*
X241480256Y-97705845D01*
X241747294Y-98205437D01*
X242106666Y-98643334D01*
X242544563Y-99002706D01*
X243044155Y-99269744D01*
X243586245Y-99434185D01*
X244149999Y-99489710D01*
X246350001Y-99489710D01*
X246913755Y-99434185D01*
X247455845Y-99269744D01*
X247955437Y-99002706D01*
X248393334Y-98643334D01*
X248752706Y-98205437D01*
X249019744Y-97705845D01*
X249184185Y-97163755D01*
X249239710Y-96600001D01*
X249239710Y-96466495D01*
X249444839Y-96216544D01*
X249688774Y-95760173D01*
X249838989Y-95264982D01*
X249889710Y-94750000D01*
X249889710Y-90750000D01*
X280610290Y-90750000D01*
X280610290Y-94750000D01*
X280661011Y-95264982D01*
X280811226Y-95760173D01*
X281055161Y-96216544D01*
X281260290Y-96466495D01*
X281260290Y-96600001D01*
X281315815Y-97163755D01*
X281480256Y-97705845D01*
X281747294Y-98205437D01*
X282106666Y-98643334D01*
X282544563Y-99002706D01*
X283044155Y-99269744D01*
X283586245Y-99434185D01*
X284149999Y-99489710D01*
X286350001Y-99489710D01*
X286913755Y-99434185D01*
X287455845Y-99269744D01*
X287955437Y-99002706D01*
X288393334Y-98643334D01*
X288752706Y-98205437D01*
X289019744Y-97705845D01*
X289184185Y-97163755D01*
X289239710Y-96600001D01*
X289239710Y-96466495D01*
X289444839Y-96216544D01*
X289688774Y-95760173D01*
X289838989Y-95264982D01*
X289889710Y-94750000D01*
X289889710Y-90750000D01*
X320610290Y-90750000D01*
X320610290Y-94750000D01*
X320661011Y-95264982D01*
X320811226Y-95760173D01*
X321055161Y-96216544D01*
X321260290Y-96466495D01*
X321260290Y-96600001D01*
X321315815Y-97163755D01*
X321480256Y-97705845D01*
X321747294Y-98205437D01*
X322106666Y-98643334D01*
X322544563Y-99002706D01*
X323044155Y-99269744D01*
X323586245Y-99434185D01*
X324149999Y-99489710D01*
X326350001Y-99489710D01*
X326913755Y-99434185D01*
X327455845Y-99269744D01*
X327955437Y-99002706D01*
X328393334Y-98643334D01*
X328752706Y-98205437D01*
X329019744Y-97705845D01*
X329184185Y-97163755D01*
X329239710Y-96600001D01*
X329239710Y-96466495D01*
X329444839Y-96216544D01*
X329688774Y-95760173D01*
X329838989Y-95264982D01*
X329889710Y-94750000D01*
X329889710Y-90750000D01*
X329838989Y-90235018D01*
X329688774Y-89739827D01*
X329444839Y-89283456D01*
X329116557Y-88883443D01*
X328716544Y-88555161D01*
X328260173Y-88311226D01*
X327764982Y-88161011D01*
X327250000Y-88110290D01*
X323250000Y-88110290D01*
X322735018Y-88161011D01*
X322239827Y-88311226D01*
X321783456Y-88555161D01*
X321383443Y-88883443D01*
X321055161Y-89283456D01*
X320811226Y-89739827D01*
X320661011Y-90235018D01*
X320610290Y-90750000D01*
X289889710Y-90750000D01*
X289838989Y-90235018D01*
X289688774Y-89739827D01*
X289444839Y-89283456D01*
X289116557Y-88883443D01*
X288716544Y-88555161D01*
X288260173Y-88311226D01*
X287764982Y-88161011D01*
X287250000Y-88110290D01*
X283250000Y-88110290D01*
X282735018Y-88161011D01*
X282239827Y-88311226D01*
X281783456Y-88555161D01*
X281383443Y-88883443D01*
X281055161Y-89283456D01*
X280811226Y-89739827D01*
X280661011Y-90235018D01*
X280610290Y-90750000D01*
X249889710Y-90750000D01*
X249838989Y-90235018D01*
X249688774Y-89739827D01*
X249444839Y-89283456D01*
X249116557Y-88883443D01*
X248716544Y-88555161D01*
X248260173Y-88311226D01*
X247764982Y-88161011D01*
X247250000Y-88110290D01*
X243250000Y-88110290D01*
X242735018Y-88161011D01*
X242239827Y-88311226D01*
X241783456Y-88555161D01*
X241383443Y-88883443D01*
X241055161Y-89283456D01*
X240811226Y-89739827D01*
X240661011Y-90235018D01*
X240610290Y-90750000D01*
X218099292Y-90750000D01*
X217972625Y-90560430D01*
X217439570Y-90027375D01*
X216812764Y-89608557D01*
X216116295Y-89320070D01*
X215376927Y-89173000D01*
X214623073Y-89173000D01*
X213883705Y-89320070D01*
X213187236Y-89608557D01*
X212560430Y-90027375D01*
X212027375Y-90560430D01*
X211608557Y-91187236D01*
X211320070Y-91883705D01*
X211173000Y-92623073D01*
X197827000Y-92623073D01*
X197679930Y-91883705D01*
X197391443Y-91187236D01*
X196972625Y-90560430D01*
X196439570Y-90027375D01*
X195812764Y-89608557D01*
X195116295Y-89320070D01*
X194376927Y-89173000D01*
X193623073Y-89173000D01*
X192883705Y-89320070D01*
X192187236Y-89608557D01*
X191560430Y-90027375D01*
X191027375Y-90560430D01*
X190608557Y-91187236D01*
X190320070Y-91883705D01*
X190173000Y-92623073D01*
X86834489Y-92623073D01*
X86812764Y-92608557D01*
X86116295Y-92320070D01*
X85376927Y-92173000D01*
X84623073Y-92173000D01*
X83883705Y-92320070D01*
X83187236Y-92608557D01*
X82560430Y-93027375D01*
X82027375Y-93560430D01*
X81608557Y-94187236D01*
X81320070Y-94883705D01*
X81173000Y-95623073D01*
X78127000Y-95623073D01*
X78127000Y-85809537D01*
X167673000Y-85809537D01*
X167673000Y-88190462D01*
X167729097Y-88760024D01*
X167950788Y-89490841D01*
X168310795Y-90164368D01*
X168795282Y-90754718D01*
X169385632Y-91239205D01*
X170059158Y-91599212D01*
X170789975Y-91820903D01*
X171550000Y-91895759D01*
X172310024Y-91820903D01*
X173040841Y-91599212D01*
X173714368Y-91239205D01*
X173875544Y-91106932D01*
X173883443Y-91116557D01*
X174283456Y-91444839D01*
X174739827Y-91688774D01*
X175235018Y-91838989D01*
X175750000Y-91889710D01*
X178250000Y-91889710D01*
X178764982Y-91838989D01*
X179260173Y-91688774D01*
X179716544Y-91444839D01*
X180116557Y-91116557D01*
X180444839Y-90716544D01*
X180688774Y-90260173D01*
X180838989Y-89764982D01*
X180889710Y-89250000D01*
X180889710Y-84750000D01*
X180838989Y-84235018D01*
X180688774Y-83739827D01*
X180444839Y-83283456D01*
X180116557Y-82883443D01*
X179716544Y-82555161D01*
X179260173Y-82311226D01*
X178764982Y-82161011D01*
X178250000Y-82110290D01*
X175750000Y-82110290D01*
X175235018Y-82161011D01*
X174739827Y-82311226D01*
X174283456Y-82555161D01*
X173883443Y-82883443D01*
X173875544Y-82893068D01*
X173714368Y-82760795D01*
X173040842Y-82400788D01*
X172310025Y-82179097D01*
X171550000Y-82104241D01*
X170789976Y-82179097D01*
X170059159Y-82400788D01*
X169385633Y-82760795D01*
X168795283Y-83245282D01*
X168310796Y-83835632D01*
X167950788Y-84509158D01*
X167729097Y-85239975D01*
X167673000Y-85809537D01*
X78127000Y-85809537D01*
X78127000Y-71322675D01*
X122123000Y-71322675D01*
X122123000Y-72677325D01*
X122387279Y-74005947D01*
X122905682Y-75257481D01*
X123658285Y-76383832D01*
X124616168Y-77341715D01*
X125742519Y-78094318D01*
X126994053Y-78612721D01*
X128322675Y-78877000D01*
X129677325Y-78877000D01*
X131005947Y-78612721D01*
X132257481Y-78094318D01*
X132398637Y-78000000D01*
X191360290Y-78000000D01*
X191360290Y-80000000D01*
X191411011Y-80514982D01*
X191561226Y-81010173D01*
X191805161Y-81466544D01*
X192124280Y-81855392D01*
X191785794Y-82361971D01*
X191512383Y-83022043D01*
X191373000Y-83722772D01*
X191373000Y-84437228D01*
X191512383Y-85137957D01*
X191785794Y-85798029D01*
X192182725Y-86392078D01*
X192687922Y-86897275D01*
X193281971Y-87294206D01*
X193942043Y-87567617D01*
X194642772Y-87707000D01*
X195357228Y-87707000D01*
X196057957Y-87567617D01*
X196718029Y-87294206D01*
X197312078Y-86897275D01*
X197817275Y-86392078D01*
X198214206Y-85798029D01*
X198487617Y-85137957D01*
X198627000Y-84437228D01*
X198627000Y-83722772D01*
X198487617Y-83022043D01*
X198214206Y-82361971D01*
X197875720Y-81855392D01*
X198194839Y-81466544D01*
X198386001Y-81108903D01*
X207283000Y-81108903D01*
X207283000Y-81971097D01*
X207451206Y-82816724D01*
X207781153Y-83613287D01*
X208260162Y-84330175D01*
X208869825Y-84939838D01*
X209586713Y-85418847D01*
X210383276Y-85748794D01*
X211228903Y-85917000D01*
X212091097Y-85917000D01*
X212936724Y-85748794D01*
X213733287Y-85418847D01*
X214450175Y-84939838D01*
X215059838Y-84330175D01*
X215538847Y-83613287D01*
X215868794Y-82816724D01*
X216037000Y-81971097D01*
X216037000Y-81108903D01*
X215868794Y-80263276D01*
X215538847Y-79466713D01*
X215059838Y-78749825D01*
X214450175Y-78140162D01*
X213733287Y-77661153D01*
X212936724Y-77331206D01*
X212091097Y-77163000D01*
X211228903Y-77163000D01*
X210383276Y-77331206D01*
X209586713Y-77661153D01*
X208869825Y-78140162D01*
X208260162Y-78749825D01*
X207781153Y-79466713D01*
X207451206Y-80263276D01*
X207283000Y-81108903D01*
X198386001Y-81108903D01*
X198438774Y-81010173D01*
X198588989Y-80514982D01*
X198639710Y-80000000D01*
X198639710Y-78000000D01*
X198588989Y-77485018D01*
X198438774Y-76989827D01*
X198194839Y-76533456D01*
X197866557Y-76133443D01*
X197466544Y-75805161D01*
X197010173Y-75561226D01*
X196514982Y-75411011D01*
X196000000Y-75360290D01*
X194000000Y-75360290D01*
X193485018Y-75411011D01*
X192989827Y-75561226D01*
X192533456Y-75805161D01*
X192133443Y-76133443D01*
X191805161Y-76533456D01*
X191561226Y-76989827D01*
X191411011Y-77485018D01*
X191360290Y-78000000D01*
X132398637Y-78000000D01*
X133383832Y-77341715D01*
X134341715Y-76383832D01*
X135094318Y-75257481D01*
X135612721Y-74005947D01*
X135877000Y-72677325D01*
X135877000Y-71322675D01*
X135612721Y-69994053D01*
X135094318Y-68742519D01*
X134341715Y-67616168D01*
X133383832Y-66658285D01*
X132257481Y-65905682D01*
X131005947Y-65387279D01*
X129677325Y-65123000D01*
X128322675Y-65123000D01*
X126994053Y-65387279D01*
X125742519Y-65905682D01*
X124616168Y-66658285D01*
X123658285Y-67616168D01*
X122905682Y-68742519D01*
X122387279Y-69994053D01*
X122123000Y-71322675D01*
X78127000Y-71322675D01*
X78127000Y-53727000D01*
X199373000Y-53727000D01*
X199373000Y-60750000D01*
G37*
G04 #@! TD.AperFunction*
G04 #@! TD*
D34*
G04 #@! TO.N,Net-(D11-Pad2)*
X63873000Y-89000000D02*
X63875440Y-89024776D01*
X63882667Y-89048601D01*
X63894403Y-89070557D01*
X63910197Y-89089803D01*
X63929443Y-89105597D01*
X63951399Y-89117333D01*
X63975224Y-89124560D01*
X64000000Y-89127000D01*
X70873000Y-89127000D01*
X70873000Y-144873000D01*
X63000000Y-144873000D01*
X62975224Y-144875440D01*
X62951399Y-144882667D01*
X62929443Y-144894403D01*
X62910197Y-144910197D01*
X62894403Y-144929443D01*
X62882667Y-144951399D01*
X62875440Y-144975224D01*
X62873000Y-145000000D01*
X62873000Y-156873000D01*
X58127000Y-156873000D01*
X58127000Y-101127000D01*
X61000000Y-101127000D01*
X61024776Y-101124560D01*
X61048601Y-101117333D01*
X61070557Y-101105597D01*
X61089803Y-101089803D01*
X61105597Y-101070557D01*
X61117333Y-101048601D01*
X61124560Y-101024776D01*
X61127000Y-101000000D01*
X61127000Y-93000000D01*
X61124560Y-92975224D01*
X61117333Y-92951399D01*
X61105597Y-92929443D01*
X61089803Y-92910197D01*
X61070557Y-92894403D01*
X61048601Y-92882667D01*
X61024776Y-92875440D01*
X61000000Y-92873000D01*
X58127000Y-92873000D01*
X58127000Y-79127000D01*
X63873000Y-79127000D01*
X63873000Y-89000000D01*
G04 #@! TA.AperFunction,Conductor*
D35*
G36*
X63873000Y-89000000D02*
G01*
X63875440Y-89024776D01*
X63882667Y-89048601D01*
X63894403Y-89070557D01*
X63910197Y-89089803D01*
X63929443Y-89105597D01*
X63951399Y-89117333D01*
X63975224Y-89124560D01*
X64000000Y-89127000D01*
X70873000Y-89127000D01*
X70873000Y-144873000D01*
X63000000Y-144873000D01*
X62975224Y-144875440D01*
X62951399Y-144882667D01*
X62929443Y-144894403D01*
X62910197Y-144910197D01*
X62894403Y-144929443D01*
X62882667Y-144951399D01*
X62875440Y-144975224D01*
X62873000Y-145000000D01*
X62873000Y-156873000D01*
X58127000Y-156873000D01*
X58127000Y-101127000D01*
X61000000Y-101127000D01*
X61024776Y-101124560D01*
X61048601Y-101117333D01*
X61070557Y-101105597D01*
X61089803Y-101089803D01*
X61105597Y-101070557D01*
X61117333Y-101048601D01*
X61124560Y-101024776D01*
X61127000Y-101000000D01*
X61127000Y-93000000D01*
X61124560Y-92975224D01*
X61117333Y-92951399D01*
X61105597Y-92929443D01*
X61089803Y-92910197D01*
X61070557Y-92894403D01*
X61048601Y-92882667D01*
X61024776Y-92875440D01*
X61000000Y-92873000D01*
X58127000Y-92873000D01*
X58127000Y-79127000D01*
X63873000Y-79127000D01*
X63873000Y-89000000D01*
G37*
G04 #@! TD.AperFunction*
G04 #@! TD*
D34*
G04 #@! TO.N,CS1*
X46873000Y-85873000D02*
X42000000Y-85873000D01*
X41975224Y-85875440D01*
X41951399Y-85882667D01*
X41929443Y-85894403D01*
X41910197Y-85910197D01*
X41894403Y-85929443D01*
X41882667Y-85951399D01*
X41875440Y-85975224D01*
X41873000Y-86000000D01*
X41873000Y-149000000D01*
X41875440Y-149024776D01*
X41882667Y-149048601D01*
X41894403Y-149070557D01*
X41910197Y-149089803D01*
X41929443Y-149105597D01*
X41951399Y-149117333D01*
X41975224Y-149124560D01*
X42000000Y-149127000D01*
X47873000Y-149127000D01*
X47873000Y-173000000D01*
X47875440Y-173024776D01*
X47882667Y-173048601D01*
X47894403Y-173070557D01*
X47910197Y-173089803D01*
X47929443Y-173105597D01*
X47951399Y-173117333D01*
X47975224Y-173124560D01*
X48000000Y-173127000D01*
X71373000Y-173127000D01*
X71373000Y-188873000D01*
X23127000Y-188873000D01*
X23127000Y-79127000D01*
X46873000Y-79127000D01*
X46873000Y-85873000D01*
G04 #@! TA.AperFunction,Conductor*
D35*
G36*
X46873000Y-85873000D02*
G01*
X42000000Y-85873000D01*
X41975224Y-85875440D01*
X41951399Y-85882667D01*
X41929443Y-85894403D01*
X41910197Y-85910197D01*
X41894403Y-85929443D01*
X41882667Y-85951399D01*
X41875440Y-85975224D01*
X41873000Y-86000000D01*
X41873000Y-149000000D01*
X41875440Y-149024776D01*
X41882667Y-149048601D01*
X41894403Y-149070557D01*
X41910197Y-149089803D01*
X41929443Y-149105597D01*
X41951399Y-149117333D01*
X41975224Y-149124560D01*
X42000000Y-149127000D01*
X47873000Y-149127000D01*
X47873000Y-173000000D01*
X47875440Y-173024776D01*
X47882667Y-173048601D01*
X47894403Y-173070557D01*
X47910197Y-173089803D01*
X47929443Y-173105597D01*
X47951399Y-173117333D01*
X47975224Y-173124560D01*
X48000000Y-173127000D01*
X71373000Y-173127000D01*
X71373000Y-188873000D01*
X23127000Y-188873000D01*
X23127000Y-79127000D01*
X46873000Y-79127000D01*
X46873000Y-85873000D01*
G37*
G04 #@! TD.AperFunction*
G04 #@! TD*
D34*
G04 #@! TO.N,VCC*
X93873000Y-241873000D02*
X89627000Y-241873000D01*
X89627000Y-236127000D01*
X93873000Y-236127000D01*
X93873000Y-241873000D01*
G04 #@! TA.AperFunction,Conductor*
D35*
G36*
X93873000Y-241873000D02*
G01*
X89627000Y-241873000D01*
X89627000Y-236127000D01*
X93873000Y-236127000D01*
X93873000Y-241873000D01*
G37*
G04 #@! TD.AperFunction*
G04 #@! TD*
D34*
G04 #@! TO.N,AC_IN2*
X54873000Y-156873000D02*
X50127000Y-156873000D01*
X50127000Y-146000000D01*
X50124560Y-145975224D01*
X50117333Y-145951399D01*
X50105597Y-145929443D01*
X50089803Y-145910197D01*
X50070557Y-145894403D01*
X50048601Y-145882667D01*
X50024776Y-145875440D01*
X50000000Y-145873000D01*
X45127000Y-145873000D01*
X45127000Y-89127000D01*
X50000000Y-89127000D01*
X50024776Y-89124560D01*
X50048601Y-89117333D01*
X50070557Y-89105597D01*
X50089803Y-89089803D01*
X50105597Y-89070557D01*
X50117333Y-89048601D01*
X50124560Y-89024776D01*
X50127000Y-89000000D01*
X50127000Y-79127000D01*
X54873000Y-79127000D01*
X54873000Y-156873000D01*
G04 #@! TA.AperFunction,Conductor*
D35*
G36*
X54873000Y-156873000D02*
G01*
X50127000Y-156873000D01*
X50127000Y-146000000D01*
X50124560Y-145975224D01*
X50117333Y-145951399D01*
X50105597Y-145929443D01*
X50089803Y-145910197D01*
X50070557Y-145894403D01*
X50048601Y-145882667D01*
X50024776Y-145875440D01*
X50000000Y-145873000D01*
X45127000Y-145873000D01*
X45127000Y-89127000D01*
X50000000Y-89127000D01*
X50024776Y-89124560D01*
X50048601Y-89117333D01*
X50070557Y-89105597D01*
X50089803Y-89089803D01*
X50105597Y-89070557D01*
X50117333Y-89048601D01*
X50124560Y-89024776D01*
X50127000Y-89000000D01*
X50127000Y-79127000D01*
X54873000Y-79127000D01*
X54873000Y-156873000D01*
G37*
G04 #@! TD.AperFunction*
G04 #@! TD*
M02*
